G04 #@! TF.FileFunction,Other,Fab,Top*
%FSLAX46Y46*%
G04 Gerber Fmt 4.6, Leading zero omitted, Abs format (unit mm)*
G04 Created by KiCad (PCBNEW 4.0.2+dfsg1-stable) date mer 23 gen 2019 10:30:30 CET*
%MOMM*%
G01*
G04 APERTURE LIST*
%ADD10C,0.100000*%
%ADD11C,0.200000*%
%ADD12C,0.030000*%
%ADD13C,0.150000*%
%ADD14C,0.075000*%
%ADD15C,0.090000*%
G04 APERTURE END LIST*
D10*
X173697120Y-70957440D02*
X121697120Y-70957440D01*
X173697120Y-100957440D02*
X173697120Y-70957440D01*
X121697120Y-100957440D02*
X173697120Y-100957440D01*
X121697120Y-70957440D02*
X121697120Y-100957440D01*
X150082440Y-93044620D02*
X150582440Y-93044620D01*
X150082440Y-94044620D02*
X150082440Y-93044620D01*
X150582440Y-94044620D02*
X150082440Y-94044620D01*
X150582440Y-93044620D02*
X150582440Y-94044620D01*
X153051980Y-89397840D02*
X153051980Y-89897840D01*
X152051980Y-89397840D02*
X153051980Y-89397840D01*
X152051980Y-89897840D02*
X152051980Y-89397840D01*
X153051980Y-89897840D02*
X152051980Y-89897840D01*
X160387500Y-93555820D02*
X160387500Y-94055820D01*
X159387500Y-93555820D02*
X160387500Y-93555820D01*
X159387500Y-94055820D02*
X159387500Y-93555820D01*
X160387500Y-94055820D02*
X159387500Y-94055820D01*
X153720840Y-96146620D02*
X153720840Y-96646620D01*
X152720840Y-96146620D02*
X153720840Y-96146620D01*
X152720840Y-96646620D02*
X152720840Y-96146620D01*
X153720840Y-96646620D02*
X152720840Y-96646620D01*
X151849900Y-96459320D02*
X151349900Y-96459320D01*
X151849900Y-95459320D02*
X151849900Y-96459320D01*
X151349900Y-95459320D02*
X151849900Y-95459320D01*
X151349900Y-96459320D02*
X151349900Y-95459320D01*
X154062240Y-95360340D02*
X153562240Y-95360340D01*
X154062240Y-94360340D02*
X154062240Y-95360340D01*
X153562240Y-94360340D02*
X154062240Y-94360340D01*
X153562240Y-95360340D02*
X153562240Y-94360340D01*
D11*
X136702620Y-96764460D02*
X137972620Y-98034460D01*
X137972620Y-98034460D02*
X137972620Y-99964460D01*
X137972620Y-99964460D02*
X131222620Y-99964460D01*
X131222620Y-99964460D02*
X131222620Y-96764460D01*
X131222620Y-96764460D02*
X136702620Y-96764460D01*
X143031340Y-96674100D02*
X144301340Y-97944100D01*
X144301340Y-97944100D02*
X144301340Y-99874100D01*
X144301340Y-99874100D02*
X140051340Y-99874100D01*
X140051340Y-99874100D02*
X140051340Y-96674100D01*
X140051340Y-96674100D02*
X143031340Y-96674100D01*
D10*
X129894382Y-82886056D02*
X129894382Y-84386056D01*
X133094382Y-82886056D02*
X133094382Y-84386056D01*
X129894382Y-82886056D02*
X133094382Y-82886056D01*
X129894382Y-84386056D02*
X133094382Y-84386056D01*
X156841820Y-91682200D02*
X155991820Y-91682200D01*
X155491820Y-92182200D02*
X155491820Y-93882200D01*
X156841820Y-91682200D02*
X156841820Y-93882200D01*
X156841820Y-93882200D02*
X155491820Y-93882200D01*
X155991820Y-91682200D02*
X155491820Y-92182200D01*
X148128340Y-96469940D02*
X145828340Y-96469940D01*
X145828340Y-96469940D02*
X145728340Y-96369940D01*
X145728340Y-96369940D02*
X145728340Y-94569940D01*
X145728340Y-94569940D02*
X145828340Y-94469940D01*
X145828340Y-94469940D02*
X148128340Y-94469940D01*
X148128340Y-94469940D02*
X148228340Y-94569940D01*
X148228340Y-94569940D02*
X148228340Y-96369940D01*
X148228340Y-96369940D02*
X148128340Y-96469940D01*
X148228340Y-95469940D02*
X147228340Y-94469940D01*
D12*
X150422916Y-93577953D02*
X150422916Y-93673191D01*
X150222916Y-93673191D01*
X150422916Y-93406524D02*
X150422916Y-93520810D01*
X150422916Y-93463667D02*
X150222916Y-93463667D01*
X150251488Y-93482715D01*
X150270535Y-93501762D01*
X150280059Y-93520810D01*
X152518647Y-89738316D02*
X152423409Y-89738316D01*
X152423409Y-89538316D01*
X152575790Y-89557364D02*
X152585314Y-89547840D01*
X152604362Y-89538316D01*
X152651981Y-89538316D01*
X152671028Y-89547840D01*
X152680552Y-89557364D01*
X152690076Y-89576411D01*
X152690076Y-89595459D01*
X152680552Y-89624030D01*
X152566266Y-89738316D01*
X152690076Y-89738316D01*
X159854167Y-93896296D02*
X159758929Y-93896296D01*
X159758929Y-93696296D01*
X159901786Y-93696296D02*
X160025596Y-93696296D01*
X159958929Y-93772487D01*
X159987501Y-93772487D01*
X160006548Y-93782010D01*
X160016072Y-93791534D01*
X160025596Y-93810582D01*
X160025596Y-93858201D01*
X160016072Y-93877249D01*
X160006548Y-93886772D01*
X159987501Y-93896296D01*
X159930358Y-93896296D01*
X159911310Y-93886772D01*
X159901786Y-93877249D01*
X153187507Y-96487096D02*
X153092269Y-96487096D01*
X153092269Y-96287096D01*
X153339888Y-96353763D02*
X153339888Y-96487096D01*
X153292269Y-96277572D02*
X153244650Y-96420430D01*
X153368460Y-96420430D01*
X151690376Y-95992653D02*
X151690376Y-96087891D01*
X151490376Y-96087891D01*
X151490376Y-95830748D02*
X151490376Y-95925986D01*
X151585614Y-95935510D01*
X151576090Y-95925986D01*
X151566567Y-95906938D01*
X151566567Y-95859319D01*
X151576090Y-95840272D01*
X151585614Y-95830748D01*
X151604662Y-95821224D01*
X151652281Y-95821224D01*
X151671329Y-95830748D01*
X151680852Y-95840272D01*
X151690376Y-95859319D01*
X151690376Y-95906938D01*
X151680852Y-95925986D01*
X151671329Y-95935510D01*
X153902716Y-94988911D02*
X153902716Y-95084149D01*
X153702716Y-95084149D01*
X153902716Y-94817482D02*
X153902716Y-94931768D01*
X153902716Y-94874625D02*
X153702716Y-94874625D01*
X153731288Y-94893673D01*
X153750335Y-94912720D01*
X153759859Y-94931768D01*
X153902716Y-94627006D02*
X153902716Y-94741292D01*
X153902716Y-94684149D02*
X153702716Y-94684149D01*
X153731288Y-94703197D01*
X153750335Y-94722244D01*
X153759859Y-94741292D01*
D13*
X130922954Y-82183675D02*
X130827716Y-82136056D01*
X130732478Y-82040818D01*
X130589621Y-81897961D01*
X130494382Y-81850342D01*
X130399144Y-81850342D01*
X130446763Y-82088437D02*
X130351525Y-82040818D01*
X130256287Y-81945580D01*
X130208668Y-81755104D01*
X130208668Y-81421770D01*
X130256287Y-81231294D01*
X130351525Y-81136056D01*
X130446763Y-81088437D01*
X130637240Y-81088437D01*
X130732478Y-81136056D01*
X130827716Y-81231294D01*
X130875335Y-81421770D01*
X130875335Y-81755104D01*
X130827716Y-81945580D01*
X130732478Y-82040818D01*
X130637240Y-82088437D01*
X130446763Y-82088437D01*
X131208668Y-81088437D02*
X131875335Y-81088437D01*
X131208668Y-82088437D01*
X131875335Y-82088437D01*
X132161049Y-81088437D02*
X132780097Y-81088437D01*
X132446763Y-81469389D01*
X132589621Y-81469389D01*
X132684859Y-81517008D01*
X132732478Y-81564627D01*
X132780097Y-81659866D01*
X132780097Y-81897961D01*
X132732478Y-81993199D01*
X132684859Y-82040818D01*
X132589621Y-82088437D01*
X132303906Y-82088437D01*
X132208668Y-82040818D01*
X132161049Y-81993199D01*
D14*
X155814270Y-92119212D02*
X156219032Y-92119212D01*
X156266651Y-92095403D01*
X156290461Y-92071593D01*
X156314270Y-92023974D01*
X156314270Y-91928736D01*
X156290461Y-91881117D01*
X156266651Y-91857308D01*
X156219032Y-91833498D01*
X155814270Y-91833498D01*
X155814270Y-91357307D02*
X155814270Y-91595402D01*
X156052366Y-91619212D01*
X156028556Y-91595402D01*
X156004747Y-91547783D01*
X156004747Y-91428736D01*
X156028556Y-91381117D01*
X156052366Y-91357307D01*
X156099985Y-91333498D01*
X156219032Y-91333498D01*
X156266651Y-91357307D01*
X156290461Y-91381117D01*
X156314270Y-91428736D01*
X156314270Y-91547783D01*
X156290461Y-91595402D01*
X156266651Y-91619212D01*
D15*
X146635483Y-95798511D02*
X146578340Y-95769940D01*
X146521197Y-95712797D01*
X146435483Y-95627083D01*
X146378340Y-95598511D01*
X146321197Y-95598511D01*
X146349769Y-95741369D02*
X146292626Y-95712797D01*
X146235483Y-95655654D01*
X146206912Y-95541369D01*
X146206912Y-95341369D01*
X146235483Y-95227083D01*
X146292626Y-95169940D01*
X146349769Y-95141369D01*
X146464055Y-95141369D01*
X146521197Y-95169940D01*
X146578340Y-95227083D01*
X146606912Y-95341369D01*
X146606912Y-95541369D01*
X146578340Y-95655654D01*
X146521197Y-95712797D01*
X146464055Y-95741369D01*
X146349769Y-95741369D01*
X146806911Y-95141369D02*
X147206911Y-95141369D01*
X146806911Y-95741369D01*
X147206911Y-95741369D01*
X147749769Y-95741369D02*
X147406912Y-95741369D01*
X147578340Y-95741369D02*
X147578340Y-95141369D01*
X147521197Y-95227083D01*
X147464055Y-95284226D01*
X147406912Y-95312797D01*
M02*
