M48
;DRILL file {KiCad 4.0.2+dfsg1-stable} date mer 23 gen 2019 10:30:22 CET
;FORMAT={-:-/ absolute / inch / decimal}
FMAT,2
INCH,TZ
T1C0.016
T2C0.020
T3C0.031
%
G90
G05
M72
T1
X4.9795Y-2.9819
X5.0218Y-3.1372
X5.0468Y-3.1837
X5.0881Y-3.0771
X5.094Y-3.5051
X5.1065Y-3.1417
X5.1258Y-3.1106
X5.1343Y-3.0345
X5.1783Y-3.2308
X5.182Y-3.1996
X5.1923Y-3.2877
X5.2275Y-3.0637
X5.2275Y-3.1077
X5.2275Y-3.1537
X5.2755Y-3.0637
X5.2755Y-3.1077
X5.2755Y-3.1537
X5.2848Y-3.3129
X5.3235Y-3.0637
X5.3235Y-3.1077
X5.3235Y-3.1537
X5.3582Y-3.578
X5.3682Y-2.9113
X5.384Y-3.4582
X5.4051Y-3.0961
X5.4072Y-3.3094
X5.423Y-3.265
X5.4294Y-3.1859
X5.431Y-2.961
X5.4512Y-3.0696
X5.4538Y-3.3598
X5.4545Y-3.265
X5.4758Y-3.0427
X5.4775Y-3.6859
X5.4891Y-3.265
X5.5048Y-3.6442
X5.5195Y-2.9108
X5.5946Y-3.3288
X5.6468Y-3.6758
X5.6713Y-3.6077
X5.6907Y-3.5829
X5.7155Y-3.6401
X5.7326Y-3.2808
X5.736Y-3.1229
X5.7429Y-3.938
X5.7556Y-3.2027
X5.7561Y-3.0222
X5.7584Y-3.6658
X5.7588Y-2.9246
X5.7801Y-3.5291
X5.7801Y-3.5691
X5.7821Y-3.0618
X5.7849Y-3.2783
X5.7919Y-3.9363
X5.7974Y-3.1492
X5.8119Y-2.9397
X5.8119Y-3.2268
X5.8143Y-3.3366
X5.8187Y-2.8303
X5.8241Y-3.5291
X5.8241Y-3.5691
X5.8392Y-2.9998
X5.846Y-3.0908
X5.8467Y-3.3724
X5.8517Y-3.6755
X5.8517Y-3.9304
X5.8546Y-2.8853
X5.8646Y-3.2965
X5.8791Y-3.2217
X5.881Y-3.1509
X5.8968Y-3.0375
X5.9026Y-3.9382
X5.9027Y-2.9384
X5.903Y-3.3311
X5.9044Y-2.8507
X5.9092Y-3.4793
X5.9329Y-3.2509
X5.9418Y-3.372
X5.9545Y-3.9274
X5.9648Y-3.3119
X5.9682Y-3.853
X6.0094Y-3.9186
X6.0186Y-3.2658
X6.0205Y-3.3728
X6.0583Y-3.3008
X6.0632Y-3.9372
X6.0701Y-3.8736
X6.086Y-3.349
X6.0979Y-3.2492
X6.1053Y-3.9108
X6.1132Y-3.8393
X6.1426Y-3.8795
X6.1551Y-3.2812
X6.1559Y-3.3477
X6.1573Y-3.9431
X6.1729Y-3.807
X6.1925Y-3.8687
X6.1968Y-3.3883
X6.2066Y-3.3192
X6.2074Y-3.4998
X6.2074Y-3.7129
X6.218Y-3.9304
X6.2228Y-3.2667
X6.2454Y-3.8883
X6.2464Y-3.5314
X6.251Y-3.3674
X6.2552Y-3.8246
X6.2689Y-3.4744
X6.2706Y-3.3094
X6.274Y-3.7808
X6.2749Y-3.419
X6.2865Y-3.9284
X6.2895Y-3.8648
X6.2987Y-3.5166
X6.311Y-3.8168
X6.3213Y-3.3695
X6.3222Y-3.4573
X6.3326Y-3.899
X6.3448Y-3.5502
X6.3541Y-3.5986
X6.358Y-3.9294
X6.3588Y-3.4168
X6.36Y-3.7257
X6.3629Y-3.7864
X6.3639Y-3.8628
X6.364Y-3.5029
X6.5613Y-2.8352
X6.5613Y-2.9139
X6.5613Y-2.9927
X6.5613Y-3.0714
X6.5613Y-3.1502
X6.5613Y-3.2289
X6.5613Y-3.3076
X6.5613Y-3.3864
X6.5613Y-3.4651
X6.5642Y-3.3089
X6.7975Y-2.8352
X6.7975Y-2.9139
X6.7975Y-2.9927
X6.7975Y-3.0714
X6.7975Y-3.1502
X6.7975Y-3.2289
X6.7975Y-3.3076
X6.7975Y-3.3864
X6.7975Y-3.4651
X6.7975Y-3.5439
T2
X5.2253Y-3.8549
X5.2745Y-3.8549
X5.3237Y-3.8549
X5.3729Y-3.8549
X5.5729Y-3.8513
X5.6221Y-3.8513
T3
X4.8618Y-3.7418
X4.8618Y-3.8402
T0
M30
