G04 #@! TF.FileFunction,Copper,L1,Top,Signal*
%FSLAX46Y46*%
G04 Gerber Fmt 4.6, Leading zero omitted, Abs format (unit mm)*
G04 Created by KiCad (PCBNEW 4.0.2+dfsg1-stable) date mar 18 dic 2018 09:18:01 CET*
%MOMM*%
G01*
G04 APERTURE LIST*
%ADD10C,0.100000*%
%ADD11C,0.300000*%
%ADD12C,0.200000*%
%ADD13C,0.500000*%
%ADD14R,0.800000X0.800000*%
%ADD15O,0.800000X0.800000*%
%ADD16R,0.600000X0.500000*%
%ADD17R,0.500000X0.600000*%
%ADD18R,0.800000X0.750000*%
%ADD19R,1.250000X1.000000*%
%ADD20R,1.000000X1.250000*%
%ADD21R,1.198880X1.198880*%
%ADD22R,0.600000X0.400000*%
%ADD23R,0.457200X0.711200*%
%ADD24R,1.150000X1.000000*%
%ADD25R,1.000000X1.800000*%
%ADD26R,0.400000X0.600000*%
%ADD27C,4.000000*%
%ADD28R,0.500000X0.500000*%
%ADD29R,0.650000X0.400000*%
%ADD30R,0.750000X0.800000*%
%ADD31R,0.730000X0.300000*%
%ADD32R,0.300000X0.730000*%
%ADD33R,1.250000X1.250000*%
%ADD34C,0.600000*%
%ADD35R,0.700000X0.250000*%
%ADD36R,0.250000X0.700000*%
%ADD37R,1.725000X1.725000*%
%ADD38C,0.250000*%
%ADD39C,0.226060*%
G04 APERTURE END LIST*
D10*
D11*
X163351224Y-100903031D02*
X164279795Y-100903031D01*
X163779795Y-101474460D01*
X163994081Y-101474460D01*
X164136938Y-101545889D01*
X164208367Y-101617317D01*
X164279795Y-101760174D01*
X164279795Y-102117317D01*
X164208367Y-102260174D01*
X164136938Y-102331603D01*
X163994081Y-102403031D01*
X163565509Y-102403031D01*
X163422652Y-102331603D01*
X163351224Y-102260174D01*
X164994080Y-102403031D02*
X165279795Y-102403031D01*
X165422652Y-102331603D01*
X165494080Y-102260174D01*
X165636938Y-102045889D01*
X165708366Y-101760174D01*
X165708366Y-101188746D01*
X165636938Y-101045889D01*
X165565509Y-100974460D01*
X165422652Y-100903031D01*
X165136938Y-100903031D01*
X164994080Y-100974460D01*
X164922652Y-101045889D01*
X164851223Y-101188746D01*
X164851223Y-101545889D01*
X164922652Y-101688746D01*
X164994080Y-101760174D01*
X165136938Y-101831603D01*
X165422652Y-101831603D01*
X165565509Y-101760174D01*
X165636938Y-101688746D01*
X165708366Y-101545889D01*
X166208366Y-100903031D02*
X167136937Y-100903031D01*
X166636937Y-101474460D01*
X166851223Y-101474460D01*
X166994080Y-101545889D01*
X167065509Y-101617317D01*
X167136937Y-101760174D01*
X167136937Y-102117317D01*
X167065509Y-102260174D01*
X166994080Y-102331603D01*
X166851223Y-102403031D01*
X166422651Y-102403031D01*
X166279794Y-102331603D01*
X166208366Y-102260174D01*
X167636937Y-100903031D02*
X168565508Y-100903031D01*
X168065508Y-101474460D01*
X168279794Y-101474460D01*
X168422651Y-101545889D01*
X168494080Y-101617317D01*
X168565508Y-101760174D01*
X168565508Y-102117317D01*
X168494080Y-102260174D01*
X168422651Y-102331603D01*
X168279794Y-102403031D01*
X167851222Y-102403031D01*
X167708365Y-102331603D01*
X167636937Y-102260174D01*
D12*
X173690280Y-115443000D02*
X98295460Y-115443000D01*
X195072000Y-115443000D02*
X179682660Y-115443000D01*
X179682660Y-112410240D02*
X179682660Y-115443000D01*
X173692820Y-112410240D02*
X179682660Y-112410240D01*
X173692820Y-112410240D02*
X173692820Y-115437920D01*
X173776640Y-99949000D02*
X98298000Y-99949000D01*
X195072000Y-99949000D02*
X179778660Y-99949000D01*
X179778660Y-99949000D02*
X179778660Y-103047800D01*
X173776640Y-103047800D02*
X179778660Y-103047800D01*
X173776640Y-99949000D02*
X173776640Y-103047800D01*
X98298000Y-115443000D02*
X98298000Y-99949000D01*
X195072000Y-99949000D02*
X195072000Y-115443000D01*
D13*
X105947560Y-103711560D02*
X101347560Y-103711560D01*
X105947560Y-100711560D02*
X105947560Y-103711560D01*
X99347560Y-100711560D02*
X105947560Y-100711560D01*
X99347560Y-105811560D02*
X99347560Y-100711560D01*
X109097560Y-106711560D02*
X107097560Y-106711560D01*
D14*
X127000000Y-102631240D03*
D15*
X128250000Y-102631240D03*
D16*
X110454580Y-107731560D03*
X111554580Y-107731560D03*
D17*
X113062500Y-111225240D03*
X113062500Y-112325240D03*
X124659640Y-113734360D03*
X124659640Y-114834360D03*
D18*
X124350440Y-101203760D03*
X122850440Y-101203760D03*
D17*
X123338640Y-113734360D03*
X123338640Y-114834360D03*
X118708400Y-111225240D03*
X118708400Y-112325240D03*
X119475680Y-102330340D03*
X119475680Y-101230340D03*
X120567680Y-102330340D03*
X120567680Y-101230340D03*
X118210560Y-106665940D03*
X118210560Y-107765940D03*
X117042160Y-103344980D03*
X117042160Y-102244980D03*
X117192020Y-105530560D03*
X117192020Y-106630560D03*
X121558680Y-102330340D03*
X121558680Y-101230340D03*
D19*
X129214880Y-112507520D03*
X129214880Y-114507520D03*
D17*
X125821440Y-112721300D03*
X125821440Y-113821300D03*
D16*
X114403100Y-111221520D03*
X115503100Y-111221520D03*
D17*
X111582200Y-105347860D03*
X111582200Y-104247860D03*
X114406680Y-104640200D03*
X114406680Y-105740200D03*
D20*
X167578000Y-113995000D03*
X169578000Y-113995000D03*
D17*
X110453400Y-108413460D03*
X110453400Y-109513460D03*
D16*
X155106220Y-114452600D03*
X154006220Y-114452600D03*
D17*
X109537500Y-106050080D03*
X109537500Y-104950080D03*
D16*
X152667220Y-114477600D03*
X151567220Y-114477600D03*
X149384000Y-111455000D03*
X150484000Y-111455000D03*
X144615260Y-106804860D03*
X145715260Y-106804860D03*
D21*
X148113020Y-113614000D03*
X146014980Y-113614000D03*
D22*
X116102360Y-105524300D03*
X116102360Y-106424300D03*
D23*
X161081720Y-108630720D03*
X159760920Y-108630720D03*
X160421320Y-110662720D03*
D24*
X121819900Y-105118360D03*
X123569900Y-105118360D03*
X123569900Y-103718360D03*
X121819900Y-103718360D03*
D25*
X153013000Y-113055000D03*
X150513000Y-113055000D03*
D22*
X117192020Y-107754420D03*
X117192020Y-108654420D03*
X162711000Y-109006000D03*
X162711000Y-109906000D03*
D26*
X162057000Y-112700000D03*
X162957000Y-112700000D03*
D22*
X165200000Y-113727000D03*
X165200000Y-112827000D03*
X143429260Y-105820860D03*
X143429260Y-106720860D03*
X148131000Y-111462000D03*
X148131000Y-112362000D03*
X119493260Y-104642500D03*
X119493260Y-105542500D03*
X153516000Y-104877000D03*
X153516000Y-103977000D03*
D27*
X131999000Y-107787000D03*
X138899000Y-107787000D03*
X174999000Y-107771760D03*
X181899000Y-107771760D03*
D14*
X127668020Y-106278360D03*
D15*
X127668020Y-107528360D03*
X127668020Y-108778360D03*
X127668020Y-110028360D03*
D26*
X160442060Y-111653320D03*
X159542060Y-111653320D03*
D28*
X109097560Y-106711560D03*
D25*
X106597560Y-106711560D03*
X99597560Y-106711560D03*
D26*
X116648460Y-111224060D03*
X117548460Y-111224060D03*
D29*
X114378780Y-108371400D03*
X114378780Y-107071400D03*
X112478780Y-107721400D03*
X114378780Y-107721400D03*
X112478780Y-107071400D03*
X112478780Y-108371400D03*
D26*
X116127760Y-104640380D03*
X117027760Y-104640380D03*
D22*
X118208020Y-104632760D03*
X118208020Y-105532760D03*
X119488180Y-107765000D03*
X119488180Y-106865000D03*
D26*
X109544700Y-106705400D03*
X110444700Y-106705400D03*
D18*
X167828000Y-111963000D03*
X169328000Y-111963000D03*
D30*
X127251460Y-112749900D03*
X127251460Y-114249900D03*
D31*
X120381880Y-109721300D03*
X120381880Y-110221300D03*
X120381880Y-110721300D03*
X120381880Y-111221300D03*
X120381880Y-111721300D03*
D32*
X121346880Y-112686300D03*
X121846880Y-112686300D03*
X122346880Y-112686300D03*
X122846880Y-112686300D03*
X123346880Y-112686300D03*
D31*
X124311880Y-111721300D03*
X124311880Y-111221300D03*
X124311880Y-110721300D03*
X124311880Y-110221300D03*
X124311880Y-109721300D03*
D32*
X123346880Y-108756300D03*
X122846880Y-108756300D03*
X122346880Y-108756300D03*
X121846880Y-108756300D03*
X121346880Y-108756300D03*
D33*
X122971880Y-111346300D03*
X122971880Y-110096300D03*
X121721880Y-111346300D03*
X121721880Y-110096300D03*
D34*
X121788080Y-110213300D03*
X122905680Y-110213300D03*
X121788080Y-111229300D03*
X122905680Y-111229300D03*
D35*
X156170000Y-110157000D03*
X156170000Y-109657000D03*
X156170000Y-109157000D03*
X156170000Y-108657000D03*
X156170000Y-108157000D03*
X156170000Y-107657000D03*
X156170000Y-107157000D03*
X156170000Y-106657000D03*
D36*
X155520000Y-106007000D03*
X155020000Y-106007000D03*
X154520000Y-106007000D03*
X154020000Y-106007000D03*
X153520000Y-106007000D03*
X153020000Y-106007000D03*
X152520000Y-106007000D03*
X152020000Y-106007000D03*
D35*
X151370000Y-106657000D03*
X151370000Y-107157000D03*
X151370000Y-107657000D03*
X151370000Y-108157000D03*
X151370000Y-108657000D03*
X151370000Y-109157000D03*
X151370000Y-109657000D03*
X151370000Y-110157000D03*
D36*
X152020000Y-110807000D03*
X152520000Y-110807000D03*
X153020000Y-110807000D03*
X153520000Y-110807000D03*
X154020000Y-110807000D03*
X154520000Y-110807000D03*
X155020000Y-110807000D03*
X155520000Y-110807000D03*
D37*
X152907500Y-107544500D03*
X152907500Y-109269500D03*
X154632500Y-107544500D03*
X154632500Y-109269500D03*
D34*
X154989200Y-109626200D03*
X153770000Y-109626200D03*
X152550800Y-109626200D03*
X154989200Y-108457800D03*
X153770000Y-108457800D03*
X152550800Y-108457800D03*
X154989200Y-107340200D03*
X153770000Y-107340200D03*
X152550800Y-107340200D03*
X126573280Y-104533620D03*
X118511320Y-101518720D03*
X118247160Y-103367840D03*
X118313200Y-102674420D03*
X117586760Y-101122480D03*
X117058440Y-102178700D03*
X115143280Y-103070660D03*
X115638580Y-101056440D03*
X114515900Y-101551740D03*
X113657380Y-102674420D03*
X112336580Y-102806500D03*
X112996980Y-103830120D03*
X110583980Y-104247860D03*
X112369600Y-101122480D03*
X111376460Y-101782880D03*
X110716060Y-102905560D03*
X109395260Y-101155500D03*
X108470700Y-102618540D03*
X109329220Y-103972360D03*
X108404660Y-105128060D03*
X115605560Y-112194340D03*
X117751860Y-112326420D03*
X119766080Y-112557560D03*
X121020840Y-114802920D03*
X118544340Y-114736880D03*
X115704620Y-114736880D03*
X113657380Y-114736880D03*
X111112300Y-114472720D03*
X110352840Y-113482120D03*
X109263180Y-113878360D03*
X108767880Y-112953800D03*
X110220760Y-112392460D03*
X108305600Y-111732060D03*
X109395260Y-110873540D03*
X108305600Y-109882940D03*
X110055660Y-109816900D03*
X109296200Y-109321600D03*
X108371640Y-108430060D03*
X109197140Y-107868720D03*
X128998980Y-105671620D03*
X154371859Y-113954947D03*
X131975860Y-110604300D03*
X148569680Y-107055920D03*
X154043380Y-111930380D03*
X149463760Y-113253520D03*
X159004000Y-112471200D03*
X152483820Y-103979980D03*
X111498380Y-106677460D03*
X111285020Y-111406940D03*
X152219266Y-112826796D03*
X151250096Y-111714787D03*
X147024095Y-106394245D03*
X150497540Y-109801660D03*
X141655800Y-106687620D03*
X149432223Y-109620255D03*
X125907800Y-109453680D03*
X144518380Y-109964220D03*
X145707100Y-111394060D03*
X125867988Y-110403640D03*
X157446980Y-108031980D03*
X158282640Y-107431840D03*
X149894701Y-110327592D03*
X146900900Y-110291880D03*
X143057880Y-109369860D03*
X144600837Y-113923900D03*
X141544220Y-111424720D03*
X162900360Y-111663480D03*
X128816100Y-109278420D03*
X128791557Y-110137789D03*
X142580360Y-112019080D03*
X159092297Y-110920169D03*
X146692620Y-112138460D03*
X155539360Y-112288500D03*
X125072140Y-108783120D03*
X154244040Y-101406960D03*
X125775720Y-106428540D03*
X150208734Y-105637989D03*
X125171380Y-104196058D03*
X147914180Y-108968729D03*
X121114820Y-107627420D03*
D38*
X109544700Y-106705400D02*
X109103720Y-106705400D01*
X109103720Y-106705400D02*
X109097560Y-106711560D01*
X109537500Y-106050080D02*
X109537500Y-106698200D01*
X109537500Y-106698200D02*
X109544700Y-106705400D01*
X110453400Y-108413460D02*
X110453400Y-107732740D01*
X110453400Y-107732740D02*
X110454580Y-107731560D01*
X110444700Y-106705400D02*
X110444700Y-107721680D01*
X110444700Y-107721680D02*
X110454580Y-107731560D01*
X111554580Y-107731560D02*
X112468620Y-107731560D01*
X112468620Y-107731560D02*
X112478780Y-107721400D01*
X125821440Y-112721300D02*
X127222860Y-112721300D01*
X127222860Y-112721300D02*
X127251460Y-112749900D01*
X124311880Y-111221300D02*
X124926880Y-111221300D01*
X124926880Y-111221300D02*
X125821440Y-112115860D01*
X125821440Y-112115860D02*
X125821440Y-112171300D01*
X125821440Y-112171300D02*
X125821440Y-112721300D01*
D13*
X167828000Y-111963000D02*
X167828000Y-113745000D01*
D38*
X167828000Y-113745000D02*
X167578000Y-113995000D01*
X167578000Y-113995000D02*
X167578000Y-113556820D01*
D13*
X127251460Y-112749900D02*
X128972500Y-112749900D01*
D38*
X128972500Y-112749900D02*
X129214880Y-112507520D01*
X127493840Y-112507520D02*
X127251460Y-112749900D01*
D13*
X155106220Y-114452600D02*
X155106220Y-114952600D01*
X155106220Y-114952600D02*
X154853819Y-115205001D01*
X154853819Y-115205001D02*
X154473999Y-115205001D01*
X143185253Y-115205001D02*
X154473999Y-115205001D01*
X138899000Y-110918748D02*
X143185253Y-115205001D01*
X138899000Y-107787000D02*
X138899000Y-110918748D01*
X155106220Y-114452600D02*
X167120400Y-114452600D01*
X167120400Y-114452600D02*
X167578000Y-113995000D01*
D38*
X154520000Y-111407000D02*
X154520000Y-110807000D01*
X154520000Y-111481998D02*
X154520000Y-111407000D01*
X154914340Y-111876338D02*
X154520000Y-111481998D01*
X154914340Y-113532676D02*
X154914340Y-111876338D01*
X155095480Y-114076480D02*
X155095480Y-113713816D01*
X155095480Y-113713816D02*
X154914340Y-113532676D01*
D13*
X128500376Y-106278360D02*
X130009016Y-107787000D01*
X127668020Y-106278360D02*
X128500376Y-106278360D01*
X130009016Y-107787000D02*
X131999000Y-107787000D01*
D38*
X155074000Y-114605000D02*
X155124000Y-114605000D01*
X143429260Y-105820860D02*
X140865140Y-105820860D01*
X140865140Y-105820860D02*
X138899000Y-107787000D01*
D13*
X129214880Y-112507520D02*
X129214880Y-111757520D01*
X129214880Y-111757520D02*
X131999000Y-108973400D01*
X131999000Y-108973400D02*
X131999000Y-107787000D01*
X127668020Y-105628360D02*
X126573280Y-104533620D01*
X126573280Y-104533620D02*
X124350440Y-102310780D01*
X127668020Y-106278360D02*
X127668020Y-105628360D01*
X124350440Y-102310780D02*
X124350440Y-101828760D01*
X124350440Y-101828760D02*
X124350440Y-101203760D01*
D38*
X120381880Y-109721300D02*
X120381880Y-105431120D01*
X120381880Y-105431120D02*
X119593260Y-104642500D01*
X119593260Y-104642500D02*
X119493260Y-104642500D01*
D13*
X131999000Y-107787000D02*
X134827427Y-107787000D01*
X134827427Y-107787000D02*
X138899000Y-107787000D01*
D38*
X155124000Y-114105000D02*
X155095480Y-114076480D01*
X154020000Y-110807000D02*
X154520000Y-110807000D01*
X155124000Y-114605000D02*
X155124000Y-114105000D01*
X162711000Y-109906000D02*
X165646000Y-109906000D01*
X165646000Y-109906000D02*
X167578000Y-111838000D01*
X167578000Y-111838000D02*
X167578000Y-111963000D01*
X165200000Y-113727000D02*
X167310000Y-113727000D01*
X167310000Y-113727000D02*
X167578000Y-113995000D01*
D13*
X121558680Y-102330340D02*
X123848860Y-102330340D01*
X123848860Y-102330340D02*
X124350440Y-101828760D01*
X120567680Y-102330340D02*
X121558680Y-102330340D01*
X119475680Y-102330340D02*
X120567680Y-102330340D01*
X119493260Y-104642500D02*
X119493260Y-102347920D01*
D38*
X119493260Y-102347920D02*
X119475680Y-102330340D01*
X129207260Y-112499900D02*
X129214880Y-112507520D01*
X125821440Y-113821300D02*
X125821440Y-113771300D01*
X125821440Y-113771300D02*
X124363860Y-112313720D01*
X124363860Y-112313720D02*
X123883420Y-112313720D01*
X125730000Y-114834360D02*
X125821440Y-114742920D01*
X125821440Y-114742920D02*
X125821440Y-113821300D01*
X120096280Y-101230340D02*
X121375260Y-101230340D01*
X121375260Y-101230340D02*
X121846340Y-100759260D01*
D13*
X120567680Y-101230340D02*
X120096280Y-101230340D01*
X120096280Y-101230340D02*
X119475680Y-101230340D01*
D38*
X118247160Y-103367840D02*
X118247160Y-101782880D01*
X118247160Y-101782880D02*
X118511320Y-101518720D01*
X117586760Y-101122480D02*
X117586760Y-101947980D01*
X117586760Y-101947980D02*
X118313200Y-102674420D01*
X115638580Y-101056440D02*
X115638580Y-102575360D01*
X115638580Y-102575360D02*
X115143280Y-103070660D01*
X113657380Y-102674420D02*
X113657380Y-102410260D01*
X113657380Y-102410260D02*
X114515900Y-101551740D01*
X112996980Y-103830120D02*
X112996980Y-103466900D01*
X112996980Y-103466900D02*
X112336580Y-102806500D01*
X110583980Y-104247860D02*
X111763720Y-104247860D01*
X111376460Y-101782880D02*
X111709200Y-101782880D01*
X111709200Y-101782880D02*
X112369600Y-101122480D01*
X109395260Y-101155500D02*
X109395260Y-101584760D01*
X109395260Y-101584760D02*
X110716060Y-102905560D01*
X109329220Y-103972360D02*
X109329220Y-103477060D01*
X109329220Y-103477060D02*
X108470700Y-102618540D01*
X109537500Y-104950080D02*
X108582640Y-104950080D01*
X108582640Y-104950080D02*
X108404660Y-105128060D01*
X117751860Y-112326420D02*
X115737640Y-112326420D01*
X115737640Y-112326420D02*
X115605560Y-112194340D01*
X118708400Y-112325240D02*
X119533760Y-112325240D01*
X119533760Y-112325240D02*
X119766080Y-112557560D01*
X115704620Y-114736880D02*
X118544340Y-114736880D01*
X111112300Y-114472720D02*
X113393220Y-114472720D01*
X113393220Y-114472720D02*
X113657380Y-114736880D01*
X109263180Y-113878360D02*
X109956600Y-113878360D01*
X109956600Y-113878360D02*
X110352840Y-113482120D01*
X110220760Y-112392460D02*
X109329220Y-112392460D01*
X109329220Y-112392460D02*
X108767880Y-112953800D01*
X109395260Y-110873540D02*
X109164120Y-110873540D01*
X109164120Y-110873540D02*
X108305600Y-111732060D01*
X110055660Y-109816900D02*
X108371640Y-109816900D01*
X108371640Y-109816900D02*
X108305600Y-109882940D01*
X108371640Y-108430060D02*
X108404660Y-108430060D01*
X108404660Y-108430060D02*
X109296200Y-109321600D01*
X110453400Y-109513460D02*
X109197140Y-108257200D01*
X109197140Y-108257200D02*
X109197140Y-107868720D01*
X122971880Y-111402180D02*
X123821881Y-112252181D01*
X123821881Y-112252181D02*
X123565999Y-111996299D01*
X123883420Y-112313720D02*
X123821881Y-112252181D01*
X122971880Y-111346300D02*
X122971880Y-111402180D01*
X122971880Y-110096300D02*
X122971880Y-111346300D01*
X121721880Y-110096300D02*
X122971880Y-110096300D01*
X121721880Y-110096300D02*
X121721880Y-111346300D01*
X122971880Y-111346300D02*
X121721880Y-111346300D01*
D13*
X169328000Y-111963000D02*
X169328000Y-113745000D01*
D38*
X169328000Y-113745000D02*
X169578000Y-113995000D01*
D13*
X127251460Y-114249900D02*
X128957260Y-114249900D01*
D38*
X128957260Y-114249900D02*
X129214880Y-114507520D01*
X152483820Y-103979980D02*
X150441660Y-103979980D01*
X150441660Y-103979980D02*
X148569680Y-105851960D01*
X128998980Y-105671620D02*
X129667000Y-105671620D01*
X148569680Y-105851960D02*
X148569680Y-107055920D01*
X129667000Y-105671620D02*
X130042761Y-105295859D01*
X130042761Y-105295859D02*
X148013579Y-105295859D01*
X148013579Y-105295859D02*
X148569680Y-105851960D01*
X127000000Y-102631240D02*
X127000000Y-103672640D01*
X127000000Y-103672640D02*
X128998980Y-105671620D01*
D13*
X122850440Y-101203760D02*
X122850440Y-100578760D01*
X122850440Y-100578760D02*
X123231280Y-100197920D01*
X123231280Y-100197920D02*
X125216680Y-100197920D01*
X125216680Y-100197920D02*
X127000000Y-101981240D01*
X127000000Y-101981240D02*
X127000000Y-102631240D01*
D38*
X154043380Y-111930380D02*
X153520000Y-111407000D01*
X153520000Y-111407000D02*
X153520000Y-110807000D01*
X154371859Y-113954947D02*
X154371859Y-112258859D01*
X154371859Y-112258859D02*
X154043380Y-111930380D01*
X154006220Y-114320586D02*
X154371859Y-113954947D01*
X154006220Y-114452600D02*
X154006220Y-114320586D01*
X152667220Y-114477600D02*
X153981220Y-114477600D01*
X153981220Y-114477600D02*
X154006220Y-114452600D01*
X129214880Y-114507520D02*
X129339880Y-114507520D01*
D13*
X129339880Y-114507520D02*
X131975860Y-111871540D01*
X131975860Y-111871540D02*
X131975860Y-110604300D01*
D38*
X148569680Y-107055920D02*
X145966320Y-107055920D01*
X145966320Y-107055920D02*
X145715260Y-106804860D01*
X149384000Y-111455000D02*
X149384000Y-113173760D01*
X149384000Y-113173760D02*
X149463760Y-113253520D01*
X153020000Y-110807000D02*
X153520000Y-110807000D01*
X159542060Y-111653320D02*
X159542060Y-111933140D01*
X159542060Y-111933140D02*
X159004000Y-112471200D01*
X154024000Y-114605000D02*
X154024000Y-114447998D01*
X153516000Y-103977000D02*
X152486800Y-103977000D01*
X152486800Y-103977000D02*
X152483820Y-103979980D01*
X124659640Y-114834360D02*
X125730000Y-114834360D01*
X125730000Y-114834360D02*
X126917000Y-114834360D01*
X129207260Y-114499900D02*
X129214880Y-114507520D01*
X126917000Y-114834360D02*
X127251460Y-114499900D01*
X123338640Y-114834360D02*
X124659640Y-114834360D01*
X122850440Y-101203760D02*
X122875440Y-101203760D01*
D13*
X117042160Y-102244980D02*
X113535080Y-102244980D01*
D38*
X113535080Y-102244980D02*
X111582200Y-104197860D01*
X111582200Y-104197860D02*
X111582200Y-104247860D01*
X118000780Y-112341660D02*
X118691980Y-112341660D01*
X118691980Y-112341660D02*
X118708400Y-112325240D01*
X110456980Y-112240060D02*
X110456980Y-109517040D01*
X110456980Y-109517040D02*
X110453400Y-109513460D01*
X113062500Y-112325240D02*
X112241420Y-112325240D01*
X112241420Y-112325240D02*
X112138460Y-112222280D01*
X111582200Y-104297860D02*
X111582200Y-104247860D01*
X114378780Y-107721400D02*
X113803780Y-107721400D01*
X113803780Y-107721400D02*
X113128781Y-107046401D01*
X113128781Y-107046401D02*
X113128781Y-105844441D01*
X113128781Y-105844441D02*
X111582200Y-104297860D01*
X111582200Y-104247860D02*
X110239720Y-104247860D01*
X110239720Y-104247860D02*
X109537500Y-104950080D01*
D13*
X119475680Y-101230340D02*
X118006800Y-101230340D01*
X118006800Y-101230340D02*
X117042160Y-102194980D01*
D38*
X117042160Y-102194980D02*
X117042160Y-102244980D01*
D13*
X121558680Y-101230340D02*
X120567680Y-101230340D01*
X122850440Y-101203760D02*
X121585260Y-101203760D01*
D38*
X121585260Y-101203760D02*
X121558680Y-101230340D01*
X117192020Y-108654420D02*
X116642020Y-108654420D01*
X116642020Y-108654420D02*
X115709000Y-107721400D01*
X115709000Y-107721400D02*
X114953780Y-107721400D01*
X114953780Y-107721400D02*
X114378780Y-107721400D01*
D13*
X174999000Y-107771760D02*
X170807760Y-111963000D01*
X170807760Y-111963000D02*
X169578000Y-111963000D01*
X174999000Y-107771760D02*
X177827427Y-107771760D01*
X177827427Y-107771760D02*
X181899000Y-107771760D01*
D38*
X148131000Y-111462000D02*
X149377000Y-111462000D01*
X149377000Y-111462000D02*
X149384000Y-111455000D01*
X153999000Y-114630000D02*
X154024000Y-114605000D01*
X113062500Y-111275240D02*
X113062500Y-111225240D01*
X121756882Y-113376301D02*
X115163561Y-113376301D01*
X121846880Y-113286303D02*
X121756882Y-113376301D01*
X115163561Y-113376301D02*
X113062500Y-111275240D01*
X121846880Y-112686300D02*
X121846880Y-113286303D01*
X113062500Y-111225240D02*
X113062500Y-108830120D01*
X113062500Y-108830120D02*
X112603780Y-108371400D01*
X112603780Y-108371400D02*
X112478780Y-108371400D01*
X123338640Y-113734360D02*
X124659640Y-113734360D01*
X123338640Y-113734360D02*
X123338640Y-112694540D01*
X123338640Y-112694540D02*
X123346880Y-112686300D01*
D11*
X117548460Y-111224060D02*
X118707220Y-111224060D01*
D38*
X118707220Y-111224060D02*
X118708400Y-111225240D01*
D11*
X118708400Y-111225240D02*
X120377940Y-111225240D01*
D38*
X120377940Y-111225240D02*
X120381880Y-111221300D01*
X118208020Y-105532760D02*
X118208020Y-106663400D01*
X118208020Y-106663400D02*
X118210560Y-106665940D01*
X117192020Y-105530560D02*
X118205820Y-105530560D01*
X118205820Y-105530560D02*
X118208020Y-105532760D01*
X116102360Y-105524300D02*
X117185760Y-105524300D01*
X117185760Y-105524300D02*
X117192020Y-105530560D01*
X118210560Y-107765940D02*
X119487240Y-107765940D01*
X119487240Y-107765940D02*
X119488180Y-107765000D01*
X120381880Y-110221300D02*
X119766880Y-110221300D01*
X119766880Y-110221300D02*
X119488180Y-109942600D01*
X119488180Y-109942600D02*
X119488180Y-108215000D01*
X119488180Y-108215000D02*
X119488180Y-107765000D01*
X117027760Y-104640380D02*
X118200400Y-104640380D01*
X118200400Y-104640380D02*
X118208020Y-104632760D01*
X117042160Y-103344980D02*
X117042160Y-104625980D01*
X117042160Y-104625980D02*
X117027760Y-104640380D01*
X116102360Y-106424300D02*
X116985760Y-106424300D01*
X116985760Y-106424300D02*
X117192020Y-106630560D01*
X117192020Y-107754420D02*
X117192020Y-106630560D01*
D11*
X114378780Y-108371400D02*
X114378780Y-111197200D01*
D38*
X114378780Y-111197200D02*
X114403100Y-111221520D01*
D11*
X120381880Y-110721300D02*
X119339462Y-110721300D01*
X119217221Y-110599059D02*
X117173461Y-110599059D01*
X119339462Y-110721300D02*
X119217221Y-110599059D01*
X117173461Y-110599059D02*
X116648460Y-111124060D01*
D38*
X116648460Y-111124060D02*
X116648460Y-111224060D01*
D11*
X115503100Y-111221520D02*
X116645920Y-111221520D01*
D38*
X116645920Y-111221520D02*
X116648460Y-111224060D01*
X111498380Y-106677460D02*
X112084840Y-106677460D01*
X112084840Y-106677460D02*
X112478780Y-107071400D01*
X111582200Y-105347860D02*
X111582200Y-106593640D01*
X111582200Y-106593640D02*
X111498380Y-106677460D01*
X112763300Y-114010440D02*
X111285020Y-112532160D01*
X111285020Y-112532160D02*
X111285020Y-111406940D01*
X121759153Y-114010440D02*
X112763300Y-114010440D01*
X122346880Y-113422713D02*
X121759153Y-114010440D01*
X122346880Y-112686300D02*
X122346880Y-113422713D01*
X116127760Y-104640380D02*
X114406860Y-104640380D01*
X114406860Y-104640380D02*
X114406680Y-104640200D01*
X114406680Y-105740200D02*
X114406680Y-107043500D01*
X114406680Y-107043500D02*
X114378780Y-107071400D01*
X114378780Y-105768100D02*
X114406680Y-105740200D01*
X151103677Y-113055000D02*
X150513000Y-113055000D01*
X152020000Y-112138677D02*
X151103677Y-113055000D01*
X152020000Y-110807000D02*
X152020000Y-112138677D01*
X151585000Y-114630000D02*
X151585000Y-114127000D01*
X151585000Y-114127000D02*
X150513000Y-113055000D01*
X152263000Y-113055000D02*
X152219266Y-113011266D01*
X152219266Y-113011266D02*
X152219266Y-112826796D01*
X153013000Y-113055000D02*
X152263000Y-113055000D01*
X150484000Y-111455000D02*
X150990309Y-111455000D01*
X150990309Y-111455000D02*
X151250096Y-111714787D01*
X152520000Y-110807000D02*
X152520000Y-112562000D01*
X152520000Y-112562000D02*
X153013000Y-113055000D01*
X144615260Y-106804860D02*
X144665260Y-106804860D01*
X146724096Y-106094246D02*
X147024095Y-106394245D01*
X145375874Y-106094246D02*
X146724096Y-106094246D01*
X144665260Y-106804860D02*
X145375874Y-106094246D01*
X150497540Y-109801660D02*
X150642200Y-109657000D01*
X150642200Y-109657000D02*
X151370000Y-109657000D01*
X141655800Y-106687620D02*
X143396020Y-106687620D01*
X143396020Y-106687620D02*
X143429260Y-106720860D01*
X143429260Y-106720860D02*
X144531260Y-106720860D01*
X144531260Y-106720860D02*
X144615260Y-106804860D01*
X149895478Y-109157000D02*
X149732222Y-109320256D01*
X151370000Y-109157000D02*
X149895478Y-109157000D01*
X149732222Y-109320256D02*
X149432223Y-109620255D01*
X124311880Y-110221300D02*
X124929507Y-110221300D01*
X124929507Y-110221300D02*
X125697127Y-109453680D01*
X125697127Y-109453680D02*
X125907800Y-109453680D01*
X144518380Y-109964220D02*
X144518380Y-110205340D01*
X144518380Y-110205340D02*
X145707100Y-111394060D01*
X151370000Y-108657000D02*
X149511582Y-108657000D01*
X146131364Y-111394060D02*
X145707100Y-111394060D01*
X149511582Y-108657000D02*
X146774522Y-111394060D01*
X146774522Y-111394060D02*
X146131364Y-111394060D01*
X125443724Y-110403640D02*
X125867988Y-110403640D01*
X124311880Y-110721300D02*
X125065918Y-110721300D01*
X125065918Y-110721300D02*
X125383578Y-110403640D01*
X125383578Y-110403640D02*
X125443724Y-110403640D01*
X157321960Y-108157000D02*
X157446980Y-108031980D01*
X156170000Y-108157000D02*
X157321960Y-108157000D01*
X158310580Y-108323380D02*
X157976960Y-108657000D01*
X157976960Y-108657000D02*
X156170000Y-108657000D01*
X158310580Y-107884044D02*
X158310580Y-108323380D01*
X158282640Y-107431840D02*
X158282640Y-107856104D01*
X158282640Y-107856104D02*
X158310580Y-107884044D01*
X150674409Y-110627591D02*
X150194700Y-110627591D01*
X150194700Y-110627591D02*
X149894701Y-110327592D01*
X151145000Y-110157000D02*
X150674409Y-110627591D01*
X151370000Y-110157000D02*
X151145000Y-110157000D01*
X145859221Y-109069861D02*
X146900900Y-110111540D01*
X146900900Y-110111540D02*
X146900900Y-110291880D01*
X143057880Y-109369860D02*
X143357879Y-109069861D01*
X143357879Y-109069861D02*
X145859221Y-109069861D01*
X148113020Y-113614000D02*
X148113020Y-112379980D01*
X148113020Y-112379980D02*
X148131000Y-112362000D01*
X143342360Y-114548920D02*
X140919200Y-112125760D01*
X140919200Y-112125760D02*
X140919200Y-110088680D01*
X145929500Y-114548920D02*
X143342360Y-114548920D01*
X146014980Y-113614000D02*
X146014980Y-114463440D01*
X146014980Y-114463440D02*
X145929500Y-114548920D01*
X150746079Y-107680921D02*
X150770000Y-107657000D01*
X150770000Y-107657000D02*
X151370000Y-107657000D01*
X143326959Y-107680921D02*
X150746079Y-107680921D01*
X140919200Y-110088680D02*
X143326959Y-107680921D01*
X119493260Y-105542500D02*
X119493260Y-106859920D01*
X119493260Y-106859920D02*
X119488180Y-106865000D01*
X144176573Y-113923900D02*
X144600837Y-113923900D01*
X143584890Y-113923900D02*
X144176573Y-113923900D01*
X141544220Y-111883230D02*
X143584890Y-113923900D01*
X141544220Y-111424720D02*
X141544220Y-111883230D01*
X162900360Y-111663480D02*
X162900360Y-112643360D01*
X162900360Y-112643360D02*
X162957000Y-112700000D01*
X128316040Y-108778360D02*
X128816100Y-109278420D01*
X127668020Y-108778360D02*
X128316040Y-108778360D01*
X165200000Y-112827000D02*
X163084000Y-112827000D01*
X163084000Y-112827000D02*
X162957000Y-112700000D01*
X159092297Y-110920169D02*
X160163871Y-110920169D01*
X160163871Y-110920169D02*
X160421320Y-110662720D01*
X160421320Y-110662720D02*
X160421320Y-111632580D01*
X160421320Y-111632580D02*
X160442060Y-111653320D01*
X127668020Y-110028360D02*
X128682128Y-110028360D01*
X128682128Y-110028360D02*
X128791557Y-110137789D01*
X142580360Y-112019080D02*
X146573240Y-112019080D01*
X159092297Y-110747143D02*
X159092297Y-110920169D01*
X146573240Y-112019080D02*
X146692620Y-112138460D01*
X159760920Y-108630720D02*
X159282320Y-108630720D01*
X158260000Y-109653040D02*
X158260000Y-109657000D01*
X159282320Y-108630720D02*
X158260000Y-109653040D01*
X158260000Y-109657000D02*
X156170000Y-109657000D01*
X121819900Y-105118360D02*
X121819900Y-105868360D01*
X121819900Y-105868360D02*
X121846880Y-105895340D01*
X121846880Y-105895340D02*
X121846880Y-108141300D01*
X121846880Y-108141300D02*
X121846880Y-108756300D01*
X122346880Y-108756300D02*
X122346880Y-106844940D01*
X124394900Y-103718360D02*
X123569900Y-103718360D01*
X122346880Y-106844940D02*
X122956320Y-106235500D01*
X122956320Y-106235500D02*
X124028200Y-106235500D01*
X124028200Y-106235500D02*
X124546360Y-105717340D01*
X124546360Y-105717340D02*
X124546360Y-103869820D01*
X124546360Y-103869820D02*
X124394900Y-103718360D01*
X158888000Y-113250000D02*
X156170000Y-110532000D01*
X156170000Y-110532000D02*
X156170000Y-110157000D01*
X161057000Y-113250000D02*
X158888000Y-113250000D01*
X161607000Y-112700000D02*
X161057000Y-113250000D01*
X162057000Y-112700000D02*
X161607000Y-112700000D01*
X153516000Y-104877000D02*
X153516000Y-106003000D01*
X153516000Y-106003000D02*
X153520000Y-106007000D01*
X155539360Y-111864236D02*
X155539360Y-112288500D01*
X155020000Y-110807000D02*
X155020000Y-111344876D01*
X155020000Y-111344876D02*
X155539360Y-111864236D01*
X124311880Y-109721300D02*
X124311880Y-109543380D01*
X124311880Y-109543380D02*
X125072140Y-108783120D01*
X154244040Y-101406960D02*
X156845001Y-104007921D01*
X156845001Y-104007921D02*
X156845001Y-107581999D01*
X156845001Y-107581999D02*
X156770000Y-107657000D01*
X156770000Y-107657000D02*
X156170000Y-107657000D01*
X123346880Y-108756300D02*
X123346880Y-108541300D01*
X123346880Y-108541300D02*
X125459640Y-106428540D01*
X125459640Y-106428540D02*
X125775720Y-106428540D01*
X151145000Y-106657000D02*
X150208734Y-105720734D01*
X151370000Y-106657000D02*
X151145000Y-106657000D01*
X150208734Y-105720734D02*
X150208734Y-105637989D01*
X125171380Y-104620322D02*
X125171380Y-104196058D01*
X125171380Y-105816800D02*
X125171380Y-104620322D01*
X122846880Y-108141300D02*
X125171380Y-105816800D01*
X122846880Y-108756300D02*
X122846880Y-108141300D01*
X148214179Y-108668730D02*
X147914180Y-108968729D01*
X151370000Y-108157000D02*
X148725909Y-108157000D01*
X148725909Y-108157000D02*
X148214179Y-108668730D01*
X121346880Y-108756300D02*
X121346880Y-107859480D01*
X121346880Y-107859480D02*
X121114820Y-107627420D01*
X128250000Y-102631240D02*
X153255242Y-102631240D01*
X153255242Y-102631240D02*
X155020000Y-104395998D01*
X155020000Y-104395998D02*
X155020000Y-105407000D01*
X155020000Y-105407000D02*
X155020000Y-106007000D01*
X161081720Y-108630720D02*
X161081720Y-108757720D01*
X161081720Y-108630720D02*
X162335720Y-108630720D01*
X162335720Y-108630720D02*
X162711000Y-109006000D01*
D39*
G36*
X108847560Y-107382681D02*
X109165256Y-107382681D01*
X109180860Y-107393343D01*
X109344700Y-107426521D01*
X109744605Y-107426521D01*
X109733459Y-107481560D01*
X109733459Y-107981560D01*
X109762259Y-108134620D01*
X109782279Y-108165732D01*
X109782279Y-108713460D01*
X109811079Y-108866520D01*
X109901537Y-109007095D01*
X110039560Y-109101403D01*
X110203400Y-109134581D01*
X110570021Y-109134581D01*
X110578166Y-111249912D01*
X110572114Y-111264487D01*
X110571867Y-111548148D01*
X110579385Y-111566342D01*
X110580171Y-111770595D01*
X110589245Y-111814536D01*
X110614700Y-111851484D01*
X110652524Y-111875617D01*
X110692457Y-111883188D01*
X110746990Y-111883546D01*
X110746990Y-112532160D01*
X110787945Y-112738055D01*
X110904575Y-112912605D01*
X112382853Y-114390882D01*
X112382855Y-114390885D01*
X112557405Y-114507515D01*
X112763300Y-114548471D01*
X112763305Y-114548470D01*
X121759153Y-114548470D01*
X121965048Y-114507515D01*
X122139598Y-114390885D01*
X122667519Y-113862963D01*
X122667519Y-114034360D01*
X122696319Y-114187420D01*
X122786777Y-114327995D01*
X122924800Y-114422303D01*
X123088640Y-114455481D01*
X123402435Y-114455481D01*
X123414549Y-114929970D01*
X107827916Y-114929970D01*
X107809349Y-107374590D01*
X108807605Y-107374590D01*
X108847560Y-107382681D01*
X108847560Y-107382681D01*
G37*
X108847560Y-107382681D02*
X109165256Y-107382681D01*
X109180860Y-107393343D01*
X109344700Y-107426521D01*
X109744605Y-107426521D01*
X109733459Y-107481560D01*
X109733459Y-107981560D01*
X109762259Y-108134620D01*
X109782279Y-108165732D01*
X109782279Y-108713460D01*
X109811079Y-108866520D01*
X109901537Y-109007095D01*
X110039560Y-109101403D01*
X110203400Y-109134581D01*
X110570021Y-109134581D01*
X110578166Y-111249912D01*
X110572114Y-111264487D01*
X110571867Y-111548148D01*
X110579385Y-111566342D01*
X110580171Y-111770595D01*
X110589245Y-111814536D01*
X110614700Y-111851484D01*
X110652524Y-111875617D01*
X110692457Y-111883188D01*
X110746990Y-111883546D01*
X110746990Y-112532160D01*
X110787945Y-112738055D01*
X110904575Y-112912605D01*
X112382853Y-114390882D01*
X112382855Y-114390885D01*
X112557405Y-114507515D01*
X112763300Y-114548471D01*
X112763305Y-114548470D01*
X121759153Y-114548470D01*
X121965048Y-114507515D01*
X122139598Y-114390885D01*
X122667519Y-113862963D01*
X122667519Y-114034360D01*
X122696319Y-114187420D01*
X122786777Y-114327995D01*
X122924800Y-114422303D01*
X123088640Y-114455481D01*
X123402435Y-114455481D01*
X123414549Y-114929970D01*
X107827916Y-114929970D01*
X107809349Y-107374590D01*
X108807605Y-107374590D01*
X108847560Y-107382681D01*
G36*
X112623331Y-111895876D02*
X112648660Y-111913183D01*
X112812500Y-111946361D01*
X112972731Y-111946361D01*
X114498780Y-113472410D01*
X112986159Y-113472410D01*
X111823050Y-112309300D01*
X111823050Y-111890617D01*
X112623331Y-111895876D01*
X112623331Y-111895876D01*
G37*
X112623331Y-111895876D02*
X112648660Y-111913183D01*
X112812500Y-111946361D01*
X112972731Y-111946361D01*
X114498780Y-113472410D01*
X112986159Y-113472410D01*
X111823050Y-112309300D01*
X111823050Y-111890617D01*
X112623331Y-111895876D01*
G36*
X116325102Y-111920201D02*
X116448460Y-111945181D01*
X116848460Y-111945181D01*
X116959080Y-111924367D01*
X117255286Y-111926313D01*
X117348460Y-111945181D01*
X117748460Y-111945181D01*
X117828710Y-111930081D01*
X118396428Y-111933812D01*
X118458400Y-111946361D01*
X118958400Y-111946361D01*
X119003881Y-111937803D01*
X119609021Y-111941780D01*
X119624559Y-112024360D01*
X119715017Y-112164935D01*
X119853040Y-112259243D01*
X120016880Y-112292421D01*
X120746880Y-112292421D01*
X120782983Y-112285628D01*
X120775759Y-112321300D01*
X120775759Y-112838271D01*
X115386421Y-112838271D01*
X114456069Y-111907919D01*
X116325102Y-111920201D01*
X116325102Y-111920201D01*
G37*
X116325102Y-111920201D02*
X116448460Y-111945181D01*
X116848460Y-111945181D01*
X116959080Y-111924367D01*
X117255286Y-111926313D01*
X117348460Y-111945181D01*
X117748460Y-111945181D01*
X117828710Y-111930081D01*
X118396428Y-111933812D01*
X118458400Y-111946361D01*
X118958400Y-111946361D01*
X119003881Y-111937803D01*
X119609021Y-111941780D01*
X119624559Y-112024360D01*
X119715017Y-112164935D01*
X119853040Y-112259243D01*
X120016880Y-112292421D01*
X120746880Y-112292421D01*
X120782983Y-112285628D01*
X120775759Y-112321300D01*
X120775759Y-112838271D01*
X115386421Y-112838271D01*
X114456069Y-111907919D01*
X116325102Y-111920201D01*
G36*
X123295373Y-101667310D02*
X122008981Y-101667310D01*
X121972520Y-101642397D01*
X121808680Y-101609219D01*
X121308680Y-101609219D01*
X121155620Y-101638019D01*
X121110101Y-101667310D01*
X121017981Y-101667310D01*
X120981520Y-101642397D01*
X120817680Y-101609219D01*
X120317680Y-101609219D01*
X120164620Y-101638019D01*
X120119101Y-101667310D01*
X119925981Y-101667310D01*
X119889520Y-101642397D01*
X119725680Y-101609219D01*
X119225680Y-101609219D01*
X119072620Y-101638019D01*
X118932045Y-101728477D01*
X118837737Y-101866500D01*
X118804559Y-102030340D01*
X118804559Y-102630340D01*
X118830230Y-102766771D01*
X118830230Y-104170745D01*
X118809883Y-104139125D01*
X118671860Y-104044817D01*
X118508020Y-104011639D01*
X117908020Y-104011639D01*
X117754960Y-104040439D01*
X117658748Y-104102350D01*
X117580190Y-104102350D01*
X117580190Y-103950450D01*
X117585795Y-103946843D01*
X117680103Y-103808820D01*
X117713281Y-103644980D01*
X117713281Y-103044980D01*
X117684481Y-102891920D01*
X117594023Y-102751345D01*
X117456000Y-102657037D01*
X117292160Y-102623859D01*
X116792160Y-102623859D01*
X116639100Y-102652659D01*
X116498525Y-102743117D01*
X116404217Y-102881140D01*
X116371039Y-103044980D01*
X116371039Y-103644980D01*
X116399839Y-103798040D01*
X116490297Y-103938615D01*
X116504130Y-103948067D01*
X116504130Y-103960998D01*
X116491600Y-103952437D01*
X116327760Y-103919259D01*
X115927760Y-103919259D01*
X115774700Y-103948059D01*
X115634125Y-104038517D01*
X115590509Y-104102350D01*
X114994440Y-104102350D01*
X114958543Y-104046565D01*
X114820520Y-103952257D01*
X114656680Y-103919079D01*
X114156680Y-103919079D01*
X114003620Y-103947879D01*
X113863045Y-104038337D01*
X113768737Y-104176360D01*
X113735559Y-104340200D01*
X113735559Y-104940200D01*
X113749342Y-105013451D01*
X112251172Y-105036440D01*
X112224521Y-104894800D01*
X112134063Y-104754225D01*
X111996040Y-104659917D01*
X111832200Y-104626739D01*
X111332200Y-104626739D01*
X111179140Y-104655539D01*
X111038565Y-104745997D01*
X110944257Y-104884020D01*
X110911079Y-105047860D01*
X110911079Y-105057003D01*
X110666066Y-105060763D01*
X110622233Y-105070342D01*
X110585580Y-105096220D01*
X110561882Y-105134319D01*
X110554771Y-105174215D01*
X110557890Y-105984279D01*
X110244700Y-105984279D01*
X110208621Y-105991068D01*
X110208621Y-105750080D01*
X110179821Y-105597020D01*
X110089363Y-105456445D01*
X109951340Y-105362137D01*
X109787500Y-105328959D01*
X109287500Y-105328959D01*
X109134440Y-105357759D01*
X108993865Y-105448217D01*
X108899557Y-105586240D01*
X108866379Y-105750080D01*
X108866379Y-106040439D01*
X108847560Y-106040439D01*
X108804560Y-106048530D01*
X107806090Y-106048530D01*
X107792361Y-100462030D01*
X123293510Y-100462030D01*
X123295373Y-101667310D01*
X123295373Y-101667310D01*
G37*
X123295373Y-101667310D02*
X122008981Y-101667310D01*
X121972520Y-101642397D01*
X121808680Y-101609219D01*
X121308680Y-101609219D01*
X121155620Y-101638019D01*
X121110101Y-101667310D01*
X121017981Y-101667310D01*
X120981520Y-101642397D01*
X120817680Y-101609219D01*
X120317680Y-101609219D01*
X120164620Y-101638019D01*
X120119101Y-101667310D01*
X119925981Y-101667310D01*
X119889520Y-101642397D01*
X119725680Y-101609219D01*
X119225680Y-101609219D01*
X119072620Y-101638019D01*
X118932045Y-101728477D01*
X118837737Y-101866500D01*
X118804559Y-102030340D01*
X118804559Y-102630340D01*
X118830230Y-102766771D01*
X118830230Y-104170745D01*
X118809883Y-104139125D01*
X118671860Y-104044817D01*
X118508020Y-104011639D01*
X117908020Y-104011639D01*
X117754960Y-104040439D01*
X117658748Y-104102350D01*
X117580190Y-104102350D01*
X117580190Y-103950450D01*
X117585795Y-103946843D01*
X117680103Y-103808820D01*
X117713281Y-103644980D01*
X117713281Y-103044980D01*
X117684481Y-102891920D01*
X117594023Y-102751345D01*
X117456000Y-102657037D01*
X117292160Y-102623859D01*
X116792160Y-102623859D01*
X116639100Y-102652659D01*
X116498525Y-102743117D01*
X116404217Y-102881140D01*
X116371039Y-103044980D01*
X116371039Y-103644980D01*
X116399839Y-103798040D01*
X116490297Y-103938615D01*
X116504130Y-103948067D01*
X116504130Y-103960998D01*
X116491600Y-103952437D01*
X116327760Y-103919259D01*
X115927760Y-103919259D01*
X115774700Y-103948059D01*
X115634125Y-104038517D01*
X115590509Y-104102350D01*
X114994440Y-104102350D01*
X114958543Y-104046565D01*
X114820520Y-103952257D01*
X114656680Y-103919079D01*
X114156680Y-103919079D01*
X114003620Y-103947879D01*
X113863045Y-104038337D01*
X113768737Y-104176360D01*
X113735559Y-104340200D01*
X113735559Y-104940200D01*
X113749342Y-105013451D01*
X112251172Y-105036440D01*
X112224521Y-104894800D01*
X112134063Y-104754225D01*
X111996040Y-104659917D01*
X111832200Y-104626739D01*
X111332200Y-104626739D01*
X111179140Y-104655539D01*
X111038565Y-104745997D01*
X110944257Y-104884020D01*
X110911079Y-105047860D01*
X110911079Y-105057003D01*
X110666066Y-105060763D01*
X110622233Y-105070342D01*
X110585580Y-105096220D01*
X110561882Y-105134319D01*
X110554771Y-105174215D01*
X110557890Y-105984279D01*
X110244700Y-105984279D01*
X110208621Y-105991068D01*
X110208621Y-105750080D01*
X110179821Y-105597020D01*
X110089363Y-105456445D01*
X109951340Y-105362137D01*
X109787500Y-105328959D01*
X109287500Y-105328959D01*
X109134440Y-105357759D01*
X108993865Y-105448217D01*
X108899557Y-105586240D01*
X108866379Y-105750080D01*
X108866379Y-106040439D01*
X108847560Y-106040439D01*
X108804560Y-106048530D01*
X107806090Y-106048530D01*
X107792361Y-100462030D01*
X123293510Y-100462030D01*
X123295373Y-101667310D01*
M02*
