G04 #@! TF.FileFunction,Legend,Top*
%FSLAX46Y46*%
G04 Gerber Fmt 4.6, Leading zero omitted, Abs format (unit mm)*
G04 Created by KiCad (PCBNEW 4.0.2+dfsg1-stable) date mar 18 dic 2018 09:18:01 CET*
%MOMM*%
G01*
G04 APERTURE LIST*
%ADD10C,0.100000*%
%ADD11C,0.200000*%
%ADD12C,0.150000*%
%ADD13C,0.120000*%
%ADD14C,0.500000*%
G04 APERTURE END LIST*
D10*
D11*
X173690280Y-115443000D02*
X98295460Y-115443000D01*
X195072000Y-115443000D02*
X179682660Y-115443000D01*
X179682660Y-112410240D02*
X179682660Y-115443000D01*
X173692820Y-112410240D02*
X179682660Y-112410240D01*
X173692820Y-112410240D02*
X173692820Y-115437920D01*
X173776640Y-99949000D02*
X98298000Y-99949000D01*
X195072000Y-99949000D02*
X179778660Y-99949000D01*
X179778660Y-99949000D02*
X179778660Y-103047800D01*
X173776640Y-103047800D02*
X179778660Y-103047800D01*
X173776640Y-99949000D02*
X173776640Y-103047800D01*
X98298000Y-115443000D02*
X98298000Y-99949000D01*
X195072000Y-99949000D02*
X195072000Y-115443000D01*
D12*
X125500000Y-102511240D02*
X125500000Y-100581240D01*
X125500000Y-100581240D02*
X129750000Y-100581240D01*
X129750000Y-100581240D02*
X129750000Y-103781240D01*
X129750000Y-103781240D02*
X126770000Y-103781240D01*
X127000000Y-104281240D02*
X127500000Y-104781240D01*
X127500000Y-104781240D02*
X126500000Y-104781240D01*
X126500000Y-104781240D02*
X127000000Y-104281240D01*
X111254580Y-107256560D02*
X110754580Y-107256560D01*
X110754580Y-108206560D02*
X111254580Y-108206560D01*
X113537500Y-112025240D02*
X113537500Y-111525240D01*
X112587500Y-111525240D02*
X112587500Y-112025240D01*
X125134640Y-114534360D02*
X125134640Y-114034360D01*
X124184640Y-114034360D02*
X124184640Y-114534360D01*
X123950440Y-101803760D02*
X123250440Y-101803760D01*
X123250440Y-100603760D02*
X123950440Y-100603760D01*
X123813640Y-114534360D02*
X123813640Y-114034360D01*
X122863640Y-114034360D02*
X122863640Y-114534360D01*
X119183400Y-112025240D02*
X119183400Y-111525240D01*
X118233400Y-111525240D02*
X118233400Y-112025240D01*
X119000680Y-101530340D02*
X119000680Y-102030340D01*
X119950680Y-102030340D02*
X119950680Y-101530340D01*
X120092680Y-101530340D02*
X120092680Y-102030340D01*
X121042680Y-102030340D02*
X121042680Y-101530340D01*
X118685560Y-107465940D02*
X118685560Y-106965940D01*
X117735560Y-106965940D02*
X117735560Y-107465940D01*
X116567160Y-102544980D02*
X116567160Y-103044980D01*
X117517160Y-103044980D02*
X117517160Y-102544980D01*
X117667020Y-106330560D02*
X117667020Y-105830560D01*
X116717020Y-105830560D02*
X116717020Y-106330560D01*
X121083680Y-101530340D02*
X121083680Y-102030340D01*
X122033680Y-102030340D02*
X122033680Y-101530340D01*
X130064880Y-114007520D02*
X130064880Y-113007520D01*
X128364880Y-113007520D02*
X128364880Y-114007520D01*
X126296440Y-113521300D02*
X126296440Y-113021300D01*
X125346440Y-113021300D02*
X125346440Y-113521300D01*
X115203100Y-110746520D02*
X114703100Y-110746520D01*
X114703100Y-111696520D02*
X115203100Y-111696520D01*
X111107200Y-104547860D02*
X111107200Y-105047860D01*
X112057200Y-105047860D02*
X112057200Y-104547860D01*
X114881680Y-105440200D02*
X114881680Y-104940200D01*
X113931680Y-104940200D02*
X113931680Y-105440200D01*
X169078000Y-113145000D02*
X168078000Y-113145000D01*
X168078000Y-114845000D02*
X169078000Y-114845000D01*
X110928400Y-109213460D02*
X110928400Y-108713460D01*
X109978400Y-108713460D02*
X109978400Y-109213460D01*
X154306220Y-114927600D02*
X154806220Y-114927600D01*
X154806220Y-113977600D02*
X154306220Y-113977600D01*
X109062500Y-105250080D02*
X109062500Y-105750080D01*
X110012500Y-105750080D02*
X110012500Y-105250080D01*
X151867220Y-114952600D02*
X152367220Y-114952600D01*
X152367220Y-114002600D02*
X151867220Y-114002600D01*
X150184000Y-110980000D02*
X149684000Y-110980000D01*
X149684000Y-111930000D02*
X150184000Y-111930000D01*
X145415260Y-106329860D02*
X144915260Y-106329860D01*
X144915260Y-107279860D02*
X145415260Y-107279860D01*
X145464000Y-114364000D02*
X148164000Y-114364000D01*
X145464000Y-112864000D02*
X148164000Y-112864000D01*
X146964000Y-113764000D02*
X146964000Y-113514000D01*
X146964000Y-113514000D02*
X146814000Y-113664000D01*
X146714000Y-113264000D02*
X146714000Y-113964000D01*
X147064000Y-113614000D02*
X147414000Y-113614000D01*
X146714000Y-113614000D02*
X147064000Y-113264000D01*
X147064000Y-113264000D02*
X147064000Y-113964000D01*
X147064000Y-113964000D02*
X146714000Y-113614000D01*
D13*
X116632360Y-106224300D02*
X116632360Y-105724300D01*
X115572360Y-105724300D02*
X115572360Y-106224300D01*
D12*
X161521320Y-110196720D02*
X161521320Y-109096720D01*
X161521320Y-109096720D02*
X159321320Y-109096720D01*
X159321320Y-109096720D02*
X159321320Y-110196720D01*
X159321320Y-110196720D02*
X161471320Y-110196720D01*
X161471320Y-110196720D02*
X161521320Y-110196720D01*
D13*
X121044900Y-103018360D02*
X121044900Y-105818360D01*
X121044900Y-105818360D02*
X124344900Y-105818360D01*
X151088000Y-113930000D02*
X152438000Y-113930000D01*
X151088000Y-112180000D02*
X152438000Y-112180000D01*
D12*
X117717020Y-108454420D02*
X117717020Y-107954420D01*
X116667020Y-107954420D02*
X116667020Y-108454420D01*
X163236000Y-109706000D02*
X163236000Y-109206000D01*
X162186000Y-109206000D02*
X162186000Y-109706000D01*
X162757000Y-112175000D02*
X162257000Y-112175000D01*
X162257000Y-113225000D02*
X162757000Y-113225000D01*
X164675000Y-113027000D02*
X164675000Y-113527000D01*
X165725000Y-113527000D02*
X165725000Y-113027000D01*
X143954260Y-106520860D02*
X143954260Y-106020860D01*
X142904260Y-106020860D02*
X142904260Y-106520860D01*
X148656000Y-112162000D02*
X148656000Y-111662000D01*
X147606000Y-111662000D02*
X147606000Y-112162000D01*
X120018260Y-105342500D02*
X120018260Y-104842500D01*
X118968260Y-104842500D02*
X118968260Y-105342500D01*
X152991000Y-104177000D02*
X152991000Y-104677000D01*
X154041000Y-104677000D02*
X154041000Y-104177000D01*
X142470300Y-107774500D02*
X144730900Y-107774500D01*
X140199000Y-103137000D02*
X140199000Y-112437000D01*
X130699000Y-103137000D02*
X130699000Y-112437000D01*
X130699000Y-103137000D02*
X140199000Y-103137000D01*
X130699000Y-112437000D02*
X140198800Y-112437740D01*
X173699000Y-103121760D02*
X183199000Y-103121760D01*
X183199000Y-103121760D02*
X183199000Y-112421760D01*
X173699000Y-103121760D02*
X173699000Y-112421760D01*
X173699000Y-112421760D02*
X183198800Y-112422500D01*
X143600800Y-106644000D02*
X143600800Y-108904600D01*
X168655600Y-107787000D02*
X169824000Y-107787000D01*
X170324000Y-107087000D02*
X170324000Y-108487000D01*
X169824000Y-106656500D02*
X169824000Y-108917500D01*
X170824000Y-107487000D02*
X170824000Y-108087000D01*
X127788020Y-104778360D02*
X129718020Y-104778360D01*
X129718020Y-104778360D02*
X129718020Y-111528360D01*
X129718020Y-111528360D02*
X126518020Y-111528360D01*
X126518020Y-111528360D02*
X126518020Y-106048360D01*
X126018020Y-106278360D02*
X125518020Y-106778360D01*
X125518020Y-106778360D02*
X125518020Y-105778360D01*
X125518020Y-105778360D02*
X126018020Y-106278360D01*
X159742060Y-112178320D02*
X160242060Y-112178320D01*
X160242060Y-111128320D02*
X159742060Y-111128320D01*
D14*
X105466760Y-106711560D02*
X103993560Y-106711560D01*
D10*
X106736760Y-105797160D02*
X106736760Y-107625960D01*
X99421560Y-105797160D02*
X106736760Y-105797160D01*
X99421560Y-107625960D02*
X99421560Y-105797160D01*
X106736760Y-107625960D02*
X99421560Y-107625960D01*
D13*
X117348460Y-110694060D02*
X116848460Y-110694060D01*
X116848460Y-111754060D02*
X117348460Y-111754060D01*
X112728780Y-108881400D02*
X114628780Y-108881400D01*
X114128780Y-106561400D02*
X112728780Y-106561400D01*
X116827760Y-104110380D02*
X116327760Y-104110380D01*
X116327760Y-105170380D02*
X116827760Y-105170380D01*
X118738020Y-105332760D02*
X118738020Y-104832760D01*
X117678020Y-104832760D02*
X117678020Y-105332760D01*
X118958180Y-107065000D02*
X118958180Y-107565000D01*
X120018180Y-107565000D02*
X120018180Y-107065000D01*
X110244700Y-106175400D02*
X109744700Y-106175400D01*
X109744700Y-107235400D02*
X110244700Y-107235400D01*
D12*
X168228000Y-111363000D02*
X168928000Y-111363000D01*
X168928000Y-112563000D02*
X168228000Y-112563000D01*
X127851460Y-113149900D02*
X127851460Y-113849900D01*
X126651460Y-113849900D02*
X126651460Y-113149900D01*
X124496880Y-108571300D02*
X124496880Y-109346300D01*
X120196880Y-112871300D02*
X120196880Y-112096300D01*
X124496880Y-112871300D02*
X124496880Y-112096300D01*
X120196880Y-108571300D02*
X120971880Y-108571300D01*
X120196880Y-112871300D02*
X120971880Y-112871300D01*
X124496880Y-112871300D02*
X123721880Y-112871300D01*
X124496880Y-108571300D02*
X123721880Y-108571300D01*
X151145000Y-111032000D02*
X151145000Y-110507000D01*
X156395000Y-105782000D02*
X156395000Y-106307000D01*
X151145000Y-105782000D02*
X151145000Y-106307000D01*
X156395000Y-111032000D02*
X155870000Y-111032000D01*
X156395000Y-105782000D02*
X155870000Y-105782000D01*
X151145000Y-105782000D02*
X151670000Y-105782000D01*
X151145000Y-111032000D02*
X151670000Y-111032000D01*
X126805465Y-101948241D02*
X126805465Y-100948241D01*
X127186418Y-100948241D01*
X127281656Y-100995860D01*
X127329275Y-101043479D01*
X127376894Y-101138717D01*
X127376894Y-101281574D01*
X127329275Y-101376812D01*
X127281656Y-101424431D01*
X127186418Y-101472050D01*
X126805465Y-101472050D01*
X127710227Y-100948241D02*
X128329275Y-100948241D01*
X127995941Y-101329193D01*
X128138799Y-101329193D01*
X128234037Y-101376812D01*
X128281656Y-101424431D01*
X128329275Y-101519670D01*
X128329275Y-101757765D01*
X128281656Y-101853003D01*
X128234037Y-101900622D01*
X128138799Y-101948241D01*
X127853084Y-101948241D01*
X127757846Y-101900622D01*
X127710227Y-101853003D01*
X109116834Y-108258883D02*
X109069215Y-108306502D01*
X108926358Y-108354121D01*
X108831120Y-108354121D01*
X108688262Y-108306502D01*
X108593024Y-108211264D01*
X108545405Y-108116026D01*
X108497786Y-107925550D01*
X108497786Y-107782692D01*
X108545405Y-107592216D01*
X108593024Y-107496978D01*
X108688262Y-107401740D01*
X108831120Y-107354121D01*
X108926358Y-107354121D01*
X109069215Y-107401740D01*
X109116834Y-107449359D01*
X110069215Y-108354121D02*
X109497786Y-108354121D01*
X109783500Y-108354121D02*
X109783500Y-107354121D01*
X109688262Y-107496978D01*
X109593024Y-107592216D01*
X109497786Y-107639835D01*
X113483663Y-113994226D02*
X113531282Y-114041845D01*
X113578901Y-114184702D01*
X113578901Y-114279940D01*
X113531282Y-114422798D01*
X113436044Y-114518036D01*
X113340806Y-114565655D01*
X113150330Y-114613274D01*
X113007472Y-114613274D01*
X112816996Y-114565655D01*
X112721758Y-114518036D01*
X112626520Y-114422798D01*
X112578901Y-114279940D01*
X112578901Y-114184702D01*
X112626520Y-114041845D01*
X112674139Y-113994226D01*
X112578901Y-113089464D02*
X112578901Y-113565655D01*
X113055091Y-113613274D01*
X113007472Y-113565655D01*
X112959853Y-113470417D01*
X112959853Y-113232321D01*
X113007472Y-113137083D01*
X113055091Y-113089464D01*
X113150330Y-113041845D01*
X113388425Y-113041845D01*
X113483663Y-113089464D01*
X113531282Y-113137083D01*
X113578901Y-113232321D01*
X113578901Y-113470417D01*
X113531282Y-113565655D01*
X113483663Y-113613274D01*
X125096543Y-116762826D02*
X125144162Y-116810445D01*
X125191781Y-116953302D01*
X125191781Y-117048540D01*
X125144162Y-117191398D01*
X125048924Y-117286636D01*
X124953686Y-117334255D01*
X124763210Y-117381874D01*
X124620352Y-117381874D01*
X124429876Y-117334255D01*
X124334638Y-117286636D01*
X124239400Y-117191398D01*
X124191781Y-117048540D01*
X124191781Y-116953302D01*
X124239400Y-116810445D01*
X124287019Y-116762826D01*
X124191781Y-115905683D02*
X124191781Y-116096160D01*
X124239400Y-116191398D01*
X124287019Y-116239017D01*
X124429876Y-116334255D01*
X124620352Y-116381874D01*
X125001305Y-116381874D01*
X125096543Y-116334255D01*
X125144162Y-116286636D01*
X125191781Y-116191398D01*
X125191781Y-116000921D01*
X125144162Y-115905683D01*
X125096543Y-115858064D01*
X125001305Y-115810445D01*
X124763210Y-115810445D01*
X124667971Y-115858064D01*
X124620352Y-115905683D01*
X124572733Y-116000921D01*
X124572733Y-116191398D01*
X124620352Y-116286636D01*
X124667971Y-116334255D01*
X124763210Y-116381874D01*
X123571974Y-100052143D02*
X123524355Y-100099762D01*
X123381498Y-100147381D01*
X123286260Y-100147381D01*
X123143402Y-100099762D01*
X123048164Y-100004524D01*
X123000545Y-99909286D01*
X122952926Y-99718810D01*
X122952926Y-99575952D01*
X123000545Y-99385476D01*
X123048164Y-99290238D01*
X123143402Y-99195000D01*
X123286260Y-99147381D01*
X123381498Y-99147381D01*
X123524355Y-99195000D01*
X123571974Y-99242619D01*
X123905307Y-99147381D02*
X124571974Y-99147381D01*
X124143402Y-100147381D01*
X123735103Y-116803466D02*
X123782722Y-116851085D01*
X123830341Y-116993942D01*
X123830341Y-117089180D01*
X123782722Y-117232038D01*
X123687484Y-117327276D01*
X123592246Y-117374895D01*
X123401770Y-117422514D01*
X123258912Y-117422514D01*
X123068436Y-117374895D01*
X122973198Y-117327276D01*
X122877960Y-117232038D01*
X122830341Y-117089180D01*
X122830341Y-116993942D01*
X122877960Y-116851085D01*
X122925579Y-116803466D01*
X123258912Y-116232038D02*
X123211293Y-116327276D01*
X123163674Y-116374895D01*
X123068436Y-116422514D01*
X123020817Y-116422514D01*
X122925579Y-116374895D01*
X122877960Y-116327276D01*
X122830341Y-116232038D01*
X122830341Y-116041561D01*
X122877960Y-115946323D01*
X122925579Y-115898704D01*
X123020817Y-115851085D01*
X123068436Y-115851085D01*
X123163674Y-115898704D01*
X123211293Y-115946323D01*
X123258912Y-116041561D01*
X123258912Y-116232038D01*
X123306531Y-116327276D01*
X123354150Y-116374895D01*
X123449389Y-116422514D01*
X123639865Y-116422514D01*
X123735103Y-116374895D01*
X123782722Y-116327276D01*
X123830341Y-116232038D01*
X123830341Y-116041561D01*
X123782722Y-115946323D01*
X123735103Y-115898704D01*
X123639865Y-115851085D01*
X123449389Y-115851085D01*
X123354150Y-115898704D01*
X123306531Y-115946323D01*
X123258912Y-116041561D01*
X119249463Y-114154246D02*
X119297082Y-114201865D01*
X119344701Y-114344722D01*
X119344701Y-114439960D01*
X119297082Y-114582818D01*
X119201844Y-114678056D01*
X119106606Y-114725675D01*
X118916130Y-114773294D01*
X118773272Y-114773294D01*
X118582796Y-114725675D01*
X118487558Y-114678056D01*
X118392320Y-114582818D01*
X118344701Y-114439960D01*
X118344701Y-114344722D01*
X118392320Y-114201865D01*
X118439939Y-114154246D01*
X119344701Y-113678056D02*
X119344701Y-113487580D01*
X119297082Y-113392341D01*
X119249463Y-113344722D01*
X119106606Y-113249484D01*
X118916130Y-113201865D01*
X118535177Y-113201865D01*
X118439939Y-113249484D01*
X118392320Y-113297103D01*
X118344701Y-113392341D01*
X118344701Y-113582818D01*
X118392320Y-113678056D01*
X118439939Y-113725675D01*
X118535177Y-113773294D01*
X118773272Y-113773294D01*
X118868510Y-113725675D01*
X118916130Y-113678056D01*
X118963749Y-113582818D01*
X118963749Y-113392341D01*
X118916130Y-113297103D01*
X118868510Y-113249484D01*
X118773272Y-113201865D01*
X119770163Y-99895897D02*
X119817782Y-99943516D01*
X119865401Y-100086373D01*
X119865401Y-100181611D01*
X119817782Y-100324469D01*
X119722544Y-100419707D01*
X119627306Y-100467326D01*
X119436830Y-100514945D01*
X119293972Y-100514945D01*
X119103496Y-100467326D01*
X119008258Y-100419707D01*
X118913020Y-100324469D01*
X118865401Y-100181611D01*
X118865401Y-100086373D01*
X118913020Y-99943516D01*
X118960639Y-99895897D01*
X119865401Y-98943516D02*
X119865401Y-99514945D01*
X119865401Y-99229231D02*
X118865401Y-99229231D01*
X119008258Y-99324469D01*
X119103496Y-99419707D01*
X119151115Y-99514945D01*
X118865401Y-98324469D02*
X118865401Y-98229230D01*
X118913020Y-98133992D01*
X118960639Y-98086373D01*
X119055877Y-98038754D01*
X119246353Y-97991135D01*
X119484449Y-97991135D01*
X119674925Y-98038754D01*
X119770163Y-98086373D01*
X119817782Y-98133992D01*
X119865401Y-98229230D01*
X119865401Y-98324469D01*
X119817782Y-98419707D01*
X119770163Y-98467326D01*
X119674925Y-98514945D01*
X119484449Y-98562564D01*
X119246353Y-98562564D01*
X119055877Y-98514945D01*
X118960639Y-98467326D01*
X118913020Y-98419707D01*
X118865401Y-98324469D01*
X121131603Y-99857797D02*
X121179222Y-99905416D01*
X121226841Y-100048273D01*
X121226841Y-100143511D01*
X121179222Y-100286369D01*
X121083984Y-100381607D01*
X120988746Y-100429226D01*
X120798270Y-100476845D01*
X120655412Y-100476845D01*
X120464936Y-100429226D01*
X120369698Y-100381607D01*
X120274460Y-100286369D01*
X120226841Y-100143511D01*
X120226841Y-100048273D01*
X120274460Y-99905416D01*
X120322079Y-99857797D01*
X121226841Y-98905416D02*
X121226841Y-99476845D01*
X121226841Y-99191131D02*
X120226841Y-99191131D01*
X120369698Y-99286369D01*
X120464936Y-99381607D01*
X120512555Y-99476845D01*
X121226841Y-97953035D02*
X121226841Y-98524464D01*
X121226841Y-98238750D02*
X120226841Y-98238750D01*
X120369698Y-98333988D01*
X120464936Y-98429226D01*
X120512555Y-98524464D01*
X118810043Y-110147337D02*
X118857662Y-110194956D01*
X118905281Y-110337813D01*
X118905281Y-110433051D01*
X118857662Y-110575909D01*
X118762424Y-110671147D01*
X118667186Y-110718766D01*
X118476710Y-110766385D01*
X118333852Y-110766385D01*
X118143376Y-110718766D01*
X118048138Y-110671147D01*
X117952900Y-110575909D01*
X117905281Y-110433051D01*
X117905281Y-110337813D01*
X117952900Y-110194956D01*
X118000519Y-110147337D01*
X118905281Y-109194956D02*
X118905281Y-109766385D01*
X118905281Y-109480671D02*
X117905281Y-109480671D01*
X118048138Y-109575909D01*
X118143376Y-109671147D01*
X118190995Y-109766385D01*
X118000519Y-108814004D02*
X117952900Y-108766385D01*
X117905281Y-108671147D01*
X117905281Y-108433051D01*
X117952900Y-108337813D01*
X118000519Y-108290194D01*
X118095757Y-108242575D01*
X118190995Y-108242575D01*
X118333852Y-108290194D01*
X118905281Y-108861623D01*
X118905281Y-108242575D01*
X117407963Y-100896657D02*
X117455582Y-100944276D01*
X117503201Y-101087133D01*
X117503201Y-101182371D01*
X117455582Y-101325229D01*
X117360344Y-101420467D01*
X117265106Y-101468086D01*
X117074630Y-101515705D01*
X116931772Y-101515705D01*
X116741296Y-101468086D01*
X116646058Y-101420467D01*
X116550820Y-101325229D01*
X116503201Y-101182371D01*
X116503201Y-101087133D01*
X116550820Y-100944276D01*
X116598439Y-100896657D01*
X117503201Y-99944276D02*
X117503201Y-100515705D01*
X117503201Y-100229991D02*
X116503201Y-100229991D01*
X116646058Y-100325229D01*
X116741296Y-100420467D01*
X116788915Y-100515705D01*
X116503201Y-99610943D02*
X116503201Y-98991895D01*
X116884153Y-99325229D01*
X116884153Y-99182371D01*
X116931772Y-99087133D01*
X116979391Y-99039514D01*
X117074630Y-98991895D01*
X117312725Y-98991895D01*
X117407963Y-99039514D01*
X117455582Y-99087133D01*
X117503201Y-99182371D01*
X117503201Y-99468086D01*
X117455582Y-99563324D01*
X117407963Y-99610943D01*
X117450680Y-106751540D02*
X117484013Y-106784874D01*
X117517347Y-106884874D01*
X117517347Y-106951540D01*
X117484013Y-107051540D01*
X117417347Y-107118207D01*
X117350680Y-107151540D01*
X117217347Y-107184874D01*
X117117347Y-107184874D01*
X116984013Y-107151540D01*
X116917347Y-107118207D01*
X116850680Y-107051540D01*
X116817347Y-106951540D01*
X116817347Y-106884874D01*
X116850680Y-106784874D01*
X116884013Y-106751540D01*
X117517347Y-106084874D02*
X117517347Y-106484874D01*
X117517347Y-106284874D02*
X116817347Y-106284874D01*
X116917347Y-106351540D01*
X116984013Y-106418207D01*
X117017347Y-106484874D01*
X117050680Y-105484873D02*
X117517347Y-105484873D01*
X116784013Y-105651540D02*
X117284013Y-105818207D01*
X117284013Y-105384873D01*
X122454943Y-99977177D02*
X122502562Y-100024796D01*
X122550181Y-100167653D01*
X122550181Y-100262891D01*
X122502562Y-100405749D01*
X122407324Y-100500987D01*
X122312086Y-100548606D01*
X122121610Y-100596225D01*
X121978752Y-100596225D01*
X121788276Y-100548606D01*
X121693038Y-100500987D01*
X121597800Y-100405749D01*
X121550181Y-100262891D01*
X121550181Y-100167653D01*
X121597800Y-100024796D01*
X121645419Y-99977177D01*
X122550181Y-99024796D02*
X122550181Y-99596225D01*
X122550181Y-99310511D02*
X121550181Y-99310511D01*
X121693038Y-99405749D01*
X121788276Y-99500987D01*
X121835895Y-99596225D01*
X121550181Y-98120034D02*
X121550181Y-98596225D01*
X122026371Y-98643844D01*
X121978752Y-98596225D01*
X121931133Y-98500987D01*
X121931133Y-98262891D01*
X121978752Y-98167653D01*
X122026371Y-98120034D01*
X122121610Y-98072415D01*
X122359705Y-98072415D01*
X122454943Y-98120034D01*
X122502562Y-98167653D01*
X122550181Y-98262891D01*
X122550181Y-98500987D01*
X122502562Y-98596225D01*
X122454943Y-98643844D01*
X129660923Y-117599697D02*
X129708542Y-117647316D01*
X129756161Y-117790173D01*
X129756161Y-117885411D01*
X129708542Y-118028269D01*
X129613304Y-118123507D01*
X129518066Y-118171126D01*
X129327590Y-118218745D01*
X129184732Y-118218745D01*
X128994256Y-118171126D01*
X128899018Y-118123507D01*
X128803780Y-118028269D01*
X128756161Y-117885411D01*
X128756161Y-117790173D01*
X128803780Y-117647316D01*
X128851399Y-117599697D01*
X129756161Y-116647316D02*
X129756161Y-117218745D01*
X129756161Y-116933031D02*
X128756161Y-116933031D01*
X128899018Y-117028269D01*
X128994256Y-117123507D01*
X129041875Y-117218745D01*
X128756161Y-115790173D02*
X128756161Y-115980650D01*
X128803780Y-116075888D01*
X128851399Y-116123507D01*
X128994256Y-116218745D01*
X129184732Y-116266364D01*
X129565685Y-116266364D01*
X129660923Y-116218745D01*
X129708542Y-116171126D01*
X129756161Y-116075888D01*
X129756161Y-115885411D01*
X129708542Y-115790173D01*
X129660923Y-115742554D01*
X129565685Y-115694935D01*
X129327590Y-115694935D01*
X129232351Y-115742554D01*
X129184732Y-115790173D01*
X129137113Y-115885411D01*
X129137113Y-116075888D01*
X129184732Y-116171126D01*
X129232351Y-116218745D01*
X129327590Y-116266364D01*
X126450363Y-116344937D02*
X126497982Y-116392556D01*
X126545601Y-116535413D01*
X126545601Y-116630651D01*
X126497982Y-116773509D01*
X126402744Y-116868747D01*
X126307506Y-116916366D01*
X126117030Y-116963985D01*
X125974172Y-116963985D01*
X125783696Y-116916366D01*
X125688458Y-116868747D01*
X125593220Y-116773509D01*
X125545601Y-116630651D01*
X125545601Y-116535413D01*
X125593220Y-116392556D01*
X125640839Y-116344937D01*
X126545601Y-115392556D02*
X126545601Y-115963985D01*
X126545601Y-115678271D02*
X125545601Y-115678271D01*
X125688458Y-115773509D01*
X125783696Y-115868747D01*
X125831315Y-115963985D01*
X125545601Y-115059223D02*
X125545601Y-114392556D01*
X126545601Y-114821128D01*
X114287063Y-112823263D02*
X114239444Y-112870882D01*
X114096587Y-112918501D01*
X114001349Y-112918501D01*
X113858491Y-112870882D01*
X113763253Y-112775644D01*
X113715634Y-112680406D01*
X113668015Y-112489930D01*
X113668015Y-112347072D01*
X113715634Y-112156596D01*
X113763253Y-112061358D01*
X113858491Y-111966120D01*
X114001349Y-111918501D01*
X114096587Y-111918501D01*
X114239444Y-111966120D01*
X114287063Y-112013739D01*
X115239444Y-112918501D02*
X114668015Y-112918501D01*
X114953729Y-112918501D02*
X114953729Y-111918501D01*
X114858491Y-112061358D01*
X114763253Y-112156596D01*
X114668015Y-112204215D01*
X115810872Y-112347072D02*
X115715634Y-112299453D01*
X115668015Y-112251834D01*
X115620396Y-112156596D01*
X115620396Y-112108977D01*
X115668015Y-112013739D01*
X115715634Y-111966120D01*
X115810872Y-111918501D01*
X116001349Y-111918501D01*
X116096587Y-111966120D01*
X116144206Y-112013739D01*
X116191825Y-112108977D01*
X116191825Y-112156596D01*
X116144206Y-112251834D01*
X116096587Y-112299453D01*
X116001349Y-112347072D01*
X115810872Y-112347072D01*
X115715634Y-112394691D01*
X115668015Y-112442310D01*
X115620396Y-112537549D01*
X115620396Y-112728025D01*
X115668015Y-112823263D01*
X115715634Y-112870882D01*
X115810872Y-112918501D01*
X116001349Y-112918501D01*
X116096587Y-112870882D01*
X116144206Y-112823263D01*
X116191825Y-112728025D01*
X116191825Y-112537549D01*
X116144206Y-112442310D01*
X116096587Y-112394691D01*
X116001349Y-112347072D01*
X111802183Y-102898177D02*
X111849802Y-102945796D01*
X111897421Y-103088653D01*
X111897421Y-103183891D01*
X111849802Y-103326749D01*
X111754564Y-103421987D01*
X111659326Y-103469606D01*
X111468850Y-103517225D01*
X111325992Y-103517225D01*
X111135516Y-103469606D01*
X111040278Y-103421987D01*
X110945040Y-103326749D01*
X110897421Y-103183891D01*
X110897421Y-103088653D01*
X110945040Y-102945796D01*
X110992659Y-102898177D01*
X111897421Y-101945796D02*
X111897421Y-102517225D01*
X111897421Y-102231511D02*
X110897421Y-102231511D01*
X111040278Y-102326749D01*
X111135516Y-102421987D01*
X111183135Y-102517225D01*
X111897421Y-101469606D02*
X111897421Y-101279130D01*
X111849802Y-101183891D01*
X111802183Y-101136272D01*
X111659326Y-101041034D01*
X111468850Y-100993415D01*
X111087897Y-100993415D01*
X110992659Y-101041034D01*
X110945040Y-101088653D01*
X110897421Y-101183891D01*
X110897421Y-101374368D01*
X110945040Y-101469606D01*
X110992659Y-101517225D01*
X111087897Y-101564844D01*
X111325992Y-101564844D01*
X111421230Y-101517225D01*
X111468850Y-101469606D01*
X111516469Y-101374368D01*
X111516469Y-101183891D01*
X111468850Y-101088653D01*
X111421230Y-101041034D01*
X111325992Y-100993415D01*
X114646983Y-104020857D02*
X114694602Y-104068476D01*
X114742221Y-104211333D01*
X114742221Y-104306571D01*
X114694602Y-104449429D01*
X114599364Y-104544667D01*
X114504126Y-104592286D01*
X114313650Y-104639905D01*
X114170792Y-104639905D01*
X113980316Y-104592286D01*
X113885078Y-104544667D01*
X113789840Y-104449429D01*
X113742221Y-104306571D01*
X113742221Y-104211333D01*
X113789840Y-104068476D01*
X113837459Y-104020857D01*
X113837459Y-103639905D02*
X113789840Y-103592286D01*
X113742221Y-103497048D01*
X113742221Y-103258952D01*
X113789840Y-103163714D01*
X113837459Y-103116095D01*
X113932697Y-103068476D01*
X114027935Y-103068476D01*
X114170792Y-103116095D01*
X114742221Y-103687524D01*
X114742221Y-103068476D01*
X113742221Y-102449429D02*
X113742221Y-102354190D01*
X113789840Y-102258952D01*
X113837459Y-102211333D01*
X113932697Y-102163714D01*
X114123173Y-102116095D01*
X114361269Y-102116095D01*
X114551745Y-102163714D01*
X114646983Y-102211333D01*
X114694602Y-102258952D01*
X114742221Y-102354190D01*
X114742221Y-102449429D01*
X114694602Y-102544667D01*
X114646983Y-102592286D01*
X114551745Y-102639905D01*
X114361269Y-102687524D01*
X114123173Y-102687524D01*
X113932697Y-102639905D01*
X113837459Y-102592286D01*
X113789840Y-102544667D01*
X113742221Y-102449429D01*
X170875723Y-114337103D02*
X170828104Y-114384722D01*
X170685247Y-114432341D01*
X170590009Y-114432341D01*
X170447151Y-114384722D01*
X170351913Y-114289484D01*
X170304294Y-114194246D01*
X170256675Y-114003770D01*
X170256675Y-113860912D01*
X170304294Y-113670436D01*
X170351913Y-113575198D01*
X170447151Y-113479960D01*
X170590009Y-113432341D01*
X170685247Y-113432341D01*
X170828104Y-113479960D01*
X170875723Y-113527579D01*
X171256675Y-113527579D02*
X171304294Y-113479960D01*
X171399532Y-113432341D01*
X171637628Y-113432341D01*
X171732866Y-113479960D01*
X171780485Y-113527579D01*
X171828104Y-113622817D01*
X171828104Y-113718055D01*
X171780485Y-113860912D01*
X171209056Y-114432341D01*
X171828104Y-114432341D01*
X172209056Y-113527579D02*
X172256675Y-113479960D01*
X172351913Y-113432341D01*
X172590009Y-113432341D01*
X172685247Y-113479960D01*
X172732866Y-113527579D01*
X172780485Y-113622817D01*
X172780485Y-113718055D01*
X172732866Y-113860912D01*
X172161437Y-114432341D01*
X172780485Y-114432341D01*
X110920803Y-112148857D02*
X110968422Y-112196476D01*
X111016041Y-112339333D01*
X111016041Y-112434571D01*
X110968422Y-112577429D01*
X110873184Y-112672667D01*
X110777946Y-112720286D01*
X110587470Y-112767905D01*
X110444612Y-112767905D01*
X110254136Y-112720286D01*
X110158898Y-112672667D01*
X110063660Y-112577429D01*
X110016041Y-112434571D01*
X110016041Y-112339333D01*
X110063660Y-112196476D01*
X110111279Y-112148857D01*
X110111279Y-111767905D02*
X110063660Y-111720286D01*
X110016041Y-111625048D01*
X110016041Y-111386952D01*
X110063660Y-111291714D01*
X110111279Y-111244095D01*
X110206517Y-111196476D01*
X110301755Y-111196476D01*
X110444612Y-111244095D01*
X111016041Y-111815524D01*
X111016041Y-111196476D01*
X110349374Y-110339333D02*
X111016041Y-110339333D01*
X109968422Y-110577429D02*
X110682708Y-110815524D01*
X110682708Y-110196476D01*
X154954243Y-117553977D02*
X155001862Y-117601596D01*
X155049481Y-117744453D01*
X155049481Y-117839691D01*
X155001862Y-117982549D01*
X154906624Y-118077787D01*
X154811386Y-118125406D01*
X154620910Y-118173025D01*
X154478052Y-118173025D01*
X154287576Y-118125406D01*
X154192338Y-118077787D01*
X154097100Y-117982549D01*
X154049481Y-117839691D01*
X154049481Y-117744453D01*
X154097100Y-117601596D01*
X154144719Y-117553977D01*
X154144719Y-117173025D02*
X154097100Y-117125406D01*
X154049481Y-117030168D01*
X154049481Y-116792072D01*
X154097100Y-116696834D01*
X154144719Y-116649215D01*
X154239957Y-116601596D01*
X154335195Y-116601596D01*
X154478052Y-116649215D01*
X155049481Y-117220644D01*
X155049481Y-116601596D01*
X154049481Y-115744453D02*
X154049481Y-115934930D01*
X154097100Y-116030168D01*
X154144719Y-116077787D01*
X154287576Y-116173025D01*
X154478052Y-116220644D01*
X154859005Y-116220644D01*
X154954243Y-116173025D01*
X155001862Y-116125406D01*
X155049481Y-116030168D01*
X155049481Y-115839691D01*
X155001862Y-115744453D01*
X154954243Y-115696834D01*
X154859005Y-115649215D01*
X154620910Y-115649215D01*
X154525671Y-115696834D01*
X154478052Y-115744453D01*
X154430433Y-115839691D01*
X154430433Y-116030168D01*
X154478052Y-116125406D01*
X154525671Y-116173025D01*
X154620910Y-116220644D01*
X109881943Y-104259617D02*
X109929562Y-104307236D01*
X109977181Y-104450093D01*
X109977181Y-104545331D01*
X109929562Y-104688189D01*
X109834324Y-104783427D01*
X109739086Y-104831046D01*
X109548610Y-104878665D01*
X109405752Y-104878665D01*
X109215276Y-104831046D01*
X109120038Y-104783427D01*
X109024800Y-104688189D01*
X108977181Y-104545331D01*
X108977181Y-104450093D01*
X109024800Y-104307236D01*
X109072419Y-104259617D01*
X109072419Y-103878665D02*
X109024800Y-103831046D01*
X108977181Y-103735808D01*
X108977181Y-103497712D01*
X109024800Y-103402474D01*
X109072419Y-103354855D01*
X109167657Y-103307236D01*
X109262895Y-103307236D01*
X109405752Y-103354855D01*
X109977181Y-103926284D01*
X109977181Y-103307236D01*
X108977181Y-102973903D02*
X108977181Y-102307236D01*
X109977181Y-102735808D01*
X152523463Y-117007877D02*
X152571082Y-117055496D01*
X152618701Y-117198353D01*
X152618701Y-117293591D01*
X152571082Y-117436449D01*
X152475844Y-117531687D01*
X152380606Y-117579306D01*
X152190130Y-117626925D01*
X152047272Y-117626925D01*
X151856796Y-117579306D01*
X151761558Y-117531687D01*
X151666320Y-117436449D01*
X151618701Y-117293591D01*
X151618701Y-117198353D01*
X151666320Y-117055496D01*
X151713939Y-117007877D01*
X151713939Y-116626925D02*
X151666320Y-116579306D01*
X151618701Y-116484068D01*
X151618701Y-116245972D01*
X151666320Y-116150734D01*
X151713939Y-116103115D01*
X151809177Y-116055496D01*
X151904415Y-116055496D01*
X152047272Y-116103115D01*
X152618701Y-116674544D01*
X152618701Y-116055496D01*
X152047272Y-115484068D02*
X151999653Y-115579306D01*
X151952034Y-115626925D01*
X151856796Y-115674544D01*
X151809177Y-115674544D01*
X151713939Y-115626925D01*
X151666320Y-115579306D01*
X151618701Y-115484068D01*
X151618701Y-115293591D01*
X151666320Y-115198353D01*
X151713939Y-115150734D01*
X151809177Y-115103115D01*
X151856796Y-115103115D01*
X151952034Y-115150734D01*
X151999653Y-115198353D01*
X152047272Y-115293591D01*
X152047272Y-115484068D01*
X152094891Y-115579306D01*
X152142510Y-115626925D01*
X152237749Y-115674544D01*
X152428225Y-115674544D01*
X152523463Y-115626925D01*
X152571082Y-115579306D01*
X152618701Y-115484068D01*
X152618701Y-115293591D01*
X152571082Y-115198353D01*
X152523463Y-115150734D01*
X152428225Y-115103115D01*
X152237749Y-115103115D01*
X152142510Y-115150734D01*
X152094891Y-115198353D01*
X152047272Y-115293591D01*
X149229843Y-110613463D02*
X149182224Y-110661082D01*
X149039367Y-110708701D01*
X148944129Y-110708701D01*
X148801271Y-110661082D01*
X148706033Y-110565844D01*
X148658414Y-110470606D01*
X148610795Y-110280130D01*
X148610795Y-110137272D01*
X148658414Y-109946796D01*
X148706033Y-109851558D01*
X148801271Y-109756320D01*
X148944129Y-109708701D01*
X149039367Y-109708701D01*
X149182224Y-109756320D01*
X149229843Y-109803939D01*
X149610795Y-109803939D02*
X149658414Y-109756320D01*
X149753652Y-109708701D01*
X149991748Y-109708701D01*
X150086986Y-109756320D01*
X150134605Y-109803939D01*
X150182224Y-109899177D01*
X150182224Y-109994415D01*
X150134605Y-110137272D01*
X149563176Y-110708701D01*
X150182224Y-110708701D01*
X150658414Y-110708701D02*
X150848890Y-110708701D01*
X150944129Y-110661082D01*
X150991748Y-110613463D01*
X151086986Y-110470606D01*
X151134605Y-110280130D01*
X151134605Y-109899177D01*
X151086986Y-109803939D01*
X151039367Y-109756320D01*
X150944129Y-109708701D01*
X150753652Y-109708701D01*
X150658414Y-109756320D01*
X150610795Y-109803939D01*
X150563176Y-109899177D01*
X150563176Y-110137272D01*
X150610795Y-110232510D01*
X150658414Y-110280130D01*
X150753652Y-110327749D01*
X150944129Y-110327749D01*
X151039367Y-110280130D01*
X151086986Y-110232510D01*
X151134605Y-110137272D01*
X144589263Y-108388423D02*
X144541644Y-108436042D01*
X144398787Y-108483661D01*
X144303549Y-108483661D01*
X144160691Y-108436042D01*
X144065453Y-108340804D01*
X144017834Y-108245566D01*
X143970215Y-108055090D01*
X143970215Y-107912232D01*
X144017834Y-107721756D01*
X144065453Y-107626518D01*
X144160691Y-107531280D01*
X144303549Y-107483661D01*
X144398787Y-107483661D01*
X144541644Y-107531280D01*
X144589263Y-107578899D01*
X144922596Y-107483661D02*
X145541644Y-107483661D01*
X145208310Y-107864613D01*
X145351168Y-107864613D01*
X145446406Y-107912232D01*
X145494025Y-107959851D01*
X145541644Y-108055090D01*
X145541644Y-108293185D01*
X145494025Y-108388423D01*
X145446406Y-108436042D01*
X145351168Y-108483661D01*
X145065453Y-108483661D01*
X144970215Y-108436042D01*
X144922596Y-108388423D01*
X146398787Y-107816994D02*
X146398787Y-108483661D01*
X146160691Y-107436042D02*
X145922596Y-108150328D01*
X146541644Y-108150328D01*
X145824083Y-115659161D02*
X145824083Y-114659161D01*
X146062178Y-114659161D01*
X146205036Y-114706780D01*
X146300274Y-114802018D01*
X146347893Y-114897256D01*
X146395512Y-115087732D01*
X146395512Y-115230590D01*
X146347893Y-115421066D01*
X146300274Y-115516304D01*
X146205036Y-115611542D01*
X146062178Y-115659161D01*
X145824083Y-115659161D01*
X147300274Y-115659161D02*
X146824083Y-115659161D01*
X146824083Y-114659161D01*
X148157417Y-115659161D02*
X147585988Y-115659161D01*
X147871702Y-115659161D02*
X147871702Y-114659161D01*
X147776464Y-114802018D01*
X147681226Y-114897256D01*
X147585988Y-114944875D01*
X116169701Y-107071397D02*
X116169701Y-107547588D01*
X115169701Y-107547588D01*
X116169701Y-106214254D02*
X116169701Y-106785683D01*
X116169701Y-106499969D02*
X115169701Y-106499969D01*
X115312558Y-106595207D01*
X115407796Y-106690445D01*
X115455415Y-106785683D01*
X116169701Y-105261873D02*
X116169701Y-105833302D01*
X116169701Y-105547588D02*
X115169701Y-105547588D01*
X115312558Y-105642826D01*
X115407796Y-105738064D01*
X115455415Y-105833302D01*
X157926182Y-110146819D02*
X157830944Y-110099200D01*
X157735706Y-110003962D01*
X157592849Y-109861105D01*
X157497610Y-109813486D01*
X157402372Y-109813486D01*
X157449991Y-110051581D02*
X157354753Y-110003962D01*
X157259515Y-109908724D01*
X157211896Y-109718248D01*
X157211896Y-109384914D01*
X157259515Y-109194438D01*
X157354753Y-109099200D01*
X157449991Y-109051581D01*
X157640468Y-109051581D01*
X157735706Y-109099200D01*
X157830944Y-109194438D01*
X157878563Y-109384914D01*
X157878563Y-109718248D01*
X157830944Y-109908724D01*
X157735706Y-110003962D01*
X157640468Y-110051581D01*
X157449991Y-110051581D01*
X158830944Y-110051581D02*
X158259515Y-110051581D01*
X158545229Y-110051581D02*
X158545229Y-109051581D01*
X158449991Y-109194438D01*
X158354753Y-109289676D01*
X158259515Y-109337295D01*
X122405212Y-104766359D02*
X122309974Y-104718740D01*
X122214736Y-104623502D01*
X122071879Y-104480645D01*
X121976640Y-104433026D01*
X121881402Y-104433026D01*
X121929021Y-104671121D02*
X121833783Y-104623502D01*
X121738545Y-104528264D01*
X121690926Y-104337788D01*
X121690926Y-104004454D01*
X121738545Y-103813978D01*
X121833783Y-103718740D01*
X121929021Y-103671121D01*
X122119498Y-103671121D01*
X122214736Y-103718740D01*
X122309974Y-103813978D01*
X122357593Y-104004454D01*
X122357593Y-104337788D01*
X122309974Y-104528264D01*
X122214736Y-104623502D01*
X122119498Y-104671121D01*
X121929021Y-104671121D01*
X122690926Y-103671121D02*
X123357593Y-103671121D01*
X122690926Y-104671121D01*
X123357593Y-104671121D01*
X124262355Y-104671121D02*
X123690926Y-104671121D01*
X123976640Y-104671121D02*
X123976640Y-103671121D01*
X123881402Y-103813978D01*
X123786164Y-103909216D01*
X123690926Y-103956835D01*
X151254532Y-113643659D02*
X151159294Y-113596040D01*
X151064056Y-113500802D01*
X150921199Y-113357945D01*
X150825960Y-113310326D01*
X150730722Y-113310326D01*
X150778341Y-113548421D02*
X150683103Y-113500802D01*
X150587865Y-113405564D01*
X150540246Y-113215088D01*
X150540246Y-112881754D01*
X150587865Y-112691278D01*
X150683103Y-112596040D01*
X150778341Y-112548421D01*
X150968818Y-112548421D01*
X151064056Y-112596040D01*
X151159294Y-112691278D01*
X151206913Y-112881754D01*
X151206913Y-113215088D01*
X151159294Y-113405564D01*
X151064056Y-113500802D01*
X150968818Y-113548421D01*
X150778341Y-113548421D01*
X151540246Y-112548421D02*
X152206913Y-112548421D01*
X151540246Y-113548421D01*
X152206913Y-113548421D01*
X152492627Y-112548421D02*
X153111675Y-112548421D01*
X152778341Y-112929373D01*
X152921199Y-112929373D01*
X153016437Y-112976992D01*
X153064056Y-113024611D01*
X153111675Y-113119850D01*
X153111675Y-113357945D01*
X153064056Y-113453183D01*
X153016437Y-113500802D01*
X152921199Y-113548421D01*
X152635484Y-113548421D01*
X152540246Y-113500802D01*
X152492627Y-113453183D01*
X117625121Y-109589866D02*
X117148930Y-109923200D01*
X117625121Y-110161295D02*
X116625121Y-110161295D01*
X116625121Y-109780342D01*
X116672740Y-109685104D01*
X116720359Y-109637485D01*
X116815597Y-109589866D01*
X116958454Y-109589866D01*
X117053692Y-109637485D01*
X117101311Y-109685104D01*
X117148930Y-109780342D01*
X117148930Y-110161295D01*
X117625121Y-108637485D02*
X117625121Y-109208914D01*
X117625121Y-108923200D02*
X116625121Y-108923200D01*
X116767978Y-109018438D01*
X116863216Y-109113676D01*
X116910835Y-109208914D01*
X163180021Y-108106506D02*
X162703830Y-108439840D01*
X163180021Y-108677935D02*
X162180021Y-108677935D01*
X162180021Y-108296982D01*
X162227640Y-108201744D01*
X162275259Y-108154125D01*
X162370497Y-108106506D01*
X162513354Y-108106506D01*
X162608592Y-108154125D01*
X162656211Y-108201744D01*
X162703830Y-108296982D01*
X162703830Y-108677935D01*
X162275259Y-107725554D02*
X162227640Y-107677935D01*
X162180021Y-107582697D01*
X162180021Y-107344601D01*
X162227640Y-107249363D01*
X162275259Y-107201744D01*
X162370497Y-107154125D01*
X162465735Y-107154125D01*
X162608592Y-107201744D01*
X163180021Y-107773173D01*
X163180021Y-107154125D01*
X162446674Y-114615221D02*
X162113340Y-114139030D01*
X161875245Y-114615221D02*
X161875245Y-113615221D01*
X162256198Y-113615221D01*
X162351436Y-113662840D01*
X162399055Y-113710459D01*
X162446674Y-113805697D01*
X162446674Y-113948554D01*
X162399055Y-114043792D01*
X162351436Y-114091411D01*
X162256198Y-114139030D01*
X161875245Y-114139030D01*
X162780007Y-113615221D02*
X163399055Y-113615221D01*
X163065721Y-113996173D01*
X163208579Y-113996173D01*
X163303817Y-114043792D01*
X163351436Y-114091411D01*
X163399055Y-114186650D01*
X163399055Y-114424745D01*
X163351436Y-114519983D01*
X163303817Y-114567602D01*
X163208579Y-114615221D01*
X162922864Y-114615221D01*
X162827626Y-114567602D01*
X162780007Y-114519983D01*
X165725101Y-115147386D02*
X165248910Y-115480720D01*
X165725101Y-115718815D02*
X164725101Y-115718815D01*
X164725101Y-115337862D01*
X164772720Y-115242624D01*
X164820339Y-115195005D01*
X164915577Y-115147386D01*
X165058434Y-115147386D01*
X165153672Y-115195005D01*
X165201291Y-115242624D01*
X165248910Y-115337862D01*
X165248910Y-115718815D01*
X165058434Y-114290243D02*
X165725101Y-114290243D01*
X164677482Y-114528339D02*
X165391768Y-114766434D01*
X165391768Y-114147386D01*
X143776961Y-104926426D02*
X143300770Y-105259760D01*
X143776961Y-105497855D02*
X142776961Y-105497855D01*
X142776961Y-105116902D01*
X142824580Y-105021664D01*
X142872199Y-104974045D01*
X142967437Y-104926426D01*
X143110294Y-104926426D01*
X143205532Y-104974045D01*
X143253151Y-105021664D01*
X143300770Y-105116902D01*
X143300770Y-105497855D01*
X143776961Y-104450236D02*
X143776961Y-104259760D01*
X143729342Y-104164521D01*
X143681723Y-104116902D01*
X143538866Y-104021664D01*
X143348390Y-103974045D01*
X142967437Y-103974045D01*
X142872199Y-104021664D01*
X142824580Y-104069283D01*
X142776961Y-104164521D01*
X142776961Y-104354998D01*
X142824580Y-104450236D01*
X142872199Y-104497855D01*
X142967437Y-104545474D01*
X143205532Y-104545474D01*
X143300770Y-104497855D01*
X143348390Y-104450236D01*
X143396009Y-104354998D01*
X143396009Y-104164521D01*
X143348390Y-104069283D01*
X143300770Y-104021664D01*
X143205532Y-103974045D01*
X148486121Y-110513097D02*
X148009930Y-110846431D01*
X148486121Y-111084526D02*
X147486121Y-111084526D01*
X147486121Y-110703573D01*
X147533740Y-110608335D01*
X147581359Y-110560716D01*
X147676597Y-110513097D01*
X147819454Y-110513097D01*
X147914692Y-110560716D01*
X147962311Y-110608335D01*
X148009930Y-110703573D01*
X148009930Y-111084526D01*
X148486121Y-109560716D02*
X148486121Y-110132145D01*
X148486121Y-109846431D02*
X147486121Y-109846431D01*
X147628978Y-109941669D01*
X147724216Y-110036907D01*
X147771835Y-110132145D01*
X147486121Y-108941669D02*
X147486121Y-108846430D01*
X147533740Y-108751192D01*
X147581359Y-108703573D01*
X147676597Y-108655954D01*
X147867073Y-108608335D01*
X148105169Y-108608335D01*
X148295645Y-108655954D01*
X148390883Y-108703573D01*
X148438502Y-108751192D01*
X148486121Y-108846430D01*
X148486121Y-108941669D01*
X148438502Y-109036907D01*
X148390883Y-109084526D01*
X148295645Y-109132145D01*
X148105169Y-109179764D01*
X147867073Y-109179764D01*
X147676597Y-109132145D01*
X147581359Y-109084526D01*
X147533740Y-109036907D01*
X147486121Y-108941669D01*
X120828061Y-105463577D02*
X120351870Y-105796911D01*
X120828061Y-106035006D02*
X119828061Y-106035006D01*
X119828061Y-105654053D01*
X119875680Y-105558815D01*
X119923299Y-105511196D01*
X120018537Y-105463577D01*
X120161394Y-105463577D01*
X120256632Y-105511196D01*
X120304251Y-105558815D01*
X120351870Y-105654053D01*
X120351870Y-106035006D01*
X120828061Y-104511196D02*
X120828061Y-105082625D01*
X120828061Y-104796911D02*
X119828061Y-104796911D01*
X119970918Y-104892149D01*
X120066156Y-104987387D01*
X120113775Y-105082625D01*
X119828061Y-103606434D02*
X119828061Y-104082625D01*
X120304251Y-104130244D01*
X120256632Y-104082625D01*
X120209013Y-103987387D01*
X120209013Y-103749291D01*
X120256632Y-103654053D01*
X120304251Y-103606434D01*
X120399490Y-103558815D01*
X120637585Y-103558815D01*
X120732823Y-103606434D01*
X120780442Y-103654053D01*
X120828061Y-103749291D01*
X120828061Y-103987387D01*
X120780442Y-104082625D01*
X120732823Y-104130244D01*
X154051261Y-102882937D02*
X153575070Y-103216271D01*
X154051261Y-103454366D02*
X153051261Y-103454366D01*
X153051261Y-103073413D01*
X153098880Y-102978175D01*
X153146499Y-102930556D01*
X153241737Y-102882937D01*
X153384594Y-102882937D01*
X153479832Y-102930556D01*
X153527451Y-102978175D01*
X153575070Y-103073413D01*
X153575070Y-103454366D01*
X153051261Y-102549604D02*
X153051261Y-101930556D01*
X153432213Y-102263890D01*
X153432213Y-102121032D01*
X153479832Y-102025794D01*
X153527451Y-101978175D01*
X153622690Y-101930556D01*
X153860785Y-101930556D01*
X153956023Y-101978175D01*
X154003642Y-102025794D01*
X154051261Y-102121032D01*
X154051261Y-102406747D01*
X154003642Y-102501985D01*
X153956023Y-102549604D01*
X153146499Y-101549604D02*
X153098880Y-101501985D01*
X153051261Y-101406747D01*
X153051261Y-101168651D01*
X153098880Y-101073413D01*
X153146499Y-101025794D01*
X153241737Y-100978175D01*
X153336975Y-100978175D01*
X153479832Y-101025794D01*
X154051261Y-101597223D01*
X154051261Y-100978175D01*
X177684205Y-106190041D02*
X177684205Y-105190041D01*
X178065158Y-105190041D01*
X178160396Y-105237660D01*
X178208015Y-105285279D01*
X178255634Y-105380517D01*
X178255634Y-105523374D01*
X178208015Y-105618612D01*
X178160396Y-105666231D01*
X178065158Y-105713850D01*
X177684205Y-105713850D01*
X178636586Y-105285279D02*
X178684205Y-105237660D01*
X178779443Y-105190041D01*
X179017539Y-105190041D01*
X179112777Y-105237660D01*
X179160396Y-105285279D01*
X179208015Y-105380517D01*
X179208015Y-105475755D01*
X179160396Y-105618612D01*
X178588967Y-106190041D01*
X179208015Y-106190041D01*
X129555501Y-109005595D02*
X128555501Y-109005595D01*
X128555501Y-108624642D01*
X128603120Y-108529404D01*
X128650739Y-108481785D01*
X128745977Y-108434166D01*
X128888834Y-108434166D01*
X128984072Y-108481785D01*
X129031691Y-108529404D01*
X129079310Y-108624642D01*
X129079310Y-109005595D01*
X129555501Y-107481785D02*
X129555501Y-108053214D01*
X129555501Y-107767500D02*
X128555501Y-107767500D01*
X128698358Y-107862738D01*
X128793596Y-107957976D01*
X128841215Y-108053214D01*
X159766974Y-113525561D02*
X159433640Y-113049370D01*
X159195545Y-113525561D02*
X159195545Y-112525561D01*
X159576498Y-112525561D01*
X159671736Y-112573180D01*
X159719355Y-112620799D01*
X159766974Y-112716037D01*
X159766974Y-112858894D01*
X159719355Y-112954132D01*
X159671736Y-113001751D01*
X159576498Y-113049370D01*
X159195545Y-113049370D01*
X160671736Y-112525561D02*
X160195545Y-112525561D01*
X160147926Y-113001751D01*
X160195545Y-112954132D01*
X160290783Y-112906513D01*
X160528879Y-112906513D01*
X160624117Y-112954132D01*
X160671736Y-113001751D01*
X160719355Y-113096990D01*
X160719355Y-113335085D01*
X160671736Y-113430323D01*
X160624117Y-113477942D01*
X160528879Y-113525561D01*
X160290783Y-113525561D01*
X160195545Y-113477942D01*
X160147926Y-113430323D01*
X100377192Y-106948267D02*
X100853383Y-106948267D01*
X100281954Y-107233981D02*
X100615287Y-106233981D01*
X100948621Y-107233981D01*
X101281954Y-107233981D02*
X101281954Y-106233981D01*
X101853383Y-107233981D01*
X101853383Y-106233981D01*
X102186716Y-106233981D02*
X102758145Y-106233981D01*
X102472430Y-107233981D02*
X102472430Y-106233981D01*
X103615288Y-107233981D02*
X103043859Y-107233981D01*
X103329573Y-107233981D02*
X103329573Y-106233981D01*
X103234335Y-106376838D01*
X103139097Y-106472076D01*
X103043859Y-106519695D01*
X116884154Y-113037881D02*
X116407963Y-113037881D01*
X116407963Y-112037881D01*
X117169868Y-112133119D02*
X117217487Y-112085500D01*
X117312725Y-112037881D01*
X117550821Y-112037881D01*
X117646059Y-112085500D01*
X117693678Y-112133119D01*
X117741297Y-112228357D01*
X117741297Y-112323595D01*
X117693678Y-112466452D01*
X117122249Y-113037881D01*
X117741297Y-113037881D01*
X112806575Y-107313481D02*
X112806575Y-108123005D01*
X112854194Y-108218243D01*
X112901813Y-108265862D01*
X112997051Y-108313481D01*
X113187528Y-108313481D01*
X113282766Y-108265862D01*
X113330385Y-108218243D01*
X113378004Y-108123005D01*
X113378004Y-107313481D01*
X114330385Y-107313481D02*
X113854194Y-107313481D01*
X113806575Y-107789671D01*
X113854194Y-107742052D01*
X113949432Y-107694433D01*
X114187528Y-107694433D01*
X114282766Y-107742052D01*
X114330385Y-107789671D01*
X114378004Y-107884910D01*
X114378004Y-108123005D01*
X114330385Y-108218243D01*
X114282766Y-108265862D01*
X114187528Y-108313481D01*
X113949432Y-108313481D01*
X113854194Y-108265862D01*
X113806575Y-108218243D01*
X115644634Y-104988621D02*
X115168443Y-104988621D01*
X115168443Y-103988621D01*
X116406539Y-104321954D02*
X116406539Y-104988621D01*
X116168443Y-103941002D02*
X115930348Y-104655288D01*
X116549396Y-104655288D01*
X118745261Y-103585306D02*
X118745261Y-104061497D01*
X117745261Y-104061497D01*
X117745261Y-102775782D02*
X117745261Y-103251973D01*
X118221451Y-103299592D01*
X118173832Y-103251973D01*
X118126213Y-103156735D01*
X118126213Y-102918639D01*
X118173832Y-102823401D01*
X118221451Y-102775782D01*
X118316690Y-102728163D01*
X118554785Y-102728163D01*
X118650023Y-102775782D01*
X118697642Y-102823401D01*
X118745261Y-102918639D01*
X118745261Y-103156735D01*
X118697642Y-103251973D01*
X118650023Y-103299592D01*
X120988081Y-107387686D02*
X120988081Y-107863877D01*
X119988081Y-107863877D01*
X120988081Y-106530543D02*
X120988081Y-107101972D01*
X120988081Y-106816258D02*
X119988081Y-106816258D01*
X120130938Y-106911496D01*
X120226176Y-107006734D01*
X120273795Y-107101972D01*
X108276094Y-107233981D02*
X107799903Y-107233981D01*
X107799903Y-106233981D01*
X108514189Y-106233981D02*
X109133237Y-106233981D01*
X108799903Y-106614933D01*
X108942761Y-106614933D01*
X109037999Y-106662552D01*
X109085618Y-106710171D01*
X109133237Y-106805410D01*
X109133237Y-107043505D01*
X109085618Y-107138743D01*
X109037999Y-107186362D01*
X108942761Y-107233981D01*
X108657046Y-107233981D01*
X108561808Y-107186362D01*
X108514189Y-107138743D01*
X170714374Y-112272083D02*
X170666755Y-112319702D01*
X170523898Y-112367321D01*
X170428660Y-112367321D01*
X170285802Y-112319702D01*
X170190564Y-112224464D01*
X170142945Y-112129226D01*
X170095326Y-111938750D01*
X170095326Y-111795892D01*
X170142945Y-111605416D01*
X170190564Y-111510178D01*
X170285802Y-111414940D01*
X170428660Y-111367321D01*
X170523898Y-111367321D01*
X170666755Y-111414940D01*
X170714374Y-111462559D01*
X171571517Y-111700654D02*
X171571517Y-112367321D01*
X171333421Y-111319702D02*
X171095326Y-112033988D01*
X171714374Y-112033988D01*
X127778783Y-116242126D02*
X127826402Y-116289745D01*
X127874021Y-116432602D01*
X127874021Y-116527840D01*
X127826402Y-116670698D01*
X127731164Y-116765936D01*
X127635926Y-116813555D01*
X127445450Y-116861174D01*
X127302592Y-116861174D01*
X127112116Y-116813555D01*
X127016878Y-116765936D01*
X126921640Y-116670698D01*
X126874021Y-116527840D01*
X126874021Y-116432602D01*
X126921640Y-116289745D01*
X126969259Y-116242126D01*
X126969259Y-115861174D02*
X126921640Y-115813555D01*
X126874021Y-115718317D01*
X126874021Y-115480221D01*
X126921640Y-115384983D01*
X126969259Y-115337364D01*
X127064497Y-115289745D01*
X127159735Y-115289745D01*
X127302592Y-115337364D01*
X127874021Y-115908793D01*
X127874021Y-115289745D01*
X121584975Y-106843681D02*
X121584975Y-107653205D01*
X121632594Y-107748443D01*
X121680213Y-107796062D01*
X121775451Y-107843681D01*
X121965928Y-107843681D01*
X122061166Y-107796062D01*
X122108785Y-107748443D01*
X122156404Y-107653205D01*
X122156404Y-106843681D01*
X123156404Y-107843681D02*
X122584975Y-107843681D01*
X122870689Y-107843681D02*
X122870689Y-106843681D01*
X122775451Y-106986538D01*
X122680213Y-107081776D01*
X122584975Y-107129395D01*
X153008095Y-111609381D02*
X153008095Y-112418905D01*
X153055714Y-112514143D01*
X153103333Y-112561762D01*
X153198571Y-112609381D01*
X153389048Y-112609381D01*
X153484286Y-112561762D01*
X153531905Y-112514143D01*
X153579524Y-112418905D01*
X153579524Y-111609381D01*
X154008095Y-111704619D02*
X154055714Y-111657000D01*
X154150952Y-111609381D01*
X154389048Y-111609381D01*
X154484286Y-111657000D01*
X154531905Y-111704619D01*
X154579524Y-111799857D01*
X154579524Y-111895095D01*
X154531905Y-112037952D01*
X153960476Y-112609381D01*
X154579524Y-112609381D01*
M02*
