G04 #@! TF.FileFunction,Copper,L1,Top,Signal*
%FSLAX46Y46*%
G04 Gerber Fmt 4.6, Leading zero omitted, Abs format (unit mm)*
G04 Created by KiCad (PCBNEW 4.0.2+dfsg1-stable) date ven 12 ott 2018 16:01:28 CEST*
%MOMM*%
G01*
G04 APERTURE LIST*
%ADD10C,0.100000*%
%ADD11C,0.300000*%
%ADD12C,0.200000*%
%ADD13C,0.500000*%
%ADD14R,0.800000X0.800000*%
%ADD15O,0.800000X0.800000*%
%ADD16R,0.600000X0.500000*%
%ADD17R,0.500000X0.600000*%
%ADD18R,0.800000X0.750000*%
%ADD19R,1.250000X1.000000*%
%ADD20R,1.000000X1.250000*%
%ADD21R,1.198880X1.198880*%
%ADD22R,0.600000X0.400000*%
%ADD23R,0.711200X0.457200*%
%ADD24R,1.150000X1.000000*%
%ADD25R,1.000000X1.800000*%
%ADD26R,0.400000X0.600000*%
%ADD27R,0.730000X0.300000*%
%ADD28R,0.300000X0.730000*%
%ADD29R,1.250000X1.250000*%
%ADD30R,0.700000X0.250000*%
%ADD31R,0.250000X0.700000*%
%ADD32R,1.725000X1.725000*%
%ADD33C,4.000000*%
%ADD34R,0.500000X0.500000*%
%ADD35R,0.650000X0.400000*%
%ADD36R,0.750000X0.800000*%
%ADD37C,0.600000*%
%ADD38C,0.250000*%
%ADD39C,0.226060*%
G04 APERTURE END LIST*
D10*
D11*
X163351224Y-100903031D02*
X164279795Y-100903031D01*
X163779795Y-101474460D01*
X163994081Y-101474460D01*
X164136938Y-101545889D01*
X164208367Y-101617317D01*
X164279795Y-101760174D01*
X164279795Y-102117317D01*
X164208367Y-102260174D01*
X164136938Y-102331603D01*
X163994081Y-102403031D01*
X163565509Y-102403031D01*
X163422652Y-102331603D01*
X163351224Y-102260174D01*
X164994080Y-102403031D02*
X165279795Y-102403031D01*
X165422652Y-102331603D01*
X165494080Y-102260174D01*
X165636938Y-102045889D01*
X165708366Y-101760174D01*
X165708366Y-101188746D01*
X165636938Y-101045889D01*
X165565509Y-100974460D01*
X165422652Y-100903031D01*
X165136938Y-100903031D01*
X164994080Y-100974460D01*
X164922652Y-101045889D01*
X164851223Y-101188746D01*
X164851223Y-101545889D01*
X164922652Y-101688746D01*
X164994080Y-101760174D01*
X165136938Y-101831603D01*
X165422652Y-101831603D01*
X165565509Y-101760174D01*
X165636938Y-101688746D01*
X165708366Y-101545889D01*
X166208366Y-100903031D02*
X167136937Y-100903031D01*
X166636937Y-101474460D01*
X166851223Y-101474460D01*
X166994080Y-101545889D01*
X167065509Y-101617317D01*
X167136937Y-101760174D01*
X167136937Y-102117317D01*
X167065509Y-102260174D01*
X166994080Y-102331603D01*
X166851223Y-102403031D01*
X166422651Y-102403031D01*
X166279794Y-102331603D01*
X166208366Y-102260174D01*
X167636937Y-100903031D02*
X168565508Y-100903031D01*
X168065508Y-101474460D01*
X168279794Y-101474460D01*
X168422651Y-101545889D01*
X168494080Y-101617317D01*
X168565508Y-101760174D01*
X168565508Y-102117317D01*
X168494080Y-102260174D01*
X168422651Y-102331603D01*
X168279794Y-102403031D01*
X167851222Y-102403031D01*
X167708365Y-102331603D01*
X167636937Y-102260174D01*
D12*
X173690280Y-115443000D02*
X98295460Y-115443000D01*
X195072000Y-115443000D02*
X179682660Y-115443000D01*
X179682660Y-112410240D02*
X179682660Y-115443000D01*
X173692820Y-112410240D02*
X179682660Y-112410240D01*
X173692820Y-112410240D02*
X173692820Y-115437920D01*
X173776640Y-99949000D02*
X98298000Y-99949000D01*
X195072000Y-99949000D02*
X179778660Y-99949000D01*
X179778660Y-99949000D02*
X179778660Y-103047800D01*
X173776640Y-103047800D02*
X179778660Y-103047800D01*
X173776640Y-99949000D02*
X173776640Y-103047800D01*
X98298000Y-115443000D02*
X98298000Y-99949000D01*
X195072000Y-99949000D02*
X195072000Y-115443000D01*
D13*
X105947560Y-103711560D02*
X101347560Y-103711560D01*
X105947560Y-100711560D02*
X105947560Y-103711560D01*
X99347560Y-100711560D02*
X105947560Y-100711560D01*
X99347560Y-105811560D02*
X99347560Y-100711560D01*
X109097560Y-106711560D02*
X107097560Y-106711560D01*
D14*
X127000000Y-102631240D03*
D15*
X128250000Y-102631240D03*
D16*
X110454580Y-107731560D03*
X111554580Y-107731560D03*
D17*
X113062500Y-111225240D03*
X113062500Y-112325240D03*
X124659640Y-113734360D03*
X124659640Y-114834360D03*
D18*
X124350440Y-101203760D03*
X122850440Y-101203760D03*
D17*
X123338640Y-113734360D03*
X123338640Y-114834360D03*
X118708400Y-111225240D03*
X118708400Y-112325240D03*
X119475680Y-102330340D03*
X119475680Y-101230340D03*
X120567680Y-102330340D03*
X120567680Y-101230340D03*
X118210560Y-106665940D03*
X118210560Y-107765940D03*
X117042160Y-103344980D03*
X117042160Y-102244980D03*
X117192020Y-105530560D03*
X117192020Y-106630560D03*
X121558680Y-102330340D03*
X121558680Y-101230340D03*
D19*
X129214880Y-112507520D03*
X129214880Y-114507520D03*
D17*
X125709680Y-111212540D03*
X125709680Y-112312540D03*
D16*
X114403100Y-111221520D03*
X115503100Y-111221520D03*
D17*
X111582200Y-105347860D03*
X111582200Y-104247860D03*
X114406680Y-104640200D03*
X114406680Y-105740200D03*
D20*
X167578000Y-113995000D03*
X169578000Y-113995000D03*
D17*
X110453400Y-108413460D03*
X110453400Y-109513460D03*
D16*
X155106220Y-114452600D03*
X154006220Y-114452600D03*
D17*
X109537500Y-106050080D03*
X109537500Y-104950080D03*
D16*
X152667220Y-114477600D03*
X151567220Y-114477600D03*
X149384000Y-111455000D03*
X150484000Y-111455000D03*
X144615260Y-106804860D03*
X145715260Y-106804860D03*
D21*
X148113020Y-113614000D03*
X146014980Y-113614000D03*
D22*
X116102360Y-105524300D03*
X116102360Y-106424300D03*
D23*
X160450000Y-110159400D03*
X160450000Y-108838600D03*
X158418000Y-109499000D03*
D24*
X121819900Y-105118360D03*
X123569900Y-105118360D03*
X123569900Y-103718360D03*
X121819900Y-103718360D03*
D25*
X153013000Y-113055000D03*
X150513000Y-113055000D03*
D22*
X117192020Y-107754420D03*
X117192020Y-108654420D03*
X162711000Y-109006000D03*
X162711000Y-109906000D03*
D26*
X162057000Y-112700000D03*
X162957000Y-112700000D03*
D22*
X165200000Y-113727000D03*
X165200000Y-112827000D03*
X143429260Y-105820860D03*
X143429260Y-106720860D03*
X148131000Y-111462000D03*
X148131000Y-112362000D03*
X119493260Y-104642500D03*
X119493260Y-105542500D03*
X153516000Y-104877000D03*
X153516000Y-103977000D03*
D27*
X120381880Y-109721300D03*
X120381880Y-110221300D03*
X120381880Y-110721300D03*
X120381880Y-111221300D03*
X120381880Y-111721300D03*
D28*
X121346880Y-112686300D03*
X121846880Y-112686300D03*
X122346880Y-112686300D03*
X122846880Y-112686300D03*
X123346880Y-112686300D03*
D27*
X124311880Y-111721300D03*
X124311880Y-111221300D03*
X124311880Y-110721300D03*
X124311880Y-110221300D03*
X124311880Y-109721300D03*
D28*
X123346880Y-108756300D03*
X122846880Y-108756300D03*
X122346880Y-108756300D03*
X121846880Y-108756300D03*
X121346880Y-108756300D03*
D29*
X122971880Y-111346300D03*
X122971880Y-110096300D03*
X121721880Y-111346300D03*
X121721880Y-110096300D03*
D30*
X156170000Y-110157000D03*
X156170000Y-109657000D03*
X156170000Y-109157000D03*
X156170000Y-108657000D03*
X156170000Y-108157000D03*
X156170000Y-107657000D03*
X156170000Y-107157000D03*
X156170000Y-106657000D03*
D31*
X155520000Y-106007000D03*
X155020000Y-106007000D03*
X154520000Y-106007000D03*
X154020000Y-106007000D03*
X153520000Y-106007000D03*
X153020000Y-106007000D03*
X152520000Y-106007000D03*
X152020000Y-106007000D03*
D30*
X151370000Y-106657000D03*
X151370000Y-107157000D03*
X151370000Y-107657000D03*
X151370000Y-108157000D03*
X151370000Y-108657000D03*
X151370000Y-109157000D03*
X151370000Y-109657000D03*
X151370000Y-110157000D03*
D31*
X152020000Y-110807000D03*
X152520000Y-110807000D03*
X153020000Y-110807000D03*
X153520000Y-110807000D03*
X154020000Y-110807000D03*
X154520000Y-110807000D03*
X155020000Y-110807000D03*
X155520000Y-110807000D03*
D32*
X152907500Y-107544500D03*
X152907500Y-109269500D03*
X154632500Y-107544500D03*
X154632500Y-109269500D03*
D33*
X131999000Y-107787000D03*
X138899000Y-107787000D03*
X174999000Y-107771760D03*
X181899000Y-107771760D03*
D14*
X127668020Y-106278360D03*
D15*
X127668020Y-107528360D03*
X127668020Y-108778360D03*
X127668020Y-110028360D03*
D26*
X160442060Y-111653320D03*
X159542060Y-111653320D03*
D34*
X109097560Y-106711560D03*
D25*
X106597560Y-106711560D03*
X99597560Y-106711560D03*
D26*
X116648460Y-111224060D03*
X117548460Y-111224060D03*
D35*
X114378780Y-108371400D03*
X114378780Y-107071400D03*
X112478780Y-107721400D03*
X114378780Y-107721400D03*
X112478780Y-107071400D03*
X112478780Y-108371400D03*
D26*
X116127760Y-104640380D03*
X117027760Y-104640380D03*
D22*
X118208020Y-104632760D03*
X118208020Y-105532760D03*
X119488180Y-107765000D03*
X119488180Y-106865000D03*
D26*
X109544700Y-106705400D03*
X110444700Y-106705400D03*
D18*
X167828000Y-111963000D03*
X169328000Y-111963000D03*
D36*
X127251460Y-112749900D03*
X127251460Y-114249900D03*
D37*
X121277380Y-100457000D03*
X120060720Y-100457000D03*
X118711980Y-100474780D03*
X121445020Y-114782600D03*
X119032020Y-114782600D03*
X116898420Y-114833400D03*
X114889280Y-114858800D03*
X112402620Y-114782600D03*
X111046260Y-114155220D03*
X109616240Y-114556540D03*
X108610400Y-113878360D03*
X109816900Y-113327180D03*
X108158280Y-110665260D03*
X108610400Y-112247680D03*
X109689900Y-111140240D03*
X116095780Y-112295940D03*
X119936260Y-112496600D03*
X118579900Y-108805980D03*
X116723160Y-109761020D03*
X115567460Y-109786420D03*
X116044980Y-108605320D03*
X111975900Y-110261400D03*
X111775240Y-109108240D03*
X109364780Y-109936280D03*
X108249720Y-109174280D03*
X109301280Y-108267500D03*
X108320840Y-107647740D03*
X108130340Y-105143300D03*
X110589060Y-105262680D03*
X108607860Y-103662480D03*
X113070640Y-104449880D03*
X114381280Y-103545640D03*
X113977420Y-102494080D03*
X115194080Y-102803960D03*
X118270020Y-103281480D03*
X118127780Y-101826060D03*
X116933980Y-100990400D03*
X115026440Y-100944680D03*
X113809780Y-101516180D03*
X113022380Y-103233220D03*
X110182660Y-102994460D03*
X108943140Y-102445820D03*
X110898940Y-102090220D03*
X112306100Y-101777800D03*
X111782860Y-100919280D03*
X109849920Y-101183440D03*
X108585000Y-100967540D03*
X115206780Y-106227880D03*
X126573280Y-104533620D03*
X115666520Y-107624880D03*
X110444280Y-104140000D03*
X128998980Y-105671620D03*
X154371859Y-113954947D03*
X131975860Y-110604300D03*
X148569680Y-107055920D03*
X154043380Y-111930380D03*
X149463760Y-113253520D03*
X159004000Y-112471200D03*
X152483820Y-103979980D03*
X118000780Y-112341660D03*
X117983000Y-109684820D03*
X113128781Y-105844441D03*
X110456980Y-112240060D03*
X112138460Y-112222280D03*
X111498380Y-106677460D03*
X111285020Y-111406940D03*
X152219266Y-112826796D03*
X151250096Y-111714787D03*
X147024095Y-106394245D03*
X150497540Y-109801660D03*
X141655800Y-106687620D03*
X149432223Y-109620255D03*
X125907800Y-109453680D03*
X144518380Y-109964220D03*
X145707100Y-111394060D03*
X125867988Y-110403640D03*
X157446980Y-108031980D03*
X158282640Y-107431840D03*
X149894701Y-110327592D03*
X146900900Y-110291880D03*
X143057880Y-109369860D03*
X144600837Y-113923900D03*
X141544220Y-111424720D03*
X162900360Y-111663480D03*
X128816100Y-109278420D03*
X128791557Y-110137789D03*
X159092297Y-110920169D03*
X146692620Y-112138460D03*
X142580360Y-112019080D03*
X155539360Y-112288500D03*
X125072140Y-108783120D03*
X154244040Y-101406960D03*
X125775720Y-106428540D03*
X150506426Y-106003086D03*
X125069780Y-104218740D03*
X147914180Y-108968729D03*
X121114820Y-107627420D03*
D38*
X109544700Y-106705400D02*
X109103720Y-106705400D01*
X109103720Y-106705400D02*
X109097560Y-106711560D01*
X109537500Y-106050080D02*
X109537500Y-106698200D01*
X109537500Y-106698200D02*
X109544700Y-106705400D01*
X110453400Y-108413460D02*
X110453400Y-107732740D01*
X110453400Y-107732740D02*
X110454580Y-107731560D01*
X110444700Y-106705400D02*
X110444700Y-107721680D01*
X110444700Y-107721680D02*
X110454580Y-107731560D01*
X111554580Y-107731560D02*
X112468620Y-107731560D01*
X112468620Y-107731560D02*
X112478780Y-107721400D01*
D13*
X167828000Y-111963000D02*
X167828000Y-113745000D01*
D38*
X167828000Y-113745000D02*
X167578000Y-113995000D01*
X167578000Y-113995000D02*
X167578000Y-113556820D01*
D13*
X127251460Y-112749900D02*
X128972500Y-112749900D01*
D38*
X128972500Y-112749900D02*
X129214880Y-112507520D01*
X127493840Y-112507520D02*
X127251460Y-112749900D01*
D13*
X155106220Y-114452600D02*
X155106220Y-114952600D01*
X155106220Y-114952600D02*
X154853819Y-115205001D01*
X154853819Y-115205001D02*
X154473999Y-115205001D01*
X143185253Y-115205001D02*
X154473999Y-115205001D01*
X138899000Y-110918748D02*
X143185253Y-115205001D01*
X138899000Y-107787000D02*
X138899000Y-110918748D01*
X155106220Y-114452600D02*
X167120400Y-114452600D01*
X167120400Y-114452600D02*
X167578000Y-113995000D01*
D38*
X154520000Y-111407000D02*
X154520000Y-110807000D01*
X154520000Y-111481998D02*
X154520000Y-111407000D01*
X154914340Y-111876338D02*
X154520000Y-111481998D01*
X154914340Y-113532676D02*
X154914340Y-111876338D01*
X155095480Y-114076480D02*
X155095480Y-113713816D01*
X155095480Y-113713816D02*
X154914340Y-113532676D01*
D13*
X128500376Y-106278360D02*
X130009016Y-107787000D01*
X127668020Y-106278360D02*
X128500376Y-106278360D01*
X130009016Y-107787000D02*
X131999000Y-107787000D01*
D38*
X155074000Y-114605000D02*
X155124000Y-114605000D01*
X143429260Y-105820860D02*
X140865140Y-105820860D01*
X140865140Y-105820860D02*
X138899000Y-107787000D01*
D13*
X129214880Y-112507520D02*
X129214880Y-111757520D01*
X129214880Y-111757520D02*
X131999000Y-108973400D01*
D38*
X131999000Y-108973400D02*
X131999000Y-107787000D01*
D13*
X127668020Y-105628360D02*
X126573280Y-104533620D01*
X126573280Y-104533620D02*
X124350440Y-102310780D01*
X127668020Y-106278360D02*
X127668020Y-105628360D01*
X124350440Y-102310780D02*
X124350440Y-101828760D01*
X124350440Y-101828760D02*
X124350440Y-101203760D01*
D38*
X120381880Y-109721300D02*
X120381880Y-105431120D01*
X120381880Y-105431120D02*
X119593260Y-104642500D01*
X119593260Y-104642500D02*
X119493260Y-104642500D01*
D13*
X131999000Y-107787000D02*
X134827427Y-107787000D01*
X134827427Y-107787000D02*
X138899000Y-107787000D01*
D38*
X155124000Y-114105000D02*
X155095480Y-114076480D01*
X154020000Y-110807000D02*
X154520000Y-110807000D01*
X155124000Y-114605000D02*
X155124000Y-114105000D01*
X162711000Y-109906000D02*
X165646000Y-109906000D01*
X165646000Y-109906000D02*
X167578000Y-111838000D01*
X167578000Y-111838000D02*
X167578000Y-111963000D01*
X165200000Y-113727000D02*
X167310000Y-113727000D01*
X167310000Y-113727000D02*
X167578000Y-113995000D01*
D13*
X121558680Y-102330340D02*
X123848860Y-102330340D01*
X123848860Y-102330340D02*
X124350440Y-101828760D01*
X120567680Y-102330340D02*
X121558680Y-102330340D01*
X119475680Y-102330340D02*
X120567680Y-102330340D01*
X119493260Y-104642500D02*
X119493260Y-102347920D01*
D38*
X119493260Y-102347920D02*
X119475680Y-102330340D01*
X124311880Y-111221300D02*
X125700920Y-111221300D01*
X125700920Y-111221300D02*
X125709680Y-111212540D01*
X129207260Y-112499900D02*
X129214880Y-112507520D01*
X127251460Y-112499900D02*
X127251460Y-111749900D01*
X127251460Y-111749900D02*
X126714100Y-111212540D01*
X126714100Y-111212540D02*
X126209680Y-111212540D01*
X126209680Y-111212540D02*
X125709680Y-111212540D01*
D13*
X169328000Y-111963000D02*
X169328000Y-113745000D01*
D38*
X169328000Y-113745000D02*
X169578000Y-113995000D01*
D13*
X127251460Y-114249900D02*
X128957260Y-114249900D01*
D38*
X128957260Y-114249900D02*
X129214880Y-114507520D01*
X152483820Y-103979980D02*
X150441660Y-103979980D01*
X150441660Y-103979980D02*
X148569680Y-105851960D01*
X128998980Y-105671620D02*
X129667000Y-105671620D01*
X148569680Y-105851960D02*
X148569680Y-107055920D01*
X129667000Y-105671620D02*
X130042761Y-105295859D01*
X130042761Y-105295859D02*
X148013579Y-105295859D01*
X148013579Y-105295859D02*
X148569680Y-105851960D01*
X127000000Y-102631240D02*
X127000000Y-103672640D01*
X127000000Y-103672640D02*
X128998980Y-105671620D01*
D13*
X122850440Y-101203760D02*
X122850440Y-100578760D01*
X122850440Y-100578760D02*
X123231280Y-100197920D01*
X123231280Y-100197920D02*
X125216680Y-100197920D01*
X125216680Y-100197920D02*
X127000000Y-101981240D01*
X127000000Y-101981240D02*
X127000000Y-102631240D01*
D38*
X154043380Y-111930380D02*
X153520000Y-111407000D01*
X153520000Y-111407000D02*
X153520000Y-110807000D01*
X154371859Y-113954947D02*
X154371859Y-112258859D01*
X154371859Y-112258859D02*
X154043380Y-111930380D01*
X154006220Y-114320586D02*
X154371859Y-113954947D01*
X154006220Y-114452600D02*
X154006220Y-114320586D01*
X152667220Y-114477600D02*
X153981220Y-114477600D01*
X153981220Y-114477600D02*
X154006220Y-114452600D01*
X129214880Y-114507520D02*
X129339880Y-114507520D01*
D13*
X129339880Y-114507520D02*
X131975860Y-111871540D01*
X131975860Y-111871540D02*
X131975860Y-110604300D01*
D38*
X148569680Y-107055920D02*
X145966320Y-107055920D01*
X145966320Y-107055920D02*
X145715260Y-106804860D01*
X149384000Y-111455000D02*
X149384000Y-113173760D01*
X149384000Y-113173760D02*
X149463760Y-113253520D01*
X153020000Y-110807000D02*
X153520000Y-110807000D01*
X159542060Y-111653320D02*
X159542060Y-111933140D01*
X159542060Y-111933140D02*
X159004000Y-112471200D01*
X154024000Y-114605000D02*
X154024000Y-114447998D01*
X153516000Y-103977000D02*
X152486800Y-103977000D01*
X152486800Y-103977000D02*
X152483820Y-103979980D01*
X124659640Y-114834360D02*
X125730000Y-114834360D01*
X125730000Y-114834360D02*
X126917000Y-114834360D01*
X125730000Y-112882860D02*
X125730000Y-114834360D01*
X125709680Y-112312540D02*
X125709680Y-112862540D01*
X125709680Y-112862540D02*
X125730000Y-112882860D01*
X129207260Y-114499900D02*
X129214880Y-114507520D01*
X126917000Y-114834360D02*
X127251460Y-114499900D01*
X123338640Y-114834360D02*
X124659640Y-114834360D01*
X122850440Y-101203760D02*
X122875440Y-101203760D01*
D13*
X117042160Y-102244980D02*
X113535080Y-102244980D01*
D38*
X113535080Y-102244980D02*
X111582200Y-104197860D01*
X111582200Y-104197860D02*
X111582200Y-104247860D01*
X118000780Y-112341660D02*
X118691980Y-112341660D01*
X118691980Y-112341660D02*
X118708400Y-112325240D01*
X117192020Y-108654420D02*
X117192020Y-108893840D01*
X117192020Y-108893840D02*
X117983000Y-109684820D01*
X110456980Y-112240060D02*
X110456980Y-109517040D01*
X110456980Y-109517040D02*
X110453400Y-109513460D01*
X113062500Y-112325240D02*
X112241420Y-112325240D01*
X112241420Y-112325240D02*
X112138460Y-112222280D01*
X111582200Y-104297860D02*
X111582200Y-104247860D01*
X114378780Y-107721400D02*
X113803780Y-107721400D01*
X113803780Y-107721400D02*
X113128781Y-107046401D01*
X113128781Y-107046401D02*
X113128781Y-105844441D01*
X113128781Y-105844441D02*
X111582200Y-104297860D01*
X111582200Y-104247860D02*
X110239720Y-104247860D01*
X110239720Y-104247860D02*
X109537500Y-104950080D01*
D13*
X119475680Y-101230340D02*
X118006800Y-101230340D01*
X118006800Y-101230340D02*
X117042160Y-102194980D01*
D38*
X117042160Y-102194980D02*
X117042160Y-102244980D01*
D13*
X120567680Y-101230340D02*
X119475680Y-101230340D01*
X121558680Y-101230340D02*
X120567680Y-101230340D01*
X122850440Y-101203760D02*
X121585260Y-101203760D01*
D38*
X121585260Y-101203760D02*
X121558680Y-101230340D01*
X117192020Y-108654420D02*
X116642020Y-108654420D01*
X116642020Y-108654420D02*
X115709000Y-107721400D01*
X115709000Y-107721400D02*
X114953780Y-107721400D01*
X114953780Y-107721400D02*
X114378780Y-107721400D01*
D13*
X174999000Y-107771760D02*
X170807760Y-111963000D01*
X170807760Y-111963000D02*
X169578000Y-111963000D01*
X174999000Y-107771760D02*
X177827427Y-107771760D01*
X177827427Y-107771760D02*
X181899000Y-107771760D01*
D38*
X148131000Y-111462000D02*
X149377000Y-111462000D01*
X149377000Y-111462000D02*
X149384000Y-111455000D01*
X153999000Y-114630000D02*
X154024000Y-114605000D01*
X113062500Y-111275240D02*
X113062500Y-111225240D01*
X121756882Y-113376301D02*
X115163561Y-113376301D01*
X121846880Y-113286303D02*
X121756882Y-113376301D01*
X115163561Y-113376301D02*
X113062500Y-111275240D01*
X121846880Y-112686300D02*
X121846880Y-113286303D01*
X113062500Y-111225240D02*
X113062500Y-108830120D01*
X113062500Y-108830120D02*
X112603780Y-108371400D01*
X112603780Y-108371400D02*
X112478780Y-108371400D01*
X123338640Y-113734360D02*
X124659640Y-113734360D01*
X123338640Y-113734360D02*
X123338640Y-112694540D01*
X123338640Y-112694540D02*
X123346880Y-112686300D01*
D11*
X117548460Y-111224060D02*
X118707220Y-111224060D01*
D38*
X118707220Y-111224060D02*
X118708400Y-111225240D01*
D11*
X118708400Y-111225240D02*
X120377940Y-111225240D01*
D38*
X120377940Y-111225240D02*
X120381880Y-111221300D01*
X118208020Y-105532760D02*
X118208020Y-106663400D01*
X118208020Y-106663400D02*
X118210560Y-106665940D01*
X117192020Y-105530560D02*
X118205820Y-105530560D01*
X118205820Y-105530560D02*
X118208020Y-105532760D01*
X116102360Y-105524300D02*
X117185760Y-105524300D01*
X117185760Y-105524300D02*
X117192020Y-105530560D01*
X118210560Y-107765940D02*
X119487240Y-107765940D01*
X119487240Y-107765940D02*
X119488180Y-107765000D01*
X120381880Y-110221300D02*
X119766880Y-110221300D01*
X119766880Y-110221300D02*
X119488180Y-109942600D01*
X119488180Y-109942600D02*
X119488180Y-108215000D01*
X119488180Y-108215000D02*
X119488180Y-107765000D01*
X117027760Y-104640380D02*
X118200400Y-104640380D01*
X118200400Y-104640380D02*
X118208020Y-104632760D01*
X117042160Y-103344980D02*
X117042160Y-104625980D01*
X117042160Y-104625980D02*
X117027760Y-104640380D01*
X116102360Y-106424300D02*
X116985760Y-106424300D01*
X116985760Y-106424300D02*
X117192020Y-106630560D01*
X117192020Y-107754420D02*
X117192020Y-106630560D01*
D11*
X114378780Y-108371400D02*
X114378780Y-111197200D01*
D38*
X114378780Y-111197200D02*
X114403100Y-111221520D01*
D11*
X120381880Y-110721300D02*
X119339462Y-110721300D01*
X119217221Y-110599059D02*
X117173461Y-110599059D01*
X119339462Y-110721300D02*
X119217221Y-110599059D01*
X117173461Y-110599059D02*
X116648460Y-111124060D01*
D38*
X116648460Y-111124060D02*
X116648460Y-111224060D01*
D11*
X115503100Y-111221520D02*
X116645920Y-111221520D01*
D38*
X116645920Y-111221520D02*
X116648460Y-111224060D01*
X111498380Y-106677460D02*
X112084840Y-106677460D01*
X112084840Y-106677460D02*
X112478780Y-107071400D01*
X111582200Y-105347860D02*
X111582200Y-106593640D01*
X111582200Y-106593640D02*
X111498380Y-106677460D01*
X112763300Y-114010440D02*
X111285020Y-112532160D01*
X111285020Y-112532160D02*
X111285020Y-111406940D01*
X121759153Y-114010440D02*
X112763300Y-114010440D01*
X122346880Y-113422713D02*
X121759153Y-114010440D01*
X122346880Y-112686300D02*
X122346880Y-113422713D01*
X116127760Y-104640380D02*
X114406860Y-104640380D01*
X114406860Y-104640380D02*
X114406680Y-104640200D01*
X114406680Y-105740200D02*
X114406680Y-107043500D01*
X114406680Y-107043500D02*
X114378780Y-107071400D01*
X114378780Y-105768100D02*
X114406680Y-105740200D01*
X151103677Y-113055000D02*
X150513000Y-113055000D01*
X152020000Y-112138677D02*
X151103677Y-113055000D01*
X152020000Y-110807000D02*
X152020000Y-112138677D01*
X151585000Y-114630000D02*
X151585000Y-114127000D01*
X151585000Y-114127000D02*
X150513000Y-113055000D01*
X152263000Y-113055000D02*
X152219266Y-113011266D01*
X152219266Y-113011266D02*
X152219266Y-112826796D01*
X153013000Y-113055000D02*
X152263000Y-113055000D01*
X150484000Y-111455000D02*
X150990309Y-111455000D01*
X150990309Y-111455000D02*
X151250096Y-111714787D01*
X152520000Y-110807000D02*
X152520000Y-112562000D01*
X152520000Y-112562000D02*
X153013000Y-113055000D01*
X144615260Y-106804860D02*
X144665260Y-106804860D01*
X146724096Y-106094246D02*
X147024095Y-106394245D01*
X145375874Y-106094246D02*
X146724096Y-106094246D01*
X144665260Y-106804860D02*
X145375874Y-106094246D01*
X150497540Y-109801660D02*
X150642200Y-109657000D01*
X150642200Y-109657000D02*
X151370000Y-109657000D01*
X141655800Y-106687620D02*
X143396020Y-106687620D01*
X143396020Y-106687620D02*
X143429260Y-106720860D01*
X143429260Y-106720860D02*
X144531260Y-106720860D01*
X144531260Y-106720860D02*
X144615260Y-106804860D01*
X149895478Y-109157000D02*
X149732222Y-109320256D01*
X151370000Y-109157000D02*
X149895478Y-109157000D01*
X149732222Y-109320256D02*
X149432223Y-109620255D01*
X124311880Y-110221300D02*
X124929507Y-110221300D01*
X124929507Y-110221300D02*
X125697127Y-109453680D01*
X125697127Y-109453680D02*
X125907800Y-109453680D01*
X144518380Y-109964220D02*
X144518380Y-110205340D01*
X144518380Y-110205340D02*
X145707100Y-111394060D01*
X151370000Y-108657000D02*
X149511582Y-108657000D01*
X146131364Y-111394060D02*
X145707100Y-111394060D01*
X149511582Y-108657000D02*
X146774522Y-111394060D01*
X146774522Y-111394060D02*
X146131364Y-111394060D01*
X125443724Y-110403640D02*
X125867988Y-110403640D01*
X124311880Y-110721300D02*
X125065918Y-110721300D01*
X125065918Y-110721300D02*
X125383578Y-110403640D01*
X125383578Y-110403640D02*
X125443724Y-110403640D01*
X157321960Y-108157000D02*
X157446980Y-108031980D01*
X156170000Y-108157000D02*
X157321960Y-108157000D01*
X158310580Y-108323380D02*
X157976960Y-108657000D01*
X157976960Y-108657000D02*
X156170000Y-108657000D01*
X158310580Y-107884044D02*
X158310580Y-108323380D01*
X158282640Y-107431840D02*
X158282640Y-107856104D01*
X158282640Y-107856104D02*
X158310580Y-107884044D01*
X150674409Y-110627591D02*
X150194700Y-110627591D01*
X150194700Y-110627591D02*
X149894701Y-110327592D01*
X151145000Y-110157000D02*
X150674409Y-110627591D01*
X151370000Y-110157000D02*
X151145000Y-110157000D01*
X145859221Y-109069861D02*
X146900900Y-110111540D01*
X146900900Y-110111540D02*
X146900900Y-110291880D01*
X143057880Y-109369860D02*
X143357879Y-109069861D01*
X143357879Y-109069861D02*
X145859221Y-109069861D01*
X148113020Y-113614000D02*
X148113020Y-112379980D01*
X148113020Y-112379980D02*
X148131000Y-112362000D01*
X143342360Y-114548920D02*
X140919200Y-112125760D01*
X140919200Y-112125760D02*
X140919200Y-110088680D01*
X145929500Y-114548920D02*
X143342360Y-114548920D01*
X146014980Y-113614000D02*
X146014980Y-114463440D01*
X146014980Y-114463440D02*
X145929500Y-114548920D01*
X150746079Y-107680921D02*
X150770000Y-107657000D01*
X150770000Y-107657000D02*
X151370000Y-107657000D01*
X143326959Y-107680921D02*
X150746079Y-107680921D01*
X140919200Y-110088680D02*
X143326959Y-107680921D01*
X119493260Y-105542500D02*
X119493260Y-106859920D01*
X119493260Y-106859920D02*
X119488180Y-106865000D01*
X144176573Y-113923900D02*
X144600837Y-113923900D01*
X143584890Y-113923900D02*
X144176573Y-113923900D01*
X141544220Y-111883230D02*
X143584890Y-113923900D01*
X141544220Y-111424720D02*
X141544220Y-111883230D01*
X162900360Y-111663480D02*
X162900360Y-112643360D01*
X162900360Y-112643360D02*
X162957000Y-112700000D01*
X128316040Y-108778360D02*
X128816100Y-109278420D01*
X127668020Y-108778360D02*
X128316040Y-108778360D01*
X165200000Y-112827000D02*
X163084000Y-112827000D01*
X163084000Y-112827000D02*
X162957000Y-112700000D01*
X127668020Y-110028360D02*
X128682128Y-110028360D01*
X128682128Y-110028360D02*
X128791557Y-110137789D01*
X160450000Y-110159400D02*
X160450000Y-110858300D01*
X160450000Y-110858300D02*
X160450000Y-111645380D01*
X159092297Y-110920169D02*
X159516561Y-110920169D01*
X159516561Y-110920169D02*
X159578430Y-110858300D01*
X159578430Y-110858300D02*
X160450000Y-110858300D01*
X146573240Y-112019080D02*
X146692620Y-112138460D01*
X142580360Y-112019080D02*
X146573240Y-112019080D01*
X160450000Y-111645380D02*
X160442060Y-111653320D01*
X162711000Y-109006000D02*
X160617400Y-109006000D01*
X160617400Y-109006000D02*
X160450000Y-108838600D01*
X158418000Y-109499000D02*
X158260000Y-109657000D01*
X158260000Y-109657000D02*
X156170000Y-109657000D01*
X121819900Y-105118360D02*
X121819900Y-105868360D01*
X121819900Y-105868360D02*
X121846880Y-105895340D01*
X121846880Y-105895340D02*
X121846880Y-108141300D01*
X121846880Y-108141300D02*
X121846880Y-108756300D01*
X123569900Y-105118360D02*
X123569900Y-105868360D01*
X123569900Y-105868360D02*
X122346880Y-107091380D01*
X122346880Y-107091380D02*
X122346880Y-108141300D01*
X122346880Y-108141300D02*
X122346880Y-108756300D01*
X158888000Y-113250000D02*
X156170000Y-110532000D01*
X156170000Y-110532000D02*
X156170000Y-110157000D01*
X161057000Y-113250000D02*
X158888000Y-113250000D01*
X161607000Y-112700000D02*
X161057000Y-113250000D01*
X162057000Y-112700000D02*
X161607000Y-112700000D01*
X153516000Y-104877000D02*
X153516000Y-106003000D01*
X153516000Y-106003000D02*
X153520000Y-106007000D01*
X155539360Y-111864236D02*
X155539360Y-112288500D01*
X155020000Y-110807000D02*
X155020000Y-111344876D01*
X155020000Y-111344876D02*
X155539360Y-111864236D01*
X124311880Y-109721300D02*
X124311880Y-109543380D01*
X124311880Y-109543380D02*
X125072140Y-108783120D01*
X154244040Y-101406960D02*
X156845001Y-104007921D01*
X156845001Y-104007921D02*
X156845001Y-107581999D01*
X156845001Y-107581999D02*
X156770000Y-107657000D01*
X156770000Y-107657000D02*
X156170000Y-107657000D01*
X123346880Y-108756300D02*
X123346880Y-108541300D01*
X123346880Y-108541300D02*
X125459640Y-106428540D01*
X125459640Y-106428540D02*
X125775720Y-106428540D01*
X151145000Y-106657000D02*
X150506426Y-106018426D01*
X151370000Y-106657000D02*
X151145000Y-106657000D01*
X150506426Y-106018426D02*
X150506426Y-106003086D01*
X125069780Y-104643004D02*
X125069780Y-104218740D01*
X122846880Y-108141300D02*
X125069780Y-105918400D01*
X122846880Y-108756300D02*
X122846880Y-108141300D01*
X125069780Y-105918400D02*
X125069780Y-104643004D01*
X148214179Y-108668730D02*
X147914180Y-108968729D01*
X151370000Y-108157000D02*
X148725909Y-108157000D01*
X148725909Y-108157000D02*
X148214179Y-108668730D01*
X121346880Y-108756300D02*
X121346880Y-107859480D01*
X121346880Y-107859480D02*
X121114820Y-107627420D01*
X128250000Y-102631240D02*
X153255242Y-102631240D01*
X153255242Y-102631240D02*
X155020000Y-104395998D01*
X155020000Y-104395998D02*
X155020000Y-105407000D01*
X155020000Y-105407000D02*
X155020000Y-106007000D01*
D39*
G36*
X108723388Y-107255577D02*
X108847560Y-107280722D01*
X109193167Y-107280722D01*
X109220528Y-107299417D01*
X109344700Y-107324562D01*
X109744700Y-107324562D01*
X109860702Y-107302735D01*
X109927100Y-107260009D01*
X109860563Y-107357388D01*
X109835418Y-107481560D01*
X109835418Y-107981560D01*
X109857245Y-108097562D01*
X109884238Y-108139510D01*
X109884238Y-108713460D01*
X109906065Y-108829462D01*
X109974622Y-108936002D01*
X110079228Y-109007477D01*
X110203400Y-109032622D01*
X110703400Y-109032622D01*
X110819402Y-109010795D01*
X110925942Y-108942238D01*
X110997417Y-108837632D01*
X111022562Y-108713460D01*
X111022562Y-108199067D01*
X111025802Y-108204102D01*
X111130408Y-108275577D01*
X111254580Y-108300722D01*
X111834618Y-108300722D01*
X111834618Y-108571400D01*
X111856445Y-108687402D01*
X111925002Y-108793942D01*
X112029608Y-108865417D01*
X112153780Y-108890562D01*
X112503474Y-108890562D01*
X112624470Y-109011558D01*
X112624470Y-110674254D01*
X112589958Y-110696462D01*
X112518483Y-110801068D01*
X112493338Y-110925240D01*
X112493338Y-111525240D01*
X112515165Y-111641242D01*
X112583722Y-111747782D01*
X112688328Y-111819257D01*
X112812500Y-111844402D01*
X113012194Y-111844402D01*
X114740202Y-113572410D01*
X112944738Y-113572410D01*
X111723050Y-112350722D01*
X111723050Y-111835874D01*
X111804419Y-111754647D01*
X111897943Y-111529414D01*
X111898156Y-111285536D01*
X111805025Y-111060140D01*
X111632727Y-110887541D01*
X111407494Y-110794017D01*
X111163616Y-110793804D01*
X110938220Y-110886935D01*
X110765621Y-111059233D01*
X110672097Y-111284466D01*
X110671884Y-111528344D01*
X110765015Y-111753740D01*
X110846990Y-111835858D01*
X110846990Y-112532160D01*
X110880333Y-112699787D01*
X110975286Y-112841894D01*
X112453566Y-114320174D01*
X112595673Y-114415127D01*
X112763300Y-114448470D01*
X121759153Y-114448470D01*
X121926780Y-114415127D01*
X122068887Y-114320174D01*
X122656614Y-113732447D01*
X122751567Y-113590340D01*
X122769478Y-113500295D01*
X122769478Y-114034360D01*
X122791305Y-114150362D01*
X122859862Y-114256902D01*
X122964468Y-114328377D01*
X123088640Y-114353522D01*
X123418020Y-114353522D01*
X123424376Y-115079970D01*
X107828284Y-115079970D01*
X107808980Y-107224590D01*
X108678038Y-107224590D01*
X108723388Y-107255577D01*
X108723388Y-107255577D01*
G37*
X108723388Y-107255577D02*
X108847560Y-107280722D01*
X109193167Y-107280722D01*
X109220528Y-107299417D01*
X109344700Y-107324562D01*
X109744700Y-107324562D01*
X109860702Y-107302735D01*
X109927100Y-107260009D01*
X109860563Y-107357388D01*
X109835418Y-107481560D01*
X109835418Y-107981560D01*
X109857245Y-108097562D01*
X109884238Y-108139510D01*
X109884238Y-108713460D01*
X109906065Y-108829462D01*
X109974622Y-108936002D01*
X110079228Y-109007477D01*
X110203400Y-109032622D01*
X110703400Y-109032622D01*
X110819402Y-109010795D01*
X110925942Y-108942238D01*
X110997417Y-108837632D01*
X111022562Y-108713460D01*
X111022562Y-108199067D01*
X111025802Y-108204102D01*
X111130408Y-108275577D01*
X111254580Y-108300722D01*
X111834618Y-108300722D01*
X111834618Y-108571400D01*
X111856445Y-108687402D01*
X111925002Y-108793942D01*
X112029608Y-108865417D01*
X112153780Y-108890562D01*
X112503474Y-108890562D01*
X112624470Y-109011558D01*
X112624470Y-110674254D01*
X112589958Y-110696462D01*
X112518483Y-110801068D01*
X112493338Y-110925240D01*
X112493338Y-111525240D01*
X112515165Y-111641242D01*
X112583722Y-111747782D01*
X112688328Y-111819257D01*
X112812500Y-111844402D01*
X113012194Y-111844402D01*
X114740202Y-113572410D01*
X112944738Y-113572410D01*
X111723050Y-112350722D01*
X111723050Y-111835874D01*
X111804419Y-111754647D01*
X111897943Y-111529414D01*
X111898156Y-111285536D01*
X111805025Y-111060140D01*
X111632727Y-110887541D01*
X111407494Y-110794017D01*
X111163616Y-110793804D01*
X110938220Y-110886935D01*
X110765621Y-111059233D01*
X110672097Y-111284466D01*
X110671884Y-111528344D01*
X110765015Y-111753740D01*
X110846990Y-111835858D01*
X110846990Y-112532160D01*
X110880333Y-112699787D01*
X110975286Y-112841894D01*
X112453566Y-114320174D01*
X112595673Y-114415127D01*
X112763300Y-114448470D01*
X121759153Y-114448470D01*
X121926780Y-114415127D01*
X122068887Y-114320174D01*
X122656614Y-113732447D01*
X122751567Y-113590340D01*
X122769478Y-113500295D01*
X122769478Y-114034360D01*
X122791305Y-114150362D01*
X122859862Y-114256902D01*
X122964468Y-114328377D01*
X123088640Y-114353522D01*
X123418020Y-114353522D01*
X123424376Y-115079970D01*
X107828284Y-115079970D01*
X107808980Y-107224590D01*
X108678038Y-107224590D01*
X108723388Y-107255577D01*
G36*
X114974322Y-111694062D02*
X115078928Y-111765537D01*
X115203100Y-111790682D01*
X115803100Y-111790682D01*
X115835689Y-111784550D01*
X116275220Y-111784550D01*
X116324288Y-111818077D01*
X116448460Y-111843222D01*
X116848460Y-111843222D01*
X116964462Y-111821395D01*
X117071002Y-111752838D01*
X117098139Y-111713123D01*
X117119682Y-111746602D01*
X117224288Y-111818077D01*
X117348460Y-111843222D01*
X117748460Y-111843222D01*
X117864462Y-111821395D01*
X117971002Y-111752838D01*
X118033008Y-111662090D01*
X118174480Y-111662090D01*
X118229622Y-111747782D01*
X118334228Y-111819257D01*
X118458400Y-111844402D01*
X118958400Y-111844402D01*
X119074402Y-111822575D01*
X119180942Y-111754018D01*
X119225866Y-111688270D01*
X119697718Y-111688270D01*
X119697718Y-111871300D01*
X119719545Y-111987302D01*
X119788102Y-112093842D01*
X119892708Y-112165317D01*
X120016880Y-112190462D01*
X120746880Y-112190462D01*
X120853070Y-112170481D01*
X120868102Y-112193842D01*
X120899222Y-112215106D01*
X120877718Y-112321300D01*
X120877718Y-112938271D01*
X115344999Y-112938271D01*
X114197410Y-111790682D01*
X114703100Y-111790682D01*
X114819102Y-111768855D01*
X114925642Y-111700298D01*
X114952779Y-111660583D01*
X114974322Y-111694062D01*
X114974322Y-111694062D01*
G37*
X114974322Y-111694062D02*
X115078928Y-111765537D01*
X115203100Y-111790682D01*
X115803100Y-111790682D01*
X115835689Y-111784550D01*
X116275220Y-111784550D01*
X116324288Y-111818077D01*
X116448460Y-111843222D01*
X116848460Y-111843222D01*
X116964462Y-111821395D01*
X117071002Y-111752838D01*
X117098139Y-111713123D01*
X117119682Y-111746602D01*
X117224288Y-111818077D01*
X117348460Y-111843222D01*
X117748460Y-111843222D01*
X117864462Y-111821395D01*
X117971002Y-111752838D01*
X118033008Y-111662090D01*
X118174480Y-111662090D01*
X118229622Y-111747782D01*
X118334228Y-111819257D01*
X118458400Y-111844402D01*
X118958400Y-111844402D01*
X119074402Y-111822575D01*
X119180942Y-111754018D01*
X119225866Y-111688270D01*
X119697718Y-111688270D01*
X119697718Y-111871300D01*
X119719545Y-111987302D01*
X119788102Y-112093842D01*
X119892708Y-112165317D01*
X120016880Y-112190462D01*
X120746880Y-112190462D01*
X120853070Y-112170481D01*
X120868102Y-112193842D01*
X120899222Y-112215106D01*
X120877718Y-112321300D01*
X120877718Y-112938271D01*
X115344999Y-112938271D01*
X114197410Y-111790682D01*
X114703100Y-111790682D01*
X114819102Y-111768855D01*
X114925642Y-111700298D01*
X114952779Y-111660583D01*
X114974322Y-111694062D01*
G36*
X123307907Y-101767310D02*
X121978202Y-101767310D01*
X121932852Y-101736323D01*
X121808680Y-101711178D01*
X121308680Y-101711178D01*
X121192678Y-101733005D01*
X121139367Y-101767310D01*
X120987202Y-101767310D01*
X120941852Y-101736323D01*
X120817680Y-101711178D01*
X120317680Y-101711178D01*
X120201678Y-101733005D01*
X120148367Y-101767310D01*
X119895202Y-101767310D01*
X119849852Y-101736323D01*
X119725680Y-101711178D01*
X119225680Y-101711178D01*
X119109678Y-101733005D01*
X119003138Y-101801562D01*
X118931663Y-101906168D01*
X118906518Y-102030340D01*
X118906518Y-102630340D01*
X118928345Y-102746342D01*
X118930230Y-102749271D01*
X118930230Y-104272978D01*
X118899243Y-104318328D01*
X118874098Y-104442500D01*
X118874098Y-104842500D01*
X118895925Y-104958502D01*
X118964482Y-105065042D01*
X119004197Y-105092179D01*
X118970718Y-105113722D01*
X118899243Y-105218328D01*
X118874098Y-105342500D01*
X118874098Y-105742500D01*
X118895925Y-105858502D01*
X118964482Y-105965042D01*
X119055230Y-106027048D01*
X119055230Y-106378571D01*
X118965638Y-106436222D01*
X118894163Y-106540828D01*
X118869018Y-106665000D01*
X118869018Y-107065000D01*
X118890845Y-107181002D01*
X118959402Y-107287542D01*
X118999117Y-107314679D01*
X118978555Y-107327910D01*
X118743720Y-107327910D01*
X118689338Y-107243398D01*
X118649623Y-107216261D01*
X118683102Y-107194718D01*
X118754577Y-107090112D01*
X118779722Y-106965940D01*
X118779722Y-106365940D01*
X118757895Y-106249938D01*
X118689338Y-106143398D01*
X118646050Y-106113820D01*
X118646050Y-106015920D01*
X118730562Y-105961538D01*
X118802037Y-105856932D01*
X118827182Y-105732760D01*
X118827182Y-105332760D01*
X118805355Y-105216758D01*
X118736798Y-105110218D01*
X118697083Y-105083081D01*
X118730562Y-105061538D01*
X118802037Y-104956932D01*
X118827182Y-104832760D01*
X118827182Y-104432760D01*
X118805355Y-104316758D01*
X118736798Y-104210218D01*
X118632192Y-104138743D01*
X118508020Y-104113598D01*
X117908020Y-104113598D01*
X117792018Y-104135425D01*
X117688014Y-104202350D01*
X117510920Y-104202350D01*
X117480190Y-104154594D01*
X117480190Y-103895966D01*
X117514702Y-103873758D01*
X117586177Y-103769152D01*
X117611322Y-103644980D01*
X117611322Y-103044980D01*
X117589495Y-102928978D01*
X117520938Y-102822438D01*
X117416332Y-102750963D01*
X117292160Y-102725818D01*
X116792160Y-102725818D01*
X116676158Y-102747645D01*
X116569618Y-102816202D01*
X116498143Y-102920808D01*
X116472998Y-103044980D01*
X116472998Y-103644980D01*
X116494825Y-103760982D01*
X116563382Y-103867522D01*
X116604130Y-103895364D01*
X116604130Y-104113194D01*
X116578081Y-104151317D01*
X116556538Y-104117838D01*
X116451932Y-104046363D01*
X116327760Y-104021218D01*
X115927760Y-104021218D01*
X115811758Y-104043045D01*
X115705218Y-104111602D01*
X115643212Y-104202350D01*
X114939956Y-104202350D01*
X114885458Y-104117658D01*
X114780852Y-104046183D01*
X114656680Y-104021038D01*
X114156680Y-104021038D01*
X114040678Y-104042865D01*
X113934138Y-104111422D01*
X113862663Y-104216028D01*
X113837518Y-104340200D01*
X113837518Y-104940200D01*
X113859345Y-105056202D01*
X113927902Y-105162742D01*
X113967617Y-105189879D01*
X113934138Y-105211422D01*
X113862663Y-105316028D01*
X113837518Y-105440200D01*
X113837518Y-106040200D01*
X113859345Y-106156202D01*
X113927902Y-106262742D01*
X113968650Y-106290584D01*
X113968650Y-106568256D01*
X113937778Y-106574065D01*
X113831238Y-106642622D01*
X113759763Y-106747228D01*
X113734618Y-106871400D01*
X113734618Y-107271400D01*
X113756445Y-107387402D01*
X113825002Y-107493942D01*
X113929608Y-107565417D01*
X114053780Y-107590562D01*
X114703780Y-107590562D01*
X114819782Y-107568735D01*
X114926322Y-107500178D01*
X114997797Y-107395572D01*
X115022942Y-107271400D01*
X115022942Y-106871400D01*
X115001115Y-106755398D01*
X114932558Y-106648858D01*
X114844710Y-106588833D01*
X114844710Y-106291186D01*
X114879222Y-106268978D01*
X114950697Y-106164372D01*
X114975842Y-106040200D01*
X114975842Y-105440200D01*
X114954015Y-105324198D01*
X114885458Y-105217658D01*
X114845743Y-105190521D01*
X114879222Y-105168978D01*
X114941105Y-105078410D01*
X115606411Y-105078410D01*
X115579818Y-105095522D01*
X115508343Y-105200128D01*
X115483198Y-105324300D01*
X115483198Y-105724300D01*
X115505025Y-105840302D01*
X115573582Y-105946842D01*
X115613297Y-105973979D01*
X115579818Y-105995522D01*
X115508343Y-106100128D01*
X115483198Y-106224300D01*
X115483198Y-106624300D01*
X115505025Y-106740302D01*
X115573582Y-106846842D01*
X115678188Y-106918317D01*
X115802360Y-106943462D01*
X116402360Y-106943462D01*
X116518362Y-106921635D01*
X116610524Y-106862330D01*
X116622858Y-106862330D01*
X116622858Y-106930560D01*
X116644685Y-107046562D01*
X116713242Y-107153102D01*
X116753990Y-107180944D01*
X116753990Y-107271260D01*
X116669478Y-107325642D01*
X116598003Y-107430248D01*
X116572858Y-107554420D01*
X116572858Y-107954420D01*
X116594685Y-108070422D01*
X116663242Y-108176962D01*
X116767848Y-108248437D01*
X116892020Y-108273582D01*
X117492020Y-108273582D01*
X117608022Y-108251755D01*
X117678829Y-108206192D01*
X117731782Y-108288482D01*
X117836388Y-108359957D01*
X117960560Y-108385102D01*
X118460560Y-108385102D01*
X118576562Y-108363275D01*
X118683102Y-108294718D01*
X118745108Y-108203970D01*
X118983445Y-108203970D01*
X119050150Y-108249548D01*
X119050150Y-109942600D01*
X119068734Y-110036029D01*
X117173461Y-110036029D01*
X116957999Y-110078887D01*
X116775339Y-110200936D01*
X116353512Y-110622763D01*
X116332458Y-110626725D01*
X116283094Y-110658490D01*
X115833381Y-110658490D01*
X115803100Y-110652358D01*
X115203100Y-110652358D01*
X115087098Y-110674185D01*
X114980558Y-110742742D01*
X114953421Y-110782457D01*
X114941810Y-110764413D01*
X114941810Y-108777511D01*
X114997797Y-108695572D01*
X115022942Y-108571400D01*
X115022942Y-108171400D01*
X115001115Y-108055398D01*
X114932558Y-107948858D01*
X114827952Y-107877383D01*
X114703780Y-107852238D01*
X114595754Y-107852238D01*
X114594242Y-107851228D01*
X114378780Y-107808370D01*
X114163318Y-107851228D01*
X114161806Y-107852238D01*
X114053780Y-107852238D01*
X113937778Y-107874065D01*
X113831238Y-107942622D01*
X113759763Y-108047228D01*
X113734618Y-108171400D01*
X113734618Y-108571400D01*
X113756445Y-108687402D01*
X113815750Y-108779564D01*
X113815750Y-110837591D01*
X113809083Y-110847348D01*
X113783938Y-110971520D01*
X113783938Y-111377210D01*
X113631662Y-111224934D01*
X113631662Y-110925240D01*
X113609835Y-110809238D01*
X113541278Y-110702698D01*
X113500530Y-110674856D01*
X113500530Y-108830120D01*
X113467187Y-108662493D01*
X113372234Y-108520386D01*
X113122942Y-108271094D01*
X113122942Y-108171400D01*
X113101115Y-108055398D01*
X113096249Y-108047837D01*
X113097797Y-108045572D01*
X113122942Y-107921400D01*
X113122942Y-107521400D01*
X113101115Y-107405398D01*
X113096249Y-107397837D01*
X113097797Y-107395572D01*
X113122942Y-107271400D01*
X113122942Y-106871400D01*
X113101115Y-106755398D01*
X113032558Y-106648858D01*
X112927952Y-106577383D01*
X112803780Y-106552238D01*
X112579086Y-106552238D01*
X112394574Y-106367726D01*
X112252467Y-106272773D01*
X112084840Y-106239430D01*
X112020230Y-106239430D01*
X112020230Y-105898846D01*
X112054742Y-105876638D01*
X112126217Y-105772032D01*
X112151362Y-105647860D01*
X112151362Y-105047860D01*
X112129535Y-104931858D01*
X112060978Y-104825318D01*
X111956372Y-104753843D01*
X111832200Y-104728698D01*
X111332200Y-104728698D01*
X111216198Y-104750525D01*
X111109658Y-104819082D01*
X111038183Y-104923688D01*
X111013038Y-105047860D01*
X111013038Y-105647860D01*
X111034865Y-105763862D01*
X111103422Y-105870402D01*
X111144170Y-105898244D01*
X111144170Y-106164852D01*
X110978981Y-106329753D01*
X110958782Y-106378399D01*
X110942035Y-106289398D01*
X110873478Y-106182858D01*
X110768872Y-106111383D01*
X110644700Y-106086238D01*
X110244700Y-106086238D01*
X110128698Y-106108065D01*
X110106662Y-106122245D01*
X110106662Y-105750080D01*
X110084835Y-105634078D01*
X110016278Y-105527538D01*
X109911672Y-105456063D01*
X109787500Y-105430918D01*
X109287500Y-105430918D01*
X109171498Y-105452745D01*
X109064958Y-105521302D01*
X108993483Y-105625908D01*
X108968338Y-105750080D01*
X108968338Y-106142398D01*
X108847560Y-106142398D01*
X108731558Y-106164225D01*
X108678247Y-106198530D01*
X107806459Y-106198530D01*
X107791993Y-100312030D01*
X123295175Y-100312030D01*
X123307907Y-101767310D01*
X123307907Y-101767310D01*
G37*
X123307907Y-101767310D02*
X121978202Y-101767310D01*
X121932852Y-101736323D01*
X121808680Y-101711178D01*
X121308680Y-101711178D01*
X121192678Y-101733005D01*
X121139367Y-101767310D01*
X120987202Y-101767310D01*
X120941852Y-101736323D01*
X120817680Y-101711178D01*
X120317680Y-101711178D01*
X120201678Y-101733005D01*
X120148367Y-101767310D01*
X119895202Y-101767310D01*
X119849852Y-101736323D01*
X119725680Y-101711178D01*
X119225680Y-101711178D01*
X119109678Y-101733005D01*
X119003138Y-101801562D01*
X118931663Y-101906168D01*
X118906518Y-102030340D01*
X118906518Y-102630340D01*
X118928345Y-102746342D01*
X118930230Y-102749271D01*
X118930230Y-104272978D01*
X118899243Y-104318328D01*
X118874098Y-104442500D01*
X118874098Y-104842500D01*
X118895925Y-104958502D01*
X118964482Y-105065042D01*
X119004197Y-105092179D01*
X118970718Y-105113722D01*
X118899243Y-105218328D01*
X118874098Y-105342500D01*
X118874098Y-105742500D01*
X118895925Y-105858502D01*
X118964482Y-105965042D01*
X119055230Y-106027048D01*
X119055230Y-106378571D01*
X118965638Y-106436222D01*
X118894163Y-106540828D01*
X118869018Y-106665000D01*
X118869018Y-107065000D01*
X118890845Y-107181002D01*
X118959402Y-107287542D01*
X118999117Y-107314679D01*
X118978555Y-107327910D01*
X118743720Y-107327910D01*
X118689338Y-107243398D01*
X118649623Y-107216261D01*
X118683102Y-107194718D01*
X118754577Y-107090112D01*
X118779722Y-106965940D01*
X118779722Y-106365940D01*
X118757895Y-106249938D01*
X118689338Y-106143398D01*
X118646050Y-106113820D01*
X118646050Y-106015920D01*
X118730562Y-105961538D01*
X118802037Y-105856932D01*
X118827182Y-105732760D01*
X118827182Y-105332760D01*
X118805355Y-105216758D01*
X118736798Y-105110218D01*
X118697083Y-105083081D01*
X118730562Y-105061538D01*
X118802037Y-104956932D01*
X118827182Y-104832760D01*
X118827182Y-104432760D01*
X118805355Y-104316758D01*
X118736798Y-104210218D01*
X118632192Y-104138743D01*
X118508020Y-104113598D01*
X117908020Y-104113598D01*
X117792018Y-104135425D01*
X117688014Y-104202350D01*
X117510920Y-104202350D01*
X117480190Y-104154594D01*
X117480190Y-103895966D01*
X117514702Y-103873758D01*
X117586177Y-103769152D01*
X117611322Y-103644980D01*
X117611322Y-103044980D01*
X117589495Y-102928978D01*
X117520938Y-102822438D01*
X117416332Y-102750963D01*
X117292160Y-102725818D01*
X116792160Y-102725818D01*
X116676158Y-102747645D01*
X116569618Y-102816202D01*
X116498143Y-102920808D01*
X116472998Y-103044980D01*
X116472998Y-103644980D01*
X116494825Y-103760982D01*
X116563382Y-103867522D01*
X116604130Y-103895364D01*
X116604130Y-104113194D01*
X116578081Y-104151317D01*
X116556538Y-104117838D01*
X116451932Y-104046363D01*
X116327760Y-104021218D01*
X115927760Y-104021218D01*
X115811758Y-104043045D01*
X115705218Y-104111602D01*
X115643212Y-104202350D01*
X114939956Y-104202350D01*
X114885458Y-104117658D01*
X114780852Y-104046183D01*
X114656680Y-104021038D01*
X114156680Y-104021038D01*
X114040678Y-104042865D01*
X113934138Y-104111422D01*
X113862663Y-104216028D01*
X113837518Y-104340200D01*
X113837518Y-104940200D01*
X113859345Y-105056202D01*
X113927902Y-105162742D01*
X113967617Y-105189879D01*
X113934138Y-105211422D01*
X113862663Y-105316028D01*
X113837518Y-105440200D01*
X113837518Y-106040200D01*
X113859345Y-106156202D01*
X113927902Y-106262742D01*
X113968650Y-106290584D01*
X113968650Y-106568256D01*
X113937778Y-106574065D01*
X113831238Y-106642622D01*
X113759763Y-106747228D01*
X113734618Y-106871400D01*
X113734618Y-107271400D01*
X113756445Y-107387402D01*
X113825002Y-107493942D01*
X113929608Y-107565417D01*
X114053780Y-107590562D01*
X114703780Y-107590562D01*
X114819782Y-107568735D01*
X114926322Y-107500178D01*
X114997797Y-107395572D01*
X115022942Y-107271400D01*
X115022942Y-106871400D01*
X115001115Y-106755398D01*
X114932558Y-106648858D01*
X114844710Y-106588833D01*
X114844710Y-106291186D01*
X114879222Y-106268978D01*
X114950697Y-106164372D01*
X114975842Y-106040200D01*
X114975842Y-105440200D01*
X114954015Y-105324198D01*
X114885458Y-105217658D01*
X114845743Y-105190521D01*
X114879222Y-105168978D01*
X114941105Y-105078410D01*
X115606411Y-105078410D01*
X115579818Y-105095522D01*
X115508343Y-105200128D01*
X115483198Y-105324300D01*
X115483198Y-105724300D01*
X115505025Y-105840302D01*
X115573582Y-105946842D01*
X115613297Y-105973979D01*
X115579818Y-105995522D01*
X115508343Y-106100128D01*
X115483198Y-106224300D01*
X115483198Y-106624300D01*
X115505025Y-106740302D01*
X115573582Y-106846842D01*
X115678188Y-106918317D01*
X115802360Y-106943462D01*
X116402360Y-106943462D01*
X116518362Y-106921635D01*
X116610524Y-106862330D01*
X116622858Y-106862330D01*
X116622858Y-106930560D01*
X116644685Y-107046562D01*
X116713242Y-107153102D01*
X116753990Y-107180944D01*
X116753990Y-107271260D01*
X116669478Y-107325642D01*
X116598003Y-107430248D01*
X116572858Y-107554420D01*
X116572858Y-107954420D01*
X116594685Y-108070422D01*
X116663242Y-108176962D01*
X116767848Y-108248437D01*
X116892020Y-108273582D01*
X117492020Y-108273582D01*
X117608022Y-108251755D01*
X117678829Y-108206192D01*
X117731782Y-108288482D01*
X117836388Y-108359957D01*
X117960560Y-108385102D01*
X118460560Y-108385102D01*
X118576562Y-108363275D01*
X118683102Y-108294718D01*
X118745108Y-108203970D01*
X118983445Y-108203970D01*
X119050150Y-108249548D01*
X119050150Y-109942600D01*
X119068734Y-110036029D01*
X117173461Y-110036029D01*
X116957999Y-110078887D01*
X116775339Y-110200936D01*
X116353512Y-110622763D01*
X116332458Y-110626725D01*
X116283094Y-110658490D01*
X115833381Y-110658490D01*
X115803100Y-110652358D01*
X115203100Y-110652358D01*
X115087098Y-110674185D01*
X114980558Y-110742742D01*
X114953421Y-110782457D01*
X114941810Y-110764413D01*
X114941810Y-108777511D01*
X114997797Y-108695572D01*
X115022942Y-108571400D01*
X115022942Y-108171400D01*
X115001115Y-108055398D01*
X114932558Y-107948858D01*
X114827952Y-107877383D01*
X114703780Y-107852238D01*
X114595754Y-107852238D01*
X114594242Y-107851228D01*
X114378780Y-107808370D01*
X114163318Y-107851228D01*
X114161806Y-107852238D01*
X114053780Y-107852238D01*
X113937778Y-107874065D01*
X113831238Y-107942622D01*
X113759763Y-108047228D01*
X113734618Y-108171400D01*
X113734618Y-108571400D01*
X113756445Y-108687402D01*
X113815750Y-108779564D01*
X113815750Y-110837591D01*
X113809083Y-110847348D01*
X113783938Y-110971520D01*
X113783938Y-111377210D01*
X113631662Y-111224934D01*
X113631662Y-110925240D01*
X113609835Y-110809238D01*
X113541278Y-110702698D01*
X113500530Y-110674856D01*
X113500530Y-108830120D01*
X113467187Y-108662493D01*
X113372234Y-108520386D01*
X113122942Y-108271094D01*
X113122942Y-108171400D01*
X113101115Y-108055398D01*
X113096249Y-108047837D01*
X113097797Y-108045572D01*
X113122942Y-107921400D01*
X113122942Y-107521400D01*
X113101115Y-107405398D01*
X113096249Y-107397837D01*
X113097797Y-107395572D01*
X113122942Y-107271400D01*
X113122942Y-106871400D01*
X113101115Y-106755398D01*
X113032558Y-106648858D01*
X112927952Y-106577383D01*
X112803780Y-106552238D01*
X112579086Y-106552238D01*
X112394574Y-106367726D01*
X112252467Y-106272773D01*
X112084840Y-106239430D01*
X112020230Y-106239430D01*
X112020230Y-105898846D01*
X112054742Y-105876638D01*
X112126217Y-105772032D01*
X112151362Y-105647860D01*
X112151362Y-105047860D01*
X112129535Y-104931858D01*
X112060978Y-104825318D01*
X111956372Y-104753843D01*
X111832200Y-104728698D01*
X111332200Y-104728698D01*
X111216198Y-104750525D01*
X111109658Y-104819082D01*
X111038183Y-104923688D01*
X111013038Y-105047860D01*
X111013038Y-105647860D01*
X111034865Y-105763862D01*
X111103422Y-105870402D01*
X111144170Y-105898244D01*
X111144170Y-106164852D01*
X110978981Y-106329753D01*
X110958782Y-106378399D01*
X110942035Y-106289398D01*
X110873478Y-106182858D01*
X110768872Y-106111383D01*
X110644700Y-106086238D01*
X110244700Y-106086238D01*
X110128698Y-106108065D01*
X110106662Y-106122245D01*
X110106662Y-105750080D01*
X110084835Y-105634078D01*
X110016278Y-105527538D01*
X109911672Y-105456063D01*
X109787500Y-105430918D01*
X109287500Y-105430918D01*
X109171498Y-105452745D01*
X109064958Y-105521302D01*
X108993483Y-105625908D01*
X108968338Y-105750080D01*
X108968338Y-106142398D01*
X108847560Y-106142398D01*
X108731558Y-106164225D01*
X108678247Y-106198530D01*
X107806459Y-106198530D01*
X107791993Y-100312030D01*
X123295175Y-100312030D01*
X123307907Y-101767310D01*
M02*
