G04 #@! TF.FileFunction,Legend,Top*
%FSLAX46Y46*%
G04 Gerber Fmt 4.6, Leading zero omitted, Abs format (unit mm)*
G04 Created by KiCad (PCBNEW 4.0.2+dfsg1-stable) date ven 12 ott 2018 16:01:28 CEST*
%MOMM*%
G01*
G04 APERTURE LIST*
%ADD10C,0.100000*%
%ADD11C,0.200000*%
%ADD12C,0.150000*%
%ADD13C,0.120000*%
%ADD14C,0.500000*%
G04 APERTURE END LIST*
D10*
D11*
X173690280Y-115443000D02*
X98295460Y-115443000D01*
X195072000Y-115443000D02*
X179682660Y-115443000D01*
X179682660Y-112410240D02*
X179682660Y-115443000D01*
X173692820Y-112410240D02*
X179682660Y-112410240D01*
X173692820Y-112410240D02*
X173692820Y-115437920D01*
X173776640Y-99949000D02*
X98298000Y-99949000D01*
X195072000Y-99949000D02*
X179778660Y-99949000D01*
X179778660Y-99949000D02*
X179778660Y-103047800D01*
X173776640Y-103047800D02*
X179778660Y-103047800D01*
X173776640Y-99949000D02*
X173776640Y-103047800D01*
X98298000Y-115443000D02*
X98298000Y-99949000D01*
X195072000Y-99949000D02*
X195072000Y-115443000D01*
D12*
X125500000Y-102511240D02*
X125500000Y-100581240D01*
X125500000Y-100581240D02*
X129750000Y-100581240D01*
X129750000Y-100581240D02*
X129750000Y-103781240D01*
X129750000Y-103781240D02*
X126770000Y-103781240D01*
X127000000Y-104281240D02*
X127500000Y-104781240D01*
X127500000Y-104781240D02*
X126500000Y-104781240D01*
X126500000Y-104781240D02*
X127000000Y-104281240D01*
X111254580Y-107256560D02*
X110754580Y-107256560D01*
X110754580Y-108206560D02*
X111254580Y-108206560D01*
X113537500Y-112025240D02*
X113537500Y-111525240D01*
X112587500Y-111525240D02*
X112587500Y-112025240D01*
X125134640Y-114534360D02*
X125134640Y-114034360D01*
X124184640Y-114034360D02*
X124184640Y-114534360D01*
X123950440Y-101803760D02*
X123250440Y-101803760D01*
X123250440Y-100603760D02*
X123950440Y-100603760D01*
X123813640Y-114534360D02*
X123813640Y-114034360D01*
X122863640Y-114034360D02*
X122863640Y-114534360D01*
X119183400Y-112025240D02*
X119183400Y-111525240D01*
X118233400Y-111525240D02*
X118233400Y-112025240D01*
X119000680Y-101530340D02*
X119000680Y-102030340D01*
X119950680Y-102030340D02*
X119950680Y-101530340D01*
X120092680Y-101530340D02*
X120092680Y-102030340D01*
X121042680Y-102030340D02*
X121042680Y-101530340D01*
X118685560Y-107465940D02*
X118685560Y-106965940D01*
X117735560Y-106965940D02*
X117735560Y-107465940D01*
X116567160Y-102544980D02*
X116567160Y-103044980D01*
X117517160Y-103044980D02*
X117517160Y-102544980D01*
X117667020Y-106330560D02*
X117667020Y-105830560D01*
X116717020Y-105830560D02*
X116717020Y-106330560D01*
X121083680Y-101530340D02*
X121083680Y-102030340D01*
X122033680Y-102030340D02*
X122033680Y-101530340D01*
X130064880Y-114007520D02*
X130064880Y-113007520D01*
X128364880Y-113007520D02*
X128364880Y-114007520D01*
X126184680Y-112012540D02*
X126184680Y-111512540D01*
X125234680Y-111512540D02*
X125234680Y-112012540D01*
X115203100Y-110746520D02*
X114703100Y-110746520D01*
X114703100Y-111696520D02*
X115203100Y-111696520D01*
X111107200Y-104547860D02*
X111107200Y-105047860D01*
X112057200Y-105047860D02*
X112057200Y-104547860D01*
X114881680Y-105440200D02*
X114881680Y-104940200D01*
X113931680Y-104940200D02*
X113931680Y-105440200D01*
X169078000Y-113145000D02*
X168078000Y-113145000D01*
X168078000Y-114845000D02*
X169078000Y-114845000D01*
X110928400Y-109213460D02*
X110928400Y-108713460D01*
X109978400Y-108713460D02*
X109978400Y-109213460D01*
X154306220Y-114927600D02*
X154806220Y-114927600D01*
X154806220Y-113977600D02*
X154306220Y-113977600D01*
X109062500Y-105250080D02*
X109062500Y-105750080D01*
X110012500Y-105750080D02*
X110012500Y-105250080D01*
X151867220Y-114952600D02*
X152367220Y-114952600D01*
X152367220Y-114002600D02*
X151867220Y-114002600D01*
X150184000Y-110980000D02*
X149684000Y-110980000D01*
X149684000Y-111930000D02*
X150184000Y-111930000D01*
X145415260Y-106329860D02*
X144915260Y-106329860D01*
X144915260Y-107279860D02*
X145415260Y-107279860D01*
X145464000Y-114364000D02*
X148164000Y-114364000D01*
X145464000Y-112864000D02*
X148164000Y-112864000D01*
X146964000Y-113764000D02*
X146964000Y-113514000D01*
X146964000Y-113514000D02*
X146814000Y-113664000D01*
X146714000Y-113264000D02*
X146714000Y-113964000D01*
X147064000Y-113614000D02*
X147414000Y-113614000D01*
X146714000Y-113614000D02*
X147064000Y-113264000D01*
X147064000Y-113264000D02*
X147064000Y-113964000D01*
X147064000Y-113964000D02*
X146714000Y-113614000D01*
D13*
X116632360Y-106224300D02*
X116632360Y-105724300D01*
X115572360Y-105724300D02*
X115572360Y-106224300D01*
D12*
X158884000Y-110599000D02*
X159984000Y-110599000D01*
X159984000Y-110599000D02*
X159984000Y-108399000D01*
X159984000Y-108399000D02*
X158884000Y-108399000D01*
X158884000Y-108399000D02*
X158884000Y-110549000D01*
X158884000Y-110549000D02*
X158884000Y-110599000D01*
D13*
X121044900Y-103018360D02*
X121044900Y-105818360D01*
X121044900Y-105818360D02*
X124344900Y-105818360D01*
X151088000Y-113930000D02*
X152438000Y-113930000D01*
X151088000Y-112180000D02*
X152438000Y-112180000D01*
D12*
X117717020Y-108454420D02*
X117717020Y-107954420D01*
X116667020Y-107954420D02*
X116667020Y-108454420D01*
X163236000Y-109706000D02*
X163236000Y-109206000D01*
X162186000Y-109206000D02*
X162186000Y-109706000D01*
X162757000Y-112175000D02*
X162257000Y-112175000D01*
X162257000Y-113225000D02*
X162757000Y-113225000D01*
X164675000Y-113027000D02*
X164675000Y-113527000D01*
X165725000Y-113527000D02*
X165725000Y-113027000D01*
X143954260Y-106520860D02*
X143954260Y-106020860D01*
X142904260Y-106020860D02*
X142904260Y-106520860D01*
X148656000Y-112162000D02*
X148656000Y-111662000D01*
X147606000Y-111662000D02*
X147606000Y-112162000D01*
X120018260Y-105342500D02*
X120018260Y-104842500D01*
X118968260Y-104842500D02*
X118968260Y-105342500D01*
X152991000Y-104177000D02*
X152991000Y-104677000D01*
X154041000Y-104677000D02*
X154041000Y-104177000D01*
X124496880Y-108571300D02*
X124496880Y-109346300D01*
X120196880Y-112871300D02*
X120196880Y-112096300D01*
X124496880Y-112871300D02*
X124496880Y-112096300D01*
X120196880Y-108571300D02*
X120971880Y-108571300D01*
X120196880Y-112871300D02*
X120971880Y-112871300D01*
X124496880Y-112871300D02*
X123721880Y-112871300D01*
X124496880Y-108571300D02*
X123721880Y-108571300D01*
X151145000Y-111032000D02*
X151145000Y-110507000D01*
X156395000Y-105782000D02*
X156395000Y-106307000D01*
X151145000Y-105782000D02*
X151145000Y-106307000D01*
X156395000Y-111032000D02*
X155870000Y-111032000D01*
X156395000Y-105782000D02*
X155870000Y-105782000D01*
X151145000Y-105782000D02*
X151670000Y-105782000D01*
X151145000Y-111032000D02*
X151670000Y-111032000D01*
X142470300Y-107774500D02*
X144730900Y-107774500D01*
X140199000Y-103137000D02*
X140199000Y-112437000D01*
X130699000Y-103137000D02*
X130699000Y-112437000D01*
X130699000Y-103137000D02*
X140199000Y-103137000D01*
X130699000Y-112437000D02*
X140198800Y-112437740D01*
X173699000Y-103121760D02*
X183199000Y-103121760D01*
X183199000Y-103121760D02*
X183199000Y-112421760D01*
X173699000Y-103121760D02*
X173699000Y-112421760D01*
X173699000Y-112421760D02*
X183198800Y-112422500D01*
X143600800Y-106644000D02*
X143600800Y-108904600D01*
X168655600Y-107787000D02*
X169824000Y-107787000D01*
X170324000Y-107087000D02*
X170324000Y-108487000D01*
X169824000Y-106656500D02*
X169824000Y-108917500D01*
X170824000Y-107487000D02*
X170824000Y-108087000D01*
X127788020Y-104778360D02*
X129718020Y-104778360D01*
X129718020Y-104778360D02*
X129718020Y-111528360D01*
X129718020Y-111528360D02*
X126518020Y-111528360D01*
X126518020Y-111528360D02*
X126518020Y-106048360D01*
X126018020Y-106278360D02*
X125518020Y-106778360D01*
X125518020Y-106778360D02*
X125518020Y-105778360D01*
X125518020Y-105778360D02*
X126018020Y-106278360D01*
X159742060Y-112178320D02*
X160242060Y-112178320D01*
X160242060Y-111128320D02*
X159742060Y-111128320D01*
D14*
X105466760Y-106711560D02*
X103993560Y-106711560D01*
D10*
X106736760Y-105797160D02*
X106736760Y-107625960D01*
X99421560Y-105797160D02*
X106736760Y-105797160D01*
X99421560Y-107625960D02*
X99421560Y-105797160D01*
X106736760Y-107625960D02*
X99421560Y-107625960D01*
D13*
X117348460Y-110694060D02*
X116848460Y-110694060D01*
X116848460Y-111754060D02*
X117348460Y-111754060D01*
X112728780Y-108881400D02*
X114628780Y-108881400D01*
X114128780Y-106561400D02*
X112728780Y-106561400D01*
X116827760Y-104110380D02*
X116327760Y-104110380D01*
X116327760Y-105170380D02*
X116827760Y-105170380D01*
X118738020Y-105332760D02*
X118738020Y-104832760D01*
X117678020Y-104832760D02*
X117678020Y-105332760D01*
X118958180Y-107065000D02*
X118958180Y-107565000D01*
X120018180Y-107565000D02*
X120018180Y-107065000D01*
X110244700Y-106175400D02*
X109744700Y-106175400D01*
X109744700Y-107235400D02*
X110244700Y-107235400D01*
D12*
X168228000Y-111363000D02*
X168928000Y-111363000D01*
X168928000Y-112563000D02*
X168228000Y-112563000D01*
X127851460Y-113149900D02*
X127851460Y-113849900D01*
X126651460Y-113849900D02*
X126651460Y-113149900D01*
X126886905Y-105433621D02*
X126886905Y-104433621D01*
X127267858Y-104433621D01*
X127363096Y-104481240D01*
X127410715Y-104528859D01*
X127458334Y-104624097D01*
X127458334Y-104766954D01*
X127410715Y-104862192D01*
X127363096Y-104909811D01*
X127267858Y-104957430D01*
X126886905Y-104957430D01*
X127791667Y-104433621D02*
X128410715Y-104433621D01*
X128077381Y-104814573D01*
X128220239Y-104814573D01*
X128315477Y-104862192D01*
X128363096Y-104909811D01*
X128410715Y-105005050D01*
X128410715Y-105243145D01*
X128363096Y-105338383D01*
X128315477Y-105386002D01*
X128220239Y-105433621D01*
X127934524Y-105433621D01*
X127839286Y-105386002D01*
X127791667Y-105338383D01*
X110837914Y-106388703D02*
X110790295Y-106436322D01*
X110647438Y-106483941D01*
X110552200Y-106483941D01*
X110409342Y-106436322D01*
X110314104Y-106341084D01*
X110266485Y-106245846D01*
X110218866Y-106055370D01*
X110218866Y-105912512D01*
X110266485Y-105722036D01*
X110314104Y-105626798D01*
X110409342Y-105531560D01*
X110552200Y-105483941D01*
X110647438Y-105483941D01*
X110790295Y-105531560D01*
X110837914Y-105579179D01*
X111790295Y-106483941D02*
X111218866Y-106483941D01*
X111504580Y-106483941D02*
X111504580Y-105483941D01*
X111409342Y-105626798D01*
X111314104Y-105722036D01*
X111218866Y-105769655D01*
X115119643Y-111941906D02*
X115167262Y-111989525D01*
X115214881Y-112132382D01*
X115214881Y-112227620D01*
X115167262Y-112370478D01*
X115072024Y-112465716D01*
X114976786Y-112513335D01*
X114786310Y-112560954D01*
X114643452Y-112560954D01*
X114452976Y-112513335D01*
X114357738Y-112465716D01*
X114262500Y-112370478D01*
X114214881Y-112227620D01*
X114214881Y-112132382D01*
X114262500Y-111989525D01*
X114310119Y-111941906D01*
X114214881Y-111037144D02*
X114214881Y-111513335D01*
X114691071Y-111560954D01*
X114643452Y-111513335D01*
X114595833Y-111418097D01*
X114595833Y-111180001D01*
X114643452Y-111084763D01*
X114691071Y-111037144D01*
X114786310Y-110989525D01*
X115024405Y-110989525D01*
X115119643Y-111037144D01*
X115167262Y-111084763D01*
X115214881Y-111180001D01*
X115214881Y-111418097D01*
X115167262Y-111513335D01*
X115119643Y-111560954D01*
X126716783Y-114451026D02*
X126764402Y-114498645D01*
X126812021Y-114641502D01*
X126812021Y-114736740D01*
X126764402Y-114879598D01*
X126669164Y-114974836D01*
X126573926Y-115022455D01*
X126383450Y-115070074D01*
X126240592Y-115070074D01*
X126050116Y-115022455D01*
X125954878Y-114974836D01*
X125859640Y-114879598D01*
X125812021Y-114736740D01*
X125812021Y-114641502D01*
X125859640Y-114498645D01*
X125907259Y-114451026D01*
X125812021Y-113593883D02*
X125812021Y-113784360D01*
X125859640Y-113879598D01*
X125907259Y-113927217D01*
X126050116Y-114022455D01*
X126240592Y-114070074D01*
X126621545Y-114070074D01*
X126716783Y-114022455D01*
X126764402Y-113974836D01*
X126812021Y-113879598D01*
X126812021Y-113689121D01*
X126764402Y-113593883D01*
X126716783Y-113546264D01*
X126621545Y-113498645D01*
X126383450Y-113498645D01*
X126288211Y-113546264D01*
X126240592Y-113593883D01*
X126192973Y-113689121D01*
X126192973Y-113879598D01*
X126240592Y-113974836D01*
X126288211Y-114022455D01*
X126383450Y-114070074D01*
X123433774Y-103460903D02*
X123386155Y-103508522D01*
X123243298Y-103556141D01*
X123148060Y-103556141D01*
X123005202Y-103508522D01*
X122909964Y-103413284D01*
X122862345Y-103318046D01*
X122814726Y-103127570D01*
X122814726Y-102984712D01*
X122862345Y-102794236D01*
X122909964Y-102698998D01*
X123005202Y-102603760D01*
X123148060Y-102556141D01*
X123243298Y-102556141D01*
X123386155Y-102603760D01*
X123433774Y-102651379D01*
X123767107Y-102556141D02*
X124433774Y-102556141D01*
X124005202Y-103556141D01*
X125395783Y-114451026D02*
X125443402Y-114498645D01*
X125491021Y-114641502D01*
X125491021Y-114736740D01*
X125443402Y-114879598D01*
X125348164Y-114974836D01*
X125252926Y-115022455D01*
X125062450Y-115070074D01*
X124919592Y-115070074D01*
X124729116Y-115022455D01*
X124633878Y-114974836D01*
X124538640Y-114879598D01*
X124491021Y-114736740D01*
X124491021Y-114641502D01*
X124538640Y-114498645D01*
X124586259Y-114451026D01*
X124919592Y-113879598D02*
X124871973Y-113974836D01*
X124824354Y-114022455D01*
X124729116Y-114070074D01*
X124681497Y-114070074D01*
X124586259Y-114022455D01*
X124538640Y-113974836D01*
X124491021Y-113879598D01*
X124491021Y-113689121D01*
X124538640Y-113593883D01*
X124586259Y-113546264D01*
X124681497Y-113498645D01*
X124729116Y-113498645D01*
X124824354Y-113546264D01*
X124871973Y-113593883D01*
X124919592Y-113689121D01*
X124919592Y-113879598D01*
X124967211Y-113974836D01*
X125014830Y-114022455D01*
X125110069Y-114070074D01*
X125300545Y-114070074D01*
X125395783Y-114022455D01*
X125443402Y-113974836D01*
X125491021Y-113879598D01*
X125491021Y-113689121D01*
X125443402Y-113593883D01*
X125395783Y-113546264D01*
X125300545Y-113498645D01*
X125110069Y-113498645D01*
X125014830Y-113546264D01*
X124967211Y-113593883D01*
X124919592Y-113689121D01*
X120765543Y-111941906D02*
X120813162Y-111989525D01*
X120860781Y-112132382D01*
X120860781Y-112227620D01*
X120813162Y-112370478D01*
X120717924Y-112465716D01*
X120622686Y-112513335D01*
X120432210Y-112560954D01*
X120289352Y-112560954D01*
X120098876Y-112513335D01*
X120003638Y-112465716D01*
X119908400Y-112370478D01*
X119860781Y-112227620D01*
X119860781Y-112132382D01*
X119908400Y-111989525D01*
X119956019Y-111941906D01*
X120860781Y-111465716D02*
X120860781Y-111275240D01*
X120813162Y-111180001D01*
X120765543Y-111132382D01*
X120622686Y-111037144D01*
X120432210Y-110989525D01*
X120051257Y-110989525D01*
X119956019Y-111037144D01*
X119908400Y-111084763D01*
X119860781Y-111180001D01*
X119860781Y-111370478D01*
X119908400Y-111465716D01*
X119956019Y-111513335D01*
X120051257Y-111560954D01*
X120289352Y-111560954D01*
X120384590Y-111513335D01*
X120432210Y-111465716D01*
X120479829Y-111370478D01*
X120479829Y-111180001D01*
X120432210Y-111084763D01*
X120384590Y-111037144D01*
X120289352Y-110989525D01*
X118132823Y-102423197D02*
X118180442Y-102470816D01*
X118228061Y-102613673D01*
X118228061Y-102708911D01*
X118180442Y-102851769D01*
X118085204Y-102947007D01*
X117989966Y-102994626D01*
X117799490Y-103042245D01*
X117656632Y-103042245D01*
X117466156Y-102994626D01*
X117370918Y-102947007D01*
X117275680Y-102851769D01*
X117228061Y-102708911D01*
X117228061Y-102613673D01*
X117275680Y-102470816D01*
X117323299Y-102423197D01*
X118228061Y-101470816D02*
X118228061Y-102042245D01*
X118228061Y-101756531D02*
X117228061Y-101756531D01*
X117370918Y-101851769D01*
X117466156Y-101947007D01*
X117513775Y-102042245D01*
X117228061Y-100851769D02*
X117228061Y-100756530D01*
X117275680Y-100661292D01*
X117323299Y-100613673D01*
X117418537Y-100566054D01*
X117609013Y-100518435D01*
X117847109Y-100518435D01*
X118037585Y-100566054D01*
X118132823Y-100613673D01*
X118180442Y-100661292D01*
X118228061Y-100756530D01*
X118228061Y-100851769D01*
X118180442Y-100947007D01*
X118132823Y-100994626D01*
X118037585Y-101042245D01*
X117847109Y-101089864D01*
X117609013Y-101089864D01*
X117418537Y-101042245D01*
X117323299Y-100994626D01*
X117275680Y-100947007D01*
X117228061Y-100851769D01*
X119224823Y-102423197D02*
X119272442Y-102470816D01*
X119320061Y-102613673D01*
X119320061Y-102708911D01*
X119272442Y-102851769D01*
X119177204Y-102947007D01*
X119081966Y-102994626D01*
X118891490Y-103042245D01*
X118748632Y-103042245D01*
X118558156Y-102994626D01*
X118462918Y-102947007D01*
X118367680Y-102851769D01*
X118320061Y-102708911D01*
X118320061Y-102613673D01*
X118367680Y-102470816D01*
X118415299Y-102423197D01*
X119320061Y-101470816D02*
X119320061Y-102042245D01*
X119320061Y-101756531D02*
X118320061Y-101756531D01*
X118462918Y-101851769D01*
X118558156Y-101947007D01*
X118605775Y-102042245D01*
X119320061Y-100518435D02*
X119320061Y-101089864D01*
X119320061Y-100804150D02*
X118320061Y-100804150D01*
X118462918Y-100899388D01*
X118558156Y-100994626D01*
X118605775Y-101089864D01*
X120267703Y-107858797D02*
X120315322Y-107906416D01*
X120362941Y-108049273D01*
X120362941Y-108144511D01*
X120315322Y-108287369D01*
X120220084Y-108382607D01*
X120124846Y-108430226D01*
X119934370Y-108477845D01*
X119791512Y-108477845D01*
X119601036Y-108430226D01*
X119505798Y-108382607D01*
X119410560Y-108287369D01*
X119362941Y-108144511D01*
X119362941Y-108049273D01*
X119410560Y-107906416D01*
X119458179Y-107858797D01*
X120362941Y-106906416D02*
X120362941Y-107477845D01*
X120362941Y-107192131D02*
X119362941Y-107192131D01*
X119505798Y-107287369D01*
X119601036Y-107382607D01*
X119648655Y-107477845D01*
X119458179Y-106525464D02*
X119410560Y-106477845D01*
X119362941Y-106382607D01*
X119362941Y-106144511D01*
X119410560Y-106049273D01*
X119458179Y-106001654D01*
X119553417Y-105954035D01*
X119648655Y-105954035D01*
X119791512Y-106001654D01*
X120362941Y-106573083D01*
X120362941Y-105954035D01*
X115699303Y-103437837D02*
X115746922Y-103485456D01*
X115794541Y-103628313D01*
X115794541Y-103723551D01*
X115746922Y-103866409D01*
X115651684Y-103961647D01*
X115556446Y-104009266D01*
X115365970Y-104056885D01*
X115223112Y-104056885D01*
X115032636Y-104009266D01*
X114937398Y-103961647D01*
X114842160Y-103866409D01*
X114794541Y-103723551D01*
X114794541Y-103628313D01*
X114842160Y-103485456D01*
X114889779Y-103437837D01*
X115794541Y-102485456D02*
X115794541Y-103056885D01*
X115794541Y-102771171D02*
X114794541Y-102771171D01*
X114937398Y-102866409D01*
X115032636Y-102961647D01*
X115080255Y-103056885D01*
X114794541Y-102152123D02*
X114794541Y-101533075D01*
X115175493Y-101866409D01*
X115175493Y-101723551D01*
X115223112Y-101628313D01*
X115270731Y-101580694D01*
X115365970Y-101533075D01*
X115604065Y-101533075D01*
X115699303Y-101580694D01*
X115746922Y-101628313D01*
X115794541Y-101723551D01*
X115794541Y-102009266D01*
X115746922Y-102104504D01*
X115699303Y-102152123D01*
X119249163Y-106723417D02*
X119296782Y-106771036D01*
X119344401Y-106913893D01*
X119344401Y-107009131D01*
X119296782Y-107151989D01*
X119201544Y-107247227D01*
X119106306Y-107294846D01*
X118915830Y-107342465D01*
X118772972Y-107342465D01*
X118582496Y-107294846D01*
X118487258Y-107247227D01*
X118392020Y-107151989D01*
X118344401Y-107009131D01*
X118344401Y-106913893D01*
X118392020Y-106771036D01*
X118439639Y-106723417D01*
X119344401Y-105771036D02*
X119344401Y-106342465D01*
X119344401Y-106056751D02*
X118344401Y-106056751D01*
X118487258Y-106151989D01*
X118582496Y-106247227D01*
X118630115Y-106342465D01*
X118677734Y-104913893D02*
X119344401Y-104913893D01*
X118296782Y-105151989D02*
X119011068Y-105390084D01*
X119011068Y-104771036D01*
X120215823Y-102423197D02*
X120263442Y-102470816D01*
X120311061Y-102613673D01*
X120311061Y-102708911D01*
X120263442Y-102851769D01*
X120168204Y-102947007D01*
X120072966Y-102994626D01*
X119882490Y-103042245D01*
X119739632Y-103042245D01*
X119549156Y-102994626D01*
X119453918Y-102947007D01*
X119358680Y-102851769D01*
X119311061Y-102708911D01*
X119311061Y-102613673D01*
X119358680Y-102470816D01*
X119406299Y-102423197D01*
X120311061Y-101470816D02*
X120311061Y-102042245D01*
X120311061Y-101756531D02*
X119311061Y-101756531D01*
X119453918Y-101851769D01*
X119549156Y-101947007D01*
X119596775Y-102042245D01*
X119311061Y-100566054D02*
X119311061Y-101042245D01*
X119787251Y-101089864D01*
X119739632Y-101042245D01*
X119692013Y-100947007D01*
X119692013Y-100708911D01*
X119739632Y-100613673D01*
X119787251Y-100566054D01*
X119882490Y-100518435D01*
X120120585Y-100518435D01*
X120215823Y-100566054D01*
X120263442Y-100613673D01*
X120311061Y-100708911D01*
X120311061Y-100947007D01*
X120263442Y-101042245D01*
X120215823Y-101089864D01*
X131672023Y-114150377D02*
X131719642Y-114197996D01*
X131767261Y-114340853D01*
X131767261Y-114436091D01*
X131719642Y-114578949D01*
X131624404Y-114674187D01*
X131529166Y-114721806D01*
X131338690Y-114769425D01*
X131195832Y-114769425D01*
X131005356Y-114721806D01*
X130910118Y-114674187D01*
X130814880Y-114578949D01*
X130767261Y-114436091D01*
X130767261Y-114340853D01*
X130814880Y-114197996D01*
X130862499Y-114150377D01*
X131767261Y-113197996D02*
X131767261Y-113769425D01*
X131767261Y-113483711D02*
X130767261Y-113483711D01*
X130910118Y-113578949D01*
X131005356Y-113674187D01*
X131052975Y-113769425D01*
X130767261Y-112340853D02*
X130767261Y-112531330D01*
X130814880Y-112626568D01*
X130862499Y-112674187D01*
X131005356Y-112769425D01*
X131195832Y-112817044D01*
X131576785Y-112817044D01*
X131672023Y-112769425D01*
X131719642Y-112721806D01*
X131767261Y-112626568D01*
X131767261Y-112436091D01*
X131719642Y-112340853D01*
X131672023Y-112293234D01*
X131576785Y-112245615D01*
X131338690Y-112245615D01*
X131243451Y-112293234D01*
X131195832Y-112340853D01*
X131148213Y-112436091D01*
X131148213Y-112626568D01*
X131195832Y-112721806D01*
X131243451Y-112769425D01*
X131338690Y-112817044D01*
X127766823Y-112405397D02*
X127814442Y-112453016D01*
X127862061Y-112595873D01*
X127862061Y-112691111D01*
X127814442Y-112833969D01*
X127719204Y-112929207D01*
X127623966Y-112976826D01*
X127433490Y-113024445D01*
X127290632Y-113024445D01*
X127100156Y-112976826D01*
X127004918Y-112929207D01*
X126909680Y-112833969D01*
X126862061Y-112691111D01*
X126862061Y-112595873D01*
X126909680Y-112453016D01*
X126957299Y-112405397D01*
X127862061Y-111453016D02*
X127862061Y-112024445D01*
X127862061Y-111738731D02*
X126862061Y-111738731D01*
X127004918Y-111833969D01*
X127100156Y-111929207D01*
X127147775Y-112024445D01*
X126862061Y-111119683D02*
X126862061Y-110453016D01*
X127862061Y-110881588D01*
X114310243Y-109878663D02*
X114262624Y-109926282D01*
X114119767Y-109973901D01*
X114024529Y-109973901D01*
X113881671Y-109926282D01*
X113786433Y-109831044D01*
X113738814Y-109735806D01*
X113691195Y-109545330D01*
X113691195Y-109402472D01*
X113738814Y-109211996D01*
X113786433Y-109116758D01*
X113881671Y-109021520D01*
X114024529Y-108973901D01*
X114119767Y-108973901D01*
X114262624Y-109021520D01*
X114310243Y-109069139D01*
X115262624Y-109973901D02*
X114691195Y-109973901D01*
X114976909Y-109973901D02*
X114976909Y-108973901D01*
X114881671Y-109116758D01*
X114786433Y-109211996D01*
X114691195Y-109259615D01*
X115834052Y-109402472D02*
X115738814Y-109354853D01*
X115691195Y-109307234D01*
X115643576Y-109211996D01*
X115643576Y-109164377D01*
X115691195Y-109069139D01*
X115738814Y-109021520D01*
X115834052Y-108973901D01*
X116024529Y-108973901D01*
X116119767Y-109021520D01*
X116167386Y-109069139D01*
X116215005Y-109164377D01*
X116215005Y-109211996D01*
X116167386Y-109307234D01*
X116119767Y-109354853D01*
X116024529Y-109402472D01*
X115834052Y-109402472D01*
X115738814Y-109450091D01*
X115691195Y-109497710D01*
X115643576Y-109592949D01*
X115643576Y-109783425D01*
X115691195Y-109878663D01*
X115738814Y-109926282D01*
X115834052Y-109973901D01*
X116024529Y-109973901D01*
X116119767Y-109926282D01*
X116167386Y-109878663D01*
X116215005Y-109783425D01*
X116215005Y-109592949D01*
X116167386Y-109497710D01*
X116119767Y-109450091D01*
X116024529Y-109402472D01*
X110239343Y-105440717D02*
X110286962Y-105488336D01*
X110334581Y-105631193D01*
X110334581Y-105726431D01*
X110286962Y-105869289D01*
X110191724Y-105964527D01*
X110096486Y-106012146D01*
X109906010Y-106059765D01*
X109763152Y-106059765D01*
X109572676Y-106012146D01*
X109477438Y-105964527D01*
X109382200Y-105869289D01*
X109334581Y-105726431D01*
X109334581Y-105631193D01*
X109382200Y-105488336D01*
X109429819Y-105440717D01*
X110334581Y-104488336D02*
X110334581Y-105059765D01*
X110334581Y-104774051D02*
X109334581Y-104774051D01*
X109477438Y-104869289D01*
X109572676Y-104964527D01*
X109620295Y-105059765D01*
X110334581Y-104012146D02*
X110334581Y-103821670D01*
X110286962Y-103726431D01*
X110239343Y-103678812D01*
X110096486Y-103583574D01*
X109906010Y-103535955D01*
X109525057Y-103535955D01*
X109429819Y-103583574D01*
X109382200Y-103631193D01*
X109334581Y-103726431D01*
X109334581Y-103916908D01*
X109382200Y-104012146D01*
X109429819Y-104059765D01*
X109525057Y-104107384D01*
X109763152Y-104107384D01*
X109858390Y-104059765D01*
X109906010Y-104012146D01*
X109953629Y-103916908D01*
X109953629Y-103726431D01*
X109906010Y-103631193D01*
X109858390Y-103583574D01*
X109763152Y-103535955D01*
X116463823Y-105833057D02*
X116511442Y-105880676D01*
X116559061Y-106023533D01*
X116559061Y-106118771D01*
X116511442Y-106261629D01*
X116416204Y-106356867D01*
X116320966Y-106404486D01*
X116130490Y-106452105D01*
X115987632Y-106452105D01*
X115797156Y-106404486D01*
X115701918Y-106356867D01*
X115606680Y-106261629D01*
X115559061Y-106118771D01*
X115559061Y-106023533D01*
X115606680Y-105880676D01*
X115654299Y-105833057D01*
X115654299Y-105452105D02*
X115606680Y-105404486D01*
X115559061Y-105309248D01*
X115559061Y-105071152D01*
X115606680Y-104975914D01*
X115654299Y-104928295D01*
X115749537Y-104880676D01*
X115844775Y-104880676D01*
X115987632Y-104928295D01*
X116559061Y-105499724D01*
X116559061Y-104880676D01*
X115559061Y-104261629D02*
X115559061Y-104166390D01*
X115606680Y-104071152D01*
X115654299Y-104023533D01*
X115749537Y-103975914D01*
X115940013Y-103928295D01*
X116178109Y-103928295D01*
X116368585Y-103975914D01*
X116463823Y-104023533D01*
X116511442Y-104071152D01*
X116559061Y-104166390D01*
X116559061Y-104261629D01*
X116511442Y-104356867D01*
X116463823Y-104404486D01*
X116368585Y-104452105D01*
X116178109Y-104499724D01*
X115940013Y-104499724D01*
X115749537Y-104452105D01*
X115654299Y-104404486D01*
X115606680Y-104356867D01*
X115559061Y-104261629D01*
X167935143Y-112252143D02*
X167887524Y-112299762D01*
X167744667Y-112347381D01*
X167649429Y-112347381D01*
X167506571Y-112299762D01*
X167411333Y-112204524D01*
X167363714Y-112109286D01*
X167316095Y-111918810D01*
X167316095Y-111775952D01*
X167363714Y-111585476D01*
X167411333Y-111490238D01*
X167506571Y-111395000D01*
X167649429Y-111347381D01*
X167744667Y-111347381D01*
X167887524Y-111395000D01*
X167935143Y-111442619D01*
X168316095Y-111442619D02*
X168363714Y-111395000D01*
X168458952Y-111347381D01*
X168697048Y-111347381D01*
X168792286Y-111395000D01*
X168839905Y-111442619D01*
X168887524Y-111537857D01*
X168887524Y-111633095D01*
X168839905Y-111775952D01*
X168268476Y-112347381D01*
X168887524Y-112347381D01*
X169268476Y-111442619D02*
X169316095Y-111395000D01*
X169411333Y-111347381D01*
X169649429Y-111347381D01*
X169744667Y-111395000D01*
X169792286Y-111442619D01*
X169839905Y-111537857D01*
X169839905Y-111633095D01*
X169792286Y-111775952D01*
X169220857Y-112347381D01*
X169839905Y-112347381D01*
X112510543Y-109606317D02*
X112558162Y-109653936D01*
X112605781Y-109796793D01*
X112605781Y-109892031D01*
X112558162Y-110034889D01*
X112462924Y-110130127D01*
X112367686Y-110177746D01*
X112177210Y-110225365D01*
X112034352Y-110225365D01*
X111843876Y-110177746D01*
X111748638Y-110130127D01*
X111653400Y-110034889D01*
X111605781Y-109892031D01*
X111605781Y-109796793D01*
X111653400Y-109653936D01*
X111701019Y-109606317D01*
X111701019Y-109225365D02*
X111653400Y-109177746D01*
X111605781Y-109082508D01*
X111605781Y-108844412D01*
X111653400Y-108749174D01*
X111701019Y-108701555D01*
X111796257Y-108653936D01*
X111891495Y-108653936D01*
X112034352Y-108701555D01*
X112605781Y-109272984D01*
X112605781Y-108653936D01*
X111939114Y-107796793D02*
X112605781Y-107796793D01*
X111558162Y-108034889D02*
X112272448Y-108272984D01*
X112272448Y-107653936D01*
X153913363Y-116509743D02*
X153865744Y-116557362D01*
X153722887Y-116604981D01*
X153627649Y-116604981D01*
X153484791Y-116557362D01*
X153389553Y-116462124D01*
X153341934Y-116366886D01*
X153294315Y-116176410D01*
X153294315Y-116033552D01*
X153341934Y-115843076D01*
X153389553Y-115747838D01*
X153484791Y-115652600D01*
X153627649Y-115604981D01*
X153722887Y-115604981D01*
X153865744Y-115652600D01*
X153913363Y-115700219D01*
X154294315Y-115700219D02*
X154341934Y-115652600D01*
X154437172Y-115604981D01*
X154675268Y-115604981D01*
X154770506Y-115652600D01*
X154818125Y-115700219D01*
X154865744Y-115795457D01*
X154865744Y-115890695D01*
X154818125Y-116033552D01*
X154246696Y-116604981D01*
X154865744Y-116604981D01*
X155722887Y-115604981D02*
X155532410Y-115604981D01*
X155437172Y-115652600D01*
X155389553Y-115700219D01*
X155294315Y-115843076D01*
X155246696Y-116033552D01*
X155246696Y-116414505D01*
X155294315Y-116509743D01*
X155341934Y-116557362D01*
X155437172Y-116604981D01*
X155627649Y-116604981D01*
X155722887Y-116557362D01*
X155770506Y-116509743D01*
X155818125Y-116414505D01*
X155818125Y-116176410D01*
X155770506Y-116081171D01*
X155722887Y-116033552D01*
X155627649Y-115985933D01*
X155437172Y-115985933D01*
X155341934Y-116033552D01*
X155294315Y-116081171D01*
X155246696Y-116176410D01*
X108194643Y-106142937D02*
X108242262Y-106190556D01*
X108289881Y-106333413D01*
X108289881Y-106428651D01*
X108242262Y-106571509D01*
X108147024Y-106666747D01*
X108051786Y-106714366D01*
X107861310Y-106761985D01*
X107718452Y-106761985D01*
X107527976Y-106714366D01*
X107432738Y-106666747D01*
X107337500Y-106571509D01*
X107289881Y-106428651D01*
X107289881Y-106333413D01*
X107337500Y-106190556D01*
X107385119Y-106142937D01*
X107385119Y-105761985D02*
X107337500Y-105714366D01*
X107289881Y-105619128D01*
X107289881Y-105381032D01*
X107337500Y-105285794D01*
X107385119Y-105238175D01*
X107480357Y-105190556D01*
X107575595Y-105190556D01*
X107718452Y-105238175D01*
X108289881Y-105809604D01*
X108289881Y-105190556D01*
X107289881Y-104857223D02*
X107289881Y-104190556D01*
X108289881Y-104619128D01*
X151474363Y-116534743D02*
X151426744Y-116582362D01*
X151283887Y-116629981D01*
X151188649Y-116629981D01*
X151045791Y-116582362D01*
X150950553Y-116487124D01*
X150902934Y-116391886D01*
X150855315Y-116201410D01*
X150855315Y-116058552D01*
X150902934Y-115868076D01*
X150950553Y-115772838D01*
X151045791Y-115677600D01*
X151188649Y-115629981D01*
X151283887Y-115629981D01*
X151426744Y-115677600D01*
X151474363Y-115725219D01*
X151855315Y-115725219D02*
X151902934Y-115677600D01*
X151998172Y-115629981D01*
X152236268Y-115629981D01*
X152331506Y-115677600D01*
X152379125Y-115725219D01*
X152426744Y-115820457D01*
X152426744Y-115915695D01*
X152379125Y-116058552D01*
X151807696Y-116629981D01*
X152426744Y-116629981D01*
X152998172Y-116058552D02*
X152902934Y-116010933D01*
X152855315Y-115963314D01*
X152807696Y-115868076D01*
X152807696Y-115820457D01*
X152855315Y-115725219D01*
X152902934Y-115677600D01*
X152998172Y-115629981D01*
X153188649Y-115629981D01*
X153283887Y-115677600D01*
X153331506Y-115725219D01*
X153379125Y-115820457D01*
X153379125Y-115868076D01*
X153331506Y-115963314D01*
X153283887Y-116010933D01*
X153188649Y-116058552D01*
X152998172Y-116058552D01*
X152902934Y-116106171D01*
X152855315Y-116153790D01*
X152807696Y-116249029D01*
X152807696Y-116439505D01*
X152855315Y-116534743D01*
X152902934Y-116582362D01*
X152998172Y-116629981D01*
X153188649Y-116629981D01*
X153283887Y-116582362D01*
X153331506Y-116534743D01*
X153379125Y-116439505D01*
X153379125Y-116249029D01*
X153331506Y-116153790D01*
X153283887Y-116106171D01*
X153188649Y-116058552D01*
X149291143Y-110112143D02*
X149243524Y-110159762D01*
X149100667Y-110207381D01*
X149005429Y-110207381D01*
X148862571Y-110159762D01*
X148767333Y-110064524D01*
X148719714Y-109969286D01*
X148672095Y-109778810D01*
X148672095Y-109635952D01*
X148719714Y-109445476D01*
X148767333Y-109350238D01*
X148862571Y-109255000D01*
X149005429Y-109207381D01*
X149100667Y-109207381D01*
X149243524Y-109255000D01*
X149291143Y-109302619D01*
X149672095Y-109302619D02*
X149719714Y-109255000D01*
X149814952Y-109207381D01*
X150053048Y-109207381D01*
X150148286Y-109255000D01*
X150195905Y-109302619D01*
X150243524Y-109397857D01*
X150243524Y-109493095D01*
X150195905Y-109635952D01*
X149624476Y-110207381D01*
X150243524Y-110207381D01*
X150719714Y-110207381D02*
X150910190Y-110207381D01*
X151005429Y-110159762D01*
X151053048Y-110112143D01*
X151148286Y-109969286D01*
X151195905Y-109778810D01*
X151195905Y-109397857D01*
X151148286Y-109302619D01*
X151100667Y-109255000D01*
X151005429Y-109207381D01*
X150814952Y-109207381D01*
X150719714Y-109255000D01*
X150672095Y-109302619D01*
X150624476Y-109397857D01*
X150624476Y-109635952D01*
X150672095Y-109731190D01*
X150719714Y-109778810D01*
X150814952Y-109826429D01*
X151005429Y-109826429D01*
X151100667Y-109778810D01*
X151148286Y-109731190D01*
X151195905Y-109635952D01*
X144522403Y-105462003D02*
X144474784Y-105509622D01*
X144331927Y-105557241D01*
X144236689Y-105557241D01*
X144093831Y-105509622D01*
X143998593Y-105414384D01*
X143950974Y-105319146D01*
X143903355Y-105128670D01*
X143903355Y-104985812D01*
X143950974Y-104795336D01*
X143998593Y-104700098D01*
X144093831Y-104604860D01*
X144236689Y-104557241D01*
X144331927Y-104557241D01*
X144474784Y-104604860D01*
X144522403Y-104652479D01*
X144855736Y-104557241D02*
X145474784Y-104557241D01*
X145141450Y-104938193D01*
X145284308Y-104938193D01*
X145379546Y-104985812D01*
X145427165Y-105033431D01*
X145474784Y-105128670D01*
X145474784Y-105366765D01*
X145427165Y-105462003D01*
X145379546Y-105509622D01*
X145284308Y-105557241D01*
X144998593Y-105557241D01*
X144903355Y-105509622D01*
X144855736Y-105462003D01*
X146331927Y-104890574D02*
X146331927Y-105557241D01*
X146093831Y-104509622D02*
X145855736Y-105223908D01*
X146474784Y-105223908D01*
X145921143Y-112316381D02*
X145921143Y-111316381D01*
X146159238Y-111316381D01*
X146302096Y-111364000D01*
X146397334Y-111459238D01*
X146444953Y-111554476D01*
X146492572Y-111744952D01*
X146492572Y-111887810D01*
X146444953Y-112078286D01*
X146397334Y-112173524D01*
X146302096Y-112268762D01*
X146159238Y-112316381D01*
X145921143Y-112316381D01*
X147397334Y-112316381D02*
X146921143Y-112316381D01*
X146921143Y-111316381D01*
X148254477Y-112316381D02*
X147683048Y-112316381D01*
X147968762Y-112316381D02*
X147968762Y-111316381D01*
X147873524Y-111459238D01*
X147778286Y-111554476D01*
X147683048Y-111602095D01*
X118354741Y-106617157D02*
X118354741Y-107093348D01*
X117354741Y-107093348D01*
X118354741Y-105760014D02*
X118354741Y-106331443D01*
X118354741Y-106045729D02*
X117354741Y-106045729D01*
X117497598Y-106140967D01*
X117592836Y-106236205D01*
X117640455Y-106331443D01*
X118354741Y-104807633D02*
X118354741Y-105379062D01*
X118354741Y-105093348D02*
X117354741Y-105093348D01*
X117497598Y-105188586D01*
X117592836Y-105283824D01*
X117640455Y-105379062D01*
X158981619Y-108644238D02*
X158934000Y-108739476D01*
X158838762Y-108834714D01*
X158695905Y-108977571D01*
X158648286Y-109072810D01*
X158648286Y-109168048D01*
X158886381Y-109120429D02*
X158838762Y-109215667D01*
X158743524Y-109310905D01*
X158553048Y-109358524D01*
X158219714Y-109358524D01*
X158029238Y-109310905D01*
X157934000Y-109215667D01*
X157886381Y-109120429D01*
X157886381Y-108929952D01*
X157934000Y-108834714D01*
X158029238Y-108739476D01*
X158219714Y-108691857D01*
X158553048Y-108691857D01*
X158743524Y-108739476D01*
X158838762Y-108834714D01*
X158886381Y-108929952D01*
X158886381Y-109120429D01*
X158886381Y-107739476D02*
X158886381Y-108310905D01*
X158886381Y-108025191D02*
X157886381Y-108025191D01*
X158029238Y-108120429D01*
X158124476Y-108215667D01*
X158172095Y-108310905D01*
X122123472Y-102765979D02*
X122028234Y-102718360D01*
X121932996Y-102623122D01*
X121790139Y-102480265D01*
X121694900Y-102432646D01*
X121599662Y-102432646D01*
X121647281Y-102670741D02*
X121552043Y-102623122D01*
X121456805Y-102527884D01*
X121409186Y-102337408D01*
X121409186Y-102004074D01*
X121456805Y-101813598D01*
X121552043Y-101718360D01*
X121647281Y-101670741D01*
X121837758Y-101670741D01*
X121932996Y-101718360D01*
X122028234Y-101813598D01*
X122075853Y-102004074D01*
X122075853Y-102337408D01*
X122028234Y-102527884D01*
X121932996Y-102623122D01*
X121837758Y-102670741D01*
X121647281Y-102670741D01*
X122409186Y-101670741D02*
X123075853Y-101670741D01*
X122409186Y-102670741D01*
X123075853Y-102670741D01*
X123980615Y-102670741D02*
X123409186Y-102670741D01*
X123694900Y-102670741D02*
X123694900Y-101670741D01*
X123599662Y-101813598D01*
X123504424Y-101908836D01*
X123409186Y-101956455D01*
X151191572Y-111602619D02*
X151096334Y-111555000D01*
X151001096Y-111459762D01*
X150858239Y-111316905D01*
X150763000Y-111269286D01*
X150667762Y-111269286D01*
X150715381Y-111507381D02*
X150620143Y-111459762D01*
X150524905Y-111364524D01*
X150477286Y-111174048D01*
X150477286Y-110840714D01*
X150524905Y-110650238D01*
X150620143Y-110555000D01*
X150715381Y-110507381D01*
X150905858Y-110507381D01*
X151001096Y-110555000D01*
X151096334Y-110650238D01*
X151143953Y-110840714D01*
X151143953Y-111174048D01*
X151096334Y-111364524D01*
X151001096Y-111459762D01*
X150905858Y-111507381D01*
X150715381Y-111507381D01*
X151477286Y-110507381D02*
X152143953Y-110507381D01*
X151477286Y-111507381D01*
X152143953Y-111507381D01*
X152429667Y-110507381D02*
X153048715Y-110507381D01*
X152715381Y-110888333D01*
X152858239Y-110888333D01*
X152953477Y-110935952D01*
X153001096Y-110983571D01*
X153048715Y-111078810D01*
X153048715Y-111316905D01*
X153001096Y-111412143D01*
X152953477Y-111459762D01*
X152858239Y-111507381D01*
X152572524Y-111507381D01*
X152477286Y-111459762D01*
X152429667Y-111412143D01*
X119444401Y-108371086D02*
X118968210Y-108704420D01*
X119444401Y-108942515D02*
X118444401Y-108942515D01*
X118444401Y-108561562D01*
X118492020Y-108466324D01*
X118539639Y-108418705D01*
X118634877Y-108371086D01*
X118777734Y-108371086D01*
X118872972Y-108418705D01*
X118920591Y-108466324D01*
X118968210Y-108561562D01*
X118968210Y-108942515D01*
X119444401Y-107418705D02*
X119444401Y-107990134D01*
X119444401Y-107704420D02*
X118444401Y-107704420D01*
X118587258Y-107799658D01*
X118682496Y-107894896D01*
X118730115Y-107990134D01*
X164963381Y-109622666D02*
X164487190Y-109956000D01*
X164963381Y-110194095D02*
X163963381Y-110194095D01*
X163963381Y-109813142D01*
X164011000Y-109717904D01*
X164058619Y-109670285D01*
X164153857Y-109622666D01*
X164296714Y-109622666D01*
X164391952Y-109670285D01*
X164439571Y-109717904D01*
X164487190Y-109813142D01*
X164487190Y-110194095D01*
X164058619Y-109241714D02*
X164011000Y-109194095D01*
X163963381Y-109098857D01*
X163963381Y-108860761D01*
X164011000Y-108765523D01*
X164058619Y-108717904D01*
X164153857Y-108670285D01*
X164249095Y-108670285D01*
X164391952Y-108717904D01*
X164963381Y-109289333D01*
X164963381Y-108670285D01*
X162340334Y-111352381D02*
X162007000Y-110876190D01*
X161768905Y-111352381D02*
X161768905Y-110352381D01*
X162149858Y-110352381D01*
X162245096Y-110400000D01*
X162292715Y-110447619D01*
X162340334Y-110542857D01*
X162340334Y-110685714D01*
X162292715Y-110780952D01*
X162245096Y-110828571D01*
X162149858Y-110876190D01*
X161768905Y-110876190D01*
X162673667Y-110352381D02*
X163292715Y-110352381D01*
X162959381Y-110733333D01*
X163102239Y-110733333D01*
X163197477Y-110780952D01*
X163245096Y-110828571D01*
X163292715Y-110923810D01*
X163292715Y-111161905D01*
X163245096Y-111257143D01*
X163197477Y-111304762D01*
X163102239Y-111352381D01*
X162816524Y-111352381D01*
X162721286Y-111304762D01*
X162673667Y-111257143D01*
X163852381Y-113443666D02*
X163376190Y-113777000D01*
X163852381Y-114015095D02*
X162852381Y-114015095D01*
X162852381Y-113634142D01*
X162900000Y-113538904D01*
X162947619Y-113491285D01*
X163042857Y-113443666D01*
X163185714Y-113443666D01*
X163280952Y-113491285D01*
X163328571Y-113538904D01*
X163376190Y-113634142D01*
X163376190Y-114015095D01*
X163185714Y-112586523D02*
X163852381Y-112586523D01*
X162804762Y-112824619D02*
X163519048Y-113062714D01*
X163519048Y-112443666D01*
X145681641Y-106437526D02*
X145205450Y-106770860D01*
X145681641Y-107008955D02*
X144681641Y-107008955D01*
X144681641Y-106628002D01*
X144729260Y-106532764D01*
X144776879Y-106485145D01*
X144872117Y-106437526D01*
X145014974Y-106437526D01*
X145110212Y-106485145D01*
X145157831Y-106532764D01*
X145205450Y-106628002D01*
X145205450Y-107008955D01*
X145681641Y-105961336D02*
X145681641Y-105770860D01*
X145634022Y-105675621D01*
X145586403Y-105628002D01*
X145443546Y-105532764D01*
X145253070Y-105485145D01*
X144872117Y-105485145D01*
X144776879Y-105532764D01*
X144729260Y-105580383D01*
X144681641Y-105675621D01*
X144681641Y-105866098D01*
X144729260Y-105961336D01*
X144776879Y-106008955D01*
X144872117Y-106056574D01*
X145110212Y-106056574D01*
X145205450Y-106008955D01*
X145253070Y-105961336D01*
X145300689Y-105866098D01*
X145300689Y-105675621D01*
X145253070Y-105580383D01*
X145205450Y-105532764D01*
X145110212Y-105485145D01*
X150383381Y-112554857D02*
X149907190Y-112888191D01*
X150383381Y-113126286D02*
X149383381Y-113126286D01*
X149383381Y-112745333D01*
X149431000Y-112650095D01*
X149478619Y-112602476D01*
X149573857Y-112554857D01*
X149716714Y-112554857D01*
X149811952Y-112602476D01*
X149859571Y-112650095D01*
X149907190Y-112745333D01*
X149907190Y-113126286D01*
X150383381Y-111602476D02*
X150383381Y-112173905D01*
X150383381Y-111888191D02*
X149383381Y-111888191D01*
X149526238Y-111983429D01*
X149621476Y-112078667D01*
X149669095Y-112173905D01*
X149383381Y-110983429D02*
X149383381Y-110888190D01*
X149431000Y-110792952D01*
X149478619Y-110745333D01*
X149573857Y-110697714D01*
X149764333Y-110650095D01*
X150002429Y-110650095D01*
X150192905Y-110697714D01*
X150288143Y-110745333D01*
X150335762Y-110792952D01*
X150383381Y-110888190D01*
X150383381Y-110983429D01*
X150335762Y-111078667D01*
X150288143Y-111126286D01*
X150192905Y-111173905D01*
X150002429Y-111221524D01*
X149764333Y-111221524D01*
X149573857Y-111173905D01*
X149478619Y-111126286D01*
X149431000Y-111078667D01*
X149383381Y-110983429D01*
X121745641Y-105735357D02*
X121269450Y-106068691D01*
X121745641Y-106306786D02*
X120745641Y-106306786D01*
X120745641Y-105925833D01*
X120793260Y-105830595D01*
X120840879Y-105782976D01*
X120936117Y-105735357D01*
X121078974Y-105735357D01*
X121174212Y-105782976D01*
X121221831Y-105830595D01*
X121269450Y-105925833D01*
X121269450Y-106306786D01*
X121745641Y-104782976D02*
X121745641Y-105354405D01*
X121745641Y-105068691D02*
X120745641Y-105068691D01*
X120888498Y-105163929D01*
X120983736Y-105259167D01*
X121031355Y-105354405D01*
X120745641Y-103878214D02*
X120745641Y-104354405D01*
X121221831Y-104402024D01*
X121174212Y-104354405D01*
X121126593Y-104259167D01*
X121126593Y-104021071D01*
X121174212Y-103925833D01*
X121221831Y-103878214D01*
X121317070Y-103830595D01*
X121555165Y-103830595D01*
X121650403Y-103878214D01*
X121698022Y-103925833D01*
X121745641Y-104021071D01*
X121745641Y-104259167D01*
X121698022Y-104354405D01*
X121650403Y-104402024D01*
X152168381Y-105069857D02*
X151692190Y-105403191D01*
X152168381Y-105641286D02*
X151168381Y-105641286D01*
X151168381Y-105260333D01*
X151216000Y-105165095D01*
X151263619Y-105117476D01*
X151358857Y-105069857D01*
X151501714Y-105069857D01*
X151596952Y-105117476D01*
X151644571Y-105165095D01*
X151692190Y-105260333D01*
X151692190Y-105641286D01*
X151168381Y-104736524D02*
X151168381Y-104117476D01*
X151549333Y-104450810D01*
X151549333Y-104307952D01*
X151596952Y-104212714D01*
X151644571Y-104165095D01*
X151739810Y-104117476D01*
X151977905Y-104117476D01*
X152073143Y-104165095D01*
X152120762Y-104212714D01*
X152168381Y-104307952D01*
X152168381Y-104593667D01*
X152120762Y-104688905D01*
X152073143Y-104736524D01*
X151263619Y-103736524D02*
X151216000Y-103688905D01*
X151168381Y-103593667D01*
X151168381Y-103355571D01*
X151216000Y-103260333D01*
X151263619Y-103212714D01*
X151358857Y-103165095D01*
X151454095Y-103165095D01*
X151596952Y-103212714D01*
X152168381Y-103784143D01*
X152168381Y-103165095D01*
X121584975Y-106843681D02*
X121584975Y-107653205D01*
X121632594Y-107748443D01*
X121680213Y-107796062D01*
X121775451Y-107843681D01*
X121965928Y-107843681D01*
X122061166Y-107796062D01*
X122108785Y-107748443D01*
X122156404Y-107653205D01*
X122156404Y-106843681D01*
X123156404Y-107843681D02*
X122584975Y-107843681D01*
X122870689Y-107843681D02*
X122870689Y-106843681D01*
X122775451Y-106986538D01*
X122680213Y-107081776D01*
X122584975Y-107129395D01*
X153008095Y-111609381D02*
X153008095Y-112418905D01*
X153055714Y-112514143D01*
X153103333Y-112561762D01*
X153198571Y-112609381D01*
X153389048Y-112609381D01*
X153484286Y-112561762D01*
X153531905Y-112514143D01*
X153579524Y-112418905D01*
X153579524Y-111609381D01*
X154008095Y-111704619D02*
X154055714Y-111657000D01*
X154150952Y-111609381D01*
X154389048Y-111609381D01*
X154484286Y-111657000D01*
X154531905Y-111704619D01*
X154579524Y-111799857D01*
X154579524Y-111895095D01*
X154531905Y-112037952D01*
X153960476Y-112609381D01*
X154579524Y-112609381D01*
X156510625Y-110121521D02*
X156510625Y-109121521D01*
X156891578Y-109121521D01*
X156986816Y-109169140D01*
X157034435Y-109216759D01*
X157082054Y-109311997D01*
X157082054Y-109454854D01*
X157034435Y-109550092D01*
X156986816Y-109597711D01*
X156891578Y-109645330D01*
X156510625Y-109645330D01*
X157463006Y-109216759D02*
X157510625Y-109169140D01*
X157605863Y-109121521D01*
X157843959Y-109121521D01*
X157939197Y-109169140D01*
X157986816Y-109216759D01*
X158034435Y-109311997D01*
X158034435Y-109407235D01*
X157986816Y-109550092D01*
X157415387Y-110121521D01*
X158034435Y-110121521D01*
X125770401Y-108891455D02*
X124770401Y-108891455D01*
X124770401Y-108510502D01*
X124818020Y-108415264D01*
X124865639Y-108367645D01*
X124960877Y-108320026D01*
X125103734Y-108320026D01*
X125198972Y-108367645D01*
X125246591Y-108415264D01*
X125294210Y-108510502D01*
X125294210Y-108891455D01*
X125770401Y-107367645D02*
X125770401Y-107939074D01*
X125770401Y-107653360D02*
X124770401Y-107653360D01*
X124913258Y-107748598D01*
X125008496Y-107843836D01*
X125056115Y-107939074D01*
X159825394Y-113905701D02*
X159492060Y-113429510D01*
X159253965Y-113905701D02*
X159253965Y-112905701D01*
X159634918Y-112905701D01*
X159730156Y-112953320D01*
X159777775Y-113000939D01*
X159825394Y-113096177D01*
X159825394Y-113239034D01*
X159777775Y-113334272D01*
X159730156Y-113381891D01*
X159634918Y-113429510D01*
X159253965Y-113429510D01*
X160730156Y-112905701D02*
X160253965Y-112905701D01*
X160206346Y-113381891D01*
X160253965Y-113334272D01*
X160349203Y-113286653D01*
X160587299Y-113286653D01*
X160682537Y-113334272D01*
X160730156Y-113381891D01*
X160777775Y-113477130D01*
X160777775Y-113715225D01*
X160730156Y-113810463D01*
X160682537Y-113858082D01*
X160587299Y-113905701D01*
X160349203Y-113905701D01*
X160253965Y-113858082D01*
X160206346Y-113810463D01*
X107376912Y-104795427D02*
X107853103Y-104795427D01*
X107281674Y-105081141D02*
X107615007Y-104081141D01*
X107948341Y-105081141D01*
X108281674Y-105081141D02*
X108281674Y-104081141D01*
X108853103Y-105081141D01*
X108853103Y-104081141D01*
X109186436Y-104081141D02*
X109757865Y-104081141D01*
X109472150Y-105081141D02*
X109472150Y-104081141D01*
X110615008Y-105081141D02*
X110043579Y-105081141D01*
X110329293Y-105081141D02*
X110329293Y-104081141D01*
X110234055Y-104223998D01*
X110138817Y-104319236D01*
X110043579Y-104366855D01*
X116931794Y-109876441D02*
X116455603Y-109876441D01*
X116455603Y-108876441D01*
X117217508Y-108971679D02*
X117265127Y-108924060D01*
X117360365Y-108876441D01*
X117598461Y-108876441D01*
X117693699Y-108924060D01*
X117741318Y-108971679D01*
X117788937Y-109066917D01*
X117788937Y-109162155D01*
X117741318Y-109305012D01*
X117169889Y-109876441D01*
X117788937Y-109876441D01*
X112666875Y-109173781D02*
X112666875Y-109983305D01*
X112714494Y-110078543D01*
X112762113Y-110126162D01*
X112857351Y-110173781D01*
X113047828Y-110173781D01*
X113143066Y-110126162D01*
X113190685Y-110078543D01*
X113238304Y-109983305D01*
X113238304Y-109173781D01*
X114190685Y-109173781D02*
X113714494Y-109173781D01*
X113666875Y-109649971D01*
X113714494Y-109602352D01*
X113809732Y-109554733D01*
X114047828Y-109554733D01*
X114143066Y-109602352D01*
X114190685Y-109649971D01*
X114238304Y-109745210D01*
X114238304Y-109983305D01*
X114190685Y-110078543D01*
X114143066Y-110126162D01*
X114047828Y-110173781D01*
X113809732Y-110173781D01*
X113714494Y-110126162D01*
X113666875Y-110078543D01*
X116411094Y-103292761D02*
X115934903Y-103292761D01*
X115934903Y-102292761D01*
X117172999Y-102626094D02*
X117172999Y-103292761D01*
X116934903Y-102245142D02*
X116696808Y-102959428D01*
X117315856Y-102959428D01*
X120460401Y-105249426D02*
X120460401Y-105725617D01*
X119460401Y-105725617D01*
X119460401Y-104439902D02*
X119460401Y-104916093D01*
X119936591Y-104963712D01*
X119888972Y-104916093D01*
X119841353Y-104820855D01*
X119841353Y-104582759D01*
X119888972Y-104487521D01*
X119936591Y-104439902D01*
X120031830Y-104392283D01*
X120269925Y-104392283D01*
X120365163Y-104439902D01*
X120412782Y-104487521D01*
X120460401Y-104582759D01*
X120460401Y-104820855D01*
X120412782Y-104916093D01*
X120365163Y-104963712D01*
X118140561Y-107481666D02*
X118140561Y-107957857D01*
X117140561Y-107957857D01*
X118140561Y-106624523D02*
X118140561Y-107195952D01*
X118140561Y-106910238D02*
X117140561Y-106910238D01*
X117283418Y-107005476D01*
X117378656Y-107100714D01*
X117426275Y-107195952D01*
X109828034Y-105357781D02*
X109351843Y-105357781D01*
X109351843Y-104357781D01*
X110066129Y-104357781D02*
X110685177Y-104357781D01*
X110351843Y-104738733D01*
X110494701Y-104738733D01*
X110589939Y-104786352D01*
X110637558Y-104833971D01*
X110685177Y-104929210D01*
X110685177Y-105167305D01*
X110637558Y-105262543D01*
X110589939Y-105310162D01*
X110494701Y-105357781D01*
X110208986Y-105357781D01*
X110113748Y-105310162D01*
X110066129Y-105262543D01*
X168411334Y-110420143D02*
X168363715Y-110467762D01*
X168220858Y-110515381D01*
X168125620Y-110515381D01*
X167982762Y-110467762D01*
X167887524Y-110372524D01*
X167839905Y-110277286D01*
X167792286Y-110086810D01*
X167792286Y-109943952D01*
X167839905Y-109753476D01*
X167887524Y-109658238D01*
X167982762Y-109563000D01*
X168125620Y-109515381D01*
X168220858Y-109515381D01*
X168363715Y-109563000D01*
X168411334Y-109610619D01*
X169268477Y-109848714D02*
X169268477Y-110515381D01*
X169030381Y-109467762D02*
X168792286Y-110182048D01*
X169411334Y-110182048D01*
X129508603Y-113666566D02*
X129556222Y-113714185D01*
X129603841Y-113857042D01*
X129603841Y-113952280D01*
X129556222Y-114095138D01*
X129460984Y-114190376D01*
X129365746Y-114237995D01*
X129175270Y-114285614D01*
X129032412Y-114285614D01*
X128841936Y-114237995D01*
X128746698Y-114190376D01*
X128651460Y-114095138D01*
X128603841Y-113952280D01*
X128603841Y-113857042D01*
X128651460Y-113714185D01*
X128699079Y-113666566D01*
X128699079Y-113285614D02*
X128651460Y-113237995D01*
X128603841Y-113142757D01*
X128603841Y-112904661D01*
X128651460Y-112809423D01*
X128699079Y-112761804D01*
X128794317Y-112714185D01*
X128889555Y-112714185D01*
X129032412Y-112761804D01*
X129603841Y-113333233D01*
X129603841Y-112714185D01*
M02*
