G04 #@! TF.FileFunction,Copper,L2,Bot,Signal*
%FSLAX46Y46*%
G04 Gerber Fmt 4.6, Leading zero omitted, Abs format (unit mm)*
G04 Created by KiCad (PCBNEW 4.0.2+dfsg1-stable) date mar 18 dic 2018 09:18:01 CET*
%MOMM*%
G01*
G04 APERTURE LIST*
%ADD10C,0.100000*%
%ADD11C,0.200000*%
%ADD12R,0.800000X0.800000*%
%ADD13O,0.800000X0.800000*%
%ADD14C,4.000000*%
%ADD15R,1.000000X1.000000*%
%ADD16C,1.000000*%
%ADD17C,0.600000*%
%ADD18C,0.250000*%
%ADD19C,0.500000*%
%ADD20C,0.226060*%
G04 APERTURE END LIST*
D10*
D11*
X173690280Y-115443000D02*
X98295460Y-115443000D01*
X195072000Y-115443000D02*
X179682660Y-115443000D01*
X179682660Y-112410240D02*
X179682660Y-115443000D01*
X173692820Y-112410240D02*
X179682660Y-112410240D01*
X173692820Y-112410240D02*
X173692820Y-115437920D01*
X173776640Y-99949000D02*
X98298000Y-99949000D01*
X195072000Y-99949000D02*
X179778660Y-99949000D01*
X179778660Y-99949000D02*
X179778660Y-103047800D01*
X173776640Y-103047800D02*
X179778660Y-103047800D01*
X173776640Y-99949000D02*
X173776640Y-103047800D01*
X98298000Y-115443000D02*
X98298000Y-99949000D01*
X195072000Y-99949000D02*
X195072000Y-115443000D01*
D12*
X127000000Y-102631240D03*
D13*
X128250000Y-102631240D03*
D14*
X131999000Y-107787000D03*
X138899000Y-107787000D03*
X174999000Y-107771760D03*
X181899000Y-107771760D03*
D15*
X145549000Y-104470200D03*
D16*
X143049000Y-104470200D03*
X140549000Y-104470200D03*
X138049000Y-104470200D03*
X135549000Y-104470200D03*
X133049000Y-104470200D03*
X130549000Y-104470200D03*
X128049000Y-104470200D03*
D12*
X127668020Y-106278360D03*
D13*
X127668020Y-107528360D03*
X127668020Y-108778360D03*
X127668020Y-110028360D03*
D17*
X121788080Y-110213300D03*
X122905680Y-110213300D03*
X121788080Y-111229300D03*
X122905680Y-111229300D03*
X154989200Y-109626200D03*
X153770000Y-109626200D03*
X152550800Y-109626200D03*
X154989200Y-108457800D03*
X153770000Y-108457800D03*
X152550800Y-108457800D03*
X154989200Y-107340200D03*
X153770000Y-107340200D03*
X152550800Y-107340200D03*
X126573280Y-104533620D03*
X118511320Y-101518720D03*
X118247160Y-103367840D03*
X118313200Y-102674420D03*
X117586760Y-101122480D03*
X117058440Y-102178700D03*
X115143280Y-103070660D03*
X115638580Y-101056440D03*
X114515900Y-101551740D03*
X113657380Y-102674420D03*
X112336580Y-102806500D03*
X112996980Y-103830120D03*
X110583980Y-104247860D03*
X112369600Y-101122480D03*
X111376460Y-101782880D03*
X110716060Y-102905560D03*
X109395260Y-101155500D03*
X108470700Y-102618540D03*
X109329220Y-103972360D03*
X108404660Y-105128060D03*
X115605560Y-112194340D03*
X117751860Y-112326420D03*
X119766080Y-112557560D03*
X121020840Y-114802920D03*
X118544340Y-114736880D03*
X115704620Y-114736880D03*
X113657380Y-114736880D03*
X111112300Y-114472720D03*
X110352840Y-113482120D03*
X109263180Y-113878360D03*
X108767880Y-112953800D03*
X110220760Y-112392460D03*
X108305600Y-111732060D03*
X109395260Y-110873540D03*
X108305600Y-109882940D03*
X110055660Y-109816900D03*
X109296200Y-109321600D03*
X108371640Y-108430060D03*
X109197140Y-107868720D03*
X128998980Y-105671620D03*
X154371859Y-113954947D03*
X131975860Y-110604300D03*
X148569680Y-107055920D03*
X154043380Y-111930380D03*
X149463760Y-113253520D03*
X159004000Y-112471200D03*
X152483820Y-103979980D03*
X111498380Y-106677460D03*
X111285020Y-111406940D03*
X152219266Y-112826796D03*
X151250096Y-111714787D03*
X147024095Y-106394245D03*
X150497540Y-109801660D03*
X141655800Y-106687620D03*
X149432223Y-109620255D03*
X125907800Y-109453680D03*
X144518380Y-109964220D03*
X145707100Y-111394060D03*
X125867988Y-110403640D03*
X157446980Y-108031980D03*
X158282640Y-107431840D03*
X149894701Y-110327592D03*
X146900900Y-110291880D03*
X143057880Y-109369860D03*
X144600837Y-113923900D03*
X141544220Y-111424720D03*
X162900360Y-111663480D03*
X128816100Y-109278420D03*
X128791557Y-110137789D03*
X142580360Y-112019080D03*
X159092297Y-110920169D03*
X146692620Y-112138460D03*
X155539360Y-112288500D03*
X125072140Y-108783120D03*
X154244040Y-101406960D03*
X125775720Y-106428540D03*
X150208734Y-105637989D03*
X125171380Y-104196058D03*
X147914180Y-108968729D03*
X121114820Y-107627420D03*
D18*
X126636700Y-104470200D02*
X126573280Y-104533620D01*
X128049000Y-104470200D02*
X126636700Y-104470200D01*
X118511320Y-101518720D02*
X119807900Y-101518720D01*
X119807900Y-101518720D02*
X120096280Y-101230340D01*
X118313200Y-102674420D02*
X118313200Y-103301800D01*
X118313200Y-103301800D02*
X118247160Y-103367840D01*
X117058440Y-102178700D02*
X117058440Y-101650800D01*
X117058440Y-101650800D02*
X117586760Y-101122480D01*
X115143280Y-103070660D02*
X116166480Y-103070660D01*
X116166480Y-103070660D02*
X117058440Y-102178700D01*
X114515900Y-101551740D02*
X115143280Y-101551740D01*
X115143280Y-101551740D02*
X115638580Y-101056440D01*
X112336580Y-102806500D02*
X113525300Y-102806500D01*
X113525300Y-102806500D02*
X113657380Y-102674420D01*
X112930940Y-105415080D02*
X112930940Y-103896160D01*
X112930940Y-103896160D02*
X112996980Y-103830120D01*
X112369600Y-101122480D02*
X112369600Y-102462240D01*
X112369600Y-102462240D02*
X110583980Y-104247860D01*
X110716060Y-102905560D02*
X110716060Y-102443280D01*
X110716060Y-102443280D02*
X111376460Y-101782880D01*
X108470700Y-102618540D02*
X108470700Y-102080060D01*
X108470700Y-102080060D02*
X109395260Y-101155500D01*
X108404660Y-105128060D02*
X108404660Y-104896920D01*
X108404660Y-104896920D02*
X109329220Y-103972360D01*
X119766080Y-112557560D02*
X117983000Y-112557560D01*
X117983000Y-112557560D02*
X117751860Y-112326420D01*
X118544340Y-114736880D02*
X120954800Y-114736880D01*
X120954800Y-114736880D02*
X121020840Y-114802920D01*
X113657380Y-114736880D02*
X115704620Y-114736880D01*
X110352840Y-113482120D02*
X110352840Y-113713260D01*
X110352840Y-113713260D02*
X111112300Y-114472720D01*
X108767880Y-112953800D02*
X108767880Y-113383060D01*
X108767880Y-113383060D02*
X109263180Y-113878360D01*
X108305600Y-111732060D02*
X109560360Y-111732060D01*
X109560360Y-111732060D02*
X110220760Y-112392460D01*
X108305600Y-109882940D02*
X108404660Y-109882940D01*
X108404660Y-109882940D02*
X109395260Y-110873540D01*
X109296200Y-109321600D02*
X109560360Y-109321600D01*
X109560360Y-109321600D02*
X110055660Y-109816900D01*
X109197140Y-107868720D02*
X108932980Y-107868720D01*
X108932980Y-107868720D02*
X108371640Y-108430060D01*
X128998980Y-105671620D02*
X128698981Y-105971619D01*
X128698981Y-105971619D02*
X128698981Y-106632401D01*
X128698981Y-106632401D02*
X128203021Y-107128361D01*
X128203021Y-107128361D02*
X128068019Y-107128361D01*
X128068019Y-107128361D02*
X127668020Y-107528360D01*
X127668020Y-107528360D02*
X128164442Y-107528360D01*
X128164442Y-107528360D02*
X128231900Y-107460902D01*
X154464329Y-114007669D02*
X154371859Y-113954947D01*
X154371859Y-113954947D02*
X154764328Y-113707670D01*
X131975860Y-110604300D02*
X131675861Y-110304301D01*
X131675861Y-110304301D02*
X131075299Y-110304301D01*
X131075299Y-110304301D02*
X128231900Y-107460902D01*
X146299000Y-104470200D02*
X148569680Y-106740880D01*
X145549000Y-104470200D02*
X146299000Y-104470200D01*
X148569680Y-106740880D02*
X148569680Y-107055920D01*
X150142024Y-113507520D02*
X152466240Y-113507520D01*
X152466240Y-113507520D02*
X154043380Y-111930380D01*
X149463760Y-113253520D02*
X149888024Y-113253520D01*
X149888024Y-113253520D02*
X150142024Y-113507520D01*
X159423100Y-106763521D02*
X159423100Y-108460540D01*
X159423100Y-105161080D02*
X159423100Y-106763521D01*
X158242000Y-103979980D02*
X159423100Y-105161080D01*
X152483820Y-103979980D02*
X158242000Y-103979980D01*
X154764328Y-113707670D02*
X159004000Y-113707670D01*
X159004000Y-113707670D02*
X169063090Y-113707670D01*
X159004000Y-112471200D02*
X159004000Y-112895464D01*
X159004000Y-112895464D02*
X159004000Y-113707670D01*
D19*
X169063090Y-113707670D02*
X172999001Y-109771759D01*
X172999001Y-109771759D02*
X174999000Y-107771760D01*
D18*
X152483820Y-103979980D02*
X171207220Y-103979980D01*
D19*
X171207220Y-103979980D02*
X174999000Y-107771760D01*
D18*
X127810260Y-107528360D02*
X127668020Y-107528360D01*
X117983000Y-109684820D02*
X117983000Y-112323880D01*
X117983000Y-112323880D02*
X118000780Y-112341660D01*
X112138460Y-112222280D02*
X110474760Y-112222280D01*
X110474760Y-112222280D02*
X110456980Y-112240060D01*
X111285020Y-111406940D02*
X111285020Y-106890820D01*
X111285020Y-106890820D02*
X111498380Y-106677460D01*
X152219266Y-112683957D02*
X152219266Y-112826796D01*
X151250096Y-111714787D02*
X152219266Y-112683957D01*
X148376802Y-107680922D02*
X148310772Y-107680922D01*
X150497540Y-109801660D02*
X148376802Y-107680922D01*
X148310772Y-107680922D02*
X147324094Y-106694244D01*
X147324094Y-106694244D02*
X147024095Y-106394245D01*
X133049000Y-104470200D02*
X134040799Y-105461999D01*
X134040799Y-105461999D02*
X140430179Y-105461999D01*
X140430179Y-105461999D02*
X141655800Y-106687620D01*
X149132224Y-109320256D02*
X149432223Y-109620255D01*
X149132224Y-109072754D02*
X149132224Y-109320256D01*
X148190403Y-108130933D02*
X149132224Y-109072754D01*
X146709733Y-108130933D02*
X148190403Y-108130933D01*
X143049000Y-104470200D02*
X146709733Y-108130933D01*
X146555903Y-109620255D02*
X149007959Y-109620255D01*
X126493008Y-110562761D02*
X129181658Y-113251411D01*
X142924747Y-113251411D02*
X146555903Y-109620255D01*
X149007959Y-109620255D02*
X149432223Y-109620255D01*
X125907800Y-109453680D02*
X126493008Y-110038888D01*
X129181658Y-113251411D02*
X142924747Y-113251411D01*
X126493008Y-110038888D02*
X126493008Y-110562761D01*
X144518380Y-109539956D02*
X144518380Y-109964220D01*
X144518380Y-108439580D02*
X144518380Y-109539956D01*
X140549000Y-104470200D02*
X144518380Y-108439580D01*
X142915891Y-114185269D02*
X145707100Y-111394060D01*
X129479105Y-114185269D02*
X142915891Y-114185269D01*
X125895100Y-110403640D02*
X125895100Y-110601264D01*
X125867988Y-110403640D02*
X125895100Y-110403640D01*
X125895100Y-110601264D02*
X129479105Y-114185269D01*
X146421339Y-103645199D02*
X149405340Y-106629200D01*
X149489160Y-106713020D02*
X149405340Y-106629200D01*
X157446980Y-108031980D02*
X156128020Y-106713020D01*
X156128020Y-106713020D02*
X149489160Y-106713020D01*
X138049000Y-104470200D02*
X138874001Y-103645199D01*
X138874001Y-103645199D02*
X146421339Y-103645199D01*
X158282640Y-107431840D02*
X157113809Y-106263009D01*
X136048999Y-103970201D02*
X135549000Y-104470200D01*
X146654588Y-103195188D02*
X136824012Y-103195188D01*
X149722408Y-106263009D02*
X146654588Y-103195188D01*
X157113809Y-106263009D02*
X149722408Y-106263009D01*
X136824012Y-103195188D02*
X136048999Y-103970201D01*
X149858989Y-110291880D02*
X149894701Y-110327592D01*
X146900900Y-110291880D02*
X149858989Y-110291880D01*
X130549000Y-104470200D02*
X131374001Y-105295201D01*
X131374001Y-105295201D02*
X132966199Y-105295201D01*
X142315739Y-110112001D02*
X143057880Y-109369860D01*
X132966199Y-105295201D02*
X137782999Y-110112001D01*
X137782999Y-110112001D02*
X142315739Y-110112001D01*
X152705056Y-113957531D02*
X145058732Y-113957531D01*
X153782652Y-112879935D02*
X152705056Y-113957531D01*
X162900360Y-111663480D02*
X155261451Y-111663480D01*
X155261451Y-111663480D02*
X154044996Y-112879935D01*
X145025101Y-113923900D02*
X144600837Y-113923900D01*
X154044996Y-112879935D02*
X153782652Y-112879935D01*
X145058732Y-113957531D02*
X145025101Y-113923900D01*
X130962400Y-111424720D02*
X141119956Y-111424720D01*
X128816100Y-109278420D02*
X130962400Y-111424720D01*
X141119956Y-111424720D02*
X141544220Y-111424720D01*
X142580360Y-112019080D02*
X142280361Y-112319079D01*
X129091556Y-110437788D02*
X128791557Y-110137789D01*
X130972847Y-112319079D02*
X129091556Y-110437788D01*
X142280361Y-112319079D02*
X130972847Y-112319079D01*
X146692620Y-112138460D02*
X149009483Y-112138460D01*
X149009483Y-112138460D02*
X150227774Y-110920169D01*
X150227774Y-110920169D02*
X158668033Y-110920169D01*
X158668033Y-110920169D02*
X159092297Y-110920169D01*
X154497914Y-113329946D02*
X155239361Y-112588499D01*
X155239361Y-112588499D02*
X155539360Y-112288500D01*
X152766524Y-114635280D02*
X154071858Y-113329946D01*
X129181860Y-114635280D02*
X152766524Y-114635280D01*
X125072140Y-110525560D02*
X129181860Y-114635280D01*
X125072140Y-108783120D02*
X125072140Y-110525560D01*
X154071858Y-113329946D02*
X154497914Y-113329946D01*
X124444760Y-104810560D02*
X124444760Y-103165067D01*
X124444760Y-103165067D02*
X126202867Y-101406960D01*
X126202867Y-101406960D02*
X154244040Y-101406960D01*
X125475721Y-105841521D02*
X124444760Y-104810560D01*
X125775720Y-106428540D02*
X125475721Y-106128541D01*
X125475721Y-106128541D02*
X125475721Y-105841521D01*
X149908735Y-105337990D02*
X150208734Y-105637989D01*
X146476984Y-101906239D02*
X149908735Y-105337990D01*
X126339999Y-101906239D02*
X146476984Y-101906239D01*
X125171380Y-103074858D02*
X126339999Y-101906239D01*
X125171380Y-104196058D02*
X125171380Y-103074858D01*
X146571018Y-108968729D02*
X147489916Y-108968729D01*
X142738347Y-112801400D02*
X146571018Y-108968729D01*
X129368058Y-112801400D02*
X142738347Y-112801400D01*
X126943019Y-110376361D02*
X129368058Y-112801400D01*
X147489916Y-108968729D02*
X147914180Y-108968729D01*
X121114820Y-107627420D02*
X125444078Y-107627420D01*
X125444078Y-107627420D02*
X126943019Y-109126361D01*
X126943019Y-109126361D02*
X126943019Y-110376361D01*
D20*
G36*
X173055610Y-103047800D02*
X173110495Y-103323726D01*
X173266795Y-103557645D01*
X173500714Y-103713945D01*
X173631029Y-103739866D01*
X173624712Y-104943721D01*
X173330974Y-105052220D01*
X173124798Y-105189982D01*
X172943579Y-105714543D01*
X173617132Y-106388096D01*
X173617113Y-106391669D01*
X172941783Y-105716339D01*
X172417222Y-105897558D01*
X171896522Y-107028227D01*
X171848146Y-108272092D01*
X172279460Y-109439786D01*
X172417222Y-109645962D01*
X172941783Y-109827181D01*
X173602552Y-109166412D01*
X173602534Y-109170022D01*
X172943579Y-109828977D01*
X173124798Y-110353538D01*
X173595186Y-110570163D01*
X173589206Y-111709820D01*
X173416894Y-111744095D01*
X173182975Y-111900395D01*
X173026675Y-112134314D01*
X172971790Y-112410240D01*
X172971790Y-114721970D01*
X153734880Y-114721970D01*
X154380874Y-114075976D01*
X154497914Y-114075976D01*
X154783408Y-114019188D01*
X155025437Y-113857469D01*
X155673259Y-113209647D01*
X155721760Y-113209689D01*
X156060400Y-113069766D01*
X156319716Y-112810903D01*
X156460230Y-112472508D01*
X156460285Y-112409510D01*
X162343691Y-112409510D01*
X162377957Y-112443836D01*
X162716352Y-112584350D01*
X163082760Y-112584669D01*
X163421400Y-112444746D01*
X163680716Y-112185883D01*
X163821230Y-111847488D01*
X163821549Y-111481080D01*
X163681626Y-111142440D01*
X163422763Y-110883124D01*
X163084368Y-110742610D01*
X162717960Y-110742291D01*
X162379320Y-110882214D01*
X162344022Y-110917450D01*
X160013330Y-110917450D01*
X160013486Y-110737769D01*
X159873563Y-110399129D01*
X159614700Y-110139813D01*
X159276305Y-109999299D01*
X158909897Y-109998980D01*
X158571257Y-110138903D01*
X158535959Y-110174139D01*
X155743975Y-110174139D01*
X155769556Y-110148603D01*
X155910070Y-109810208D01*
X155910389Y-109443800D01*
X155770466Y-109105160D01*
X155707533Y-109042117D01*
X155769556Y-108980203D01*
X155910070Y-108641808D01*
X155910389Y-108275400D01*
X155770466Y-107936760D01*
X155732933Y-107899162D01*
X155769556Y-107862603D01*
X155902468Y-107542514D01*
X156525833Y-108165879D01*
X156525791Y-108214380D01*
X156665714Y-108553020D01*
X156924577Y-108812336D01*
X157262972Y-108952850D01*
X157629380Y-108953169D01*
X157968020Y-108813246D01*
X158227336Y-108554383D01*
X158311001Y-108352895D01*
X158465040Y-108353029D01*
X158803680Y-108213106D01*
X159062996Y-107954243D01*
X159203510Y-107615848D01*
X159203829Y-107249440D01*
X159063906Y-106910800D01*
X158805043Y-106651484D01*
X158466648Y-106510970D01*
X158416773Y-106510927D01*
X157641332Y-105735486D01*
X157399303Y-105573767D01*
X157113809Y-105516979D01*
X151129870Y-105516979D01*
X151129923Y-105455589D01*
X150990000Y-105116949D01*
X150731137Y-104857633D01*
X150392742Y-104717119D01*
X150342867Y-104717076D01*
X147778781Y-102152990D01*
X153687371Y-102152990D01*
X153721637Y-102187316D01*
X154060032Y-102327830D01*
X154426440Y-102328149D01*
X154765080Y-102188226D01*
X155024396Y-101929363D01*
X155164910Y-101590968D01*
X155165229Y-101224560D01*
X155025306Y-100885920D01*
X154809793Y-100670030D01*
X173055610Y-100670030D01*
X173055610Y-103047800D01*
X173055610Y-103047800D01*
G37*
X173055610Y-103047800D02*
X173110495Y-103323726D01*
X173266795Y-103557645D01*
X173500714Y-103713945D01*
X173631029Y-103739866D01*
X173624712Y-104943721D01*
X173330974Y-105052220D01*
X173124798Y-105189982D01*
X172943579Y-105714543D01*
X173617132Y-106388096D01*
X173617113Y-106391669D01*
X172941783Y-105716339D01*
X172417222Y-105897558D01*
X171896522Y-107028227D01*
X171848146Y-108272092D01*
X172279460Y-109439786D01*
X172417222Y-109645962D01*
X172941783Y-109827181D01*
X173602552Y-109166412D01*
X173602534Y-109170022D01*
X172943579Y-109828977D01*
X173124798Y-110353538D01*
X173595186Y-110570163D01*
X173589206Y-111709820D01*
X173416894Y-111744095D01*
X173182975Y-111900395D01*
X173026675Y-112134314D01*
X172971790Y-112410240D01*
X172971790Y-114721970D01*
X153734880Y-114721970D01*
X154380874Y-114075976D01*
X154497914Y-114075976D01*
X154783408Y-114019188D01*
X155025437Y-113857469D01*
X155673259Y-113209647D01*
X155721760Y-113209689D01*
X156060400Y-113069766D01*
X156319716Y-112810903D01*
X156460230Y-112472508D01*
X156460285Y-112409510D01*
X162343691Y-112409510D01*
X162377957Y-112443836D01*
X162716352Y-112584350D01*
X163082760Y-112584669D01*
X163421400Y-112444746D01*
X163680716Y-112185883D01*
X163821230Y-111847488D01*
X163821549Y-111481080D01*
X163681626Y-111142440D01*
X163422763Y-110883124D01*
X163084368Y-110742610D01*
X162717960Y-110742291D01*
X162379320Y-110882214D01*
X162344022Y-110917450D01*
X160013330Y-110917450D01*
X160013486Y-110737769D01*
X159873563Y-110399129D01*
X159614700Y-110139813D01*
X159276305Y-109999299D01*
X158909897Y-109998980D01*
X158571257Y-110138903D01*
X158535959Y-110174139D01*
X155743975Y-110174139D01*
X155769556Y-110148603D01*
X155910070Y-109810208D01*
X155910389Y-109443800D01*
X155770466Y-109105160D01*
X155707533Y-109042117D01*
X155769556Y-108980203D01*
X155910070Y-108641808D01*
X155910389Y-108275400D01*
X155770466Y-107936760D01*
X155732933Y-107899162D01*
X155769556Y-107862603D01*
X155902468Y-107542514D01*
X156525833Y-108165879D01*
X156525791Y-108214380D01*
X156665714Y-108553020D01*
X156924577Y-108812336D01*
X157262972Y-108952850D01*
X157629380Y-108953169D01*
X157968020Y-108813246D01*
X158227336Y-108554383D01*
X158311001Y-108352895D01*
X158465040Y-108353029D01*
X158803680Y-108213106D01*
X159062996Y-107954243D01*
X159203510Y-107615848D01*
X159203829Y-107249440D01*
X159063906Y-106910800D01*
X158805043Y-106651484D01*
X158466648Y-106510970D01*
X158416773Y-106510927D01*
X157641332Y-105735486D01*
X157399303Y-105573767D01*
X157113809Y-105516979D01*
X151129870Y-105516979D01*
X151129923Y-105455589D01*
X150990000Y-105116949D01*
X150731137Y-104857633D01*
X150392742Y-104717119D01*
X150342867Y-104717076D01*
X147778781Y-102152990D01*
X153687371Y-102152990D01*
X153721637Y-102187316D01*
X154060032Y-102327830D01*
X154426440Y-102328149D01*
X154765080Y-102188226D01*
X155024396Y-101929363D01*
X155164910Y-101590968D01*
X155165229Y-101224560D01*
X155025306Y-100885920D01*
X154809793Y-100670030D01*
X173055610Y-100670030D01*
X173055610Y-103047800D01*
G36*
X125917374Y-100717718D02*
X125675344Y-100879437D01*
X123917237Y-102637544D01*
X123755518Y-102879573D01*
X123722056Y-103047800D01*
X123698730Y-103165067D01*
X123698730Y-104810560D01*
X123755518Y-105096054D01*
X123917237Y-105338083D01*
X124735153Y-106155999D01*
X124786479Y-106414035D01*
X124854614Y-106516005D01*
X124854531Y-106610940D01*
X124966279Y-106881390D01*
X121671489Y-106881390D01*
X121637223Y-106847064D01*
X121298828Y-106706550D01*
X120932420Y-106706231D01*
X120593780Y-106846154D01*
X120334464Y-107105017D01*
X120193950Y-107443412D01*
X120193631Y-107809820D01*
X120333554Y-108148460D01*
X120592417Y-108407776D01*
X120930812Y-108548290D01*
X121297220Y-108548609D01*
X121635860Y-108408686D01*
X121671158Y-108373450D01*
X124244973Y-108373450D01*
X124151270Y-108599112D01*
X124150951Y-108965520D01*
X124290874Y-109304160D01*
X124326110Y-109339458D01*
X124326110Y-110525560D01*
X124382898Y-110811054D01*
X124544617Y-111053083D01*
X128213504Y-114721970D01*
X107827273Y-114721970D01*
X107819057Y-111589340D01*
X110363831Y-111589340D01*
X110503754Y-111927980D01*
X110762617Y-112187296D01*
X111101012Y-112327810D01*
X111467420Y-112328129D01*
X111806060Y-112188206D01*
X112065376Y-111929343D01*
X112205890Y-111590948D01*
X112206209Y-111224540D01*
X112066286Y-110885900D01*
X112031050Y-110850602D01*
X112031050Y-110395700D01*
X120866891Y-110395700D01*
X121001584Y-110721683D01*
X120867210Y-111045292D01*
X120866891Y-111411700D01*
X121006814Y-111750340D01*
X121265677Y-112009656D01*
X121604072Y-112150170D01*
X121970480Y-112150489D01*
X122309120Y-112010566D01*
X122346718Y-111973033D01*
X122383277Y-112009656D01*
X122721672Y-112150170D01*
X123088080Y-112150489D01*
X123426720Y-112010566D01*
X123686036Y-111751703D01*
X123826550Y-111413308D01*
X123826869Y-111046900D01*
X123692176Y-110720917D01*
X123826550Y-110397308D01*
X123826869Y-110030900D01*
X123686946Y-109692260D01*
X123428083Y-109432944D01*
X123089688Y-109292430D01*
X122723280Y-109292111D01*
X122384640Y-109432034D01*
X122347042Y-109469567D01*
X122310483Y-109432944D01*
X121972088Y-109292430D01*
X121605680Y-109292111D01*
X121267040Y-109432034D01*
X121007724Y-109690897D01*
X120867210Y-110029292D01*
X120866891Y-110395700D01*
X112031050Y-110395700D01*
X112031050Y-107447116D01*
X112278736Y-107199863D01*
X112419250Y-106861468D01*
X112419569Y-106495060D01*
X112279646Y-106156420D01*
X112020783Y-105897104D01*
X111682388Y-105756590D01*
X111315980Y-105756271D01*
X110977340Y-105896194D01*
X110718024Y-106155057D01*
X110577510Y-106493452D01*
X110577332Y-106698061D01*
X110574155Y-106714034D01*
X110538990Y-106890820D01*
X110538990Y-110850271D01*
X110504664Y-110884537D01*
X110364150Y-111222932D01*
X110363831Y-111589340D01*
X107819057Y-111589340D01*
X107790416Y-100670030D01*
X126157118Y-100670030D01*
X125917374Y-100717718D01*
X125917374Y-100717718D01*
G37*
X125917374Y-100717718D02*
X125675344Y-100879437D01*
X123917237Y-102637544D01*
X123755518Y-102879573D01*
X123722056Y-103047800D01*
X123698730Y-103165067D01*
X123698730Y-104810560D01*
X123755518Y-105096054D01*
X123917237Y-105338083D01*
X124735153Y-106155999D01*
X124786479Y-106414035D01*
X124854614Y-106516005D01*
X124854531Y-106610940D01*
X124966279Y-106881390D01*
X121671489Y-106881390D01*
X121637223Y-106847064D01*
X121298828Y-106706550D01*
X120932420Y-106706231D01*
X120593780Y-106846154D01*
X120334464Y-107105017D01*
X120193950Y-107443412D01*
X120193631Y-107809820D01*
X120333554Y-108148460D01*
X120592417Y-108407776D01*
X120930812Y-108548290D01*
X121297220Y-108548609D01*
X121635860Y-108408686D01*
X121671158Y-108373450D01*
X124244973Y-108373450D01*
X124151270Y-108599112D01*
X124150951Y-108965520D01*
X124290874Y-109304160D01*
X124326110Y-109339458D01*
X124326110Y-110525560D01*
X124382898Y-110811054D01*
X124544617Y-111053083D01*
X128213504Y-114721970D01*
X107827273Y-114721970D01*
X107819057Y-111589340D01*
X110363831Y-111589340D01*
X110503754Y-111927980D01*
X110762617Y-112187296D01*
X111101012Y-112327810D01*
X111467420Y-112328129D01*
X111806060Y-112188206D01*
X112065376Y-111929343D01*
X112205890Y-111590948D01*
X112206209Y-111224540D01*
X112066286Y-110885900D01*
X112031050Y-110850602D01*
X112031050Y-110395700D01*
X120866891Y-110395700D01*
X121001584Y-110721683D01*
X120867210Y-111045292D01*
X120866891Y-111411700D01*
X121006814Y-111750340D01*
X121265677Y-112009656D01*
X121604072Y-112150170D01*
X121970480Y-112150489D01*
X122309120Y-112010566D01*
X122346718Y-111973033D01*
X122383277Y-112009656D01*
X122721672Y-112150170D01*
X123088080Y-112150489D01*
X123426720Y-112010566D01*
X123686036Y-111751703D01*
X123826550Y-111413308D01*
X123826869Y-111046900D01*
X123692176Y-110720917D01*
X123826550Y-110397308D01*
X123826869Y-110030900D01*
X123686946Y-109692260D01*
X123428083Y-109432944D01*
X123089688Y-109292430D01*
X122723280Y-109292111D01*
X122384640Y-109432034D01*
X122347042Y-109469567D01*
X122310483Y-109432944D01*
X121972088Y-109292430D01*
X121605680Y-109292111D01*
X121267040Y-109432034D01*
X121007724Y-109690897D01*
X120867210Y-110029292D01*
X120866891Y-110395700D01*
X112031050Y-110395700D01*
X112031050Y-107447116D01*
X112278736Y-107199863D01*
X112419250Y-106861468D01*
X112419569Y-106495060D01*
X112279646Y-106156420D01*
X112020783Y-105897104D01*
X111682388Y-105756590D01*
X111315980Y-105756271D01*
X110977340Y-105896194D01*
X110718024Y-106155057D01*
X110577510Y-106493452D01*
X110577332Y-106698061D01*
X110574155Y-106714034D01*
X110538990Y-106890820D01*
X110538990Y-110850271D01*
X110504664Y-110884537D01*
X110364150Y-111222932D01*
X110363831Y-111589340D01*
X107819057Y-111589340D01*
X107790416Y-100670030D01*
X126157118Y-100670030D01*
X125917374Y-100717718D01*
G36*
X137255476Y-110639524D02*
X137314092Y-110678690D01*
X131271416Y-110678690D01*
X130662965Y-110070239D01*
X131475358Y-110407574D01*
X132518068Y-110408484D01*
X133481755Y-110010297D01*
X134219705Y-109273633D01*
X134619574Y-108310642D01*
X134619842Y-108003890D01*
X137255476Y-110639524D01*
X137255476Y-110639524D01*
G37*
X137255476Y-110639524D02*
X137314092Y-110678690D01*
X131271416Y-110678690D01*
X130662965Y-110070239D01*
X131475358Y-110407574D01*
X132518068Y-110408484D01*
X133481755Y-110010297D01*
X134219705Y-109273633D01*
X134619574Y-108310642D01*
X134619842Y-108003890D01*
X137255476Y-110639524D01*
G36*
X136296489Y-102667665D02*
X135614927Y-103349227D01*
X135326992Y-103348976D01*
X134914817Y-103519283D01*
X134599191Y-103834359D01*
X134428165Y-104246235D01*
X134427776Y-104692208D01*
X134437594Y-104715969D01*
X134349815Y-104715969D01*
X134169973Y-104536127D01*
X134170224Y-104248192D01*
X133999917Y-103836017D01*
X133684841Y-103520391D01*
X133272965Y-103349365D01*
X132826992Y-103348976D01*
X132414817Y-103519283D01*
X132099191Y-103834359D01*
X131928165Y-104246235D01*
X131927901Y-104549171D01*
X131683017Y-104549171D01*
X131669973Y-104536127D01*
X131670224Y-104248192D01*
X131499917Y-103836017D01*
X131184841Y-103520391D01*
X130772965Y-103349365D01*
X130326992Y-103348976D01*
X129914817Y-103519283D01*
X129599191Y-103834359D01*
X129428165Y-104246235D01*
X129427776Y-104692208D01*
X129598083Y-105104383D01*
X129913159Y-105420009D01*
X130325035Y-105591035D01*
X130488722Y-105591178D01*
X129778295Y-106300367D01*
X129378426Y-107263358D01*
X129377516Y-108306068D01*
X129540426Y-108700340D01*
X129338503Y-108498064D01*
X129000108Y-108357550D01*
X128944084Y-108357501D01*
X128971069Y-108328358D01*
X129178026Y-107768807D01*
X128914793Y-107529630D01*
X127669290Y-107529630D01*
X127669290Y-107549630D01*
X127666750Y-107549630D01*
X127666750Y-107529630D01*
X127646750Y-107529630D01*
X127646750Y-107527090D01*
X127666750Y-107527090D01*
X127666750Y-107507090D01*
X127669290Y-107507090D01*
X127669290Y-107527090D01*
X128914793Y-107527090D01*
X129178026Y-107287913D01*
X128971069Y-106728362D01*
X128701216Y-106436923D01*
X128701216Y-105878360D01*
X128657912Y-105648220D01*
X128547777Y-105477065D01*
X128683183Y-105421117D01*
X128998809Y-105106041D01*
X129169835Y-104694165D01*
X129170224Y-104248192D01*
X128999917Y-103836017D01*
X128707627Y-103543216D01*
X128991980Y-103353217D01*
X129213312Y-103021971D01*
X129286850Y-102652269D01*
X136319531Y-102652269D01*
X136296489Y-102667665D01*
X136296489Y-102667665D01*
G37*
X136296489Y-102667665D02*
X135614927Y-103349227D01*
X135326992Y-103348976D01*
X134914817Y-103519283D01*
X134599191Y-103834359D01*
X134428165Y-104246235D01*
X134427776Y-104692208D01*
X134437594Y-104715969D01*
X134349815Y-104715969D01*
X134169973Y-104536127D01*
X134170224Y-104248192D01*
X133999917Y-103836017D01*
X133684841Y-103520391D01*
X133272965Y-103349365D01*
X132826992Y-103348976D01*
X132414817Y-103519283D01*
X132099191Y-103834359D01*
X131928165Y-104246235D01*
X131927901Y-104549171D01*
X131683017Y-104549171D01*
X131669973Y-104536127D01*
X131670224Y-104248192D01*
X131499917Y-103836017D01*
X131184841Y-103520391D01*
X130772965Y-103349365D01*
X130326992Y-103348976D01*
X129914817Y-103519283D01*
X129599191Y-103834359D01*
X129428165Y-104246235D01*
X129427776Y-104692208D01*
X129598083Y-105104383D01*
X129913159Y-105420009D01*
X130325035Y-105591035D01*
X130488722Y-105591178D01*
X129778295Y-106300367D01*
X129378426Y-107263358D01*
X129377516Y-108306068D01*
X129540426Y-108700340D01*
X129338503Y-108498064D01*
X129000108Y-108357550D01*
X128944084Y-108357501D01*
X128971069Y-108328358D01*
X129178026Y-107768807D01*
X128914793Y-107529630D01*
X127669290Y-107529630D01*
X127669290Y-107549630D01*
X127666750Y-107549630D01*
X127666750Y-107529630D01*
X127646750Y-107529630D01*
X127646750Y-107527090D01*
X127666750Y-107527090D01*
X127666750Y-107507090D01*
X127669290Y-107507090D01*
X127669290Y-107527090D01*
X128914793Y-107527090D01*
X129178026Y-107287913D01*
X128971069Y-106728362D01*
X128701216Y-106436923D01*
X128701216Y-105878360D01*
X128657912Y-105648220D01*
X128547777Y-105477065D01*
X128683183Y-105421117D01*
X128998809Y-105106041D01*
X129169835Y-104694165D01*
X129170224Y-104248192D01*
X128999917Y-103836017D01*
X128707627Y-103543216D01*
X128991980Y-103353217D01*
X129213312Y-103021971D01*
X129286850Y-102652269D01*
X136319531Y-102652269D01*
X136296489Y-102667665D01*
G36*
X145550270Y-104468930D02*
X145570270Y-104468930D01*
X145570270Y-104471470D01*
X145550270Y-104471470D01*
X145550270Y-104491470D01*
X145547730Y-104491470D01*
X145547730Y-104471470D01*
X145527730Y-104471470D01*
X145527730Y-104468930D01*
X145547730Y-104468930D01*
X145547730Y-104448930D01*
X145550270Y-104448930D01*
X145550270Y-104468930D01*
X145550270Y-104468930D01*
G37*
X145550270Y-104468930D02*
X145570270Y-104468930D01*
X145570270Y-104471470D01*
X145550270Y-104471470D01*
X145550270Y-104491470D01*
X145547730Y-104491470D01*
X145547730Y-104471470D01*
X145527730Y-104471470D01*
X145527730Y-104468930D01*
X145547730Y-104468930D01*
X145547730Y-104448930D01*
X145550270Y-104448930D01*
X145550270Y-104468930D01*
M02*
