G04 #@! TF.FileFunction,Other,Fab,Top*
%FSLAX46Y46*%
G04 Gerber Fmt 4.6, Leading zero omitted, Abs format (unit mm)*
G04 Created by KiCad (PCBNEW 4.0.2+dfsg1-stable) date ven 12 ott 2018 16:01:28 CEST*
%MOMM*%
G01*
G04 APERTURE LIST*
%ADD10C,0.100000*%
%ADD11C,0.200000*%
%ADD12C,0.150000*%
%ADD13C,0.030000*%
%ADD14C,0.090000*%
%ADD15C,0.075000*%
G04 APERTURE END LIST*
D10*
D11*
X173690280Y-115443000D02*
X98295460Y-115443000D01*
X195072000Y-115443000D02*
X179682660Y-115443000D01*
X179682660Y-112410240D02*
X179682660Y-115443000D01*
X173692820Y-112410240D02*
X179682660Y-112410240D01*
X173692820Y-112410240D02*
X173692820Y-115437920D01*
X173776640Y-99949000D02*
X98298000Y-99949000D01*
X195072000Y-99949000D02*
X179778660Y-99949000D01*
X179778660Y-99949000D02*
X179778660Y-103047800D01*
X173776640Y-103047800D02*
X179778660Y-103047800D01*
X173776640Y-99949000D02*
X173776640Y-103047800D01*
X98298000Y-115443000D02*
X98298000Y-99949000D01*
X195072000Y-99949000D02*
X195072000Y-115443000D01*
X126770000Y-103781240D02*
X125500000Y-102511240D01*
X125500000Y-102511240D02*
X125500000Y-100581240D01*
X125500000Y-100581240D02*
X129750000Y-100581240D01*
X129750000Y-100581240D02*
X129750000Y-103781240D01*
X129750000Y-103781240D02*
X126770000Y-103781240D01*
D10*
X115852360Y-105474300D02*
X116352360Y-105474300D01*
X115852360Y-106474300D02*
X115852360Y-105474300D01*
X116352360Y-106474300D02*
X115852360Y-106474300D01*
X116352360Y-105474300D02*
X116352360Y-106474300D01*
X121544900Y-103418360D02*
X123844900Y-103418360D01*
X123844900Y-103418360D02*
X123944900Y-103518360D01*
X123944900Y-103518360D02*
X123944900Y-105318360D01*
X123944900Y-105318360D02*
X123844900Y-105418360D01*
X123844900Y-105418360D02*
X121544900Y-105418360D01*
X121544900Y-105418360D02*
X121444900Y-105318360D01*
X121444900Y-105318360D02*
X121444900Y-103518360D01*
X121444900Y-103518360D02*
X121544900Y-103418360D01*
X121444900Y-104418360D02*
X122444900Y-105418360D01*
X150163000Y-112305000D02*
X150163000Y-113805000D01*
X153363000Y-112305000D02*
X153363000Y-113805000D01*
X150163000Y-112305000D02*
X153363000Y-112305000D01*
X150163000Y-113805000D02*
X153363000Y-113805000D01*
D11*
X126518020Y-106048360D02*
X127788020Y-104778360D01*
X127788020Y-104778360D02*
X129718020Y-104778360D01*
X129718020Y-104778360D02*
X129718020Y-111528360D01*
X129718020Y-111528360D02*
X126518020Y-111528360D01*
X126518020Y-111528360D02*
X126518020Y-106048360D01*
D10*
X116598460Y-111474060D02*
X116598460Y-110974060D01*
X117598460Y-111474060D02*
X116598460Y-111474060D01*
X117598460Y-110974060D02*
X117598460Y-111474060D01*
X116598460Y-110974060D02*
X117598460Y-110974060D01*
X112753780Y-108821400D02*
X113603780Y-108821400D01*
X114103780Y-108321400D02*
X114103780Y-106621400D01*
X112753780Y-108821400D02*
X112753780Y-106621400D01*
X112753780Y-106621400D02*
X114103780Y-106621400D01*
X113603780Y-108821400D02*
X114103780Y-108321400D01*
X116077760Y-104890380D02*
X116077760Y-104390380D01*
X117077760Y-104890380D02*
X116077760Y-104890380D01*
X117077760Y-104390380D02*
X117077760Y-104890380D01*
X116077760Y-104390380D02*
X117077760Y-104390380D01*
X117958020Y-104582760D02*
X118458020Y-104582760D01*
X117958020Y-105582760D02*
X117958020Y-104582760D01*
X118458020Y-105582760D02*
X117958020Y-105582760D01*
X118458020Y-104582760D02*
X118458020Y-105582760D01*
X119738180Y-107815000D02*
X119238180Y-107815000D01*
X119738180Y-106815000D02*
X119738180Y-107815000D01*
X119238180Y-106815000D02*
X119738180Y-106815000D01*
X119238180Y-107815000D02*
X119238180Y-106815000D01*
X109494700Y-106955400D02*
X109494700Y-106455400D01*
X110494700Y-106955400D02*
X109494700Y-106955400D01*
X110494700Y-106455400D02*
X110494700Y-106955400D01*
X109494700Y-106455400D02*
X110494700Y-106455400D01*
D12*
X120077381Y-98833621D02*
X120648810Y-98833621D01*
X120363095Y-99833621D02*
X120363095Y-98833621D01*
X120934524Y-99547907D02*
X121410715Y-99547907D01*
X120839286Y-99833621D02*
X121172619Y-98833621D01*
X121505953Y-99833621D01*
X121839286Y-99833621D02*
X121839286Y-98833621D01*
X122172620Y-99547907D01*
X122505953Y-98833621D01*
X122505953Y-99833621D01*
X122982143Y-99833621D02*
X122982143Y-98833621D01*
X123363096Y-98833621D01*
X123458334Y-98881240D01*
X123505953Y-98928859D01*
X123553572Y-99024097D01*
X123553572Y-99166954D01*
X123505953Y-99262192D01*
X123458334Y-99309811D01*
X123363096Y-99357430D01*
X122982143Y-99357430D01*
X123982143Y-99309811D02*
X124315477Y-99309811D01*
X124458334Y-99833621D02*
X123982143Y-99833621D01*
X123982143Y-98833621D01*
X124458334Y-98833621D01*
X125458334Y-99833621D02*
X125125000Y-99357430D01*
X124886905Y-99833621D02*
X124886905Y-98833621D01*
X125267858Y-98833621D01*
X125363096Y-98881240D01*
X125410715Y-98928859D01*
X125458334Y-99024097D01*
X125458334Y-99166954D01*
X125410715Y-99262192D01*
X125363096Y-99309811D01*
X125267858Y-99357430D01*
X124886905Y-99357430D01*
X127220239Y-99738383D02*
X127172620Y-99786002D01*
X127029763Y-99833621D01*
X126934525Y-99833621D01*
X126791667Y-99786002D01*
X126696429Y-99690764D01*
X126648810Y-99595526D01*
X126601191Y-99405050D01*
X126601191Y-99262192D01*
X126648810Y-99071716D01*
X126696429Y-98976478D01*
X126791667Y-98881240D01*
X126934525Y-98833621D01*
X127029763Y-98833621D01*
X127172620Y-98881240D01*
X127220239Y-98928859D01*
X127839286Y-98833621D02*
X128029763Y-98833621D01*
X128125001Y-98881240D01*
X128220239Y-98976478D01*
X128267858Y-99166954D01*
X128267858Y-99500288D01*
X128220239Y-99690764D01*
X128125001Y-99786002D01*
X128029763Y-99833621D01*
X127839286Y-99833621D01*
X127744048Y-99786002D01*
X127648810Y-99690764D01*
X127601191Y-99500288D01*
X127601191Y-99166954D01*
X127648810Y-98976478D01*
X127744048Y-98881240D01*
X127839286Y-98833621D01*
X128696429Y-99833621D02*
X128696429Y-98833621D01*
X129267858Y-99833621D01*
X129267858Y-98833621D01*
X129744048Y-99833621D02*
X129744048Y-98833621D01*
X130315477Y-99833621D01*
X130315477Y-98833621D01*
X130791667Y-99309811D02*
X131125001Y-99309811D01*
X131267858Y-99833621D02*
X130791667Y-99833621D01*
X130791667Y-98833621D01*
X131267858Y-98833621D01*
X132267858Y-99738383D02*
X132220239Y-99786002D01*
X132077382Y-99833621D01*
X131982144Y-99833621D01*
X131839286Y-99786002D01*
X131744048Y-99690764D01*
X131696429Y-99595526D01*
X131648810Y-99405050D01*
X131648810Y-99262192D01*
X131696429Y-99071716D01*
X131744048Y-98976478D01*
X131839286Y-98881240D01*
X131982144Y-98833621D01*
X132077382Y-98833621D01*
X132220239Y-98881240D01*
X132267858Y-98928859D01*
X132553572Y-98833621D02*
X133125001Y-98833621D01*
X132839286Y-99833621D02*
X132839286Y-98833621D01*
X133648810Y-98833621D02*
X133839287Y-98833621D01*
X133934525Y-98881240D01*
X134029763Y-98976478D01*
X134077382Y-99166954D01*
X134077382Y-99500288D01*
X134029763Y-99690764D01*
X133934525Y-99786002D01*
X133839287Y-99833621D01*
X133648810Y-99833621D01*
X133553572Y-99786002D01*
X133458334Y-99690764D01*
X133410715Y-99500288D01*
X133410715Y-99166954D01*
X133458334Y-98976478D01*
X133553572Y-98881240D01*
X133648810Y-98833621D01*
X135077382Y-99833621D02*
X134744048Y-99357430D01*
X134505953Y-99833621D02*
X134505953Y-98833621D01*
X134886906Y-98833621D01*
X134982144Y-98881240D01*
X135029763Y-98928859D01*
X135077382Y-99024097D01*
X135077382Y-99166954D01*
X135029763Y-99262192D01*
X134982144Y-99309811D01*
X134886906Y-99357430D01*
X134505953Y-99357430D01*
X110266485Y-108883941D02*
X110076008Y-108883941D01*
X109980770Y-108931560D01*
X109933151Y-108979179D01*
X109837913Y-109122036D01*
X109790294Y-109312512D01*
X109790294Y-109693465D01*
X109837913Y-109788703D01*
X109885532Y-109836322D01*
X109980770Y-109883941D01*
X110171247Y-109883941D01*
X110266485Y-109836322D01*
X110314104Y-109788703D01*
X110361723Y-109693465D01*
X110361723Y-109455370D01*
X110314104Y-109360131D01*
X110266485Y-109312512D01*
X110171247Y-109264893D01*
X109980770Y-109264893D01*
X109885532Y-109312512D01*
X109837913Y-109360131D01*
X109790294Y-109455370D01*
X110933151Y-109312512D02*
X110837913Y-109264893D01*
X110790294Y-109217274D01*
X110742675Y-109122036D01*
X110742675Y-109074417D01*
X110790294Y-108979179D01*
X110837913Y-108931560D01*
X110933151Y-108883941D01*
X111123628Y-108883941D01*
X111218866Y-108931560D01*
X111266485Y-108979179D01*
X111314104Y-109074417D01*
X111314104Y-109122036D01*
X111266485Y-109217274D01*
X111218866Y-109264893D01*
X111123628Y-109312512D01*
X110933151Y-109312512D01*
X110837913Y-109360131D01*
X110790294Y-109407750D01*
X110742675Y-109502989D01*
X110742675Y-109693465D01*
X110790294Y-109788703D01*
X110837913Y-109836322D01*
X110933151Y-109883941D01*
X111123628Y-109883941D01*
X111218866Y-109836322D01*
X111266485Y-109788703D01*
X111314104Y-109693465D01*
X111314104Y-109502989D01*
X111266485Y-109407750D01*
X111218866Y-109360131D01*
X111123628Y-109312512D01*
X111742675Y-109217274D02*
X111742675Y-110217274D01*
X111742675Y-109264893D02*
X111837913Y-109217274D01*
X112028390Y-109217274D01*
X112123628Y-109264893D01*
X112171247Y-109312512D01*
X112218866Y-109407750D01*
X112218866Y-109693465D01*
X112171247Y-109788703D01*
X112123628Y-109836322D01*
X112028390Y-109883941D01*
X111837913Y-109883941D01*
X111742675Y-109836322D01*
X111814881Y-111941906D02*
X111814881Y-112513335D01*
X111814881Y-112227621D02*
X110814881Y-112227621D01*
X110957738Y-112322859D01*
X111052976Y-112418097D01*
X111100595Y-112513335D01*
X111148214Y-111513335D02*
X112148214Y-111513335D01*
X111195833Y-111513335D02*
X111148214Y-111418097D01*
X111148214Y-111227620D01*
X111195833Y-111132382D01*
X111243452Y-111084763D01*
X111338690Y-111037144D01*
X111624405Y-111037144D01*
X111719643Y-111084763D01*
X111767262Y-111132382D01*
X111814881Y-111227620D01*
X111814881Y-111418097D01*
X111767262Y-111513335D01*
X123412021Y-114451026D02*
X123412021Y-115022455D01*
X123412021Y-114736741D02*
X122412021Y-114736741D01*
X122554878Y-114831979D01*
X122650116Y-114927217D01*
X122697735Y-115022455D01*
X122745354Y-113593883D02*
X123412021Y-113593883D01*
X122745354Y-114022455D02*
X123269164Y-114022455D01*
X123364402Y-113974836D01*
X123412021Y-113879598D01*
X123412021Y-113736740D01*
X123364402Y-113641502D01*
X123316783Y-113593883D01*
X122386154Y-98851379D02*
X122433773Y-98803760D01*
X122529011Y-98756141D01*
X122767107Y-98756141D01*
X122862345Y-98803760D01*
X122909964Y-98851379D01*
X122957583Y-98946617D01*
X122957583Y-99041855D01*
X122909964Y-99184712D01*
X122338535Y-99756141D01*
X122957583Y-99756141D01*
X123814726Y-99089474D02*
X123814726Y-99756141D01*
X123386154Y-99089474D02*
X123386154Y-99613284D01*
X123433773Y-99708522D01*
X123529011Y-99756141D01*
X123671869Y-99756141D01*
X123767107Y-99708522D01*
X123814726Y-99660903D01*
X124243297Y-98851379D02*
X124290916Y-98803760D01*
X124386154Y-98756141D01*
X124624250Y-98756141D01*
X124719488Y-98803760D01*
X124767107Y-98851379D01*
X124814726Y-98946617D01*
X124814726Y-99041855D01*
X124767107Y-99184712D01*
X124195678Y-99756141D01*
X124814726Y-99756141D01*
X122091021Y-115403407D02*
X122091021Y-115974836D01*
X122091021Y-115689122D02*
X121091021Y-115689122D01*
X121233878Y-115784360D01*
X121329116Y-115879598D01*
X121376735Y-115974836D01*
X121091021Y-114784360D02*
X121091021Y-114689121D01*
X121138640Y-114593883D01*
X121186259Y-114546264D01*
X121281497Y-114498645D01*
X121471973Y-114451026D01*
X121710069Y-114451026D01*
X121900545Y-114498645D01*
X121995783Y-114546264D01*
X122043402Y-114593883D01*
X122091021Y-114689121D01*
X122091021Y-114784360D01*
X122043402Y-114879598D01*
X121995783Y-114927217D01*
X121900545Y-114974836D01*
X121710069Y-115022455D01*
X121471973Y-115022455D01*
X121281497Y-114974836D01*
X121186259Y-114927217D01*
X121138640Y-114879598D01*
X121091021Y-114784360D01*
X121091021Y-113831979D02*
X121091021Y-113736740D01*
X121138640Y-113641502D01*
X121186259Y-113593883D01*
X121281497Y-113546264D01*
X121471973Y-113498645D01*
X121710069Y-113498645D01*
X121900545Y-113546264D01*
X121995783Y-113593883D01*
X122043402Y-113641502D01*
X122091021Y-113736740D01*
X122091021Y-113831979D01*
X122043402Y-113927217D01*
X121995783Y-113974836D01*
X121900545Y-114022455D01*
X121710069Y-114070074D01*
X121471973Y-114070074D01*
X121281497Y-114022455D01*
X121186259Y-113974836D01*
X121138640Y-113927217D01*
X121091021Y-113831979D01*
X121424354Y-113070074D02*
X122091021Y-113070074D01*
X121519592Y-113070074D02*
X121471973Y-113022455D01*
X121424354Y-112927217D01*
X121424354Y-112784359D01*
X121471973Y-112689121D01*
X121567211Y-112641502D01*
X122091021Y-112641502D01*
X116460781Y-113037145D02*
X116460781Y-112418097D01*
X116841733Y-112751431D01*
X116841733Y-112608573D01*
X116889352Y-112513335D01*
X116936971Y-112465716D01*
X117032210Y-112418097D01*
X117270305Y-112418097D01*
X117365543Y-112465716D01*
X117413162Y-112513335D01*
X117460781Y-112608573D01*
X117460781Y-112894288D01*
X117413162Y-112989526D01*
X117365543Y-113037145D01*
X116794114Y-111989526D02*
X117794114Y-111989526D01*
X116841733Y-111989526D02*
X116794114Y-111894288D01*
X116794114Y-111703811D01*
X116841733Y-111608573D01*
X116889352Y-111560954D01*
X116984590Y-111513335D01*
X117270305Y-111513335D01*
X117365543Y-111560954D01*
X117413162Y-111608573D01*
X117460781Y-111703811D01*
X117460781Y-111894288D01*
X117413162Y-111989526D01*
X117460781Y-111037145D02*
X117460781Y-110846669D01*
X117413162Y-110751430D01*
X117365543Y-110703811D01*
X117222686Y-110608573D01*
X117032210Y-110560954D01*
X116651257Y-110560954D01*
X116556019Y-110608573D01*
X116508400Y-110656192D01*
X116460781Y-110751430D01*
X116460781Y-110941907D01*
X116508400Y-111037145D01*
X116556019Y-111084764D01*
X116651257Y-111132383D01*
X116889352Y-111132383D01*
X116984590Y-111084764D01*
X117032210Y-111037145D01*
X117079829Y-110941907D01*
X117079829Y-110751430D01*
X117032210Y-110656192D01*
X116984590Y-110608573D01*
X116889352Y-110560954D01*
X120628061Y-103042245D02*
X120628061Y-102423197D01*
X121009013Y-102756531D01*
X121009013Y-102613673D01*
X121056632Y-102518435D01*
X121104251Y-102470816D01*
X121199490Y-102423197D01*
X121437585Y-102423197D01*
X121532823Y-102470816D01*
X121580442Y-102518435D01*
X121628061Y-102613673D01*
X121628061Y-102899388D01*
X121580442Y-102994626D01*
X121532823Y-103042245D01*
X120628061Y-102089864D02*
X120628061Y-101470816D01*
X121009013Y-101804150D01*
X121009013Y-101661292D01*
X121056632Y-101566054D01*
X121104251Y-101518435D01*
X121199490Y-101470816D01*
X121437585Y-101470816D01*
X121532823Y-101518435D01*
X121580442Y-101566054D01*
X121628061Y-101661292D01*
X121628061Y-101947007D01*
X121580442Y-102042245D01*
X121532823Y-102089864D01*
X120961394Y-101042245D02*
X121961394Y-101042245D01*
X121009013Y-101042245D02*
X120961394Y-100947007D01*
X120961394Y-100756530D01*
X121009013Y-100661292D01*
X121056632Y-100613673D01*
X121151870Y-100566054D01*
X121437585Y-100566054D01*
X121532823Y-100613673D01*
X121580442Y-100661292D01*
X121628061Y-100756530D01*
X121628061Y-100947007D01*
X121580442Y-101042245D01*
X122720061Y-102899387D02*
X122720061Y-103470816D01*
X122720061Y-103185102D02*
X121720061Y-103185102D01*
X121862918Y-103280340D01*
X121958156Y-103375578D01*
X122005775Y-103470816D01*
X121720061Y-102280340D02*
X121720061Y-102185101D01*
X121767680Y-102089863D01*
X121815299Y-102042244D01*
X121910537Y-101994625D01*
X122101013Y-101947006D01*
X122339109Y-101947006D01*
X122529585Y-101994625D01*
X122624823Y-102042244D01*
X122672442Y-102089863D01*
X122720061Y-102185101D01*
X122720061Y-102280340D01*
X122672442Y-102375578D01*
X122624823Y-102423197D01*
X122529585Y-102470816D01*
X122339109Y-102518435D01*
X122101013Y-102518435D01*
X121910537Y-102470816D01*
X121815299Y-102423197D01*
X121767680Y-102375578D01*
X121720061Y-102280340D01*
X121720061Y-101327959D02*
X121720061Y-101232720D01*
X121767680Y-101137482D01*
X121815299Y-101089863D01*
X121910537Y-101042244D01*
X122101013Y-100994625D01*
X122339109Y-100994625D01*
X122529585Y-101042244D01*
X122624823Y-101089863D01*
X122672442Y-101137482D01*
X122720061Y-101232720D01*
X122720061Y-101327959D01*
X122672442Y-101423197D01*
X122624823Y-101470816D01*
X122529585Y-101518435D01*
X122339109Y-101566054D01*
X122101013Y-101566054D01*
X121910537Y-101518435D01*
X121815299Y-101470816D01*
X121767680Y-101423197D01*
X121720061Y-101327959D01*
X122053394Y-100566054D02*
X123053394Y-100566054D01*
X122101013Y-100566054D02*
X122053394Y-100470816D01*
X122053394Y-100280339D01*
X122101013Y-100185101D01*
X122148632Y-100137482D01*
X122243870Y-100089863D01*
X122529585Y-100089863D01*
X122624823Y-100137482D01*
X122672442Y-100185101D01*
X122720061Y-100280339D01*
X122720061Y-100470816D01*
X122672442Y-100566054D01*
X115962941Y-108477845D02*
X115962941Y-107858797D01*
X116343893Y-108192131D01*
X116343893Y-108049273D01*
X116391512Y-107954035D01*
X116439131Y-107906416D01*
X116534370Y-107858797D01*
X116772465Y-107858797D01*
X116867703Y-107906416D01*
X116915322Y-107954035D01*
X116962941Y-108049273D01*
X116962941Y-108334988D01*
X116915322Y-108430226D01*
X116867703Y-108477845D01*
X116962941Y-107382607D02*
X116962941Y-107192131D01*
X116915322Y-107096892D01*
X116867703Y-107049273D01*
X116724846Y-106954035D01*
X116534370Y-106906416D01*
X116153417Y-106906416D01*
X116058179Y-106954035D01*
X116010560Y-107001654D01*
X115962941Y-107096892D01*
X115962941Y-107287369D01*
X116010560Y-107382607D01*
X116058179Y-107430226D01*
X116153417Y-107477845D01*
X116391512Y-107477845D01*
X116486750Y-107430226D01*
X116534370Y-107382607D01*
X116581989Y-107287369D01*
X116581989Y-107096892D01*
X116534370Y-107001654D01*
X116486750Y-106954035D01*
X116391512Y-106906416D01*
X116296274Y-106477845D02*
X117296274Y-106477845D01*
X116343893Y-106477845D02*
X116296274Y-106382607D01*
X116296274Y-106192130D01*
X116343893Y-106096892D01*
X116391512Y-106049273D01*
X116486750Y-106001654D01*
X116772465Y-106001654D01*
X116867703Y-106049273D01*
X116915322Y-106096892D01*
X116962941Y-106192130D01*
X116962941Y-106382607D01*
X116915322Y-106477845D01*
X118194541Y-104056885D02*
X118194541Y-103437837D01*
X118575493Y-103771171D01*
X118575493Y-103628313D01*
X118623112Y-103533075D01*
X118670731Y-103485456D01*
X118765970Y-103437837D01*
X119004065Y-103437837D01*
X119099303Y-103485456D01*
X119146922Y-103533075D01*
X119194541Y-103628313D01*
X119194541Y-103914028D01*
X119146922Y-104009266D01*
X119099303Y-104056885D01*
X118527874Y-103009266D02*
X119527874Y-103009266D01*
X118575493Y-103009266D02*
X118527874Y-102914028D01*
X118527874Y-102723551D01*
X118575493Y-102628313D01*
X118623112Y-102580694D01*
X118718350Y-102533075D01*
X119004065Y-102533075D01*
X119099303Y-102580694D01*
X119146922Y-102628313D01*
X119194541Y-102723551D01*
X119194541Y-102914028D01*
X119146922Y-103009266D01*
X118194541Y-102199742D02*
X118194541Y-101580694D01*
X118575493Y-101914028D01*
X118575493Y-101771170D01*
X118623112Y-101675932D01*
X118670731Y-101628313D01*
X118765970Y-101580694D01*
X119004065Y-101580694D01*
X119099303Y-101628313D01*
X119146922Y-101675932D01*
X119194541Y-101771170D01*
X119194541Y-102056885D01*
X119146922Y-102152123D01*
X119099303Y-102199742D01*
X114944401Y-106342464D02*
X114944401Y-106532941D01*
X114992020Y-106628179D01*
X115039639Y-106675798D01*
X115182496Y-106771036D01*
X115372972Y-106818655D01*
X115753925Y-106818655D01*
X115849163Y-106771036D01*
X115896782Y-106723417D01*
X115944401Y-106628179D01*
X115944401Y-106437702D01*
X115896782Y-106342464D01*
X115849163Y-106294845D01*
X115753925Y-106247226D01*
X115515830Y-106247226D01*
X115420591Y-106294845D01*
X115372972Y-106342464D01*
X115325353Y-106437702D01*
X115325353Y-106628179D01*
X115372972Y-106723417D01*
X115420591Y-106771036D01*
X115515830Y-106818655D01*
X115277734Y-105818655D02*
X116277734Y-105818655D01*
X115325353Y-105818655D02*
X115277734Y-105723417D01*
X115277734Y-105532940D01*
X115325353Y-105437702D01*
X115372972Y-105390083D01*
X115468210Y-105342464D01*
X115753925Y-105342464D01*
X115849163Y-105390083D01*
X115896782Y-105437702D01*
X115944401Y-105532940D01*
X115944401Y-105723417D01*
X115896782Y-105818655D01*
X123711061Y-102899387D02*
X123711061Y-103470816D01*
X123711061Y-103185102D02*
X122711061Y-103185102D01*
X122853918Y-103280340D01*
X122949156Y-103375578D01*
X122996775Y-103470816D01*
X122711061Y-102280340D02*
X122711061Y-102185101D01*
X122758680Y-102089863D01*
X122806299Y-102042244D01*
X122901537Y-101994625D01*
X123092013Y-101947006D01*
X123330109Y-101947006D01*
X123520585Y-101994625D01*
X123615823Y-102042244D01*
X123663442Y-102089863D01*
X123711061Y-102185101D01*
X123711061Y-102280340D01*
X123663442Y-102375578D01*
X123615823Y-102423197D01*
X123520585Y-102470816D01*
X123330109Y-102518435D01*
X123092013Y-102518435D01*
X122901537Y-102470816D01*
X122806299Y-102423197D01*
X122758680Y-102375578D01*
X122711061Y-102280340D01*
X122711061Y-101327959D02*
X122711061Y-101232720D01*
X122758680Y-101137482D01*
X122806299Y-101089863D01*
X122901537Y-101042244D01*
X123092013Y-100994625D01*
X123330109Y-100994625D01*
X123520585Y-101042244D01*
X123615823Y-101089863D01*
X123663442Y-101137482D01*
X123711061Y-101232720D01*
X123711061Y-101327959D01*
X123663442Y-101423197D01*
X123615823Y-101470816D01*
X123520585Y-101518435D01*
X123330109Y-101566054D01*
X123092013Y-101566054D01*
X122901537Y-101518435D01*
X122806299Y-101470816D01*
X122758680Y-101423197D01*
X122711061Y-101327959D01*
X123044394Y-100566054D02*
X123711061Y-100566054D01*
X123139632Y-100566054D02*
X123092013Y-100518435D01*
X123044394Y-100423197D01*
X123044394Y-100280339D01*
X123092013Y-100185101D01*
X123187251Y-100137482D01*
X123711061Y-100137482D01*
X126900594Y-116150377D02*
X127567261Y-116150377D01*
X126519642Y-116388473D02*
X127233928Y-116626568D01*
X127233928Y-116007520D01*
X126567261Y-115721806D02*
X126567261Y-115055139D01*
X127567261Y-115483711D01*
X126900594Y-114245615D02*
X127567261Y-114245615D01*
X126900594Y-114674187D02*
X127424404Y-114674187D01*
X127519642Y-114626568D01*
X127567261Y-114531330D01*
X127567261Y-114388472D01*
X127519642Y-114293234D01*
X127472023Y-114245615D01*
X126519642Y-113055139D02*
X127805356Y-113912282D01*
X126567261Y-112245615D02*
X126567261Y-112721806D01*
X127043451Y-112769425D01*
X126995832Y-112721806D01*
X126948213Y-112626568D01*
X126948213Y-112388472D01*
X126995832Y-112293234D01*
X127043451Y-112245615D01*
X127138690Y-112197996D01*
X127376785Y-112197996D01*
X127472023Y-112245615D01*
X127519642Y-112293234D01*
X127567261Y-112388472D01*
X127567261Y-112626568D01*
X127519642Y-112721806D01*
X127472023Y-112769425D01*
X126567261Y-111578949D02*
X126567261Y-111483710D01*
X126614880Y-111388472D01*
X126662499Y-111340853D01*
X126757737Y-111293234D01*
X126948213Y-111245615D01*
X127186309Y-111245615D01*
X127376785Y-111293234D01*
X127472023Y-111340853D01*
X127519642Y-111388472D01*
X127567261Y-111483710D01*
X127567261Y-111578949D01*
X127519642Y-111674187D01*
X127472023Y-111721806D01*
X127376785Y-111769425D01*
X127186309Y-111817044D01*
X126948213Y-111817044D01*
X126757737Y-111769425D01*
X126662499Y-111721806D01*
X126614880Y-111674187D01*
X126567261Y-111578949D01*
X126567261Y-110959901D02*
X127567261Y-110626568D01*
X126567261Y-110293234D01*
X124462061Y-112881587D02*
X124462061Y-113453016D01*
X124462061Y-113167302D02*
X123462061Y-113167302D01*
X123604918Y-113262540D01*
X123700156Y-113357778D01*
X123747775Y-113453016D01*
X123462061Y-112262540D02*
X123462061Y-112167301D01*
X123509680Y-112072063D01*
X123557299Y-112024444D01*
X123652537Y-111976825D01*
X123843013Y-111929206D01*
X124081109Y-111929206D01*
X124271585Y-111976825D01*
X124366823Y-112024444D01*
X124414442Y-112072063D01*
X124462061Y-112167301D01*
X124462061Y-112262540D01*
X124414442Y-112357778D01*
X124366823Y-112405397D01*
X124271585Y-112453016D01*
X124081109Y-112500635D01*
X123843013Y-112500635D01*
X123652537Y-112453016D01*
X123557299Y-112405397D01*
X123509680Y-112357778D01*
X123462061Y-112262540D01*
X123462061Y-111310159D02*
X123462061Y-111214920D01*
X123509680Y-111119682D01*
X123557299Y-111072063D01*
X123652537Y-111024444D01*
X123843013Y-110976825D01*
X124081109Y-110976825D01*
X124271585Y-111024444D01*
X124366823Y-111072063D01*
X124414442Y-111119682D01*
X124462061Y-111214920D01*
X124462061Y-111310159D01*
X124414442Y-111405397D01*
X124366823Y-111453016D01*
X124271585Y-111500635D01*
X124081109Y-111548254D01*
X123843013Y-111548254D01*
X123652537Y-111500635D01*
X123557299Y-111453016D01*
X123509680Y-111405397D01*
X123462061Y-111310159D01*
X123795394Y-110548254D02*
X124462061Y-110548254D01*
X123890632Y-110548254D02*
X123843013Y-110500635D01*
X123795394Y-110405397D01*
X123795394Y-110262539D01*
X123843013Y-110167301D01*
X123938251Y-110119682D01*
X124462061Y-110119682D01*
X114215005Y-112373901D02*
X114024528Y-112373901D01*
X113929290Y-112421520D01*
X113881671Y-112469139D01*
X113786433Y-112611996D01*
X113738814Y-112802472D01*
X113738814Y-113183425D01*
X113786433Y-113278663D01*
X113834052Y-113326282D01*
X113929290Y-113373901D01*
X114119767Y-113373901D01*
X114215005Y-113326282D01*
X114262624Y-113278663D01*
X114310243Y-113183425D01*
X114310243Y-112945330D01*
X114262624Y-112850091D01*
X114215005Y-112802472D01*
X114119767Y-112754853D01*
X113929290Y-112754853D01*
X113834052Y-112802472D01*
X113786433Y-112850091D01*
X113738814Y-112945330D01*
X114738814Y-112707234D02*
X114738814Y-113707234D01*
X114738814Y-112754853D02*
X114834052Y-112707234D01*
X115024529Y-112707234D01*
X115119767Y-112754853D01*
X115167386Y-112802472D01*
X115215005Y-112897710D01*
X115215005Y-113183425D01*
X115167386Y-113278663D01*
X115119767Y-113326282D01*
X115024529Y-113373901D01*
X114834052Y-113373901D01*
X114738814Y-113326282D01*
X115786433Y-112802472D02*
X115691195Y-112754853D01*
X115643576Y-112707234D01*
X115595957Y-112611996D01*
X115595957Y-112564377D01*
X115643576Y-112469139D01*
X115691195Y-112421520D01*
X115786433Y-112373901D01*
X115976910Y-112373901D01*
X116072148Y-112421520D01*
X116119767Y-112469139D01*
X116167386Y-112564377D01*
X116167386Y-112611996D01*
X116119767Y-112707234D01*
X116072148Y-112754853D01*
X115976910Y-112802472D01*
X115786433Y-112802472D01*
X115691195Y-112850091D01*
X115643576Y-112897710D01*
X115595957Y-112992949D01*
X115595957Y-113183425D01*
X115643576Y-113278663D01*
X115691195Y-113326282D01*
X115786433Y-113373901D01*
X115976910Y-113373901D01*
X116072148Y-113326282D01*
X116119767Y-113278663D01*
X116167386Y-113183425D01*
X116167386Y-112992949D01*
X116119767Y-112897710D01*
X116072148Y-112850091D01*
X115976910Y-112802472D01*
X113734581Y-104964526D02*
X113734581Y-105535955D01*
X113734581Y-105250241D02*
X112734581Y-105250241D01*
X112877438Y-105345479D01*
X112972676Y-105440717D01*
X113020295Y-105535955D01*
X113067914Y-104535955D02*
X114067914Y-104535955D01*
X113115533Y-104535955D02*
X113067914Y-104440717D01*
X113067914Y-104250240D01*
X113115533Y-104155002D01*
X113163152Y-104107383D01*
X113258390Y-104059764D01*
X113544105Y-104059764D01*
X113639343Y-104107383D01*
X113686962Y-104155002D01*
X113734581Y-104250240D01*
X113734581Y-104440717D01*
X113686962Y-104535955D01*
X112159061Y-105928295D02*
X112159061Y-106118772D01*
X112206680Y-106214010D01*
X112254299Y-106261629D01*
X112397156Y-106356867D01*
X112587632Y-106404486D01*
X112968585Y-106404486D01*
X113063823Y-106356867D01*
X113111442Y-106309248D01*
X113159061Y-106214010D01*
X113159061Y-106023533D01*
X113111442Y-105928295D01*
X113063823Y-105880676D01*
X112968585Y-105833057D01*
X112730490Y-105833057D01*
X112635251Y-105880676D01*
X112587632Y-105928295D01*
X112540013Y-106023533D01*
X112540013Y-106214010D01*
X112587632Y-106309248D01*
X112635251Y-106356867D01*
X112730490Y-106404486D01*
X112587632Y-105261629D02*
X112540013Y-105356867D01*
X112492394Y-105404486D01*
X112397156Y-105452105D01*
X112349537Y-105452105D01*
X112254299Y-105404486D01*
X112206680Y-105356867D01*
X112159061Y-105261629D01*
X112159061Y-105071152D01*
X112206680Y-104975914D01*
X112254299Y-104928295D01*
X112349537Y-104880676D01*
X112397156Y-104880676D01*
X112492394Y-104928295D01*
X112540013Y-104975914D01*
X112587632Y-105071152D01*
X112587632Y-105261629D01*
X112635251Y-105356867D01*
X112682870Y-105404486D01*
X112778109Y-105452105D01*
X112968585Y-105452105D01*
X113063823Y-105404486D01*
X113111442Y-105356867D01*
X113159061Y-105261629D01*
X113159061Y-105071152D01*
X113111442Y-104975914D01*
X113063823Y-104928295D01*
X112968585Y-104880676D01*
X112778109Y-104880676D01*
X112682870Y-104928295D01*
X112635251Y-104975914D01*
X112587632Y-105071152D01*
X112492394Y-104452105D02*
X113492394Y-104452105D01*
X112540013Y-104452105D02*
X112492394Y-104356867D01*
X112492394Y-104166390D01*
X112540013Y-104071152D01*
X112587632Y-104023533D01*
X112682870Y-103975914D01*
X112968585Y-103975914D01*
X113063823Y-104023533D01*
X113111442Y-104071152D01*
X113159061Y-104166390D01*
X113159061Y-104356867D01*
X113111442Y-104452105D01*
X165935143Y-115880714D02*
X165935143Y-116547381D01*
X165697047Y-115499762D02*
X165458952Y-116214048D01*
X166078000Y-116214048D01*
X166363714Y-115547381D02*
X167030381Y-115547381D01*
X166601809Y-116547381D01*
X167839905Y-115880714D02*
X167839905Y-116547381D01*
X167411333Y-115880714D02*
X167411333Y-116404524D01*
X167458952Y-116499762D01*
X167554190Y-116547381D01*
X167697048Y-116547381D01*
X167792286Y-116499762D01*
X167839905Y-116452143D01*
X169030381Y-115499762D02*
X168173238Y-116785476D01*
X169839905Y-115547381D02*
X169363714Y-115547381D01*
X169316095Y-116023571D01*
X169363714Y-115975952D01*
X169458952Y-115928333D01*
X169697048Y-115928333D01*
X169792286Y-115975952D01*
X169839905Y-116023571D01*
X169887524Y-116118810D01*
X169887524Y-116356905D01*
X169839905Y-116452143D01*
X169792286Y-116499762D01*
X169697048Y-116547381D01*
X169458952Y-116547381D01*
X169363714Y-116499762D01*
X169316095Y-116452143D01*
X170506571Y-115547381D02*
X170601810Y-115547381D01*
X170697048Y-115595000D01*
X170744667Y-115642619D01*
X170792286Y-115737857D01*
X170839905Y-115928333D01*
X170839905Y-116166429D01*
X170792286Y-116356905D01*
X170744667Y-116452143D01*
X170697048Y-116499762D01*
X170601810Y-116547381D01*
X170506571Y-116547381D01*
X170411333Y-116499762D01*
X170363714Y-116452143D01*
X170316095Y-116356905D01*
X170268476Y-116166429D01*
X170268476Y-115928333D01*
X170316095Y-115737857D01*
X170363714Y-115642619D01*
X170411333Y-115595000D01*
X170506571Y-115547381D01*
X171125619Y-115547381D02*
X171458952Y-116547381D01*
X171792286Y-115547381D01*
X108539114Y-109701555D02*
X109205781Y-109701555D01*
X108158162Y-109939651D02*
X108872448Y-110177746D01*
X108872448Y-109558698D01*
X108539114Y-109177746D02*
X109539114Y-109177746D01*
X108586733Y-109177746D02*
X108539114Y-109082508D01*
X108539114Y-108892031D01*
X108586733Y-108796793D01*
X108634352Y-108749174D01*
X108729590Y-108701555D01*
X109015305Y-108701555D01*
X109110543Y-108749174D01*
X109158162Y-108796793D01*
X109205781Y-108892031D01*
X109205781Y-109082508D01*
X109158162Y-109177746D01*
X108205781Y-108368222D02*
X108205781Y-107701555D01*
X109205781Y-108130127D01*
X153437173Y-113204981D02*
X152865744Y-113204981D01*
X153151458Y-113204981D02*
X153151458Y-112204981D01*
X153056220Y-112347838D01*
X152960982Y-112443076D01*
X152865744Y-112490695D01*
X154056220Y-112204981D02*
X154151459Y-112204981D01*
X154246697Y-112252600D01*
X154294316Y-112300219D01*
X154341935Y-112395457D01*
X154389554Y-112585933D01*
X154389554Y-112824029D01*
X154341935Y-113014505D01*
X154294316Y-113109743D01*
X154246697Y-113157362D01*
X154151459Y-113204981D01*
X154056220Y-113204981D01*
X153960982Y-113157362D01*
X153913363Y-113109743D01*
X153865744Y-113014505D01*
X153818125Y-112824029D01*
X153818125Y-112585933D01*
X153865744Y-112395457D01*
X153913363Y-112300219D01*
X153960982Y-112252600D01*
X154056220Y-112204981D01*
X155008601Y-112204981D02*
X155103840Y-112204981D01*
X155199078Y-112252600D01*
X155246697Y-112300219D01*
X155294316Y-112395457D01*
X155341935Y-112585933D01*
X155341935Y-112824029D01*
X155294316Y-113014505D01*
X155246697Y-113109743D01*
X155199078Y-113157362D01*
X155103840Y-113204981D01*
X155008601Y-113204981D01*
X154913363Y-113157362D01*
X154865744Y-113109743D01*
X154818125Y-113014505D01*
X154770506Y-112824029D01*
X154770506Y-112585933D01*
X154818125Y-112395457D01*
X154865744Y-112300219D01*
X154913363Y-112252600D01*
X155008601Y-112204981D01*
X155770506Y-112538314D02*
X155770506Y-113204981D01*
X155770506Y-112633552D02*
X155818125Y-112585933D01*
X155913363Y-112538314D01*
X156056221Y-112538314D01*
X156151459Y-112585933D01*
X156199078Y-112681171D01*
X156199078Y-113204981D01*
X111023214Y-106238175D02*
X111689881Y-106238175D01*
X110642262Y-106476271D02*
X111356548Y-106714366D01*
X111356548Y-106095318D01*
X111023214Y-105714366D02*
X112023214Y-105714366D01*
X111070833Y-105714366D02*
X111023214Y-105619128D01*
X111023214Y-105428651D01*
X111070833Y-105333413D01*
X111118452Y-105285794D01*
X111213690Y-105238175D01*
X111499405Y-105238175D01*
X111594643Y-105285794D01*
X111642262Y-105333413D01*
X111689881Y-105428651D01*
X111689881Y-105619128D01*
X111642262Y-105714366D01*
X110689881Y-104904842D02*
X110689881Y-104238175D01*
X111689881Y-104666747D01*
X151426744Y-112229981D02*
X150950553Y-112229981D01*
X150902934Y-112706171D01*
X150950553Y-112658552D01*
X151045791Y-112610933D01*
X151283887Y-112610933D01*
X151379125Y-112658552D01*
X151426744Y-112706171D01*
X151474363Y-112801410D01*
X151474363Y-113039505D01*
X151426744Y-113134743D01*
X151379125Y-113182362D01*
X151283887Y-113229981D01*
X151045791Y-113229981D01*
X150950553Y-113182362D01*
X150902934Y-113134743D01*
X152331506Y-112229981D02*
X152141029Y-112229981D01*
X152045791Y-112277600D01*
X151998172Y-112325219D01*
X151902934Y-112468076D01*
X151855315Y-112658552D01*
X151855315Y-113039505D01*
X151902934Y-113134743D01*
X151950553Y-113182362D01*
X152045791Y-113229981D01*
X152236268Y-113229981D01*
X152331506Y-113182362D01*
X152379125Y-113134743D01*
X152426744Y-113039505D01*
X152426744Y-112801410D01*
X152379125Y-112706171D01*
X152331506Y-112658552D01*
X152236268Y-112610933D01*
X152045791Y-112610933D01*
X151950553Y-112658552D01*
X151902934Y-112706171D01*
X151855315Y-112801410D01*
X152855315Y-112563314D02*
X152855315Y-113563314D01*
X152855315Y-112610933D02*
X152950553Y-112563314D01*
X153141030Y-112563314D01*
X153236268Y-112610933D01*
X153283887Y-112658552D01*
X153331506Y-112753790D01*
X153331506Y-113039505D01*
X153283887Y-113134743D01*
X153236268Y-113182362D01*
X153141030Y-113229981D01*
X152950553Y-113229981D01*
X152855315Y-113182362D01*
X149243524Y-112607381D02*
X148767333Y-112607381D01*
X148719714Y-113083571D01*
X148767333Y-113035952D01*
X148862571Y-112988333D01*
X149100667Y-112988333D01*
X149195905Y-113035952D01*
X149243524Y-113083571D01*
X149291143Y-113178810D01*
X149291143Y-113416905D01*
X149243524Y-113512143D01*
X149195905Y-113559762D01*
X149100667Y-113607381D01*
X148862571Y-113607381D01*
X148767333Y-113559762D01*
X148719714Y-113512143D01*
X150148286Y-112607381D02*
X149957809Y-112607381D01*
X149862571Y-112655000D01*
X149814952Y-112702619D01*
X149719714Y-112845476D01*
X149672095Y-113035952D01*
X149672095Y-113416905D01*
X149719714Y-113512143D01*
X149767333Y-113559762D01*
X149862571Y-113607381D01*
X150053048Y-113607381D01*
X150148286Y-113559762D01*
X150195905Y-113512143D01*
X150243524Y-113416905D01*
X150243524Y-113178810D01*
X150195905Y-113083571D01*
X150148286Y-113035952D01*
X150053048Y-112988333D01*
X149862571Y-112988333D01*
X149767333Y-113035952D01*
X149719714Y-113083571D01*
X149672095Y-113178810D01*
X150672095Y-112940714D02*
X150672095Y-113940714D01*
X150672095Y-112988333D02*
X150767333Y-112940714D01*
X150957810Y-112940714D01*
X151053048Y-112988333D01*
X151100667Y-113035952D01*
X151148286Y-113131190D01*
X151148286Y-113416905D01*
X151100667Y-113512143D01*
X151053048Y-113559762D01*
X150957810Y-113607381D01*
X150767333Y-113607381D01*
X150672095Y-113559762D01*
X143950974Y-108052479D02*
X143998593Y-108004860D01*
X144093831Y-107957241D01*
X144331927Y-107957241D01*
X144427165Y-108004860D01*
X144474784Y-108052479D01*
X144522403Y-108147717D01*
X144522403Y-108242955D01*
X144474784Y-108385812D01*
X143903355Y-108957241D01*
X144522403Y-108957241D01*
X144950974Y-108290574D02*
X144950974Y-108957241D01*
X144950974Y-108385812D02*
X144998593Y-108338193D01*
X145093831Y-108290574D01*
X145236689Y-108290574D01*
X145331927Y-108338193D01*
X145379546Y-108433431D01*
X145379546Y-108957241D01*
X145808117Y-108052479D02*
X145855736Y-108004860D01*
X145950974Y-107957241D01*
X146189070Y-107957241D01*
X146284308Y-108004860D01*
X146331927Y-108052479D01*
X146379546Y-108147717D01*
X146379546Y-108242955D01*
X146331927Y-108385812D01*
X145760498Y-108957241D01*
X146379546Y-108957241D01*
X142421143Y-115816381D02*
X141944952Y-115816381D01*
X141944952Y-114816381D01*
X142754476Y-115292571D02*
X143087810Y-115292571D01*
X143230667Y-115816381D02*
X142754476Y-115816381D01*
X142754476Y-114816381D01*
X143230667Y-114816381D01*
X143659238Y-115816381D02*
X143659238Y-114816381D01*
X143897333Y-114816381D01*
X144040191Y-114864000D01*
X144135429Y-114959238D01*
X144183048Y-115054476D01*
X144230667Y-115244952D01*
X144230667Y-115387810D01*
X144183048Y-115578286D01*
X144135429Y-115673524D01*
X144040191Y-115768762D01*
X143897333Y-115816381D01*
X143659238Y-115816381D01*
X145230667Y-115816381D02*
X144897333Y-115340190D01*
X144659238Y-115816381D02*
X144659238Y-114816381D01*
X145040191Y-114816381D01*
X145135429Y-114864000D01*
X145183048Y-114911619D01*
X145230667Y-115006857D01*
X145230667Y-115149714D01*
X145183048Y-115244952D01*
X145135429Y-115292571D01*
X145040191Y-115340190D01*
X144659238Y-115340190D01*
X145659238Y-115435429D02*
X146421143Y-115435429D01*
X147373524Y-115816381D02*
X146897333Y-115816381D01*
X146897333Y-114816381D01*
X147706857Y-115816381D02*
X147706857Y-114816381D01*
X147706857Y-115292571D02*
X148278286Y-115292571D01*
X148278286Y-115816381D02*
X148278286Y-114816381D01*
X148754476Y-115816381D02*
X148754476Y-114816381D01*
X149325905Y-115816381D01*
X149325905Y-114816381D01*
X149849714Y-115816381D02*
X150040190Y-115816381D01*
X150135429Y-115768762D01*
X150183048Y-115721143D01*
X150278286Y-115578286D01*
X150325905Y-115387810D01*
X150325905Y-115006857D01*
X150278286Y-114911619D01*
X150230667Y-114864000D01*
X150135429Y-114816381D01*
X149944952Y-114816381D01*
X149849714Y-114864000D01*
X149802095Y-114911619D01*
X149754476Y-115006857D01*
X149754476Y-115244952D01*
X149802095Y-115340190D01*
X149849714Y-115387810D01*
X149944952Y-115435429D01*
X150135429Y-115435429D01*
X150230667Y-115387810D01*
X150278286Y-115340190D01*
X150325905Y-115244952D01*
X150659238Y-114816381D02*
X151325905Y-114816381D01*
X150897333Y-115816381D01*
X152135429Y-115149714D02*
X152135429Y-115816381D01*
X151897333Y-114768762D02*
X151659238Y-115483048D01*
X152278286Y-115483048D01*
X113754741Y-106664776D02*
X113754741Y-107140967D01*
X114230931Y-107188586D01*
X114183312Y-107140967D01*
X114135693Y-107045729D01*
X114135693Y-106807633D01*
X114183312Y-106712395D01*
X114230931Y-106664776D01*
X114326170Y-106617157D01*
X114564265Y-106617157D01*
X114659503Y-106664776D01*
X114707122Y-106712395D01*
X114754741Y-106807633D01*
X114754741Y-107045729D01*
X114707122Y-107140967D01*
X114659503Y-107188586D01*
X114088074Y-106188586D02*
X114754741Y-106188586D01*
X114183312Y-106188586D02*
X114135693Y-106140967D01*
X114088074Y-106045729D01*
X114088074Y-105902871D01*
X114135693Y-105807633D01*
X114230931Y-105760014D01*
X114754741Y-105760014D01*
X113754741Y-104855252D02*
X113754741Y-105045729D01*
X113802360Y-105140967D01*
X113849979Y-105188586D01*
X113992836Y-105283824D01*
X114183312Y-105331443D01*
X114564265Y-105331443D01*
X114659503Y-105283824D01*
X114707122Y-105236205D01*
X114754741Y-105140967D01*
X114754741Y-104950490D01*
X114707122Y-104855252D01*
X114659503Y-104807633D01*
X114564265Y-104760014D01*
X114326170Y-104760014D01*
X114230931Y-104807633D01*
X114183312Y-104855252D01*
X114135693Y-104950490D01*
X114135693Y-105140967D01*
X114183312Y-105236205D01*
X114230931Y-105283824D01*
X114326170Y-105331443D01*
D13*
X116192836Y-106102871D02*
X116192836Y-106198109D01*
X115992836Y-106198109D01*
X116192836Y-105931442D02*
X116192836Y-106045728D01*
X116192836Y-105988585D02*
X115992836Y-105988585D01*
X116021408Y-106007633D01*
X116040455Y-106026680D01*
X116049979Y-106045728D01*
X116192836Y-105740966D02*
X116192836Y-105855252D01*
X116192836Y-105798109D02*
X115992836Y-105798109D01*
X116021408Y-105817157D01*
X116040455Y-105836204D01*
X116049979Y-105855252D01*
D12*
X160231619Y-111601381D02*
X160184000Y-111696619D01*
X160088762Y-111791857D01*
X159945905Y-111934714D01*
X159898286Y-112029953D01*
X159898286Y-112125191D01*
X160136381Y-112077572D02*
X160088762Y-112172810D01*
X159993524Y-112268048D01*
X159803048Y-112315667D01*
X159469714Y-112315667D01*
X159279238Y-112268048D01*
X159184000Y-112172810D01*
X159136381Y-112077572D01*
X159136381Y-111887095D01*
X159184000Y-111791857D01*
X159279238Y-111696619D01*
X159469714Y-111649000D01*
X159803048Y-111649000D01*
X159993524Y-111696619D01*
X160088762Y-111791857D01*
X160136381Y-111887095D01*
X160136381Y-112077572D01*
X160231619Y-111458524D02*
X160231619Y-110696619D01*
X160136381Y-110458524D02*
X159136381Y-110458524D01*
X160136381Y-109887095D01*
X159136381Y-109887095D01*
X160136381Y-109410905D02*
X159136381Y-109410905D01*
X159850667Y-109077571D01*
X159136381Y-108744238D01*
X160136381Y-108744238D01*
X159136381Y-108077572D02*
X159136381Y-107887095D01*
X159184000Y-107791857D01*
X159279238Y-107696619D01*
X159469714Y-107649000D01*
X159803048Y-107649000D01*
X159993524Y-107696619D01*
X160088762Y-107791857D01*
X160136381Y-107887095D01*
X160136381Y-108077572D01*
X160088762Y-108172810D01*
X159993524Y-108268048D01*
X159803048Y-108315667D01*
X159469714Y-108315667D01*
X159279238Y-108268048D01*
X159184000Y-108172810D01*
X159136381Y-108077572D01*
X160088762Y-107268048D02*
X160136381Y-107125191D01*
X160136381Y-106887095D01*
X160088762Y-106791857D01*
X160041143Y-106744238D01*
X159945905Y-106696619D01*
X159850667Y-106696619D01*
X159755429Y-106744238D01*
X159707810Y-106791857D01*
X159660190Y-106887095D01*
X159612571Y-107077572D01*
X159564952Y-107172810D01*
X159517333Y-107220429D01*
X159422095Y-107268048D01*
X159326857Y-107268048D01*
X159231619Y-107220429D01*
X159184000Y-107172810D01*
X159136381Y-107077572D01*
X159136381Y-106839476D01*
X159184000Y-106696619D01*
X160231619Y-106506143D02*
X160231619Y-105744238D01*
X160136381Y-105506143D02*
X159136381Y-105506143D01*
X159136381Y-105268048D01*
X159184000Y-105125190D01*
X159279238Y-105029952D01*
X159374476Y-104982333D01*
X159564952Y-104934714D01*
X159707810Y-104934714D01*
X159898286Y-104982333D01*
X159993524Y-105029952D01*
X160088762Y-105125190D01*
X160136381Y-105268048D01*
X160136381Y-105506143D01*
X159184000Y-103982333D02*
X159136381Y-104077571D01*
X159136381Y-104220428D01*
X159184000Y-104363286D01*
X159279238Y-104458524D01*
X159374476Y-104506143D01*
X159564952Y-104553762D01*
X159707810Y-104553762D01*
X159898286Y-104506143D01*
X159993524Y-104458524D01*
X160088762Y-104363286D01*
X160136381Y-104220428D01*
X160136381Y-104125190D01*
X160088762Y-103982333D01*
X160041143Y-103934714D01*
X159707810Y-103934714D01*
X159707810Y-104125190D01*
X160088762Y-103553762D02*
X160136381Y-103410905D01*
X160136381Y-103172809D01*
X160088762Y-103077571D01*
X160041143Y-103029952D01*
X159945905Y-102982333D01*
X159850667Y-102982333D01*
X159755429Y-103029952D01*
X159707810Y-103077571D01*
X159660190Y-103172809D01*
X159612571Y-103363286D01*
X159564952Y-103458524D01*
X159517333Y-103506143D01*
X159422095Y-103553762D01*
X159326857Y-103553762D01*
X159231619Y-103506143D01*
X159184000Y-103458524D01*
X159136381Y-103363286D01*
X159136381Y-103125190D01*
X159184000Y-102982333D01*
X120385376Y-106070741D02*
X121004424Y-106070741D01*
X120671090Y-106451693D01*
X120813948Y-106451693D01*
X120909186Y-106499312D01*
X120956805Y-106546931D01*
X121004424Y-106642170D01*
X121004424Y-106880265D01*
X120956805Y-106975503D01*
X120909186Y-107023122D01*
X120813948Y-107070741D01*
X120528233Y-107070741D01*
X120432995Y-107023122D01*
X120385376Y-106975503D01*
X121623471Y-106070741D02*
X121718710Y-106070741D01*
X121813948Y-106118360D01*
X121861567Y-106165979D01*
X121909186Y-106261217D01*
X121956805Y-106451693D01*
X121956805Y-106689789D01*
X121909186Y-106880265D01*
X121861567Y-106975503D01*
X121813948Y-107023122D01*
X121718710Y-107070741D01*
X121623471Y-107070741D01*
X121528233Y-107023122D01*
X121480614Y-106975503D01*
X121432995Y-106880265D01*
X121385376Y-106689789D01*
X121385376Y-106451693D01*
X121432995Y-106261217D01*
X121480614Y-106165979D01*
X121528233Y-106118360D01*
X121623471Y-106070741D01*
X122385376Y-107070741D02*
X122385376Y-106070741D01*
X122718710Y-106785027D01*
X123052043Y-106070741D01*
X123052043Y-107070741D01*
X123528233Y-107070741D02*
X123528233Y-106070741D01*
X123528233Y-106546931D02*
X124099662Y-106546931D01*
X124099662Y-107070741D02*
X124099662Y-106070741D01*
X124480614Y-106404074D02*
X125004424Y-106404074D01*
X124480614Y-107070741D01*
X125004424Y-107070741D01*
D14*
X122352043Y-104746931D02*
X122294900Y-104718360D01*
X122237757Y-104661217D01*
X122152043Y-104575503D01*
X122094900Y-104546931D01*
X122037757Y-104546931D01*
X122066329Y-104689789D02*
X122009186Y-104661217D01*
X121952043Y-104604074D01*
X121923472Y-104489789D01*
X121923472Y-104289789D01*
X121952043Y-104175503D01*
X122009186Y-104118360D01*
X122066329Y-104089789D01*
X122180615Y-104089789D01*
X122237757Y-104118360D01*
X122294900Y-104175503D01*
X122323472Y-104289789D01*
X122323472Y-104489789D01*
X122294900Y-104604074D01*
X122237757Y-104661217D01*
X122180615Y-104689789D01*
X122066329Y-104689789D01*
X122523471Y-104089789D02*
X122923471Y-104089789D01*
X122523471Y-104689789D01*
X122923471Y-104689789D01*
X123466329Y-104689789D02*
X123123472Y-104689789D01*
X123294900Y-104689789D02*
X123294900Y-104089789D01*
X123237757Y-104175503D01*
X123180615Y-104232646D01*
X123123472Y-104261217D01*
D12*
X149524905Y-114507381D02*
X150143953Y-114507381D01*
X149810619Y-114888333D01*
X149953477Y-114888333D01*
X150048715Y-114935952D01*
X150096334Y-114983571D01*
X150143953Y-115078810D01*
X150143953Y-115316905D01*
X150096334Y-115412143D01*
X150048715Y-115459762D01*
X149953477Y-115507381D01*
X149667762Y-115507381D01*
X149572524Y-115459762D01*
X149524905Y-115412143D01*
X150524905Y-114602619D02*
X150572524Y-114555000D01*
X150667762Y-114507381D01*
X150905858Y-114507381D01*
X151001096Y-114555000D01*
X151048715Y-114602619D01*
X151096334Y-114697857D01*
X151096334Y-114793095D01*
X151048715Y-114935952D01*
X150477286Y-115507381D01*
X151096334Y-115507381D01*
X151524905Y-115507381D02*
X151524905Y-114507381D01*
X152096334Y-115507381D02*
X151667762Y-114935952D01*
X152096334Y-114507381D02*
X151524905Y-115078810D01*
X152524905Y-115507381D02*
X152524905Y-114507381D01*
X152524905Y-114983571D02*
X153096334Y-114983571D01*
X153096334Y-115507381D02*
X153096334Y-114507381D01*
X153477286Y-114840714D02*
X154001096Y-114840714D01*
X153477286Y-115507381D01*
X154001096Y-115507381D01*
X151191572Y-111602619D02*
X151096334Y-111555000D01*
X151001096Y-111459762D01*
X150858239Y-111316905D01*
X150763000Y-111269286D01*
X150667762Y-111269286D01*
X150715381Y-111507381D02*
X150620143Y-111459762D01*
X150524905Y-111364524D01*
X150477286Y-111174048D01*
X150477286Y-110840714D01*
X150524905Y-110650238D01*
X150620143Y-110555000D01*
X150715381Y-110507381D01*
X150905858Y-110507381D01*
X151001096Y-110555000D01*
X151096334Y-110650238D01*
X151143953Y-110840714D01*
X151143953Y-111174048D01*
X151096334Y-111364524D01*
X151001096Y-111459762D01*
X150905858Y-111507381D01*
X150715381Y-111507381D01*
X151477286Y-110507381D02*
X152143953Y-110507381D01*
X151477286Y-111507381D01*
X152143953Y-111507381D01*
X152429667Y-110507381D02*
X153048715Y-110507381D01*
X152715381Y-110888333D01*
X152858239Y-110888333D01*
X152953477Y-110935952D01*
X153001096Y-110983571D01*
X153048715Y-111078810D01*
X153048715Y-111316905D01*
X153001096Y-111412143D01*
X152953477Y-111459762D01*
X152858239Y-111507381D01*
X152572524Y-111507381D01*
X152477286Y-111459762D01*
X152429667Y-111412143D01*
X114844401Y-108442515D02*
X114844401Y-108918706D01*
X115320591Y-108966325D01*
X115272972Y-108918706D01*
X115225353Y-108823468D01*
X115225353Y-108585372D01*
X115272972Y-108490134D01*
X115320591Y-108442515D01*
X115415830Y-108394896D01*
X115653925Y-108394896D01*
X115749163Y-108442515D01*
X115796782Y-108490134D01*
X115844401Y-108585372D01*
X115844401Y-108823468D01*
X115796782Y-108918706D01*
X115749163Y-108966325D01*
X114844401Y-107775849D02*
X114844401Y-107680610D01*
X114892020Y-107585372D01*
X114939639Y-107537753D01*
X115034877Y-107490134D01*
X115225353Y-107442515D01*
X115463449Y-107442515D01*
X115653925Y-107490134D01*
X115749163Y-107537753D01*
X115796782Y-107585372D01*
X115844401Y-107680610D01*
X115844401Y-107775849D01*
X115796782Y-107871087D01*
X115749163Y-107918706D01*
X115653925Y-107966325D01*
X115463449Y-108013944D01*
X115225353Y-108013944D01*
X115034877Y-107966325D01*
X114939639Y-107918706D01*
X114892020Y-107871087D01*
X114844401Y-107775849D01*
X161363381Y-109575047D02*
X161363381Y-110146476D01*
X161363381Y-109860762D02*
X160363381Y-109860762D01*
X160506238Y-109956000D01*
X160601476Y-110051238D01*
X160649095Y-110146476D01*
X161363381Y-109146476D02*
X160363381Y-109146476D01*
X160982429Y-109051238D02*
X161363381Y-108765523D01*
X160696714Y-108765523D02*
X161077667Y-109146476D01*
X162387953Y-114952381D02*
X161816524Y-114952381D01*
X162102238Y-114952381D02*
X162102238Y-113952381D01*
X162007000Y-114095238D01*
X161911762Y-114190476D01*
X161816524Y-114238095D01*
X162816524Y-114952381D02*
X162816524Y-113952381D01*
X162911762Y-114571429D02*
X163197477Y-114952381D01*
X163197477Y-114285714D02*
X162816524Y-114666667D01*
X166547619Y-114848428D02*
X166500000Y-114800809D01*
X166452381Y-114705571D01*
X166452381Y-114467475D01*
X166500000Y-114372237D01*
X166547619Y-114324618D01*
X166642857Y-114276999D01*
X166738095Y-114276999D01*
X166880952Y-114324618D01*
X167452381Y-114896047D01*
X167452381Y-114276999D01*
X167404762Y-113800809D02*
X167452381Y-113800809D01*
X167547619Y-113848428D01*
X167595238Y-113896047D01*
X166547619Y-113419857D02*
X166500000Y-113372238D01*
X166452381Y-113277000D01*
X166452381Y-113038904D01*
X166500000Y-112943666D01*
X166547619Y-112896047D01*
X166642857Y-112848428D01*
X166738095Y-112848428D01*
X166880952Y-112896047D01*
X167452381Y-113467476D01*
X167452381Y-112848428D01*
X167452381Y-112419857D02*
X166452381Y-112419857D01*
X167166667Y-112086523D01*
X166452381Y-111753190D01*
X167452381Y-111753190D01*
X141414974Y-107056574D02*
X142081641Y-107056574D01*
X141034022Y-107294670D02*
X141748308Y-107532765D01*
X141748308Y-106913717D01*
X141081641Y-106628003D02*
X141081641Y-105961336D01*
X142081641Y-106389908D01*
X142081641Y-105580384D02*
X141081641Y-105580384D01*
X142081641Y-105008955D02*
X141510212Y-105437527D01*
X141081641Y-105008955D02*
X141653070Y-105580384D01*
X146116714Y-112673904D02*
X146783381Y-112673904D01*
X145735762Y-112912000D02*
X146450048Y-113150095D01*
X146450048Y-112531047D01*
X145783381Y-112245333D02*
X145783381Y-111578666D01*
X146783381Y-112007238D01*
X145783381Y-111007238D02*
X145783381Y-110911999D01*
X145831000Y-110816761D01*
X145878619Y-110769142D01*
X145973857Y-110721523D01*
X146164333Y-110673904D01*
X146402429Y-110673904D01*
X146592905Y-110721523D01*
X146688143Y-110769142D01*
X146735762Y-110816761D01*
X146783381Y-110911999D01*
X146783381Y-111007238D01*
X146735762Y-111102476D01*
X146688143Y-111150095D01*
X146592905Y-111197714D01*
X146402429Y-111245333D01*
X146164333Y-111245333D01*
X145973857Y-111197714D01*
X145878619Y-111150095D01*
X145831000Y-111102476D01*
X145783381Y-111007238D01*
X117145641Y-105140119D02*
X117145641Y-105044880D01*
X117193260Y-104949642D01*
X117240879Y-104902023D01*
X117336117Y-104854404D01*
X117526593Y-104806785D01*
X117764689Y-104806785D01*
X117955165Y-104854404D01*
X118050403Y-104902023D01*
X118098022Y-104949642D01*
X118145641Y-105044880D01*
X118145641Y-105140119D01*
X118098022Y-105235357D01*
X118050403Y-105282976D01*
X117955165Y-105330595D01*
X117764689Y-105378214D01*
X117526593Y-105378214D01*
X117336117Y-105330595D01*
X117240879Y-105282976D01*
X117193260Y-105235357D01*
X117145641Y-105140119D01*
X154768381Y-104474619D02*
X154768381Y-104379380D01*
X154816000Y-104284142D01*
X154863619Y-104236523D01*
X154958857Y-104188904D01*
X155149333Y-104141285D01*
X155387429Y-104141285D01*
X155577905Y-104188904D01*
X155673143Y-104236523D01*
X155720762Y-104284142D01*
X155768381Y-104379380D01*
X155768381Y-104474619D01*
X155720762Y-104569857D01*
X155673143Y-104617476D01*
X155577905Y-104665095D01*
X155387429Y-104712714D01*
X155149333Y-104712714D01*
X154958857Y-104665095D01*
X154863619Y-104617476D01*
X154816000Y-104569857D01*
X154768381Y-104474619D01*
X119418309Y-114456062D02*
X119561166Y-114503681D01*
X119799262Y-114503681D01*
X119894500Y-114456062D01*
X119942119Y-114408443D01*
X119989738Y-114313205D01*
X119989738Y-114217967D01*
X119942119Y-114122729D01*
X119894500Y-114075110D01*
X119799262Y-114027490D01*
X119608785Y-113979871D01*
X119513547Y-113932252D01*
X119465928Y-113884633D01*
X119418309Y-113789395D01*
X119418309Y-113694157D01*
X119465928Y-113598919D01*
X119513547Y-113551300D01*
X119608785Y-113503681D01*
X119846881Y-113503681D01*
X119989738Y-113551300D01*
X120418309Y-114503681D02*
X120418309Y-113503681D01*
X121323071Y-113837014D02*
X121323071Y-114503681D01*
X121084975Y-113456062D02*
X120846880Y-114170348D01*
X121465928Y-114170348D01*
X122275452Y-113837014D02*
X122275452Y-114503681D01*
X122037356Y-113456062D02*
X121799261Y-114170348D01*
X122418309Y-114170348D01*
X122704023Y-113503681D02*
X123323071Y-113503681D01*
X122989737Y-113884633D01*
X123132595Y-113884633D01*
X123227833Y-113932252D01*
X123275452Y-113979871D01*
X123323071Y-114075110D01*
X123323071Y-114313205D01*
X123275452Y-114408443D01*
X123227833Y-114456062D01*
X123132595Y-114503681D01*
X122846880Y-114503681D01*
X122751642Y-114456062D01*
X122704023Y-114408443D01*
X123704023Y-113598919D02*
X123751642Y-113551300D01*
X123846880Y-113503681D01*
X124084976Y-113503681D01*
X124180214Y-113551300D01*
X124227833Y-113598919D01*
X124275452Y-113694157D01*
X124275452Y-113789395D01*
X124227833Y-113932252D01*
X123656404Y-114503681D01*
X124275452Y-114503681D01*
X125037357Y-113979871D02*
X125180214Y-114027490D01*
X125227833Y-114075110D01*
X125275452Y-114170348D01*
X125275452Y-114313205D01*
X125227833Y-114408443D01*
X125180214Y-114456062D01*
X125084976Y-114503681D01*
X124704023Y-114503681D01*
X124704023Y-113503681D01*
X125037357Y-113503681D01*
X125132595Y-113551300D01*
X125180214Y-113598919D01*
X125227833Y-113694157D01*
X125227833Y-113789395D01*
X125180214Y-113884633D01*
X125132595Y-113932252D01*
X125037357Y-113979871D01*
X124704023Y-113979871D01*
X145889048Y-105109381D02*
X145889048Y-104109381D01*
X146222382Y-104823667D01*
X146555715Y-104109381D01*
X146555715Y-105109381D01*
X146984286Y-105061762D02*
X147127143Y-105109381D01*
X147365239Y-105109381D01*
X147460477Y-105061762D01*
X147508096Y-105014143D01*
X147555715Y-104918905D01*
X147555715Y-104823667D01*
X147508096Y-104728429D01*
X147460477Y-104680810D01*
X147365239Y-104633190D01*
X147174762Y-104585571D01*
X147079524Y-104537952D01*
X147031905Y-104490333D01*
X146984286Y-104395095D01*
X146984286Y-104299857D01*
X147031905Y-104204619D01*
X147079524Y-104157000D01*
X147174762Y-104109381D01*
X147412858Y-104109381D01*
X147555715Y-104157000D01*
X147984286Y-105109381D02*
X147984286Y-104109381D01*
X148365239Y-104109381D01*
X148460477Y-104157000D01*
X148508096Y-104204619D01*
X148555715Y-104299857D01*
X148555715Y-104442714D01*
X148508096Y-104537952D01*
X148460477Y-104585571D01*
X148365239Y-104633190D01*
X147984286Y-104633190D01*
X149412858Y-104442714D02*
X149412858Y-105109381D01*
X149174762Y-104061762D02*
X148936667Y-104776048D01*
X149555715Y-104776048D01*
X149841429Y-104109381D02*
X150460477Y-104109381D01*
X150127143Y-104490333D01*
X150270001Y-104490333D01*
X150365239Y-104537952D01*
X150412858Y-104585571D01*
X150460477Y-104680810D01*
X150460477Y-104918905D01*
X150412858Y-105014143D01*
X150365239Y-105061762D01*
X150270001Y-105109381D01*
X149984286Y-105109381D01*
X149889048Y-105061762D01*
X149841429Y-105014143D01*
X151079524Y-104109381D02*
X151174763Y-104109381D01*
X151270001Y-104157000D01*
X151317620Y-104204619D01*
X151365239Y-104299857D01*
X151412858Y-104490333D01*
X151412858Y-104728429D01*
X151365239Y-104918905D01*
X151317620Y-105014143D01*
X151270001Y-105061762D01*
X151174763Y-105109381D01*
X151079524Y-105109381D01*
X150984286Y-105061762D01*
X150936667Y-105014143D01*
X150889048Y-104918905D01*
X150841429Y-104728429D01*
X150841429Y-104490333D01*
X150889048Y-104299857D01*
X150936667Y-104204619D01*
X150984286Y-104157000D01*
X151079524Y-104109381D01*
X152365239Y-104157000D02*
X152270001Y-104109381D01*
X152127144Y-104109381D01*
X151984286Y-104157000D01*
X151889048Y-104252238D01*
X151841429Y-104347476D01*
X151793810Y-104537952D01*
X151793810Y-104680810D01*
X151841429Y-104871286D01*
X151889048Y-104966524D01*
X151984286Y-105061762D01*
X152127144Y-105109381D01*
X152222382Y-105109381D01*
X152365239Y-105061762D01*
X152412858Y-105014143D01*
X152412858Y-104680810D01*
X152222382Y-104680810D01*
X152793810Y-104204619D02*
X152841429Y-104157000D01*
X152936667Y-104109381D01*
X153174763Y-104109381D01*
X153270001Y-104157000D01*
X153317620Y-104204619D01*
X153365239Y-104299857D01*
X153365239Y-104395095D01*
X153317620Y-104537952D01*
X152746191Y-105109381D01*
X153365239Y-105109381D01*
X154222382Y-104442714D02*
X154222382Y-105109381D01*
X153984286Y-104061762D02*
X153746191Y-104776048D01*
X154365239Y-104776048D01*
X154650953Y-104109381D02*
X155270001Y-104109381D01*
X154936667Y-104490333D01*
X155079525Y-104490333D01*
X155174763Y-104537952D01*
X155222382Y-104585571D01*
X155270001Y-104680810D01*
X155270001Y-104918905D01*
X155222382Y-105014143D01*
X155174763Y-105061762D01*
X155079525Y-105109381D01*
X154793810Y-105109381D01*
X154698572Y-105061762D01*
X154650953Y-105014143D01*
X155603334Y-104109381D02*
X156222382Y-104109381D01*
X155889048Y-104490333D01*
X156031906Y-104490333D01*
X156127144Y-104537952D01*
X156174763Y-104585571D01*
X156222382Y-104680810D01*
X156222382Y-104918905D01*
X156174763Y-105014143D01*
X156127144Y-105061762D01*
X156031906Y-105109381D01*
X155746191Y-105109381D01*
X155650953Y-105061762D01*
X155603334Y-105014143D01*
X156650953Y-105109381D02*
X156650953Y-104109381D01*
X157698572Y-105109381D02*
X157365238Y-104633190D01*
X157127143Y-105109381D02*
X157127143Y-104109381D01*
X157508096Y-104109381D01*
X157603334Y-104157000D01*
X157650953Y-104204619D01*
X157698572Y-104299857D01*
X157698572Y-104442714D01*
X157650953Y-104537952D01*
X157603334Y-104585571D01*
X157508096Y-104633190D01*
X157127143Y-104633190D01*
X158127143Y-105109381D02*
X158127143Y-104109381D01*
X158127143Y-104585571D02*
X158698572Y-104585571D01*
X158698572Y-105109381D02*
X158698572Y-104109381D01*
X159174762Y-105109381D02*
X159174762Y-104109381D01*
X159746191Y-105109381D01*
X159746191Y-104109381D01*
X160127143Y-104109381D02*
X160746191Y-104109381D01*
X160412857Y-104490333D01*
X160555715Y-104490333D01*
X160650953Y-104537952D01*
X160698572Y-104585571D01*
X160746191Y-104680810D01*
X160746191Y-104918905D01*
X160698572Y-105014143D01*
X160650953Y-105061762D01*
X160555715Y-105109381D01*
X160270000Y-105109381D01*
X160174762Y-105061762D01*
X160127143Y-105014143D01*
X161127143Y-104204619D02*
X161174762Y-104157000D01*
X161270000Y-104109381D01*
X161508096Y-104109381D01*
X161603334Y-104157000D01*
X161650953Y-104204619D01*
X161698572Y-104299857D01*
X161698572Y-104395095D01*
X161650953Y-104537952D01*
X161079524Y-105109381D01*
X161698572Y-105109381D01*
X155731534Y-104326001D02*
X155731534Y-105040287D01*
X155683914Y-105183144D01*
X155588676Y-105278382D01*
X155445819Y-105326001D01*
X155350581Y-105326001D01*
X156541058Y-104802191D02*
X156683915Y-104849810D01*
X156731534Y-104897430D01*
X156779153Y-104992668D01*
X156779153Y-105135525D01*
X156731534Y-105230763D01*
X156683915Y-105278382D01*
X156588677Y-105326001D01*
X156207724Y-105326001D01*
X156207724Y-104326001D01*
X156541058Y-104326001D01*
X156636296Y-104373620D01*
X156683915Y-104421239D01*
X156731534Y-104516477D01*
X156731534Y-104611715D01*
X156683915Y-104706953D01*
X156636296Y-104754572D01*
X156541058Y-104802191D01*
X156207724Y-104802191D01*
X157160105Y-105040287D02*
X157636296Y-105040287D01*
X157064867Y-105326001D02*
X157398200Y-104326001D01*
X157731534Y-105326001D01*
X157922010Y-104326001D02*
X158493439Y-104326001D01*
X158207724Y-105326001D02*
X158207724Y-104326001D01*
X131322782Y-115272408D02*
X131370401Y-115129551D01*
X131370401Y-114891455D01*
X131322782Y-114796217D01*
X131275163Y-114748598D01*
X131179925Y-114700979D01*
X131084687Y-114700979D01*
X130989449Y-114748598D01*
X130941830Y-114796217D01*
X130894210Y-114891455D01*
X130846591Y-115081932D01*
X130798972Y-115177170D01*
X130751353Y-115224789D01*
X130656115Y-115272408D01*
X130560877Y-115272408D01*
X130465639Y-115224789D01*
X130418020Y-115177170D01*
X130370401Y-115081932D01*
X130370401Y-114843836D01*
X130418020Y-114700979D01*
X130846591Y-114272408D02*
X130846591Y-113939074D01*
X131370401Y-113796217D02*
X131370401Y-114272408D01*
X130370401Y-114272408D01*
X130370401Y-113796217D01*
X131370401Y-112796217D02*
X130894210Y-113129551D01*
X131370401Y-113367646D02*
X130370401Y-113367646D01*
X130370401Y-112986693D01*
X130418020Y-112891455D01*
X130465639Y-112843836D01*
X130560877Y-112796217D01*
X130703734Y-112796217D01*
X130798972Y-112843836D01*
X130846591Y-112891455D01*
X130894210Y-112986693D01*
X130894210Y-113367646D01*
X131370401Y-112367646D02*
X130370401Y-112367646D01*
X131084687Y-111939075D02*
X131084687Y-111462884D01*
X131370401Y-112034313D02*
X130370401Y-111700980D01*
X131370401Y-111367646D01*
X131370401Y-110558122D02*
X131370401Y-111034313D01*
X130370401Y-111034313D01*
X131275163Y-108891455D02*
X131322782Y-108939074D01*
X131370401Y-109081931D01*
X131370401Y-109177169D01*
X131322782Y-109320027D01*
X131227544Y-109415265D01*
X131132306Y-109462884D01*
X130941830Y-109510503D01*
X130798972Y-109510503D01*
X130608496Y-109462884D01*
X130513258Y-109415265D01*
X130418020Y-109320027D01*
X130370401Y-109177169D01*
X130370401Y-109081931D01*
X130418020Y-108939074D01*
X130465639Y-108891455D01*
X130370401Y-108272408D02*
X130370401Y-108081931D01*
X130418020Y-107986693D01*
X130513258Y-107891455D01*
X130703734Y-107843836D01*
X131037068Y-107843836D01*
X131227544Y-107891455D01*
X131322782Y-107986693D01*
X131370401Y-108081931D01*
X131370401Y-108272408D01*
X131322782Y-108367646D01*
X131227544Y-108462884D01*
X131037068Y-108510503D01*
X130703734Y-108510503D01*
X130513258Y-108462884D01*
X130418020Y-108367646D01*
X130370401Y-108272408D01*
X131370401Y-107415265D02*
X130370401Y-107415265D01*
X131370401Y-106843836D01*
X130370401Y-106843836D01*
X131370401Y-106367646D02*
X130370401Y-106367646D01*
X131370401Y-105796217D01*
X130370401Y-105796217D01*
X130846591Y-105320027D02*
X130846591Y-104986693D01*
X131370401Y-104843836D02*
X131370401Y-105320027D01*
X130370401Y-105320027D01*
X130370401Y-104843836D01*
X131275163Y-103843836D02*
X131322782Y-103891455D01*
X131370401Y-104034312D01*
X131370401Y-104129550D01*
X131322782Y-104272408D01*
X131227544Y-104367646D01*
X131132306Y-104415265D01*
X130941830Y-104462884D01*
X130798972Y-104462884D01*
X130608496Y-104415265D01*
X130513258Y-104367646D01*
X130418020Y-104272408D01*
X130370401Y-104129550D01*
X130370401Y-104034312D01*
X130418020Y-103891455D01*
X130465639Y-103843836D01*
X130370401Y-103558122D02*
X130370401Y-102986693D01*
X131370401Y-103272408D02*
X130370401Y-103272408D01*
X130370401Y-102462884D02*
X130370401Y-102272407D01*
X130418020Y-102177169D01*
X130513258Y-102081931D01*
X130703734Y-102034312D01*
X131037068Y-102034312D01*
X131227544Y-102081931D01*
X131322782Y-102177169D01*
X131370401Y-102272407D01*
X131370401Y-102462884D01*
X131322782Y-102558122D01*
X131227544Y-102653360D01*
X131037068Y-102700979D01*
X130703734Y-102700979D01*
X130513258Y-102653360D01*
X130418020Y-102558122D01*
X130370401Y-102462884D01*
X131370401Y-101034312D02*
X130894210Y-101367646D01*
X131370401Y-101605741D02*
X130370401Y-101605741D01*
X130370401Y-101224788D01*
X130418020Y-101129550D01*
X130465639Y-101081931D01*
X130560877Y-101034312D01*
X130703734Y-101034312D01*
X130798972Y-101081931D01*
X130846591Y-101129550D01*
X130894210Y-101224788D01*
X130894210Y-101605741D01*
X159944441Y-109305701D02*
X160039680Y-109305701D01*
X160134918Y-109353320D01*
X160182537Y-109400939D01*
X160230156Y-109496177D01*
X160277775Y-109686653D01*
X160277775Y-109924749D01*
X160230156Y-110115225D01*
X160182537Y-110210463D01*
X160134918Y-110258082D01*
X160039680Y-110305701D01*
X159944441Y-110305701D01*
X159849203Y-110258082D01*
X159801584Y-110210463D01*
X159753965Y-110115225D01*
X159706346Y-109924749D01*
X159706346Y-109686653D01*
X159753965Y-109496177D01*
X159801584Y-109400939D01*
X159849203Y-109353320D01*
X159944441Y-109305701D01*
X102353102Y-108707027D02*
X102829293Y-108707027D01*
X102257864Y-108992741D02*
X102591197Y-107992741D01*
X102924531Y-108992741D01*
X103257864Y-108326074D02*
X103257864Y-108992741D01*
X103257864Y-108421312D02*
X103305483Y-108373693D01*
X103400721Y-108326074D01*
X103543579Y-108326074D01*
X103638817Y-108373693D01*
X103686436Y-108468931D01*
X103686436Y-108992741D01*
X104019769Y-108326074D02*
X104400721Y-108326074D01*
X104162626Y-107992741D02*
X104162626Y-108849884D01*
X104210245Y-108945122D01*
X104305483Y-108992741D01*
X104400721Y-108992741D01*
X105115008Y-108945122D02*
X105019770Y-108992741D01*
X104829293Y-108992741D01*
X104734055Y-108945122D01*
X104686436Y-108849884D01*
X104686436Y-108468931D01*
X104734055Y-108373693D01*
X104829293Y-108326074D01*
X105019770Y-108326074D01*
X105115008Y-108373693D01*
X105162627Y-108468931D01*
X105162627Y-108564170D01*
X104686436Y-108659408D01*
X105591198Y-108326074D02*
X105591198Y-108992741D01*
X105591198Y-108421312D02*
X105638817Y-108373693D01*
X105734055Y-108326074D01*
X105876913Y-108326074D01*
X105972151Y-108373693D01*
X106019770Y-108468931D01*
X106019770Y-108992741D01*
X106495960Y-108326074D02*
X106495960Y-108992741D01*
X106495960Y-108421312D02*
X106543579Y-108373693D01*
X106638817Y-108326074D01*
X106781675Y-108326074D01*
X106876913Y-108373693D01*
X106924532Y-108468931D01*
X106924532Y-108992741D01*
X107829294Y-108992741D02*
X107829294Y-108468931D01*
X107781675Y-108373693D01*
X107686437Y-108326074D01*
X107495960Y-108326074D01*
X107400722Y-108373693D01*
X107829294Y-108945122D02*
X107734056Y-108992741D01*
X107495960Y-108992741D01*
X107400722Y-108945122D01*
X107353103Y-108849884D01*
X107353103Y-108754646D01*
X107400722Y-108659408D01*
X107495960Y-108611789D01*
X107734056Y-108611789D01*
X107829294Y-108564170D01*
X109353104Y-107992741D02*
X109353104Y-108707027D01*
X109305484Y-108849884D01*
X109210246Y-108945122D01*
X109067389Y-108992741D01*
X108972151Y-108992741D01*
X109972151Y-108992741D02*
X109876913Y-108945122D01*
X109829294Y-108897503D01*
X109781675Y-108802265D01*
X109781675Y-108516550D01*
X109829294Y-108421312D01*
X109876913Y-108373693D01*
X109972151Y-108326074D01*
X110115009Y-108326074D01*
X110210247Y-108373693D01*
X110257866Y-108421312D01*
X110305485Y-108516550D01*
X110305485Y-108802265D01*
X110257866Y-108897503D01*
X110210247Y-108945122D01*
X110115009Y-108992741D01*
X109972151Y-108992741D01*
X110734056Y-108992741D02*
X110734056Y-107992741D01*
X111162628Y-108992741D02*
X111162628Y-108468931D01*
X111115009Y-108373693D01*
X111019771Y-108326074D01*
X110876913Y-108326074D01*
X110781675Y-108373693D01*
X110734056Y-108421312D01*
X112067390Y-108992741D02*
X112067390Y-108468931D01*
X112019771Y-108373693D01*
X111924533Y-108326074D01*
X111734056Y-108326074D01*
X111638818Y-108373693D01*
X112067390Y-108945122D02*
X111972152Y-108992741D01*
X111734056Y-108992741D01*
X111638818Y-108945122D01*
X111591199Y-108849884D01*
X111591199Y-108754646D01*
X111638818Y-108659408D01*
X111734056Y-108611789D01*
X111972152Y-108611789D01*
X112067390Y-108564170D01*
X112543580Y-108326074D02*
X112543580Y-108992741D01*
X112543580Y-108421312D02*
X112591199Y-108373693D01*
X112686437Y-108326074D01*
X112829295Y-108326074D01*
X112924533Y-108373693D01*
X112972152Y-108468931D01*
X112972152Y-108992741D01*
X113400723Y-108945122D02*
X113495961Y-108992741D01*
X113686437Y-108992741D01*
X113781676Y-108945122D01*
X113829295Y-108849884D01*
X113829295Y-108802265D01*
X113781676Y-108707027D01*
X113686437Y-108659408D01*
X113543580Y-108659408D01*
X113448342Y-108611789D01*
X113400723Y-108516550D01*
X113400723Y-108468931D01*
X113448342Y-108373693D01*
X113543580Y-108326074D01*
X113686437Y-108326074D01*
X113781676Y-108373693D01*
X114400723Y-108992741D02*
X114305485Y-108945122D01*
X114257866Y-108897503D01*
X114210247Y-108802265D01*
X114210247Y-108516550D01*
X114257866Y-108421312D01*
X114305485Y-108373693D01*
X114400723Y-108326074D01*
X114543581Y-108326074D01*
X114638819Y-108373693D01*
X114686438Y-108421312D01*
X114734057Y-108516550D01*
X114734057Y-108802265D01*
X114686438Y-108897503D01*
X114638819Y-108945122D01*
X114543581Y-108992741D01*
X114400723Y-108992741D01*
X115162628Y-108326074D02*
X115162628Y-108992741D01*
X115162628Y-108421312D02*
X115210247Y-108373693D01*
X115305485Y-108326074D01*
X115448343Y-108326074D01*
X115543581Y-108373693D01*
X115591200Y-108468931D01*
X115591200Y-108992741D01*
X116455603Y-113476441D02*
X115884174Y-113476441D01*
X116169888Y-113476441D02*
X116169888Y-112476441D01*
X116074650Y-112619298D01*
X115979412Y-112714536D01*
X115884174Y-112762155D01*
X117407984Y-113476441D02*
X116836555Y-113476441D01*
X117122269Y-113476441D02*
X117122269Y-112476441D01*
X117027031Y-112619298D01*
X116931793Y-112714536D01*
X116836555Y-112762155D01*
X117836555Y-112809774D02*
X117836555Y-113476441D01*
X117836555Y-112905012D02*
X117884174Y-112857393D01*
X117979412Y-112809774D01*
X118122270Y-112809774D01*
X118217508Y-112857393D01*
X118265127Y-112952631D01*
X118265127Y-113476441D01*
D13*
X117065127Y-111314536D02*
X116969889Y-111314536D01*
X116969889Y-111114536D01*
X117122270Y-111133584D02*
X117131794Y-111124060D01*
X117150842Y-111114536D01*
X117198461Y-111114536D01*
X117217508Y-111124060D01*
X117227032Y-111133584D01*
X117236556Y-111152631D01*
X117236556Y-111171679D01*
X117227032Y-111200250D01*
X117112746Y-111314536D01*
X117236556Y-111314536D01*
D12*
X109357351Y-105173781D02*
X109357351Y-105983305D01*
X109404970Y-106078543D01*
X109452589Y-106126162D01*
X109547827Y-106173781D01*
X109738304Y-106173781D01*
X109833542Y-106126162D01*
X109881161Y-106078543D01*
X109928780Y-105983305D01*
X109928780Y-105173781D01*
X110404970Y-106173781D02*
X110404970Y-105173781D01*
X110785923Y-105173781D01*
X110881161Y-105221400D01*
X110928780Y-105269019D01*
X110976399Y-105364257D01*
X110976399Y-105507114D01*
X110928780Y-105602352D01*
X110881161Y-105649971D01*
X110785923Y-105697590D01*
X110404970Y-105697590D01*
X111928780Y-105221400D02*
X111833542Y-105173781D01*
X111690685Y-105173781D01*
X111547827Y-105221400D01*
X111452589Y-105316638D01*
X111404970Y-105411876D01*
X111357351Y-105602352D01*
X111357351Y-105745210D01*
X111404970Y-105935686D01*
X111452589Y-106030924D01*
X111547827Y-106126162D01*
X111690685Y-106173781D01*
X111785923Y-106173781D01*
X111928780Y-106126162D01*
X111976399Y-106078543D01*
X111976399Y-105745210D01*
X111785923Y-105745210D01*
X112357351Y-105269019D02*
X112404970Y-105221400D01*
X112500208Y-105173781D01*
X112738304Y-105173781D01*
X112833542Y-105221400D01*
X112881161Y-105269019D01*
X112928780Y-105364257D01*
X112928780Y-105459495D01*
X112881161Y-105602352D01*
X112309732Y-106173781D01*
X112928780Y-106173781D01*
X113309732Y-105269019D02*
X113357351Y-105221400D01*
X113452589Y-105173781D01*
X113690685Y-105173781D01*
X113785923Y-105221400D01*
X113833542Y-105269019D01*
X113881161Y-105364257D01*
X113881161Y-105459495D01*
X113833542Y-105602352D01*
X113262113Y-106173781D01*
X113881161Y-106173781D01*
X114833542Y-106173781D02*
X114262113Y-106173781D01*
X114547827Y-106173781D02*
X114547827Y-105173781D01*
X114452589Y-105316638D01*
X114357351Y-105411876D01*
X114262113Y-105459495D01*
X115690685Y-105507114D02*
X115690685Y-106173781D01*
X115452589Y-105126162D02*
X115214494Y-105840448D01*
X115833542Y-105840448D01*
X116071637Y-105173781D02*
X116643066Y-105173781D01*
X116357351Y-106173781D02*
X116357351Y-105173781D01*
X117309733Y-105649971D02*
X117452590Y-105697590D01*
X117500209Y-105745210D01*
X117547828Y-105840448D01*
X117547828Y-105983305D01*
X117500209Y-106078543D01*
X117452590Y-106126162D01*
X117357352Y-106173781D01*
X116976399Y-106173781D01*
X116976399Y-105173781D01*
X117309733Y-105173781D01*
X117404971Y-105221400D01*
X117452590Y-105269019D01*
X117500209Y-105364257D01*
X117500209Y-105459495D01*
X117452590Y-105554733D01*
X117404971Y-105602352D01*
X117309733Y-105649971D01*
X116976399Y-105649971D01*
D15*
X113154970Y-108102352D02*
X113559732Y-108102352D01*
X113607351Y-108078543D01*
X113631161Y-108054733D01*
X113654970Y-108007114D01*
X113654970Y-107911876D01*
X113631161Y-107864257D01*
X113607351Y-107840448D01*
X113559732Y-107816638D01*
X113154970Y-107816638D01*
X113154970Y-107340447D02*
X113154970Y-107578542D01*
X113393066Y-107602352D01*
X113369256Y-107578542D01*
X113345447Y-107530923D01*
X113345447Y-107411876D01*
X113369256Y-107364257D01*
X113393066Y-107340447D01*
X113440685Y-107316638D01*
X113559732Y-107316638D01*
X113607351Y-107340447D01*
X113631161Y-107364257D01*
X113654970Y-107411876D01*
X113654970Y-107530923D01*
X113631161Y-107578542D01*
X113607351Y-107602352D01*
D12*
X115934903Y-106892761D02*
X115363474Y-106892761D01*
X115649188Y-106892761D02*
X115649188Y-105892761D01*
X115553950Y-106035618D01*
X115458712Y-106130856D01*
X115363474Y-106178475D01*
X116839665Y-105892761D02*
X116363474Y-105892761D01*
X116315855Y-106368951D01*
X116363474Y-106321332D01*
X116458712Y-106273713D01*
X116696808Y-106273713D01*
X116792046Y-106321332D01*
X116839665Y-106368951D01*
X116887284Y-106464190D01*
X116887284Y-106702285D01*
X116839665Y-106797523D01*
X116792046Y-106845142D01*
X116696808Y-106892761D01*
X116458712Y-106892761D01*
X116363474Y-106845142D01*
X116315855Y-106797523D01*
X117315855Y-106226094D02*
X117315855Y-106892761D01*
X117315855Y-106321332D02*
X117363474Y-106273713D01*
X117458712Y-106226094D01*
X117601570Y-106226094D01*
X117696808Y-106273713D01*
X117744427Y-106368951D01*
X117744427Y-106892761D01*
D13*
X116544427Y-104730856D02*
X116449189Y-104730856D01*
X116449189Y-104530856D01*
X116696808Y-104597523D02*
X116696808Y-104730856D01*
X116649189Y-104521332D02*
X116601570Y-104664190D01*
X116725380Y-104664190D01*
D12*
X116860401Y-105725617D02*
X116860401Y-106297046D01*
X116860401Y-106011332D02*
X115860401Y-106011332D01*
X116003258Y-106106570D01*
X116098496Y-106201808D01*
X116146115Y-106297046D01*
X115860401Y-104820855D02*
X115860401Y-105297046D01*
X116336591Y-105344665D01*
X116288972Y-105297046D01*
X116241353Y-105201808D01*
X116241353Y-104963712D01*
X116288972Y-104868474D01*
X116336591Y-104820855D01*
X116431830Y-104773236D01*
X116669925Y-104773236D01*
X116765163Y-104820855D01*
X116812782Y-104868474D01*
X116860401Y-104963712D01*
X116860401Y-105201808D01*
X116812782Y-105297046D01*
X116765163Y-105344665D01*
X116193734Y-104344665D02*
X116860401Y-104344665D01*
X116288972Y-104344665D02*
X116241353Y-104297046D01*
X116193734Y-104201808D01*
X116193734Y-104058950D01*
X116241353Y-103963712D01*
X116336591Y-103916093D01*
X116860401Y-103916093D01*
D13*
X118298496Y-105116093D02*
X118298496Y-105211331D01*
X118098496Y-105211331D01*
X118098496Y-104954188D02*
X118098496Y-105049426D01*
X118193734Y-105058950D01*
X118184210Y-105049426D01*
X118174687Y-105030378D01*
X118174687Y-104982759D01*
X118184210Y-104963712D01*
X118193734Y-104954188D01*
X118212782Y-104944664D01*
X118260401Y-104944664D01*
X118279449Y-104954188D01*
X118288972Y-104963712D01*
X118298496Y-104982759D01*
X118298496Y-105030378D01*
X118288972Y-105049426D01*
X118279449Y-105058950D01*
D12*
X121740561Y-108434047D02*
X121740561Y-109005476D01*
X121740561Y-108719762D02*
X120740561Y-108719762D01*
X120883418Y-108815000D01*
X120978656Y-108910238D01*
X121026275Y-109005476D01*
X120835799Y-108053095D02*
X120788180Y-108005476D01*
X120740561Y-107910238D01*
X120740561Y-107672142D01*
X120788180Y-107576904D01*
X120835799Y-107529285D01*
X120931037Y-107481666D01*
X121026275Y-107481666D01*
X121169132Y-107529285D01*
X121740561Y-108100714D01*
X121740561Y-107481666D01*
X120740561Y-106862619D02*
X120740561Y-106767380D01*
X120788180Y-106672142D01*
X120835799Y-106624523D01*
X120931037Y-106576904D01*
X121121513Y-106529285D01*
X121359609Y-106529285D01*
X121550085Y-106576904D01*
X121645323Y-106624523D01*
X121692942Y-106672142D01*
X121740561Y-106767380D01*
X121740561Y-106862619D01*
X121692942Y-106957857D01*
X121645323Y-107005476D01*
X121550085Y-107053095D01*
X121359609Y-107100714D01*
X121121513Y-107100714D01*
X120931037Y-107053095D01*
X120835799Y-107005476D01*
X120788180Y-106957857D01*
X120740561Y-106862619D01*
X121073894Y-106100714D02*
X121740561Y-106100714D01*
X121169132Y-106100714D02*
X121121513Y-106053095D01*
X121073894Y-105957857D01*
X121073894Y-105814999D01*
X121121513Y-105719761D01*
X121216751Y-105672142D01*
X121740561Y-105672142D01*
D13*
X119578656Y-107348333D02*
X119578656Y-107443571D01*
X119378656Y-107443571D01*
X119578656Y-107176904D02*
X119578656Y-107291190D01*
X119578656Y-107234047D02*
X119378656Y-107234047D01*
X119407228Y-107253095D01*
X119426275Y-107272142D01*
X119435799Y-107291190D01*
D12*
X109351843Y-108957781D02*
X109542319Y-108957781D01*
X109637558Y-108910162D01*
X109685177Y-108862543D01*
X109780415Y-108719686D01*
X109828034Y-108529210D01*
X109828034Y-108148257D01*
X109780415Y-108053019D01*
X109732796Y-108005400D01*
X109637558Y-107957781D01*
X109447081Y-107957781D01*
X109351843Y-108005400D01*
X109304224Y-108053019D01*
X109256605Y-108148257D01*
X109256605Y-108386352D01*
X109304224Y-108481590D01*
X109351843Y-108529210D01*
X109447081Y-108576829D01*
X109637558Y-108576829D01*
X109732796Y-108529210D01*
X109780415Y-108481590D01*
X109828034Y-108386352D01*
X110256605Y-108291114D02*
X110256605Y-108957781D01*
X110256605Y-108386352D02*
X110304224Y-108338733D01*
X110399462Y-108291114D01*
X110542320Y-108291114D01*
X110637558Y-108338733D01*
X110685177Y-108433971D01*
X110685177Y-108957781D01*
D13*
X109961367Y-106795876D02*
X109866129Y-106795876D01*
X109866129Y-106595876D01*
X110008986Y-106595876D02*
X110132796Y-106595876D01*
X110066129Y-106672067D01*
X110094701Y-106672067D01*
X110113748Y-106681590D01*
X110123272Y-106691114D01*
X110132796Y-106710162D01*
X110132796Y-106757781D01*
X110123272Y-106776829D01*
X110113748Y-106786352D01*
X110094701Y-106795876D01*
X110037558Y-106795876D01*
X110018510Y-106786352D01*
X110008986Y-106776829D01*
D12*
X167935143Y-114315381D02*
X167363714Y-114315381D01*
X167649428Y-114315381D02*
X167649428Y-113315381D01*
X167554190Y-113458238D01*
X167458952Y-113553476D01*
X167363714Y-113601095D01*
X168554190Y-113315381D02*
X168649429Y-113315381D01*
X168744667Y-113363000D01*
X168792286Y-113410619D01*
X168839905Y-113505857D01*
X168887524Y-113696333D01*
X168887524Y-113934429D01*
X168839905Y-114124905D01*
X168792286Y-114220143D01*
X168744667Y-114267762D01*
X168649429Y-114315381D01*
X168554190Y-114315381D01*
X168458952Y-114267762D01*
X168411333Y-114220143D01*
X168363714Y-114124905D01*
X168316095Y-113934429D01*
X168316095Y-113696333D01*
X168363714Y-113505857D01*
X168411333Y-113410619D01*
X168458952Y-113363000D01*
X168554190Y-113315381D01*
X169744667Y-113648714D02*
X169744667Y-114315381D01*
X169316095Y-113648714D02*
X169316095Y-114172524D01*
X169363714Y-114267762D01*
X169458952Y-114315381D01*
X169601810Y-114315381D01*
X169697048Y-114267762D01*
X169744667Y-114220143D01*
X125137174Y-114237995D02*
X125803841Y-114237995D01*
X124756222Y-114476091D02*
X125470508Y-114714186D01*
X125470508Y-114095138D01*
X125137174Y-113285614D02*
X125803841Y-113285614D01*
X125137174Y-113714186D02*
X125660984Y-113714186D01*
X125756222Y-113666567D01*
X125803841Y-113571329D01*
X125803841Y-113428471D01*
X125756222Y-113333233D01*
X125708603Y-113285614D01*
X124803841Y-112904662D02*
X124803841Y-112237995D01*
X125803841Y-112666567D01*
M02*
