G04 #@! TF.FileFunction,Other,Fab,Top*
%FSLAX46Y46*%
G04 Gerber Fmt 4.6, Leading zero omitted, Abs format (unit mm)*
G04 Created by KiCad (PCBNEW 4.0.2+dfsg1-stable) date ven 28 dic 2018 11:34:51 CET*
%MOMM*%
G01*
G04 APERTURE LIST*
%ADD10C,0.100000*%
%ADD11C,0.200000*%
%ADD12C,0.030000*%
%ADD13C,0.090000*%
%ADD14C,0.150000*%
%ADD15C,0.075000*%
G04 APERTURE END LIST*
D10*
D11*
X173690280Y-115443000D02*
X98295460Y-115443000D01*
X195072000Y-115443000D02*
X179682660Y-115443000D01*
X179682660Y-112410240D02*
X179682660Y-115443000D01*
X173692820Y-112410240D02*
X179682660Y-112410240D01*
X173692820Y-112410240D02*
X173692820Y-115437920D01*
X173776640Y-99949000D02*
X98298000Y-99949000D01*
X195072000Y-99949000D02*
X179778660Y-99949000D01*
X179778660Y-99949000D02*
X179778660Y-103047800D01*
X173776640Y-103047800D02*
X179778660Y-103047800D01*
X173776640Y-99949000D02*
X173776640Y-103047800D01*
X98298000Y-115443000D02*
X98298000Y-99949000D01*
X195072000Y-99949000D02*
X195072000Y-115443000D01*
X126770000Y-103781240D02*
X125500000Y-102511240D01*
X125500000Y-102511240D02*
X125500000Y-100581240D01*
X125500000Y-100581240D02*
X129750000Y-100581240D01*
X129750000Y-100581240D02*
X129750000Y-103781240D01*
X129750000Y-103781240D02*
X126770000Y-103781240D01*
D10*
X115852360Y-105474300D02*
X116352360Y-105474300D01*
X115852360Y-106474300D02*
X115852360Y-105474300D01*
X116352360Y-106474300D02*
X115852360Y-106474300D01*
X116352360Y-105474300D02*
X116352360Y-106474300D01*
X121544900Y-103418360D02*
X123844900Y-103418360D01*
X123844900Y-103418360D02*
X123944900Y-103518360D01*
X123944900Y-103518360D02*
X123944900Y-105318360D01*
X123944900Y-105318360D02*
X123844900Y-105418360D01*
X123844900Y-105418360D02*
X121544900Y-105418360D01*
X121544900Y-105418360D02*
X121444900Y-105318360D01*
X121444900Y-105318360D02*
X121444900Y-103518360D01*
X121444900Y-103518360D02*
X121544900Y-103418360D01*
X121444900Y-104418360D02*
X122444900Y-105418360D01*
X150163000Y-112305000D02*
X150163000Y-113805000D01*
X153363000Y-112305000D02*
X153363000Y-113805000D01*
X150163000Y-112305000D02*
X153363000Y-112305000D01*
X150163000Y-113805000D02*
X153363000Y-113805000D01*
D11*
X126518020Y-106048360D02*
X127788020Y-104778360D01*
X127788020Y-104778360D02*
X129718020Y-104778360D01*
X129718020Y-104778360D02*
X129718020Y-111528360D01*
X129718020Y-111528360D02*
X126518020Y-111528360D01*
X126518020Y-111528360D02*
X126518020Y-106048360D01*
D10*
X116598460Y-111474060D02*
X116598460Y-110974060D01*
X117598460Y-111474060D02*
X116598460Y-111474060D01*
X117598460Y-110974060D02*
X117598460Y-111474060D01*
X116598460Y-110974060D02*
X117598460Y-110974060D01*
X112753780Y-108821400D02*
X113603780Y-108821400D01*
X114103780Y-108321400D02*
X114103780Y-106621400D01*
X112753780Y-108821400D02*
X112753780Y-106621400D01*
X112753780Y-106621400D02*
X114103780Y-106621400D01*
X113603780Y-108821400D02*
X114103780Y-108321400D01*
X116077760Y-104890380D02*
X116077760Y-104390380D01*
X117077760Y-104890380D02*
X116077760Y-104890380D01*
X117077760Y-104390380D02*
X117077760Y-104890380D01*
X116077760Y-104390380D02*
X117077760Y-104390380D01*
X117958020Y-104582760D02*
X118458020Y-104582760D01*
X117958020Y-105582760D02*
X117958020Y-104582760D01*
X118458020Y-105582760D02*
X117958020Y-105582760D01*
X118458020Y-104582760D02*
X118458020Y-105582760D01*
X119738180Y-107815000D02*
X119238180Y-107815000D01*
X119738180Y-106815000D02*
X119738180Y-107815000D01*
X119238180Y-106815000D02*
X119738180Y-106815000D01*
X119238180Y-107815000D02*
X119238180Y-106815000D01*
X109494700Y-106955400D02*
X109494700Y-106455400D01*
X110494700Y-106955400D02*
X109494700Y-106955400D01*
X110494700Y-106455400D02*
X110494700Y-106955400D01*
X109494700Y-106455400D02*
X110494700Y-106455400D01*
D12*
X116192836Y-106102871D02*
X116192836Y-106198109D01*
X115992836Y-106198109D01*
X116192836Y-105931442D02*
X116192836Y-106045728D01*
X116192836Y-105988585D02*
X115992836Y-105988585D01*
X116021408Y-106007633D01*
X116040455Y-106026680D01*
X116049979Y-106045728D01*
X116192836Y-105740966D02*
X116192836Y-105855252D01*
X116192836Y-105798109D02*
X115992836Y-105798109D01*
X116021408Y-105817157D01*
X116040455Y-105836204D01*
X116049979Y-105855252D01*
D13*
X122352043Y-104746931D02*
X122294900Y-104718360D01*
X122237757Y-104661217D01*
X122152043Y-104575503D01*
X122094900Y-104546931D01*
X122037757Y-104546931D01*
X122066329Y-104689789D02*
X122009186Y-104661217D01*
X121952043Y-104604074D01*
X121923472Y-104489789D01*
X121923472Y-104289789D01*
X121952043Y-104175503D01*
X122009186Y-104118360D01*
X122066329Y-104089789D01*
X122180615Y-104089789D01*
X122237757Y-104118360D01*
X122294900Y-104175503D01*
X122323472Y-104289789D01*
X122323472Y-104489789D01*
X122294900Y-104604074D01*
X122237757Y-104661217D01*
X122180615Y-104689789D01*
X122066329Y-104689789D01*
X122523471Y-104089789D02*
X122923471Y-104089789D01*
X122523471Y-104689789D01*
X122923471Y-104689789D01*
X123466329Y-104689789D02*
X123123472Y-104689789D01*
X123294900Y-104689789D02*
X123294900Y-104089789D01*
X123237757Y-104175503D01*
X123180615Y-104232646D01*
X123123472Y-104261217D01*
D14*
X151191572Y-111602619D02*
X151096334Y-111555000D01*
X151001096Y-111459762D01*
X150858239Y-111316905D01*
X150763000Y-111269286D01*
X150667762Y-111269286D01*
X150715381Y-111507381D02*
X150620143Y-111459762D01*
X150524905Y-111364524D01*
X150477286Y-111174048D01*
X150477286Y-110840714D01*
X150524905Y-110650238D01*
X150620143Y-110555000D01*
X150715381Y-110507381D01*
X150905858Y-110507381D01*
X151001096Y-110555000D01*
X151096334Y-110650238D01*
X151143953Y-110840714D01*
X151143953Y-111174048D01*
X151096334Y-111364524D01*
X151001096Y-111459762D01*
X150905858Y-111507381D01*
X150715381Y-111507381D01*
X151477286Y-110507381D02*
X152143953Y-110507381D01*
X151477286Y-111507381D01*
X152143953Y-111507381D01*
X152429667Y-110507381D02*
X153048715Y-110507381D01*
X152715381Y-110888333D01*
X152858239Y-110888333D01*
X152953477Y-110935952D01*
X153001096Y-110983571D01*
X153048715Y-111078810D01*
X153048715Y-111316905D01*
X153001096Y-111412143D01*
X152953477Y-111459762D01*
X152858239Y-111507381D01*
X152572524Y-111507381D01*
X152477286Y-111459762D01*
X152429667Y-111412143D01*
D12*
X117065127Y-111314536D02*
X116969889Y-111314536D01*
X116969889Y-111114536D01*
X117122270Y-111133584D02*
X117131794Y-111124060D01*
X117150842Y-111114536D01*
X117198461Y-111114536D01*
X117217508Y-111124060D01*
X117227032Y-111133584D01*
X117236556Y-111152631D01*
X117236556Y-111171679D01*
X117227032Y-111200250D01*
X117112746Y-111314536D01*
X117236556Y-111314536D01*
D15*
X113154970Y-108102352D02*
X113559732Y-108102352D01*
X113607351Y-108078543D01*
X113631161Y-108054733D01*
X113654970Y-108007114D01*
X113654970Y-107911876D01*
X113631161Y-107864257D01*
X113607351Y-107840448D01*
X113559732Y-107816638D01*
X113154970Y-107816638D01*
X113154970Y-107340447D02*
X113154970Y-107578542D01*
X113393066Y-107602352D01*
X113369256Y-107578542D01*
X113345447Y-107530923D01*
X113345447Y-107411876D01*
X113369256Y-107364257D01*
X113393066Y-107340447D01*
X113440685Y-107316638D01*
X113559732Y-107316638D01*
X113607351Y-107340447D01*
X113631161Y-107364257D01*
X113654970Y-107411876D01*
X113654970Y-107530923D01*
X113631161Y-107578542D01*
X113607351Y-107602352D01*
D12*
X116544427Y-104730856D02*
X116449189Y-104730856D01*
X116449189Y-104530856D01*
X116696808Y-104597523D02*
X116696808Y-104730856D01*
X116649189Y-104521332D02*
X116601570Y-104664190D01*
X116725380Y-104664190D01*
X118298496Y-105116093D02*
X118298496Y-105211331D01*
X118098496Y-105211331D01*
X118098496Y-104954188D02*
X118098496Y-105049426D01*
X118193734Y-105058950D01*
X118184210Y-105049426D01*
X118174687Y-105030378D01*
X118174687Y-104982759D01*
X118184210Y-104963712D01*
X118193734Y-104954188D01*
X118212782Y-104944664D01*
X118260401Y-104944664D01*
X118279449Y-104954188D01*
X118288972Y-104963712D01*
X118298496Y-104982759D01*
X118298496Y-105030378D01*
X118288972Y-105049426D01*
X118279449Y-105058950D01*
X119578656Y-107348333D02*
X119578656Y-107443571D01*
X119378656Y-107443571D01*
X119578656Y-107176904D02*
X119578656Y-107291190D01*
X119578656Y-107234047D02*
X119378656Y-107234047D01*
X119407228Y-107253095D01*
X119426275Y-107272142D01*
X119435799Y-107291190D01*
X109961367Y-106795876D02*
X109866129Y-106795876D01*
X109866129Y-106595876D01*
X110008986Y-106595876D02*
X110132796Y-106595876D01*
X110066129Y-106672067D01*
X110094701Y-106672067D01*
X110113748Y-106681590D01*
X110123272Y-106691114D01*
X110132796Y-106710162D01*
X110132796Y-106757781D01*
X110123272Y-106776829D01*
X110113748Y-106786352D01*
X110094701Y-106795876D01*
X110037558Y-106795876D01*
X110018510Y-106786352D01*
X110008986Y-106776829D01*
M02*
