M48
;DRILL file {KiCad 4.0.2+dfsg1-stable} date ven 28 dic 2018 11:34:53 CET
;FORMAT={-:-/ absolute / inch / decimal}
FMAT,2
INCH,TZ
T1C0.016
T2C0.020
T3C0.079
%
G90
G05
M72
T1
X4.264Y-4.3261
X4.264Y-4.3989
X4.2666Y-4.2689
X4.2679Y-4.1389
X4.2705Y-4.0401
X4.2822Y-4.447
X4.2991Y-4.2468
X4.3017Y-4.4834
X4.303Y-4.304
X4.3043Y-4.0934
X4.3069Y-3.9825
X4.3069Y-4.3651
X4.3329Y-4.3235
X4.3394Y-4.4249
X4.3446Y-4.4678
X4.3537Y-4.1042
X4.3589Y-4.0514
X4.3745Y-4.5068
X4.3813Y-4.3861
X4.3849Y-4.0072
X4.3897Y-4.1999
X4.4227Y-4.0475
X4.424Y-3.9812
X4.4487Y-4.0878
X4.4747Y-4.0423
X4.4747Y-4.5172
X4.5085Y-3.9981
X4.5332Y-4.0579
X4.5514Y-4.4171
X4.5527Y-3.9786
X4.5553Y-4.5172
X4.6086Y-4.0228
X4.6294Y-3.9812
X4.6359Y-4.4223
X4.6554Y-4.0696
X4.658Y-4.0423
X4.6658Y-3.9968
X4.6671Y-4.5172
X4.7152Y-4.4314
X4.7646Y-4.5198
X4.7683Y-4.2373
X4.7948Y-4.3391
X4.7948Y-4.3791
X4.8388Y-4.3391
X4.8388Y-4.3791
X4.928Y-4.1022
X4.9518Y-4.1901
X4.9554Y-4.3466
X4.957Y-4.3092
X4.9832Y-4.1155
X4.9851Y-4.1691
X5.0705Y-4.3361
X5.0715Y-4.3023
X5.0842Y-4.1658
X5.1959Y-4.3545
X5.5726Y-4.3868
X5.577Y-4.2003
X5.6134Y-4.4102
X5.6322Y-4.3059
X5.6897Y-4.3293
X5.6929Y-4.4852
X5.7365Y-4.3856
X5.7753Y-4.4149
X5.7835Y-4.3422
X5.7884Y-4.1887
X5.8234Y-4.2901
X5.8492Y-4.2148
X5.8832Y-4.3158
X5.8844Y-4.4588
X5.9014Y-4.3436
X5.9137Y-4.159
X5.9251Y-4.3229
X5.9547Y-4.3982
X5.9929Y-4.442
X6.0033Y-4.0937
X6.0059Y-4.226
X6.0059Y-4.27
X6.0059Y-4.316
X6.0539Y-4.226
X6.0539Y-4.27
X6.0539Y-4.316
X6.0647Y-4.4067
X6.0726Y-3.9924
X6.0776Y-4.4864
X6.1019Y-4.226
X6.1019Y-4.27
X6.1019Y-4.316
X6.1987Y-4.2532
X6.2316Y-4.2296
X6.26Y-4.428
X6.2635Y-4.3669
X6.4134Y-4.3962
T2
X5.Y-4.0406
X5.0263Y-4.1842
X5.0263Y-4.2334
X5.0263Y-4.2826
X5.0263Y-4.3318
X5.0492Y-4.0406
T3
X5.1968Y-4.2436
X5.4685Y-4.2436
X6.8897Y-4.243
X7.1614Y-4.243
T0
M30
