M48
;DRILL file {KiCad 4.0.2+dfsg1-stable} date ven 12 ott 2018 15:59:44 CEST
;FORMAT={-:-/ absolute / inch / decimal}
FMAT,2
INCH,TZ
T1C0.016
T2C0.020
T3C0.031
%
G90
G05
M72
T1
X4.9795Y-2.9819
X5.0218Y-3.1372
X5.0468Y-3.1837
X5.0881Y-3.0771
X5.094Y-3.5051
X5.1065Y-3.1417
X5.1258Y-3.1106
X5.1343Y-3.0345
X5.1783Y-3.2308
X5.182Y-3.1996
X5.1923Y-3.2877
X5.2848Y-3.3129
X5.3198Y-2.9088
X5.3285Y-3.2388
X5.4051Y-3.0961
X5.4072Y-3.3094
X5.423Y-3.265
X5.4277Y-3.1859
X5.4391Y-2.961
X5.4537Y-3.1164
X5.4538Y-3.3598
X5.4545Y-3.265
X5.4891Y-3.265
X5.4914Y-3.0984
X5.5195Y-2.9108
X5.5317Y-3.6459
X5.5946Y-3.3288
X5.6468Y-3.6758
X5.6713Y-3.6077
X5.6907Y-3.5829
X5.7155Y-3.6401
X5.7475Y-3.3475
X5.7505Y-3.1682
X5.7538Y-3.2413
X5.7588Y-2.9246
X5.7603Y-3.6758
X5.7621Y-3.0374
X5.7704Y-2.8563
X5.7746Y-3.9425
X5.7974Y-3.3824
X5.8016Y-3.1185
X5.8016Y-3.3142
X5.8136Y-2.9313
X5.8296Y-2.8456
X5.8412Y-2.9832
X5.8433Y-3.9404
X5.8474Y-3.2018
X5.8517Y-3.6755
X5.8552Y-3.2985
X5.8662Y-2.8917
X5.8703Y-3.0582
X5.8993Y-2.9632
X5.9017Y-3.138
X5.9036Y-3.9429
X5.9055Y-2.8358
X5.9269Y-3.3605
X5.9352Y-3.2731
X5.9619Y-3.9379
X5.9664Y-3.8659
X5.9743Y-3.4848
X6.0202Y-3.9316
X6.0214Y-3.5879
X6.0309Y-3.3709
X6.0351Y-3.3022
X6.0642Y-3.8412
X6.0708Y-3.6528
X6.0868Y-3.9025
X6.1078Y-3.9378
X6.1201Y-3.8567
X6.1288Y-3.2856
X6.1288Y-3.3605
X6.1476Y-3.805
X6.1522Y-3.7113
X6.1578Y-3.4975
X6.1617Y-3.7485
X6.1659Y-3.9337
X6.1673Y-3.8869
X6.1742Y-3.3851
X6.1811Y-3.8183
X6.1938Y-3.7691
X6.2074Y-3.4998
X6.2074Y-3.7129
X6.212Y-3.2897
X6.214Y-3.9336
X6.2262Y-3.3704
X6.2283Y-3.8692
X6.237Y-3.5886
X6.2512Y-3.4559
X6.2699Y-3.5182
X6.2743Y-3.7736
X6.2783Y-3.8317
X6.2824Y-3.9191
X6.2866Y-3.3164
X6.2878Y-3.3729
X6.3012Y-3.8805
X6.3095Y-3.4287
X6.3303Y-3.5244
X6.3428Y-3.9242
X6.349Y-3.3851
X6.3511Y-3.6078
X6.3511Y-3.8574
X6.3532Y-3.4704
X6.3662Y-3.5569
X6.3698Y-3.7388
X6.3719Y-3.793
X6.5613Y-2.8352
X6.5613Y-2.9139
X6.5613Y-2.9927
X6.5613Y-3.0714
X6.5613Y-3.1502
X6.5613Y-3.2289
X6.5613Y-3.3076
X6.5613Y-3.3864
X6.5613Y-3.4651
X6.5642Y-3.3089
X6.7975Y-2.8352
X6.7975Y-2.9139
X6.7975Y-2.9927
X6.7975Y-3.0714
X6.7975Y-3.1502
X6.7975Y-3.2289
X6.7975Y-3.3076
X6.7975Y-3.3864
X6.7975Y-3.4651
X6.7975Y-3.5439
T2
X5.5729Y-3.8513
X5.5944Y-3.5686
X5.5944Y-3.6178
X5.5944Y-3.6671
X5.5944Y-3.7163
X5.6221Y-3.8513
T3
X4.8618Y-3.7418
X4.8618Y-3.8402
T0
M30
