G04 #@! TF.FileFunction,Other,User*
%FSLAX46Y46*%
G04 Gerber Fmt 4.6, Leading zero omitted, Abs format (unit mm)*
G04 Created by KiCad (PCBNEW 4.0.2+dfsg1-stable) date ven 28 dic 2018 11:35:04 CET*
%MOMM*%
G01*
G04 APERTURE LIST*
%ADD10C,0.100000*%
%ADD11C,0.050000*%
G04 APERTURE END LIST*
D10*
X173697120Y-70957440D02*
X121697120Y-70957440D01*
X173697120Y-100957440D02*
X173697120Y-70957440D01*
X121697120Y-100957440D02*
X173697120Y-100957440D01*
X121697120Y-70957440D02*
X121697120Y-100957440D01*
D11*
X160042240Y-93366960D02*
X157742240Y-93366960D01*
X160042240Y-92166960D02*
X157742240Y-92166960D01*
X160042240Y-93366960D02*
X160042240Y-92166960D01*
X157742240Y-93366960D02*
X157742240Y-92166960D01*
X141594140Y-88682300D02*
X141594140Y-85782300D01*
X143094140Y-88682300D02*
X143094140Y-85782300D01*
X141594140Y-88682300D02*
X143094140Y-88682300D01*
X141594140Y-85782300D02*
X143094140Y-85782300D01*
X135187202Y-87713456D02*
X132287202Y-87713456D01*
X135187202Y-86213456D02*
X132287202Y-86213456D01*
X135187202Y-87713456D02*
X135187202Y-86213456D01*
X132287202Y-87713456D02*
X132287202Y-86213456D01*
X156036720Y-91397280D02*
X156036720Y-89097280D01*
X157236720Y-91397280D02*
X157236720Y-89097280D01*
X156036720Y-91397280D02*
X157236720Y-91397280D01*
X156036720Y-89097280D02*
X157236720Y-89097280D01*
X144586400Y-87597440D02*
X144586400Y-85297440D01*
X145786400Y-87597440D02*
X145786400Y-85297440D01*
X144586400Y-87597440D02*
X145786400Y-87597440D01*
X144586400Y-85297440D02*
X145786400Y-85297440D01*
X144672960Y-98046920D02*
X147572960Y-98046920D01*
X144672960Y-99546920D02*
X147572960Y-99546920D01*
X144672960Y-98046920D02*
X144672960Y-99546920D01*
X147572960Y-98046920D02*
X147572960Y-99546920D01*
X145767500Y-87610140D02*
X145767500Y-85310140D01*
X146967500Y-87610140D02*
X146967500Y-85310140D01*
X145767500Y-87610140D02*
X146967500Y-87610140D01*
X145767500Y-85310140D02*
X146967500Y-85310140D01*
X150347120Y-90247840D02*
X150347120Y-87947840D01*
X151547120Y-90247840D02*
X151547120Y-87947840D01*
X150347120Y-90247840D02*
X151547120Y-90247840D01*
X150347120Y-87947840D02*
X151547120Y-87947840D01*
X150924820Y-97118600D02*
X150924820Y-99418600D01*
X149724820Y-97118600D02*
X149724820Y-99418600D01*
X150924820Y-97118600D02*
X149724820Y-97118600D01*
X150924820Y-99418600D02*
X149724820Y-99418600D01*
X149863100Y-97119780D02*
X149863100Y-99419780D01*
X148663100Y-97119780D02*
X148663100Y-99419780D01*
X149863100Y-97119780D02*
X148663100Y-97119780D01*
X149863100Y-99419780D02*
X148663100Y-99419780D01*
X150997360Y-94798340D02*
X150997360Y-92498340D01*
X152197360Y-94798340D02*
X152197360Y-92498340D01*
X150997360Y-94798340D02*
X152197360Y-94798340D01*
X150997360Y-92498340D02*
X152197360Y-92498340D01*
X153378460Y-97001760D02*
X153378460Y-99301760D01*
X152178460Y-97001760D02*
X152178460Y-99301760D01*
X153378460Y-97001760D02*
X152178460Y-97001760D01*
X153378460Y-99301760D02*
X152178460Y-99301760D01*
X152203860Y-96108980D02*
X152203860Y-93808980D01*
X153403860Y-96108980D02*
X153403860Y-93808980D01*
X152203860Y-96108980D02*
X153403860Y-96108980D01*
X152203860Y-93808980D02*
X153403860Y-93808980D01*
X148737880Y-97121140D02*
X148737880Y-99421140D01*
X147537880Y-97121140D02*
X147537880Y-99421140D01*
X148737880Y-97121140D02*
X147537880Y-97121140D01*
X148737880Y-99421140D02*
X147537880Y-99421140D01*
X139555980Y-89032300D02*
X139555980Y-85432300D01*
X141555980Y-89032300D02*
X141555980Y-85432300D01*
X139555980Y-89032300D02*
X141555980Y-89032300D01*
X139555980Y-85432300D02*
X141555980Y-85432300D01*
X143255440Y-88593400D02*
X143255440Y-86293400D01*
X144455440Y-88593400D02*
X144455440Y-86293400D01*
X143255440Y-88593400D02*
X144455440Y-88593400D01*
X143255440Y-86293400D02*
X144455440Y-86293400D01*
X155802980Y-90240220D02*
X153502980Y-90240220D01*
X155802980Y-89040220D02*
X153502980Y-89040220D01*
X155802980Y-90240220D02*
X155802980Y-89040220D01*
X153502980Y-90240220D02*
X153502980Y-89040220D01*
X158935980Y-94466840D02*
X158935980Y-96766840D01*
X157735980Y-94466840D02*
X157735980Y-96766840D01*
X158935980Y-94466840D02*
X157735980Y-94466840D01*
X158935980Y-96766840D02*
X157735980Y-96766840D01*
X154619400Y-96540780D02*
X154619400Y-94240780D01*
X155819400Y-96540780D02*
X155819400Y-94240780D01*
X154619400Y-96540780D02*
X155819400Y-96540780D01*
X154619400Y-94240780D02*
X155819400Y-94240780D01*
X135570222Y-89718596D02*
X131970222Y-89718596D01*
X135570222Y-87718596D02*
X131970222Y-87718596D01*
X135570222Y-89718596D02*
X135570222Y-87718596D01*
X131970222Y-89718596D02*
X131970222Y-87718596D01*
X158840880Y-92229220D02*
X158840880Y-89929220D01*
X160040880Y-92229220D02*
X160040880Y-89929220D01*
X158840880Y-92229220D02*
X160040880Y-92229220D01*
X158840880Y-89929220D02*
X160040880Y-89929220D01*
X134832682Y-85899756D02*
X132532682Y-85899756D01*
X134832682Y-84699756D02*
X132532682Y-84699756D01*
X134832682Y-85899756D02*
X134832682Y-84699756D01*
X132532682Y-85899756D02*
X132532682Y-84699756D01*
X160942580Y-94230620D02*
X160942580Y-96530620D01*
X159742580Y-94230620D02*
X159742580Y-96530620D01*
X160942580Y-94230620D02*
X159742580Y-94230620D01*
X160942580Y-96530620D02*
X159742580Y-96530620D01*
X131949602Y-85884516D02*
X129649602Y-85884516D01*
X131949602Y-84684516D02*
X129649602Y-84684516D01*
X131949602Y-85884516D02*
X131949602Y-84684516D01*
X129649602Y-85884516D02*
X129649602Y-84684516D01*
X128507962Y-80935476D02*
X130807962Y-80935476D01*
X128507962Y-82135476D02*
X130807962Y-82135476D01*
X128507962Y-80935476D02*
X128507962Y-82135476D01*
X130807962Y-80935476D02*
X130807962Y-82135476D01*
X134223200Y-92591080D02*
X134223200Y-90291080D01*
X135423200Y-92591080D02*
X135423200Y-90291080D01*
X134223200Y-92591080D02*
X135423200Y-92591080D01*
X134223200Y-90291080D02*
X135423200Y-90291080D01*
X132064840Y-86724260D02*
X132064840Y-88624260D01*
X132064840Y-88624260D02*
X128264840Y-88624260D01*
X128264840Y-88624260D02*
X128264840Y-86724260D01*
X128264840Y-86724260D02*
X132064840Y-86724260D01*
X150982440Y-92594620D02*
X150982440Y-94494620D01*
X149682440Y-92594620D02*
X149682440Y-94494620D01*
X150982440Y-92594620D02*
X149682440Y-92594620D01*
X150982440Y-94494620D02*
X149682440Y-94494620D01*
X153501980Y-90297840D02*
X151601980Y-90297840D01*
X153501980Y-88997840D02*
X151601980Y-88997840D01*
X153501980Y-90297840D02*
X153501980Y-88997840D01*
X151601980Y-90297840D02*
X151601980Y-88997840D01*
X160837500Y-94455820D02*
X158937500Y-94455820D01*
X160837500Y-93155820D02*
X158937500Y-93155820D01*
X160837500Y-94455820D02*
X160837500Y-93155820D01*
X158937500Y-94455820D02*
X158937500Y-93155820D01*
X154170840Y-97046620D02*
X152270840Y-97046620D01*
X154170840Y-95746620D02*
X152270840Y-95746620D01*
X154170840Y-97046620D02*
X154170840Y-95746620D01*
X152270840Y-97046620D02*
X152270840Y-95746620D01*
X150949900Y-96909320D02*
X150949900Y-95009320D01*
X152249900Y-96909320D02*
X152249900Y-95009320D01*
X150949900Y-96909320D02*
X152249900Y-96909320D01*
X150949900Y-95009320D02*
X152249900Y-95009320D01*
X153162240Y-95810340D02*
X153162240Y-93910340D01*
X154462240Y-95810340D02*
X154462240Y-93910340D01*
X153162240Y-95810340D02*
X154462240Y-95810340D01*
X153162240Y-93910340D02*
X154462240Y-93910340D01*
X129494382Y-82486056D02*
X133494382Y-82486056D01*
X129494382Y-84786056D02*
X133494382Y-84786056D01*
X129494382Y-82486056D02*
X129494382Y-84786056D01*
X133494382Y-82486056D02*
X133494382Y-84786056D01*
X152153860Y-93831260D02*
X152153860Y-91931260D01*
X153453860Y-93831260D02*
X153453860Y-91931260D01*
X152153860Y-93831260D02*
X153453860Y-93831260D01*
X152153860Y-91931260D02*
X153453860Y-91931260D01*
X139572540Y-77005420D02*
X141472540Y-77005420D01*
X139572540Y-78305420D02*
X141472540Y-78305420D01*
X139572540Y-77005420D02*
X139572540Y-78305420D01*
X141472540Y-77005420D02*
X141472540Y-78305420D01*
X137064362Y-83047156D02*
X137064362Y-84947156D01*
X135764362Y-83047156D02*
X135764362Y-84947156D01*
X137064362Y-83047156D02*
X135764362Y-83047156D01*
X137064362Y-84947156D02*
X135764362Y-84947156D01*
X141440782Y-83056896D02*
X141440782Y-84956896D01*
X140140782Y-83056896D02*
X140140782Y-84956896D01*
X141440782Y-83056896D02*
X140140782Y-83056896D01*
X141440782Y-84956896D02*
X140140782Y-84956896D01*
X139919602Y-82769676D02*
X138019602Y-82769676D01*
X139919602Y-81469676D02*
X138019602Y-81469676D01*
X139919602Y-82769676D02*
X139919602Y-81469676D01*
X138019602Y-82769676D02*
X138019602Y-81469676D01*
X137302280Y-92632100D02*
X135402280Y-92632100D01*
X137302280Y-91332100D02*
X135402280Y-91332100D01*
X137302280Y-92632100D02*
X137302280Y-91332100D01*
X135402280Y-92632100D02*
X135402280Y-91332100D01*
X128400422Y-81045216D02*
X128400422Y-82945216D01*
X127100422Y-81045216D02*
X127100422Y-82945216D01*
X128400422Y-81045216D02*
X127100422Y-81045216D01*
X128400422Y-82945216D02*
X127100422Y-82945216D01*
X149684980Y-96909320D02*
X149684980Y-95009320D01*
X150984980Y-96909320D02*
X150984980Y-95009320D01*
X149684980Y-96909320D02*
X150984980Y-96909320D01*
X149684980Y-95009320D02*
X150984980Y-95009320D01*
X133097362Y-75861156D02*
X133097362Y-73961156D01*
X134397362Y-75861156D02*
X134397362Y-73961156D01*
X133097362Y-75861156D02*
X134397362Y-75861156D01*
X133097362Y-73961156D02*
X134397362Y-73961156D01*
X157766820Y-94182200D02*
X157766820Y-91382200D01*
X154566820Y-91382200D02*
X154566820Y-94182200D01*
X154566820Y-91382200D02*
X157766820Y-91382200D01*
X154566820Y-94182200D02*
X157766820Y-94182200D01*
X148678340Y-96969940D02*
X148678340Y-93969940D01*
X148678340Y-93969940D02*
X145278340Y-93969940D01*
X145278340Y-93969940D02*
X145278340Y-96969940D01*
X145278340Y-96969940D02*
X148678340Y-96969940D01*
X149973180Y-92748380D02*
X149973180Y-87548380D01*
X144773180Y-92748380D02*
X144773180Y-87548380D01*
X149973180Y-92748380D02*
X144773180Y-92748380D01*
X149973180Y-87548380D02*
X144773180Y-87548380D01*
X136997722Y-81885156D02*
X136997722Y-75885156D01*
X130997722Y-81885156D02*
X130997722Y-75885156D01*
X136997722Y-81885156D02*
X130997722Y-81885156D01*
X136997722Y-75885156D02*
X130997722Y-75885156D01*
M02*
