G04 #@! TF.FileFunction,Copper,L1,Top,Signal*
%FSLAX46Y46*%
G04 Gerber Fmt 4.6, Leading zero omitted, Abs format (unit mm)*
G04 Created by KiCad (PCBNEW 4.0.2+dfsg1-stable) date ven 12 ott 2018 15:59:41 CEST*
%MOMM*%
G01*
G04 APERTURE LIST*
%ADD10C,0.100000*%
%ADD11C,0.300000*%
%ADD12C,0.200660*%
%ADD13C,1.000760*%
%ADD14R,1.000000X1.000000*%
%ADD15C,0.762000*%
%ADD16R,0.600000X0.500000*%
%ADD17R,0.750000X0.800000*%
%ADD18R,0.800000X0.750000*%
%ADD19R,0.500000X0.600000*%
%ADD20R,1.250000X1.000000*%
%ADD21R,1.000000X1.250000*%
%ADD22R,1.198880X1.198880*%
%ADD23R,0.600000X0.400000*%
%ADD24R,0.400000X0.600000*%
%ADD25R,0.800000X0.800000*%
%ADD26O,0.800000X0.800000*%
%ADD27R,1.350000X1.350000*%
%ADD28C,1.350000*%
%ADD29R,0.711200X0.457200*%
%ADD30R,1.150000X1.000000*%
%ADD31R,1.000000X1.800000*%
%ADD32R,0.730000X0.300000*%
%ADD33R,0.300000X0.730000*%
%ADD34R,1.250000X1.250000*%
%ADD35R,0.700000X0.250000*%
%ADD36R,0.250000X0.700000*%
%ADD37R,1.725000X1.725000*%
%ADD38R,0.650000X0.400000*%
%ADD39C,0.600000*%
%ADD40C,0.250000*%
%ADD41C,0.500000*%
%ADD42C,0.254000*%
G04 APERTURE END LIST*
D10*
D11*
X128885964Y-98693231D02*
X129814535Y-98693231D01*
X129314535Y-99264660D01*
X129528821Y-99264660D01*
X129671678Y-99336089D01*
X129743107Y-99407517D01*
X129814535Y-99550374D01*
X129814535Y-99907517D01*
X129743107Y-100050374D01*
X129671678Y-100121803D01*
X129528821Y-100193231D01*
X129100249Y-100193231D01*
X128957392Y-100121803D01*
X128885964Y-100050374D01*
X130528820Y-100193231D02*
X130814535Y-100193231D01*
X130957392Y-100121803D01*
X131028820Y-100050374D01*
X131171678Y-99836089D01*
X131243106Y-99550374D01*
X131243106Y-98978946D01*
X131171678Y-98836089D01*
X131100249Y-98764660D01*
X130957392Y-98693231D01*
X130671678Y-98693231D01*
X130528820Y-98764660D01*
X130457392Y-98836089D01*
X130385963Y-98978946D01*
X130385963Y-99336089D01*
X130457392Y-99478946D01*
X130528820Y-99550374D01*
X130671678Y-99621803D01*
X130957392Y-99621803D01*
X131100249Y-99550374D01*
X131171678Y-99478946D01*
X131243106Y-99336089D01*
X131743106Y-98693231D02*
X132671677Y-98693231D01*
X132171677Y-99264660D01*
X132385963Y-99264660D01*
X132528820Y-99336089D01*
X132600249Y-99407517D01*
X132671677Y-99550374D01*
X132671677Y-99907517D01*
X132600249Y-100050374D01*
X132528820Y-100121803D01*
X132385963Y-100193231D01*
X131957391Y-100193231D01*
X131814534Y-100121803D01*
X131743106Y-100050374D01*
X133171677Y-98693231D02*
X134100248Y-98693231D01*
X133600248Y-99264660D01*
X133814534Y-99264660D01*
X133957391Y-99336089D01*
X134028820Y-99407517D01*
X134100248Y-99550374D01*
X134100248Y-99907517D01*
X134028820Y-100050374D01*
X133957391Y-100121803D01*
X133814534Y-100193231D01*
X133385962Y-100193231D01*
X133243105Y-100121803D01*
X133171677Y-100050374D01*
D12*
X165534340Y-90500200D02*
X166093140Y-91059000D01*
D13*
X166657020Y-74013060D02*
X172656500Y-74013060D01*
X172656500Y-72014080D02*
X166657020Y-72014080D01*
X166657020Y-76014580D02*
X172656500Y-76014580D01*
X172656500Y-78013560D02*
X166657020Y-78013560D01*
X166657020Y-80015080D02*
X172656500Y-80015080D01*
X172656500Y-82014060D02*
X166657020Y-82014060D01*
X166657020Y-84013040D02*
X172656500Y-84013040D01*
X172656500Y-86014560D02*
X166657020Y-86014560D01*
X166657020Y-88013540D02*
X172656500Y-88013540D01*
X172656500Y-90015060D02*
X167657780Y-90015060D01*
X165023800Y-92793820D02*
X163022280Y-92793820D01*
X167642540Y-90020140D02*
X166651080Y-90217350D01*
X166651080Y-90217350D02*
X165810570Y-90778970D01*
X165810570Y-90778970D02*
X165248950Y-91619480D01*
X165248950Y-91619480D02*
X165051740Y-92610940D01*
D14*
X162999420Y-92794080D03*
D15*
X166657020Y-82014060D03*
X166657020Y-84013040D03*
X166730680Y-84046060D03*
X166657020Y-86014560D03*
X166657020Y-88013540D03*
X172656500Y-88013540D03*
X172656500Y-86014560D03*
X172656500Y-84013040D03*
X172656500Y-82014060D03*
X172656500Y-80015080D03*
X172656500Y-78013560D03*
X172656500Y-76014580D03*
X172656500Y-74013060D03*
X172656500Y-72014080D03*
X166657020Y-72014080D03*
X166657020Y-74013060D03*
X166657020Y-76014580D03*
X166657020Y-78013560D03*
X166657020Y-80015080D03*
X172656500Y-90015060D03*
D16*
X159442240Y-92766960D03*
X158342240Y-92766960D03*
D17*
X142344140Y-87982300D03*
X142344140Y-86482300D03*
D18*
X134487202Y-86963456D03*
X132987202Y-86963456D03*
D19*
X156636720Y-90797280D03*
X156636720Y-89697280D03*
X145186400Y-86997440D03*
X145186400Y-85897440D03*
D18*
X145372960Y-98796920D03*
X146872960Y-98796920D03*
D19*
X146367500Y-87010140D03*
X146367500Y-85910140D03*
X150947120Y-89647840D03*
X150947120Y-88547840D03*
X150324820Y-97718600D03*
X150324820Y-98818600D03*
X149263100Y-97719780D03*
X149263100Y-98819780D03*
X151597360Y-94198340D03*
X151597360Y-93098340D03*
X152778460Y-97601760D03*
X152778460Y-98701760D03*
X152803860Y-95508980D03*
X152803860Y-94408980D03*
X148137880Y-97721140D03*
X148137880Y-98821140D03*
D20*
X140555980Y-88232300D03*
X140555980Y-86232300D03*
D19*
X143868140Y-89660720D03*
X143868140Y-88560720D03*
D16*
X155202980Y-89640220D03*
X154102980Y-89640220D03*
D19*
X158335980Y-95066840D03*
X158335980Y-96166840D03*
X155219400Y-95940780D03*
X155219400Y-94840780D03*
D21*
X134770222Y-88718596D03*
X132770222Y-88718596D03*
D19*
X159440880Y-91629220D03*
X159440880Y-90529220D03*
D16*
X134232682Y-85299756D03*
X133132682Y-85299756D03*
D19*
X160342580Y-94830620D03*
X160342580Y-95930620D03*
D16*
X131349602Y-85284516D03*
X130249602Y-85284516D03*
X129107962Y-81535476D03*
X130207962Y-81535476D03*
D19*
X135031480Y-94421860D03*
X135031480Y-93321860D03*
D22*
X131213860Y-87674260D03*
X129115820Y-87674260D03*
D23*
X150332440Y-93094620D03*
X150332440Y-93994620D03*
D24*
X153001980Y-89647840D03*
X152101980Y-89647840D03*
X160337500Y-93805820D03*
X159437500Y-93805820D03*
X153670840Y-96396620D03*
X152770840Y-96396620D03*
D23*
X151599900Y-96409320D03*
X151599900Y-95509320D03*
X153812240Y-95310340D03*
X153812240Y-94410340D03*
D25*
X142097760Y-94393200D03*
D26*
X142097760Y-93143200D03*
X142097760Y-91893200D03*
X142097760Y-90643200D03*
D27*
X123489720Y-95041720D03*
D28*
X123489720Y-97541720D03*
D25*
X142801340Y-97824100D03*
D26*
X141551340Y-97824100D03*
D29*
X139409022Y-80809036D03*
X139409022Y-79488236D03*
X137377022Y-80148636D03*
D30*
X147876260Y-94818820D03*
X146126260Y-94818820D03*
X146126260Y-96218820D03*
X147876260Y-96218820D03*
D31*
X132744382Y-83636056D03*
X130244382Y-83636056D03*
D23*
X152803860Y-93331260D03*
X152803860Y-92431260D03*
X140757762Y-79462836D03*
X140757762Y-80362836D03*
X136414362Y-83547156D03*
X136414362Y-84447156D03*
X140790782Y-83556896D03*
X140790782Y-84456896D03*
D24*
X139419602Y-82119676D03*
X138519602Y-82119676D03*
X137010560Y-94412880D03*
X136110560Y-94412880D03*
D23*
X127750422Y-81545216D03*
X127750422Y-82445216D03*
X150334980Y-96409320D03*
X150334980Y-95509320D03*
X133747362Y-75361156D03*
X133747362Y-74461156D03*
D32*
X149338180Y-91148380D03*
X149338180Y-90648380D03*
X149338180Y-90148380D03*
X149338180Y-89648380D03*
X149338180Y-89148380D03*
D33*
X148373180Y-88183380D03*
X147873180Y-88183380D03*
X147373180Y-88183380D03*
X146873180Y-88183380D03*
X146373180Y-88183380D03*
D32*
X145408180Y-89148380D03*
X145408180Y-89648380D03*
X145408180Y-90148380D03*
X145408180Y-90648380D03*
X145408180Y-91148380D03*
D33*
X146373180Y-92113380D03*
X146873180Y-92113380D03*
X147373180Y-92113380D03*
X147873180Y-92113380D03*
X148373180Y-92113380D03*
D34*
X146748180Y-89523380D03*
X146748180Y-90773380D03*
X147998180Y-89523380D03*
X147998180Y-90773380D03*
D35*
X136397722Y-80635156D03*
X136397722Y-80135156D03*
X136397722Y-79635156D03*
X136397722Y-79135156D03*
X136397722Y-78635156D03*
X136397722Y-78135156D03*
X136397722Y-77635156D03*
X136397722Y-77135156D03*
D36*
X135747722Y-76485156D03*
X135247722Y-76485156D03*
X134747722Y-76485156D03*
X134247722Y-76485156D03*
X133747722Y-76485156D03*
X133247722Y-76485156D03*
X132747722Y-76485156D03*
X132247722Y-76485156D03*
D35*
X131597722Y-77135156D03*
X131597722Y-77635156D03*
X131597722Y-78135156D03*
X131597722Y-78635156D03*
X131597722Y-79135156D03*
X131597722Y-79635156D03*
X131597722Y-80135156D03*
X131597722Y-80635156D03*
D36*
X132247722Y-81285156D03*
X132747722Y-81285156D03*
X133247722Y-81285156D03*
X133747722Y-81285156D03*
X134247722Y-81285156D03*
X134747722Y-81285156D03*
X135247722Y-81285156D03*
X135747722Y-81285156D03*
D37*
X133135222Y-78022656D03*
X133135222Y-79747656D03*
X134860222Y-78022656D03*
X134860222Y-79747656D03*
D38*
X155216820Y-92132200D03*
X155216820Y-93432200D03*
X157116820Y-92782200D03*
X155216820Y-92782200D03*
X157116820Y-93432200D03*
X157116820Y-92132200D03*
D39*
X151546560Y-98193860D03*
X147665440Y-74455020D03*
X148071840Y-72278240D03*
X149999700Y-72029320D03*
X149842220Y-75265280D03*
X148722080Y-83781900D03*
X149903180Y-79705200D03*
X146062700Y-80472280D03*
X159710120Y-85671660D03*
X159367220Y-95849440D03*
X157322520Y-95735140D03*
X156149040Y-96647000D03*
X154030680Y-97566480D03*
X155138120Y-100020120D03*
X157835600Y-99913440D03*
X156649420Y-98727260D03*
X155671520Y-85356700D03*
X156824680Y-85981540D03*
X158780480Y-87779860D03*
X159679640Y-84236560D03*
X161264600Y-85981540D03*
X161371280Y-88148160D03*
X161317940Y-91638120D03*
X160050480Y-98564700D03*
X161107120Y-99674680D03*
X161846260Y-96342200D03*
X146674840Y-100139500D03*
X148419820Y-100086160D03*
X149951440Y-100149660D03*
X151432260Y-100022660D03*
X152913080Y-99862640D03*
X156613860Y-99915980D03*
X154604720Y-99123500D03*
X155450540Y-97960180D03*
X156507180Y-95211900D03*
X156999940Y-96984820D03*
X158198820Y-98277680D03*
X159572960Y-99545140D03*
X159468820Y-97325180D03*
X161317940Y-97977960D03*
X161792920Y-94965520D03*
X158419800Y-91150440D03*
X159255460Y-89362280D03*
X160789620Y-89519760D03*
X161701480Y-90345260D03*
X160261300Y-87088980D03*
X158145480Y-85608160D03*
X157784800Y-83558380D03*
X155671520Y-83454240D03*
X153184860Y-85620860D03*
X153291540Y-83875880D03*
X150543260Y-85356700D03*
X150754080Y-83136740D03*
X145986500Y-85026500D03*
X147360640Y-84180680D03*
X148523960Y-81325720D03*
X146146520Y-82329020D03*
X147360640Y-79209900D03*
X149105620Y-77678280D03*
X146357340Y-77149960D03*
X148366480Y-75773280D03*
X149001480Y-73449180D03*
X134232682Y-84148740D03*
X137342880Y-84059840D03*
X140505180Y-92606940D03*
X146273520Y-74285920D03*
X146568160Y-72550020D03*
X156265880Y-94267020D03*
X152944685Y-91133520D03*
X138544543Y-82931876D03*
X138526520Y-85340000D03*
X154198320Y-92782200D03*
X156408120Y-88837580D03*
X147253960Y-85914040D03*
X151747220Y-88515000D03*
X126479300Y-75740260D03*
X157667960Y-94308740D03*
X157667960Y-88896000D03*
X131884413Y-83506430D03*
X131528049Y-82063489D03*
X129388508Y-89029978D03*
X128189988Y-80865077D03*
X129704374Y-79799947D03*
X127554331Y-79684145D03*
X144543168Y-91004586D03*
X143428720Y-93366400D03*
X130195179Y-79010136D03*
X137288458Y-78639770D03*
X138524554Y-79155705D03*
X131622710Y-81269097D03*
X135122920Y-73884600D03*
X140195300Y-73935400D03*
X142102840Y-84552600D03*
X139423140Y-82931876D03*
X137744530Y-82931876D03*
X138153140Y-75210480D03*
X137863580Y-80922940D03*
X144052098Y-91636146D03*
X135343900Y-82266600D03*
X145174955Y-92458525D03*
X139481759Y-78698971D03*
X130412036Y-77075162D03*
X146311620Y-93366400D03*
X129237031Y-78159369D03*
X148633180Y-93358780D03*
D40*
X160337500Y-93805820D02*
X160337500Y-93255820D01*
X160337500Y-93255820D02*
X160799240Y-92794080D01*
X160799240Y-92794080D02*
X162249420Y-92794080D01*
X162249420Y-92794080D02*
X162999420Y-92794080D01*
X160337500Y-93805820D02*
X160337500Y-94825540D01*
X160337500Y-94825540D02*
X160342580Y-94830620D01*
X159440880Y-91629220D02*
X159440880Y-92765600D01*
X159440880Y-92765600D02*
X159442240Y-92766960D01*
X159437500Y-93805820D02*
X159437500Y-92771700D01*
X159437500Y-92771700D02*
X159442240Y-92766960D01*
X158342240Y-92766960D02*
X157132060Y-92766960D01*
X157132060Y-92766960D02*
X157116820Y-92782200D01*
D41*
X123489720Y-97541720D02*
X134431720Y-97541720D01*
X134431720Y-97541720D02*
X137010560Y-94962880D01*
X137010560Y-94962880D02*
X137010560Y-94412880D01*
D40*
X134232682Y-85299756D02*
X134232682Y-84148740D01*
X134232682Y-84148740D02*
X134232682Y-81300196D01*
X140790782Y-83556896D02*
X137845824Y-83556896D01*
X137845824Y-83556896D02*
X137342880Y-84059840D01*
X140555980Y-88232300D02*
X140555980Y-92556140D01*
X140555980Y-92556140D02*
X140505180Y-92606940D01*
X137010560Y-94512880D02*
X137010560Y-94412880D01*
X142344140Y-87982300D02*
X142344140Y-88632300D01*
X142344140Y-88632300D02*
X143372560Y-89660720D01*
X143372560Y-89660720D02*
X143868140Y-89660720D01*
X134247722Y-81285156D02*
X134747722Y-81285156D01*
X134232682Y-81300196D02*
X134247722Y-81285156D01*
X134232682Y-85299756D02*
X134232682Y-86708936D01*
X134232682Y-86708936D02*
X134487202Y-86963456D01*
X142344140Y-87982300D02*
X140805980Y-87982300D01*
X140805980Y-87982300D02*
X140555980Y-88232300D01*
X134770222Y-88718596D02*
X140069684Y-88718596D01*
X140069684Y-88718596D02*
X140555980Y-88232300D01*
X134487202Y-86963456D02*
X134487202Y-88435576D01*
X134487202Y-88435576D02*
X134770222Y-88718596D01*
X140757762Y-80362836D02*
X140857762Y-80362836D01*
X140857762Y-80362836D02*
X146273520Y-74947078D01*
X146273520Y-74947078D02*
X146273520Y-74285920D01*
X140757762Y-80362836D02*
X140757762Y-83523876D01*
X140757762Y-83523876D02*
X140790782Y-83556896D01*
D41*
X137010560Y-94412880D02*
X142078080Y-94412880D01*
D40*
X142078080Y-94412880D02*
X142097760Y-94393200D01*
X143868140Y-89660720D02*
X145395840Y-89660720D01*
X145395840Y-89660720D02*
X145408180Y-89648380D01*
X145372960Y-98796920D02*
X145372960Y-98299080D01*
X145372960Y-98299080D02*
X145372960Y-98171920D01*
X142097760Y-94393200D02*
X142747760Y-94393200D01*
X142747760Y-94393200D02*
X145372960Y-97018400D01*
X145372960Y-97018400D02*
X145372960Y-98299080D01*
X145372960Y-98171920D02*
X145823740Y-97721140D01*
X145823740Y-97721140D02*
X147637880Y-97721140D01*
X147637880Y-97721140D02*
X148137880Y-97721140D01*
X148137880Y-97721140D02*
X149261740Y-97721140D01*
X149261740Y-97721140D02*
X149263100Y-97719780D01*
X149263100Y-97719780D02*
X150323640Y-97719780D01*
X150323640Y-97719780D02*
X150324820Y-97718600D01*
X150324820Y-97718600D02*
X150324820Y-96419480D01*
X150324820Y-96419480D02*
X150334980Y-96409320D01*
X150334980Y-96409320D02*
X150234980Y-96409320D01*
X149338180Y-91548380D02*
X149338180Y-91148380D01*
X150234980Y-96409320D02*
X149338180Y-95512520D01*
X149338180Y-95512520D02*
X149338180Y-91548380D01*
D41*
X126479300Y-75740260D02*
X123489720Y-78729840D01*
X123489720Y-78729840D02*
X123489720Y-95041720D01*
D40*
X152803860Y-91274345D02*
X152944685Y-91133520D01*
X152803860Y-92431260D02*
X152803860Y-91274345D01*
X128346176Y-74461156D02*
X128623060Y-74461156D01*
D41*
X128623060Y-74461156D02*
X133197362Y-74461156D01*
X126479300Y-75740260D02*
X126479300Y-75315996D01*
X126479300Y-75315996D02*
X127334140Y-74461156D01*
X127334140Y-74461156D02*
X128623060Y-74461156D01*
D40*
X138519602Y-82906935D02*
X138544543Y-82931876D01*
X138519602Y-82119676D02*
X138519602Y-82906935D01*
X129107962Y-81535476D02*
X129107962Y-85277878D01*
X129107962Y-85277878D02*
X129689601Y-85859517D01*
X129689601Y-85859517D02*
X130724601Y-85859517D01*
X130724601Y-85859517D02*
X131299602Y-85284516D01*
X131299602Y-85284516D02*
X131349602Y-85284516D01*
X135031480Y-93321860D02*
X141919100Y-93321860D01*
X141919100Y-93321860D02*
X142097760Y-93143200D01*
X133247722Y-81285156D02*
X133747722Y-81285156D01*
X140555980Y-86232300D02*
X139418820Y-86232300D01*
X139418820Y-86232300D02*
X138526520Y-85340000D01*
X127750422Y-81545216D02*
X129098222Y-81545216D01*
X129098222Y-81545216D02*
X129107962Y-81535476D01*
X133132682Y-85299756D02*
X133182682Y-85299756D01*
X133247722Y-81885156D02*
X133247722Y-81285156D01*
X133182682Y-85299756D02*
X133569383Y-84913055D01*
X133569383Y-84913055D02*
X133569383Y-82206817D01*
X133569383Y-82206817D02*
X133247722Y-81885156D01*
X133132682Y-85299756D02*
X133132682Y-86817976D01*
X133132682Y-86817976D02*
X132987202Y-86963456D01*
X142801340Y-97824100D02*
X142801340Y-98474100D01*
X142801340Y-98474100D02*
X143824161Y-99496921D01*
X143824161Y-99496921D02*
X146147959Y-99496921D01*
X146147959Y-99496921D02*
X146847960Y-98796920D01*
X146847960Y-98796920D02*
X146872960Y-98796920D01*
X156636720Y-89697280D02*
X156636720Y-89066180D01*
X156636720Y-89066180D02*
X156408120Y-88837580D01*
X147253960Y-85914040D02*
X146371400Y-85914040D01*
X146371400Y-85914040D02*
X146367500Y-85910140D01*
X151747220Y-88515000D02*
X150979960Y-88515000D01*
X150979960Y-88515000D02*
X150947120Y-88547840D01*
X143868140Y-88610720D02*
X143868140Y-88560720D01*
X142344140Y-86482300D02*
X144651540Y-86482300D01*
X144651540Y-86482300D02*
X145186400Y-85947440D01*
X145186400Y-85947440D02*
X145186400Y-85897440D01*
X142344140Y-86482300D02*
X142969140Y-86482300D01*
X142969140Y-86482300D02*
X143868140Y-87381300D01*
X143868140Y-88010720D02*
X143868140Y-88560720D01*
X143868140Y-87381300D02*
X143868140Y-88010720D01*
D41*
X140555980Y-86232300D02*
X142094140Y-86232300D01*
D40*
X142094140Y-86232300D02*
X142344140Y-86482300D01*
X132987202Y-86963456D02*
X132987202Y-88501616D01*
X132987202Y-88501616D02*
X132770222Y-88718596D01*
X131349602Y-85284516D02*
X133117442Y-85284516D01*
X133117442Y-85284516D02*
X133132682Y-85299756D01*
D41*
X133197362Y-74461156D02*
X133747362Y-74461156D01*
D40*
X134531480Y-92771860D02*
X135031480Y-93271860D01*
X134481480Y-92771860D02*
X134531480Y-92771860D01*
X132770222Y-91060602D02*
X134481480Y-92771860D01*
X135031480Y-93271860D02*
X135031480Y-93321860D01*
X132770222Y-88718596D02*
X132770222Y-91060602D01*
X146367500Y-85910140D02*
X145199100Y-85910140D01*
X145199100Y-85910140D02*
X145186400Y-85897440D01*
X150324820Y-98818600D02*
X152661620Y-98818600D01*
X152661620Y-98818600D02*
X152778460Y-98701760D01*
X149263100Y-98819780D02*
X150323640Y-98819780D01*
X150323640Y-98819780D02*
X150324820Y-98818600D01*
X148137880Y-98821140D02*
X149261740Y-98821140D01*
X149261740Y-98821140D02*
X149263100Y-98819780D01*
X146872960Y-98796920D02*
X148113660Y-98796920D01*
X148113660Y-98796920D02*
X148137880Y-98821140D01*
X155216820Y-92782200D02*
X155791820Y-92782200D01*
X155791820Y-92782200D02*
X156466819Y-93457199D01*
X156466819Y-93457199D02*
X156466819Y-94247679D01*
X156466819Y-94247679D02*
X158335980Y-96116840D01*
X158335980Y-96116840D02*
X158335980Y-96166840D01*
X152803860Y-92431260D02*
X153353860Y-92431260D01*
X153353860Y-92431260D02*
X153704800Y-92782200D01*
X153704800Y-92782200D02*
X154641820Y-92782200D01*
X154641820Y-92782200D02*
X155216820Y-92782200D01*
X156636720Y-89697280D02*
X158658940Y-89697280D01*
X158658940Y-89697280D02*
X159440880Y-90479220D01*
X159440880Y-90479220D02*
X159440880Y-90529220D01*
X158335980Y-96166840D02*
X160106360Y-96166840D01*
X160106360Y-96166840D02*
X160342580Y-95930620D01*
X147873180Y-87583377D02*
X147873180Y-88183380D01*
X154191141Y-87493379D02*
X147963178Y-87493379D01*
X147963178Y-87493379D02*
X147873180Y-87583377D01*
X155827981Y-89130219D02*
X154191141Y-87493379D01*
X155827981Y-89938541D02*
X155827981Y-89130219D01*
X156636720Y-90747280D02*
X155827981Y-89938541D01*
X156636720Y-90797280D02*
X156636720Y-90747280D01*
X157116820Y-92132200D02*
X157116820Y-91277380D01*
X157116820Y-91277380D02*
X156636720Y-90797280D01*
X145186400Y-86997440D02*
X146354800Y-86997440D01*
X146354800Y-86997440D02*
X146367500Y-87010140D01*
X146367500Y-87010140D02*
X146367500Y-88177700D01*
X146367500Y-88177700D02*
X146373180Y-88183380D01*
D11*
X149338180Y-89648380D02*
X150946580Y-89648380D01*
D40*
X150946580Y-89648380D02*
X150947120Y-89647840D01*
D11*
X152101980Y-89647840D02*
X150947120Y-89647840D01*
D40*
X151597360Y-94198340D02*
X151597360Y-95506780D01*
X151597360Y-95506780D02*
X151599900Y-95509320D01*
X152803860Y-95508980D02*
X151600240Y-95508980D01*
X151600240Y-95508980D02*
X151599900Y-95509320D01*
X152803860Y-95508980D02*
X153613600Y-95508980D01*
X153613600Y-95508980D02*
X153812240Y-95310340D01*
X150332440Y-92644620D02*
X150332440Y-93094620D01*
X149816770Y-90648380D02*
X150332440Y-91164050D01*
X150332440Y-91164050D02*
X150332440Y-92644620D01*
X149338180Y-90648380D02*
X149816770Y-90648380D01*
X151597360Y-93098340D02*
X150336160Y-93098340D01*
X150336160Y-93098340D02*
X150332440Y-93094620D01*
X151599900Y-96409320D02*
X152758140Y-96409320D01*
X152758140Y-96409320D02*
X152770840Y-96396620D01*
X152778460Y-97601760D02*
X152778460Y-96404240D01*
X152778460Y-96404240D02*
X152770840Y-96396620D01*
X152803860Y-94408980D02*
X153810880Y-94408980D01*
X153810880Y-94408980D02*
X153812240Y-94410340D01*
X152803860Y-93331260D02*
X152803860Y-94408980D01*
D11*
X155202980Y-89640220D02*
X155202980Y-92118360D01*
D40*
X155202980Y-92118360D02*
X155216820Y-92132200D01*
D11*
X152554840Y-90644980D02*
X150855680Y-90644980D01*
X149953180Y-90148380D02*
X150359080Y-90148380D01*
X150359080Y-90148380D02*
X150855680Y-90644980D01*
X153001980Y-89647840D02*
X153001980Y-90197840D01*
X153001980Y-90197840D02*
X152554840Y-90644980D01*
X149953180Y-90148380D02*
X149338180Y-90148380D01*
D40*
X153001980Y-89647840D02*
X153001980Y-89747840D01*
D11*
X153001980Y-89647840D02*
X154095360Y-89647840D01*
D40*
X154095360Y-89647840D02*
X154102980Y-89640220D01*
X157116820Y-93432200D02*
X157116820Y-93757600D01*
X157116820Y-93757600D02*
X157667960Y-94308740D01*
X157667960Y-94308740D02*
X157667960Y-94398820D01*
X157667960Y-94398820D02*
X158335980Y-95066840D01*
X148014567Y-86805580D02*
X155577540Y-86805580D01*
X155577540Y-86805580D02*
X157667960Y-88896000D01*
X147373180Y-88183380D02*
X147373180Y-87446967D01*
X147373180Y-87446967D02*
X148014567Y-86805580D01*
X153670840Y-96396620D02*
X154763560Y-96396620D01*
X154763560Y-96396620D02*
X155219400Y-95940780D01*
X155219400Y-94840780D02*
X155219400Y-93434780D01*
X155219400Y-93434780D02*
X155216820Y-93432200D01*
X131828050Y-82688490D02*
X131191948Y-82688490D01*
X132247722Y-82268818D02*
X131828050Y-82688490D01*
X132247722Y-81285156D02*
X132247722Y-82268818D01*
X131191948Y-82688490D02*
X130244382Y-83636056D01*
X130244382Y-83636056D02*
X130244382Y-85279296D01*
X130244382Y-85279296D02*
X130249602Y-85284516D01*
X130207962Y-81535476D02*
X131000036Y-81535476D01*
X131994382Y-83636056D02*
X131884413Y-83526087D01*
X132744382Y-83636056D02*
X131994382Y-83636056D01*
X131884413Y-83526087D02*
X131884413Y-83506430D01*
X131000036Y-81535476D02*
X131228050Y-81763490D01*
X131228050Y-81763490D02*
X131528049Y-82063489D01*
X132744382Y-83636056D02*
X132744382Y-81288496D01*
X132744382Y-81288496D02*
X132747722Y-81285156D01*
X129689598Y-89029978D02*
X129388508Y-89029978D01*
X135031480Y-94421860D02*
X135031480Y-94371860D01*
X135031480Y-94371860D02*
X129689598Y-89029978D01*
X130997722Y-80135156D02*
X130267801Y-80865077D01*
X131597722Y-80135156D02*
X130997722Y-80135156D01*
X130267801Y-80865077D02*
X128614252Y-80865077D01*
X128614252Y-80865077D02*
X128189988Y-80865077D01*
X135031480Y-94421860D02*
X136101580Y-94421860D01*
X136101580Y-94421860D02*
X136110560Y-94412880D01*
X127554331Y-79684145D02*
X129588572Y-79684145D01*
X129588572Y-79684145D02*
X129704374Y-79799947D01*
X131597722Y-79635156D02*
X129869165Y-79635156D01*
X129869165Y-79635156D02*
X129704374Y-79799947D01*
X144543168Y-90898392D02*
X144543168Y-91004586D01*
X144793180Y-90648380D02*
X144543168Y-90898392D01*
X145408180Y-90648380D02*
X144793180Y-90648380D01*
X143428720Y-91937770D02*
X143428720Y-93366400D01*
X144515482Y-90148380D02*
X143427097Y-91236765D01*
X145408180Y-90148380D02*
X144515482Y-90148380D01*
X143427097Y-91936147D02*
X143428720Y-91937770D01*
X143427097Y-91236765D02*
X143427097Y-91936147D01*
X131134855Y-79135156D02*
X131034876Y-79035177D01*
X131597722Y-79135156D02*
X131134855Y-79135156D01*
X130220220Y-79035177D02*
X130195179Y-79010136D01*
X131034876Y-79035177D02*
X130220220Y-79035177D01*
X137283844Y-78635156D02*
X137288458Y-78639770D01*
X136397722Y-78635156D02*
X137283844Y-78635156D01*
X137196022Y-79455704D02*
X138224555Y-79455704D01*
X138224555Y-79455704D02*
X138524554Y-79155705D01*
X136875474Y-79135156D02*
X137196022Y-79455704D01*
X136397722Y-79135156D02*
X136875474Y-79135156D01*
X131597722Y-81244109D02*
X131622710Y-81269097D01*
X131597722Y-80635156D02*
X131597722Y-81244109D01*
X140195300Y-73935400D02*
X135173720Y-73935400D01*
X135173720Y-73935400D02*
X135122920Y-73884600D01*
X127750422Y-82895216D02*
X127750422Y-82445216D01*
X127750422Y-84556749D02*
X127750422Y-82895216D01*
X130867933Y-87674260D02*
X127750422Y-84556749D01*
X131213860Y-87674260D02*
X130867933Y-87674260D01*
X130997722Y-78135156D02*
X131597722Y-78135156D01*
X130881612Y-78135156D02*
X130997722Y-78135156D01*
X130181747Y-77935124D02*
X130681580Y-77935124D01*
X126929311Y-79220475D02*
X128615419Y-77534367D01*
X126929311Y-84638311D02*
X126929311Y-79220475D01*
X129115820Y-87674260D02*
X129115820Y-86824820D01*
X129780990Y-77534367D02*
X130181747Y-77935124D01*
X129115820Y-86824820D02*
X126929311Y-84638311D01*
X128615419Y-77534367D02*
X129780990Y-77534367D01*
X130681580Y-77935124D02*
X130881612Y-78135156D01*
X150332440Y-93994620D02*
X150332440Y-95506780D01*
X150332440Y-95506780D02*
X150334980Y-95509320D01*
X140240782Y-84456896D02*
X140790782Y-84456896D01*
X136414362Y-84447156D02*
X136652048Y-84684842D01*
X140012836Y-84684842D02*
X140240782Y-84456896D01*
X136652048Y-84684842D02*
X140012836Y-84684842D01*
X140790782Y-84456896D02*
X142007136Y-84456896D01*
X142007136Y-84456896D02*
X142102840Y-84552600D01*
X139419602Y-82928338D02*
X139423140Y-82931876D01*
X139419602Y-82119676D02*
X139419602Y-82928338D01*
X139409022Y-80809036D02*
X139409022Y-82109096D01*
X139409022Y-82109096D02*
X139419602Y-82119676D01*
X137863580Y-82812826D02*
X137744530Y-82931876D01*
X137863580Y-80922940D02*
X137863580Y-82812826D01*
X138153140Y-75210480D02*
X137853141Y-74910481D01*
X137853141Y-74910481D02*
X136222397Y-74910481D01*
X136222397Y-74910481D02*
X135247722Y-75885156D01*
X135247722Y-75885156D02*
X135247722Y-76485156D01*
X140757762Y-79462836D02*
X139434422Y-79462836D01*
X139434422Y-79462836D02*
X139409022Y-79488236D01*
X136397722Y-80135156D02*
X137363542Y-80135156D01*
X137363542Y-80135156D02*
X137377022Y-80148636D01*
X147873180Y-92113380D02*
X147873180Y-94815740D01*
X147873180Y-94815740D02*
X147876260Y-94818820D01*
X147373180Y-92113380D02*
X147373180Y-93646900D01*
X147373180Y-93646900D02*
X146201260Y-94818820D01*
X146201260Y-94818820D02*
X146126260Y-94818820D01*
X136414362Y-83547156D02*
X136414362Y-80651796D01*
X136414362Y-80651796D02*
X136397722Y-80635156D01*
X133747362Y-75361156D02*
X133747362Y-76484796D01*
X133747362Y-76484796D02*
X133747722Y-76485156D01*
X144476362Y-91636146D02*
X144052098Y-91636146D01*
X145408180Y-91548380D02*
X145320414Y-91636146D01*
X145408180Y-91148380D02*
X145408180Y-91548380D01*
X145320414Y-91636146D02*
X144476362Y-91636146D01*
X135343900Y-82266600D02*
X135247722Y-82170422D01*
X135247722Y-82170422D02*
X135247722Y-81285156D01*
X145520100Y-92113380D02*
X145474954Y-92158526D01*
X146373180Y-92113380D02*
X145520100Y-92113380D01*
X145474954Y-92158526D02*
X145174955Y-92458525D01*
X136397722Y-78135156D02*
X136892629Y-78135156D01*
X136892629Y-78135156D02*
X137013017Y-78014768D01*
X137013017Y-78014768D02*
X138797556Y-78014768D01*
X138797556Y-78014768D02*
X139181760Y-78398972D01*
X139181760Y-78398972D02*
X139481759Y-78698971D01*
X130472030Y-77135156D02*
X130412036Y-77075162D01*
X131597722Y-77135156D02*
X130472030Y-77135156D01*
X146873180Y-92113380D02*
X146873180Y-92804840D01*
X146873180Y-92804840D02*
X146311620Y-93366400D01*
X129661295Y-78159369D02*
X129237031Y-78159369D01*
X129887061Y-78385135D02*
X129661295Y-78159369D01*
X131547732Y-78585166D02*
X130695212Y-78585166D01*
X130695212Y-78585166D02*
X130495180Y-78385135D01*
X131597722Y-78635156D02*
X131547732Y-78585166D01*
X130495180Y-78385135D02*
X129887061Y-78385135D01*
X148373180Y-92113380D02*
X148373180Y-93098780D01*
X148373180Y-93098780D02*
X148633180Y-93358780D01*
D42*
G36*
X154642980Y-91575404D02*
X154582565Y-91614280D01*
X154483241Y-91759645D01*
X154448298Y-91932200D01*
X154448298Y-92332200D01*
X154478630Y-92493401D01*
X154573900Y-92641455D01*
X154719265Y-92740779D01*
X154891820Y-92775722D01*
X155541820Y-92775722D01*
X155703021Y-92745390D01*
X155851075Y-92650120D01*
X155950399Y-92504755D01*
X155985342Y-92332200D01*
X155985342Y-91932200D01*
X155955010Y-91770999D01*
X155859740Y-91622945D01*
X155762980Y-91556831D01*
X155762980Y-90665500D01*
X155943198Y-90845718D01*
X155943198Y-91097280D01*
X155973530Y-91258481D01*
X156068800Y-91406535D01*
X156214165Y-91505859D01*
X156386720Y-91540802D01*
X156556820Y-91540802D01*
X156556820Y-91566498D01*
X156482565Y-91614280D01*
X156383241Y-91759645D01*
X156348298Y-91932200D01*
X156348298Y-92332200D01*
X156372682Y-92461789D01*
X156348298Y-92582200D01*
X156348298Y-92982200D01*
X156372682Y-93111789D01*
X156348298Y-93232200D01*
X156348298Y-93632200D01*
X156378630Y-93793401D01*
X156473900Y-93941455D01*
X156619265Y-94040779D01*
X156649569Y-94046916D01*
X156720840Y-94153580D01*
X156932909Y-94365649D01*
X156932832Y-94454299D01*
X157044494Y-94724540D01*
X157251072Y-94931480D01*
X157520562Y-95043382D01*
X157642458Y-95165278D01*
X157642458Y-95366840D01*
X157672790Y-95528041D01*
X157768060Y-95676095D01*
X157913425Y-95775419D01*
X158085980Y-95810362D01*
X158585980Y-95810362D01*
X158747181Y-95780030D01*
X158895235Y-95684760D01*
X158994559Y-95539395D01*
X159029502Y-95366840D01*
X159029502Y-94766840D01*
X158999170Y-94605639D01*
X158903900Y-94457585D01*
X158758535Y-94358261D01*
X158585980Y-94323318D01*
X158402948Y-94323318D01*
X158403088Y-94163181D01*
X158291426Y-93892940D01*
X158084848Y-93686000D01*
X157885342Y-93603158D01*
X157885342Y-93428710D01*
X158042240Y-93460482D01*
X158642240Y-93460482D01*
X158803441Y-93430150D01*
X158810180Y-93425814D01*
X158793978Y-93505820D01*
X158793978Y-94105820D01*
X158824310Y-94267021D01*
X158919580Y-94415075D01*
X159064945Y-94514399D01*
X159237500Y-94549342D01*
X159637500Y-94549342D01*
X159649058Y-94547167D01*
X159649058Y-95130620D01*
X159679390Y-95291821D01*
X159774660Y-95439875D01*
X159920025Y-95539199D01*
X160092580Y-95574142D01*
X160592580Y-95574142D01*
X160753781Y-95543810D01*
X160901835Y-95448540D01*
X161001159Y-95303175D01*
X161036102Y-95130620D01*
X161036102Y-94530620D01*
X161005770Y-94369419D01*
X160946344Y-94277068D01*
X160981022Y-94105820D01*
X160981022Y-93505820D01*
X160964938Y-93420342D01*
X161031200Y-93354080D01*
X161977666Y-93354080D01*
X161934002Y-100472440D01*
X145033943Y-100472440D01*
X145032864Y-99615442D01*
X145772960Y-99615442D01*
X145934161Y-99585110D01*
X146082215Y-99489840D01*
X146181539Y-99344475D01*
X146216482Y-99171920D01*
X146216482Y-98421920D01*
X146189992Y-98281140D01*
X147538265Y-98281140D01*
X147569960Y-98330395D01*
X147715325Y-98429719D01*
X147887880Y-98464662D01*
X148387880Y-98464662D01*
X148549081Y-98434330D01*
X148697135Y-98339060D01*
X148701182Y-98333136D01*
X148840545Y-98428359D01*
X149013100Y-98463302D01*
X149513100Y-98463302D01*
X149674301Y-98432970D01*
X149796066Y-98354616D01*
X149902265Y-98427179D01*
X150074820Y-98462122D01*
X150574820Y-98462122D01*
X150736021Y-98431790D01*
X150884075Y-98336520D01*
X150983399Y-98191155D01*
X151018342Y-98018600D01*
X151018342Y-97418600D01*
X150988010Y-97257399D01*
X150892740Y-97109345D01*
X150884820Y-97103933D01*
X150884820Y-96965472D01*
X150944235Y-96927240D01*
X150966545Y-96894588D01*
X150981980Y-96918575D01*
X151127345Y-97017899D01*
X151299900Y-97052842D01*
X151899900Y-97052842D01*
X152061101Y-97022510D01*
X152143761Y-96969320D01*
X152218460Y-96969320D01*
X152218460Y-96984930D01*
X152119881Y-97129205D01*
X152084938Y-97301760D01*
X152084938Y-97901760D01*
X152115270Y-98062961D01*
X152210540Y-98211015D01*
X152355905Y-98310339D01*
X152528460Y-98345282D01*
X153028460Y-98345282D01*
X153189661Y-98314950D01*
X153337715Y-98219680D01*
X153437039Y-98074315D01*
X153471982Y-97901760D01*
X153471982Y-97301760D01*
X153441650Y-97140559D01*
X153436968Y-97133283D01*
X153470840Y-97140142D01*
X153870840Y-97140142D01*
X154032041Y-97109810D01*
X154180095Y-97014540D01*
X154219670Y-96956620D01*
X154763560Y-96956620D01*
X154977863Y-96913993D01*
X155159540Y-96792600D01*
X155267838Y-96684302D01*
X155469400Y-96684302D01*
X155630601Y-96653970D01*
X155778655Y-96558700D01*
X155877979Y-96413335D01*
X155912922Y-96240780D01*
X155912922Y-95640780D01*
X155882590Y-95479579D01*
X155825262Y-95390489D01*
X155877979Y-95313335D01*
X155912922Y-95140780D01*
X155912922Y-94540780D01*
X155882590Y-94379579D01*
X155787320Y-94231525D01*
X155779400Y-94226113D01*
X155779400Y-93996242D01*
X155851075Y-93950120D01*
X155950399Y-93804755D01*
X155985342Y-93632200D01*
X155985342Y-93232200D01*
X155955010Y-93070999D01*
X155859740Y-92922945D01*
X155714375Y-92823621D01*
X155541820Y-92788678D01*
X154891820Y-92788678D01*
X154730619Y-92819010D01*
X154582565Y-92914280D01*
X154483241Y-93059645D01*
X154448298Y-93232200D01*
X154448298Y-93632200D01*
X154478630Y-93793401D01*
X154573900Y-93941455D01*
X154659400Y-93999875D01*
X154659400Y-94223950D01*
X154560821Y-94368225D01*
X154555762Y-94393207D01*
X154555762Y-94210340D01*
X154525430Y-94049139D01*
X154430160Y-93901085D01*
X154284795Y-93801761D01*
X154112240Y-93766818D01*
X153512240Y-93766818D01*
X153463069Y-93776070D01*
X153512439Y-93703815D01*
X153547382Y-93531260D01*
X153547382Y-93131260D01*
X153517050Y-92970059D01*
X153421780Y-92822005D01*
X153276415Y-92722681D01*
X153103860Y-92687738D01*
X152503860Y-92687738D01*
X152342659Y-92718070D01*
X152283001Y-92756459D01*
X152260550Y-92637139D01*
X152165280Y-92489085D01*
X152019915Y-92389761D01*
X151847360Y-92354818D01*
X151347360Y-92354818D01*
X151186159Y-92385150D01*
X151038105Y-92480420D01*
X150998530Y-92538340D01*
X150892440Y-92538340D01*
X150892440Y-91279980D01*
X152554840Y-91279980D01*
X152797844Y-91231644D01*
X153003853Y-91093993D01*
X153003854Y-91093992D01*
X153450990Y-90646855D01*
X153450993Y-90646853D01*
X153571635Y-90466300D01*
X153588644Y-90440845D01*
X153618517Y-90290662D01*
X153630425Y-90298799D01*
X153802980Y-90333742D01*
X154402980Y-90333742D01*
X154564181Y-90303410D01*
X154642980Y-90252704D01*
X154642980Y-91575404D01*
X154642980Y-91575404D01*
G37*
X154642980Y-91575404D02*
X154582565Y-91614280D01*
X154483241Y-91759645D01*
X154448298Y-91932200D01*
X154448298Y-92332200D01*
X154478630Y-92493401D01*
X154573900Y-92641455D01*
X154719265Y-92740779D01*
X154891820Y-92775722D01*
X155541820Y-92775722D01*
X155703021Y-92745390D01*
X155851075Y-92650120D01*
X155950399Y-92504755D01*
X155985342Y-92332200D01*
X155985342Y-91932200D01*
X155955010Y-91770999D01*
X155859740Y-91622945D01*
X155762980Y-91556831D01*
X155762980Y-90665500D01*
X155943198Y-90845718D01*
X155943198Y-91097280D01*
X155973530Y-91258481D01*
X156068800Y-91406535D01*
X156214165Y-91505859D01*
X156386720Y-91540802D01*
X156556820Y-91540802D01*
X156556820Y-91566498D01*
X156482565Y-91614280D01*
X156383241Y-91759645D01*
X156348298Y-91932200D01*
X156348298Y-92332200D01*
X156372682Y-92461789D01*
X156348298Y-92582200D01*
X156348298Y-92982200D01*
X156372682Y-93111789D01*
X156348298Y-93232200D01*
X156348298Y-93632200D01*
X156378630Y-93793401D01*
X156473900Y-93941455D01*
X156619265Y-94040779D01*
X156649569Y-94046916D01*
X156720840Y-94153580D01*
X156932909Y-94365649D01*
X156932832Y-94454299D01*
X157044494Y-94724540D01*
X157251072Y-94931480D01*
X157520562Y-95043382D01*
X157642458Y-95165278D01*
X157642458Y-95366840D01*
X157672790Y-95528041D01*
X157768060Y-95676095D01*
X157913425Y-95775419D01*
X158085980Y-95810362D01*
X158585980Y-95810362D01*
X158747181Y-95780030D01*
X158895235Y-95684760D01*
X158994559Y-95539395D01*
X159029502Y-95366840D01*
X159029502Y-94766840D01*
X158999170Y-94605639D01*
X158903900Y-94457585D01*
X158758535Y-94358261D01*
X158585980Y-94323318D01*
X158402948Y-94323318D01*
X158403088Y-94163181D01*
X158291426Y-93892940D01*
X158084848Y-93686000D01*
X157885342Y-93603158D01*
X157885342Y-93428710D01*
X158042240Y-93460482D01*
X158642240Y-93460482D01*
X158803441Y-93430150D01*
X158810180Y-93425814D01*
X158793978Y-93505820D01*
X158793978Y-94105820D01*
X158824310Y-94267021D01*
X158919580Y-94415075D01*
X159064945Y-94514399D01*
X159237500Y-94549342D01*
X159637500Y-94549342D01*
X159649058Y-94547167D01*
X159649058Y-95130620D01*
X159679390Y-95291821D01*
X159774660Y-95439875D01*
X159920025Y-95539199D01*
X160092580Y-95574142D01*
X160592580Y-95574142D01*
X160753781Y-95543810D01*
X160901835Y-95448540D01*
X161001159Y-95303175D01*
X161036102Y-95130620D01*
X161036102Y-94530620D01*
X161005770Y-94369419D01*
X160946344Y-94277068D01*
X160981022Y-94105820D01*
X160981022Y-93505820D01*
X160964938Y-93420342D01*
X161031200Y-93354080D01*
X161977666Y-93354080D01*
X161934002Y-100472440D01*
X145033943Y-100472440D01*
X145032864Y-99615442D01*
X145772960Y-99615442D01*
X145934161Y-99585110D01*
X146082215Y-99489840D01*
X146181539Y-99344475D01*
X146216482Y-99171920D01*
X146216482Y-98421920D01*
X146189992Y-98281140D01*
X147538265Y-98281140D01*
X147569960Y-98330395D01*
X147715325Y-98429719D01*
X147887880Y-98464662D01*
X148387880Y-98464662D01*
X148549081Y-98434330D01*
X148697135Y-98339060D01*
X148701182Y-98333136D01*
X148840545Y-98428359D01*
X149013100Y-98463302D01*
X149513100Y-98463302D01*
X149674301Y-98432970D01*
X149796066Y-98354616D01*
X149902265Y-98427179D01*
X150074820Y-98462122D01*
X150574820Y-98462122D01*
X150736021Y-98431790D01*
X150884075Y-98336520D01*
X150983399Y-98191155D01*
X151018342Y-98018600D01*
X151018342Y-97418600D01*
X150988010Y-97257399D01*
X150892740Y-97109345D01*
X150884820Y-97103933D01*
X150884820Y-96965472D01*
X150944235Y-96927240D01*
X150966545Y-96894588D01*
X150981980Y-96918575D01*
X151127345Y-97017899D01*
X151299900Y-97052842D01*
X151899900Y-97052842D01*
X152061101Y-97022510D01*
X152143761Y-96969320D01*
X152218460Y-96969320D01*
X152218460Y-96984930D01*
X152119881Y-97129205D01*
X152084938Y-97301760D01*
X152084938Y-97901760D01*
X152115270Y-98062961D01*
X152210540Y-98211015D01*
X152355905Y-98310339D01*
X152528460Y-98345282D01*
X153028460Y-98345282D01*
X153189661Y-98314950D01*
X153337715Y-98219680D01*
X153437039Y-98074315D01*
X153471982Y-97901760D01*
X153471982Y-97301760D01*
X153441650Y-97140559D01*
X153436968Y-97133283D01*
X153470840Y-97140142D01*
X153870840Y-97140142D01*
X154032041Y-97109810D01*
X154180095Y-97014540D01*
X154219670Y-96956620D01*
X154763560Y-96956620D01*
X154977863Y-96913993D01*
X155159540Y-96792600D01*
X155267838Y-96684302D01*
X155469400Y-96684302D01*
X155630601Y-96653970D01*
X155778655Y-96558700D01*
X155877979Y-96413335D01*
X155912922Y-96240780D01*
X155912922Y-95640780D01*
X155882590Y-95479579D01*
X155825262Y-95390489D01*
X155877979Y-95313335D01*
X155912922Y-95140780D01*
X155912922Y-94540780D01*
X155882590Y-94379579D01*
X155787320Y-94231525D01*
X155779400Y-94226113D01*
X155779400Y-93996242D01*
X155851075Y-93950120D01*
X155950399Y-93804755D01*
X155985342Y-93632200D01*
X155985342Y-93232200D01*
X155955010Y-93070999D01*
X155859740Y-92922945D01*
X155714375Y-92823621D01*
X155541820Y-92788678D01*
X154891820Y-92788678D01*
X154730619Y-92819010D01*
X154582565Y-92914280D01*
X154483241Y-93059645D01*
X154448298Y-93232200D01*
X154448298Y-93632200D01*
X154478630Y-93793401D01*
X154573900Y-93941455D01*
X154659400Y-93999875D01*
X154659400Y-94223950D01*
X154560821Y-94368225D01*
X154555762Y-94393207D01*
X154555762Y-94210340D01*
X154525430Y-94049139D01*
X154430160Y-93901085D01*
X154284795Y-93801761D01*
X154112240Y-93766818D01*
X153512240Y-93766818D01*
X153463069Y-93776070D01*
X153512439Y-93703815D01*
X153547382Y-93531260D01*
X153547382Y-93131260D01*
X153517050Y-92970059D01*
X153421780Y-92822005D01*
X153276415Y-92722681D01*
X153103860Y-92687738D01*
X152503860Y-92687738D01*
X152342659Y-92718070D01*
X152283001Y-92756459D01*
X152260550Y-92637139D01*
X152165280Y-92489085D01*
X152019915Y-92389761D01*
X151847360Y-92354818D01*
X151347360Y-92354818D01*
X151186159Y-92385150D01*
X151038105Y-92480420D01*
X150998530Y-92538340D01*
X150892440Y-92538340D01*
X150892440Y-91279980D01*
X152554840Y-91279980D01*
X152797844Y-91231644D01*
X153003853Y-91093993D01*
X153003854Y-91093992D01*
X153450990Y-90646855D01*
X153450993Y-90646853D01*
X153571635Y-90466300D01*
X153588644Y-90440845D01*
X153618517Y-90290662D01*
X153630425Y-90298799D01*
X153802980Y-90333742D01*
X154402980Y-90333742D01*
X154564181Y-90303410D01*
X154642980Y-90252704D01*
X154642980Y-91575404D01*
G36*
X150515320Y-82171335D02*
X150525246Y-82220761D01*
X150553620Y-82262432D01*
X150595970Y-82289780D01*
X150642532Y-82298540D01*
X158209807Y-82285924D01*
X162023721Y-85845908D01*
X161984536Y-92234080D01*
X160799240Y-92234080D01*
X160584937Y-92276707D01*
X160403260Y-92398100D01*
X160185762Y-92615598D01*
X160185762Y-92516960D01*
X160155430Y-92355759D01*
X160060160Y-92207705D01*
X160037608Y-92192296D01*
X160099459Y-92101775D01*
X160134402Y-91929220D01*
X160134402Y-91329220D01*
X160104070Y-91168019D01*
X160008800Y-91019965D01*
X159863435Y-90920641D01*
X159690880Y-90885698D01*
X159190880Y-90885698D01*
X159029679Y-90916030D01*
X158881625Y-91011300D01*
X158782301Y-91156665D01*
X158747358Y-91329220D01*
X158747358Y-91929220D01*
X158777690Y-92090421D01*
X158785419Y-92102432D01*
X158642240Y-92073438D01*
X158042240Y-92073438D01*
X157885342Y-92102960D01*
X157885342Y-91932200D01*
X157855010Y-91770999D01*
X157759740Y-91622945D01*
X157676820Y-91566288D01*
X157676820Y-91277380D01*
X157634193Y-91063077D01*
X157512800Y-90881400D01*
X157330242Y-90698842D01*
X157330242Y-90497280D01*
X157299910Y-90336079D01*
X157204640Y-90188025D01*
X157059275Y-90088701D01*
X156886720Y-90053758D01*
X156735158Y-90053758D01*
X156387981Y-89706581D01*
X156387981Y-89130219D01*
X156345354Y-88915916D01*
X156223961Y-88734239D01*
X154855302Y-87365580D01*
X155345580Y-87365580D01*
X156932909Y-88952909D01*
X156932832Y-89041559D01*
X157044494Y-89311800D01*
X157251072Y-89518740D01*
X157521118Y-89630873D01*
X157813519Y-89631128D01*
X158083760Y-89519466D01*
X158290700Y-89312888D01*
X158402833Y-89042842D01*
X158403088Y-88750441D01*
X158291426Y-88480200D01*
X158084848Y-88273260D01*
X157814802Y-88161127D01*
X157724969Y-88161049D01*
X155973520Y-86409600D01*
X155791843Y-86288207D01*
X155577540Y-86245580D01*
X148014567Y-86245580D01*
X147800264Y-86288207D01*
X147618587Y-86409600D01*
X147061022Y-86967165D01*
X147061022Y-86710140D01*
X147030690Y-86548939D01*
X146935420Y-86400885D01*
X146790055Y-86301561D01*
X146617500Y-86266618D01*
X146117500Y-86266618D01*
X145956299Y-86296950D01*
X145808245Y-86392220D01*
X145781811Y-86430907D01*
X145754320Y-86388185D01*
X145608955Y-86288861D01*
X145436400Y-86253918D01*
X145016035Y-86253918D01*
X145004391Y-77008167D01*
X146669500Y-75343058D01*
X146790893Y-75161381D01*
X146833520Y-74947078D01*
X146833520Y-74765438D01*
X146896260Y-74702808D01*
X147008393Y-74432762D01*
X147008648Y-74140361D01*
X146896986Y-73870120D01*
X146690408Y-73663180D01*
X146420362Y-73551047D01*
X146127961Y-73550792D01*
X145857720Y-73662454D01*
X145650780Y-73869032D01*
X145538647Y-74139078D01*
X145538392Y-74431479D01*
X145650054Y-74701720D01*
X145688452Y-74740186D01*
X145002398Y-75426240D01*
X144997381Y-71442440D01*
X150532641Y-71442440D01*
X150515320Y-82171335D01*
X150515320Y-82171335D01*
G37*
X150515320Y-82171335D02*
X150525246Y-82220761D01*
X150553620Y-82262432D01*
X150595970Y-82289780D01*
X150642532Y-82298540D01*
X158209807Y-82285924D01*
X162023721Y-85845908D01*
X161984536Y-92234080D01*
X160799240Y-92234080D01*
X160584937Y-92276707D01*
X160403260Y-92398100D01*
X160185762Y-92615598D01*
X160185762Y-92516960D01*
X160155430Y-92355759D01*
X160060160Y-92207705D01*
X160037608Y-92192296D01*
X160099459Y-92101775D01*
X160134402Y-91929220D01*
X160134402Y-91329220D01*
X160104070Y-91168019D01*
X160008800Y-91019965D01*
X159863435Y-90920641D01*
X159690880Y-90885698D01*
X159190880Y-90885698D01*
X159029679Y-90916030D01*
X158881625Y-91011300D01*
X158782301Y-91156665D01*
X158747358Y-91329220D01*
X158747358Y-91929220D01*
X158777690Y-92090421D01*
X158785419Y-92102432D01*
X158642240Y-92073438D01*
X158042240Y-92073438D01*
X157885342Y-92102960D01*
X157885342Y-91932200D01*
X157855010Y-91770999D01*
X157759740Y-91622945D01*
X157676820Y-91566288D01*
X157676820Y-91277380D01*
X157634193Y-91063077D01*
X157512800Y-90881400D01*
X157330242Y-90698842D01*
X157330242Y-90497280D01*
X157299910Y-90336079D01*
X157204640Y-90188025D01*
X157059275Y-90088701D01*
X156886720Y-90053758D01*
X156735158Y-90053758D01*
X156387981Y-89706581D01*
X156387981Y-89130219D01*
X156345354Y-88915916D01*
X156223961Y-88734239D01*
X154855302Y-87365580D01*
X155345580Y-87365580D01*
X156932909Y-88952909D01*
X156932832Y-89041559D01*
X157044494Y-89311800D01*
X157251072Y-89518740D01*
X157521118Y-89630873D01*
X157813519Y-89631128D01*
X158083760Y-89519466D01*
X158290700Y-89312888D01*
X158402833Y-89042842D01*
X158403088Y-88750441D01*
X158291426Y-88480200D01*
X158084848Y-88273260D01*
X157814802Y-88161127D01*
X157724969Y-88161049D01*
X155973520Y-86409600D01*
X155791843Y-86288207D01*
X155577540Y-86245580D01*
X148014567Y-86245580D01*
X147800264Y-86288207D01*
X147618587Y-86409600D01*
X147061022Y-86967165D01*
X147061022Y-86710140D01*
X147030690Y-86548939D01*
X146935420Y-86400885D01*
X146790055Y-86301561D01*
X146617500Y-86266618D01*
X146117500Y-86266618D01*
X145956299Y-86296950D01*
X145808245Y-86392220D01*
X145781811Y-86430907D01*
X145754320Y-86388185D01*
X145608955Y-86288861D01*
X145436400Y-86253918D01*
X145016035Y-86253918D01*
X145004391Y-77008167D01*
X146669500Y-75343058D01*
X146790893Y-75161381D01*
X146833520Y-74947078D01*
X146833520Y-74765438D01*
X146896260Y-74702808D01*
X147008393Y-74432762D01*
X147008648Y-74140361D01*
X146896986Y-73870120D01*
X146690408Y-73663180D01*
X146420362Y-73551047D01*
X146127961Y-73550792D01*
X145857720Y-73662454D01*
X145650780Y-73869032D01*
X145538647Y-74139078D01*
X145538392Y-74431479D01*
X145650054Y-74701720D01*
X145688452Y-74740186D01*
X145002398Y-75426240D01*
X144997381Y-71442440D01*
X150532641Y-71442440D01*
X150515320Y-82171335D01*
G36*
X154860494Y-88954692D02*
X154741779Y-88977030D01*
X154652689Y-89034358D01*
X154575535Y-88981641D01*
X154402980Y-88946698D01*
X153802980Y-88946698D01*
X153641779Y-88977030D01*
X153527578Y-89050516D01*
X153519900Y-89038585D01*
X153374535Y-88939261D01*
X153201980Y-88904318D01*
X152801980Y-88904318D01*
X152640779Y-88934650D01*
X152551689Y-88991978D01*
X152474535Y-88939261D01*
X152301980Y-88904318D01*
X151901980Y-88904318D01*
X151740779Y-88934650D01*
X151592725Y-89029920D01*
X151553150Y-89087840D01*
X151546735Y-89087840D01*
X151515040Y-89038585D01*
X151369675Y-88939261D01*
X151197120Y-88904318D01*
X150697120Y-88904318D01*
X150535919Y-88934650D01*
X150387865Y-89029920D01*
X150365003Y-89063380D01*
X150146702Y-89063380D01*
X150146702Y-88998380D01*
X150116370Y-88837179D01*
X150021100Y-88689125D01*
X149875735Y-88589801D01*
X149703180Y-88554858D01*
X148973180Y-88554858D01*
X148965082Y-88556382D01*
X148966702Y-88548380D01*
X148966702Y-88053379D01*
X153959181Y-88053379D01*
X154860494Y-88954692D01*
X154860494Y-88954692D01*
G37*
X154860494Y-88954692D02*
X154741779Y-88977030D01*
X154652689Y-89034358D01*
X154575535Y-88981641D01*
X154402980Y-88946698D01*
X153802980Y-88946698D01*
X153641779Y-88977030D01*
X153527578Y-89050516D01*
X153519900Y-89038585D01*
X153374535Y-88939261D01*
X153201980Y-88904318D01*
X152801980Y-88904318D01*
X152640779Y-88934650D01*
X152551689Y-88991978D01*
X152474535Y-88939261D01*
X152301980Y-88904318D01*
X151901980Y-88904318D01*
X151740779Y-88934650D01*
X151592725Y-89029920D01*
X151553150Y-89087840D01*
X151546735Y-89087840D01*
X151515040Y-89038585D01*
X151369675Y-88939261D01*
X151197120Y-88904318D01*
X150697120Y-88904318D01*
X150535919Y-88934650D01*
X150387865Y-89029920D01*
X150365003Y-89063380D01*
X150146702Y-89063380D01*
X150146702Y-88998380D01*
X150116370Y-88837179D01*
X150021100Y-88689125D01*
X149875735Y-88589801D01*
X149703180Y-88554858D01*
X148973180Y-88554858D01*
X148965082Y-88556382D01*
X148966702Y-88548380D01*
X148966702Y-88053379D01*
X153959181Y-88053379D01*
X154860494Y-88954692D01*
M02*
