G04 #@! TF.FileFunction,Other,Fab,Top*
%FSLAX46Y46*%
G04 Gerber Fmt 4.6, Leading zero omitted, Abs format (unit mm)*
G04 Created by KiCad (PCBNEW 4.0.2+dfsg1-stable) date ven 12 ott 2018 15:59:41 CEST*
%MOMM*%
G01*
G04 APERTURE LIST*
%ADD10C,0.100000*%
%ADD11C,0.200000*%
%ADD12C,0.150000*%
%ADD13C,0.030000*%
%ADD14C,0.090000*%
%ADD15C,0.075000*%
G04 APERTURE END LIST*
D10*
X150082440Y-93044620D02*
X150582440Y-93044620D01*
X150082440Y-94044620D02*
X150082440Y-93044620D01*
X150582440Y-94044620D02*
X150082440Y-94044620D01*
X150582440Y-93044620D02*
X150582440Y-94044620D01*
X153051980Y-89397840D02*
X153051980Y-89897840D01*
X152051980Y-89397840D02*
X153051980Y-89397840D01*
X152051980Y-89897840D02*
X152051980Y-89397840D01*
X153051980Y-89897840D02*
X152051980Y-89897840D01*
X160387500Y-93555820D02*
X160387500Y-94055820D01*
X159387500Y-93555820D02*
X160387500Y-93555820D01*
X159387500Y-94055820D02*
X159387500Y-93555820D01*
X160387500Y-94055820D02*
X159387500Y-94055820D01*
X153720840Y-96146620D02*
X153720840Y-96646620D01*
X152720840Y-96146620D02*
X153720840Y-96146620D01*
X152720840Y-96646620D02*
X152720840Y-96146620D01*
X153720840Y-96646620D02*
X152720840Y-96646620D01*
X151849900Y-96459320D02*
X151349900Y-96459320D01*
X151849900Y-95459320D02*
X151849900Y-96459320D01*
X151349900Y-95459320D02*
X151849900Y-95459320D01*
X151349900Y-96459320D02*
X151349900Y-95459320D01*
X154062240Y-95360340D02*
X153562240Y-95360340D01*
X154062240Y-94360340D02*
X154062240Y-95360340D01*
X153562240Y-94360340D02*
X154062240Y-94360340D01*
X153562240Y-95360340D02*
X153562240Y-94360340D01*
D11*
X143247760Y-94623200D02*
X141977760Y-95893200D01*
X141977760Y-95893200D02*
X140047760Y-95893200D01*
X140047760Y-95893200D02*
X140047760Y-89143200D01*
X140047760Y-89143200D02*
X143247760Y-89143200D01*
X143247760Y-89143200D02*
X143247760Y-94623200D01*
X143031340Y-96674100D02*
X144301340Y-97944100D01*
X144301340Y-97944100D02*
X144301340Y-99874100D01*
X144301340Y-99874100D02*
X140051340Y-99874100D01*
X140051340Y-99874100D02*
X140051340Y-96674100D01*
X140051340Y-96674100D02*
X143031340Y-96674100D01*
D10*
X148151260Y-96518820D02*
X145851260Y-96518820D01*
X145851260Y-96518820D02*
X145751260Y-96418820D01*
X145751260Y-96418820D02*
X145751260Y-94618820D01*
X145751260Y-94618820D02*
X145851260Y-94518820D01*
X145851260Y-94518820D02*
X148151260Y-94518820D01*
X148151260Y-94518820D02*
X148251260Y-94618820D01*
X148251260Y-94618820D02*
X148251260Y-96418820D01*
X148251260Y-96418820D02*
X148151260Y-96518820D01*
X148251260Y-95518820D02*
X147251260Y-94518820D01*
X129894382Y-82886056D02*
X129894382Y-84386056D01*
X133094382Y-82886056D02*
X133094382Y-84386056D01*
X129894382Y-82886056D02*
X133094382Y-82886056D01*
X129894382Y-84386056D02*
X133094382Y-84386056D01*
X156841820Y-91682200D02*
X155991820Y-91682200D01*
X155491820Y-92182200D02*
X155491820Y-93882200D01*
X156841820Y-91682200D02*
X156841820Y-93882200D01*
X156841820Y-93882200D02*
X155491820Y-93882200D01*
X155991820Y-91682200D02*
X155491820Y-92182200D01*
D12*
X158458162Y-91131947D02*
X158934353Y-91131947D01*
X158362924Y-91417661D02*
X158696257Y-90417661D01*
X159029591Y-91417661D01*
X159362924Y-90750994D02*
X159362924Y-91417661D01*
X159362924Y-90846232D02*
X159410543Y-90798613D01*
X159505781Y-90750994D01*
X159648639Y-90750994D01*
X159743877Y-90798613D01*
X159791496Y-90893851D01*
X159791496Y-91417661D01*
X160124829Y-90750994D02*
X160505781Y-90750994D01*
X160267686Y-90417661D02*
X160267686Y-91274804D01*
X160315305Y-91370042D01*
X160410543Y-91417661D01*
X160505781Y-91417661D01*
X161220068Y-91370042D02*
X161124830Y-91417661D01*
X160934353Y-91417661D01*
X160839115Y-91370042D01*
X160791496Y-91274804D01*
X160791496Y-90893851D01*
X160839115Y-90798613D01*
X160934353Y-90750994D01*
X161124830Y-90750994D01*
X161220068Y-90798613D01*
X161267687Y-90893851D01*
X161267687Y-90989090D01*
X160791496Y-91084328D01*
X161696258Y-90750994D02*
X161696258Y-91417661D01*
X161696258Y-90846232D02*
X161743877Y-90798613D01*
X161839115Y-90750994D01*
X161981973Y-90750994D01*
X162077211Y-90798613D01*
X162124830Y-90893851D01*
X162124830Y-91417661D01*
X162601020Y-90750994D02*
X162601020Y-91417661D01*
X162601020Y-90846232D02*
X162648639Y-90798613D01*
X162743877Y-90750994D01*
X162886735Y-90750994D01*
X162981973Y-90798613D01*
X163029592Y-90893851D01*
X163029592Y-91417661D01*
X163934354Y-91417661D02*
X163934354Y-90893851D01*
X163886735Y-90798613D01*
X163791497Y-90750994D01*
X163601020Y-90750994D01*
X163505782Y-90798613D01*
X163934354Y-91370042D02*
X163839116Y-91417661D01*
X163601020Y-91417661D01*
X163505782Y-91370042D01*
X163458163Y-91274804D01*
X163458163Y-91179566D01*
X163505782Y-91084328D01*
X163601020Y-91036709D01*
X163839116Y-91036709D01*
X163934354Y-90989090D01*
X165172449Y-91417661D02*
X165172449Y-90417661D01*
X165553402Y-90417661D01*
X165648640Y-90465280D01*
X165696259Y-90512899D01*
X165743878Y-90608137D01*
X165743878Y-90750994D01*
X165696259Y-90846232D01*
X165648640Y-90893851D01*
X165553402Y-90941470D01*
X165172449Y-90941470D01*
X166743878Y-91322423D02*
X166696259Y-91370042D01*
X166553402Y-91417661D01*
X166458164Y-91417661D01*
X166315306Y-91370042D01*
X166220068Y-91274804D01*
X166172449Y-91179566D01*
X166124830Y-90989090D01*
X166124830Y-90846232D01*
X166172449Y-90655756D01*
X166220068Y-90560518D01*
X166315306Y-90465280D01*
X166458164Y-90417661D01*
X166553402Y-90417661D01*
X166696259Y-90465280D01*
X166743878Y-90512899D01*
X167505783Y-90893851D02*
X167648640Y-90941470D01*
X167696259Y-90989090D01*
X167743878Y-91084328D01*
X167743878Y-91227185D01*
X167696259Y-91322423D01*
X167648640Y-91370042D01*
X167553402Y-91417661D01*
X167172449Y-91417661D01*
X167172449Y-90417661D01*
X167505783Y-90417661D01*
X167601021Y-90465280D01*
X167648640Y-90512899D01*
X167696259Y-90608137D01*
X167696259Y-90703375D01*
X167648640Y-90798613D01*
X167601021Y-90846232D01*
X167505783Y-90893851D01*
X167172449Y-90893851D01*
X158154145Y-90519341D02*
X157963668Y-90519341D01*
X157868430Y-90566960D01*
X157820811Y-90614579D01*
X157725573Y-90757436D01*
X157677954Y-90947912D01*
X157677954Y-91328865D01*
X157725573Y-91424103D01*
X157773192Y-91471722D01*
X157868430Y-91519341D01*
X158058907Y-91519341D01*
X158154145Y-91471722D01*
X158201764Y-91424103D01*
X158249383Y-91328865D01*
X158249383Y-91090770D01*
X158201764Y-90995531D01*
X158154145Y-90947912D01*
X158058907Y-90900293D01*
X157868430Y-90900293D01*
X157773192Y-90947912D01*
X157725573Y-90995531D01*
X157677954Y-91090770D01*
X158820811Y-90947912D02*
X158725573Y-90900293D01*
X158677954Y-90852674D01*
X158630335Y-90757436D01*
X158630335Y-90709817D01*
X158677954Y-90614579D01*
X158725573Y-90566960D01*
X158820811Y-90519341D01*
X159011288Y-90519341D01*
X159106526Y-90566960D01*
X159154145Y-90614579D01*
X159201764Y-90709817D01*
X159201764Y-90757436D01*
X159154145Y-90852674D01*
X159106526Y-90900293D01*
X159011288Y-90947912D01*
X158820811Y-90947912D01*
X158725573Y-90995531D01*
X158677954Y-91043150D01*
X158630335Y-91138389D01*
X158630335Y-91328865D01*
X158677954Y-91424103D01*
X158725573Y-91471722D01*
X158820811Y-91519341D01*
X159011288Y-91519341D01*
X159106526Y-91471722D01*
X159154145Y-91424103D01*
X159201764Y-91328865D01*
X159201764Y-91138389D01*
X159154145Y-91043150D01*
X159106526Y-90995531D01*
X159011288Y-90947912D01*
X159630335Y-90852674D02*
X159630335Y-91852674D01*
X159630335Y-90900293D02*
X159725573Y-90852674D01*
X159916050Y-90852674D01*
X160011288Y-90900293D01*
X160058907Y-90947912D01*
X160106526Y-91043150D01*
X160106526Y-91328865D01*
X160058907Y-91424103D01*
X160011288Y-91471722D01*
X159916050Y-91519341D01*
X159725573Y-91519341D01*
X159630335Y-91471722D01*
X144029854Y-87970395D02*
X144696521Y-87970395D01*
X143648902Y-88208491D02*
X144363188Y-88446586D01*
X144363188Y-87827538D01*
X144029854Y-87018014D02*
X144696521Y-87018014D01*
X144029854Y-87446586D02*
X144553664Y-87446586D01*
X144648902Y-87398967D01*
X144696521Y-87303729D01*
X144696521Y-87160871D01*
X144648902Y-87065633D01*
X144601283Y-87018014D01*
X143696521Y-86637062D02*
X143696521Y-85970395D01*
X144696521Y-86398967D01*
X133094345Y-85515837D02*
X132522916Y-85515837D01*
X132808630Y-85515837D02*
X132808630Y-84515837D01*
X132713392Y-84658694D01*
X132618154Y-84753932D01*
X132522916Y-84801551D01*
X133713392Y-84515837D02*
X133808631Y-84515837D01*
X133903869Y-84563456D01*
X133951488Y-84611075D01*
X133999107Y-84706313D01*
X134046726Y-84896789D01*
X134046726Y-85134885D01*
X133999107Y-85325361D01*
X133951488Y-85420599D01*
X133903869Y-85468218D01*
X133808631Y-85515837D01*
X133713392Y-85515837D01*
X133618154Y-85468218D01*
X133570535Y-85420599D01*
X133522916Y-85325361D01*
X133475297Y-85134885D01*
X133475297Y-84896789D01*
X133522916Y-84706313D01*
X133570535Y-84611075D01*
X133618154Y-84563456D01*
X133713392Y-84515837D01*
X134903869Y-84849170D02*
X134903869Y-85515837D01*
X134475297Y-84849170D02*
X134475297Y-85372980D01*
X134522916Y-85468218D01*
X134618154Y-85515837D01*
X134761012Y-85515837D01*
X134856250Y-85468218D01*
X134903869Y-85420599D01*
X158789101Y-90413946D02*
X158789101Y-90985375D01*
X158789101Y-90699661D02*
X157789101Y-90699661D01*
X157931958Y-90794899D01*
X158027196Y-90890137D01*
X158074815Y-90985375D01*
X158122434Y-89985375D02*
X159122434Y-89985375D01*
X158170053Y-89985375D02*
X158122434Y-89890137D01*
X158122434Y-89699660D01*
X158170053Y-89604422D01*
X158217672Y-89556803D01*
X158312910Y-89509184D01*
X158598625Y-89509184D01*
X158693863Y-89556803D01*
X158741482Y-89604422D01*
X158789101Y-89699660D01*
X158789101Y-89890137D01*
X158741482Y-89985375D01*
X147338781Y-86614106D02*
X147338781Y-87185535D01*
X147338781Y-86899821D02*
X146338781Y-86899821D01*
X146481638Y-86995059D01*
X146576876Y-87090297D01*
X146624495Y-87185535D01*
X146672114Y-85756963D02*
X147338781Y-85756963D01*
X146672114Y-86185535D02*
X147195924Y-86185535D01*
X147291162Y-86137916D01*
X147338781Y-86042678D01*
X147338781Y-85899820D01*
X147291162Y-85804582D01*
X147243543Y-85756963D01*
X144908674Y-100244539D02*
X144956293Y-100196920D01*
X145051531Y-100149301D01*
X145289627Y-100149301D01*
X145384865Y-100196920D01*
X145432484Y-100244539D01*
X145480103Y-100339777D01*
X145480103Y-100435015D01*
X145432484Y-100577872D01*
X144861055Y-101149301D01*
X145480103Y-101149301D01*
X146337246Y-100482634D02*
X146337246Y-101149301D01*
X145908674Y-100482634D02*
X145908674Y-101006444D01*
X145956293Y-101101682D01*
X146051531Y-101149301D01*
X146194389Y-101149301D01*
X146289627Y-101101682D01*
X146337246Y-101054063D01*
X146765817Y-100244539D02*
X146813436Y-100196920D01*
X146908674Y-100149301D01*
X147146770Y-100149301D01*
X147242008Y-100196920D01*
X147289627Y-100244539D01*
X147337246Y-100339777D01*
X147337246Y-100435015D01*
X147289627Y-100577872D01*
X146718198Y-101149301D01*
X147337246Y-101149301D01*
X148519881Y-87579187D02*
X148519881Y-88150616D01*
X148519881Y-87864902D02*
X147519881Y-87864902D01*
X147662738Y-87960140D01*
X147757976Y-88055378D01*
X147805595Y-88150616D01*
X147519881Y-86960140D02*
X147519881Y-86864901D01*
X147567500Y-86769663D01*
X147615119Y-86722044D01*
X147710357Y-86674425D01*
X147900833Y-86626806D01*
X148138929Y-86626806D01*
X148329405Y-86674425D01*
X148424643Y-86722044D01*
X148472262Y-86769663D01*
X148519881Y-86864901D01*
X148519881Y-86960140D01*
X148472262Y-87055378D01*
X148424643Y-87102997D01*
X148329405Y-87150616D01*
X148138929Y-87198235D01*
X147900833Y-87198235D01*
X147710357Y-87150616D01*
X147615119Y-87102997D01*
X147567500Y-87055378D01*
X147519881Y-86960140D01*
X147519881Y-86007759D02*
X147519881Y-85912520D01*
X147567500Y-85817282D01*
X147615119Y-85769663D01*
X147710357Y-85722044D01*
X147900833Y-85674425D01*
X148138929Y-85674425D01*
X148329405Y-85722044D01*
X148424643Y-85769663D01*
X148472262Y-85817282D01*
X148519881Y-85912520D01*
X148519881Y-86007759D01*
X148472262Y-86102997D01*
X148424643Y-86150616D01*
X148329405Y-86198235D01*
X148138929Y-86245854D01*
X147900833Y-86245854D01*
X147710357Y-86198235D01*
X147615119Y-86150616D01*
X147567500Y-86102997D01*
X147519881Y-86007759D01*
X147853214Y-85245854D02*
X148519881Y-85245854D01*
X147948452Y-85245854D02*
X147900833Y-85198235D01*
X147853214Y-85102997D01*
X147853214Y-84960139D01*
X147900833Y-84864901D01*
X147996071Y-84817282D01*
X148519881Y-84817282D01*
X152099501Y-90359745D02*
X152099501Y-89740697D01*
X152480453Y-90074031D01*
X152480453Y-89931173D01*
X152528072Y-89835935D01*
X152575691Y-89788316D01*
X152670930Y-89740697D01*
X152909025Y-89740697D01*
X153004263Y-89788316D01*
X153051882Y-89835935D01*
X153099501Y-89931173D01*
X153099501Y-90216888D01*
X153051882Y-90312126D01*
X153004263Y-90359745D01*
X152432834Y-89312126D02*
X153432834Y-89312126D01*
X152480453Y-89312126D02*
X152432834Y-89216888D01*
X152432834Y-89026411D01*
X152480453Y-88931173D01*
X152528072Y-88883554D01*
X152623310Y-88835935D01*
X152909025Y-88835935D01*
X153004263Y-88883554D01*
X153051882Y-88931173D01*
X153099501Y-89026411D01*
X153099501Y-89216888D01*
X153051882Y-89312126D01*
X153099501Y-88359745D02*
X153099501Y-88169269D01*
X153051882Y-88074030D01*
X153004263Y-88026411D01*
X152861406Y-87931173D01*
X152670930Y-87883554D01*
X152289977Y-87883554D01*
X152194739Y-87931173D01*
X152147120Y-87978792D01*
X152099501Y-88074030D01*
X152099501Y-88264507D01*
X152147120Y-88359745D01*
X152194739Y-88407364D01*
X152289977Y-88454983D01*
X152528072Y-88454983D01*
X152623310Y-88407364D01*
X152670930Y-88359745D01*
X152718549Y-88264507D01*
X152718549Y-88074030D01*
X152670930Y-87978792D01*
X152623310Y-87931173D01*
X152528072Y-87883554D01*
X148077201Y-99530505D02*
X148077201Y-98911457D01*
X148458153Y-99244791D01*
X148458153Y-99101933D01*
X148505772Y-99006695D01*
X148553391Y-98959076D01*
X148648630Y-98911457D01*
X148886725Y-98911457D01*
X148981963Y-98959076D01*
X149029582Y-99006695D01*
X149077201Y-99101933D01*
X149077201Y-99387648D01*
X149029582Y-99482886D01*
X148981963Y-99530505D01*
X148077201Y-98578124D02*
X148077201Y-97959076D01*
X148458153Y-98292410D01*
X148458153Y-98149552D01*
X148505772Y-98054314D01*
X148553391Y-98006695D01*
X148648630Y-97959076D01*
X148886725Y-97959076D01*
X148981963Y-98006695D01*
X149029582Y-98054314D01*
X149077201Y-98149552D01*
X149077201Y-98435267D01*
X149029582Y-98530505D01*
X148981963Y-98578124D01*
X148410534Y-97530505D02*
X149410534Y-97530505D01*
X148458153Y-97530505D02*
X148410534Y-97435267D01*
X148410534Y-97244790D01*
X148458153Y-97149552D01*
X148505772Y-97101933D01*
X148601010Y-97054314D01*
X148886725Y-97054314D01*
X148981963Y-97101933D01*
X149029582Y-97149552D01*
X149077201Y-97244790D01*
X149077201Y-97435267D01*
X149029582Y-97530505D01*
X148015481Y-99388827D02*
X148015481Y-99960256D01*
X148015481Y-99674542D02*
X147015481Y-99674542D01*
X147158338Y-99769780D01*
X147253576Y-99865018D01*
X147301195Y-99960256D01*
X147015481Y-98769780D02*
X147015481Y-98674541D01*
X147063100Y-98579303D01*
X147110719Y-98531684D01*
X147205957Y-98484065D01*
X147396433Y-98436446D01*
X147634529Y-98436446D01*
X147825005Y-98484065D01*
X147920243Y-98531684D01*
X147967862Y-98579303D01*
X148015481Y-98674541D01*
X148015481Y-98769780D01*
X147967862Y-98865018D01*
X147920243Y-98912637D01*
X147825005Y-98960256D01*
X147634529Y-99007875D01*
X147396433Y-99007875D01*
X147205957Y-98960256D01*
X147110719Y-98912637D01*
X147063100Y-98865018D01*
X147015481Y-98769780D01*
X147015481Y-97817399D02*
X147015481Y-97722160D01*
X147063100Y-97626922D01*
X147110719Y-97579303D01*
X147205957Y-97531684D01*
X147396433Y-97484065D01*
X147634529Y-97484065D01*
X147825005Y-97531684D01*
X147920243Y-97579303D01*
X147967862Y-97626922D01*
X148015481Y-97722160D01*
X148015481Y-97817399D01*
X147967862Y-97912637D01*
X147920243Y-97960256D01*
X147825005Y-98007875D01*
X147634529Y-98055494D01*
X147396433Y-98055494D01*
X147205957Y-98007875D01*
X147110719Y-97960256D01*
X147063100Y-97912637D01*
X147015481Y-97817399D01*
X147348814Y-97055494D02*
X148348814Y-97055494D01*
X147396433Y-97055494D02*
X147348814Y-96960256D01*
X147348814Y-96769779D01*
X147396433Y-96674541D01*
X147444052Y-96626922D01*
X147539290Y-96579303D01*
X147825005Y-96579303D01*
X147920243Y-96626922D01*
X147967862Y-96674541D01*
X148015481Y-96769779D01*
X148015481Y-96960256D01*
X147967862Y-97055494D01*
X152749741Y-94910245D02*
X152749741Y-94291197D01*
X153130693Y-94624531D01*
X153130693Y-94481673D01*
X153178312Y-94386435D01*
X153225931Y-94338816D01*
X153321170Y-94291197D01*
X153559265Y-94291197D01*
X153654503Y-94338816D01*
X153702122Y-94386435D01*
X153749741Y-94481673D01*
X153749741Y-94767388D01*
X153702122Y-94862626D01*
X153654503Y-94910245D01*
X153749741Y-93815007D02*
X153749741Y-93624531D01*
X153702122Y-93529292D01*
X153654503Y-93481673D01*
X153511646Y-93386435D01*
X153321170Y-93338816D01*
X152940217Y-93338816D01*
X152844979Y-93386435D01*
X152797360Y-93434054D01*
X152749741Y-93529292D01*
X152749741Y-93719769D01*
X152797360Y-93815007D01*
X152844979Y-93862626D01*
X152940217Y-93910245D01*
X153178312Y-93910245D01*
X153273550Y-93862626D01*
X153321170Y-93815007D01*
X153368789Y-93719769D01*
X153368789Y-93529292D01*
X153321170Y-93434054D01*
X153273550Y-93386435D01*
X153178312Y-93338816D01*
X153083074Y-92910245D02*
X154083074Y-92910245D01*
X153130693Y-92910245D02*
X153083074Y-92815007D01*
X153083074Y-92624530D01*
X153130693Y-92529292D01*
X153178312Y-92481673D01*
X153273550Y-92434054D01*
X153559265Y-92434054D01*
X153654503Y-92481673D01*
X153702122Y-92529292D01*
X153749741Y-92624530D01*
X153749741Y-92815007D01*
X153702122Y-92910245D01*
X150530841Y-99413665D02*
X150530841Y-98794617D01*
X150911793Y-99127951D01*
X150911793Y-98985093D01*
X150959412Y-98889855D01*
X151007031Y-98842236D01*
X151102270Y-98794617D01*
X151340365Y-98794617D01*
X151435603Y-98842236D01*
X151483222Y-98889855D01*
X151530841Y-98985093D01*
X151530841Y-99270808D01*
X151483222Y-99366046D01*
X151435603Y-99413665D01*
X150864174Y-98366046D02*
X151864174Y-98366046D01*
X150911793Y-98366046D02*
X150864174Y-98270808D01*
X150864174Y-98080331D01*
X150911793Y-97985093D01*
X150959412Y-97937474D01*
X151054650Y-97889855D01*
X151340365Y-97889855D01*
X151435603Y-97937474D01*
X151483222Y-97985093D01*
X151530841Y-98080331D01*
X151530841Y-98270808D01*
X151483222Y-98366046D01*
X150530841Y-97556522D02*
X150530841Y-96937474D01*
X150911793Y-97270808D01*
X150911793Y-97127950D01*
X150959412Y-97032712D01*
X151007031Y-96985093D01*
X151102270Y-96937474D01*
X151340365Y-96937474D01*
X151435603Y-96985093D01*
X151483222Y-97032712D01*
X151530841Y-97127950D01*
X151530841Y-97413665D01*
X151483222Y-97508903D01*
X151435603Y-97556522D01*
X153956241Y-95220884D02*
X153956241Y-95411361D01*
X154003860Y-95506599D01*
X154051479Y-95554218D01*
X154194336Y-95649456D01*
X154384812Y-95697075D01*
X154765765Y-95697075D01*
X154861003Y-95649456D01*
X154908622Y-95601837D01*
X154956241Y-95506599D01*
X154956241Y-95316122D01*
X154908622Y-95220884D01*
X154861003Y-95173265D01*
X154765765Y-95125646D01*
X154527670Y-95125646D01*
X154432431Y-95173265D01*
X154384812Y-95220884D01*
X154337193Y-95316122D01*
X154337193Y-95506599D01*
X154384812Y-95601837D01*
X154432431Y-95649456D01*
X154527670Y-95697075D01*
X154289574Y-94697075D02*
X155289574Y-94697075D01*
X154337193Y-94697075D02*
X154289574Y-94601837D01*
X154289574Y-94411360D01*
X154337193Y-94316122D01*
X154384812Y-94268503D01*
X154480050Y-94220884D01*
X154765765Y-94220884D01*
X154861003Y-94268503D01*
X154908622Y-94316122D01*
X154956241Y-94411360D01*
X154956241Y-94601837D01*
X154908622Y-94697075D01*
X146890261Y-99390187D02*
X146890261Y-99961616D01*
X146890261Y-99675902D02*
X145890261Y-99675902D01*
X146033118Y-99771140D01*
X146128356Y-99866378D01*
X146175975Y-99961616D01*
X145890261Y-98771140D02*
X145890261Y-98675901D01*
X145937880Y-98580663D01*
X145985499Y-98533044D01*
X146080737Y-98485425D01*
X146271213Y-98437806D01*
X146509309Y-98437806D01*
X146699785Y-98485425D01*
X146795023Y-98533044D01*
X146842642Y-98580663D01*
X146890261Y-98675901D01*
X146890261Y-98771140D01*
X146842642Y-98866378D01*
X146795023Y-98913997D01*
X146699785Y-98961616D01*
X146509309Y-99009235D01*
X146271213Y-99009235D01*
X146080737Y-98961616D01*
X145985499Y-98913997D01*
X145937880Y-98866378D01*
X145890261Y-98771140D01*
X145890261Y-97818759D02*
X145890261Y-97723520D01*
X145937880Y-97628282D01*
X145985499Y-97580663D01*
X146080737Y-97533044D01*
X146271213Y-97485425D01*
X146509309Y-97485425D01*
X146699785Y-97533044D01*
X146795023Y-97580663D01*
X146842642Y-97628282D01*
X146890261Y-97723520D01*
X146890261Y-97818759D01*
X146842642Y-97913997D01*
X146795023Y-97961616D01*
X146699785Y-98009235D01*
X146509309Y-98056854D01*
X146271213Y-98056854D01*
X146080737Y-98009235D01*
X145985499Y-97961616D01*
X145937880Y-97913997D01*
X145890261Y-97818759D01*
X146223594Y-97056854D02*
X146890261Y-97056854D01*
X146318832Y-97056854D02*
X146271213Y-97009235D01*
X146223594Y-96913997D01*
X146223594Y-96771139D01*
X146271213Y-96675901D01*
X146366451Y-96628282D01*
X146890261Y-96628282D01*
X142441694Y-89875157D02*
X143108361Y-89875157D01*
X142060742Y-90113253D02*
X142775028Y-90351348D01*
X142775028Y-89732300D01*
X142108361Y-89446586D02*
X142108361Y-88779919D01*
X143108361Y-89208491D01*
X142441694Y-87970395D02*
X143108361Y-87970395D01*
X142441694Y-88398967D02*
X142965504Y-88398967D01*
X143060742Y-88351348D01*
X143108361Y-88256110D01*
X143108361Y-88113252D01*
X143060742Y-88018014D01*
X143013123Y-87970395D01*
X142060742Y-86779919D02*
X143346456Y-87637062D01*
X142108361Y-85970395D02*
X142108361Y-86446586D01*
X142584551Y-86494205D01*
X142536932Y-86446586D01*
X142489313Y-86351348D01*
X142489313Y-86113252D01*
X142536932Y-86018014D01*
X142584551Y-85970395D01*
X142679790Y-85922776D01*
X142917885Y-85922776D01*
X143013123Y-85970395D01*
X143060742Y-86018014D01*
X143108361Y-86113252D01*
X143108361Y-86351348D01*
X143060742Y-86446586D01*
X143013123Y-86494205D01*
X142108361Y-85303729D02*
X142108361Y-85208490D01*
X142155980Y-85113252D01*
X142203599Y-85065633D01*
X142298837Y-85018014D01*
X142489313Y-84970395D01*
X142727409Y-84970395D01*
X142917885Y-85018014D01*
X143013123Y-85065633D01*
X143060742Y-85113252D01*
X143108361Y-85208490D01*
X143108361Y-85303729D01*
X143060742Y-85398967D01*
X143013123Y-85446586D01*
X142917885Y-85494205D01*
X142727409Y-85541824D01*
X142489313Y-85541824D01*
X142298837Y-85494205D01*
X142203599Y-85446586D01*
X142155980Y-85398967D01*
X142108361Y-85303729D01*
X142108361Y-84684681D02*
X143108361Y-84351348D01*
X142108361Y-84018014D01*
X146020521Y-90229767D02*
X146020521Y-90801196D01*
X146020521Y-90515482D02*
X145020521Y-90515482D01*
X145163378Y-90610720D01*
X145258616Y-90705958D01*
X145306235Y-90801196D01*
X145020521Y-89610720D02*
X145020521Y-89515481D01*
X145068140Y-89420243D01*
X145115759Y-89372624D01*
X145210997Y-89325005D01*
X145401473Y-89277386D01*
X145639569Y-89277386D01*
X145830045Y-89325005D01*
X145925283Y-89372624D01*
X145972902Y-89420243D01*
X146020521Y-89515481D01*
X146020521Y-89610720D01*
X145972902Y-89705958D01*
X145925283Y-89753577D01*
X145830045Y-89801196D01*
X145639569Y-89848815D01*
X145401473Y-89848815D01*
X145210997Y-89801196D01*
X145115759Y-89753577D01*
X145068140Y-89705958D01*
X145020521Y-89610720D01*
X145020521Y-88658339D02*
X145020521Y-88563100D01*
X145068140Y-88467862D01*
X145115759Y-88420243D01*
X145210997Y-88372624D01*
X145401473Y-88325005D01*
X145639569Y-88325005D01*
X145830045Y-88372624D01*
X145925283Y-88420243D01*
X145972902Y-88467862D01*
X146020521Y-88563100D01*
X146020521Y-88658339D01*
X145972902Y-88753577D01*
X145925283Y-88801196D01*
X145830045Y-88848815D01*
X145639569Y-88896434D01*
X145401473Y-88896434D01*
X145210997Y-88848815D01*
X145115759Y-88801196D01*
X145068140Y-88753577D01*
X145020521Y-88658339D01*
X145353854Y-87896434D02*
X146020521Y-87896434D01*
X145449092Y-87896434D02*
X145401473Y-87848815D01*
X145353854Y-87753577D01*
X145353854Y-87610719D01*
X145401473Y-87515481D01*
X145496711Y-87467862D01*
X146020521Y-87467862D01*
X153914885Y-87392601D02*
X153724408Y-87392601D01*
X153629170Y-87440220D01*
X153581551Y-87487839D01*
X153486313Y-87630696D01*
X153438694Y-87821172D01*
X153438694Y-88202125D01*
X153486313Y-88297363D01*
X153533932Y-88344982D01*
X153629170Y-88392601D01*
X153819647Y-88392601D01*
X153914885Y-88344982D01*
X153962504Y-88297363D01*
X154010123Y-88202125D01*
X154010123Y-87964030D01*
X153962504Y-87868791D01*
X153914885Y-87821172D01*
X153819647Y-87773553D01*
X153629170Y-87773553D01*
X153533932Y-87821172D01*
X153486313Y-87868791D01*
X153438694Y-87964030D01*
X154438694Y-87725934D02*
X154438694Y-88725934D01*
X154438694Y-87773553D02*
X154533932Y-87725934D01*
X154724409Y-87725934D01*
X154819647Y-87773553D01*
X154867266Y-87821172D01*
X154914885Y-87916410D01*
X154914885Y-88202125D01*
X154867266Y-88297363D01*
X154819647Y-88344982D01*
X154724409Y-88392601D01*
X154533932Y-88392601D01*
X154438694Y-88344982D01*
X155486313Y-87821172D02*
X155391075Y-87773553D01*
X155343456Y-87725934D01*
X155295837Y-87630696D01*
X155295837Y-87583077D01*
X155343456Y-87487839D01*
X155391075Y-87440220D01*
X155486313Y-87392601D01*
X155676790Y-87392601D01*
X155772028Y-87440220D01*
X155819647Y-87487839D01*
X155867266Y-87583077D01*
X155867266Y-87630696D01*
X155819647Y-87725934D01*
X155772028Y-87773553D01*
X155676790Y-87821172D01*
X155486313Y-87821172D01*
X155391075Y-87868791D01*
X155343456Y-87916410D01*
X155295837Y-88011649D01*
X155295837Y-88202125D01*
X155343456Y-88297363D01*
X155391075Y-88344982D01*
X155486313Y-88392601D01*
X155676790Y-88392601D01*
X155772028Y-88344982D01*
X155819647Y-88297363D01*
X155867266Y-88202125D01*
X155867266Y-88011649D01*
X155819647Y-87916410D01*
X155772028Y-87868791D01*
X155676790Y-87821172D01*
X157088361Y-95783506D02*
X157088361Y-96354935D01*
X157088361Y-96069221D02*
X156088361Y-96069221D01*
X156231218Y-96164459D01*
X156326456Y-96259697D01*
X156374075Y-96354935D01*
X156421694Y-95354935D02*
X157421694Y-95354935D01*
X156469313Y-95354935D02*
X156421694Y-95259697D01*
X156421694Y-95069220D01*
X156469313Y-94973982D01*
X156516932Y-94926363D01*
X156612170Y-94878744D01*
X156897885Y-94878744D01*
X156993123Y-94926363D01*
X157040742Y-94973982D01*
X157088361Y-95069220D01*
X157088361Y-95259697D01*
X157040742Y-95354935D01*
X156371781Y-96128875D02*
X156371781Y-96319352D01*
X156419400Y-96414590D01*
X156467019Y-96462209D01*
X156609876Y-96557447D01*
X156800352Y-96605066D01*
X157181305Y-96605066D01*
X157276543Y-96557447D01*
X157324162Y-96509828D01*
X157371781Y-96414590D01*
X157371781Y-96224113D01*
X157324162Y-96128875D01*
X157276543Y-96081256D01*
X157181305Y-96033637D01*
X156943210Y-96033637D01*
X156847971Y-96081256D01*
X156800352Y-96128875D01*
X156752733Y-96224113D01*
X156752733Y-96414590D01*
X156800352Y-96509828D01*
X156847971Y-96557447D01*
X156943210Y-96605066D01*
X156800352Y-95462209D02*
X156752733Y-95557447D01*
X156705114Y-95605066D01*
X156609876Y-95652685D01*
X156562257Y-95652685D01*
X156467019Y-95605066D01*
X156419400Y-95557447D01*
X156371781Y-95462209D01*
X156371781Y-95271732D01*
X156419400Y-95176494D01*
X156467019Y-95128875D01*
X156562257Y-95081256D01*
X156609876Y-95081256D01*
X156705114Y-95128875D01*
X156752733Y-95176494D01*
X156800352Y-95271732D01*
X156800352Y-95462209D01*
X156847971Y-95557447D01*
X156895590Y-95605066D01*
X156990829Y-95652685D01*
X157181305Y-95652685D01*
X157276543Y-95605066D01*
X157324162Y-95557447D01*
X157371781Y-95462209D01*
X157371781Y-95271732D01*
X157324162Y-95176494D01*
X157276543Y-95128875D01*
X157181305Y-95081256D01*
X156990829Y-95081256D01*
X156895590Y-95128875D01*
X156847971Y-95176494D01*
X156800352Y-95271732D01*
X156705114Y-94652685D02*
X157705114Y-94652685D01*
X156752733Y-94652685D02*
X156705114Y-94557447D01*
X156705114Y-94366970D01*
X156752733Y-94271732D01*
X156800352Y-94224113D01*
X156895590Y-94176494D01*
X157181305Y-94176494D01*
X157276543Y-94224113D01*
X157324162Y-94271732D01*
X157371781Y-94366970D01*
X157371781Y-94557447D01*
X157324162Y-94652685D01*
X131127365Y-86404310D02*
X131127365Y-87070977D01*
X130889269Y-86023358D02*
X130651174Y-86737644D01*
X131270222Y-86737644D01*
X131555936Y-86070977D02*
X132222603Y-86070977D01*
X131794031Y-87070977D01*
X133032127Y-86404310D02*
X133032127Y-87070977D01*
X132603555Y-86404310D02*
X132603555Y-86928120D01*
X132651174Y-87023358D01*
X132746412Y-87070977D01*
X132889270Y-87070977D01*
X132984508Y-87023358D01*
X133032127Y-86975739D01*
X134222603Y-86023358D02*
X133365460Y-87309072D01*
X135032127Y-86070977D02*
X134555936Y-86070977D01*
X134508317Y-86547167D01*
X134555936Y-86499548D01*
X134651174Y-86451929D01*
X134889270Y-86451929D01*
X134984508Y-86499548D01*
X135032127Y-86547167D01*
X135079746Y-86642406D01*
X135079746Y-86880501D01*
X135032127Y-86975739D01*
X134984508Y-87023358D01*
X134889270Y-87070977D01*
X134651174Y-87070977D01*
X134555936Y-87023358D01*
X134508317Y-86975739D01*
X135698793Y-86070977D02*
X135794032Y-86070977D01*
X135889270Y-86118596D01*
X135936889Y-86166215D01*
X135984508Y-86261453D01*
X136032127Y-86451929D01*
X136032127Y-86690025D01*
X135984508Y-86880501D01*
X135936889Y-86975739D01*
X135889270Y-87023358D01*
X135794032Y-87070977D01*
X135698793Y-87070977D01*
X135603555Y-87023358D01*
X135555936Y-86975739D01*
X135508317Y-86880501D01*
X135460698Y-86690025D01*
X135460698Y-86451929D01*
X135508317Y-86261453D01*
X135555936Y-86166215D01*
X135603555Y-86118596D01*
X135698793Y-86070977D01*
X136317841Y-86070977D02*
X136651174Y-87070977D01*
X136984508Y-86070977D01*
X160926594Y-91817315D02*
X161593261Y-91817315D01*
X160545642Y-92055411D02*
X161259928Y-92293506D01*
X161259928Y-91674458D01*
X160926594Y-91293506D02*
X161926594Y-91293506D01*
X160974213Y-91293506D02*
X160926594Y-91198268D01*
X160926594Y-91007791D01*
X160974213Y-90912553D01*
X161021832Y-90864934D01*
X161117070Y-90817315D01*
X161402785Y-90817315D01*
X161498023Y-90864934D01*
X161545642Y-90912553D01*
X161593261Y-91007791D01*
X161593261Y-91198268D01*
X161545642Y-91293506D01*
X160593261Y-90483982D02*
X160593261Y-89817315D01*
X161593261Y-90245887D01*
X132563635Y-84052137D02*
X131992206Y-84052137D01*
X132277920Y-84052137D02*
X132277920Y-83052137D01*
X132182682Y-83194994D01*
X132087444Y-83290232D01*
X131992206Y-83337851D01*
X133182682Y-83052137D02*
X133277921Y-83052137D01*
X133373159Y-83099756D01*
X133420778Y-83147375D01*
X133468397Y-83242613D01*
X133516016Y-83433089D01*
X133516016Y-83671185D01*
X133468397Y-83861661D01*
X133420778Y-83956899D01*
X133373159Y-84004518D01*
X133277921Y-84052137D01*
X133182682Y-84052137D01*
X133087444Y-84004518D01*
X133039825Y-83956899D01*
X132992206Y-83861661D01*
X132944587Y-83671185D01*
X132944587Y-83433089D01*
X132992206Y-83242613D01*
X133039825Y-83147375D01*
X133087444Y-83099756D01*
X133182682Y-83052137D01*
X134135063Y-83052137D02*
X134230302Y-83052137D01*
X134325540Y-83099756D01*
X134373159Y-83147375D01*
X134420778Y-83242613D01*
X134468397Y-83433089D01*
X134468397Y-83671185D01*
X134420778Y-83861661D01*
X134373159Y-83956899D01*
X134325540Y-84004518D01*
X134230302Y-84052137D01*
X134135063Y-84052137D01*
X134039825Y-84004518D01*
X133992206Y-83956899D01*
X133944587Y-83861661D01*
X133896968Y-83671185D01*
X133896968Y-83433089D01*
X133944587Y-83242613D01*
X133992206Y-83147375D01*
X134039825Y-83099756D01*
X134135063Y-83052137D01*
X134896968Y-83385470D02*
X134896968Y-84052137D01*
X134896968Y-83480708D02*
X134944587Y-83433089D01*
X135039825Y-83385470D01*
X135182683Y-83385470D01*
X135277921Y-83433089D01*
X135325540Y-83528327D01*
X135325540Y-84052137D01*
X158428294Y-96118715D02*
X159094961Y-96118715D01*
X158047342Y-96356811D02*
X158761628Y-96594906D01*
X158761628Y-95975858D01*
X158428294Y-95594906D02*
X159428294Y-95594906D01*
X158475913Y-95594906D02*
X158428294Y-95499668D01*
X158428294Y-95309191D01*
X158475913Y-95213953D01*
X158523532Y-95166334D01*
X158618770Y-95118715D01*
X158904485Y-95118715D01*
X158999723Y-95166334D01*
X159047342Y-95213953D01*
X159094961Y-95309191D01*
X159094961Y-95499668D01*
X159047342Y-95594906D01*
X158094961Y-94785382D02*
X158094961Y-94118715D01*
X159094961Y-94547287D01*
X130109126Y-83036897D02*
X129632935Y-83036897D01*
X129585316Y-83513087D01*
X129632935Y-83465468D01*
X129728173Y-83417849D01*
X129966269Y-83417849D01*
X130061507Y-83465468D01*
X130109126Y-83513087D01*
X130156745Y-83608326D01*
X130156745Y-83846421D01*
X130109126Y-83941659D01*
X130061507Y-83989278D01*
X129966269Y-84036897D01*
X129728173Y-84036897D01*
X129632935Y-83989278D01*
X129585316Y-83941659D01*
X131013888Y-83036897D02*
X130823411Y-83036897D01*
X130728173Y-83084516D01*
X130680554Y-83132135D01*
X130585316Y-83274992D01*
X130537697Y-83465468D01*
X130537697Y-83846421D01*
X130585316Y-83941659D01*
X130632935Y-83989278D01*
X130728173Y-84036897D01*
X130918650Y-84036897D01*
X131013888Y-83989278D01*
X131061507Y-83941659D01*
X131109126Y-83846421D01*
X131109126Y-83608326D01*
X131061507Y-83513087D01*
X131013888Y-83465468D01*
X130918650Y-83417849D01*
X130728173Y-83417849D01*
X130632935Y-83465468D01*
X130585316Y-83513087D01*
X130537697Y-83608326D01*
X131537697Y-83370230D02*
X131537697Y-84370230D01*
X131537697Y-83417849D02*
X131632935Y-83370230D01*
X131823412Y-83370230D01*
X131918650Y-83417849D01*
X131966269Y-83465468D01*
X132013888Y-83560706D01*
X132013888Y-83846421D01*
X131966269Y-83941659D01*
X131918650Y-83989278D01*
X131823412Y-84036897D01*
X131632935Y-84036897D01*
X131537697Y-83989278D01*
X128967486Y-82687857D02*
X128491295Y-82687857D01*
X128443676Y-83164047D01*
X128491295Y-83116428D01*
X128586533Y-83068809D01*
X128824629Y-83068809D01*
X128919867Y-83116428D01*
X128967486Y-83164047D01*
X129015105Y-83259286D01*
X129015105Y-83497381D01*
X128967486Y-83592619D01*
X128919867Y-83640238D01*
X128824629Y-83687857D01*
X128586533Y-83687857D01*
X128491295Y-83640238D01*
X128443676Y-83592619D01*
X129872248Y-82687857D02*
X129681771Y-82687857D01*
X129586533Y-82735476D01*
X129538914Y-82783095D01*
X129443676Y-82925952D01*
X129396057Y-83116428D01*
X129396057Y-83497381D01*
X129443676Y-83592619D01*
X129491295Y-83640238D01*
X129586533Y-83687857D01*
X129777010Y-83687857D01*
X129872248Y-83640238D01*
X129919867Y-83592619D01*
X129967486Y-83497381D01*
X129967486Y-83259286D01*
X129919867Y-83164047D01*
X129872248Y-83116428D01*
X129777010Y-83068809D01*
X129586533Y-83068809D01*
X129491295Y-83116428D01*
X129443676Y-83164047D01*
X129396057Y-83259286D01*
X130396057Y-83021190D02*
X130396057Y-84021190D01*
X130396057Y-83068809D02*
X130491295Y-83021190D01*
X130681772Y-83021190D01*
X130777010Y-83068809D01*
X130824629Y-83116428D01*
X130872248Y-83211666D01*
X130872248Y-83497381D01*
X130824629Y-83592619D01*
X130777010Y-83640238D01*
X130681772Y-83687857D01*
X130491295Y-83687857D01*
X130396057Y-83640238D01*
X136279099Y-95086146D02*
X136231480Y-95038527D01*
X136183861Y-94943289D01*
X136183861Y-94705193D01*
X136231480Y-94609955D01*
X136279099Y-94562336D01*
X136374337Y-94514717D01*
X136469575Y-94514717D01*
X136612432Y-94562336D01*
X137183861Y-95133765D01*
X137183861Y-94514717D01*
X136517194Y-94086146D02*
X137183861Y-94086146D01*
X136612432Y-94086146D02*
X136564813Y-94038527D01*
X136517194Y-93943289D01*
X136517194Y-93800431D01*
X136564813Y-93705193D01*
X136660051Y-93657574D01*
X137183861Y-93657574D01*
X136279099Y-93229003D02*
X136231480Y-93181384D01*
X136183861Y-93086146D01*
X136183861Y-92848050D01*
X136231480Y-92752812D01*
X136279099Y-92705193D01*
X136374337Y-92657574D01*
X136469575Y-92657574D01*
X136612432Y-92705193D01*
X137183861Y-93276622D01*
X137183861Y-92657574D01*
X125521983Y-89876641D02*
X125045792Y-89876641D01*
X125045792Y-88876641D01*
X125855316Y-89352831D02*
X126188650Y-89352831D01*
X126331507Y-89876641D02*
X125855316Y-89876641D01*
X125855316Y-88876641D01*
X126331507Y-88876641D01*
X126760078Y-89876641D02*
X126760078Y-88876641D01*
X126998173Y-88876641D01*
X127141031Y-88924260D01*
X127236269Y-89019498D01*
X127283888Y-89114736D01*
X127331507Y-89305212D01*
X127331507Y-89448070D01*
X127283888Y-89638546D01*
X127236269Y-89733784D01*
X127141031Y-89829022D01*
X126998173Y-89876641D01*
X126760078Y-89876641D01*
X128331507Y-89876641D02*
X127998173Y-89400450D01*
X127760078Y-89876641D02*
X127760078Y-88876641D01*
X128141031Y-88876641D01*
X128236269Y-88924260D01*
X128283888Y-88971879D01*
X128331507Y-89067117D01*
X128331507Y-89209974D01*
X128283888Y-89305212D01*
X128236269Y-89352831D01*
X128141031Y-89400450D01*
X127760078Y-89400450D01*
X128760078Y-89495689D02*
X129521983Y-89495689D01*
X130474364Y-89876641D02*
X129998173Y-89876641D01*
X129998173Y-88876641D01*
X130807697Y-89876641D02*
X130807697Y-88876641D01*
X130807697Y-89352831D02*
X131379126Y-89352831D01*
X131379126Y-89876641D02*
X131379126Y-88876641D01*
X131855316Y-89876641D02*
X131855316Y-88876641D01*
X132426745Y-89876641D01*
X132426745Y-88876641D01*
X132950554Y-89876641D02*
X133141030Y-89876641D01*
X133236269Y-89829022D01*
X133283888Y-89781403D01*
X133379126Y-89638546D01*
X133426745Y-89448070D01*
X133426745Y-89067117D01*
X133379126Y-88971879D01*
X133331507Y-88924260D01*
X133236269Y-88876641D01*
X133045792Y-88876641D01*
X132950554Y-88924260D01*
X132902935Y-88971879D01*
X132855316Y-89067117D01*
X132855316Y-89305212D01*
X132902935Y-89400450D01*
X132950554Y-89448070D01*
X133045792Y-89495689D01*
X133236269Y-89495689D01*
X133331507Y-89448070D01*
X133379126Y-89400450D01*
X133426745Y-89305212D01*
X133760078Y-88876641D02*
X134426745Y-88876641D01*
X133998173Y-89876641D01*
X135236269Y-89209974D02*
X135236269Y-89876641D01*
X134998173Y-88829022D02*
X134760078Y-89543308D01*
X135379126Y-89543308D01*
X148984821Y-94663667D02*
X148984821Y-95235096D01*
X148984821Y-94949382D02*
X147984821Y-94949382D01*
X148127678Y-95044620D01*
X148222916Y-95139858D01*
X148270535Y-95235096D01*
X148080059Y-94282715D02*
X148032440Y-94235096D01*
X147984821Y-94139858D01*
X147984821Y-93901762D01*
X148032440Y-93806524D01*
X148080059Y-93758905D01*
X148175297Y-93711286D01*
X148270535Y-93711286D01*
X148413392Y-93758905D01*
X148984821Y-94330334D01*
X148984821Y-93711286D01*
X147984821Y-93092239D02*
X147984821Y-92997000D01*
X148032440Y-92901762D01*
X148080059Y-92854143D01*
X148175297Y-92806524D01*
X148365773Y-92758905D01*
X148603869Y-92758905D01*
X148794345Y-92806524D01*
X148889583Y-92854143D01*
X148937202Y-92901762D01*
X148984821Y-92997000D01*
X148984821Y-93092239D01*
X148937202Y-93187477D01*
X148889583Y-93235096D01*
X148794345Y-93282715D01*
X148603869Y-93330334D01*
X148365773Y-93330334D01*
X148175297Y-93282715D01*
X148080059Y-93235096D01*
X148032440Y-93187477D01*
X147984821Y-93092239D01*
X148318154Y-92330334D02*
X148984821Y-92330334D01*
X148413392Y-92330334D02*
X148365773Y-92282715D01*
X148318154Y-92187477D01*
X148318154Y-92044619D01*
X148365773Y-91949381D01*
X148461011Y-91901762D01*
X148984821Y-91901762D01*
D13*
X150422916Y-93577953D02*
X150422916Y-93673191D01*
X150222916Y-93673191D01*
X150422916Y-93406524D02*
X150422916Y-93520810D01*
X150422916Y-93463667D02*
X150222916Y-93463667D01*
X150251488Y-93482715D01*
X150270535Y-93501762D01*
X150280059Y-93520810D01*
D12*
X151909123Y-88300221D02*
X151337694Y-88300221D01*
X151623408Y-88300221D02*
X151623408Y-87300221D01*
X151528170Y-87443078D01*
X151432932Y-87538316D01*
X151337694Y-87585935D01*
X152861504Y-88300221D02*
X152290075Y-88300221D01*
X152575789Y-88300221D02*
X152575789Y-87300221D01*
X152480551Y-87443078D01*
X152385313Y-87538316D01*
X152290075Y-87585935D01*
X153290075Y-87633554D02*
X153290075Y-88300221D01*
X153290075Y-87728792D02*
X153337694Y-87681173D01*
X153432932Y-87633554D01*
X153575790Y-87633554D01*
X153671028Y-87681173D01*
X153718647Y-87776411D01*
X153718647Y-88300221D01*
D13*
X152518647Y-89738316D02*
X152423409Y-89738316D01*
X152423409Y-89538316D01*
X152575790Y-89557364D02*
X152585314Y-89547840D01*
X152604362Y-89538316D01*
X152651981Y-89538316D01*
X152671028Y-89547840D01*
X152680552Y-89557364D01*
X152690076Y-89576411D01*
X152690076Y-89595459D01*
X152680552Y-89624030D01*
X152566266Y-89738316D01*
X152690076Y-89738316D01*
D12*
X159244643Y-92458201D02*
X159435119Y-92458201D01*
X159530358Y-92410582D01*
X159577977Y-92362963D01*
X159673215Y-92220106D01*
X159720834Y-92029630D01*
X159720834Y-91648677D01*
X159673215Y-91553439D01*
X159625596Y-91505820D01*
X159530358Y-91458201D01*
X159339881Y-91458201D01*
X159244643Y-91505820D01*
X159197024Y-91553439D01*
X159149405Y-91648677D01*
X159149405Y-91886772D01*
X159197024Y-91982010D01*
X159244643Y-92029630D01*
X159339881Y-92077249D01*
X159530358Y-92077249D01*
X159625596Y-92029630D01*
X159673215Y-91982010D01*
X159720834Y-91886772D01*
X160149405Y-91791534D02*
X160149405Y-92458201D01*
X160149405Y-91886772D02*
X160197024Y-91839153D01*
X160292262Y-91791534D01*
X160435120Y-91791534D01*
X160530358Y-91839153D01*
X160577977Y-91934391D01*
X160577977Y-92458201D01*
D13*
X159854167Y-93896296D02*
X159758929Y-93896296D01*
X159758929Y-93696296D01*
X159901786Y-93696296D02*
X160025596Y-93696296D01*
X159958929Y-93772487D01*
X159987501Y-93772487D01*
X160006548Y-93782010D01*
X160016072Y-93791534D01*
X160025596Y-93810582D01*
X160025596Y-93858201D01*
X160016072Y-93877249D01*
X160006548Y-93886772D01*
X159987501Y-93896296D01*
X159930358Y-93896296D01*
X159911310Y-93886772D01*
X159901786Y-93877249D01*
D12*
X152577983Y-95049001D02*
X152006554Y-95049001D01*
X152292268Y-95049001D02*
X152292268Y-94049001D01*
X152197030Y-94191858D01*
X152101792Y-94287096D01*
X152006554Y-94334715D01*
X153482745Y-94049001D02*
X153006554Y-94049001D01*
X152958935Y-94525191D01*
X153006554Y-94477572D01*
X153101792Y-94429953D01*
X153339888Y-94429953D01*
X153435126Y-94477572D01*
X153482745Y-94525191D01*
X153530364Y-94620430D01*
X153530364Y-94858525D01*
X153482745Y-94953763D01*
X153435126Y-95001382D01*
X153339888Y-95049001D01*
X153101792Y-95049001D01*
X153006554Y-95001382D01*
X152958935Y-94953763D01*
X153958935Y-94382334D02*
X153958935Y-95049001D01*
X153958935Y-94477572D02*
X154006554Y-94429953D01*
X154101792Y-94382334D01*
X154244650Y-94382334D01*
X154339888Y-94429953D01*
X154387507Y-94525191D01*
X154387507Y-95049001D01*
D13*
X153187507Y-96487096D02*
X153092269Y-96487096D01*
X153092269Y-96287096D01*
X153339888Y-96353763D02*
X153339888Y-96487096D01*
X153292269Y-96277572D02*
X153244650Y-96420430D01*
X153368460Y-96420430D01*
D12*
X153852281Y-96602177D02*
X153852281Y-97173606D01*
X153852281Y-96887892D02*
X152852281Y-96887892D01*
X152995138Y-96983130D01*
X153090376Y-97078368D01*
X153137995Y-97173606D01*
X152852281Y-95697415D02*
X152852281Y-96173606D01*
X153328471Y-96221225D01*
X153280852Y-96173606D01*
X153233233Y-96078368D01*
X153233233Y-95840272D01*
X153280852Y-95745034D01*
X153328471Y-95697415D01*
X153423710Y-95649796D01*
X153661805Y-95649796D01*
X153757043Y-95697415D01*
X153804662Y-95745034D01*
X153852281Y-95840272D01*
X153852281Y-96078368D01*
X153804662Y-96173606D01*
X153757043Y-96221225D01*
X153185614Y-95221225D02*
X153852281Y-95221225D01*
X153280852Y-95221225D02*
X153233233Y-95173606D01*
X153185614Y-95078368D01*
X153185614Y-94935510D01*
X153233233Y-94840272D01*
X153328471Y-94792653D01*
X153852281Y-94792653D01*
D13*
X151690376Y-95992653D02*
X151690376Y-96087891D01*
X151490376Y-96087891D01*
X151490376Y-95830748D02*
X151490376Y-95925986D01*
X151585614Y-95935510D01*
X151576090Y-95925986D01*
X151566567Y-95906938D01*
X151566567Y-95859319D01*
X151576090Y-95840272D01*
X151585614Y-95830748D01*
X151604662Y-95821224D01*
X151652281Y-95821224D01*
X151671329Y-95830748D01*
X151680852Y-95840272D01*
X151690376Y-95859319D01*
X151690376Y-95906938D01*
X151680852Y-95925986D01*
X151671329Y-95935510D01*
D12*
X155064621Y-95550816D02*
X155064621Y-96027007D01*
X155540811Y-96074626D01*
X155493192Y-96027007D01*
X155445573Y-95931769D01*
X155445573Y-95693673D01*
X155493192Y-95598435D01*
X155540811Y-95550816D01*
X155636050Y-95503197D01*
X155874145Y-95503197D01*
X155969383Y-95550816D01*
X156017002Y-95598435D01*
X156064621Y-95693673D01*
X156064621Y-95931769D01*
X156017002Y-96027007D01*
X155969383Y-96074626D01*
X155397954Y-95074626D02*
X156064621Y-95074626D01*
X155493192Y-95074626D02*
X155445573Y-95027007D01*
X155397954Y-94931769D01*
X155397954Y-94788911D01*
X155445573Y-94693673D01*
X155540811Y-94646054D01*
X156064621Y-94646054D01*
X155064621Y-93741292D02*
X155064621Y-93931769D01*
X155112240Y-94027007D01*
X155159859Y-94074626D01*
X155302716Y-94169864D01*
X155493192Y-94217483D01*
X155874145Y-94217483D01*
X155969383Y-94169864D01*
X156017002Y-94122245D01*
X156064621Y-94027007D01*
X156064621Y-93836530D01*
X156017002Y-93741292D01*
X155969383Y-93693673D01*
X155874145Y-93646054D01*
X155636050Y-93646054D01*
X155540811Y-93693673D01*
X155493192Y-93741292D01*
X155445573Y-93836530D01*
X155445573Y-94027007D01*
X155493192Y-94122245D01*
X155540811Y-94169864D01*
X155636050Y-94217483D01*
D13*
X153902716Y-94988911D02*
X153902716Y-95084149D01*
X153702716Y-95084149D01*
X153902716Y-94817482D02*
X153902716Y-94931768D01*
X153902716Y-94874625D02*
X153702716Y-94874625D01*
X153731288Y-94893673D01*
X153750335Y-94912720D01*
X153759859Y-94931768D01*
X153902716Y-94627006D02*
X153902716Y-94741292D01*
X153902716Y-94684149D02*
X153702716Y-94684149D01*
X153731288Y-94703197D01*
X153750335Y-94722244D01*
X153759859Y-94741292D01*
D12*
X139252522Y-99637248D02*
X139300141Y-99494391D01*
X139300141Y-99256295D01*
X139252522Y-99161057D01*
X139204903Y-99113438D01*
X139109665Y-99065819D01*
X139014427Y-99065819D01*
X138919189Y-99113438D01*
X138871570Y-99161057D01*
X138823950Y-99256295D01*
X138776331Y-99446772D01*
X138728712Y-99542010D01*
X138681093Y-99589629D01*
X138585855Y-99637248D01*
X138490617Y-99637248D01*
X138395379Y-99589629D01*
X138347760Y-99542010D01*
X138300141Y-99446772D01*
X138300141Y-99208676D01*
X138347760Y-99065819D01*
X138776331Y-98637248D02*
X138776331Y-98303914D01*
X139300141Y-98161057D02*
X139300141Y-98637248D01*
X138300141Y-98637248D01*
X138300141Y-98161057D01*
X139300141Y-97161057D02*
X138823950Y-97494391D01*
X139300141Y-97732486D02*
X138300141Y-97732486D01*
X138300141Y-97351533D01*
X138347760Y-97256295D01*
X138395379Y-97208676D01*
X138490617Y-97161057D01*
X138633474Y-97161057D01*
X138728712Y-97208676D01*
X138776331Y-97256295D01*
X138823950Y-97351533D01*
X138823950Y-97732486D01*
X139300141Y-96732486D02*
X138300141Y-96732486D01*
X139014427Y-96303915D02*
X139014427Y-95827724D01*
X139300141Y-96399153D02*
X138300141Y-96065820D01*
X139300141Y-95732486D01*
X139300141Y-94922962D02*
X139300141Y-95399153D01*
X138300141Y-95399153D01*
X139204903Y-93256295D02*
X139252522Y-93303914D01*
X139300141Y-93446771D01*
X139300141Y-93542009D01*
X139252522Y-93684867D01*
X139157284Y-93780105D01*
X139062046Y-93827724D01*
X138871570Y-93875343D01*
X138728712Y-93875343D01*
X138538236Y-93827724D01*
X138442998Y-93780105D01*
X138347760Y-93684867D01*
X138300141Y-93542009D01*
X138300141Y-93446771D01*
X138347760Y-93303914D01*
X138395379Y-93256295D01*
X138300141Y-92637248D02*
X138300141Y-92446771D01*
X138347760Y-92351533D01*
X138442998Y-92256295D01*
X138633474Y-92208676D01*
X138966808Y-92208676D01*
X139157284Y-92256295D01*
X139252522Y-92351533D01*
X139300141Y-92446771D01*
X139300141Y-92637248D01*
X139252522Y-92732486D01*
X139157284Y-92827724D01*
X138966808Y-92875343D01*
X138633474Y-92875343D01*
X138442998Y-92827724D01*
X138347760Y-92732486D01*
X138300141Y-92637248D01*
X139300141Y-91780105D02*
X138300141Y-91780105D01*
X139300141Y-91208676D01*
X138300141Y-91208676D01*
X139300141Y-90732486D02*
X138300141Y-90732486D01*
X139300141Y-90161057D01*
X138300141Y-90161057D01*
X138776331Y-89684867D02*
X138776331Y-89351533D01*
X139300141Y-89208676D02*
X139300141Y-89684867D01*
X138300141Y-89684867D01*
X138300141Y-89208676D01*
X139204903Y-88208676D02*
X139252522Y-88256295D01*
X139300141Y-88399152D01*
X139300141Y-88494390D01*
X139252522Y-88637248D01*
X139157284Y-88732486D01*
X139062046Y-88780105D01*
X138871570Y-88827724D01*
X138728712Y-88827724D01*
X138538236Y-88780105D01*
X138442998Y-88732486D01*
X138347760Y-88637248D01*
X138300141Y-88494390D01*
X138300141Y-88399152D01*
X138347760Y-88256295D01*
X138395379Y-88208676D01*
X138300141Y-87922962D02*
X138300141Y-87351533D01*
X139300141Y-87637248D02*
X138300141Y-87637248D01*
X138300141Y-86827724D02*
X138300141Y-86637247D01*
X138347760Y-86542009D01*
X138442998Y-86446771D01*
X138633474Y-86399152D01*
X138966808Y-86399152D01*
X139157284Y-86446771D01*
X139252522Y-86542009D01*
X139300141Y-86637247D01*
X139300141Y-86827724D01*
X139252522Y-86922962D01*
X139157284Y-87018200D01*
X138966808Y-87065819D01*
X138633474Y-87065819D01*
X138442998Y-87018200D01*
X138347760Y-86922962D01*
X138300141Y-86827724D01*
X139300141Y-85399152D02*
X138823950Y-85732486D01*
X139300141Y-85970581D02*
X138300141Y-85970581D01*
X138300141Y-85589628D01*
X138347760Y-85494390D01*
X138395379Y-85446771D01*
X138490617Y-85399152D01*
X138633474Y-85399152D01*
X138728712Y-85446771D01*
X138776331Y-85494390D01*
X138823950Y-85589628D01*
X138823950Y-85970581D01*
X119942101Y-97458386D02*
X120656387Y-97458386D01*
X120799244Y-97506006D01*
X120894482Y-97601244D01*
X120942101Y-97744101D01*
X120942101Y-97839339D01*
X120418291Y-96648862D02*
X120465910Y-96506005D01*
X120513530Y-96458386D01*
X120608768Y-96410767D01*
X120751625Y-96410767D01*
X120846863Y-96458386D01*
X120894482Y-96506005D01*
X120942101Y-96601243D01*
X120942101Y-96982196D01*
X119942101Y-96982196D01*
X119942101Y-96648862D01*
X119989720Y-96553624D01*
X120037339Y-96506005D01*
X120132577Y-96458386D01*
X120227815Y-96458386D01*
X120323053Y-96506005D01*
X120370672Y-96553624D01*
X120418291Y-96648862D01*
X120418291Y-96982196D01*
X120656387Y-96029815D02*
X120656387Y-95553624D01*
X120942101Y-96125053D02*
X119942101Y-95791720D01*
X120942101Y-95458386D01*
X119942101Y-95267910D02*
X119942101Y-94696481D01*
X120942101Y-94982196D02*
X119942101Y-94982196D01*
X134628721Y-100526481D02*
X135200150Y-100526481D01*
X134914435Y-101526481D02*
X134914435Y-100526481D01*
X135485864Y-101240767D02*
X135962055Y-101240767D01*
X135390626Y-101526481D02*
X135723959Y-100526481D01*
X136057293Y-101526481D01*
X136390626Y-101526481D02*
X136390626Y-100526481D01*
X136723960Y-101240767D01*
X137057293Y-100526481D01*
X137057293Y-101526481D01*
X137533483Y-101526481D02*
X137533483Y-100526481D01*
X137914436Y-100526481D01*
X138009674Y-100574100D01*
X138057293Y-100621719D01*
X138104912Y-100716957D01*
X138104912Y-100859814D01*
X138057293Y-100955052D01*
X138009674Y-101002671D01*
X137914436Y-101050290D01*
X137533483Y-101050290D01*
X138533483Y-101002671D02*
X138866817Y-101002671D01*
X139009674Y-101526481D02*
X138533483Y-101526481D01*
X138533483Y-100526481D01*
X139009674Y-100526481D01*
X140009674Y-101526481D02*
X139676340Y-101050290D01*
X139438245Y-101526481D02*
X139438245Y-100526481D01*
X139819198Y-100526481D01*
X139914436Y-100574100D01*
X139962055Y-100621719D01*
X140009674Y-100716957D01*
X140009674Y-100859814D01*
X139962055Y-100955052D01*
X139914436Y-101002671D01*
X139819198Y-101050290D01*
X139438245Y-101050290D01*
X141771579Y-101431243D02*
X141723960Y-101478862D01*
X141581103Y-101526481D01*
X141485865Y-101526481D01*
X141343007Y-101478862D01*
X141247769Y-101383624D01*
X141200150Y-101288386D01*
X141152531Y-101097910D01*
X141152531Y-100955052D01*
X141200150Y-100764576D01*
X141247769Y-100669338D01*
X141343007Y-100574100D01*
X141485865Y-100526481D01*
X141581103Y-100526481D01*
X141723960Y-100574100D01*
X141771579Y-100621719D01*
X142390626Y-100526481D02*
X142581103Y-100526481D01*
X142676341Y-100574100D01*
X142771579Y-100669338D01*
X142819198Y-100859814D01*
X142819198Y-101193148D01*
X142771579Y-101383624D01*
X142676341Y-101478862D01*
X142581103Y-101526481D01*
X142390626Y-101526481D01*
X142295388Y-101478862D01*
X142200150Y-101383624D01*
X142152531Y-101193148D01*
X142152531Y-100859814D01*
X142200150Y-100669338D01*
X142295388Y-100574100D01*
X142390626Y-100526481D01*
X143247769Y-101526481D02*
X143247769Y-100526481D01*
X143819198Y-101526481D01*
X143819198Y-100526481D01*
X144295388Y-101526481D02*
X144295388Y-100526481D01*
X144866817Y-101526481D01*
X144866817Y-100526481D01*
X145343007Y-101002671D02*
X145676341Y-101002671D01*
X145819198Y-101526481D02*
X145343007Y-101526481D01*
X145343007Y-100526481D01*
X145819198Y-100526481D01*
X146819198Y-101431243D02*
X146771579Y-101478862D01*
X146628722Y-101526481D01*
X146533484Y-101526481D01*
X146390626Y-101478862D01*
X146295388Y-101383624D01*
X146247769Y-101288386D01*
X146200150Y-101097910D01*
X146200150Y-100955052D01*
X146247769Y-100764576D01*
X146295388Y-100669338D01*
X146390626Y-100574100D01*
X146533484Y-100526481D01*
X146628722Y-100526481D01*
X146771579Y-100574100D01*
X146819198Y-100621719D01*
X147104912Y-100526481D02*
X147676341Y-100526481D01*
X147390626Y-101526481D02*
X147390626Y-100526481D01*
X148200150Y-100526481D02*
X148390627Y-100526481D01*
X148485865Y-100574100D01*
X148581103Y-100669338D01*
X148628722Y-100859814D01*
X148628722Y-101193148D01*
X148581103Y-101383624D01*
X148485865Y-101478862D01*
X148390627Y-101526481D01*
X148200150Y-101526481D01*
X148104912Y-101478862D01*
X148009674Y-101383624D01*
X147962055Y-101193148D01*
X147962055Y-100859814D01*
X148009674Y-100669338D01*
X148104912Y-100574100D01*
X148200150Y-100526481D01*
X149628722Y-101526481D02*
X149295388Y-101050290D01*
X149057293Y-101526481D02*
X149057293Y-100526481D01*
X149438246Y-100526481D01*
X149533484Y-100574100D01*
X149581103Y-100621719D01*
X149628722Y-100716957D01*
X149628722Y-100859814D01*
X149581103Y-100955052D01*
X149533484Y-101002671D01*
X149438246Y-101050290D01*
X149057293Y-101050290D01*
X139190641Y-82251017D02*
X139143022Y-82346255D01*
X139047784Y-82441493D01*
X138904927Y-82584350D01*
X138857308Y-82679589D01*
X138857308Y-82774827D01*
X139095403Y-82727208D02*
X139047784Y-82822446D01*
X138952546Y-82917684D01*
X138762070Y-82965303D01*
X138428736Y-82965303D01*
X138238260Y-82917684D01*
X138143022Y-82822446D01*
X138095403Y-82727208D01*
X138095403Y-82536731D01*
X138143022Y-82441493D01*
X138238260Y-82346255D01*
X138428736Y-82298636D01*
X138762070Y-82298636D01*
X138952546Y-82346255D01*
X139047784Y-82441493D01*
X139095403Y-82536731D01*
X139095403Y-82727208D01*
X139190641Y-82108160D02*
X139190641Y-81346255D01*
X139095403Y-81108160D02*
X138095403Y-81108160D01*
X139095403Y-80536731D01*
X138095403Y-80536731D01*
X139095403Y-80060541D02*
X138095403Y-80060541D01*
X138809689Y-79727207D01*
X138095403Y-79393874D01*
X139095403Y-79393874D01*
X138095403Y-78727208D02*
X138095403Y-78536731D01*
X138143022Y-78441493D01*
X138238260Y-78346255D01*
X138428736Y-78298636D01*
X138762070Y-78298636D01*
X138952546Y-78346255D01*
X139047784Y-78441493D01*
X139095403Y-78536731D01*
X139095403Y-78727208D01*
X139047784Y-78822446D01*
X138952546Y-78917684D01*
X138762070Y-78965303D01*
X138428736Y-78965303D01*
X138238260Y-78917684D01*
X138143022Y-78822446D01*
X138095403Y-78727208D01*
X139047784Y-77917684D02*
X139095403Y-77774827D01*
X139095403Y-77536731D01*
X139047784Y-77441493D01*
X139000165Y-77393874D01*
X138904927Y-77346255D01*
X138809689Y-77346255D01*
X138714451Y-77393874D01*
X138666832Y-77441493D01*
X138619212Y-77536731D01*
X138571593Y-77727208D01*
X138523974Y-77822446D01*
X138476355Y-77870065D01*
X138381117Y-77917684D01*
X138285879Y-77917684D01*
X138190641Y-77870065D01*
X138143022Y-77822446D01*
X138095403Y-77727208D01*
X138095403Y-77489112D01*
X138143022Y-77346255D01*
X139190641Y-77155779D02*
X139190641Y-76393874D01*
X139095403Y-76155779D02*
X138095403Y-76155779D01*
X138095403Y-75917684D01*
X138143022Y-75774826D01*
X138238260Y-75679588D01*
X138333498Y-75631969D01*
X138523974Y-75584350D01*
X138666832Y-75584350D01*
X138857308Y-75631969D01*
X138952546Y-75679588D01*
X139047784Y-75774826D01*
X139095403Y-75917684D01*
X139095403Y-76155779D01*
X138143022Y-74631969D02*
X138095403Y-74727207D01*
X138095403Y-74870064D01*
X138143022Y-75012922D01*
X138238260Y-75108160D01*
X138333498Y-75155779D01*
X138523974Y-75203398D01*
X138666832Y-75203398D01*
X138857308Y-75155779D01*
X138952546Y-75108160D01*
X139047784Y-75012922D01*
X139095403Y-74870064D01*
X139095403Y-74774826D01*
X139047784Y-74631969D01*
X139000165Y-74584350D01*
X138666832Y-74584350D01*
X138666832Y-74774826D01*
X139047784Y-74203398D02*
X139095403Y-74060541D01*
X139095403Y-73822445D01*
X139047784Y-73727207D01*
X139000165Y-73679588D01*
X138904927Y-73631969D01*
X138809689Y-73631969D01*
X138714451Y-73679588D01*
X138666832Y-73727207D01*
X138619212Y-73822445D01*
X138571593Y-74012922D01*
X138523974Y-74108160D01*
X138476355Y-74155779D01*
X138381117Y-74203398D01*
X138285879Y-74203398D01*
X138190641Y-74155779D01*
X138143022Y-74108160D01*
X138095403Y-74012922D01*
X138095403Y-73774826D01*
X138143022Y-73631969D01*
X144691736Y-92771201D02*
X145310784Y-92771201D01*
X144977450Y-93152153D01*
X145120308Y-93152153D01*
X145215546Y-93199772D01*
X145263165Y-93247391D01*
X145310784Y-93342630D01*
X145310784Y-93580725D01*
X145263165Y-93675963D01*
X145215546Y-93723582D01*
X145120308Y-93771201D01*
X144834593Y-93771201D01*
X144739355Y-93723582D01*
X144691736Y-93675963D01*
X145929831Y-92771201D02*
X146025070Y-92771201D01*
X146120308Y-92818820D01*
X146167927Y-92866439D01*
X146215546Y-92961677D01*
X146263165Y-93152153D01*
X146263165Y-93390249D01*
X146215546Y-93580725D01*
X146167927Y-93675963D01*
X146120308Y-93723582D01*
X146025070Y-93771201D01*
X145929831Y-93771201D01*
X145834593Y-93723582D01*
X145786974Y-93675963D01*
X145739355Y-93580725D01*
X145691736Y-93390249D01*
X145691736Y-93152153D01*
X145739355Y-92961677D01*
X145786974Y-92866439D01*
X145834593Y-92818820D01*
X145929831Y-92771201D01*
X146691736Y-93771201D02*
X146691736Y-92771201D01*
X147025070Y-93485487D01*
X147358403Y-92771201D01*
X147358403Y-93771201D01*
X147834593Y-93771201D02*
X147834593Y-92771201D01*
X147834593Y-93247391D02*
X148406022Y-93247391D01*
X148406022Y-93771201D02*
X148406022Y-92771201D01*
X148786974Y-93104534D02*
X149310784Y-93104534D01*
X148786974Y-93771201D01*
X149310784Y-93771201D01*
D14*
X146658403Y-95847391D02*
X146601260Y-95818820D01*
X146544117Y-95761677D01*
X146458403Y-95675963D01*
X146401260Y-95647391D01*
X146344117Y-95647391D01*
X146372689Y-95790249D02*
X146315546Y-95761677D01*
X146258403Y-95704534D01*
X146229832Y-95590249D01*
X146229832Y-95390249D01*
X146258403Y-95275963D01*
X146315546Y-95218820D01*
X146372689Y-95190249D01*
X146486975Y-95190249D01*
X146544117Y-95218820D01*
X146601260Y-95275963D01*
X146629832Y-95390249D01*
X146629832Y-95590249D01*
X146601260Y-95704534D01*
X146544117Y-95761677D01*
X146486975Y-95790249D01*
X146372689Y-95790249D01*
X146829831Y-95190249D02*
X147229831Y-95190249D01*
X146829831Y-95790249D01*
X147229831Y-95790249D01*
X147772689Y-95790249D02*
X147429832Y-95790249D01*
X147601260Y-95790249D02*
X147601260Y-95190249D01*
X147544117Y-95275963D01*
X147486975Y-95333106D01*
X147429832Y-95361677D01*
D12*
X129256287Y-85088437D02*
X129875335Y-85088437D01*
X129542001Y-85469389D01*
X129684859Y-85469389D01*
X129780097Y-85517008D01*
X129827716Y-85564627D01*
X129875335Y-85659866D01*
X129875335Y-85897961D01*
X129827716Y-85993199D01*
X129780097Y-86040818D01*
X129684859Y-86088437D01*
X129399144Y-86088437D01*
X129303906Y-86040818D01*
X129256287Y-85993199D01*
X130256287Y-85183675D02*
X130303906Y-85136056D01*
X130399144Y-85088437D01*
X130637240Y-85088437D01*
X130732478Y-85136056D01*
X130780097Y-85183675D01*
X130827716Y-85278913D01*
X130827716Y-85374151D01*
X130780097Y-85517008D01*
X130208668Y-86088437D01*
X130827716Y-86088437D01*
X131256287Y-86088437D02*
X131256287Y-85088437D01*
X131827716Y-86088437D02*
X131399144Y-85517008D01*
X131827716Y-85088437D02*
X131256287Y-85659866D01*
X132256287Y-86088437D02*
X132256287Y-85088437D01*
X132256287Y-85564627D02*
X132827716Y-85564627D01*
X132827716Y-86088437D02*
X132827716Y-85088437D01*
X133208668Y-85421770D02*
X133732478Y-85421770D01*
X133208668Y-86088437D01*
X133732478Y-86088437D01*
X130922954Y-82183675D02*
X130827716Y-82136056D01*
X130732478Y-82040818D01*
X130589621Y-81897961D01*
X130494382Y-81850342D01*
X130399144Y-81850342D01*
X130446763Y-82088437D02*
X130351525Y-82040818D01*
X130256287Y-81945580D01*
X130208668Y-81755104D01*
X130208668Y-81421770D01*
X130256287Y-81231294D01*
X130351525Y-81136056D01*
X130446763Y-81088437D01*
X130637240Y-81088437D01*
X130732478Y-81136056D01*
X130827716Y-81231294D01*
X130875335Y-81421770D01*
X130875335Y-81755104D01*
X130827716Y-81945580D01*
X130732478Y-82040818D01*
X130637240Y-82088437D01*
X130446763Y-82088437D01*
X131208668Y-81088437D02*
X131875335Y-81088437D01*
X131208668Y-82088437D01*
X131875335Y-82088437D01*
X132161049Y-81088437D02*
X132780097Y-81088437D01*
X132446763Y-81469389D01*
X132589621Y-81469389D01*
X132684859Y-81517008D01*
X132732478Y-81564627D01*
X132780097Y-81659866D01*
X132780097Y-81897961D01*
X132732478Y-81993199D01*
X132684859Y-82040818D01*
X132589621Y-82088437D01*
X132303906Y-82088437D01*
X132208668Y-82040818D01*
X132161049Y-81993199D01*
X154056241Y-93119355D02*
X154056241Y-93595546D01*
X154532431Y-93643165D01*
X154484812Y-93595546D01*
X154437193Y-93500308D01*
X154437193Y-93262212D01*
X154484812Y-93166974D01*
X154532431Y-93119355D01*
X154627670Y-93071736D01*
X154865765Y-93071736D01*
X154961003Y-93119355D01*
X155008622Y-93166974D01*
X155056241Y-93262212D01*
X155056241Y-93500308D01*
X155008622Y-93595546D01*
X154961003Y-93643165D01*
X154056241Y-92452689D02*
X154056241Y-92357450D01*
X154103860Y-92262212D01*
X154151479Y-92214593D01*
X154246717Y-92166974D01*
X154437193Y-92119355D01*
X154675289Y-92119355D01*
X154865765Y-92166974D01*
X154961003Y-92214593D01*
X155008622Y-92262212D01*
X155056241Y-92357450D01*
X155056241Y-92452689D01*
X155008622Y-92547927D01*
X154961003Y-92595546D01*
X154865765Y-92643165D01*
X154675289Y-92690784D01*
X154437193Y-92690784D01*
X154246717Y-92643165D01*
X154151479Y-92595546D01*
X154103860Y-92547927D01*
X154056241Y-92452689D01*
X139410143Y-80031883D02*
X139410143Y-80603312D01*
X139410143Y-80317598D02*
X138410143Y-80317598D01*
X138553000Y-80412836D01*
X138648238Y-80508074D01*
X138695857Y-80603312D01*
X139410143Y-79603312D02*
X138410143Y-79603312D01*
X139029191Y-79508074D02*
X139410143Y-79222359D01*
X138743476Y-79222359D02*
X139124429Y-79603312D01*
X135066743Y-84116203D02*
X135066743Y-84687632D01*
X135066743Y-84401918D02*
X134066743Y-84401918D01*
X134209600Y-84497156D01*
X134304838Y-84592394D01*
X134352457Y-84687632D01*
X135066743Y-83687632D02*
X134066743Y-83687632D01*
X134685791Y-83592394D02*
X135066743Y-83306679D01*
X134400076Y-83306679D02*
X134781029Y-83687632D01*
X138538401Y-85578324D02*
X138490782Y-85530705D01*
X138443163Y-85435467D01*
X138443163Y-85197371D01*
X138490782Y-85102133D01*
X138538401Y-85054514D01*
X138633639Y-85006895D01*
X138728877Y-85006895D01*
X138871734Y-85054514D01*
X139443163Y-85625943D01*
X139443163Y-85006895D01*
X139395544Y-84530705D02*
X139443163Y-84530705D01*
X139538401Y-84578324D01*
X139586020Y-84625943D01*
X138538401Y-84149753D02*
X138490782Y-84102134D01*
X138443163Y-84006896D01*
X138443163Y-83768800D01*
X138490782Y-83673562D01*
X138538401Y-83625943D01*
X138633639Y-83578324D01*
X138728877Y-83578324D01*
X138871734Y-83625943D01*
X139443163Y-84197372D01*
X139443163Y-83578324D01*
X139443163Y-83149753D02*
X138443163Y-83149753D01*
X139157449Y-82816419D01*
X138443163Y-82483086D01*
X139443163Y-82483086D01*
X138921983Y-79772057D02*
X139017222Y-79772057D01*
X139112460Y-79819676D01*
X139160079Y-79867295D01*
X139207698Y-79962533D01*
X139255317Y-80153009D01*
X139255317Y-80391105D01*
X139207698Y-80581581D01*
X139160079Y-80676819D01*
X139112460Y-80724438D01*
X139017222Y-80772057D01*
X138921983Y-80772057D01*
X138826745Y-80724438D01*
X138779126Y-80676819D01*
X138731507Y-80581581D01*
X138683888Y-80391105D01*
X138683888Y-80153009D01*
X138731507Y-79962533D01*
X138779126Y-79867295D01*
X138826745Y-79819676D01*
X138921983Y-79772057D01*
X135774846Y-92398594D02*
X135774846Y-93065261D01*
X135536750Y-92017642D02*
X135298655Y-92731928D01*
X135917703Y-92731928D01*
X136203417Y-92065261D02*
X136870084Y-92065261D01*
X136441512Y-93065261D01*
X137251036Y-93065261D02*
X137251036Y-92065261D01*
X137822465Y-93065261D02*
X137393893Y-92493832D01*
X137822465Y-92065261D02*
X137251036Y-92636690D01*
X125736136Y-82757120D02*
X126402803Y-82757120D01*
X125355184Y-82995216D02*
X126069470Y-83233311D01*
X126069470Y-82614263D01*
X125402803Y-82328549D02*
X125402803Y-81661882D01*
X126402803Y-82090454D01*
X125402803Y-81090454D02*
X125402803Y-80995215D01*
X125450422Y-80899977D01*
X125498041Y-80852358D01*
X125593279Y-80804739D01*
X125783755Y-80757120D01*
X126021851Y-80757120D01*
X126212327Y-80804739D01*
X126307565Y-80852358D01*
X126355184Y-80899977D01*
X126402803Y-80995215D01*
X126402803Y-81090454D01*
X126355184Y-81185692D01*
X126307565Y-81233311D01*
X126212327Y-81280930D01*
X126021851Y-81328549D01*
X125783755Y-81328549D01*
X125593279Y-81280930D01*
X125498041Y-81233311D01*
X125450422Y-81185692D01*
X125402803Y-81090454D01*
X151587361Y-96006939D02*
X151587361Y-95911700D01*
X151634980Y-95816462D01*
X151682599Y-95768843D01*
X151777837Y-95721224D01*
X151968313Y-95673605D01*
X152206409Y-95673605D01*
X152396885Y-95721224D01*
X152492123Y-95768843D01*
X152539742Y-95816462D01*
X152587361Y-95911700D01*
X152587361Y-96006939D01*
X152539742Y-96102177D01*
X152492123Y-96149796D01*
X152396885Y-96197415D01*
X152206409Y-96245034D01*
X151968313Y-96245034D01*
X151777837Y-96197415D01*
X151682599Y-96149796D01*
X151634980Y-96102177D01*
X151587361Y-96006939D01*
X134999743Y-74958775D02*
X134999743Y-74863536D01*
X135047362Y-74768298D01*
X135094981Y-74720679D01*
X135190219Y-74673060D01*
X135380695Y-74625441D01*
X135618791Y-74625441D01*
X135809267Y-74673060D01*
X135904505Y-74720679D01*
X135952124Y-74768298D01*
X135999743Y-74863536D01*
X135999743Y-74958775D01*
X135952124Y-75054013D01*
X135904505Y-75101632D01*
X135809267Y-75149251D01*
X135618791Y-75196870D01*
X135380695Y-75196870D01*
X135190219Y-75149251D01*
X135094981Y-75101632D01*
X135047362Y-75054013D01*
X134999743Y-74958775D01*
X144444609Y-87223142D02*
X144587466Y-87270761D01*
X144825562Y-87270761D01*
X144920800Y-87223142D01*
X144968419Y-87175523D01*
X145016038Y-87080285D01*
X145016038Y-86985047D01*
X144968419Y-86889809D01*
X144920800Y-86842190D01*
X144825562Y-86794570D01*
X144635085Y-86746951D01*
X144539847Y-86699332D01*
X144492228Y-86651713D01*
X144444609Y-86556475D01*
X144444609Y-86461237D01*
X144492228Y-86365999D01*
X144539847Y-86318380D01*
X144635085Y-86270761D01*
X144873181Y-86270761D01*
X145016038Y-86318380D01*
X145444609Y-87270761D02*
X145444609Y-86270761D01*
X146349371Y-86604094D02*
X146349371Y-87270761D01*
X146111275Y-86223142D02*
X145873180Y-86937428D01*
X146492228Y-86937428D01*
X147301752Y-86604094D02*
X147301752Y-87270761D01*
X147063656Y-86223142D02*
X146825561Y-86937428D01*
X147444609Y-86937428D01*
X147730323Y-86270761D02*
X148349371Y-86270761D01*
X148016037Y-86651713D01*
X148158895Y-86651713D01*
X148254133Y-86699332D01*
X148301752Y-86746951D01*
X148349371Y-86842190D01*
X148349371Y-87080285D01*
X148301752Y-87175523D01*
X148254133Y-87223142D01*
X148158895Y-87270761D01*
X147873180Y-87270761D01*
X147777942Y-87223142D01*
X147730323Y-87175523D01*
X148730323Y-86365999D02*
X148777942Y-86318380D01*
X148873180Y-86270761D01*
X149111276Y-86270761D01*
X149206514Y-86318380D01*
X149254133Y-86365999D01*
X149301752Y-86461237D01*
X149301752Y-86556475D01*
X149254133Y-86699332D01*
X148682704Y-87270761D01*
X149301752Y-87270761D01*
X150063657Y-86746951D02*
X150206514Y-86794570D01*
X150254133Y-86842190D01*
X150301752Y-86937428D01*
X150301752Y-87080285D01*
X150254133Y-87175523D01*
X150206514Y-87223142D01*
X150111276Y-87270761D01*
X149730323Y-87270761D01*
X149730323Y-86270761D01*
X150063657Y-86270761D01*
X150158895Y-86318380D01*
X150206514Y-86365999D01*
X150254133Y-86461237D01*
X150254133Y-86556475D01*
X150206514Y-86651713D01*
X150158895Y-86699332D01*
X150063657Y-86746951D01*
X149730323Y-86746951D01*
X126116770Y-75587537D02*
X126116770Y-74587537D01*
X126450104Y-75301823D01*
X126783437Y-74587537D01*
X126783437Y-75587537D01*
X127212008Y-75539918D02*
X127354865Y-75587537D01*
X127592961Y-75587537D01*
X127688199Y-75539918D01*
X127735818Y-75492299D01*
X127783437Y-75397061D01*
X127783437Y-75301823D01*
X127735818Y-75206585D01*
X127688199Y-75158966D01*
X127592961Y-75111346D01*
X127402484Y-75063727D01*
X127307246Y-75016108D01*
X127259627Y-74968489D01*
X127212008Y-74873251D01*
X127212008Y-74778013D01*
X127259627Y-74682775D01*
X127307246Y-74635156D01*
X127402484Y-74587537D01*
X127640580Y-74587537D01*
X127783437Y-74635156D01*
X128212008Y-75587537D02*
X128212008Y-74587537D01*
X128592961Y-74587537D01*
X128688199Y-74635156D01*
X128735818Y-74682775D01*
X128783437Y-74778013D01*
X128783437Y-74920870D01*
X128735818Y-75016108D01*
X128688199Y-75063727D01*
X128592961Y-75111346D01*
X128212008Y-75111346D01*
X129640580Y-74920870D02*
X129640580Y-75587537D01*
X129402484Y-74539918D02*
X129164389Y-75254204D01*
X129783437Y-75254204D01*
X130069151Y-74587537D02*
X130688199Y-74587537D01*
X130354865Y-74968489D01*
X130497723Y-74968489D01*
X130592961Y-75016108D01*
X130640580Y-75063727D01*
X130688199Y-75158966D01*
X130688199Y-75397061D01*
X130640580Y-75492299D01*
X130592961Y-75539918D01*
X130497723Y-75587537D01*
X130212008Y-75587537D01*
X130116770Y-75539918D01*
X130069151Y-75492299D01*
X131307246Y-74587537D02*
X131402485Y-74587537D01*
X131497723Y-74635156D01*
X131545342Y-74682775D01*
X131592961Y-74778013D01*
X131640580Y-74968489D01*
X131640580Y-75206585D01*
X131592961Y-75397061D01*
X131545342Y-75492299D01*
X131497723Y-75539918D01*
X131402485Y-75587537D01*
X131307246Y-75587537D01*
X131212008Y-75539918D01*
X131164389Y-75492299D01*
X131116770Y-75397061D01*
X131069151Y-75206585D01*
X131069151Y-74968489D01*
X131116770Y-74778013D01*
X131164389Y-74682775D01*
X131212008Y-74635156D01*
X131307246Y-74587537D01*
X132592961Y-74635156D02*
X132497723Y-74587537D01*
X132354866Y-74587537D01*
X132212008Y-74635156D01*
X132116770Y-74730394D01*
X132069151Y-74825632D01*
X132021532Y-75016108D01*
X132021532Y-75158966D01*
X132069151Y-75349442D01*
X132116770Y-75444680D01*
X132212008Y-75539918D01*
X132354866Y-75587537D01*
X132450104Y-75587537D01*
X132592961Y-75539918D01*
X132640580Y-75492299D01*
X132640580Y-75158966D01*
X132450104Y-75158966D01*
X133021532Y-74682775D02*
X133069151Y-74635156D01*
X133164389Y-74587537D01*
X133402485Y-74587537D01*
X133497723Y-74635156D01*
X133545342Y-74682775D01*
X133592961Y-74778013D01*
X133592961Y-74873251D01*
X133545342Y-75016108D01*
X132973913Y-75587537D01*
X133592961Y-75587537D01*
X134450104Y-74920870D02*
X134450104Y-75587537D01*
X134212008Y-74539918D02*
X133973913Y-75254204D01*
X134592961Y-75254204D01*
X134878675Y-74587537D02*
X135497723Y-74587537D01*
X135164389Y-74968489D01*
X135307247Y-74968489D01*
X135402485Y-75016108D01*
X135450104Y-75063727D01*
X135497723Y-75158966D01*
X135497723Y-75397061D01*
X135450104Y-75492299D01*
X135402485Y-75539918D01*
X135307247Y-75587537D01*
X135021532Y-75587537D01*
X134926294Y-75539918D01*
X134878675Y-75492299D01*
X135831056Y-74587537D02*
X136450104Y-74587537D01*
X136116770Y-74968489D01*
X136259628Y-74968489D01*
X136354866Y-75016108D01*
X136402485Y-75063727D01*
X136450104Y-75158966D01*
X136450104Y-75397061D01*
X136402485Y-75492299D01*
X136354866Y-75539918D01*
X136259628Y-75587537D01*
X135973913Y-75587537D01*
X135878675Y-75539918D01*
X135831056Y-75492299D01*
X136878675Y-75587537D02*
X136878675Y-74587537D01*
X137926294Y-75587537D02*
X137592960Y-75111346D01*
X137354865Y-75587537D02*
X137354865Y-74587537D01*
X137735818Y-74587537D01*
X137831056Y-74635156D01*
X137878675Y-74682775D01*
X137926294Y-74778013D01*
X137926294Y-74920870D01*
X137878675Y-75016108D01*
X137831056Y-75063727D01*
X137735818Y-75111346D01*
X137354865Y-75111346D01*
X138354865Y-75587537D02*
X138354865Y-74587537D01*
X138354865Y-75063727D02*
X138926294Y-75063727D01*
X138926294Y-75587537D02*
X138926294Y-74587537D01*
X139402484Y-75587537D02*
X139402484Y-74587537D01*
X139973913Y-75587537D01*
X139973913Y-74587537D01*
X140354865Y-74587537D02*
X140973913Y-74587537D01*
X140640579Y-74968489D01*
X140783437Y-74968489D01*
X140878675Y-75016108D01*
X140926294Y-75063727D01*
X140973913Y-75158966D01*
X140973913Y-75397061D01*
X140926294Y-75492299D01*
X140878675Y-75539918D01*
X140783437Y-75587537D01*
X140497722Y-75587537D01*
X140402484Y-75539918D01*
X140354865Y-75492299D01*
X141354865Y-74682775D02*
X141402484Y-74635156D01*
X141497722Y-74587537D01*
X141735818Y-74587537D01*
X141831056Y-74635156D01*
X141878675Y-74682775D01*
X141926294Y-74778013D01*
X141926294Y-74873251D01*
X141878675Y-75016108D01*
X141307246Y-75587537D01*
X141926294Y-75587537D01*
X152095391Y-94234581D02*
X152095391Y-95044105D01*
X152143010Y-95139343D01*
X152190629Y-95186962D01*
X152285867Y-95234581D01*
X152476344Y-95234581D01*
X152571582Y-95186962D01*
X152619201Y-95139343D01*
X152666820Y-95044105D01*
X152666820Y-94234581D01*
X153143010Y-95234581D02*
X153143010Y-94234581D01*
X153523963Y-94234581D01*
X153619201Y-94282200D01*
X153666820Y-94329819D01*
X153714439Y-94425057D01*
X153714439Y-94567914D01*
X153666820Y-94663152D01*
X153619201Y-94710771D01*
X153523963Y-94758390D01*
X153143010Y-94758390D01*
X154666820Y-94282200D02*
X154571582Y-94234581D01*
X154428725Y-94234581D01*
X154285867Y-94282200D01*
X154190629Y-94377438D01*
X154143010Y-94472676D01*
X154095391Y-94663152D01*
X154095391Y-94806010D01*
X154143010Y-94996486D01*
X154190629Y-95091724D01*
X154285867Y-95186962D01*
X154428725Y-95234581D01*
X154523963Y-95234581D01*
X154666820Y-95186962D01*
X154714439Y-95139343D01*
X154714439Y-94806010D01*
X154523963Y-94806010D01*
X155095391Y-94329819D02*
X155143010Y-94282200D01*
X155238248Y-94234581D01*
X155476344Y-94234581D01*
X155571582Y-94282200D01*
X155619201Y-94329819D01*
X155666820Y-94425057D01*
X155666820Y-94520295D01*
X155619201Y-94663152D01*
X155047772Y-95234581D01*
X155666820Y-95234581D01*
X156047772Y-94329819D02*
X156095391Y-94282200D01*
X156190629Y-94234581D01*
X156428725Y-94234581D01*
X156523963Y-94282200D01*
X156571582Y-94329819D01*
X156619201Y-94425057D01*
X156619201Y-94520295D01*
X156571582Y-94663152D01*
X156000153Y-95234581D01*
X156619201Y-95234581D01*
X157571582Y-95234581D02*
X157000153Y-95234581D01*
X157285867Y-95234581D02*
X157285867Y-94234581D01*
X157190629Y-94377438D01*
X157095391Y-94472676D01*
X157000153Y-94520295D01*
X158428725Y-94567914D02*
X158428725Y-95234581D01*
X158190629Y-94186962D02*
X157952534Y-94901248D01*
X158571582Y-94901248D01*
X158809677Y-94234581D02*
X159381106Y-94234581D01*
X159095391Y-95234581D02*
X159095391Y-94234581D01*
X160047773Y-94710771D02*
X160190630Y-94758390D01*
X160238249Y-94806010D01*
X160285868Y-94901248D01*
X160285868Y-95044105D01*
X160238249Y-95139343D01*
X160190630Y-95186962D01*
X160095392Y-95234581D01*
X159714439Y-95234581D01*
X159714439Y-94234581D01*
X160047773Y-94234581D01*
X160143011Y-94282200D01*
X160190630Y-94329819D01*
X160238249Y-94425057D01*
X160238249Y-94520295D01*
X160190630Y-94615533D01*
X160143011Y-94663152D01*
X160047773Y-94710771D01*
X159714439Y-94710771D01*
D15*
X155814270Y-92119212D02*
X156219032Y-92119212D01*
X156266651Y-92095403D01*
X156290461Y-92071593D01*
X156314270Y-92023974D01*
X156314270Y-91928736D01*
X156290461Y-91881117D01*
X156266651Y-91857308D01*
X156219032Y-91833498D01*
X155814270Y-91833498D01*
X155814270Y-91357307D02*
X155814270Y-91595402D01*
X156052366Y-91619212D01*
X156028556Y-91595402D01*
X156004747Y-91547783D01*
X156004747Y-91428736D01*
X156028556Y-91381117D01*
X156052366Y-91357307D01*
X156099985Y-91333498D01*
X156219032Y-91333498D01*
X156266651Y-91357307D01*
X156290461Y-91381117D01*
X156314270Y-91428736D01*
X156314270Y-91547783D01*
X156290461Y-91595402D01*
X156266651Y-91619212D01*
M02*
