G04 #@! TF.FileFunction,Copper,L2,Bot,Signal*
%FSLAX46Y46*%
G04 Gerber Fmt 4.6, Leading zero omitted, Abs format (unit mm)*
G04 Created by KiCad (PCBNEW 4.0.2+dfsg1-stable) date ven 28 dic 2018 11:35:04 CET*
%MOMM*%
G01*
G04 APERTURE LIST*
%ADD10C,0.100000*%
%ADD11C,1.000760*%
%ADD12C,0.762000*%
%ADD13R,1.000000X1.000000*%
%ADD14C,1.000000*%
%ADD15R,0.800000X0.800000*%
%ADD16O,0.800000X0.800000*%
%ADD17R,1.350000X1.350000*%
%ADD18C,1.350000*%
%ADD19C,0.600000*%
%ADD20C,0.250000*%
%ADD21C,0.254000*%
G04 APERTURE END LIST*
D10*
X173697120Y-70957440D02*
X121697120Y-70957440D01*
X173697120Y-100957440D02*
X173697120Y-70957440D01*
X121697120Y-100957440D02*
X173697120Y-100957440D01*
X121697120Y-70957440D02*
X121697120Y-100957440D01*
D11*
X166657020Y-82014060D02*
X167657780Y-83014820D01*
X167657780Y-83014820D02*
X171658280Y-83014820D01*
X171658280Y-83014820D02*
X172656500Y-84013040D01*
X172656500Y-82014060D02*
X171658280Y-81013300D01*
X171658280Y-81013300D02*
X167657780Y-81013300D01*
X167657780Y-81013300D02*
X166657020Y-80015080D01*
X167657780Y-79014320D02*
X166657020Y-78013560D01*
X167657780Y-79014320D02*
X171658280Y-79014320D01*
X171658280Y-79014320D02*
X172656500Y-80015080D01*
X172656500Y-78013560D02*
X171658280Y-77012800D01*
X171658280Y-77012800D02*
X167657780Y-77012800D01*
X167657780Y-77012800D02*
X166657020Y-76014580D01*
X167657780Y-75013820D02*
X166657020Y-74013060D01*
X167657780Y-73014840D02*
X166657020Y-72014080D01*
X167657780Y-73014840D02*
X171658280Y-73014840D01*
X171658280Y-73014840D02*
X172656500Y-74013060D01*
X171658280Y-75013820D02*
X172656500Y-76014580D01*
X171658280Y-75013820D02*
X167657780Y-75013820D01*
X166657020Y-84013040D02*
X167657780Y-85013800D01*
X166657020Y-86014560D02*
X167657780Y-87012780D01*
X167657780Y-87012780D02*
X171658280Y-87012780D01*
X171658280Y-87012780D02*
X172656500Y-88013540D01*
X172656500Y-86014560D02*
X171658280Y-85013800D01*
X171658280Y-85013800D02*
X167657780Y-85013800D01*
X166657020Y-88013540D02*
X167657780Y-89014300D01*
X167657780Y-89014300D02*
X171658280Y-89014300D01*
X171658280Y-89014300D02*
X172656500Y-90015060D01*
D12*
X166657020Y-82014060D03*
X166657020Y-84013040D03*
X166730680Y-84046060D03*
X166657020Y-86014560D03*
X166657020Y-88013540D03*
X172656500Y-88013540D03*
X172656500Y-86014560D03*
X172656500Y-84013040D03*
X172656500Y-82014060D03*
X172656500Y-80015080D03*
X172656500Y-78013560D03*
X172656500Y-76014580D03*
X172656500Y-74013060D03*
X172656500Y-72014080D03*
X166657020Y-72014080D03*
X166657020Y-74013060D03*
X166657020Y-76014580D03*
X166657020Y-78013560D03*
X166657020Y-80015080D03*
X172656500Y-90015060D03*
D13*
X128856740Y-72787320D03*
D14*
X131356740Y-72787320D03*
X133856740Y-72787320D03*
X136356740Y-72787320D03*
X138856740Y-72787320D03*
X141356740Y-72787320D03*
X143856740Y-72787320D03*
X146356740Y-72787320D03*
D15*
X136472620Y-97914460D03*
D16*
X135222620Y-97914460D03*
X133972620Y-97914460D03*
X132722620Y-97914460D03*
D17*
X123489720Y-95041720D03*
D18*
X123489720Y-97541720D03*
D15*
X142801340Y-97824100D03*
D16*
X141551340Y-97824100D03*
D19*
X147931980Y-90656380D03*
X146814380Y-90656380D03*
X147931980Y-89640380D03*
X146814380Y-89640380D03*
X135216922Y-80104356D03*
X133997722Y-80104356D03*
X132778522Y-80104356D03*
X135216922Y-78935956D03*
X133997722Y-78935956D03*
X132778522Y-78935956D03*
X135216922Y-77818356D03*
X133997722Y-77818356D03*
X132778522Y-77818356D03*
X134232682Y-84148740D03*
X137342880Y-84059840D03*
X146273520Y-74285920D03*
X136753600Y-87838280D03*
X136098280Y-90881200D03*
X150093680Y-88374220D03*
X147794980Y-71889620D03*
X149971760Y-72407780D03*
X148706840Y-73286620D03*
X147622260Y-74668380D03*
X149928580Y-74635360D03*
X148315680Y-76194920D03*
X146204940Y-76763880D03*
X146865340Y-77769720D03*
X149778720Y-77152500D03*
X148488400Y-78506320D03*
X145694400Y-79321660D03*
X147253960Y-79989680D03*
X149377400Y-80032860D03*
X147622260Y-81960720D03*
X146192240Y-81348580D03*
X145608040Y-83332320D03*
X146936460Y-83268820D03*
X149329140Y-81831180D03*
X148960840Y-83731100D03*
X147683220Y-84749640D03*
X148506180Y-85658960D03*
X150921720Y-85648800D03*
X149936200Y-84609940D03*
X150695660Y-82572860D03*
X152872440Y-82951320D03*
X151505920Y-84122260D03*
X152920700Y-85669120D03*
X153880820Y-83840320D03*
X154584400Y-85064600D03*
X154886660Y-82529680D03*
X156339540Y-83342480D03*
X156359860Y-85031580D03*
X158059120Y-82974180D03*
X157647640Y-84307680D03*
X159273240Y-84058760D03*
X158775400Y-85531960D03*
X157398720Y-86062820D03*
X159382460Y-86842600D03*
X160561020Y-85585300D03*
X161513520Y-86786720D03*
X160583880Y-87815420D03*
X159230060Y-88249760D03*
X158658940Y-89697280D03*
X159986980Y-89321640D03*
X161645600Y-88973660D03*
X161157920Y-90175080D03*
X161394140Y-91404440D03*
X161493200Y-99806760D03*
X161544000Y-94632780D03*
X161643060Y-98115120D03*
X161617660Y-96174560D03*
X160848040Y-99034600D03*
X159677100Y-99781360D03*
X159753300Y-98165920D03*
X160299400Y-96946720D03*
X159359600Y-96032320D03*
X158882080Y-97144840D03*
X158633160Y-98762820D03*
X157937200Y-99832160D03*
X157289500Y-98264980D03*
X156791660Y-96697800D03*
X156022040Y-98539300D03*
X156395420Y-100154740D03*
X155074620Y-99334320D03*
X155275280Y-97518220D03*
X154180540Y-98389440D03*
X154005280Y-100004880D03*
X152638760Y-99532440D03*
X151592280Y-97866200D03*
X151244300Y-99755960D03*
X149926040Y-100030280D03*
X148633180Y-99832160D03*
X147114260Y-99982020D03*
X145869660Y-100025200D03*
X138544543Y-82931876D03*
X138526520Y-85340000D03*
X126479300Y-75740260D03*
X157667960Y-94308740D03*
X157667960Y-88896000D03*
X131884413Y-83506430D03*
X131528049Y-82063489D03*
X129388508Y-89029978D03*
X128189988Y-80865077D03*
X129704374Y-79799947D03*
X127554331Y-79684145D03*
X144543168Y-91004586D03*
X143428720Y-93366400D03*
X130195179Y-79010136D03*
X138460300Y-77966925D03*
X136352280Y-73947020D03*
X131622710Y-81269097D03*
X140195300Y-73935400D03*
X139821920Y-92562680D03*
X142102840Y-84552600D03*
X139127743Y-93621775D03*
X139423140Y-82931876D03*
X137906940Y-80922940D03*
X137947220Y-75210480D03*
X137744530Y-82931876D03*
X137288458Y-78639770D03*
X144052098Y-91636146D03*
X139085320Y-77284580D03*
X145174955Y-92458525D03*
X146262857Y-93111140D03*
X130412036Y-77075162D03*
X129237031Y-78159369D03*
X148633180Y-93358780D03*
D20*
X134321582Y-84059840D02*
X134232682Y-84148740D01*
X137342880Y-84059840D02*
X134321582Y-84059840D01*
X146273520Y-74285920D02*
X146273520Y-72870540D01*
X146273520Y-72870540D02*
X146356740Y-72787320D01*
X135188960Y-98513805D02*
X135188960Y-96415860D01*
X135222620Y-97914460D02*
X135222620Y-98480145D01*
X135222620Y-98480145D02*
X135188960Y-98513805D01*
X136098280Y-90881200D02*
X136098280Y-88493600D01*
X136098280Y-88493600D02*
X136753600Y-87838280D01*
X150093680Y-88374220D02*
X149995700Y-88374220D01*
X149995700Y-88374220D02*
X149854920Y-88515000D01*
X148706840Y-73286620D02*
X149092920Y-73286620D01*
X149092920Y-73286620D02*
X149971760Y-72407780D01*
X149928580Y-74635360D02*
X147655280Y-74635360D01*
X147655280Y-74635360D02*
X147622260Y-74668380D01*
X146204940Y-76763880D02*
X147746720Y-76763880D01*
X147746720Y-76763880D02*
X148315680Y-76194920D01*
X149778720Y-77152500D02*
X147482560Y-77152500D01*
X147482560Y-77152500D02*
X146865340Y-77769720D01*
X145694400Y-79321660D02*
X147673060Y-79321660D01*
X147673060Y-79321660D02*
X148488400Y-78506320D01*
X147253960Y-72463538D02*
X147253960Y-79989680D01*
X147253960Y-79989680D02*
X147253960Y-85489776D01*
X147622260Y-81960720D02*
X149377400Y-80205580D01*
X149377400Y-80205580D02*
X149377400Y-80032860D01*
X145608040Y-83332320D02*
X145608040Y-81932780D01*
X145608040Y-81932780D02*
X146192240Y-81348580D01*
X149329140Y-81831180D02*
X148374100Y-81831180D01*
X148374100Y-81831180D02*
X146936460Y-83268820D01*
X147683220Y-84749640D02*
X147942300Y-84749640D01*
X147942300Y-84749640D02*
X148960840Y-83731100D01*
X150921720Y-85648800D02*
X148516340Y-85648800D01*
X148516340Y-85648800D02*
X148506180Y-85658960D01*
X150695660Y-82572860D02*
X150695660Y-83850480D01*
X150695660Y-83850480D02*
X149936200Y-84609940D01*
X151505920Y-84122260D02*
X151701500Y-84122260D01*
X151701500Y-84122260D02*
X152872440Y-82951320D01*
X153880820Y-83840320D02*
X153880820Y-84709000D01*
X153880820Y-84709000D02*
X152920700Y-85669120D01*
X154886660Y-82529680D02*
X154886660Y-84762340D01*
X154886660Y-84762340D02*
X154584400Y-85064600D01*
X156359860Y-85031580D02*
X156359860Y-83362800D01*
X156359860Y-83362800D02*
X156339540Y-83342480D01*
X157647640Y-84307680D02*
X157647640Y-83385660D01*
X157647640Y-83385660D02*
X158059120Y-82974180D01*
X158775400Y-85531960D02*
X158775400Y-84556600D01*
X158775400Y-84556600D02*
X159273240Y-84058760D01*
X157756860Y-86420960D02*
X157398720Y-86062820D01*
X160561020Y-85585300D02*
X160561020Y-85664040D01*
X160561020Y-85664040D02*
X159382460Y-86842600D01*
X160583880Y-87815420D02*
X160583880Y-87716360D01*
X160583880Y-87716360D02*
X161513520Y-86786720D01*
X158658940Y-89697280D02*
X158658940Y-88820880D01*
X158658940Y-88820880D02*
X159230060Y-88249760D01*
X159986980Y-89321640D02*
X159034580Y-89321640D01*
X159034580Y-89321640D02*
X158658940Y-89697280D01*
X161157920Y-90175080D02*
X161157920Y-89461340D01*
X161157920Y-89461340D02*
X161645600Y-88973660D01*
X161544000Y-94632780D02*
X161544000Y-91554300D01*
X161544000Y-91554300D02*
X161394140Y-91404440D01*
X161643060Y-98115120D02*
X161643060Y-94731840D01*
X161643060Y-94731840D02*
X161544000Y-94632780D01*
X160848040Y-99034600D02*
X160848040Y-96944180D01*
X160848040Y-96944180D02*
X161617660Y-96174560D01*
X159753300Y-98165920D02*
X159753300Y-99705160D01*
X159753300Y-99705160D02*
X159677100Y-99781360D01*
X159303720Y-95951040D02*
X160299400Y-96946720D01*
X158633160Y-98762820D02*
X158633160Y-97393760D01*
X158633160Y-97393760D02*
X158882080Y-97144840D01*
X157289500Y-98264980D02*
X157289500Y-99184460D01*
X157289500Y-99184460D02*
X157937200Y-99832160D01*
X156395420Y-100154740D02*
X156395420Y-98912680D01*
X156395420Y-98912680D02*
X156022040Y-98539300D01*
X155275280Y-97518220D02*
X155275280Y-99133660D01*
X155275280Y-99133660D02*
X155074620Y-99334320D01*
X154005280Y-100004880D02*
X154005280Y-98564700D01*
X154005280Y-98564700D02*
X154180540Y-98389440D01*
X151592280Y-97866200D02*
X151592280Y-98485960D01*
X151592280Y-98485960D02*
X152638760Y-99532440D01*
X149926040Y-100030280D02*
X150969980Y-100030280D01*
X150969980Y-100030280D02*
X151244300Y-99755960D01*
X147114260Y-99982020D02*
X148483320Y-99982020D01*
X148483320Y-99982020D02*
X148633180Y-99832160D01*
X128856740Y-72787320D02*
X128856740Y-73537320D01*
X128856740Y-73537320D02*
X126653800Y-75740260D01*
X126653800Y-75740260D02*
X126479300Y-75740260D01*
X138526520Y-82949899D02*
X138544543Y-82931876D01*
X138526520Y-85340000D02*
X138526520Y-82949899D01*
X131527658Y-71395400D02*
X146185822Y-71395400D01*
X146185822Y-71395400D02*
X147253960Y-72463538D01*
X147253960Y-85489776D02*
X147253960Y-85914040D01*
X128856740Y-72787320D02*
X130135738Y-72787320D01*
X130135738Y-72787320D02*
X131527658Y-71395400D01*
X138526520Y-85340000D02*
X138526520Y-89571960D01*
X149854920Y-88515000D02*
X147253960Y-85914040D01*
X142801340Y-97824100D02*
X142801340Y-97174100D01*
X142801340Y-97174100D02*
X142822761Y-97152679D01*
X128833880Y-72810180D02*
X128856740Y-72787320D01*
X157667960Y-88896000D02*
X157667960Y-94308740D01*
X131528049Y-83150066D02*
X131584414Y-83206431D01*
X131528049Y-82063489D02*
X131528049Y-83150066D01*
X131584414Y-83206431D02*
X131884413Y-83506430D01*
X141356740Y-72787320D02*
X140531739Y-71962319D01*
X128179332Y-80854421D02*
X128189988Y-80865077D01*
X133460739Y-71962319D02*
X128179332Y-77243726D01*
X128179332Y-77243726D02*
X128179332Y-80854421D01*
X140531739Y-71962319D02*
X133460739Y-71962319D01*
X129088509Y-88729979D02*
X129388508Y-89029978D01*
X128189988Y-80865077D02*
X128189988Y-87831458D01*
X128189988Y-87831458D02*
X129088509Y-88729979D01*
X144429911Y-98216942D02*
X143641222Y-99005631D01*
X143641222Y-99005631D02*
X140689620Y-99005631D01*
X129745168Y-80265005D02*
X129704374Y-80224211D01*
X129745168Y-87188814D02*
X129745168Y-80265005D01*
X144429911Y-92309771D02*
X144429911Y-98216942D01*
X144843167Y-91896515D02*
X144429911Y-92309771D01*
X129704374Y-80224211D02*
X129704374Y-79799947D01*
X144843167Y-91304585D02*
X144843167Y-91896515D01*
X127554331Y-79259881D02*
X127554331Y-79684145D01*
X127554331Y-76589729D02*
X127554331Y-79259881D01*
X131356740Y-72787320D02*
X127554331Y-76589729D01*
X130913531Y-88357177D02*
X129745168Y-87188814D01*
X140689620Y-99005631D02*
X130913531Y-89229542D01*
X130913531Y-89229542D02*
X130913531Y-88357177D01*
X144543168Y-91004586D02*
X144843167Y-91304585D01*
X143979900Y-98030542D02*
X143979900Y-94341844D01*
X141216377Y-98549101D02*
X143461341Y-98549101D01*
X131363542Y-88709302D02*
X141209858Y-98555620D01*
X130195179Y-80234144D02*
X130195179Y-87002414D01*
X130195179Y-87002414D02*
X131363542Y-88170777D01*
X143428720Y-93790664D02*
X143428720Y-93366400D01*
X130329375Y-80099948D02*
X130195179Y-80234144D01*
X143979900Y-94341844D02*
X143428720Y-93790664D01*
X130329375Y-79144332D02*
X130329375Y-80099948D01*
X130195179Y-79010136D02*
X130329375Y-79144332D01*
X131363542Y-88170777D02*
X131363542Y-88709302D01*
X141209858Y-98555620D02*
X141216377Y-98549101D01*
X143461341Y-98549101D02*
X143979900Y-98030542D01*
X130370188Y-78835127D02*
X130195179Y-79010136D01*
X133856740Y-74514369D02*
X130370188Y-78000921D01*
X133856740Y-72787320D02*
X133856740Y-74514369D01*
X130370188Y-78000921D02*
X130370188Y-78835127D01*
X138856740Y-76588156D02*
X138460300Y-76984596D01*
X138856740Y-72787320D02*
X138856740Y-76588156D01*
X138460300Y-77542661D02*
X138460300Y-77966925D01*
X138460300Y-76984596D02*
X138460300Y-77542661D01*
X136314180Y-79932100D02*
X136314180Y-73985120D01*
X136314180Y-73985120D02*
X136352280Y-73947020D01*
X131622710Y-81269097D02*
X134977183Y-81269097D01*
X134977183Y-81269097D02*
X136314180Y-79932100D01*
X131922709Y-80969098D02*
X131622710Y-81269097D01*
X143856740Y-72787320D02*
X142708660Y-73935400D01*
X142708660Y-73935400D02*
X140195300Y-73935400D01*
X139821920Y-92562680D02*
X140121919Y-92262681D01*
X142822761Y-91168199D02*
X142822761Y-90295199D01*
X140121919Y-92262681D02*
X141728279Y-92262681D01*
X141728279Y-92262681D02*
X142822761Y-91168199D01*
X142822761Y-90295199D02*
X142800909Y-90273347D01*
X142800909Y-90273347D02*
X142800909Y-85250669D01*
X142800909Y-85250669D02*
X142102840Y-84552600D01*
X139127743Y-92331855D02*
X139127743Y-93197511D01*
X139127743Y-93197511D02*
X139127743Y-93621775D01*
X139423140Y-92036458D02*
X139127743Y-92331855D01*
X139423140Y-82931876D02*
X139423140Y-92036458D01*
X138206939Y-80622941D02*
X137906940Y-80922940D01*
X138206939Y-78638566D02*
X138206939Y-80622941D01*
X137835299Y-78266926D02*
X138206939Y-78638566D01*
X137835299Y-75746665D02*
X137835299Y-78266926D01*
X137947220Y-75210480D02*
X137947220Y-75634744D01*
X137947220Y-75634744D02*
X137835299Y-75746665D01*
X137967881Y-84359841D02*
X137967881Y-83579491D01*
X137878981Y-84448741D02*
X137967881Y-84359841D01*
X137967881Y-83579491D02*
X137744530Y-83356140D01*
X141551340Y-97824100D02*
X137878981Y-94151741D01*
X137878981Y-94151741D02*
X137878981Y-84448741D01*
X137744530Y-83356140D02*
X137744530Y-82931876D01*
X137281920Y-81813400D02*
X137735120Y-82266600D01*
X137735120Y-82266600D02*
X140997940Y-82266600D01*
X137281920Y-79070572D02*
X137281920Y-81813400D01*
X137288458Y-78639770D02*
X137288458Y-79064034D01*
X137288458Y-79064034D02*
X137281920Y-79070572D01*
X137288458Y-78215506D02*
X137288458Y-78639770D01*
X136356740Y-72787320D02*
X137288458Y-73719038D01*
X137288458Y-73719038D02*
X137288458Y-78215506D01*
X143570043Y-91154091D02*
X143752099Y-91336147D01*
X143752099Y-91336147D02*
X144052098Y-91636146D01*
X140997940Y-82266600D02*
X143570043Y-84838703D01*
X143570043Y-84838703D02*
X143570043Y-91154091D01*
X139481759Y-78697019D02*
X139085320Y-78300580D01*
X139085320Y-78300580D02*
X139085320Y-77284580D01*
X139481759Y-78698971D02*
X139481759Y-78697019D01*
X145474954Y-92158526D02*
X145174955Y-92458525D01*
X145474954Y-84692166D02*
X145474954Y-92158526D01*
X139481759Y-78698971D02*
X145474954Y-84692166D01*
X140503220Y-99455642D02*
X143827622Y-99455642D01*
X130463520Y-89415942D02*
X140503220Y-99455642D01*
X129295157Y-87375214D02*
X130463520Y-88543577D01*
X129295157Y-80449949D02*
X129295157Y-87375214D01*
X129079354Y-80234146D02*
X129295157Y-80449949D01*
X129079354Y-79200957D02*
X129079354Y-80234146D01*
X143827622Y-99455642D02*
X146262857Y-97020407D01*
X146262857Y-93535404D02*
X146262857Y-93111140D01*
X129895177Y-78385134D02*
X129079354Y-79200957D01*
X146262857Y-97020407D02*
X146262857Y-93535404D01*
X129895177Y-77592021D02*
X129895177Y-78385134D01*
X130412036Y-77075162D02*
X129895177Y-77592021D01*
X130463520Y-88543577D02*
X130463520Y-89415942D01*
X130013509Y-89602342D02*
X130013509Y-88729977D01*
X128629343Y-80420546D02*
X128629343Y-78767057D01*
X128845146Y-80636349D02*
X128629343Y-80420546D01*
X130013509Y-88729977D02*
X128845146Y-87561614D01*
X140316820Y-99905653D02*
X130013509Y-89602342D01*
X128629343Y-78767057D02*
X128937032Y-78459368D01*
X148633180Y-95286495D02*
X144014022Y-99905653D01*
X148633180Y-93358780D02*
X148633180Y-95286495D01*
X144014022Y-99905653D02*
X140316820Y-99905653D01*
X128845146Y-87561614D02*
X128845146Y-80636349D01*
X128937032Y-78459368D02*
X129237031Y-78159369D01*
D21*
G36*
X133246436Y-71444946D02*
X133064759Y-71566339D01*
X132215018Y-72416080D01*
X132149857Y-72258377D01*
X131887067Y-71995128D01*
X131543539Y-71852482D01*
X131171573Y-71852158D01*
X130827797Y-71994203D01*
X130564548Y-72256993D01*
X130421902Y-72600521D01*
X130421615Y-72930485D01*
X129991740Y-73360360D01*
X129991740Y-73073070D01*
X129832990Y-72914320D01*
X128983740Y-72914320D01*
X128983740Y-73763570D01*
X129142490Y-73922320D01*
X129429780Y-73922320D01*
X127158351Y-76193749D01*
X127036958Y-76375426D01*
X126994331Y-76589729D01*
X126994331Y-79204627D01*
X126931591Y-79267257D01*
X126819458Y-79537303D01*
X126819203Y-79829704D01*
X126930865Y-80099945D01*
X127137443Y-80306885D01*
X127407489Y-80419018D01*
X127596305Y-80419183D01*
X127567248Y-80448189D01*
X127455115Y-80718235D01*
X127454860Y-81010636D01*
X127566522Y-81280877D01*
X127629988Y-81344454D01*
X127629988Y-87831458D01*
X127672615Y-88045761D01*
X127794008Y-88227438D01*
X128653457Y-89086887D01*
X128653380Y-89175537D01*
X128765042Y-89445778D01*
X128971620Y-89652718D01*
X129241666Y-89764851D01*
X129485876Y-89765064D01*
X129496136Y-89816645D01*
X129617529Y-89998322D01*
X136690145Y-97070938D01*
X136072620Y-97070938D01*
X135911419Y-97101270D01*
X135881006Y-97120840D01*
X135867612Y-97104992D01*
X135508745Y-96919781D01*
X135349620Y-97046017D01*
X135349620Y-97787460D01*
X135369620Y-97787460D01*
X135369620Y-98041460D01*
X135349620Y-98041460D01*
X135349620Y-98782903D01*
X135508745Y-98909139D01*
X135867612Y-98723928D01*
X135879968Y-98709307D01*
X135900065Y-98723039D01*
X136072620Y-98757982D01*
X136872620Y-98757982D01*
X137033821Y-98727650D01*
X137181875Y-98632380D01*
X137281199Y-98487015D01*
X137316142Y-98314460D01*
X137316142Y-97696935D01*
X139920840Y-100301633D01*
X140102517Y-100423026D01*
X140316820Y-100465653D01*
X144014022Y-100465653D01*
X144228325Y-100423026D01*
X144410002Y-100301633D01*
X149029160Y-95682475D01*
X149150553Y-95500798D01*
X149193180Y-95286495D01*
X149193180Y-93838298D01*
X149255920Y-93775668D01*
X149368053Y-93505622D01*
X149368308Y-93213221D01*
X149256646Y-92942980D01*
X149050068Y-92736040D01*
X148780022Y-92623907D01*
X148487621Y-92623652D01*
X148217380Y-92735314D01*
X148010440Y-92941892D01*
X147898307Y-93211938D01*
X147898052Y-93504339D01*
X148009714Y-93774580D01*
X148073180Y-93838157D01*
X148073180Y-95054535D01*
X146822857Y-96304858D01*
X146822857Y-93590658D01*
X146885597Y-93528028D01*
X146997730Y-93257982D01*
X146997985Y-92965581D01*
X146886323Y-92695340D01*
X146679745Y-92488400D01*
X146409699Y-92376267D01*
X146117298Y-92376012D01*
X145941727Y-92448557D01*
X145992327Y-92372829D01*
X146034955Y-92158526D01*
X146034954Y-92158521D01*
X146034954Y-89785939D01*
X146079252Y-89785939D01*
X146190914Y-90056180D01*
X146282932Y-90148359D01*
X146191640Y-90239492D01*
X146079507Y-90509538D01*
X146079252Y-90801939D01*
X146190914Y-91072180D01*
X146397492Y-91279120D01*
X146667538Y-91391253D01*
X146959939Y-91391508D01*
X147230180Y-91279846D01*
X147373248Y-91137028D01*
X147515092Y-91279120D01*
X147785138Y-91391253D01*
X148077539Y-91391508D01*
X148347780Y-91279846D01*
X148554720Y-91073268D01*
X148666853Y-90803222D01*
X148667108Y-90510821D01*
X148555446Y-90240580D01*
X148463428Y-90148401D01*
X148554720Y-90057268D01*
X148666853Y-89787222D01*
X148667108Y-89494821D01*
X148555446Y-89224580D01*
X148372746Y-89041559D01*
X156932832Y-89041559D01*
X157044494Y-89311800D01*
X157107960Y-89375377D01*
X157107960Y-93829222D01*
X157045220Y-93891852D01*
X156933087Y-94161898D01*
X156932832Y-94454299D01*
X157044494Y-94724540D01*
X157251072Y-94931480D01*
X157521118Y-95043613D01*
X157813519Y-95043868D01*
X158083760Y-94932206D01*
X158290700Y-94725628D01*
X158402833Y-94455582D01*
X158403088Y-94163181D01*
X158291426Y-93892940D01*
X158227960Y-93829363D01*
X158227960Y-89375518D01*
X158290700Y-89312888D01*
X158402833Y-89042842D01*
X158403088Y-88750441D01*
X158291426Y-88480200D01*
X158084848Y-88273260D01*
X157814802Y-88161127D01*
X157522401Y-88160872D01*
X157252160Y-88272534D01*
X157045220Y-88479112D01*
X156933087Y-88749158D01*
X156932832Y-89041559D01*
X148372746Y-89041559D01*
X148348868Y-89017640D01*
X148078822Y-88905507D01*
X147786421Y-88905252D01*
X147516180Y-89016914D01*
X147373112Y-89159732D01*
X147231268Y-89017640D01*
X146961222Y-88905507D01*
X146668821Y-88905252D01*
X146398580Y-89016914D01*
X146191640Y-89223492D01*
X146079507Y-89493538D01*
X146079252Y-89785939D01*
X146034954Y-89785939D01*
X146034954Y-84692171D01*
X146034955Y-84692166D01*
X145992327Y-84477863D01*
X145870934Y-84296186D01*
X139881670Y-78306922D01*
X139877739Y-78301039D01*
X139645320Y-78068620D01*
X139645320Y-77764098D01*
X139708060Y-77701468D01*
X139820193Y-77431422D01*
X139820448Y-77139021D01*
X139708786Y-76868780D01*
X139502208Y-76661840D01*
X139409722Y-76623437D01*
X139416740Y-76588156D01*
X139416740Y-73549434D01*
X139648932Y-73317647D01*
X139791578Y-72974119D01*
X139791902Y-72602153D01*
X139758915Y-72522319D01*
X140299779Y-72522319D01*
X140421864Y-72644404D01*
X140421578Y-72972487D01*
X140551768Y-73287571D01*
X140342142Y-73200527D01*
X140049741Y-73200272D01*
X139779500Y-73311934D01*
X139572560Y-73518512D01*
X139460427Y-73788558D01*
X139460172Y-74080959D01*
X139571834Y-74351200D01*
X139778412Y-74558140D01*
X140048458Y-74670273D01*
X140340859Y-74670528D01*
X140611100Y-74558866D01*
X140674677Y-74495400D01*
X142708660Y-74495400D01*
X142922963Y-74452773D01*
X143104640Y-74331380D01*
X143713824Y-73722196D01*
X144041907Y-73722482D01*
X144385683Y-73580437D01*
X144648932Y-73317647D01*
X144791578Y-72974119D01*
X144791579Y-72972487D01*
X145421578Y-72972487D01*
X145563623Y-73316263D01*
X145713520Y-73466422D01*
X145713520Y-73806402D01*
X145650780Y-73869032D01*
X145538647Y-74139078D01*
X145538392Y-74431479D01*
X145650054Y-74701720D01*
X145856632Y-74908660D01*
X146126678Y-75020793D01*
X146419079Y-75021048D01*
X146689320Y-74909386D01*
X146896260Y-74702808D01*
X147008393Y-74432762D01*
X147008648Y-74140361D01*
X146896986Y-73870120D01*
X146833520Y-73806543D01*
X146833520Y-73601990D01*
X146885683Y-73580437D01*
X147148932Y-73317647D01*
X147291578Y-72974119D01*
X147291902Y-72602153D01*
X147149857Y-72258377D01*
X146887067Y-71995128D01*
X146543539Y-71852482D01*
X146171573Y-71852158D01*
X145827797Y-71994203D01*
X145564548Y-72256993D01*
X145421902Y-72600521D01*
X145421578Y-72972487D01*
X144791579Y-72972487D01*
X144791902Y-72602153D01*
X144649857Y-72258377D01*
X144387067Y-71995128D01*
X144043539Y-71852482D01*
X143671573Y-71852158D01*
X143327797Y-71994203D01*
X143064548Y-72256993D01*
X142921902Y-72600521D01*
X142921615Y-72930485D01*
X142476700Y-73375400D01*
X142091078Y-73375400D01*
X142148932Y-73317647D01*
X142291578Y-72974119D01*
X142291902Y-72602153D01*
X142149857Y-72258377D01*
X141887067Y-71995128D01*
X141543539Y-71852482D01*
X141213575Y-71852195D01*
X140927719Y-71566339D01*
X140746042Y-71444946D01*
X140733443Y-71442440D01*
X150525062Y-71442440D01*
X150487381Y-82160934D01*
X150497213Y-82210379D01*
X150525507Y-82252103D01*
X150567805Y-82279532D01*
X150614380Y-82288380D01*
X158215012Y-82288380D01*
X162016119Y-85815667D01*
X161931215Y-100472440D01*
X122182120Y-100472440D01*
X122182120Y-97761544D01*
X122379528Y-97761544D01*
X122548159Y-98169663D01*
X122860135Y-98482183D01*
X123267959Y-98651527D01*
X123709544Y-98651912D01*
X124117663Y-98483281D01*
X124430183Y-98171305D01*
X124536834Y-97914460D01*
X131871261Y-97914460D01*
X131934822Y-98234001D01*
X132115827Y-98504894D01*
X132386720Y-98685899D01*
X132706261Y-98749460D01*
X132738979Y-98749460D01*
X133058520Y-98685899D01*
X133329413Y-98504894D01*
X133347620Y-98477645D01*
X133365827Y-98504894D01*
X133636720Y-98685899D01*
X133956261Y-98749460D01*
X133988979Y-98749460D01*
X134308520Y-98685899D01*
X134459968Y-98584705D01*
X134577628Y-98723928D01*
X134936495Y-98909139D01*
X135095620Y-98782903D01*
X135095620Y-98041460D01*
X135075620Y-98041460D01*
X135075620Y-97787460D01*
X135095620Y-97787460D01*
X135095620Y-97046017D01*
X134936495Y-96919781D01*
X134577628Y-97104992D01*
X134459968Y-97244215D01*
X134308520Y-97143021D01*
X133988979Y-97079460D01*
X133956261Y-97079460D01*
X133636720Y-97143021D01*
X133365827Y-97324026D01*
X133347620Y-97351275D01*
X133329413Y-97324026D01*
X133058520Y-97143021D01*
X132738979Y-97079460D01*
X132706261Y-97079460D01*
X132386720Y-97143021D01*
X132115827Y-97324026D01*
X131934822Y-97594919D01*
X131871261Y-97914460D01*
X124536834Y-97914460D01*
X124599527Y-97763481D01*
X124599912Y-97321896D01*
X124431281Y-96913777D01*
X124119305Y-96601257D01*
X123711481Y-96431913D01*
X123269896Y-96431528D01*
X122861777Y-96600159D01*
X122549257Y-96912135D01*
X122379913Y-97319959D01*
X122379528Y-97761544D01*
X122182120Y-97761544D01*
X122182120Y-95848823D01*
X122276393Y-96076418D01*
X122455021Y-96255047D01*
X122688410Y-96351720D01*
X123203970Y-96351720D01*
X123362720Y-96192970D01*
X123362720Y-95168720D01*
X123616720Y-95168720D01*
X123616720Y-96192970D01*
X123775470Y-96351720D01*
X124291030Y-96351720D01*
X124524419Y-96255047D01*
X124703047Y-96076418D01*
X124799720Y-95843029D01*
X124799720Y-95327470D01*
X124640970Y-95168720D01*
X123616720Y-95168720D01*
X123362720Y-95168720D01*
X123342720Y-95168720D01*
X123342720Y-94914720D01*
X123362720Y-94914720D01*
X123362720Y-93890470D01*
X123616720Y-93890470D01*
X123616720Y-94914720D01*
X124640970Y-94914720D01*
X124799720Y-94755970D01*
X124799720Y-94240411D01*
X124703047Y-94007022D01*
X124524419Y-93828393D01*
X124291030Y-93731720D01*
X123775470Y-93731720D01*
X123616720Y-93890470D01*
X123362720Y-93890470D01*
X123203970Y-93731720D01*
X122688410Y-93731720D01*
X122455021Y-93828393D01*
X122276393Y-94007022D01*
X122182120Y-94234617D01*
X122182120Y-73073070D01*
X127721740Y-73073070D01*
X127721740Y-73413630D01*
X127818413Y-73647019D01*
X127997042Y-73825647D01*
X128230431Y-73922320D01*
X128570990Y-73922320D01*
X128729740Y-73763570D01*
X128729740Y-72914320D01*
X127880490Y-72914320D01*
X127721740Y-73073070D01*
X122182120Y-73073070D01*
X122182120Y-72161010D01*
X127721740Y-72161010D01*
X127721740Y-72501570D01*
X127880490Y-72660320D01*
X128729740Y-72660320D01*
X128729740Y-71811070D01*
X128983740Y-71811070D01*
X128983740Y-72660320D01*
X129832990Y-72660320D01*
X129991740Y-72501570D01*
X129991740Y-72161010D01*
X129895067Y-71927621D01*
X129716438Y-71748993D01*
X129483049Y-71652320D01*
X129142490Y-71652320D01*
X128983740Y-71811070D01*
X128729740Y-71811070D01*
X128570990Y-71652320D01*
X128230431Y-71652320D01*
X127997042Y-71748993D01*
X127818413Y-71927621D01*
X127721740Y-72161010D01*
X122182120Y-72161010D01*
X122182120Y-71442440D01*
X133259035Y-71442440D01*
X133246436Y-71444946D01*
X133246436Y-71444946D01*
G37*
X133246436Y-71444946D02*
X133064759Y-71566339D01*
X132215018Y-72416080D01*
X132149857Y-72258377D01*
X131887067Y-71995128D01*
X131543539Y-71852482D01*
X131171573Y-71852158D01*
X130827797Y-71994203D01*
X130564548Y-72256993D01*
X130421902Y-72600521D01*
X130421615Y-72930485D01*
X129991740Y-73360360D01*
X129991740Y-73073070D01*
X129832990Y-72914320D01*
X128983740Y-72914320D01*
X128983740Y-73763570D01*
X129142490Y-73922320D01*
X129429780Y-73922320D01*
X127158351Y-76193749D01*
X127036958Y-76375426D01*
X126994331Y-76589729D01*
X126994331Y-79204627D01*
X126931591Y-79267257D01*
X126819458Y-79537303D01*
X126819203Y-79829704D01*
X126930865Y-80099945D01*
X127137443Y-80306885D01*
X127407489Y-80419018D01*
X127596305Y-80419183D01*
X127567248Y-80448189D01*
X127455115Y-80718235D01*
X127454860Y-81010636D01*
X127566522Y-81280877D01*
X127629988Y-81344454D01*
X127629988Y-87831458D01*
X127672615Y-88045761D01*
X127794008Y-88227438D01*
X128653457Y-89086887D01*
X128653380Y-89175537D01*
X128765042Y-89445778D01*
X128971620Y-89652718D01*
X129241666Y-89764851D01*
X129485876Y-89765064D01*
X129496136Y-89816645D01*
X129617529Y-89998322D01*
X136690145Y-97070938D01*
X136072620Y-97070938D01*
X135911419Y-97101270D01*
X135881006Y-97120840D01*
X135867612Y-97104992D01*
X135508745Y-96919781D01*
X135349620Y-97046017D01*
X135349620Y-97787460D01*
X135369620Y-97787460D01*
X135369620Y-98041460D01*
X135349620Y-98041460D01*
X135349620Y-98782903D01*
X135508745Y-98909139D01*
X135867612Y-98723928D01*
X135879968Y-98709307D01*
X135900065Y-98723039D01*
X136072620Y-98757982D01*
X136872620Y-98757982D01*
X137033821Y-98727650D01*
X137181875Y-98632380D01*
X137281199Y-98487015D01*
X137316142Y-98314460D01*
X137316142Y-97696935D01*
X139920840Y-100301633D01*
X140102517Y-100423026D01*
X140316820Y-100465653D01*
X144014022Y-100465653D01*
X144228325Y-100423026D01*
X144410002Y-100301633D01*
X149029160Y-95682475D01*
X149150553Y-95500798D01*
X149193180Y-95286495D01*
X149193180Y-93838298D01*
X149255920Y-93775668D01*
X149368053Y-93505622D01*
X149368308Y-93213221D01*
X149256646Y-92942980D01*
X149050068Y-92736040D01*
X148780022Y-92623907D01*
X148487621Y-92623652D01*
X148217380Y-92735314D01*
X148010440Y-92941892D01*
X147898307Y-93211938D01*
X147898052Y-93504339D01*
X148009714Y-93774580D01*
X148073180Y-93838157D01*
X148073180Y-95054535D01*
X146822857Y-96304858D01*
X146822857Y-93590658D01*
X146885597Y-93528028D01*
X146997730Y-93257982D01*
X146997985Y-92965581D01*
X146886323Y-92695340D01*
X146679745Y-92488400D01*
X146409699Y-92376267D01*
X146117298Y-92376012D01*
X145941727Y-92448557D01*
X145992327Y-92372829D01*
X146034955Y-92158526D01*
X146034954Y-92158521D01*
X146034954Y-89785939D01*
X146079252Y-89785939D01*
X146190914Y-90056180D01*
X146282932Y-90148359D01*
X146191640Y-90239492D01*
X146079507Y-90509538D01*
X146079252Y-90801939D01*
X146190914Y-91072180D01*
X146397492Y-91279120D01*
X146667538Y-91391253D01*
X146959939Y-91391508D01*
X147230180Y-91279846D01*
X147373248Y-91137028D01*
X147515092Y-91279120D01*
X147785138Y-91391253D01*
X148077539Y-91391508D01*
X148347780Y-91279846D01*
X148554720Y-91073268D01*
X148666853Y-90803222D01*
X148667108Y-90510821D01*
X148555446Y-90240580D01*
X148463428Y-90148401D01*
X148554720Y-90057268D01*
X148666853Y-89787222D01*
X148667108Y-89494821D01*
X148555446Y-89224580D01*
X148372746Y-89041559D01*
X156932832Y-89041559D01*
X157044494Y-89311800D01*
X157107960Y-89375377D01*
X157107960Y-93829222D01*
X157045220Y-93891852D01*
X156933087Y-94161898D01*
X156932832Y-94454299D01*
X157044494Y-94724540D01*
X157251072Y-94931480D01*
X157521118Y-95043613D01*
X157813519Y-95043868D01*
X158083760Y-94932206D01*
X158290700Y-94725628D01*
X158402833Y-94455582D01*
X158403088Y-94163181D01*
X158291426Y-93892940D01*
X158227960Y-93829363D01*
X158227960Y-89375518D01*
X158290700Y-89312888D01*
X158402833Y-89042842D01*
X158403088Y-88750441D01*
X158291426Y-88480200D01*
X158084848Y-88273260D01*
X157814802Y-88161127D01*
X157522401Y-88160872D01*
X157252160Y-88272534D01*
X157045220Y-88479112D01*
X156933087Y-88749158D01*
X156932832Y-89041559D01*
X148372746Y-89041559D01*
X148348868Y-89017640D01*
X148078822Y-88905507D01*
X147786421Y-88905252D01*
X147516180Y-89016914D01*
X147373112Y-89159732D01*
X147231268Y-89017640D01*
X146961222Y-88905507D01*
X146668821Y-88905252D01*
X146398580Y-89016914D01*
X146191640Y-89223492D01*
X146079507Y-89493538D01*
X146079252Y-89785939D01*
X146034954Y-89785939D01*
X146034954Y-84692171D01*
X146034955Y-84692166D01*
X145992327Y-84477863D01*
X145870934Y-84296186D01*
X139881670Y-78306922D01*
X139877739Y-78301039D01*
X139645320Y-78068620D01*
X139645320Y-77764098D01*
X139708060Y-77701468D01*
X139820193Y-77431422D01*
X139820448Y-77139021D01*
X139708786Y-76868780D01*
X139502208Y-76661840D01*
X139409722Y-76623437D01*
X139416740Y-76588156D01*
X139416740Y-73549434D01*
X139648932Y-73317647D01*
X139791578Y-72974119D01*
X139791902Y-72602153D01*
X139758915Y-72522319D01*
X140299779Y-72522319D01*
X140421864Y-72644404D01*
X140421578Y-72972487D01*
X140551768Y-73287571D01*
X140342142Y-73200527D01*
X140049741Y-73200272D01*
X139779500Y-73311934D01*
X139572560Y-73518512D01*
X139460427Y-73788558D01*
X139460172Y-74080959D01*
X139571834Y-74351200D01*
X139778412Y-74558140D01*
X140048458Y-74670273D01*
X140340859Y-74670528D01*
X140611100Y-74558866D01*
X140674677Y-74495400D01*
X142708660Y-74495400D01*
X142922963Y-74452773D01*
X143104640Y-74331380D01*
X143713824Y-73722196D01*
X144041907Y-73722482D01*
X144385683Y-73580437D01*
X144648932Y-73317647D01*
X144791578Y-72974119D01*
X144791579Y-72972487D01*
X145421578Y-72972487D01*
X145563623Y-73316263D01*
X145713520Y-73466422D01*
X145713520Y-73806402D01*
X145650780Y-73869032D01*
X145538647Y-74139078D01*
X145538392Y-74431479D01*
X145650054Y-74701720D01*
X145856632Y-74908660D01*
X146126678Y-75020793D01*
X146419079Y-75021048D01*
X146689320Y-74909386D01*
X146896260Y-74702808D01*
X147008393Y-74432762D01*
X147008648Y-74140361D01*
X146896986Y-73870120D01*
X146833520Y-73806543D01*
X146833520Y-73601990D01*
X146885683Y-73580437D01*
X147148932Y-73317647D01*
X147291578Y-72974119D01*
X147291902Y-72602153D01*
X147149857Y-72258377D01*
X146887067Y-71995128D01*
X146543539Y-71852482D01*
X146171573Y-71852158D01*
X145827797Y-71994203D01*
X145564548Y-72256993D01*
X145421902Y-72600521D01*
X145421578Y-72972487D01*
X144791579Y-72972487D01*
X144791902Y-72602153D01*
X144649857Y-72258377D01*
X144387067Y-71995128D01*
X144043539Y-71852482D01*
X143671573Y-71852158D01*
X143327797Y-71994203D01*
X143064548Y-72256993D01*
X142921902Y-72600521D01*
X142921615Y-72930485D01*
X142476700Y-73375400D01*
X142091078Y-73375400D01*
X142148932Y-73317647D01*
X142291578Y-72974119D01*
X142291902Y-72602153D01*
X142149857Y-72258377D01*
X141887067Y-71995128D01*
X141543539Y-71852482D01*
X141213575Y-71852195D01*
X140927719Y-71566339D01*
X140746042Y-71444946D01*
X140733443Y-71442440D01*
X150525062Y-71442440D01*
X150487381Y-82160934D01*
X150497213Y-82210379D01*
X150525507Y-82252103D01*
X150567805Y-82279532D01*
X150614380Y-82288380D01*
X158215012Y-82288380D01*
X162016119Y-85815667D01*
X161931215Y-100472440D01*
X122182120Y-100472440D01*
X122182120Y-97761544D01*
X122379528Y-97761544D01*
X122548159Y-98169663D01*
X122860135Y-98482183D01*
X123267959Y-98651527D01*
X123709544Y-98651912D01*
X124117663Y-98483281D01*
X124430183Y-98171305D01*
X124536834Y-97914460D01*
X131871261Y-97914460D01*
X131934822Y-98234001D01*
X132115827Y-98504894D01*
X132386720Y-98685899D01*
X132706261Y-98749460D01*
X132738979Y-98749460D01*
X133058520Y-98685899D01*
X133329413Y-98504894D01*
X133347620Y-98477645D01*
X133365827Y-98504894D01*
X133636720Y-98685899D01*
X133956261Y-98749460D01*
X133988979Y-98749460D01*
X134308520Y-98685899D01*
X134459968Y-98584705D01*
X134577628Y-98723928D01*
X134936495Y-98909139D01*
X135095620Y-98782903D01*
X135095620Y-98041460D01*
X135075620Y-98041460D01*
X135075620Y-97787460D01*
X135095620Y-97787460D01*
X135095620Y-97046017D01*
X134936495Y-96919781D01*
X134577628Y-97104992D01*
X134459968Y-97244215D01*
X134308520Y-97143021D01*
X133988979Y-97079460D01*
X133956261Y-97079460D01*
X133636720Y-97143021D01*
X133365827Y-97324026D01*
X133347620Y-97351275D01*
X133329413Y-97324026D01*
X133058520Y-97143021D01*
X132738979Y-97079460D01*
X132706261Y-97079460D01*
X132386720Y-97143021D01*
X132115827Y-97324026D01*
X131934822Y-97594919D01*
X131871261Y-97914460D01*
X124536834Y-97914460D01*
X124599527Y-97763481D01*
X124599912Y-97321896D01*
X124431281Y-96913777D01*
X124119305Y-96601257D01*
X123711481Y-96431913D01*
X123269896Y-96431528D01*
X122861777Y-96600159D01*
X122549257Y-96912135D01*
X122379913Y-97319959D01*
X122379528Y-97761544D01*
X122182120Y-97761544D01*
X122182120Y-95848823D01*
X122276393Y-96076418D01*
X122455021Y-96255047D01*
X122688410Y-96351720D01*
X123203970Y-96351720D01*
X123362720Y-96192970D01*
X123362720Y-95168720D01*
X123616720Y-95168720D01*
X123616720Y-96192970D01*
X123775470Y-96351720D01*
X124291030Y-96351720D01*
X124524419Y-96255047D01*
X124703047Y-96076418D01*
X124799720Y-95843029D01*
X124799720Y-95327470D01*
X124640970Y-95168720D01*
X123616720Y-95168720D01*
X123362720Y-95168720D01*
X123342720Y-95168720D01*
X123342720Y-94914720D01*
X123362720Y-94914720D01*
X123362720Y-93890470D01*
X123616720Y-93890470D01*
X123616720Y-94914720D01*
X124640970Y-94914720D01*
X124799720Y-94755970D01*
X124799720Y-94240411D01*
X124703047Y-94007022D01*
X124524419Y-93828393D01*
X124291030Y-93731720D01*
X123775470Y-93731720D01*
X123616720Y-93890470D01*
X123362720Y-93890470D01*
X123203970Y-93731720D01*
X122688410Y-93731720D01*
X122455021Y-93828393D01*
X122276393Y-94007022D01*
X122182120Y-94234617D01*
X122182120Y-73073070D01*
X127721740Y-73073070D01*
X127721740Y-73413630D01*
X127818413Y-73647019D01*
X127997042Y-73825647D01*
X128230431Y-73922320D01*
X128570990Y-73922320D01*
X128729740Y-73763570D01*
X128729740Y-72914320D01*
X127880490Y-72914320D01*
X127721740Y-73073070D01*
X122182120Y-73073070D01*
X122182120Y-72161010D01*
X127721740Y-72161010D01*
X127721740Y-72501570D01*
X127880490Y-72660320D01*
X128729740Y-72660320D01*
X128729740Y-71811070D01*
X128983740Y-71811070D01*
X128983740Y-72660320D01*
X129832990Y-72660320D01*
X129991740Y-72501570D01*
X129991740Y-72161010D01*
X129895067Y-71927621D01*
X129716438Y-71748993D01*
X129483049Y-71652320D01*
X129142490Y-71652320D01*
X128983740Y-71811070D01*
X128729740Y-71811070D01*
X128570990Y-71652320D01*
X128230431Y-71652320D01*
X127997042Y-71748993D01*
X127818413Y-71927621D01*
X127721740Y-72161010D01*
X122182120Y-72161010D01*
X122182120Y-71442440D01*
X133259035Y-71442440D01*
X133246436Y-71444946D01*
G36*
X143317047Y-91693055D02*
X143316970Y-91781705D01*
X143428632Y-92051946D01*
X143635210Y-92258886D01*
X143869911Y-92356342D01*
X143869911Y-92768006D01*
X143845608Y-92743660D01*
X143575562Y-92631527D01*
X143283161Y-92631272D01*
X143012920Y-92742934D01*
X142805980Y-92949512D01*
X142693847Y-93219558D01*
X142693592Y-93511959D01*
X142805254Y-93782200D01*
X142882411Y-93859492D01*
X142911347Y-94004967D01*
X143032740Y-94186644D01*
X143419900Y-94573804D01*
X143419900Y-96827312D01*
X143327649Y-96789100D01*
X143087090Y-96789100D01*
X142928340Y-96947850D01*
X142928340Y-97697100D01*
X142948340Y-97697100D01*
X142948340Y-97951100D01*
X142928340Y-97951100D01*
X142928340Y-97971100D01*
X142674340Y-97971100D01*
X142674340Y-97951100D01*
X142654340Y-97951100D01*
X142654340Y-97697100D01*
X142674340Y-97697100D01*
X142674340Y-96947850D01*
X142515590Y-96789100D01*
X142275031Y-96789100D01*
X142041642Y-96885773D01*
X141876825Y-97050589D01*
X141567699Y-96989100D01*
X141534981Y-96989100D01*
X141512727Y-96993527D01*
X138801251Y-94282051D01*
X138980901Y-94356648D01*
X139273302Y-94356903D01*
X139543543Y-94245241D01*
X139750483Y-94038663D01*
X139862616Y-93768617D01*
X139862871Y-93476216D01*
X139789090Y-93297652D01*
X139967479Y-93297808D01*
X140237720Y-93186146D01*
X140444660Y-92979568D01*
X140509805Y-92822681D01*
X141728279Y-92822681D01*
X141942582Y-92780054D01*
X142124259Y-92658661D01*
X143203456Y-91579464D01*
X143317047Y-91693055D01*
X143317047Y-91693055D01*
G37*
X143317047Y-91693055D02*
X143316970Y-91781705D01*
X143428632Y-92051946D01*
X143635210Y-92258886D01*
X143869911Y-92356342D01*
X143869911Y-92768006D01*
X143845608Y-92743660D01*
X143575562Y-92631527D01*
X143283161Y-92631272D01*
X143012920Y-92742934D01*
X142805980Y-92949512D01*
X142693847Y-93219558D01*
X142693592Y-93511959D01*
X142805254Y-93782200D01*
X142882411Y-93859492D01*
X142911347Y-94004967D01*
X143032740Y-94186644D01*
X143419900Y-94573804D01*
X143419900Y-96827312D01*
X143327649Y-96789100D01*
X143087090Y-96789100D01*
X142928340Y-96947850D01*
X142928340Y-97697100D01*
X142948340Y-97697100D01*
X142948340Y-97951100D01*
X142928340Y-97951100D01*
X142928340Y-97971100D01*
X142674340Y-97971100D01*
X142674340Y-97951100D01*
X142654340Y-97951100D01*
X142654340Y-97697100D01*
X142674340Y-97697100D01*
X142674340Y-96947850D01*
X142515590Y-96789100D01*
X142275031Y-96789100D01*
X142041642Y-96885773D01*
X141876825Y-97050589D01*
X141567699Y-96989100D01*
X141534981Y-96989100D01*
X141512727Y-96993527D01*
X138801251Y-94282051D01*
X138980901Y-94356648D01*
X139273302Y-94356903D01*
X139543543Y-94245241D01*
X139750483Y-94038663D01*
X139862616Y-93768617D01*
X139862871Y-93476216D01*
X139789090Y-93297652D01*
X139967479Y-93297808D01*
X140237720Y-93186146D01*
X140444660Y-92979568D01*
X140509805Y-92822681D01*
X141728279Y-92822681D01*
X141942582Y-92780054D01*
X142124259Y-92658661D01*
X143203456Y-91579464D01*
X143317047Y-91693055D01*
G36*
X135421902Y-72600521D02*
X135421578Y-72972487D01*
X135563623Y-73316263D01*
X135753371Y-73506343D01*
X135729540Y-73530132D01*
X135617407Y-73800178D01*
X135617152Y-74092579D01*
X135728814Y-74362820D01*
X135754180Y-74388230D01*
X135754180Y-77316197D01*
X135633810Y-77195616D01*
X135363764Y-77083483D01*
X135071363Y-77083228D01*
X134801122Y-77194890D01*
X134607165Y-77388508D01*
X134414610Y-77195616D01*
X134144564Y-77083483D01*
X133852163Y-77083228D01*
X133581922Y-77194890D01*
X133387965Y-77388508D01*
X133195410Y-77195616D01*
X132925364Y-77083483D01*
X132632963Y-77083228D01*
X132362722Y-77194890D01*
X132155782Y-77401468D01*
X132043649Y-77671514D01*
X132043394Y-77963915D01*
X132155056Y-78234156D01*
X132297874Y-78377224D01*
X132155782Y-78519068D01*
X132043649Y-78789114D01*
X132043394Y-79081515D01*
X132155056Y-79351756D01*
X132323274Y-79520269D01*
X132155782Y-79687468D01*
X132043649Y-79957514D01*
X132043394Y-80249915D01*
X132125864Y-80449508D01*
X131922709Y-80409097D01*
X131708406Y-80451725D01*
X131585178Y-80534063D01*
X131477151Y-80533969D01*
X131206910Y-80645631D01*
X130999970Y-80852209D01*
X130887837Y-81122255D01*
X130887582Y-81414656D01*
X130960610Y-81591397D01*
X130905309Y-81646601D01*
X130793176Y-81916647D01*
X130792921Y-82209048D01*
X130904583Y-82479289D01*
X130968049Y-82542866D01*
X130968049Y-83150066D01*
X131010676Y-83364369D01*
X131132069Y-83546046D01*
X131149362Y-83563339D01*
X131149285Y-83651989D01*
X131260947Y-83922230D01*
X131467525Y-84129170D01*
X131737571Y-84241303D01*
X132029972Y-84241558D01*
X132300213Y-84129896D01*
X132507153Y-83923318D01*
X132619286Y-83653272D01*
X132619541Y-83360871D01*
X132507879Y-83090630D01*
X132301301Y-82883690D01*
X132088049Y-82795140D01*
X132088049Y-82543007D01*
X132150789Y-82480377D01*
X132262922Y-82210331D01*
X132263177Y-81917930D01*
X132226472Y-81829097D01*
X134977183Y-81829097D01*
X135191486Y-81786470D01*
X135373163Y-81665077D01*
X136710160Y-80328080D01*
X136721920Y-80310480D01*
X136721920Y-81813400D01*
X136764547Y-82027703D01*
X136885940Y-82209380D01*
X137156700Y-82480140D01*
X137121790Y-82514988D01*
X137009657Y-82785034D01*
X137009402Y-83077435D01*
X137121064Y-83347676D01*
X137127103Y-83353726D01*
X136927080Y-83436374D01*
X136863503Y-83499840D01*
X134586570Y-83499840D01*
X134379524Y-83413867D01*
X134087123Y-83413612D01*
X133816882Y-83525274D01*
X133609942Y-83731852D01*
X133497809Y-84001898D01*
X133497554Y-84294299D01*
X133609216Y-84564540D01*
X133815794Y-84771480D01*
X134085840Y-84883613D01*
X134378241Y-84883868D01*
X134648482Y-84772206D01*
X134801115Y-84619840D01*
X136863362Y-84619840D01*
X136925992Y-84682580D01*
X137196038Y-84794713D01*
X137318981Y-84794820D01*
X137318981Y-93872782D01*
X131923542Y-88477342D01*
X131923542Y-88170777D01*
X131880915Y-87956474D01*
X131759522Y-87774797D01*
X130755179Y-86770454D01*
X130755179Y-80451293D01*
X130846748Y-80314251D01*
X130889375Y-80099948D01*
X130889375Y-79254939D01*
X130930052Y-79156978D01*
X130930307Y-78864577D01*
X130926272Y-78854812D01*
X130930188Y-78835127D01*
X130930188Y-78232881D01*
X134252720Y-74910349D01*
X134374113Y-74728672D01*
X134416740Y-74514369D01*
X134416740Y-73549434D01*
X134648932Y-73317647D01*
X134791578Y-72974119D01*
X134791902Y-72602153D01*
X134758915Y-72522319D01*
X135454374Y-72522319D01*
X135421902Y-72600521D01*
X135421902Y-72600521D01*
G37*
X135421902Y-72600521D02*
X135421578Y-72972487D01*
X135563623Y-73316263D01*
X135753371Y-73506343D01*
X135729540Y-73530132D01*
X135617407Y-73800178D01*
X135617152Y-74092579D01*
X135728814Y-74362820D01*
X135754180Y-74388230D01*
X135754180Y-77316197D01*
X135633810Y-77195616D01*
X135363764Y-77083483D01*
X135071363Y-77083228D01*
X134801122Y-77194890D01*
X134607165Y-77388508D01*
X134414610Y-77195616D01*
X134144564Y-77083483D01*
X133852163Y-77083228D01*
X133581922Y-77194890D01*
X133387965Y-77388508D01*
X133195410Y-77195616D01*
X132925364Y-77083483D01*
X132632963Y-77083228D01*
X132362722Y-77194890D01*
X132155782Y-77401468D01*
X132043649Y-77671514D01*
X132043394Y-77963915D01*
X132155056Y-78234156D01*
X132297874Y-78377224D01*
X132155782Y-78519068D01*
X132043649Y-78789114D01*
X132043394Y-79081515D01*
X132155056Y-79351756D01*
X132323274Y-79520269D01*
X132155782Y-79687468D01*
X132043649Y-79957514D01*
X132043394Y-80249915D01*
X132125864Y-80449508D01*
X131922709Y-80409097D01*
X131708406Y-80451725D01*
X131585178Y-80534063D01*
X131477151Y-80533969D01*
X131206910Y-80645631D01*
X130999970Y-80852209D01*
X130887837Y-81122255D01*
X130887582Y-81414656D01*
X130960610Y-81591397D01*
X130905309Y-81646601D01*
X130793176Y-81916647D01*
X130792921Y-82209048D01*
X130904583Y-82479289D01*
X130968049Y-82542866D01*
X130968049Y-83150066D01*
X131010676Y-83364369D01*
X131132069Y-83546046D01*
X131149362Y-83563339D01*
X131149285Y-83651989D01*
X131260947Y-83922230D01*
X131467525Y-84129170D01*
X131737571Y-84241303D01*
X132029972Y-84241558D01*
X132300213Y-84129896D01*
X132507153Y-83923318D01*
X132619286Y-83653272D01*
X132619541Y-83360871D01*
X132507879Y-83090630D01*
X132301301Y-82883690D01*
X132088049Y-82795140D01*
X132088049Y-82543007D01*
X132150789Y-82480377D01*
X132262922Y-82210331D01*
X132263177Y-81917930D01*
X132226472Y-81829097D01*
X134977183Y-81829097D01*
X135191486Y-81786470D01*
X135373163Y-81665077D01*
X136710160Y-80328080D01*
X136721920Y-80310480D01*
X136721920Y-81813400D01*
X136764547Y-82027703D01*
X136885940Y-82209380D01*
X137156700Y-82480140D01*
X137121790Y-82514988D01*
X137009657Y-82785034D01*
X137009402Y-83077435D01*
X137121064Y-83347676D01*
X137127103Y-83353726D01*
X136927080Y-83436374D01*
X136863503Y-83499840D01*
X134586570Y-83499840D01*
X134379524Y-83413867D01*
X134087123Y-83413612D01*
X133816882Y-83525274D01*
X133609942Y-83731852D01*
X133497809Y-84001898D01*
X133497554Y-84294299D01*
X133609216Y-84564540D01*
X133815794Y-84771480D01*
X134085840Y-84883613D01*
X134378241Y-84883868D01*
X134648482Y-84772206D01*
X134801115Y-84619840D01*
X136863362Y-84619840D01*
X136925992Y-84682580D01*
X137196038Y-84794713D01*
X137318981Y-84794820D01*
X137318981Y-93872782D01*
X131923542Y-88477342D01*
X131923542Y-88170777D01*
X131880915Y-87956474D01*
X131759522Y-87774797D01*
X130755179Y-86770454D01*
X130755179Y-80451293D01*
X130846748Y-80314251D01*
X130889375Y-80099948D01*
X130889375Y-79254939D01*
X130930052Y-79156978D01*
X130930307Y-78864577D01*
X130926272Y-78854812D01*
X130930188Y-78835127D01*
X130930188Y-78232881D01*
X134252720Y-74910349D01*
X134374113Y-74728672D01*
X134416740Y-74514369D01*
X134416740Y-73549434D01*
X134648932Y-73317647D01*
X134791578Y-72974119D01*
X134791902Y-72602153D01*
X134758915Y-72522319D01*
X135454374Y-72522319D01*
X135421902Y-72600521D01*
G36*
X138688012Y-83077435D02*
X138799674Y-83347676D01*
X138863140Y-83411253D01*
X138863140Y-91804498D01*
X138731763Y-91935875D01*
X138610370Y-92117552D01*
X138567743Y-92331855D01*
X138567743Y-93142257D01*
X138505003Y-93204887D01*
X138438981Y-93363885D01*
X138438981Y-84643396D01*
X138485254Y-84574144D01*
X138527882Y-84359841D01*
X138527881Y-84359836D01*
X138527881Y-83579491D01*
X138485254Y-83365188D01*
X138408283Y-83249993D01*
X138479403Y-83078718D01*
X138479623Y-82826600D01*
X138688231Y-82826600D01*
X138688012Y-83077435D01*
X138688012Y-83077435D01*
G37*
X138688012Y-83077435D02*
X138799674Y-83347676D01*
X138863140Y-83411253D01*
X138863140Y-91804498D01*
X138731763Y-91935875D01*
X138610370Y-92117552D01*
X138567743Y-92331855D01*
X138567743Y-93142257D01*
X138505003Y-93204887D01*
X138438981Y-93363885D01*
X138438981Y-84643396D01*
X138485254Y-84574144D01*
X138527882Y-84359841D01*
X138527881Y-84359836D01*
X138527881Y-83579491D01*
X138485254Y-83365188D01*
X138408283Y-83249993D01*
X138479403Y-83078718D01*
X138479623Y-82826600D01*
X138688231Y-82826600D01*
X138688012Y-83077435D01*
M02*
