G04 #@! TF.FileFunction,Legend,Top*
%FSLAX46Y46*%
G04 Gerber Fmt 4.6, Leading zero omitted, Abs format (unit mm)*
G04 Created by KiCad (PCBNEW 4.0.2+dfsg1-stable) date mar 18 dic 2018 09:17:30 CET*
%MOMM*%
G01*
G04 APERTURE LIST*
%ADD10C,0.100000*%
%ADD11C,0.150000*%
%ADD12C,0.120000*%
G04 APERTURE END LIST*
D10*
X173697120Y-70957440D02*
X121697120Y-70957440D01*
X173697120Y-100957440D02*
X173697120Y-70957440D01*
X121697120Y-100957440D02*
X173697120Y-100957440D01*
X121697120Y-70957440D02*
X121697120Y-100957440D01*
D11*
X158642240Y-93241960D02*
X159142240Y-93241960D01*
X159142240Y-92291960D02*
X158642240Y-92291960D01*
X141744140Y-87582300D02*
X141744140Y-86882300D01*
X142944140Y-86882300D02*
X142944140Y-87582300D01*
X134087202Y-87563456D02*
X133387202Y-87563456D01*
X133387202Y-86363456D02*
X134087202Y-86363456D01*
X156161720Y-89997280D02*
X156161720Y-90497280D01*
X157111720Y-90497280D02*
X157111720Y-89997280D01*
X144711400Y-86197440D02*
X144711400Y-86697440D01*
X145661400Y-86697440D02*
X145661400Y-86197440D01*
X145772960Y-98196920D02*
X146472960Y-98196920D01*
X146472960Y-99396920D02*
X145772960Y-99396920D01*
X145892500Y-86210140D02*
X145892500Y-86710140D01*
X146842500Y-86710140D02*
X146842500Y-86210140D01*
X150472120Y-88847840D02*
X150472120Y-89347840D01*
X151422120Y-89347840D02*
X151422120Y-88847840D01*
X150799820Y-98518600D02*
X150799820Y-98018600D01*
X149849820Y-98018600D02*
X149849820Y-98518600D01*
X149738100Y-98519780D02*
X149738100Y-98019780D01*
X148788100Y-98019780D02*
X148788100Y-98519780D01*
X151122360Y-93398340D02*
X151122360Y-93898340D01*
X152072360Y-93898340D02*
X152072360Y-93398340D01*
X153253460Y-98401760D02*
X153253460Y-97901760D01*
X152303460Y-97901760D02*
X152303460Y-98401760D01*
X152328860Y-94708980D02*
X152328860Y-95208980D01*
X153278860Y-95208980D02*
X153278860Y-94708980D01*
X148612880Y-98521140D02*
X148612880Y-98021140D01*
X147662880Y-98021140D02*
X147662880Y-98521140D01*
X139705980Y-86732300D02*
X139705980Y-87732300D01*
X141405980Y-87732300D02*
X141405980Y-86732300D01*
X143380440Y-87193400D02*
X143380440Y-87693400D01*
X144330440Y-87693400D02*
X144330440Y-87193400D01*
X154402980Y-90115220D02*
X154902980Y-90115220D01*
X154902980Y-89165220D02*
X154402980Y-89165220D01*
X158810980Y-95866840D02*
X158810980Y-95366840D01*
X157860980Y-95366840D02*
X157860980Y-95866840D01*
X154744400Y-95140780D02*
X154744400Y-95640780D01*
X155694400Y-95640780D02*
X155694400Y-95140780D01*
X133270222Y-89568596D02*
X134270222Y-89568596D01*
X134270222Y-87868596D02*
X133270222Y-87868596D01*
X158965880Y-90829220D02*
X158965880Y-91329220D01*
X159915880Y-91329220D02*
X159915880Y-90829220D01*
X133432682Y-85774756D02*
X133932682Y-85774756D01*
X133932682Y-84824756D02*
X133432682Y-84824756D01*
X160817580Y-95630620D02*
X160817580Y-95130620D01*
X159867580Y-95130620D02*
X159867580Y-95630620D01*
X130549602Y-85759516D02*
X131049602Y-85759516D01*
X131049602Y-84809516D02*
X130549602Y-84809516D01*
X129907962Y-81060476D02*
X129407962Y-81060476D01*
X129407962Y-82010476D02*
X129907962Y-82010476D01*
X134556480Y-93621860D02*
X134556480Y-94121860D01*
X135506480Y-94121860D02*
X135506480Y-93621860D01*
X128564840Y-88424260D02*
X131264840Y-88424260D01*
X128564840Y-86924260D02*
X131264840Y-86924260D01*
X130064840Y-87824260D02*
X130064840Y-87574260D01*
X130064840Y-87574260D02*
X129914840Y-87724260D01*
X129814840Y-87324260D02*
X129814840Y-88024260D01*
X130164840Y-87674260D02*
X130514840Y-87674260D01*
X129814840Y-87674260D02*
X130164840Y-87324260D01*
X130164840Y-87324260D02*
X130164840Y-88024260D01*
X130164840Y-88024260D02*
X129814840Y-87674260D01*
D12*
X150862440Y-93794620D02*
X150862440Y-93294620D01*
X149802440Y-93294620D02*
X149802440Y-93794620D01*
X152301980Y-90177840D02*
X152801980Y-90177840D01*
X152801980Y-89117840D02*
X152301980Y-89117840D01*
X159637500Y-94335820D02*
X160137500Y-94335820D01*
X160137500Y-93275820D02*
X159637500Y-93275820D01*
X152970840Y-96926620D02*
X153470840Y-96926620D01*
X153470840Y-95866620D02*
X152970840Y-95866620D01*
X151069900Y-95709320D02*
X151069900Y-96209320D01*
X152129900Y-96209320D02*
X152129900Y-95709320D01*
X153282240Y-94610340D02*
X153282240Y-95110340D01*
X154342240Y-95110340D02*
X154342240Y-94610340D01*
D11*
X141977760Y-95893200D02*
X140047760Y-95893200D01*
X140047760Y-95893200D02*
X140047760Y-89143200D01*
X140047760Y-89143200D02*
X143247760Y-89143200D01*
X143247760Y-89143200D02*
X143247760Y-94623200D01*
X143747760Y-94393200D02*
X144247760Y-93893200D01*
X144247760Y-93893200D02*
X144247760Y-94893200D01*
X144247760Y-94893200D02*
X143747760Y-94393200D01*
X122489720Y-93091720D02*
X122489720Y-98391720D01*
X126589720Y-99491720D02*
X123639720Y-99491720D01*
X123639720Y-99491720D02*
X122489720Y-98391720D01*
X125089720Y-93091720D02*
X125089720Y-93291720D01*
X125089720Y-93291720D02*
X125739720Y-93291720D01*
X125739720Y-93291720D02*
X125739720Y-93141720D01*
X125089720Y-99291720D02*
X125739720Y-99291720D01*
X125739720Y-99291720D02*
X125739720Y-99491720D01*
X125089720Y-99491720D02*
X125089720Y-99291720D01*
X122539720Y-93341720D02*
X122739720Y-93141720D01*
X122739720Y-93141720D02*
X122539720Y-93191720D01*
X122489720Y-93541720D02*
X122839720Y-93141720D01*
X122539720Y-93741720D02*
X123089720Y-93141720D01*
X123239720Y-93141720D02*
X122539720Y-93841720D01*
X123039720Y-93091720D02*
X122489720Y-93641720D01*
X122939720Y-96291720D02*
X122539720Y-96691720D01*
X122939720Y-96291720D02*
X122539720Y-95891720D01*
X122489720Y-93091720D02*
X126589720Y-93091720D01*
X126589720Y-93091720D02*
X126589720Y-99491720D01*
X144301340Y-97944100D02*
X144301340Y-99874100D01*
X144301340Y-99874100D02*
X140051340Y-99874100D01*
X140051340Y-99874100D02*
X140051340Y-96674100D01*
X140051340Y-96674100D02*
X143031340Y-96674100D01*
X142801340Y-96174100D02*
X142301340Y-95674100D01*
X142301340Y-95674100D02*
X143301340Y-95674100D01*
X143301340Y-95674100D02*
X142801340Y-96174100D01*
X140502820Y-80534600D02*
X140502820Y-79434600D01*
X140502820Y-79434600D02*
X138302820Y-79434600D01*
X138302820Y-79434600D02*
X138302820Y-80534600D01*
X138302820Y-80534600D02*
X140452820Y-80534600D01*
X140452820Y-80534600D02*
X140502820Y-80534600D01*
D12*
X130819382Y-84511056D02*
X132169382Y-84511056D01*
X130819382Y-82761056D02*
X132169382Y-82761056D01*
D11*
X152278860Y-92631260D02*
X152278860Y-93131260D01*
X153328860Y-93131260D02*
X153328860Y-92631260D01*
X140772540Y-77130420D02*
X140272540Y-77130420D01*
X140272540Y-78180420D02*
X140772540Y-78180420D01*
X136939362Y-84247156D02*
X136939362Y-83747156D01*
X135889362Y-83747156D02*
X135889362Y-84247156D01*
X141315782Y-84256896D02*
X141315782Y-83756896D01*
X140265782Y-83756896D02*
X140265782Y-84256896D01*
X138719602Y-82644676D02*
X139219602Y-82644676D01*
X139219602Y-81594676D02*
X138719602Y-81594676D01*
X136310560Y-94937880D02*
X136810560Y-94937880D01*
X136810560Y-93887880D02*
X136310560Y-93887880D01*
X128275422Y-82245216D02*
X128275422Y-81745216D01*
X127225422Y-81745216D02*
X127225422Y-82245216D01*
X149809980Y-95709320D02*
X149809980Y-96209320D01*
X150859980Y-96209320D02*
X150859980Y-95709320D01*
X133222362Y-74661156D02*
X133222362Y-75161156D01*
X134272362Y-75161156D02*
X134272362Y-74661156D01*
D12*
X156866820Y-91622200D02*
X154966820Y-91622200D01*
X155466820Y-93942200D02*
X156866820Y-93942200D01*
X148628340Y-96869940D02*
X148628340Y-94069940D01*
X148628340Y-94069940D02*
X145328340Y-94069940D01*
D11*
X145223180Y-92298380D02*
X145223180Y-91523380D01*
X149523180Y-87998380D02*
X149523180Y-88773380D01*
X145223180Y-87998380D02*
X145223180Y-88773380D01*
X149523180Y-92298380D02*
X148748180Y-92298380D01*
X149523180Y-87998380D02*
X148748180Y-87998380D01*
X145223180Y-87998380D02*
X145998180Y-87998380D01*
X145223180Y-92298380D02*
X145998180Y-92298380D01*
X131372722Y-81510156D02*
X131372722Y-80985156D01*
X136622722Y-76260156D02*
X136622722Y-76785156D01*
X131372722Y-76260156D02*
X131372722Y-76785156D01*
X136622722Y-81510156D02*
X136097722Y-81510156D01*
X136622722Y-76260156D02*
X136097722Y-76260156D01*
X131372722Y-76260156D02*
X131897722Y-76260156D01*
X131372722Y-81510156D02*
X131897722Y-81510156D01*
X168339972Y-88424047D02*
X168816163Y-88424047D01*
X168244734Y-88709761D02*
X168578067Y-87709761D01*
X168911401Y-88709761D01*
X169244734Y-88709761D02*
X169244734Y-87709761D01*
X169816163Y-88709761D01*
X169816163Y-87709761D01*
X170149496Y-87709761D02*
X170720925Y-87709761D01*
X170435210Y-88709761D02*
X170435210Y-87709761D01*
X171578068Y-88709761D02*
X171006639Y-88709761D01*
X171292353Y-88709761D02*
X171292353Y-87709761D01*
X171197115Y-87852618D01*
X171101877Y-87947856D01*
X171006639Y-87995475D01*
X158873520Y-92977626D02*
X158844949Y-93006197D01*
X158759235Y-93034769D01*
X158702092Y-93034769D01*
X158616377Y-93006197D01*
X158559235Y-92949054D01*
X158530663Y-92891911D01*
X158502092Y-92777626D01*
X158502092Y-92691911D01*
X158530663Y-92577626D01*
X158559235Y-92520483D01*
X158616377Y-92463340D01*
X158702092Y-92434769D01*
X158759235Y-92434769D01*
X158844949Y-92463340D01*
X158873520Y-92491911D01*
X159444949Y-93034769D02*
X159102092Y-93034769D01*
X159273520Y-93034769D02*
X159273520Y-92434769D01*
X159216377Y-92520483D01*
X159159235Y-92577626D01*
X159102092Y-92606197D01*
X142568586Y-87349000D02*
X142597157Y-87377571D01*
X142625729Y-87463285D01*
X142625729Y-87520428D01*
X142597157Y-87606143D01*
X142540014Y-87663285D01*
X142482871Y-87691857D01*
X142368586Y-87720428D01*
X142282871Y-87720428D01*
X142168586Y-87691857D01*
X142111443Y-87663285D01*
X142054300Y-87606143D01*
X142025729Y-87520428D01*
X142025729Y-87463285D01*
X142054300Y-87377571D01*
X142082871Y-87349000D01*
X142082871Y-87120428D02*
X142054300Y-87091857D01*
X142025729Y-87034714D01*
X142025729Y-86891857D01*
X142054300Y-86834714D01*
X142082871Y-86806143D01*
X142140014Y-86777571D01*
X142197157Y-86777571D01*
X142282871Y-86806143D01*
X142625729Y-87149000D01*
X142625729Y-86777571D01*
X133603060Y-87155946D02*
X133574489Y-87184517D01*
X133488775Y-87213089D01*
X133431632Y-87213089D01*
X133345917Y-87184517D01*
X133288775Y-87127374D01*
X133260203Y-87070231D01*
X133231632Y-86955946D01*
X133231632Y-86870231D01*
X133260203Y-86755946D01*
X133288775Y-86698803D01*
X133345917Y-86641660D01*
X133431632Y-86613089D01*
X133488775Y-86613089D01*
X133574489Y-86641660D01*
X133603060Y-86670231D01*
X134117346Y-86813089D02*
X134117346Y-87213089D01*
X133974489Y-86584517D02*
X133831632Y-87013089D01*
X134203060Y-87013089D01*
X156881486Y-90422400D02*
X156910057Y-90450971D01*
X156938629Y-90536685D01*
X156938629Y-90593828D01*
X156910057Y-90679543D01*
X156852914Y-90736685D01*
X156795771Y-90765257D01*
X156681486Y-90793828D01*
X156595771Y-90793828D01*
X156481486Y-90765257D01*
X156424343Y-90736685D01*
X156367200Y-90679543D01*
X156338629Y-90593828D01*
X156338629Y-90536685D01*
X156367200Y-90450971D01*
X156395771Y-90422400D01*
X156338629Y-89879543D02*
X156338629Y-90165257D01*
X156624343Y-90193828D01*
X156595771Y-90165257D01*
X156567200Y-90108114D01*
X156567200Y-89965257D01*
X156595771Y-89908114D01*
X156624343Y-89879543D01*
X156681486Y-89850971D01*
X156824343Y-89850971D01*
X156881486Y-89879543D01*
X156910057Y-89908114D01*
X156938629Y-89965257D01*
X156938629Y-90108114D01*
X156910057Y-90165257D01*
X156881486Y-90193828D01*
X145454026Y-86614940D02*
X145482597Y-86643511D01*
X145511169Y-86729225D01*
X145511169Y-86786368D01*
X145482597Y-86872083D01*
X145425454Y-86929225D01*
X145368311Y-86957797D01*
X145254026Y-86986368D01*
X145168311Y-86986368D01*
X145054026Y-86957797D01*
X144996883Y-86929225D01*
X144939740Y-86872083D01*
X144911169Y-86786368D01*
X144911169Y-86729225D01*
X144939740Y-86643511D01*
X144968311Y-86614940D01*
X144911169Y-86100654D02*
X144911169Y-86214940D01*
X144939740Y-86272083D01*
X144968311Y-86300654D01*
X145054026Y-86357797D01*
X145168311Y-86386368D01*
X145396883Y-86386368D01*
X145454026Y-86357797D01*
X145482597Y-86329225D01*
X145511169Y-86272083D01*
X145511169Y-86157797D01*
X145482597Y-86100654D01*
X145454026Y-86072083D01*
X145396883Y-86043511D01*
X145254026Y-86043511D01*
X145196883Y-86072083D01*
X145168311Y-86100654D01*
X145139740Y-86157797D01*
X145139740Y-86272083D01*
X145168311Y-86329225D01*
X145196883Y-86357797D01*
X145254026Y-86386368D01*
X146087160Y-99007586D02*
X146058589Y-99036157D01*
X145972875Y-99064729D01*
X145915732Y-99064729D01*
X145830017Y-99036157D01*
X145772875Y-98979014D01*
X145744303Y-98921871D01*
X145715732Y-98807586D01*
X145715732Y-98721871D01*
X145744303Y-98607586D01*
X145772875Y-98550443D01*
X145830017Y-98493300D01*
X145915732Y-98464729D01*
X145972875Y-98464729D01*
X146058589Y-98493300D01*
X146087160Y-98521871D01*
X146287160Y-98464729D02*
X146687160Y-98464729D01*
X146430017Y-99064729D01*
X146612266Y-86503180D02*
X146640837Y-86531751D01*
X146669409Y-86617465D01*
X146669409Y-86674608D01*
X146640837Y-86760323D01*
X146583694Y-86817465D01*
X146526551Y-86846037D01*
X146412266Y-86874608D01*
X146326551Y-86874608D01*
X146212266Y-86846037D01*
X146155123Y-86817465D01*
X146097980Y-86760323D01*
X146069409Y-86674608D01*
X146069409Y-86617465D01*
X146097980Y-86531751D01*
X146126551Y-86503180D01*
X146326551Y-86160323D02*
X146297980Y-86217465D01*
X146269409Y-86246037D01*
X146212266Y-86274608D01*
X146183694Y-86274608D01*
X146126551Y-86246037D01*
X146097980Y-86217465D01*
X146069409Y-86160323D01*
X146069409Y-86046037D01*
X146097980Y-85988894D01*
X146126551Y-85960323D01*
X146183694Y-85931751D01*
X146212266Y-85931751D01*
X146269409Y-85960323D01*
X146297980Y-85988894D01*
X146326551Y-86046037D01*
X146326551Y-86160323D01*
X146355123Y-86217465D01*
X146383694Y-86246037D01*
X146440837Y-86274608D01*
X146555123Y-86274608D01*
X146612266Y-86246037D01*
X146640837Y-86217465D01*
X146669409Y-86160323D01*
X146669409Y-86046037D01*
X146640837Y-85988894D01*
X146612266Y-85960323D01*
X146555123Y-85931751D01*
X146440837Y-85931751D01*
X146383694Y-85960323D01*
X146355123Y-85988894D01*
X146326551Y-86046037D01*
X151171566Y-89248920D02*
X151200137Y-89277491D01*
X151228709Y-89363205D01*
X151228709Y-89420348D01*
X151200137Y-89506063D01*
X151142994Y-89563205D01*
X151085851Y-89591777D01*
X150971566Y-89620348D01*
X150885851Y-89620348D01*
X150771566Y-89591777D01*
X150714423Y-89563205D01*
X150657280Y-89506063D01*
X150628709Y-89420348D01*
X150628709Y-89363205D01*
X150657280Y-89277491D01*
X150685851Y-89248920D01*
X151228709Y-88963205D02*
X151228709Y-88848920D01*
X151200137Y-88791777D01*
X151171566Y-88763205D01*
X151085851Y-88706063D01*
X150971566Y-88677491D01*
X150742994Y-88677491D01*
X150685851Y-88706063D01*
X150657280Y-88734634D01*
X150628709Y-88791777D01*
X150628709Y-88906063D01*
X150657280Y-88963205D01*
X150685851Y-88991777D01*
X150742994Y-89020348D01*
X150885851Y-89020348D01*
X150942994Y-88991777D01*
X150971566Y-88963205D01*
X151000137Y-88906063D01*
X151000137Y-88791777D01*
X150971566Y-88734634D01*
X150942994Y-88706063D01*
X150885851Y-88677491D01*
X150559426Y-98818335D02*
X150587997Y-98846906D01*
X150616569Y-98932620D01*
X150616569Y-98989763D01*
X150587997Y-99075478D01*
X150530854Y-99132620D01*
X150473711Y-99161192D01*
X150359426Y-99189763D01*
X150273711Y-99189763D01*
X150159426Y-99161192D01*
X150102283Y-99132620D01*
X150045140Y-99075478D01*
X150016569Y-98989763D01*
X150016569Y-98932620D01*
X150045140Y-98846906D01*
X150073711Y-98818335D01*
X150616569Y-98246906D02*
X150616569Y-98589763D01*
X150616569Y-98418335D02*
X150016569Y-98418335D01*
X150102283Y-98475478D01*
X150159426Y-98532620D01*
X150187997Y-98589763D01*
X150016569Y-97875477D02*
X150016569Y-97818334D01*
X150045140Y-97761191D01*
X150073711Y-97732620D01*
X150130854Y-97704049D01*
X150245140Y-97675477D01*
X150387997Y-97675477D01*
X150502283Y-97704049D01*
X150559426Y-97732620D01*
X150587997Y-97761191D01*
X150616569Y-97818334D01*
X150616569Y-97875477D01*
X150587997Y-97932620D01*
X150559426Y-97961191D01*
X150502283Y-97989763D01*
X150387997Y-98018334D01*
X150245140Y-98018334D01*
X150130854Y-97989763D01*
X150073711Y-97961191D01*
X150045140Y-97932620D01*
X150016569Y-97875477D01*
X149505326Y-98711655D02*
X149533897Y-98740226D01*
X149562469Y-98825940D01*
X149562469Y-98883083D01*
X149533897Y-98968798D01*
X149476754Y-99025940D01*
X149419611Y-99054512D01*
X149305326Y-99083083D01*
X149219611Y-99083083D01*
X149105326Y-99054512D01*
X149048183Y-99025940D01*
X148991040Y-98968798D01*
X148962469Y-98883083D01*
X148962469Y-98825940D01*
X148991040Y-98740226D01*
X149019611Y-98711655D01*
X149562469Y-98140226D02*
X149562469Y-98483083D01*
X149562469Y-98311655D02*
X148962469Y-98311655D01*
X149048183Y-98368798D01*
X149105326Y-98425940D01*
X149133897Y-98483083D01*
X149562469Y-97568797D02*
X149562469Y-97911654D01*
X149562469Y-97740226D02*
X148962469Y-97740226D01*
X149048183Y-97797369D01*
X149105326Y-97854511D01*
X149133897Y-97911654D01*
X151854826Y-94192995D02*
X151883397Y-94221566D01*
X151911969Y-94307280D01*
X151911969Y-94364423D01*
X151883397Y-94450138D01*
X151826254Y-94507280D01*
X151769111Y-94535852D01*
X151654826Y-94564423D01*
X151569111Y-94564423D01*
X151454826Y-94535852D01*
X151397683Y-94507280D01*
X151340540Y-94450138D01*
X151311969Y-94364423D01*
X151311969Y-94307280D01*
X151340540Y-94221566D01*
X151369111Y-94192995D01*
X151911969Y-93621566D02*
X151911969Y-93964423D01*
X151911969Y-93792995D02*
X151311969Y-93792995D01*
X151397683Y-93850138D01*
X151454826Y-93907280D01*
X151483397Y-93964423D01*
X151369111Y-93392994D02*
X151340540Y-93364423D01*
X151311969Y-93307280D01*
X151311969Y-93164423D01*
X151340540Y-93107280D01*
X151369111Y-93078709D01*
X151426254Y-93050137D01*
X151483397Y-93050137D01*
X151569111Y-93078709D01*
X151911969Y-93421566D01*
X151911969Y-93050137D01*
X153015606Y-98696415D02*
X153044177Y-98724986D01*
X153072749Y-98810700D01*
X153072749Y-98867843D01*
X153044177Y-98953558D01*
X152987034Y-99010700D01*
X152929891Y-99039272D01*
X152815606Y-99067843D01*
X152729891Y-99067843D01*
X152615606Y-99039272D01*
X152558463Y-99010700D01*
X152501320Y-98953558D01*
X152472749Y-98867843D01*
X152472749Y-98810700D01*
X152501320Y-98724986D01*
X152529891Y-98696415D01*
X153072749Y-98124986D02*
X153072749Y-98467843D01*
X153072749Y-98296415D02*
X152472749Y-98296415D01*
X152558463Y-98353558D01*
X152615606Y-98410700D01*
X152644177Y-98467843D01*
X152472749Y-97924986D02*
X152472749Y-97553557D01*
X152701320Y-97753557D01*
X152701320Y-97667843D01*
X152729891Y-97610700D01*
X152758463Y-97582129D01*
X152815606Y-97553557D01*
X152958463Y-97553557D01*
X153015606Y-97582129D01*
X153044177Y-97610700D01*
X153072749Y-97667843D01*
X153072749Y-97839271D01*
X153044177Y-97896414D01*
X153015606Y-97924986D01*
X153066406Y-95366475D02*
X153094977Y-95395046D01*
X153123549Y-95480760D01*
X153123549Y-95537903D01*
X153094977Y-95623618D01*
X153037834Y-95680760D01*
X152980691Y-95709332D01*
X152866406Y-95737903D01*
X152780691Y-95737903D01*
X152666406Y-95709332D01*
X152609263Y-95680760D01*
X152552120Y-95623618D01*
X152523549Y-95537903D01*
X152523549Y-95480760D01*
X152552120Y-95395046D01*
X152580691Y-95366475D01*
X153123549Y-94795046D02*
X153123549Y-95137903D01*
X153123549Y-94966475D02*
X152523549Y-94966475D01*
X152609263Y-95023618D01*
X152666406Y-95080760D01*
X152694977Y-95137903D01*
X152723549Y-94280760D02*
X153123549Y-94280760D01*
X152494977Y-94423617D02*
X152923549Y-94566474D01*
X152923549Y-94195046D01*
X148390266Y-98787855D02*
X148418837Y-98816426D01*
X148447409Y-98902140D01*
X148447409Y-98959283D01*
X148418837Y-99044998D01*
X148361694Y-99102140D01*
X148304551Y-99130712D01*
X148190266Y-99159283D01*
X148104551Y-99159283D01*
X147990266Y-99130712D01*
X147933123Y-99102140D01*
X147875980Y-99044998D01*
X147847409Y-98959283D01*
X147847409Y-98902140D01*
X147875980Y-98816426D01*
X147904551Y-98787855D01*
X148447409Y-98216426D02*
X148447409Y-98559283D01*
X148447409Y-98387855D02*
X147847409Y-98387855D01*
X147933123Y-98444998D01*
X147990266Y-98502140D01*
X148018837Y-98559283D01*
X147847409Y-97673569D02*
X147847409Y-97959283D01*
X148133123Y-97987854D01*
X148104551Y-97959283D01*
X148075980Y-97902140D01*
X148075980Y-97759283D01*
X148104551Y-97702140D01*
X148133123Y-97673569D01*
X148190266Y-97644997D01*
X148333123Y-97644997D01*
X148390266Y-97673569D01*
X148418837Y-97702140D01*
X148447409Y-97759283D01*
X148447409Y-97902140D01*
X148418837Y-97959283D01*
X148390266Y-97987854D01*
X140946143Y-87891857D02*
X140993762Y-87939476D01*
X141041381Y-88082333D01*
X141041381Y-88177571D01*
X140993762Y-88320429D01*
X140898524Y-88415667D01*
X140803286Y-88463286D01*
X140612810Y-88510905D01*
X140469952Y-88510905D01*
X140279476Y-88463286D01*
X140184238Y-88415667D01*
X140089000Y-88320429D01*
X140041381Y-88177571D01*
X140041381Y-88082333D01*
X140089000Y-87939476D01*
X140136619Y-87891857D01*
X141041381Y-86939476D02*
X141041381Y-87510905D01*
X141041381Y-87225191D02*
X140041381Y-87225191D01*
X140184238Y-87320429D01*
X140279476Y-87415667D01*
X140327095Y-87510905D01*
X140041381Y-86082333D02*
X140041381Y-86272810D01*
X140089000Y-86368048D01*
X140136619Y-86415667D01*
X140279476Y-86510905D01*
X140469952Y-86558524D01*
X140850905Y-86558524D01*
X140946143Y-86510905D01*
X140993762Y-86463286D01*
X141041381Y-86368048D01*
X141041381Y-86177571D01*
X140993762Y-86082333D01*
X140946143Y-86034714D01*
X140850905Y-85987095D01*
X140612810Y-85987095D01*
X140517571Y-86034714D01*
X140469952Y-86082333D01*
X140422333Y-86177571D01*
X140422333Y-86368048D01*
X140469952Y-86463286D01*
X140517571Y-86510905D01*
X140612810Y-86558524D01*
X144087506Y-87796195D02*
X144116077Y-87824766D01*
X144144649Y-87910480D01*
X144144649Y-87967623D01*
X144116077Y-88053338D01*
X144058934Y-88110480D01*
X144001791Y-88139052D01*
X143887506Y-88167623D01*
X143801791Y-88167623D01*
X143687506Y-88139052D01*
X143630363Y-88110480D01*
X143573220Y-88053338D01*
X143544649Y-87967623D01*
X143544649Y-87910480D01*
X143573220Y-87824766D01*
X143601791Y-87796195D01*
X144144649Y-87224766D02*
X144144649Y-87567623D01*
X144144649Y-87396195D02*
X143544649Y-87396195D01*
X143630363Y-87453338D01*
X143687506Y-87510480D01*
X143716077Y-87567623D01*
X143544649Y-87024766D02*
X143544649Y-86624766D01*
X144144649Y-86881909D01*
X154249485Y-89848346D02*
X154220914Y-89876917D01*
X154135200Y-89905489D01*
X154078057Y-89905489D01*
X153992342Y-89876917D01*
X153935200Y-89819774D01*
X153906628Y-89762631D01*
X153878057Y-89648346D01*
X153878057Y-89562631D01*
X153906628Y-89448346D01*
X153935200Y-89391203D01*
X153992342Y-89334060D01*
X154078057Y-89305489D01*
X154135200Y-89305489D01*
X154220914Y-89334060D01*
X154249485Y-89362631D01*
X154820914Y-89905489D02*
X154478057Y-89905489D01*
X154649485Y-89905489D02*
X154649485Y-89305489D01*
X154592342Y-89391203D01*
X154535200Y-89448346D01*
X154478057Y-89476917D01*
X155163771Y-89562631D02*
X155106629Y-89534060D01*
X155078057Y-89505489D01*
X155049486Y-89448346D01*
X155049486Y-89419774D01*
X155078057Y-89362631D01*
X155106629Y-89334060D01*
X155163771Y-89305489D01*
X155278057Y-89305489D01*
X155335200Y-89334060D01*
X155363771Y-89362631D01*
X155392343Y-89419774D01*
X155392343Y-89448346D01*
X155363771Y-89505489D01*
X155335200Y-89534060D01*
X155278057Y-89562631D01*
X155163771Y-89562631D01*
X155106629Y-89591203D01*
X155078057Y-89619774D01*
X155049486Y-89676917D01*
X155049486Y-89791203D01*
X155078057Y-89848346D01*
X155106629Y-89876917D01*
X155163771Y-89905489D01*
X155278057Y-89905489D01*
X155335200Y-89876917D01*
X155363771Y-89848346D01*
X155392343Y-89791203D01*
X155392343Y-89676917D01*
X155363771Y-89619774D01*
X155335200Y-89591203D01*
X155278057Y-89562631D01*
X158570586Y-96070055D02*
X158599157Y-96098626D01*
X158627729Y-96184340D01*
X158627729Y-96241483D01*
X158599157Y-96327198D01*
X158542014Y-96384340D01*
X158484871Y-96412912D01*
X158370586Y-96441483D01*
X158284871Y-96441483D01*
X158170586Y-96412912D01*
X158113443Y-96384340D01*
X158056300Y-96327198D01*
X158027729Y-96241483D01*
X158027729Y-96184340D01*
X158056300Y-96098626D01*
X158084871Y-96070055D01*
X158627729Y-95498626D02*
X158627729Y-95841483D01*
X158627729Y-95670055D02*
X158027729Y-95670055D01*
X158113443Y-95727198D01*
X158170586Y-95784340D01*
X158199157Y-95841483D01*
X158627729Y-95212911D02*
X158627729Y-95098626D01*
X158599157Y-95041483D01*
X158570586Y-95012911D01*
X158484871Y-94955769D01*
X158370586Y-94927197D01*
X158142014Y-94927197D01*
X158084871Y-94955769D01*
X158056300Y-94984340D01*
X158027729Y-95041483D01*
X158027729Y-95155769D01*
X158056300Y-95212911D01*
X158084871Y-95241483D01*
X158142014Y-95270054D01*
X158284871Y-95270054D01*
X158342014Y-95241483D01*
X158370586Y-95212911D01*
X158399157Y-95155769D01*
X158399157Y-95041483D01*
X158370586Y-94984340D01*
X158342014Y-94955769D01*
X158284871Y-94927197D01*
X155456546Y-95864315D02*
X155485117Y-95892886D01*
X155513689Y-95978600D01*
X155513689Y-96035743D01*
X155485117Y-96121458D01*
X155427974Y-96178600D01*
X155370831Y-96207172D01*
X155256546Y-96235743D01*
X155170831Y-96235743D01*
X155056546Y-96207172D01*
X154999403Y-96178600D01*
X154942260Y-96121458D01*
X154913689Y-96035743D01*
X154913689Y-95978600D01*
X154942260Y-95892886D01*
X154970831Y-95864315D01*
X154970831Y-95635743D02*
X154942260Y-95607172D01*
X154913689Y-95550029D01*
X154913689Y-95407172D01*
X154942260Y-95350029D01*
X154970831Y-95321458D01*
X155027974Y-95292886D01*
X155085117Y-95292886D01*
X155170831Y-95321458D01*
X155513689Y-95664315D01*
X155513689Y-95292886D01*
X154913689Y-94921457D02*
X154913689Y-94864314D01*
X154942260Y-94807171D01*
X154970831Y-94778600D01*
X155027974Y-94750029D01*
X155142260Y-94721457D01*
X155285117Y-94721457D01*
X155399403Y-94750029D01*
X155456546Y-94778600D01*
X155485117Y-94807171D01*
X155513689Y-94864314D01*
X155513689Y-94921457D01*
X155485117Y-94978600D01*
X155456546Y-95007171D01*
X155399403Y-95035743D01*
X155285117Y-95064314D01*
X155142260Y-95064314D01*
X155027974Y-95035743D01*
X154970831Y-95007171D01*
X154942260Y-94978600D01*
X154913689Y-94921457D01*
X133441203Y-89053943D02*
X133393584Y-89101562D01*
X133250727Y-89149181D01*
X133155489Y-89149181D01*
X133012631Y-89101562D01*
X132917393Y-89006324D01*
X132869774Y-88911086D01*
X132822155Y-88720610D01*
X132822155Y-88577752D01*
X132869774Y-88387276D01*
X132917393Y-88292038D01*
X133012631Y-88196800D01*
X133155489Y-88149181D01*
X133250727Y-88149181D01*
X133393584Y-88196800D01*
X133441203Y-88244419D01*
X133822155Y-88244419D02*
X133869774Y-88196800D01*
X133965012Y-88149181D01*
X134203108Y-88149181D01*
X134298346Y-88196800D01*
X134345965Y-88244419D01*
X134393584Y-88339657D01*
X134393584Y-88434895D01*
X134345965Y-88577752D01*
X133774536Y-89149181D01*
X134393584Y-89149181D01*
X134774536Y-88244419D02*
X134822155Y-88196800D01*
X134917393Y-88149181D01*
X135155489Y-88149181D01*
X135250727Y-88196800D01*
X135298346Y-88244419D01*
X135345965Y-88339657D01*
X135345965Y-88434895D01*
X135298346Y-88577752D01*
X134726917Y-89149181D01*
X135345965Y-89149181D01*
X159688186Y-91381215D02*
X159716757Y-91409786D01*
X159745329Y-91495500D01*
X159745329Y-91552643D01*
X159716757Y-91638358D01*
X159659614Y-91695500D01*
X159602471Y-91724072D01*
X159488186Y-91752643D01*
X159402471Y-91752643D01*
X159288186Y-91724072D01*
X159231043Y-91695500D01*
X159173900Y-91638358D01*
X159145329Y-91552643D01*
X159145329Y-91495500D01*
X159173900Y-91409786D01*
X159202471Y-91381215D01*
X159202471Y-91152643D02*
X159173900Y-91124072D01*
X159145329Y-91066929D01*
X159145329Y-90924072D01*
X159173900Y-90866929D01*
X159202471Y-90838358D01*
X159259614Y-90809786D01*
X159316757Y-90809786D01*
X159402471Y-90838358D01*
X159745329Y-91181215D01*
X159745329Y-90809786D01*
X159345329Y-90295500D02*
X159745329Y-90295500D01*
X159116757Y-90438357D02*
X159545329Y-90581214D01*
X159545329Y-90209786D01*
X133406245Y-85578606D02*
X133377674Y-85607177D01*
X133291960Y-85635749D01*
X133234817Y-85635749D01*
X133149102Y-85607177D01*
X133091960Y-85550034D01*
X133063388Y-85492891D01*
X133034817Y-85378606D01*
X133034817Y-85292891D01*
X133063388Y-85178606D01*
X133091960Y-85121463D01*
X133149102Y-85064320D01*
X133234817Y-85035749D01*
X133291960Y-85035749D01*
X133377674Y-85064320D01*
X133406245Y-85092891D01*
X133634817Y-85092891D02*
X133663388Y-85064320D01*
X133720531Y-85035749D01*
X133863388Y-85035749D01*
X133920531Y-85064320D01*
X133949102Y-85092891D01*
X133977674Y-85150034D01*
X133977674Y-85207177D01*
X133949102Y-85292891D01*
X133606245Y-85635749D01*
X133977674Y-85635749D01*
X134491960Y-85035749D02*
X134377674Y-85035749D01*
X134320531Y-85064320D01*
X134291960Y-85092891D01*
X134234817Y-85178606D01*
X134206246Y-85292891D01*
X134206246Y-85521463D01*
X134234817Y-85578606D01*
X134263389Y-85607177D01*
X134320531Y-85635749D01*
X134434817Y-85635749D01*
X134491960Y-85607177D01*
X134520531Y-85578606D01*
X134549103Y-85521463D01*
X134549103Y-85378606D01*
X134520531Y-85321463D01*
X134491960Y-85292891D01*
X134434817Y-85264320D01*
X134320531Y-85264320D01*
X134263389Y-85292891D01*
X134234817Y-85321463D01*
X134206246Y-85378606D01*
X160589886Y-95826215D02*
X160618457Y-95854786D01*
X160647029Y-95940500D01*
X160647029Y-95997643D01*
X160618457Y-96083358D01*
X160561314Y-96140500D01*
X160504171Y-96169072D01*
X160389886Y-96197643D01*
X160304171Y-96197643D01*
X160189886Y-96169072D01*
X160132743Y-96140500D01*
X160075600Y-96083358D01*
X160047029Y-95997643D01*
X160047029Y-95940500D01*
X160075600Y-95854786D01*
X160104171Y-95826215D01*
X160104171Y-95597643D02*
X160075600Y-95569072D01*
X160047029Y-95511929D01*
X160047029Y-95369072D01*
X160075600Y-95311929D01*
X160104171Y-95283358D01*
X160161314Y-95254786D01*
X160218457Y-95254786D01*
X160304171Y-95283358D01*
X160647029Y-95626215D01*
X160647029Y-95254786D01*
X160047029Y-95054786D02*
X160047029Y-94654786D01*
X160647029Y-94911929D01*
X130393805Y-85548126D02*
X130365234Y-85576697D01*
X130279520Y-85605269D01*
X130222377Y-85605269D01*
X130136662Y-85576697D01*
X130079520Y-85519554D01*
X130050948Y-85462411D01*
X130022377Y-85348126D01*
X130022377Y-85262411D01*
X130050948Y-85148126D01*
X130079520Y-85090983D01*
X130136662Y-85033840D01*
X130222377Y-85005269D01*
X130279520Y-85005269D01*
X130365234Y-85033840D01*
X130393805Y-85062411D01*
X130622377Y-85062411D02*
X130650948Y-85033840D01*
X130708091Y-85005269D01*
X130850948Y-85005269D01*
X130908091Y-85033840D01*
X130936662Y-85062411D01*
X130965234Y-85119554D01*
X130965234Y-85176697D01*
X130936662Y-85262411D01*
X130593805Y-85605269D01*
X130965234Y-85605269D01*
X131308091Y-85262411D02*
X131250949Y-85233840D01*
X131222377Y-85205269D01*
X131193806Y-85148126D01*
X131193806Y-85119554D01*
X131222377Y-85062411D01*
X131250949Y-85033840D01*
X131308091Y-85005269D01*
X131422377Y-85005269D01*
X131479520Y-85033840D01*
X131508091Y-85062411D01*
X131536663Y-85119554D01*
X131536663Y-85148126D01*
X131508091Y-85205269D01*
X131479520Y-85233840D01*
X131422377Y-85262411D01*
X131308091Y-85262411D01*
X131250949Y-85290983D01*
X131222377Y-85319554D01*
X131193806Y-85376697D01*
X131193806Y-85490983D01*
X131222377Y-85548126D01*
X131250949Y-85576697D01*
X131308091Y-85605269D01*
X131422377Y-85605269D01*
X131479520Y-85576697D01*
X131508091Y-85548126D01*
X131536663Y-85490983D01*
X131536663Y-85376697D01*
X131508091Y-85319554D01*
X131479520Y-85290983D01*
X131422377Y-85262411D01*
X129253345Y-81776226D02*
X129224774Y-81804797D01*
X129139060Y-81833369D01*
X129081917Y-81833369D01*
X128996202Y-81804797D01*
X128939060Y-81747654D01*
X128910488Y-81690511D01*
X128881917Y-81576226D01*
X128881917Y-81490511D01*
X128910488Y-81376226D01*
X128939060Y-81319083D01*
X128996202Y-81261940D01*
X129081917Y-81233369D01*
X129139060Y-81233369D01*
X129224774Y-81261940D01*
X129253345Y-81290511D01*
X129481917Y-81290511D02*
X129510488Y-81261940D01*
X129567631Y-81233369D01*
X129710488Y-81233369D01*
X129767631Y-81261940D01*
X129796202Y-81290511D01*
X129824774Y-81347654D01*
X129824774Y-81404797D01*
X129796202Y-81490511D01*
X129453345Y-81833369D01*
X129824774Y-81833369D01*
X130110489Y-81833369D02*
X130224774Y-81833369D01*
X130281917Y-81804797D01*
X130310489Y-81776226D01*
X130367631Y-81690511D01*
X130396203Y-81576226D01*
X130396203Y-81347654D01*
X130367631Y-81290511D01*
X130339060Y-81261940D01*
X130281917Y-81233369D01*
X130167631Y-81233369D01*
X130110489Y-81261940D01*
X130081917Y-81290511D01*
X130053346Y-81347654D01*
X130053346Y-81490511D01*
X130081917Y-81547654D01*
X130110489Y-81576226D01*
X130167631Y-81604797D01*
X130281917Y-81604797D01*
X130339060Y-81576226D01*
X130367631Y-81547654D01*
X130396203Y-81490511D01*
X135271166Y-94314915D02*
X135299737Y-94343486D01*
X135328309Y-94429200D01*
X135328309Y-94486343D01*
X135299737Y-94572058D01*
X135242594Y-94629200D01*
X135185451Y-94657772D01*
X135071166Y-94686343D01*
X134985451Y-94686343D01*
X134871166Y-94657772D01*
X134814023Y-94629200D01*
X134756880Y-94572058D01*
X134728309Y-94486343D01*
X134728309Y-94429200D01*
X134756880Y-94343486D01*
X134785451Y-94314915D01*
X134728309Y-94114915D02*
X134728309Y-93743486D01*
X134956880Y-93943486D01*
X134956880Y-93857772D01*
X134985451Y-93800629D01*
X135014023Y-93772058D01*
X135071166Y-93743486D01*
X135214023Y-93743486D01*
X135271166Y-93772058D01*
X135299737Y-93800629D01*
X135328309Y-93857772D01*
X135328309Y-94029200D01*
X135299737Y-94086343D01*
X135271166Y-94114915D01*
X134928309Y-93229200D02*
X135328309Y-93229200D01*
X134699737Y-93372057D02*
X135128309Y-93514914D01*
X135128309Y-93143486D01*
X127312563Y-88171281D02*
X127312563Y-87171281D01*
X127550658Y-87171281D01*
X127693516Y-87218900D01*
X127788754Y-87314138D01*
X127836373Y-87409376D01*
X127883992Y-87599852D01*
X127883992Y-87742710D01*
X127836373Y-87933186D01*
X127788754Y-88028424D01*
X127693516Y-88123662D01*
X127550658Y-88171281D01*
X127312563Y-88171281D01*
X128788754Y-88171281D02*
X128312563Y-88171281D01*
X128312563Y-87171281D01*
X129645897Y-88171281D02*
X129074468Y-88171281D01*
X129360182Y-88171281D02*
X129360182Y-87171281D01*
X129264944Y-87314138D01*
X129169706Y-87409376D01*
X129074468Y-87456995D01*
X150631809Y-93574540D02*
X150631809Y-93860254D01*
X150031809Y-93860254D01*
X150631809Y-93060254D02*
X150631809Y-93403111D01*
X150631809Y-93231683D02*
X150031809Y-93231683D01*
X150117523Y-93288826D01*
X150174666Y-93345968D01*
X150203237Y-93403111D01*
X152487960Y-89892789D02*
X152202246Y-89892789D01*
X152202246Y-89292789D01*
X152659389Y-89349931D02*
X152687960Y-89321360D01*
X152745103Y-89292789D01*
X152887960Y-89292789D01*
X152945103Y-89321360D01*
X152973674Y-89349931D01*
X153002246Y-89407074D01*
X153002246Y-89464217D01*
X152973674Y-89549931D01*
X152630817Y-89892789D01*
X153002246Y-89892789D01*
X159902220Y-94093949D02*
X159616506Y-94093949D01*
X159616506Y-93493949D01*
X160045077Y-93493949D02*
X160416506Y-93493949D01*
X160216506Y-93722520D01*
X160302220Y-93722520D01*
X160359363Y-93751091D01*
X160387934Y-93779663D01*
X160416506Y-93836806D01*
X160416506Y-93979663D01*
X160387934Y-94036806D01*
X160359363Y-94065377D01*
X160302220Y-94093949D01*
X160130792Y-94093949D01*
X160073649Y-94065377D01*
X160045077Y-94036806D01*
X153080893Y-96755387D02*
X152747560Y-96755387D01*
X152747560Y-96055387D01*
X153614227Y-96288720D02*
X153614227Y-96755387D01*
X153447560Y-96022053D02*
X153280893Y-96522053D01*
X153714227Y-96522053D01*
X151881489Y-96076440D02*
X151881489Y-96362154D01*
X151281489Y-96362154D01*
X151281489Y-95590726D02*
X151281489Y-95876440D01*
X151567203Y-95905011D01*
X151538631Y-95876440D01*
X151510060Y-95819297D01*
X151510060Y-95676440D01*
X151538631Y-95619297D01*
X151567203Y-95590726D01*
X151624346Y-95562154D01*
X151767203Y-95562154D01*
X151824346Y-95590726D01*
X151852917Y-95619297D01*
X151881489Y-95676440D01*
X151881489Y-95819297D01*
X151852917Y-95876440D01*
X151824346Y-95905011D01*
X154172569Y-95231855D02*
X154172569Y-95517569D01*
X153572569Y-95517569D01*
X154172569Y-94717569D02*
X154172569Y-95060426D01*
X154172569Y-94888998D02*
X153572569Y-94888998D01*
X153658283Y-94946141D01*
X153715426Y-95003283D01*
X153743997Y-95060426D01*
X154172569Y-94146140D02*
X154172569Y-94488997D01*
X154172569Y-94317569D02*
X153572569Y-94317569D01*
X153658283Y-94374712D01*
X153715426Y-94431854D01*
X153743997Y-94488997D01*
X141394441Y-93316015D02*
X140394441Y-93316015D01*
X140394441Y-92935062D01*
X140442060Y-92839824D01*
X140489679Y-92792205D01*
X140584917Y-92744586D01*
X140727774Y-92744586D01*
X140823012Y-92792205D01*
X140870631Y-92839824D01*
X140918250Y-92935062D01*
X140918250Y-93316015D01*
X141394441Y-91792205D02*
X141394441Y-92363634D01*
X141394441Y-92077920D02*
X140394441Y-92077920D01*
X140537298Y-92173158D01*
X140632536Y-92268396D01*
X140680155Y-92363634D01*
X125831861Y-96618015D02*
X124831861Y-96618015D01*
X124831861Y-96237062D01*
X124879480Y-96141824D01*
X124927099Y-96094205D01*
X125022337Y-96046586D01*
X125165194Y-96046586D01*
X125260432Y-96094205D01*
X125308051Y-96141824D01*
X125355670Y-96237062D01*
X125355670Y-96618015D01*
X124927099Y-95665634D02*
X124879480Y-95618015D01*
X124831861Y-95522777D01*
X124831861Y-95284681D01*
X124879480Y-95189443D01*
X124927099Y-95141824D01*
X125022337Y-95094205D01*
X125117575Y-95094205D01*
X125260432Y-95141824D01*
X125831861Y-95713253D01*
X125831861Y-95094205D01*
X141476505Y-99555561D02*
X141476505Y-98555561D01*
X141857458Y-98555561D01*
X141952696Y-98603180D01*
X142000315Y-98650799D01*
X142047934Y-98746037D01*
X142047934Y-98888894D01*
X142000315Y-98984132D01*
X141952696Y-99031751D01*
X141857458Y-99079370D01*
X141476505Y-99079370D01*
X142381267Y-98555561D02*
X143000315Y-98555561D01*
X142666981Y-98936513D01*
X142809839Y-98936513D01*
X142905077Y-98984132D01*
X142952696Y-99031751D01*
X143000315Y-99126990D01*
X143000315Y-99365085D01*
X142952696Y-99460323D01*
X142905077Y-99507942D01*
X142809839Y-99555561D01*
X142524124Y-99555561D01*
X142428886Y-99507942D01*
X142381267Y-99460323D01*
X139286417Y-80348735D02*
X139219751Y-80315402D01*
X139153084Y-80248735D01*
X139053084Y-80148735D01*
X138986417Y-80115402D01*
X138919751Y-80115402D01*
X138953084Y-80282069D02*
X138886417Y-80248735D01*
X138819751Y-80182069D01*
X138786417Y-80048735D01*
X138786417Y-79815402D01*
X138819751Y-79682069D01*
X138886417Y-79615402D01*
X138953084Y-79582069D01*
X139086417Y-79582069D01*
X139153084Y-79615402D01*
X139219751Y-79682069D01*
X139253084Y-79815402D01*
X139253084Y-80048735D01*
X139219751Y-80182069D01*
X139153084Y-80248735D01*
X139086417Y-80282069D01*
X138953084Y-80282069D01*
X139919750Y-80282069D02*
X139519750Y-80282069D01*
X139719750Y-80282069D02*
X139719750Y-79582069D01*
X139653084Y-79682069D01*
X139586417Y-79748735D01*
X139519750Y-79782069D01*
X130782132Y-84182199D02*
X130686894Y-84134580D01*
X130591656Y-84039342D01*
X130448799Y-83896485D01*
X130353560Y-83848866D01*
X130258322Y-83848866D01*
X130305941Y-84086961D02*
X130210703Y-84039342D01*
X130115465Y-83944104D01*
X130067846Y-83753628D01*
X130067846Y-83420294D01*
X130115465Y-83229818D01*
X130210703Y-83134580D01*
X130305941Y-83086961D01*
X130496418Y-83086961D01*
X130591656Y-83134580D01*
X130686894Y-83229818D01*
X130734513Y-83420294D01*
X130734513Y-83753628D01*
X130686894Y-83944104D01*
X130591656Y-84039342D01*
X130496418Y-84086961D01*
X130305941Y-84086961D01*
X131067846Y-83086961D02*
X131734513Y-83086961D01*
X131067846Y-84086961D01*
X131734513Y-84086961D01*
X132020227Y-83086961D02*
X132639275Y-83086961D01*
X132305941Y-83467913D01*
X132448799Y-83467913D01*
X132544037Y-83515532D01*
X132591656Y-83563151D01*
X132639275Y-83658390D01*
X132639275Y-83896485D01*
X132591656Y-83991723D01*
X132544037Y-84039342D01*
X132448799Y-84086961D01*
X132163084Y-84086961D01*
X132067846Y-84039342D01*
X132020227Y-83991723D01*
X153057509Y-93018280D02*
X152771794Y-93218280D01*
X153057509Y-93361137D02*
X152457509Y-93361137D01*
X152457509Y-93132565D01*
X152486080Y-93075423D01*
X152514651Y-93046851D01*
X152571794Y-93018280D01*
X152657509Y-93018280D01*
X152714651Y-93046851D01*
X152743223Y-93075423D01*
X152771794Y-93132565D01*
X152771794Y-93361137D01*
X153057509Y-92446851D02*
X153057509Y-92789708D01*
X153057509Y-92618280D02*
X152457509Y-92618280D01*
X152543223Y-92675423D01*
X152600366Y-92732565D01*
X152628937Y-92789708D01*
X140405404Y-77874631D02*
X140205404Y-77588916D01*
X140062547Y-77874631D02*
X140062547Y-77274631D01*
X140291119Y-77274631D01*
X140348261Y-77303202D01*
X140376833Y-77331773D01*
X140405404Y-77388916D01*
X140405404Y-77474631D01*
X140376833Y-77531773D01*
X140348261Y-77560345D01*
X140291119Y-77588916D01*
X140062547Y-77588916D01*
X140633976Y-77331773D02*
X140662547Y-77303202D01*
X140719690Y-77274631D01*
X140862547Y-77274631D01*
X140919690Y-77303202D01*
X140948261Y-77331773D01*
X140976833Y-77388916D01*
X140976833Y-77446059D01*
X140948261Y-77531773D01*
X140605404Y-77874631D01*
X140976833Y-77874631D01*
X136725309Y-84146060D02*
X136439594Y-84346060D01*
X136725309Y-84488917D02*
X136125309Y-84488917D01*
X136125309Y-84260345D01*
X136153880Y-84203203D01*
X136182451Y-84174631D01*
X136239594Y-84146060D01*
X136325309Y-84146060D01*
X136382451Y-84174631D01*
X136411023Y-84203203D01*
X136439594Y-84260345D01*
X136439594Y-84488917D01*
X136125309Y-83946060D02*
X136125309Y-83574631D01*
X136353880Y-83774631D01*
X136353880Y-83688917D01*
X136382451Y-83631774D01*
X136411023Y-83603203D01*
X136468166Y-83574631D01*
X136611023Y-83574631D01*
X136668166Y-83603203D01*
X136696737Y-83631774D01*
X136725309Y-83688917D01*
X136725309Y-83860345D01*
X136696737Y-83917488D01*
X136668166Y-83946060D01*
X141045849Y-84039380D02*
X140760134Y-84239380D01*
X141045849Y-84382237D02*
X140445849Y-84382237D01*
X140445849Y-84153665D01*
X140474420Y-84096523D01*
X140502991Y-84067951D01*
X140560134Y-84039380D01*
X140645849Y-84039380D01*
X140702991Y-84067951D01*
X140731563Y-84096523D01*
X140760134Y-84153665D01*
X140760134Y-84382237D01*
X140645849Y-83525094D02*
X141045849Y-83525094D01*
X140417277Y-83667951D02*
X140845849Y-83810808D01*
X140845849Y-83439380D01*
X138868480Y-82417569D02*
X138668480Y-82131854D01*
X138525623Y-82417569D02*
X138525623Y-81817569D01*
X138754195Y-81817569D01*
X138811337Y-81846140D01*
X138839909Y-81874711D01*
X138868480Y-81931854D01*
X138868480Y-82017569D01*
X138839909Y-82074711D01*
X138811337Y-82103283D01*
X138754195Y-82131854D01*
X138525623Y-82131854D01*
X139411337Y-81817569D02*
X139125623Y-81817569D01*
X139097052Y-82103283D01*
X139125623Y-82074711D01*
X139182766Y-82046140D01*
X139325623Y-82046140D01*
X139382766Y-82074711D01*
X139411337Y-82103283D01*
X139439909Y-82160426D01*
X139439909Y-82303283D01*
X139411337Y-82360426D01*
X139382766Y-82388997D01*
X139325623Y-82417569D01*
X139182766Y-82417569D01*
X139125623Y-82388997D01*
X139097052Y-82360426D01*
X136557080Y-94746729D02*
X136357080Y-94461014D01*
X136214223Y-94746729D02*
X136214223Y-94146729D01*
X136442795Y-94146729D01*
X136499937Y-94175300D01*
X136528509Y-94203871D01*
X136557080Y-94261014D01*
X136557080Y-94346729D01*
X136528509Y-94403871D01*
X136499937Y-94432443D01*
X136442795Y-94461014D01*
X136214223Y-94461014D01*
X136842795Y-94746729D02*
X136957080Y-94746729D01*
X137014223Y-94718157D01*
X137042795Y-94689586D01*
X137099937Y-94603871D01*
X137128509Y-94489586D01*
X137128509Y-94261014D01*
X137099937Y-94203871D01*
X137071366Y-94175300D01*
X137014223Y-94146729D01*
X136899937Y-94146729D01*
X136842795Y-94175300D01*
X136814223Y-94203871D01*
X136785652Y-94261014D01*
X136785652Y-94403871D01*
X136814223Y-94461014D01*
X136842795Y-94489586D01*
X136899937Y-94518157D01*
X137014223Y-94518157D01*
X137071366Y-94489586D01*
X137099937Y-94461014D01*
X137128509Y-94403871D01*
X128010569Y-82181335D02*
X127724854Y-82381335D01*
X128010569Y-82524192D02*
X127410569Y-82524192D01*
X127410569Y-82295620D01*
X127439140Y-82238478D01*
X127467711Y-82209906D01*
X127524854Y-82181335D01*
X127610569Y-82181335D01*
X127667711Y-82209906D01*
X127696283Y-82238478D01*
X127724854Y-82295620D01*
X127724854Y-82524192D01*
X128010569Y-81609906D02*
X128010569Y-81952763D01*
X128010569Y-81781335D02*
X127410569Y-81781335D01*
X127496283Y-81838478D01*
X127553426Y-81895620D01*
X127581997Y-81952763D01*
X127410569Y-81238477D02*
X127410569Y-81181334D01*
X127439140Y-81124191D01*
X127467711Y-81095620D01*
X127524854Y-81067049D01*
X127639140Y-81038477D01*
X127781997Y-81038477D01*
X127896283Y-81067049D01*
X127953426Y-81095620D01*
X127981997Y-81124191D01*
X128010569Y-81181334D01*
X128010569Y-81238477D01*
X127981997Y-81295620D01*
X127953426Y-81324191D01*
X127896283Y-81352763D01*
X127781997Y-81381334D01*
X127639140Y-81381334D01*
X127524854Y-81352763D01*
X127467711Y-81324191D01*
X127439140Y-81295620D01*
X127410569Y-81238477D01*
X150601329Y-96362155D02*
X150315614Y-96562155D01*
X150601329Y-96705012D02*
X150001329Y-96705012D01*
X150001329Y-96476440D01*
X150029900Y-96419298D01*
X150058471Y-96390726D01*
X150115614Y-96362155D01*
X150201329Y-96362155D01*
X150258471Y-96390726D01*
X150287043Y-96419298D01*
X150315614Y-96476440D01*
X150315614Y-96705012D01*
X150601329Y-95790726D02*
X150601329Y-96133583D01*
X150601329Y-95962155D02*
X150001329Y-95962155D01*
X150087043Y-96019298D01*
X150144186Y-96076440D01*
X150172757Y-96133583D01*
X150001329Y-95247869D02*
X150001329Y-95533583D01*
X150287043Y-95562154D01*
X150258471Y-95533583D01*
X150229900Y-95476440D01*
X150229900Y-95333583D01*
X150258471Y-95276440D01*
X150287043Y-95247869D01*
X150344186Y-95219297D01*
X150487043Y-95219297D01*
X150544186Y-95247869D01*
X150572757Y-95276440D01*
X150601329Y-95333583D01*
X150601329Y-95476440D01*
X150572757Y-95533583D01*
X150544186Y-95562154D01*
X134010049Y-75374135D02*
X133724334Y-75574135D01*
X134010049Y-75716992D02*
X133410049Y-75716992D01*
X133410049Y-75488420D01*
X133438620Y-75431278D01*
X133467191Y-75402706D01*
X133524334Y-75374135D01*
X133610049Y-75374135D01*
X133667191Y-75402706D01*
X133695763Y-75431278D01*
X133724334Y-75488420D01*
X133724334Y-75716992D01*
X133410049Y-75174135D02*
X133410049Y-74802706D01*
X133638620Y-75002706D01*
X133638620Y-74916992D01*
X133667191Y-74859849D01*
X133695763Y-74831278D01*
X133752906Y-74802706D01*
X133895763Y-74802706D01*
X133952906Y-74831278D01*
X133981477Y-74859849D01*
X134010049Y-74916992D01*
X134010049Y-75088420D01*
X133981477Y-75145563D01*
X133952906Y-75174135D01*
X133467191Y-74574134D02*
X133438620Y-74545563D01*
X133410049Y-74488420D01*
X133410049Y-74345563D01*
X133438620Y-74288420D01*
X133467191Y-74259849D01*
X133524334Y-74231277D01*
X133581477Y-74231277D01*
X133667191Y-74259849D01*
X134010049Y-74602706D01*
X134010049Y-74231277D01*
X155402375Y-92144601D02*
X155402375Y-92954125D01*
X155449994Y-93049363D01*
X155497613Y-93096982D01*
X155592851Y-93144601D01*
X155783328Y-93144601D01*
X155878566Y-93096982D01*
X155926185Y-93049363D01*
X155973804Y-92954125D01*
X155973804Y-92144601D01*
X156926185Y-92144601D02*
X156449994Y-92144601D01*
X156402375Y-92620791D01*
X156449994Y-92573172D01*
X156545232Y-92525553D01*
X156783328Y-92525553D01*
X156878566Y-92573172D01*
X156926185Y-92620791D01*
X156973804Y-92716030D01*
X156973804Y-92954125D01*
X156926185Y-93049363D01*
X156878566Y-93096982D01*
X156783328Y-93144601D01*
X156545232Y-93144601D01*
X156449994Y-93096982D01*
X156402375Y-93049363D01*
X146406912Y-98217559D02*
X146311674Y-98169940D01*
X146216436Y-98074702D01*
X146073579Y-97931845D01*
X145978340Y-97884226D01*
X145883102Y-97884226D01*
X145930721Y-98122321D02*
X145835483Y-98074702D01*
X145740245Y-97979464D01*
X145692626Y-97788988D01*
X145692626Y-97455654D01*
X145740245Y-97265178D01*
X145835483Y-97169940D01*
X145930721Y-97122321D01*
X146121198Y-97122321D01*
X146216436Y-97169940D01*
X146311674Y-97265178D01*
X146359293Y-97455654D01*
X146359293Y-97788988D01*
X146311674Y-97979464D01*
X146216436Y-98074702D01*
X146121198Y-98122321D01*
X145930721Y-98122321D01*
X146692626Y-97122321D02*
X147359293Y-97122321D01*
X146692626Y-98122321D01*
X147359293Y-98122321D01*
X148264055Y-98122321D02*
X147692626Y-98122321D01*
X147978340Y-98122321D02*
X147978340Y-97122321D01*
X147883102Y-97265178D01*
X147787864Y-97360416D01*
X147692626Y-97408035D01*
X146611275Y-92930761D02*
X146611275Y-93740285D01*
X146658894Y-93835523D01*
X146706513Y-93883142D01*
X146801751Y-93930761D01*
X146992228Y-93930761D01*
X147087466Y-93883142D01*
X147135085Y-93835523D01*
X147182704Y-93740285D01*
X147182704Y-92930761D01*
X148182704Y-93930761D02*
X147611275Y-93930761D01*
X147896989Y-93930761D02*
X147896989Y-92930761D01*
X147801751Y-93073618D01*
X147706513Y-93168856D01*
X147611275Y-93216475D01*
X133235817Y-82087537D02*
X133235817Y-82897061D01*
X133283436Y-82992299D01*
X133331055Y-83039918D01*
X133426293Y-83087537D01*
X133616770Y-83087537D01*
X133712008Y-83039918D01*
X133759627Y-82992299D01*
X133807246Y-82897061D01*
X133807246Y-82087537D01*
X134235817Y-82182775D02*
X134283436Y-82135156D01*
X134378674Y-82087537D01*
X134616770Y-82087537D01*
X134712008Y-82135156D01*
X134759627Y-82182775D01*
X134807246Y-82278013D01*
X134807246Y-82373251D01*
X134759627Y-82516108D01*
X134188198Y-83087537D01*
X134807246Y-83087537D01*
M02*
