G04 #@! TF.FileFunction,Soldermask,Top*
%FSLAX46Y46*%
G04 Gerber Fmt 4.6, Leading zero omitted, Abs format (unit mm)*
G04 Created by KiCad (PCBNEW 4.0.2+dfsg1-stable) date mar 18 dic 2018 09:17:30 CET*
%MOMM*%
G01*
G04 APERTURE LIST*
%ADD10C,0.100000*%
%ADD11C,0.863600*%
%ADD12R,0.600000X0.500000*%
%ADD13R,0.750000X0.800000*%
%ADD14R,0.800000X0.750000*%
%ADD15R,0.500000X0.600000*%
%ADD16R,1.250000X1.000000*%
%ADD17R,1.000000X1.250000*%
%ADD18R,1.198880X1.198880*%
%ADD19R,0.600000X0.400000*%
%ADD20R,0.400000X0.600000*%
%ADD21R,0.800000X0.800000*%
%ADD22O,0.800000X0.800000*%
%ADD23R,1.350000X1.350000*%
%ADD24C,1.350000*%
%ADD25R,0.457200X0.711200*%
%ADD26R,1.000000X1.800000*%
%ADD27R,0.650000X0.400000*%
%ADD28R,1.150000X1.000000*%
%ADD29R,0.730000X0.300000*%
%ADD30R,0.300000X0.730000*%
%ADD31R,1.250000X1.250000*%
%ADD32C,0.600000*%
%ADD33R,0.700000X0.250000*%
%ADD34R,0.250000X0.700000*%
%ADD35R,1.725000X1.725000*%
G04 APERTURE END LIST*
D10*
X173697120Y-70957440D02*
X121697120Y-70957440D01*
X173697120Y-100957440D02*
X173697120Y-70957440D01*
X121697120Y-100957440D02*
X173697120Y-100957440D01*
X121697120Y-70957440D02*
X121697120Y-100957440D01*
D11*
X166657020Y-82014060D02*
X166657020Y-82014060D01*
X166657020Y-84013040D02*
X166657020Y-84013040D01*
X166730680Y-84046060D02*
X166730680Y-84046060D01*
X166657020Y-86014560D02*
X166657020Y-86014560D01*
X166657020Y-88013540D02*
X166657020Y-88013540D01*
X172656500Y-88013540D02*
X172656500Y-88013540D01*
X172656500Y-86014560D02*
X172656500Y-86014560D01*
X172656500Y-84013040D02*
X172656500Y-84013040D01*
X172656500Y-82014060D02*
X172656500Y-82014060D01*
X172656500Y-80015080D02*
X172656500Y-80015080D01*
X172656500Y-78013560D02*
X172656500Y-78013560D01*
X172656500Y-76014580D02*
X172656500Y-76014580D01*
X172656500Y-74013060D02*
X172656500Y-74013060D01*
X172656500Y-72014080D02*
X172656500Y-72014080D01*
X166657020Y-72014080D02*
X166657020Y-72014080D01*
X166657020Y-74013060D02*
X166657020Y-74013060D01*
X166657020Y-76014580D02*
X166657020Y-76014580D01*
X166657020Y-78013560D02*
X166657020Y-78013560D01*
X166657020Y-80015080D02*
X166657020Y-80015080D01*
X172656500Y-90015060D02*
X172656500Y-90015060D01*
D12*
X159442240Y-92766960D03*
X158342240Y-92766960D03*
D13*
X142344140Y-87982300D03*
X142344140Y-86482300D03*
D14*
X134487202Y-86963456D03*
X132987202Y-86963456D03*
D15*
X156636720Y-90797280D03*
X156636720Y-89697280D03*
X145186400Y-86997440D03*
X145186400Y-85897440D03*
D14*
X145372960Y-98796920D03*
X146872960Y-98796920D03*
D15*
X146367500Y-87010140D03*
X146367500Y-85910140D03*
X150947120Y-89647840D03*
X150947120Y-88547840D03*
X150324820Y-97718600D03*
X150324820Y-98818600D03*
X149263100Y-97719780D03*
X149263100Y-98819780D03*
X151597360Y-94198340D03*
X151597360Y-93098340D03*
X152778460Y-97601760D03*
X152778460Y-98701760D03*
X152803860Y-95508980D03*
X152803860Y-94408980D03*
X148137880Y-97721140D03*
X148137880Y-98821140D03*
D16*
X140555980Y-88232300D03*
X140555980Y-86232300D03*
D15*
X143855440Y-87993400D03*
X143855440Y-86893400D03*
D12*
X155202980Y-89640220D03*
X154102980Y-89640220D03*
D15*
X158335980Y-95066840D03*
X158335980Y-96166840D03*
X155219400Y-95940780D03*
X155219400Y-94840780D03*
D17*
X134770222Y-88718596D03*
X132770222Y-88718596D03*
D15*
X159440880Y-91629220D03*
X159440880Y-90529220D03*
D12*
X134232682Y-85299756D03*
X133132682Y-85299756D03*
D15*
X160342580Y-94830620D03*
X160342580Y-95930620D03*
D12*
X131349602Y-85284516D03*
X130249602Y-85284516D03*
X129107962Y-81535476D03*
X130207962Y-81535476D03*
D15*
X135031480Y-94421860D03*
X135031480Y-93321860D03*
D18*
X131213860Y-87674260D03*
X129115820Y-87674260D03*
D19*
X150332440Y-93094620D03*
X150332440Y-93994620D03*
D20*
X153001980Y-89647840D03*
X152101980Y-89647840D03*
X160337500Y-93805820D03*
X159437500Y-93805820D03*
X153670840Y-96396620D03*
X152770840Y-96396620D03*
D19*
X151599900Y-96409320D03*
X151599900Y-95509320D03*
X153812240Y-95310340D03*
X153812240Y-94410340D03*
D21*
X142097760Y-94393200D03*
D22*
X142097760Y-93143200D03*
X142097760Y-91893200D03*
X142097760Y-90643200D03*
D23*
X123489720Y-95041720D03*
D24*
X123489720Y-97541720D03*
D21*
X142801340Y-97824100D03*
D22*
X141551340Y-97824100D03*
D25*
X140063220Y-78968600D03*
X138742420Y-78968600D03*
X139402820Y-81000600D03*
D26*
X132744382Y-83636056D03*
X130244382Y-83636056D03*
D19*
X152803860Y-93331260D03*
X152803860Y-92431260D03*
D20*
X140072540Y-77655420D03*
X140972540Y-77655420D03*
D19*
X136414362Y-83547156D03*
X136414362Y-84447156D03*
X140790782Y-83556896D03*
X140790782Y-84456896D03*
D20*
X139419602Y-82119676D03*
X138519602Y-82119676D03*
X137010560Y-94412880D03*
X136110560Y-94412880D03*
D19*
X127750422Y-81545216D03*
X127750422Y-82445216D03*
X150334980Y-96409320D03*
X150334980Y-95509320D03*
X133747362Y-75361156D03*
X133747362Y-74461156D03*
D27*
X155216820Y-92132200D03*
X155216820Y-93432200D03*
X157116820Y-92782200D03*
X155216820Y-92782200D03*
X157116820Y-93432200D03*
X157116820Y-92132200D03*
D28*
X147853340Y-94769940D03*
X146103340Y-94769940D03*
X146103340Y-96169940D03*
X147853340Y-96169940D03*
D29*
X149338180Y-91148380D03*
X149338180Y-90648380D03*
X149338180Y-90148380D03*
X149338180Y-89648380D03*
X149338180Y-89148380D03*
D30*
X148373180Y-88183380D03*
X147873180Y-88183380D03*
X147373180Y-88183380D03*
X146873180Y-88183380D03*
X146373180Y-88183380D03*
D29*
X145408180Y-89148380D03*
X145408180Y-89648380D03*
X145408180Y-90148380D03*
X145408180Y-90648380D03*
X145408180Y-91148380D03*
D30*
X146373180Y-92113380D03*
X146873180Y-92113380D03*
X147373180Y-92113380D03*
X147873180Y-92113380D03*
X148373180Y-92113380D03*
D31*
X146748180Y-89523380D03*
X146748180Y-90773380D03*
X147998180Y-89523380D03*
X147998180Y-90773380D03*
D32*
X147931980Y-90656380D03*
X146814380Y-90656380D03*
X147931980Y-89640380D03*
X146814380Y-89640380D03*
D33*
X136397722Y-80635156D03*
X136397722Y-80135156D03*
X136397722Y-79635156D03*
X136397722Y-79135156D03*
X136397722Y-78635156D03*
X136397722Y-78135156D03*
X136397722Y-77635156D03*
X136397722Y-77135156D03*
D34*
X135747722Y-76485156D03*
X135247722Y-76485156D03*
X134747722Y-76485156D03*
X134247722Y-76485156D03*
X133747722Y-76485156D03*
X133247722Y-76485156D03*
X132747722Y-76485156D03*
X132247722Y-76485156D03*
D33*
X131597722Y-77135156D03*
X131597722Y-77635156D03*
X131597722Y-78135156D03*
X131597722Y-78635156D03*
X131597722Y-79135156D03*
X131597722Y-79635156D03*
X131597722Y-80135156D03*
X131597722Y-80635156D03*
D34*
X132247722Y-81285156D03*
X132747722Y-81285156D03*
X133247722Y-81285156D03*
X133747722Y-81285156D03*
X134247722Y-81285156D03*
X134747722Y-81285156D03*
X135247722Y-81285156D03*
X135747722Y-81285156D03*
D35*
X133135222Y-78022656D03*
X133135222Y-79747656D03*
X134860222Y-78022656D03*
X134860222Y-79747656D03*
D32*
X135216922Y-80104356D03*
X133997722Y-80104356D03*
X132778522Y-80104356D03*
X135216922Y-78935956D03*
X133997722Y-78935956D03*
X132778522Y-78935956D03*
X135216922Y-77818356D03*
X133997722Y-77818356D03*
X132778522Y-77818356D03*
M02*
