G04 #@! TF.FileFunction,Other,Fab,Bot*
%FSLAX46Y46*%
G04 Gerber Fmt 4.6, Leading zero omitted, Abs format (unit mm)*
G04 Created by KiCad (PCBNEW 4.0.2+dfsg1-stable) date ven 12 ott 2018 15:59:41 CEST*
%MOMM*%
G01*
G04 APERTURE LIST*
%ADD10C,0.100000*%
%ADD11C,0.150000*%
G04 APERTURE END LIST*
D10*
D11*
X128692445Y-71566482D02*
X128835302Y-71614101D01*
X129073398Y-71614101D01*
X129168636Y-71566482D01*
X129216255Y-71518863D01*
X129263874Y-71423625D01*
X129263874Y-71328387D01*
X129216255Y-71233149D01*
X129168636Y-71185530D01*
X129073398Y-71137910D01*
X128882921Y-71090291D01*
X128787683Y-71042672D01*
X128740064Y-70995053D01*
X128692445Y-70899815D01*
X128692445Y-70804577D01*
X128740064Y-70709339D01*
X128787683Y-70661720D01*
X128882921Y-70614101D01*
X129121017Y-70614101D01*
X129263874Y-70661720D01*
X129549588Y-70614101D02*
X130121017Y-70614101D01*
X129835302Y-71614101D02*
X129835302Y-70614101D01*
X131025779Y-71614101D02*
X130692445Y-71137910D01*
X130454350Y-71614101D02*
X130454350Y-70614101D01*
X130835303Y-70614101D01*
X130930541Y-70661720D01*
X130978160Y-70709339D01*
X131025779Y-70804577D01*
X131025779Y-70947434D01*
X130978160Y-71042672D01*
X130930541Y-71090291D01*
X130835303Y-71137910D01*
X130454350Y-71137910D01*
X131454350Y-71614101D02*
X131454350Y-70614101D01*
X131930540Y-71614101D02*
X131930540Y-70614101D01*
X132311493Y-70614101D01*
X132406731Y-70661720D01*
X132454350Y-70709339D01*
X132501969Y-70804577D01*
X132501969Y-70947434D01*
X132454350Y-71042672D01*
X132406731Y-71090291D01*
X132311493Y-71137910D01*
X131930540Y-71137910D01*
X133692445Y-71614101D02*
X133692445Y-70614101D01*
X134073398Y-70614101D01*
X134168636Y-70661720D01*
X134216255Y-70709339D01*
X134263874Y-70804577D01*
X134263874Y-70947434D01*
X134216255Y-71042672D01*
X134168636Y-71090291D01*
X134073398Y-71137910D01*
X133692445Y-71137910D01*
X134692445Y-71614101D02*
X134692445Y-70947434D01*
X134692445Y-71137910D02*
X134740064Y-71042672D01*
X134787683Y-70995053D01*
X134882921Y-70947434D01*
X134978160Y-70947434D01*
X135454350Y-71614101D02*
X135359112Y-71566482D01*
X135311493Y-71518863D01*
X135263874Y-71423625D01*
X135263874Y-71137910D01*
X135311493Y-71042672D01*
X135359112Y-70995053D01*
X135454350Y-70947434D01*
X135597208Y-70947434D01*
X135692446Y-70995053D01*
X135740065Y-71042672D01*
X135787684Y-71137910D01*
X135787684Y-71423625D01*
X135740065Y-71518863D01*
X135692446Y-71566482D01*
X135597208Y-71614101D01*
X135454350Y-71614101D01*
X136644827Y-70947434D02*
X136644827Y-71756958D01*
X136597208Y-71852196D01*
X136549589Y-71899815D01*
X136454350Y-71947434D01*
X136311493Y-71947434D01*
X136216255Y-71899815D01*
X136644827Y-71566482D02*
X136549589Y-71614101D01*
X136359112Y-71614101D01*
X136263874Y-71566482D01*
X136216255Y-71518863D01*
X136168636Y-71423625D01*
X136168636Y-71137910D01*
X136216255Y-71042672D01*
X136263874Y-70995053D01*
X136359112Y-70947434D01*
X136549589Y-70947434D01*
X136644827Y-70995053D01*
X137121017Y-71518863D02*
X137168636Y-71566482D01*
X137121017Y-71614101D01*
X137073398Y-71566482D01*
X137121017Y-71518863D01*
X137121017Y-71614101D01*
M02*
