G04 #@! TF.FileFunction,Copper,L1,Top,Signal*
%FSLAX46Y46*%
G04 Gerber Fmt 4.6, Leading zero omitted, Abs format (unit mm)*
G04 Created by KiCad (PCBNEW 4.0.2+dfsg1-stable) date mar 08 gen 2019 08:49:04 CET*
%MOMM*%
G01*
G04 APERTURE LIST*
%ADD10C,0.100000*%
%ADD11C,0.300000*%
%ADD12C,0.200660*%
%ADD13C,1.000760*%
%ADD14R,1.000000X1.000000*%
%ADD15C,0.762000*%
%ADD16R,0.600000X0.500000*%
%ADD17R,0.750000X0.800000*%
%ADD18R,0.800000X0.750000*%
%ADD19R,0.500000X0.600000*%
%ADD20R,1.250000X1.000000*%
%ADD21R,1.000000X1.250000*%
%ADD22R,1.198880X1.198880*%
%ADD23R,0.600000X0.400000*%
%ADD24R,0.400000X0.600000*%
%ADD25R,0.800000X0.800000*%
%ADD26O,0.800000X0.800000*%
%ADD27R,1.350000X1.350000*%
%ADD28C,1.350000*%
%ADD29R,0.457200X0.711200*%
%ADD30R,1.000000X1.800000*%
%ADD31R,0.650000X0.400000*%
%ADD32R,1.150000X1.000000*%
%ADD33R,0.730000X0.300000*%
%ADD34R,0.300000X0.730000*%
%ADD35R,1.250000X1.250000*%
%ADD36C,0.600000*%
%ADD37R,0.700000X0.250000*%
%ADD38R,0.250000X0.700000*%
%ADD39R,1.725000X1.725000*%
%ADD40C,0.400000*%
%ADD41C,1.000000*%
%ADD42C,0.250000*%
%ADD43C,0.500000*%
%ADD44C,0.254000*%
G04 APERTURE END LIST*
D10*
D11*
X123887244Y-72038471D02*
X124815815Y-72038471D01*
X124315815Y-72609900D01*
X124530101Y-72609900D01*
X124672958Y-72681329D01*
X124744387Y-72752757D01*
X124815815Y-72895614D01*
X124815815Y-73252757D01*
X124744387Y-73395614D01*
X124672958Y-73467043D01*
X124530101Y-73538471D01*
X124101529Y-73538471D01*
X123958672Y-73467043D01*
X123887244Y-73395614D01*
X125530100Y-73538471D02*
X125815815Y-73538471D01*
X125958672Y-73467043D01*
X126030100Y-73395614D01*
X126172958Y-73181329D01*
X126244386Y-72895614D01*
X126244386Y-72324186D01*
X126172958Y-72181329D01*
X126101529Y-72109900D01*
X125958672Y-72038471D01*
X125672958Y-72038471D01*
X125530100Y-72109900D01*
X125458672Y-72181329D01*
X125387243Y-72324186D01*
X125387243Y-72681329D01*
X125458672Y-72824186D01*
X125530100Y-72895614D01*
X125672958Y-72967043D01*
X125958672Y-72967043D01*
X126101529Y-72895614D01*
X126172958Y-72824186D01*
X126244386Y-72681329D01*
X126744386Y-72038471D02*
X127672957Y-72038471D01*
X127172957Y-72609900D01*
X127387243Y-72609900D01*
X127530100Y-72681329D01*
X127601529Y-72752757D01*
X127672957Y-72895614D01*
X127672957Y-73252757D01*
X127601529Y-73395614D01*
X127530100Y-73467043D01*
X127387243Y-73538471D01*
X126958671Y-73538471D01*
X126815814Y-73467043D01*
X126744386Y-73395614D01*
X128172957Y-72038471D02*
X129101528Y-72038471D01*
X128601528Y-72609900D01*
X128815814Y-72609900D01*
X128958671Y-72681329D01*
X129030100Y-72752757D01*
X129101528Y-72895614D01*
X129101528Y-73252757D01*
X129030100Y-73395614D01*
X128958671Y-73467043D01*
X128815814Y-73538471D01*
X128387242Y-73538471D01*
X128244385Y-73467043D01*
X128172957Y-73395614D01*
D10*
X173697120Y-70957440D02*
X121697120Y-70957440D01*
X173697120Y-100957440D02*
X173697120Y-70957440D01*
X121697120Y-100957440D02*
X173697120Y-100957440D01*
X121697120Y-70957440D02*
X121697120Y-100957440D01*
D12*
X165534340Y-90500200D02*
X166093140Y-91059000D01*
D13*
X166657020Y-74013060D02*
X172656500Y-74013060D01*
X172656500Y-72014080D02*
X166657020Y-72014080D01*
X166657020Y-76014580D02*
X172656500Y-76014580D01*
X172656500Y-78013560D02*
X166657020Y-78013560D01*
X166657020Y-80015080D02*
X172656500Y-80015080D01*
X172656500Y-82014060D02*
X166657020Y-82014060D01*
X166657020Y-84013040D02*
X172656500Y-84013040D01*
X172656500Y-86014560D02*
X166657020Y-86014560D01*
X166657020Y-88013540D02*
X172656500Y-88013540D01*
X172656500Y-90015060D02*
X167657780Y-90015060D01*
X165023800Y-92793820D02*
X163022280Y-92793820D01*
X167642540Y-90020140D02*
X166651080Y-90217350D01*
X166651080Y-90217350D02*
X165810570Y-90778970D01*
X165810570Y-90778970D02*
X165248950Y-91619480D01*
X165248950Y-91619480D02*
X165051740Y-92610940D01*
D14*
X162999420Y-92794080D03*
D15*
X166657020Y-82014060D03*
X166657020Y-84013040D03*
X166730680Y-84046060D03*
X166657020Y-86014560D03*
X166657020Y-88013540D03*
X172656500Y-88013540D03*
X172656500Y-86014560D03*
X172656500Y-84013040D03*
X172656500Y-82014060D03*
X172656500Y-80015080D03*
X172656500Y-78013560D03*
X172656500Y-76014580D03*
X172656500Y-74013060D03*
X172656500Y-72014080D03*
X166657020Y-72014080D03*
X166657020Y-74013060D03*
X166657020Y-76014580D03*
X166657020Y-78013560D03*
X166657020Y-80015080D03*
X172656500Y-90015060D03*
D16*
X159442240Y-92766960D03*
X158342240Y-92766960D03*
D17*
X142344140Y-87982300D03*
X142344140Y-86482300D03*
D18*
X134487202Y-86963456D03*
X132987202Y-86963456D03*
D19*
X156636720Y-90797280D03*
X156636720Y-89697280D03*
X145186400Y-86997440D03*
X145186400Y-85897440D03*
D18*
X145372960Y-98796920D03*
X146872960Y-98796920D03*
D19*
X146367500Y-87010140D03*
X146367500Y-85910140D03*
X150947120Y-89647840D03*
X150947120Y-88547840D03*
X150324820Y-97718600D03*
X150324820Y-98818600D03*
X149263100Y-97719780D03*
X149263100Y-98819780D03*
X151597360Y-94198340D03*
X151597360Y-93098340D03*
X152778460Y-97601760D03*
X152778460Y-98701760D03*
X152803860Y-95508980D03*
X152803860Y-94408980D03*
X148137880Y-97721140D03*
X148137880Y-98821140D03*
D20*
X140555980Y-88232300D03*
X140555980Y-86232300D03*
D19*
X143855440Y-87993400D03*
X143855440Y-86893400D03*
D16*
X155202980Y-89640220D03*
X154102980Y-89640220D03*
D19*
X158335980Y-95066840D03*
X158335980Y-96166840D03*
X155219400Y-95940780D03*
X155219400Y-94840780D03*
D21*
X134770222Y-88718596D03*
X132770222Y-88718596D03*
D19*
X159440880Y-91629220D03*
X159440880Y-90529220D03*
D16*
X134232682Y-85299756D03*
X133132682Y-85299756D03*
D19*
X160342580Y-94830620D03*
X160342580Y-95930620D03*
D16*
X131349602Y-85284516D03*
X130249602Y-85284516D03*
X129107962Y-81535476D03*
X130207962Y-81535476D03*
D19*
X134823200Y-91991080D03*
X134823200Y-90891080D03*
D22*
X131213860Y-87674260D03*
X129115820Y-87674260D03*
D23*
X150332440Y-93094620D03*
X150332440Y-93994620D03*
D24*
X153001980Y-89647840D03*
X152101980Y-89647840D03*
X160337500Y-93805820D03*
X159437500Y-93805820D03*
X153670840Y-96396620D03*
X152770840Y-96396620D03*
D23*
X151599900Y-96409320D03*
X151599900Y-95509320D03*
X153812240Y-95310340D03*
X153812240Y-94410340D03*
D25*
X136472620Y-97914460D03*
D26*
X135222620Y-97914460D03*
X133972620Y-97914460D03*
X132722620Y-97914460D03*
D27*
X123489720Y-95041720D03*
D28*
X123489720Y-97541720D03*
D25*
X142801340Y-97824100D03*
D26*
X141551340Y-97824100D03*
D29*
X140063220Y-78968600D03*
X138742420Y-78968600D03*
X139402820Y-81000600D03*
D30*
X132744382Y-83636056D03*
X130244382Y-83636056D03*
D23*
X152803860Y-93331260D03*
X152803860Y-92431260D03*
D24*
X140072540Y-77655420D03*
X140972540Y-77655420D03*
D23*
X136414362Y-83547156D03*
X136414362Y-84447156D03*
X140790782Y-83556896D03*
X140790782Y-84456896D03*
D24*
X139419602Y-82119676D03*
X138519602Y-82119676D03*
X136802280Y-91982100D03*
X135902280Y-91982100D03*
D23*
X127750422Y-81545216D03*
X127750422Y-82445216D03*
X150334980Y-96409320D03*
X150334980Y-95509320D03*
X133747362Y-75361156D03*
X133747362Y-74461156D03*
D31*
X155216820Y-92132200D03*
X155216820Y-93432200D03*
X157116820Y-92782200D03*
X155216820Y-92782200D03*
X157116820Y-93432200D03*
X157116820Y-92132200D03*
D32*
X147853340Y-94769940D03*
X146103340Y-94769940D03*
X146103340Y-96169940D03*
X147853340Y-96169940D03*
D33*
X149338180Y-91148380D03*
X149338180Y-90648380D03*
X149338180Y-90148380D03*
X149338180Y-89648380D03*
X149338180Y-89148380D03*
D34*
X148373180Y-88183380D03*
X147873180Y-88183380D03*
X147373180Y-88183380D03*
X146873180Y-88183380D03*
X146373180Y-88183380D03*
D33*
X145408180Y-89148380D03*
X145408180Y-89648380D03*
X145408180Y-90148380D03*
X145408180Y-90648380D03*
X145408180Y-91148380D03*
D34*
X146373180Y-92113380D03*
X146873180Y-92113380D03*
X147373180Y-92113380D03*
X147873180Y-92113380D03*
X148373180Y-92113380D03*
D35*
X146748180Y-89523380D03*
X146748180Y-90773380D03*
X147998180Y-89523380D03*
X147998180Y-90773380D03*
D36*
X147931980Y-90656380D03*
X146814380Y-90656380D03*
X147931980Y-89640380D03*
X146814380Y-89640380D03*
D37*
X136397722Y-80635156D03*
X136397722Y-80135156D03*
X136397722Y-79635156D03*
X136397722Y-79135156D03*
X136397722Y-78635156D03*
X136397722Y-78135156D03*
X136397722Y-77635156D03*
X136397722Y-77135156D03*
D38*
X135747722Y-76485156D03*
X135247722Y-76485156D03*
X134747722Y-76485156D03*
X134247722Y-76485156D03*
X133747722Y-76485156D03*
X133247722Y-76485156D03*
X132747722Y-76485156D03*
X132247722Y-76485156D03*
D37*
X131597722Y-77135156D03*
X131597722Y-77635156D03*
X131597722Y-78135156D03*
X131597722Y-78635156D03*
X131597722Y-79135156D03*
X131597722Y-79635156D03*
X131597722Y-80135156D03*
X131597722Y-80635156D03*
D38*
X132247722Y-81285156D03*
X132747722Y-81285156D03*
X133247722Y-81285156D03*
X133747722Y-81285156D03*
X134247722Y-81285156D03*
X134747722Y-81285156D03*
X135247722Y-81285156D03*
X135747722Y-81285156D03*
D39*
X133135222Y-78022656D03*
X133135222Y-79747656D03*
X134860222Y-78022656D03*
X134860222Y-79747656D03*
D36*
X135216922Y-80104356D03*
X133997722Y-80104356D03*
X132778522Y-80104356D03*
X135216922Y-78935956D03*
X133997722Y-78935956D03*
X132778522Y-78935956D03*
X135216922Y-77818356D03*
X133997722Y-77818356D03*
X132778522Y-77818356D03*
X134232682Y-84148740D03*
X137342880Y-84059840D03*
X146273520Y-74285920D03*
X136753600Y-87838280D03*
X136098280Y-90881200D03*
X150093680Y-88374220D03*
X147794980Y-71889620D03*
X149971760Y-72407780D03*
X148706840Y-73286620D03*
X147622260Y-74668380D03*
X149928580Y-74635360D03*
X148315680Y-76194920D03*
X146204940Y-76763880D03*
X146865340Y-77769720D03*
X149778720Y-77152500D03*
X148488400Y-78506320D03*
X145694400Y-79321660D03*
X147253960Y-79989680D03*
X149377400Y-80032860D03*
X147622260Y-81960720D03*
X146192240Y-81348580D03*
X145608040Y-83332320D03*
X146936460Y-83268820D03*
X149329140Y-81831180D03*
X148960840Y-83731100D03*
X147683220Y-84749640D03*
X148506180Y-85658960D03*
X150921720Y-85648800D03*
X149936200Y-84609940D03*
X150695660Y-82572860D03*
X152872440Y-82951320D03*
X151505920Y-84122260D03*
X152920700Y-85669120D03*
X153880820Y-83840320D03*
X154584400Y-85064600D03*
X154886660Y-82529680D03*
X156339540Y-83342480D03*
X156359860Y-85031580D03*
X158059120Y-82974180D03*
X157647640Y-84307680D03*
X159273240Y-84058760D03*
X158775400Y-85531960D03*
X157398720Y-86062820D03*
X159382460Y-86842600D03*
X160561020Y-85585300D03*
X161513520Y-86786720D03*
X160583880Y-87815420D03*
X159230060Y-88249760D03*
X158658940Y-89697280D03*
X159986980Y-89321640D03*
X161645600Y-88973660D03*
X161157920Y-90175080D03*
X161394140Y-91404440D03*
X161493200Y-99806760D03*
X161544000Y-94632780D03*
X161643060Y-98115120D03*
X161617660Y-96174560D03*
X160848040Y-99034600D03*
X159677100Y-99781360D03*
X159753300Y-98165920D03*
X160299400Y-96946720D03*
X159359600Y-96032320D03*
X158882080Y-97144840D03*
X158633160Y-98762820D03*
X157937200Y-99832160D03*
X157289500Y-98264980D03*
X156791660Y-96697800D03*
X156022040Y-98539300D03*
X156395420Y-100154740D03*
X155074620Y-99334320D03*
X155275280Y-97518220D03*
X154180540Y-98389440D03*
X154005280Y-100004880D03*
X152638760Y-99532440D03*
X151592280Y-97866200D03*
X151244300Y-99755960D03*
X149926040Y-100030280D03*
X148633180Y-99832160D03*
X147114260Y-99982020D03*
X145869660Y-100025200D03*
X138544543Y-82931876D03*
X138526520Y-85340000D03*
X126479300Y-75740260D03*
X157667960Y-94308740D03*
X157667960Y-88896000D03*
X131884413Y-83506430D03*
X131528049Y-82063489D03*
X129388508Y-89029978D03*
X128189988Y-80865077D03*
X129704374Y-79799947D03*
X127554331Y-79684145D03*
X144543168Y-91004586D03*
X143428720Y-93366400D03*
X130195179Y-79010136D03*
X138460300Y-77966925D03*
X136352280Y-73947020D03*
X131622710Y-81269097D03*
X140195300Y-73935400D03*
X139821920Y-92562680D03*
X142102840Y-84552600D03*
X139127743Y-93621775D03*
X139423140Y-82931876D03*
X137906940Y-80922940D03*
X137947220Y-75210480D03*
X137744530Y-82931876D03*
X137288458Y-78639770D03*
X144052098Y-91636146D03*
X139085320Y-77284580D03*
X145174955Y-92458525D03*
X146262857Y-93111140D03*
X130412036Y-77075162D03*
X129237031Y-78159369D03*
X148633180Y-93358780D03*
D40*
X161318200Y-92794080D02*
X160799240Y-92794080D01*
D41*
X162249420Y-92794080D02*
X161318200Y-92794080D01*
D40*
X160337500Y-93805820D02*
X160337500Y-93255820D01*
X160337500Y-93255820D02*
X160799240Y-92794080D01*
D41*
X162249420Y-92794080D02*
X162999420Y-92794080D01*
D42*
X160337500Y-93805820D02*
X160337500Y-94825540D01*
X160337500Y-94825540D02*
X160342580Y-94830620D01*
X159440880Y-91629220D02*
X159440880Y-92765600D01*
X159440880Y-92765600D02*
X159442240Y-92766960D01*
X159437500Y-93805820D02*
X159437500Y-92771700D01*
X159437500Y-92771700D02*
X159442240Y-92766960D01*
X158342240Y-92766960D02*
X157132060Y-92766960D01*
X157132060Y-92766960D02*
X157116820Y-92782200D01*
D43*
X137005380Y-97914460D02*
X138349800Y-97914460D01*
D42*
X138349800Y-97914460D02*
X138456480Y-97807780D01*
D43*
X136472620Y-97914460D02*
X136472620Y-99097220D01*
X136472620Y-99097220D02*
X135991680Y-99578160D01*
X136472620Y-97914460D02*
X137005380Y-97914460D01*
X141930120Y-94334140D02*
X138456480Y-97807780D01*
X141930120Y-94334140D02*
X142688700Y-94334140D01*
X140555980Y-88232300D02*
X140555980Y-88982300D01*
X140555980Y-88982300D02*
X141930120Y-90356440D01*
X141930120Y-90356440D02*
X141930120Y-94334140D01*
D42*
X142688700Y-94334140D02*
X142747760Y-94393200D01*
X134770222Y-88718596D02*
X136801860Y-88718596D01*
X136801860Y-88718596D02*
X140069684Y-88718596D01*
X136802280Y-91982100D02*
X136802280Y-91432100D01*
X136802280Y-91432100D02*
X136801860Y-91431680D01*
X136801860Y-91431680D02*
X136801860Y-88718596D01*
X136802280Y-91982100D02*
X136802280Y-92082100D01*
D43*
X135991680Y-99578160D02*
X125526160Y-99578160D01*
X125526160Y-99578160D02*
X123489720Y-97541720D01*
D42*
X140972540Y-77655420D02*
X143565178Y-77655420D01*
X143565178Y-77655420D02*
X146273520Y-74947078D01*
X140972540Y-77655420D02*
X140972540Y-83375138D01*
X140972540Y-83375138D02*
X140790782Y-83556896D01*
X143855440Y-87993400D02*
X143855440Y-88710640D01*
X143855440Y-88710640D02*
X144793180Y-89648380D01*
X144793180Y-89648380D02*
X145408180Y-89648380D01*
X142344140Y-87982300D02*
X143844340Y-87982300D01*
X143844340Y-87982300D02*
X143855440Y-87993400D01*
X134232682Y-85299756D02*
X134232682Y-84148740D01*
X134232682Y-84148740D02*
X134232682Y-81300196D01*
X140790782Y-83556896D02*
X137845824Y-83556896D01*
X137845824Y-83556896D02*
X137342880Y-84059840D01*
X134247722Y-81285156D02*
X134747722Y-81285156D01*
X134232682Y-81300196D02*
X134247722Y-81285156D01*
X134232682Y-85299756D02*
X134232682Y-86708936D01*
X134232682Y-86708936D02*
X134487202Y-86963456D01*
X142344140Y-87982300D02*
X140805980Y-87982300D01*
X140805980Y-87982300D02*
X140555980Y-88232300D01*
X140069684Y-88718596D02*
X140555980Y-88232300D01*
X134487202Y-86963456D02*
X134487202Y-88435576D01*
X134487202Y-88435576D02*
X134770222Y-88718596D01*
X146273520Y-74947078D02*
X146273520Y-74285920D01*
X140757762Y-83523876D02*
X140790782Y-83556896D01*
X145395840Y-89660720D02*
X145408180Y-89648380D01*
X145372960Y-98796920D02*
X145372960Y-98299080D01*
X145372960Y-98299080D02*
X145372960Y-98171920D01*
X142747760Y-94393200D02*
X145372960Y-97018400D01*
X145372960Y-97018400D02*
X145372960Y-98299080D01*
X145372960Y-98171920D02*
X145823740Y-97721140D01*
X145823740Y-97721140D02*
X147637880Y-97721140D01*
X147637880Y-97721140D02*
X148137880Y-97721140D01*
X148137880Y-97721140D02*
X149261740Y-97721140D01*
X149261740Y-97721140D02*
X149263100Y-97719780D01*
X149263100Y-97719780D02*
X150323640Y-97719780D01*
X150323640Y-97719780D02*
X150324820Y-97718600D01*
X150324820Y-97718600D02*
X150324820Y-96419480D01*
X150324820Y-96419480D02*
X150334980Y-96409320D01*
X150334980Y-96409320D02*
X150234980Y-96409320D01*
X149338180Y-91548380D02*
X149338180Y-91148380D01*
X150234980Y-96409320D02*
X149338180Y-95512520D01*
X149338180Y-95512520D02*
X149338180Y-91548380D01*
X136753600Y-87838280D02*
X138526520Y-86065360D01*
X138526520Y-86065360D02*
X138526520Y-85340000D01*
X134823200Y-90891080D02*
X136088400Y-90891080D01*
X136088400Y-90891080D02*
X136098280Y-90881200D01*
X134823200Y-90891080D02*
X134823200Y-90841080D01*
X134823200Y-90841080D02*
X132770222Y-88788102D01*
X132770222Y-88788102D02*
X132770222Y-88718596D01*
X142344140Y-86482300D02*
X143868140Y-86482300D01*
X143868140Y-86482300D02*
X144651540Y-86482300D01*
X143855440Y-86893400D02*
X143855440Y-86495000D01*
X143855440Y-86495000D02*
X143868140Y-86482300D01*
X159359600Y-96032320D02*
X159359600Y-96667320D01*
X159359600Y-96667320D02*
X158882080Y-97144840D01*
X150093680Y-88374220D02*
X149143720Y-88374220D01*
X150267300Y-88547840D02*
X150093680Y-88374220D01*
X150947120Y-88547840D02*
X150267300Y-88547840D01*
X147998180Y-89523380D02*
X147998180Y-89519760D01*
X147998180Y-89519760D02*
X148848181Y-88669759D01*
X148848181Y-88669759D02*
X148644559Y-88873381D01*
X149143720Y-88374220D02*
X148848181Y-88669759D01*
X148644559Y-88873381D02*
X148648179Y-88873381D01*
X146748180Y-90773380D02*
X146748180Y-89523380D01*
X147998180Y-90773380D02*
X146748180Y-90773380D01*
X147998180Y-89523380D02*
X147998180Y-90773380D01*
X146748180Y-89523380D02*
X147998180Y-89523380D01*
X149971760Y-72407780D02*
X148313140Y-72407780D01*
X148313140Y-72407780D02*
X147794980Y-71889620D01*
X147622260Y-74668380D02*
X147622260Y-74371200D01*
X147622260Y-74371200D02*
X148706840Y-73286620D01*
X148315680Y-76194920D02*
X148369020Y-76194920D01*
X148369020Y-76194920D02*
X149928580Y-74635360D01*
X146865340Y-77769720D02*
X146865340Y-77424280D01*
X146865340Y-77424280D02*
X146204940Y-76763880D01*
X148488400Y-78506320D02*
X148488400Y-78442820D01*
X148488400Y-78442820D02*
X149778720Y-77152500D01*
X147253960Y-79989680D02*
X146362420Y-79989680D01*
X146362420Y-79989680D02*
X145694400Y-79321660D01*
X149377400Y-80032860D02*
X147297140Y-80032860D01*
X147297140Y-80032860D02*
X147253960Y-79989680D01*
X146192240Y-81348580D02*
X147010120Y-81348580D01*
X147010120Y-81348580D02*
X147622260Y-81960720D01*
X146936460Y-83268820D02*
X145671540Y-83268820D01*
X145671540Y-83268820D02*
X145608040Y-83332320D01*
X148960840Y-83731100D02*
X148960840Y-82199480D01*
X148960840Y-82199480D02*
X149329140Y-81831180D01*
X148506180Y-85658960D02*
X148506180Y-85572600D01*
X148506180Y-85572600D02*
X147683220Y-84749640D01*
X149936200Y-84609940D02*
X149936200Y-84663280D01*
X149936200Y-84663280D02*
X150921720Y-85648800D01*
X152872440Y-82951320D02*
X151074120Y-82951320D01*
X151074120Y-82951320D02*
X150695660Y-82572860D01*
X152920700Y-85669120D02*
X152920700Y-85537040D01*
X152920700Y-85537040D02*
X151505920Y-84122260D01*
X154584400Y-85064600D02*
X154584400Y-84543900D01*
X154584400Y-84543900D02*
X153880820Y-83840320D01*
X156339540Y-83342480D02*
X155699460Y-83342480D01*
X155699460Y-83342480D02*
X154886660Y-82529680D01*
X158059120Y-82974180D02*
X156359860Y-84673440D01*
X156359860Y-84673440D02*
X156359860Y-85031580D01*
X159273240Y-84058760D02*
X157896560Y-84058760D01*
X157896560Y-84058760D02*
X157647640Y-84307680D01*
X157398720Y-86062820D02*
X158244540Y-86062820D01*
X158244540Y-86062820D02*
X158775400Y-85531960D01*
X159382460Y-86842600D02*
X158254700Y-86842600D01*
X161513520Y-86786720D02*
X161513520Y-86537800D01*
X161513520Y-86537800D02*
X160561020Y-85585300D01*
X159230060Y-88249760D02*
X160149540Y-88249760D01*
X160149540Y-88249760D02*
X160583880Y-87815420D01*
X161645600Y-88973660D02*
X160334960Y-88973660D01*
X160334960Y-88973660D02*
X159986980Y-89321640D01*
X161394140Y-90411300D02*
X161157920Y-90175080D01*
X161394140Y-91404440D02*
X161394140Y-90411300D01*
X161544000Y-94632780D02*
X161544000Y-99755960D01*
X161544000Y-99755960D02*
X161493200Y-99806760D01*
X161617660Y-96174560D02*
X161617660Y-98089720D01*
X161617660Y-98089720D02*
X161643060Y-98115120D01*
X159677100Y-99781360D02*
X160101280Y-99781360D01*
X160101280Y-99781360D02*
X160848040Y-99034600D01*
X160299400Y-96946720D02*
X160299400Y-97619820D01*
X160299400Y-97619820D02*
X159753300Y-98165920D01*
X158882080Y-97144840D02*
X158882080Y-95951040D01*
X157937200Y-99832160D02*
X157937200Y-99458780D01*
X157937200Y-99458780D02*
X158633160Y-98762820D01*
X156022040Y-98539300D02*
X156022040Y-97467420D01*
X156022040Y-97467420D02*
X156791660Y-96697800D01*
X155074620Y-99334320D02*
X155575000Y-99334320D01*
X155575000Y-99334320D02*
X156395420Y-100154740D01*
X154180540Y-98389440D02*
X154404060Y-98389440D01*
X154404060Y-98389440D02*
X155275280Y-97518220D01*
X152638760Y-99532440D02*
X153532840Y-99532440D01*
X153532840Y-99532440D02*
X154005280Y-100004880D01*
X151244300Y-99755960D02*
X151244300Y-98214180D01*
X151244300Y-98214180D02*
X151592280Y-97866200D01*
X148633180Y-99832160D02*
X149727920Y-99832160D01*
X149727920Y-99832160D02*
X149926040Y-100030280D01*
X146872960Y-98796920D02*
X146872960Y-99740720D01*
X146872960Y-99740720D02*
X147114260Y-99982020D01*
X146872960Y-98796920D02*
X146872960Y-99021900D01*
X146872960Y-99021900D02*
X145869660Y-100025200D01*
D43*
X126479300Y-75740260D02*
X123489720Y-78729840D01*
X123489720Y-78729840D02*
X123489720Y-95041720D01*
D42*
X128346176Y-74461156D02*
X128623060Y-74461156D01*
D43*
X128623060Y-74461156D02*
X133197362Y-74461156D01*
X126479300Y-75740260D02*
X126479300Y-75315996D01*
X126479300Y-75315996D02*
X127334140Y-74461156D01*
X127334140Y-74461156D02*
X128623060Y-74461156D01*
D42*
X138519602Y-82906935D02*
X138544543Y-82931876D01*
X138519602Y-82119676D02*
X138519602Y-82906935D01*
X129107962Y-81535476D02*
X129107962Y-85277878D01*
X129107962Y-85277878D02*
X129689601Y-85859517D01*
X129689601Y-85859517D02*
X130724601Y-85859517D01*
X130724601Y-85859517D02*
X131299602Y-85284516D01*
X131299602Y-85284516D02*
X131349602Y-85284516D01*
X133247722Y-81285156D02*
X133747722Y-81285156D01*
X140555980Y-86232300D02*
X139418820Y-86232300D01*
X139418820Y-86232300D02*
X138526520Y-85340000D01*
X127750422Y-81545216D02*
X129098222Y-81545216D01*
X129098222Y-81545216D02*
X129107962Y-81535476D01*
X133132682Y-85299756D02*
X133182682Y-85299756D01*
X133247722Y-81885156D02*
X133247722Y-81285156D01*
X133182682Y-85299756D02*
X133569383Y-84913055D01*
X133569383Y-84913055D02*
X133569383Y-82206817D01*
X133569383Y-82206817D02*
X133247722Y-81885156D01*
X133132682Y-85299756D02*
X133132682Y-86817976D01*
X133132682Y-86817976D02*
X132987202Y-86963456D01*
X142801340Y-97824100D02*
X142801340Y-98474100D01*
X142801340Y-98474100D02*
X143824161Y-99496921D01*
X143824161Y-99496921D02*
X146147959Y-99496921D01*
X146147959Y-99496921D02*
X146847960Y-98796920D01*
X146847960Y-98796920D02*
X146872960Y-98796920D01*
X147253960Y-85914040D02*
X146371400Y-85914040D01*
X146371400Y-85914040D02*
X146367500Y-85910140D01*
X150979960Y-88515000D02*
X150947120Y-88547840D01*
X144651540Y-86482300D02*
X145186400Y-85947440D01*
X145186400Y-85947440D02*
X145186400Y-85897440D01*
X142344140Y-86482300D02*
X142969140Y-86482300D01*
D43*
X140555980Y-86232300D02*
X142094140Y-86232300D01*
D42*
X142094140Y-86232300D02*
X142344140Y-86482300D01*
X132987202Y-86963456D02*
X132987202Y-88501616D01*
X132987202Y-88501616D02*
X132770222Y-88718596D01*
X131349602Y-85284516D02*
X133117442Y-85284516D01*
X133117442Y-85284516D02*
X133132682Y-85299756D01*
D43*
X133197362Y-74461156D02*
X133747362Y-74461156D01*
D42*
X146367500Y-85910140D02*
X145199100Y-85910140D01*
X145199100Y-85910140D02*
X145186400Y-85897440D01*
X150324820Y-98818600D02*
X152661620Y-98818600D01*
X152661620Y-98818600D02*
X152778460Y-98701760D01*
X149263100Y-98819780D02*
X150323640Y-98819780D01*
X150323640Y-98819780D02*
X150324820Y-98818600D01*
X148137880Y-98821140D02*
X149261740Y-98821140D01*
X149261740Y-98821140D02*
X149263100Y-98819780D01*
X146872960Y-98796920D02*
X148113660Y-98796920D01*
X148113660Y-98796920D02*
X148137880Y-98821140D01*
X155216820Y-92782200D02*
X155791820Y-92782200D01*
X155791820Y-92782200D02*
X156466819Y-93457199D01*
X156466819Y-93457199D02*
X156466819Y-94247679D01*
X156466819Y-94247679D02*
X158335980Y-96116840D01*
X158335980Y-96116840D02*
X158335980Y-96166840D01*
X152803860Y-92431260D02*
X153353860Y-92431260D01*
X153353860Y-92431260D02*
X153704800Y-92782200D01*
X153704800Y-92782200D02*
X154641820Y-92782200D01*
X154641820Y-92782200D02*
X155216820Y-92782200D01*
X156636720Y-89697280D02*
X158658940Y-89697280D01*
X158658940Y-89697280D02*
X159440880Y-90479220D01*
X159440880Y-90479220D02*
X159440880Y-90529220D01*
X158335980Y-96166840D02*
X160106360Y-96166840D01*
X160106360Y-96166840D02*
X160342580Y-95930620D01*
X147873180Y-87583377D02*
X147873180Y-88183380D01*
X154191141Y-87493379D02*
X147963178Y-87493379D01*
X147963178Y-87493379D02*
X147873180Y-87583377D01*
X155827981Y-89130219D02*
X154191141Y-87493379D01*
X155827981Y-89938541D02*
X155827981Y-89130219D01*
X156636720Y-90747280D02*
X155827981Y-89938541D01*
X156636720Y-90797280D02*
X156636720Y-90747280D01*
X157116820Y-92132200D02*
X157116820Y-91277380D01*
X157116820Y-91277380D02*
X156636720Y-90797280D01*
X145186400Y-86997440D02*
X146354800Y-86997440D01*
X146354800Y-86997440D02*
X146367500Y-87010140D01*
X146367500Y-87010140D02*
X146367500Y-88177700D01*
X146367500Y-88177700D02*
X146373180Y-88183380D01*
D11*
X149338180Y-89648380D02*
X150946580Y-89648380D01*
D42*
X150946580Y-89648380D02*
X150947120Y-89647840D01*
D11*
X152101980Y-89647840D02*
X150947120Y-89647840D01*
D42*
X151597360Y-94198340D02*
X151597360Y-95506780D01*
X151597360Y-95506780D02*
X151599900Y-95509320D01*
X152803860Y-95508980D02*
X151600240Y-95508980D01*
X151600240Y-95508980D02*
X151599900Y-95509320D01*
X152803860Y-95508980D02*
X153613600Y-95508980D01*
X153613600Y-95508980D02*
X153812240Y-95310340D01*
X150332440Y-92644620D02*
X150332440Y-93094620D01*
X149816770Y-90648380D02*
X150332440Y-91164050D01*
X150332440Y-91164050D02*
X150332440Y-92644620D01*
X149338180Y-90648380D02*
X149816770Y-90648380D01*
X151597360Y-93098340D02*
X150336160Y-93098340D01*
X150336160Y-93098340D02*
X150332440Y-93094620D01*
X151599900Y-96409320D02*
X152758140Y-96409320D01*
X152758140Y-96409320D02*
X152770840Y-96396620D01*
X152778460Y-97601760D02*
X152778460Y-96404240D01*
X152778460Y-96404240D02*
X152770840Y-96396620D01*
X152803860Y-94408980D02*
X153810880Y-94408980D01*
X153810880Y-94408980D02*
X153812240Y-94410340D01*
X152803860Y-93331260D02*
X152803860Y-94408980D01*
D11*
X155202980Y-89640220D02*
X155202980Y-92118360D01*
D42*
X155202980Y-92118360D02*
X155216820Y-92132200D01*
D11*
X150003180Y-90148380D02*
X149338180Y-90148380D01*
X150359080Y-90148380D02*
X150003180Y-90148380D01*
X150855680Y-90644980D02*
X150359080Y-90148380D01*
X152104840Y-90644980D02*
X150855680Y-90644980D01*
X153001980Y-89747840D02*
X152104840Y-90644980D01*
X153001980Y-89647840D02*
X153001980Y-89747840D01*
X153001980Y-89647840D02*
X154095360Y-89647840D01*
D42*
X154095360Y-89647840D02*
X154102980Y-89640220D01*
X157116820Y-93432200D02*
X157116820Y-93757600D01*
X157116820Y-93757600D02*
X157667960Y-94308740D01*
X157667960Y-94308740D02*
X157667960Y-94398820D01*
X157667960Y-94398820D02*
X158335980Y-95066840D01*
X148014567Y-86805580D02*
X155577540Y-86805580D01*
X155577540Y-86805580D02*
X157667960Y-88896000D01*
X147373180Y-88183380D02*
X147373180Y-87446967D01*
X147373180Y-87446967D02*
X148014567Y-86805580D01*
X153670840Y-96396620D02*
X154763560Y-96396620D01*
X154763560Y-96396620D02*
X155219400Y-95940780D01*
X155219400Y-94840780D02*
X155219400Y-93434780D01*
X155219400Y-93434780D02*
X155216820Y-93432200D01*
X131828050Y-82688490D02*
X131191948Y-82688490D01*
X132247722Y-82268818D02*
X131828050Y-82688490D01*
X132247722Y-81285156D02*
X132247722Y-82268818D01*
X131191948Y-82688490D02*
X130244382Y-83636056D01*
X130244382Y-83636056D02*
X130244382Y-85279296D01*
X130244382Y-85279296D02*
X130249602Y-85284516D01*
X130207962Y-81535476D02*
X131000036Y-81535476D01*
X131994382Y-83636056D02*
X131884413Y-83526087D01*
X132744382Y-83636056D02*
X131994382Y-83636056D01*
X131884413Y-83526087D02*
X131884413Y-83506430D01*
X131000036Y-81535476D02*
X131228050Y-81763490D01*
X131228050Y-81763490D02*
X131528049Y-82063489D01*
X132744382Y-83636056D02*
X132744382Y-81288496D01*
X132744382Y-81288496D02*
X132747722Y-81285156D01*
X134823200Y-91991080D02*
X132349610Y-91991080D01*
X132349610Y-91991080D02*
X129388508Y-89029978D01*
X134823200Y-91991080D02*
X135893300Y-91991080D01*
X135893300Y-91991080D02*
X135902280Y-91982100D01*
X130997722Y-80135156D02*
X130267801Y-80865077D01*
X131597722Y-80135156D02*
X130997722Y-80135156D01*
X130267801Y-80865077D02*
X128614252Y-80865077D01*
X128614252Y-80865077D02*
X128189988Y-80865077D01*
X127554331Y-79684145D02*
X129588572Y-79684145D01*
X129588572Y-79684145D02*
X129704374Y-79799947D01*
X131597722Y-79635156D02*
X129869165Y-79635156D01*
X129869165Y-79635156D02*
X129704374Y-79799947D01*
X144543168Y-90898392D02*
X144543168Y-91004586D01*
X144793180Y-90648380D02*
X144543168Y-90898392D01*
X145408180Y-90648380D02*
X144793180Y-90648380D01*
X143428720Y-91937770D02*
X143428720Y-93366400D01*
X144515482Y-90148380D02*
X143427097Y-91236765D01*
X145408180Y-90148380D02*
X144515482Y-90148380D01*
X143427097Y-91936147D02*
X143428720Y-91937770D01*
X143427097Y-91236765D02*
X143427097Y-91936147D01*
X131134855Y-79135156D02*
X131034876Y-79035177D01*
X131597722Y-79135156D02*
X131134855Y-79135156D01*
X130220220Y-79035177D02*
X130195179Y-79010136D01*
X131034876Y-79035177D02*
X130220220Y-79035177D01*
X138160301Y-78266924D02*
X138460300Y-77966925D01*
X138038840Y-78388385D02*
X138160301Y-78266924D01*
X137660380Y-79377540D02*
X138038840Y-78999080D01*
X137117858Y-79377540D02*
X137660380Y-79377540D01*
X138038840Y-78999080D02*
X138038840Y-78388385D01*
X136397722Y-79135156D02*
X136875474Y-79135156D01*
X136875474Y-79135156D02*
X137117858Y-79377540D01*
X136352280Y-73947020D02*
X140183680Y-73947020D01*
X140183680Y-73947020D02*
X140195300Y-73935400D01*
X131597722Y-81244109D02*
X131622710Y-81269097D01*
X131597722Y-80635156D02*
X131597722Y-81244109D01*
X127750422Y-82895216D02*
X127750422Y-82445216D01*
X127750422Y-84556749D02*
X127750422Y-82895216D01*
X130867933Y-87674260D02*
X127750422Y-84556749D01*
X131213860Y-87674260D02*
X130867933Y-87674260D01*
X130997722Y-78135156D02*
X131597722Y-78135156D01*
X130881612Y-78135156D02*
X130997722Y-78135156D01*
X130181747Y-77935124D02*
X130681580Y-77935124D01*
X126929311Y-79220475D02*
X128615419Y-77534367D01*
X126929311Y-84638311D02*
X126929311Y-79220475D01*
X129115820Y-87674260D02*
X129115820Y-86824820D01*
X129780990Y-77534367D02*
X130181747Y-77935124D01*
X129115820Y-86824820D02*
X126929311Y-84638311D01*
X128615419Y-77534367D02*
X129780990Y-77534367D01*
X130681580Y-77935124D02*
X130881612Y-78135156D01*
X150332440Y-93994620D02*
X150332440Y-95506780D01*
X150332440Y-95506780D02*
X150334980Y-95509320D01*
X138102451Y-94317389D02*
X138292840Y-94317389D01*
X138292840Y-94317389D02*
X139316040Y-94317389D01*
X133972620Y-97914460D02*
X137569691Y-94317389D01*
X137569691Y-94317389D02*
X138292840Y-94317389D01*
X139821920Y-92986944D02*
X139821920Y-92562680D01*
X139821920Y-93811509D02*
X139821920Y-92986944D01*
X139316040Y-94317389D02*
X139821920Y-93811509D01*
X140240782Y-84456896D02*
X140790782Y-84456896D01*
X136414362Y-84447156D02*
X136652048Y-84684842D01*
X140012836Y-84684842D02*
X140240782Y-84456896D01*
X136652048Y-84684842D02*
X140012836Y-84684842D01*
X140790782Y-84456896D02*
X142007136Y-84456896D01*
X142007136Y-84456896D02*
X142102840Y-84552600D01*
X132722620Y-97914460D02*
X136773920Y-93863160D01*
X138703479Y-93621775D02*
X139127743Y-93621775D01*
X136773920Y-93863160D02*
X136773920Y-93845380D01*
X136773920Y-93845380D02*
X136997525Y-93621775D01*
X136997525Y-93621775D02*
X138703479Y-93621775D01*
X139402820Y-81000600D02*
X139402820Y-82102894D01*
X139402820Y-82102894D02*
X139419602Y-82119676D01*
X139419602Y-82928338D02*
X139423140Y-82931876D01*
X139419602Y-82119676D02*
X139419602Y-82928338D01*
X139409022Y-82109096D02*
X139419602Y-82119676D01*
X137744530Y-81085350D02*
X137906940Y-80922940D01*
X137744530Y-82931876D02*
X137744530Y-81085350D01*
X137522956Y-75210480D02*
X137947220Y-75210480D01*
X135247722Y-76485156D02*
X135247722Y-75885156D01*
X135247722Y-75885156D02*
X135922398Y-75210480D01*
X135922398Y-75210480D02*
X137522956Y-75210480D01*
X138742420Y-78968600D02*
X138742420Y-79574200D01*
X138181464Y-80135156D02*
X136997722Y-80135156D01*
X138742420Y-79574200D02*
X138181464Y-80135156D01*
X136997722Y-80135156D02*
X136397722Y-80135156D01*
X147873180Y-92113380D02*
X147873180Y-94815740D01*
X147873180Y-94815740D02*
X147876260Y-94818820D01*
X146964400Y-93736160D02*
X147373180Y-93327380D01*
X147373180Y-93327380D02*
X147373180Y-92113380D01*
X145417540Y-93736160D02*
X146964400Y-93736160D01*
X145417540Y-93736160D02*
X144904460Y-94249240D01*
X144904460Y-94249240D02*
X144904460Y-95796060D01*
X144904460Y-95796060D02*
X145278340Y-96169940D01*
X145278340Y-96169940D02*
X146103340Y-96169940D01*
X136414362Y-83547156D02*
X136414362Y-80651796D01*
X136414362Y-80651796D02*
X136397722Y-80635156D01*
X133747362Y-75361156D02*
X133747362Y-76484796D01*
X133747362Y-76484796D02*
X133747722Y-76485156D01*
X137283844Y-78635156D02*
X137288458Y-78639770D01*
X136397722Y-78635156D02*
X137283844Y-78635156D01*
X144476362Y-91636146D02*
X144052098Y-91636146D01*
X145408180Y-91548380D02*
X145320414Y-91636146D01*
X145408180Y-91148380D02*
X145408180Y-91548380D01*
X145320414Y-91636146D02*
X144476362Y-91636146D01*
X139085320Y-77284580D02*
X137743205Y-77284580D01*
X137743205Y-77284580D02*
X136892629Y-78135156D01*
X136892629Y-78135156D02*
X136397722Y-78135156D01*
X145520100Y-92113380D02*
X145474954Y-92158526D01*
X146373180Y-92113380D02*
X145520100Y-92113380D01*
X145474954Y-92158526D02*
X145174955Y-92458525D01*
X146490420Y-93111140D02*
X146262857Y-93111140D01*
X146873180Y-92113380D02*
X146873180Y-92728380D01*
X146873180Y-92728380D02*
X146490420Y-93111140D01*
X130472030Y-77135156D02*
X130412036Y-77075162D01*
X131597722Y-77135156D02*
X130472030Y-77135156D01*
X129661295Y-78159369D02*
X129237031Y-78159369D01*
X129887061Y-78385135D02*
X129661295Y-78159369D01*
X131547732Y-78585166D02*
X130695212Y-78585166D01*
X130695212Y-78585166D02*
X130495180Y-78385135D01*
X131597722Y-78635156D02*
X131547732Y-78585166D01*
X130495180Y-78385135D02*
X129887061Y-78385135D01*
X148373180Y-92113380D02*
X148373180Y-93098780D01*
X148373180Y-93098780D02*
X148633180Y-93358780D01*
X140063220Y-78968600D02*
X140063220Y-77664740D01*
X140063220Y-77664740D02*
X140072540Y-77655420D01*
D44*
G36*
X161318200Y-93729080D02*
X161975366Y-93729080D01*
X161934002Y-100472440D01*
X145035488Y-100472440D01*
X145036800Y-99615442D01*
X145772960Y-99615442D01*
X145934161Y-99585110D01*
X146082215Y-99489840D01*
X146181539Y-99344475D01*
X146216482Y-99171920D01*
X146216482Y-98421920D01*
X146189992Y-98281140D01*
X147538265Y-98281140D01*
X147569960Y-98330395D01*
X147715325Y-98429719D01*
X147887880Y-98464662D01*
X148387880Y-98464662D01*
X148549081Y-98434330D01*
X148697135Y-98339060D01*
X148701182Y-98333136D01*
X148840545Y-98428359D01*
X149013100Y-98463302D01*
X149513100Y-98463302D01*
X149674301Y-98432970D01*
X149796066Y-98354616D01*
X149902265Y-98427179D01*
X150074820Y-98462122D01*
X150574820Y-98462122D01*
X150736021Y-98431790D01*
X150884075Y-98336520D01*
X150983399Y-98191155D01*
X151018342Y-98018600D01*
X151018342Y-97418600D01*
X150988010Y-97257399D01*
X150892740Y-97109345D01*
X150884820Y-97103933D01*
X150884820Y-96965472D01*
X150944235Y-96927240D01*
X150966545Y-96894588D01*
X150981980Y-96918575D01*
X151127345Y-97017899D01*
X151299900Y-97052842D01*
X151899900Y-97052842D01*
X152061101Y-97022510D01*
X152143761Y-96969320D01*
X152218460Y-96969320D01*
X152218460Y-96984930D01*
X152119881Y-97129205D01*
X152084938Y-97301760D01*
X152084938Y-97901760D01*
X152115270Y-98062961D01*
X152210540Y-98211015D01*
X152355905Y-98310339D01*
X152528460Y-98345282D01*
X153028460Y-98345282D01*
X153189661Y-98314950D01*
X153337715Y-98219680D01*
X153437039Y-98074315D01*
X153471982Y-97901760D01*
X153471982Y-97301760D01*
X153441650Y-97140559D01*
X153436968Y-97133283D01*
X153470840Y-97140142D01*
X153870840Y-97140142D01*
X154032041Y-97109810D01*
X154180095Y-97014540D01*
X154219670Y-96956620D01*
X154763560Y-96956620D01*
X154977863Y-96913993D01*
X155159540Y-96792600D01*
X155267838Y-96684302D01*
X155469400Y-96684302D01*
X155630601Y-96653970D01*
X155692245Y-96614303D01*
X158175717Y-96619060D01*
X158225146Y-96609149D01*
X158266825Y-96580788D01*
X158294186Y-96538446D01*
X158302905Y-96495784D01*
X158323011Y-95810362D01*
X158585980Y-95810362D01*
X158747181Y-95780030D01*
X158895235Y-95684760D01*
X158907671Y-95666560D01*
X159908240Y-95666560D01*
X159957650Y-95656554D01*
X159999275Y-95628113D01*
X160026555Y-95585719D01*
X160031077Y-95561687D01*
X160092580Y-95574142D01*
X160592580Y-95574142D01*
X160753781Y-95543810D01*
X160901835Y-95448540D01*
X161001159Y-95303175D01*
X161036102Y-95130620D01*
X161036102Y-94530620D01*
X161005770Y-94369419D01*
X160946344Y-94277068D01*
X160981022Y-94105820D01*
X160981022Y-93662011D01*
X161318200Y-93729080D01*
X161318200Y-93729080D01*
G37*
X161318200Y-93729080D02*
X161975366Y-93729080D01*
X161934002Y-100472440D01*
X145035488Y-100472440D01*
X145036800Y-99615442D01*
X145772960Y-99615442D01*
X145934161Y-99585110D01*
X146082215Y-99489840D01*
X146181539Y-99344475D01*
X146216482Y-99171920D01*
X146216482Y-98421920D01*
X146189992Y-98281140D01*
X147538265Y-98281140D01*
X147569960Y-98330395D01*
X147715325Y-98429719D01*
X147887880Y-98464662D01*
X148387880Y-98464662D01*
X148549081Y-98434330D01*
X148697135Y-98339060D01*
X148701182Y-98333136D01*
X148840545Y-98428359D01*
X149013100Y-98463302D01*
X149513100Y-98463302D01*
X149674301Y-98432970D01*
X149796066Y-98354616D01*
X149902265Y-98427179D01*
X150074820Y-98462122D01*
X150574820Y-98462122D01*
X150736021Y-98431790D01*
X150884075Y-98336520D01*
X150983399Y-98191155D01*
X151018342Y-98018600D01*
X151018342Y-97418600D01*
X150988010Y-97257399D01*
X150892740Y-97109345D01*
X150884820Y-97103933D01*
X150884820Y-96965472D01*
X150944235Y-96927240D01*
X150966545Y-96894588D01*
X150981980Y-96918575D01*
X151127345Y-97017899D01*
X151299900Y-97052842D01*
X151899900Y-97052842D01*
X152061101Y-97022510D01*
X152143761Y-96969320D01*
X152218460Y-96969320D01*
X152218460Y-96984930D01*
X152119881Y-97129205D01*
X152084938Y-97301760D01*
X152084938Y-97901760D01*
X152115270Y-98062961D01*
X152210540Y-98211015D01*
X152355905Y-98310339D01*
X152528460Y-98345282D01*
X153028460Y-98345282D01*
X153189661Y-98314950D01*
X153337715Y-98219680D01*
X153437039Y-98074315D01*
X153471982Y-97901760D01*
X153471982Y-97301760D01*
X153441650Y-97140559D01*
X153436968Y-97133283D01*
X153470840Y-97140142D01*
X153870840Y-97140142D01*
X154032041Y-97109810D01*
X154180095Y-97014540D01*
X154219670Y-96956620D01*
X154763560Y-96956620D01*
X154977863Y-96913993D01*
X155159540Y-96792600D01*
X155267838Y-96684302D01*
X155469400Y-96684302D01*
X155630601Y-96653970D01*
X155692245Y-96614303D01*
X158175717Y-96619060D01*
X158225146Y-96609149D01*
X158266825Y-96580788D01*
X158294186Y-96538446D01*
X158302905Y-96495784D01*
X158323011Y-95810362D01*
X158585980Y-95810362D01*
X158747181Y-95780030D01*
X158895235Y-95684760D01*
X158907671Y-95666560D01*
X159908240Y-95666560D01*
X159957650Y-95656554D01*
X159999275Y-95628113D01*
X160026555Y-95585719D01*
X160031077Y-95561687D01*
X160092580Y-95574142D01*
X160592580Y-95574142D01*
X160753781Y-95543810D01*
X160901835Y-95448540D01*
X161001159Y-95303175D01*
X161036102Y-95130620D01*
X161036102Y-94530620D01*
X161005770Y-94369419D01*
X160946344Y-94277068D01*
X160981022Y-94105820D01*
X160981022Y-93662011D01*
X161318200Y-93729080D01*
G36*
X150515320Y-82171335D02*
X150525246Y-82220761D01*
X150553620Y-82262432D01*
X150595970Y-82289780D01*
X150642532Y-82298540D01*
X158209807Y-82285924D01*
X162023721Y-85845908D01*
X161986836Y-91859080D01*
X161318200Y-91859080D01*
X160960391Y-91930253D01*
X160657055Y-92132935D01*
X160615114Y-92195705D01*
X160556236Y-92207416D01*
X160350227Y-92345067D01*
X160184586Y-92510708D01*
X160155430Y-92355759D01*
X160060160Y-92207705D01*
X160037608Y-92192296D01*
X160099459Y-92101775D01*
X160134402Y-91929220D01*
X160134402Y-91329220D01*
X160104070Y-91168019D01*
X160035240Y-91061054D01*
X160035240Y-90891360D01*
X160025234Y-90841950D01*
X159996793Y-90800325D01*
X159954399Y-90773045D01*
X159910256Y-90764376D01*
X158275020Y-90738420D01*
X158275020Y-89328541D01*
X158290700Y-89312888D01*
X158402833Y-89042842D01*
X158403088Y-88750441D01*
X158291426Y-88480200D01*
X158275020Y-88463765D01*
X158275020Y-86474300D01*
X158265014Y-86424890D01*
X158236573Y-86383265D01*
X158194179Y-86355985D01*
X158147971Y-86347300D01*
X155881578Y-86348166D01*
X155791843Y-86288207D01*
X155577540Y-86245580D01*
X148014567Y-86245580D01*
X147800264Y-86288207D01*
X147705854Y-86351290D01*
X146863306Y-86351612D01*
X146790055Y-86301561D01*
X146617500Y-86266618D01*
X146117500Y-86266618D01*
X145956299Y-86296950D01*
X145870763Y-86351991D01*
X145701443Y-86352056D01*
X145608955Y-86288861D01*
X145436400Y-86253918D01*
X144980889Y-86253918D01*
X144990223Y-77022335D01*
X146669500Y-75343058D01*
X146790893Y-75161381D01*
X146833520Y-74947078D01*
X146833520Y-74765438D01*
X146896260Y-74702808D01*
X147008393Y-74432762D01*
X147008648Y-74140361D01*
X146896986Y-73870120D01*
X146690408Y-73663180D01*
X146420362Y-73551047D01*
X146127961Y-73550792D01*
X145857720Y-73662454D01*
X145650780Y-73869032D01*
X145538647Y-74139078D01*
X145538392Y-74431479D01*
X145650054Y-74701720D01*
X145688452Y-74740186D01*
X144991826Y-75436812D01*
X144995865Y-71442440D01*
X150532641Y-71442440D01*
X150515320Y-82171335D01*
X150515320Y-82171335D01*
G37*
X150515320Y-82171335D02*
X150525246Y-82220761D01*
X150553620Y-82262432D01*
X150595970Y-82289780D01*
X150642532Y-82298540D01*
X158209807Y-82285924D01*
X162023721Y-85845908D01*
X161986836Y-91859080D01*
X161318200Y-91859080D01*
X160960391Y-91930253D01*
X160657055Y-92132935D01*
X160615114Y-92195705D01*
X160556236Y-92207416D01*
X160350227Y-92345067D01*
X160184586Y-92510708D01*
X160155430Y-92355759D01*
X160060160Y-92207705D01*
X160037608Y-92192296D01*
X160099459Y-92101775D01*
X160134402Y-91929220D01*
X160134402Y-91329220D01*
X160104070Y-91168019D01*
X160035240Y-91061054D01*
X160035240Y-90891360D01*
X160025234Y-90841950D01*
X159996793Y-90800325D01*
X159954399Y-90773045D01*
X159910256Y-90764376D01*
X158275020Y-90738420D01*
X158275020Y-89328541D01*
X158290700Y-89312888D01*
X158402833Y-89042842D01*
X158403088Y-88750441D01*
X158291426Y-88480200D01*
X158275020Y-88463765D01*
X158275020Y-86474300D01*
X158265014Y-86424890D01*
X158236573Y-86383265D01*
X158194179Y-86355985D01*
X158147971Y-86347300D01*
X155881578Y-86348166D01*
X155791843Y-86288207D01*
X155577540Y-86245580D01*
X148014567Y-86245580D01*
X147800264Y-86288207D01*
X147705854Y-86351290D01*
X146863306Y-86351612D01*
X146790055Y-86301561D01*
X146617500Y-86266618D01*
X146117500Y-86266618D01*
X145956299Y-86296950D01*
X145870763Y-86351991D01*
X145701443Y-86352056D01*
X145608955Y-86288861D01*
X145436400Y-86253918D01*
X144980889Y-86253918D01*
X144990223Y-77022335D01*
X146669500Y-75343058D01*
X146790893Y-75161381D01*
X146833520Y-74947078D01*
X146833520Y-74765438D01*
X146896260Y-74702808D01*
X147008393Y-74432762D01*
X147008648Y-74140361D01*
X146896986Y-73870120D01*
X146690408Y-73663180D01*
X146420362Y-73551047D01*
X146127961Y-73550792D01*
X145857720Y-73662454D01*
X145650780Y-73869032D01*
X145538647Y-74139078D01*
X145538392Y-74431479D01*
X145650054Y-74701720D01*
X145688452Y-74740186D01*
X144991826Y-75436812D01*
X144995865Y-71442440D01*
X150532641Y-71442440D01*
X150515320Y-82171335D01*
M02*
