G04 #@! TF.FileFunction,Legend,Top*
%FSLAX46Y46*%
G04 Gerber Fmt 4.6, Leading zero omitted, Abs format (unit mm)*
G04 Created by KiCad (PCBNEW 4.0.2+dfsg1-stable) date mer 24 ott 2018 10:21:22 CEST*
%MOMM*%
G01*
G04 APERTURE LIST*
%ADD10C,0.100000*%
%ADD11C,0.300000*%
%ADD12C,0.200000*%
%ADD13C,0.150000*%
G04 APERTURE END LIST*
D10*
D11*
X170239571Y-78362429D02*
X171739571Y-78362429D01*
X170311000Y-78362429D02*
X170239571Y-78219572D01*
X170239571Y-77933858D01*
X170311000Y-77791001D01*
X170382429Y-77719572D01*
X170525286Y-77648143D01*
X170953857Y-77648143D01*
X171096714Y-77719572D01*
X171168143Y-77791001D01*
X171239571Y-77933858D01*
X171239571Y-78219572D01*
X171168143Y-78362429D01*
X171239571Y-76791000D02*
X171168143Y-76933858D01*
X171096714Y-77005286D01*
X170953857Y-77076715D01*
X170525286Y-77076715D01*
X170382429Y-77005286D01*
X170311000Y-76933858D01*
X170239571Y-76791000D01*
X170239571Y-76576715D01*
X170311000Y-76433858D01*
X170382429Y-76362429D01*
X170525286Y-76291000D01*
X170953857Y-76291000D01*
X171096714Y-76362429D01*
X171168143Y-76433858D01*
X171239571Y-76576715D01*
X171239571Y-76791000D01*
X170239571Y-75791000D02*
X171239571Y-75505286D01*
X170525286Y-75219572D01*
X171239571Y-74933857D01*
X170239571Y-74648143D01*
X171382429Y-74433857D02*
X171382429Y-73291000D01*
X171239571Y-72291000D02*
X170453857Y-72291000D01*
X170311000Y-72362429D01*
X170239571Y-72505286D01*
X170239571Y-72791000D01*
X170311000Y-72933857D01*
X171168143Y-72291000D02*
X171239571Y-72433857D01*
X171239571Y-72791000D01*
X171168143Y-72933857D01*
X171025286Y-73005286D01*
X170882429Y-73005286D01*
X170739571Y-72933857D01*
X170668143Y-72791000D01*
X170668143Y-72433857D01*
X170596714Y-72291000D01*
X170239571Y-70933857D02*
X171239571Y-70933857D01*
X170239571Y-71576714D02*
X171025286Y-71576714D01*
X171168143Y-71505286D01*
X171239571Y-71362428D01*
X171239571Y-71148143D01*
X171168143Y-71005286D01*
X171096714Y-70933857D01*
X171239571Y-70362428D02*
X170239571Y-69576714D01*
X170239571Y-70362428D02*
X171239571Y-69576714D01*
X168755143Y-58229143D02*
X168826571Y-58086286D01*
X168826571Y-57800571D01*
X168755143Y-57657714D01*
X168612286Y-57586286D01*
X168540857Y-57586286D01*
X168398000Y-57657714D01*
X168326571Y-57800571D01*
X168326571Y-58014857D01*
X168255143Y-58157714D01*
X168112286Y-58229143D01*
X168040857Y-58229143D01*
X167898000Y-58157714D01*
X167826571Y-58014857D01*
X167826571Y-57800571D01*
X167898000Y-57657714D01*
X168755143Y-56372000D02*
X168826571Y-56514857D01*
X168826571Y-56800571D01*
X168755143Y-56943428D01*
X168612286Y-57014857D01*
X168040857Y-57014857D01*
X167898000Y-56943428D01*
X167826571Y-56800571D01*
X167826571Y-56514857D01*
X167898000Y-56372000D01*
X168040857Y-56300571D01*
X168183714Y-56300571D01*
X168326571Y-57014857D01*
X168826571Y-55657714D02*
X167826571Y-55657714D01*
X168112286Y-55657714D02*
X167969429Y-55586286D01*
X167898000Y-55514857D01*
X167826571Y-55372000D01*
X167826571Y-55229143D01*
X168826571Y-54729143D02*
X167826571Y-54729143D01*
X167326571Y-54729143D02*
X167398000Y-54800572D01*
X167469429Y-54729143D01*
X167398000Y-54657715D01*
X167326571Y-54729143D01*
X167469429Y-54729143D01*
X168826571Y-53372000D02*
X168040857Y-53372000D01*
X167898000Y-53443429D01*
X167826571Y-53586286D01*
X167826571Y-53872000D01*
X167898000Y-54014857D01*
X168755143Y-53372000D02*
X168826571Y-53514857D01*
X168826571Y-53872000D01*
X168755143Y-54014857D01*
X168612286Y-54086286D01*
X168469429Y-54086286D01*
X168326571Y-54014857D01*
X168255143Y-53872000D01*
X168255143Y-53514857D01*
X168183714Y-53372000D01*
X168826571Y-52443428D02*
X168755143Y-52586286D01*
X168612286Y-52657714D01*
X167326571Y-52657714D01*
D12*
X115697000Y-58801000D02*
G75*
G03X115697000Y-58801000I-635000J0D01*
G01*
D11*
X108902572Y-63607143D02*
X110045429Y-63607143D01*
X109474000Y-64178571D02*
X109474000Y-63035714D01*
X128115286Y-78264144D02*
X128043857Y-78192715D01*
X127972429Y-77978429D01*
X127972429Y-77835572D01*
X128043857Y-77621287D01*
X128186714Y-77478429D01*
X128329571Y-77407001D01*
X128615286Y-77335572D01*
X128829571Y-77335572D01*
X129115286Y-77407001D01*
X129258143Y-77478429D01*
X129401000Y-77621287D01*
X129472429Y-77835572D01*
X129472429Y-77978429D01*
X129401000Y-78192715D01*
X129329571Y-78264144D01*
X127972429Y-79764144D02*
X128686714Y-79264144D01*
X127972429Y-78907001D02*
X129472429Y-78907001D01*
X129472429Y-79478429D01*
X129401000Y-79621287D01*
X129329571Y-79692715D01*
X129186714Y-79764144D01*
X128972429Y-79764144D01*
X128829571Y-79692715D01*
X128758143Y-79621287D01*
X128686714Y-79478429D01*
X128686714Y-78907001D01*
X129329571Y-80335572D02*
X129401000Y-80407001D01*
X129472429Y-80549858D01*
X129472429Y-80907001D01*
X129401000Y-81049858D01*
X129329571Y-81121287D01*
X129186714Y-81192715D01*
X129043857Y-81192715D01*
X128829571Y-81121287D01*
X127972429Y-80264144D01*
X127972429Y-81192715D01*
X129472429Y-82121286D02*
X129472429Y-82264143D01*
X129401000Y-82407000D01*
X129329571Y-82478429D01*
X129186714Y-82549858D01*
X128901000Y-82621286D01*
X128543857Y-82621286D01*
X128258143Y-82549858D01*
X128115286Y-82478429D01*
X128043857Y-82407000D01*
X127972429Y-82264143D01*
X127972429Y-82121286D01*
X128043857Y-81978429D01*
X128115286Y-81907000D01*
X128258143Y-81835572D01*
X128543857Y-81764143D01*
X128901000Y-81764143D01*
X129186714Y-81835572D01*
X129329571Y-81907000D01*
X129401000Y-81978429D01*
X129472429Y-82121286D01*
X129472429Y-83121286D02*
X129472429Y-84049857D01*
X128901000Y-83549857D01*
X128901000Y-83764143D01*
X128829571Y-83907000D01*
X128758143Y-83978429D01*
X128615286Y-84049857D01*
X128258143Y-84049857D01*
X128115286Y-83978429D01*
X128043857Y-83907000D01*
X127972429Y-83764143D01*
X127972429Y-83335571D01*
X128043857Y-83192714D01*
X128115286Y-83121286D01*
X129329571Y-84621285D02*
X129401000Y-84692714D01*
X129472429Y-84835571D01*
X129472429Y-85192714D01*
X129401000Y-85335571D01*
X129329571Y-85407000D01*
X129186714Y-85478428D01*
X129043857Y-85478428D01*
X128829571Y-85407000D01*
X127972429Y-84549857D01*
X127972429Y-85478428D01*
D12*
X160431480Y-75747880D02*
X160812480Y-75747880D01*
X159161480Y-74477880D02*
X160431480Y-75747880D01*
D11*
X155468000Y-60360571D02*
X155110857Y-60360571D01*
X155110857Y-58217714D01*
X155468000Y-58217714D01*
X155825143Y-58860571D02*
X156396572Y-58860571D01*
X156039429Y-58360571D02*
X156039429Y-59646286D01*
X156110857Y-59789143D01*
X156253715Y-59860571D01*
X156396572Y-59860571D01*
X156753715Y-59860571D02*
X157539429Y-58860571D01*
X156753715Y-58860571D02*
X157539429Y-59860571D01*
X157968001Y-60360571D02*
X158325144Y-60360571D01*
X158325144Y-58217714D01*
X157968001Y-58217714D01*
X155589766Y-75402451D02*
X155232623Y-75402451D01*
X155232623Y-73259594D01*
X155589766Y-73259594D01*
X156161195Y-74902451D02*
X156161195Y-73902451D01*
X156161195Y-74188166D02*
X156232623Y-74045309D01*
X156304052Y-73973880D01*
X156446909Y-73902451D01*
X156589766Y-73902451D01*
X156946909Y-74902451D02*
X157732623Y-73902451D01*
X156946909Y-73902451D02*
X157732623Y-74902451D01*
X158161195Y-75402451D02*
X158518338Y-75402451D01*
X158518338Y-73259594D01*
X158161195Y-73259594D01*
X133978200Y-76387971D02*
X133621057Y-76387971D01*
X133621057Y-74245114D01*
X133978200Y-74245114D01*
X134335343Y-74887971D02*
X134906772Y-74887971D01*
X134549629Y-74387971D02*
X134549629Y-75673686D01*
X134621057Y-75816543D01*
X134763915Y-75887971D01*
X134906772Y-75887971D01*
X135978200Y-75816543D02*
X135835343Y-75887971D01*
X135549629Y-75887971D01*
X135406772Y-75816543D01*
X135335343Y-75673686D01*
X135335343Y-75102257D01*
X135406772Y-74959400D01*
X135549629Y-74887971D01*
X135835343Y-74887971D01*
X135978200Y-74959400D01*
X136049629Y-75102257D01*
X136049629Y-75245114D01*
X135335343Y-75387971D01*
X136692486Y-75887971D02*
X136692486Y-74887971D01*
X136692486Y-75173686D02*
X136763914Y-75030829D01*
X136835343Y-74959400D01*
X136978200Y-74887971D01*
X137121057Y-74887971D01*
X137621057Y-75887971D02*
X137621057Y-74887971D01*
X137621057Y-75030829D02*
X137692485Y-74959400D01*
X137835343Y-74887971D01*
X138049628Y-74887971D01*
X138192485Y-74959400D01*
X138263914Y-75102257D01*
X138263914Y-75887971D01*
X138263914Y-75102257D02*
X138335343Y-74959400D01*
X138478200Y-74887971D01*
X138692485Y-74887971D01*
X138835343Y-74959400D01*
X138906771Y-75102257D01*
X138906771Y-75887971D01*
X139478200Y-76387971D02*
X139835343Y-76387971D01*
X139835343Y-74245114D01*
X139478200Y-74245114D01*
X131826143Y-93484000D02*
X131683286Y-93412571D01*
X131469000Y-93412571D01*
X131254715Y-93484000D01*
X131111857Y-93626857D01*
X131040429Y-93769714D01*
X130969000Y-94055429D01*
X130969000Y-94269714D01*
X131040429Y-94555429D01*
X131111857Y-94698286D01*
X131254715Y-94841143D01*
X131469000Y-94912571D01*
X131611857Y-94912571D01*
X131826143Y-94841143D01*
X131897572Y-94769714D01*
X131897572Y-94269714D01*
X131611857Y-94269714D01*
X132540429Y-94912571D02*
X132540429Y-93412571D01*
X133397572Y-94912571D01*
X133397572Y-93412571D01*
X134111858Y-94912571D02*
X134111858Y-93412571D01*
X134469001Y-93412571D01*
X134683286Y-93484000D01*
X134826144Y-93626857D01*
X134897572Y-93769714D01*
X134969001Y-94055429D01*
X134969001Y-94269714D01*
X134897572Y-94555429D01*
X134826144Y-94698286D01*
X134683286Y-94841143D01*
X134469001Y-94912571D01*
X134111858Y-94912571D01*
X127615143Y-94253857D02*
X127829429Y-94325286D01*
X127900857Y-94396714D01*
X127972286Y-94539571D01*
X127972286Y-94753857D01*
X127900857Y-94896714D01*
X127829429Y-94968143D01*
X127686571Y-95039571D01*
X127115143Y-95039571D01*
X127115143Y-93539571D01*
X127615143Y-93539571D01*
X127758000Y-93611000D01*
X127829429Y-93682429D01*
X127900857Y-93825286D01*
X127900857Y-93968143D01*
X127829429Y-94111000D01*
X127758000Y-94182429D01*
X127615143Y-94253857D01*
X127115143Y-94253857D01*
X122324857Y-94611000D02*
X123039143Y-94611000D01*
X122182000Y-95039571D02*
X122682000Y-93539571D01*
X123182000Y-95039571D01*
X116268572Y-94087143D02*
X117411429Y-94087143D01*
X116840000Y-94658571D02*
X116840000Y-93515714D01*
X122956144Y-92118571D02*
X122456144Y-91404286D01*
X122099001Y-92118571D02*
X122099001Y-90618571D01*
X122670429Y-90618571D01*
X122813287Y-90690000D01*
X122884715Y-90761429D01*
X122956144Y-90904286D01*
X122956144Y-91118571D01*
X122884715Y-91261429D01*
X122813287Y-91332857D01*
X122670429Y-91404286D01*
X122099001Y-91404286D01*
X123527572Y-92047143D02*
X123741858Y-92118571D01*
X124099001Y-92118571D01*
X124241858Y-92047143D01*
X124313287Y-91975714D01*
X124384715Y-91832857D01*
X124384715Y-91690000D01*
X124313287Y-91547143D01*
X124241858Y-91475714D01*
X124099001Y-91404286D01*
X123813287Y-91332857D01*
X123670429Y-91261429D01*
X123599001Y-91190000D01*
X123527572Y-91047143D01*
X123527572Y-90904286D01*
X123599001Y-90761429D01*
X123670429Y-90690000D01*
X123813287Y-90618571D01*
X124170429Y-90618571D01*
X124384715Y-90690000D01*
X125670429Y-91118571D02*
X125670429Y-92118571D01*
X125313286Y-90547143D02*
X124956143Y-91618571D01*
X125884715Y-91618571D01*
X126670429Y-91261429D02*
X126527571Y-91190000D01*
X126456143Y-91118571D01*
X126384714Y-90975714D01*
X126384714Y-90904286D01*
X126456143Y-90761429D01*
X126527571Y-90690000D01*
X126670429Y-90618571D01*
X126956143Y-90618571D01*
X127099000Y-90690000D01*
X127170429Y-90761429D01*
X127241857Y-90904286D01*
X127241857Y-90975714D01*
X127170429Y-91118571D01*
X127099000Y-91190000D01*
X126956143Y-91261429D01*
X126670429Y-91261429D01*
X126527571Y-91332857D01*
X126456143Y-91404286D01*
X126384714Y-91547143D01*
X126384714Y-91832857D01*
X126456143Y-91975714D01*
X126527571Y-92047143D01*
X126670429Y-92118571D01*
X126956143Y-92118571D01*
X127099000Y-92047143D01*
X127170429Y-91975714D01*
X127241857Y-91832857D01*
X127241857Y-91547143D01*
X127170429Y-91404286D01*
X127099000Y-91332857D01*
X126956143Y-91261429D01*
X128599000Y-90618571D02*
X127884714Y-90618571D01*
X127813285Y-91332857D01*
X127884714Y-91261429D01*
X128027571Y-91190000D01*
X128384714Y-91190000D01*
X128527571Y-91261429D01*
X128599000Y-91332857D01*
X128670428Y-91475714D01*
X128670428Y-91832857D01*
X128599000Y-91975714D01*
X128527571Y-92047143D01*
X128384714Y-92118571D01*
X128027571Y-92118571D01*
X127884714Y-92047143D01*
X127813285Y-91975714D01*
D13*
X135458200Y-71291400D02*
X135458200Y-71891400D01*
X135458200Y-70391400D02*
X135458200Y-69891400D01*
X136058200Y-70391400D02*
X134758200Y-70391400D01*
X136058200Y-71291400D02*
X134758200Y-71291400D01*
X136058200Y-70591400D02*
X136058200Y-71091400D01*
X136058200Y-71091400D02*
X134758200Y-71091400D01*
X134758200Y-71091400D02*
X134758200Y-70591400D01*
X134758200Y-70591400D02*
X136058200Y-70591400D01*
X134258200Y-68391400D02*
X134258200Y-73391400D01*
X134258200Y-73391400D02*
X136658200Y-73391400D01*
X136658200Y-73391400D02*
X136658200Y-68391400D01*
X136658200Y-68391400D02*
X134258200Y-68391400D01*
X153192575Y-91059000D02*
G75*
G03X153192575Y-91059000I-331175J0D01*
G01*
X152289000Y-90605000D02*
X152289000Y-90630000D01*
X156939000Y-90605000D02*
X156939000Y-90630000D01*
X156939000Y-97355000D02*
X156939000Y-97330000D01*
X152289000Y-97355000D02*
X152289000Y-97330000D01*
X152289000Y-90605000D02*
X156939000Y-90605000D01*
X152289000Y-97355000D02*
X156939000Y-97355000D01*
X152289000Y-90630000D02*
X151214000Y-90630000D01*
X167846120Y-96093920D02*
X168846120Y-96093920D01*
X168846120Y-97443920D02*
X167846120Y-97443920D01*
X168846120Y-92744920D02*
X167846120Y-92744920D01*
X167846120Y-91394920D02*
X168846120Y-91394920D01*
X168820720Y-88091640D02*
X167820720Y-88091640D01*
X167820720Y-86741640D02*
X168820720Y-86741640D01*
X167350060Y-90875480D02*
X166350060Y-90875480D01*
X166350060Y-89525480D02*
X167350060Y-89525480D01*
X162320480Y-73342880D02*
X162320480Y-74342880D01*
X160970480Y-74342880D02*
X160970480Y-73342880D01*
X135871580Y-84358860D02*
X135871580Y-85358860D01*
X134521580Y-85358860D02*
X134521580Y-84358860D01*
X165472740Y-69982460D02*
X165472740Y-70982460D01*
X164122740Y-70982460D02*
X164122740Y-69982460D01*
X134207000Y-89162000D02*
X134207000Y-90162000D01*
X132857000Y-90162000D02*
X132857000Y-89162000D01*
X131159000Y-89162000D02*
X131159000Y-90162000D01*
X129809000Y-90162000D02*
X129809000Y-89162000D01*
X162447480Y-80454880D02*
X162447480Y-81454880D01*
X161097480Y-81454880D02*
X161097480Y-80454880D01*
X164987480Y-76644880D02*
X164987480Y-77644880D01*
X163637480Y-77644880D02*
X163637480Y-76644880D01*
X162320480Y-66357880D02*
X162320480Y-67357880D01*
X160970480Y-67357880D02*
X160970480Y-66357880D01*
X157541480Y-77898880D02*
X157541480Y-76898880D01*
X158891480Y-76898880D02*
X158891480Y-77898880D01*
X158891480Y-80200880D02*
X158891480Y-81200880D01*
X157541480Y-81200880D02*
X157541480Y-80200880D01*
X164860480Y-62547880D02*
X164860480Y-63547880D01*
X163510480Y-63547880D02*
X163510480Y-62547880D01*
X156097480Y-76898880D02*
X156097480Y-77898880D01*
X154747480Y-77898880D02*
X154747480Y-76898880D01*
X135843900Y-66295900D02*
X134843900Y-66295900D01*
X134843900Y-64945900D02*
X135843900Y-64945900D01*
X164439480Y-74096880D02*
X165074480Y-74096880D01*
X165074480Y-74096880D02*
X165074480Y-73080880D01*
X163296480Y-73080880D02*
X163296480Y-74096880D01*
X163296480Y-74096880D02*
X163931480Y-74096880D01*
X164439480Y-74223880D02*
X164439480Y-74096880D01*
X163931480Y-74096880D02*
X163931480Y-74223880D01*
X165074480Y-73080880D02*
X163296480Y-73080880D01*
X163931480Y-74223880D02*
X164439480Y-74223880D01*
X164566480Y-81208880D02*
X165201480Y-81208880D01*
X165201480Y-81208880D02*
X165201480Y-80192880D01*
X163423480Y-80192880D02*
X163423480Y-81208880D01*
X163423480Y-81208880D02*
X164058480Y-81208880D01*
X164566480Y-81335880D02*
X164566480Y-81208880D01*
X164058480Y-81208880D02*
X164058480Y-81335880D01*
X165201480Y-80192880D02*
X163423480Y-80192880D01*
X164058480Y-81335880D02*
X164566480Y-81335880D01*
X164185480Y-67111880D02*
X164820480Y-67111880D01*
X164820480Y-67111880D02*
X164820480Y-66095880D01*
X163042480Y-66095880D02*
X163042480Y-67111880D01*
X163042480Y-67111880D02*
X163677480Y-67111880D01*
X164185480Y-67238880D02*
X164185480Y-67111880D01*
X163677480Y-67111880D02*
X163677480Y-67238880D01*
X164820480Y-66095880D02*
X163042480Y-66095880D01*
X163677480Y-67238880D02*
X164185480Y-67238880D01*
X155676480Y-81208880D02*
X156311480Y-81208880D01*
X156311480Y-81208880D02*
X156311480Y-80192880D01*
X154533480Y-80192880D02*
X154533480Y-81208880D01*
X154533480Y-81208880D02*
X155168480Y-81208880D01*
X155676480Y-81335880D02*
X155676480Y-81208880D01*
X155168480Y-81208880D02*
X155168480Y-81335880D01*
X156311480Y-80192880D02*
X154533480Y-80192880D01*
X155168480Y-81335880D02*
X155676480Y-81335880D01*
X164592000Y-52070000D02*
X113792000Y-52070000D01*
X116332000Y-57150000D02*
X164592000Y-57150000D01*
X164592000Y-52070000D02*
X164592000Y-57150000D01*
X113792000Y-52070000D02*
X113792000Y-54610000D01*
X113512000Y-55880000D02*
X113512000Y-57430000D01*
X113792000Y-54610000D02*
X116332000Y-54610000D01*
X116332000Y-54610000D02*
X116332000Y-57150000D01*
X113512000Y-57430000D02*
X115062000Y-57430000D01*
X167594280Y-68298060D02*
X167594280Y-75918060D01*
X170134280Y-68298060D02*
X170134280Y-75918060D01*
X170414280Y-65478060D02*
X170414280Y-67028060D01*
X167594280Y-75918060D02*
X170134280Y-75918060D01*
X170134280Y-68298060D02*
X167594280Y-68298060D01*
X167314280Y-67028060D02*
X167314280Y-65478060D01*
X167314280Y-65478060D02*
X170414280Y-65478060D01*
X144698000Y-96276000D02*
X142698000Y-96276000D01*
X144698000Y-103876000D02*
X142698000Y-103876000D01*
X137098000Y-103876000D02*
X139098000Y-103876000D01*
X137098000Y-103876000D02*
X137098000Y-96276000D01*
X137098000Y-96276000D02*
X139098000Y-96276000D01*
X144698000Y-103876000D02*
X144698000Y-96276000D01*
X144698000Y-85862000D02*
X142698000Y-85862000D01*
X144698000Y-93462000D02*
X142698000Y-93462000D01*
X137098000Y-93462000D02*
X139098000Y-93462000D01*
X137098000Y-93462000D02*
X137098000Y-85862000D01*
X137098000Y-85862000D02*
X139098000Y-85862000D01*
X144698000Y-93462000D02*
X144698000Y-85862000D01*
X136514840Y-79659480D02*
X136514840Y-82199480D01*
X136794840Y-76839480D02*
X136794840Y-78389480D01*
X136514840Y-79659480D02*
X133974840Y-79659480D01*
X133694840Y-78389480D02*
X133694840Y-76839480D01*
X133694840Y-76839480D02*
X136794840Y-76839480D01*
X133974840Y-79659480D02*
X133974840Y-82199480D01*
X133974840Y-82199480D02*
X136514840Y-82199480D01*
X157230000Y-102108000D02*
X156980000Y-102108000D01*
X157730000Y-102108000D02*
X157980000Y-102108000D01*
X157730000Y-102108000D02*
X157230000Y-102458000D01*
X157230000Y-102458000D02*
X157230000Y-101758000D01*
X157230000Y-101758000D02*
X157730000Y-102108000D01*
X157730000Y-102458000D02*
X157730000Y-101758000D01*
X158780000Y-101308000D02*
X156380000Y-101308000D01*
X158780000Y-102908000D02*
X156380000Y-102908000D01*
X154408000Y-101862000D02*
X151408000Y-101862000D01*
X151157940Y-100562860D02*
X151508460Y-100562860D01*
X154658060Y-100562860D02*
X154307540Y-100562860D01*
X151157940Y-104612440D02*
X151508460Y-104612440D01*
X151157940Y-100111560D02*
X151508460Y-100111560D01*
X154658060Y-100111560D02*
X154307540Y-100111560D01*
X154658060Y-104612440D02*
X154307540Y-104612440D01*
X151157940Y-100111560D02*
X151157940Y-104612440D01*
X154658060Y-100111560D02*
X154658060Y-104612440D01*
X149360000Y-82066000D02*
X149360000Y-85066000D01*
X148060860Y-85316060D02*
X148060860Y-84965540D01*
X148060860Y-81815940D02*
X148060860Y-82166460D01*
X152110440Y-85316060D02*
X152110440Y-84965540D01*
X147609560Y-85316060D02*
X147609560Y-84965540D01*
X147609560Y-81815940D02*
X147609560Y-82166460D01*
X152110440Y-81815940D02*
X152110440Y-82166460D01*
X147609560Y-85316060D02*
X152110440Y-85316060D01*
X147609560Y-81815940D02*
X152110440Y-81815940D01*
X152404000Y-87122000D02*
X152154000Y-87122000D01*
X152904000Y-87122000D02*
X153154000Y-87122000D01*
X152904000Y-87122000D02*
X152404000Y-87472000D01*
X152404000Y-87472000D02*
X152404000Y-86772000D01*
X152404000Y-86772000D02*
X152904000Y-87122000D01*
X152904000Y-87472000D02*
X152904000Y-86772000D01*
X153954000Y-86322000D02*
X151554000Y-86322000D01*
X153954000Y-87922000D02*
X151554000Y-87922000D01*
X161195900Y-69583300D02*
X162095060Y-69583300D01*
X162095060Y-69583300D02*
X162095060Y-69184520D01*
X161195900Y-69184520D02*
X162095060Y-69184520D01*
X161195900Y-69583300D02*
X161195900Y-69184520D01*
X161195900Y-70881240D02*
X162095060Y-70881240D01*
X162095060Y-70881240D02*
X162095060Y-70482460D01*
X161195900Y-70482460D02*
X162095060Y-70482460D01*
X161195900Y-70881240D02*
X161195900Y-70482460D01*
X161195900Y-70032880D02*
X161345760Y-70032880D01*
X161345760Y-70032880D02*
X161345760Y-69733160D01*
X161195900Y-69733160D02*
X161345760Y-69733160D01*
X161195900Y-70032880D02*
X161195900Y-69733160D01*
X161945200Y-70032880D02*
X162095060Y-70032880D01*
X162095060Y-70032880D02*
X162095060Y-69733160D01*
X161945200Y-69733160D02*
X162095060Y-69733160D01*
X161945200Y-70032880D02*
X161945200Y-69733160D01*
X161495620Y-70032880D02*
X161795340Y-70032880D01*
X161795340Y-70032880D02*
X161795340Y-69733160D01*
X161495620Y-69733160D02*
X161795340Y-69733160D01*
X161495620Y-70032880D02*
X161495620Y-69733160D01*
X161246700Y-69583300D02*
X161246700Y-70482460D01*
X162044260Y-69583300D02*
X162044260Y-70482460D01*
X161322900Y-76695300D02*
X162222060Y-76695300D01*
X162222060Y-76695300D02*
X162222060Y-76296520D01*
X161322900Y-76296520D02*
X162222060Y-76296520D01*
X161322900Y-76695300D02*
X161322900Y-76296520D01*
X161322900Y-77993240D02*
X162222060Y-77993240D01*
X162222060Y-77993240D02*
X162222060Y-77594460D01*
X161322900Y-77594460D02*
X162222060Y-77594460D01*
X161322900Y-77993240D02*
X161322900Y-77594460D01*
X161322900Y-77144880D02*
X161472760Y-77144880D01*
X161472760Y-77144880D02*
X161472760Y-76845160D01*
X161322900Y-76845160D02*
X161472760Y-76845160D01*
X161322900Y-77144880D02*
X161322900Y-76845160D01*
X162072200Y-77144880D02*
X162222060Y-77144880D01*
X162222060Y-77144880D02*
X162222060Y-76845160D01*
X162072200Y-76845160D02*
X162222060Y-76845160D01*
X162072200Y-77144880D02*
X162072200Y-76845160D01*
X161622620Y-77144880D02*
X161922340Y-77144880D01*
X161922340Y-77144880D02*
X161922340Y-76845160D01*
X161622620Y-76845160D02*
X161922340Y-76845160D01*
X161622620Y-77144880D02*
X161622620Y-76845160D01*
X161373700Y-76695300D02*
X161373700Y-77594460D01*
X162171260Y-76695300D02*
X162171260Y-77594460D01*
X161195900Y-62598300D02*
X162095060Y-62598300D01*
X162095060Y-62598300D02*
X162095060Y-62199520D01*
X161195900Y-62199520D02*
X162095060Y-62199520D01*
X161195900Y-62598300D02*
X161195900Y-62199520D01*
X161195900Y-63896240D02*
X162095060Y-63896240D01*
X162095060Y-63896240D02*
X162095060Y-63497460D01*
X161195900Y-63497460D02*
X162095060Y-63497460D01*
X161195900Y-63896240D02*
X161195900Y-63497460D01*
X161195900Y-63047880D02*
X161345760Y-63047880D01*
X161345760Y-63047880D02*
X161345760Y-62748160D01*
X161195900Y-62748160D02*
X161345760Y-62748160D01*
X161195900Y-63047880D02*
X161195900Y-62748160D01*
X161945200Y-63047880D02*
X162095060Y-63047880D01*
X162095060Y-63047880D02*
X162095060Y-62748160D01*
X161945200Y-62748160D02*
X162095060Y-62748160D01*
X161945200Y-63047880D02*
X161945200Y-62748160D01*
X161495620Y-63047880D02*
X161795340Y-63047880D01*
X161795340Y-63047880D02*
X161795340Y-62748160D01*
X161495620Y-62748160D02*
X161795340Y-62748160D01*
X161495620Y-63047880D02*
X161495620Y-62748160D01*
X161246700Y-62598300D02*
X161246700Y-63497460D01*
X162044260Y-62598300D02*
X162044260Y-63497460D01*
X125214000Y-95840000D02*
X125214000Y-107840000D01*
X135214000Y-95840000D02*
X125214000Y-95840000D01*
X135214000Y-107840000D02*
X125214000Y-107840000D01*
X135214000Y-95840000D02*
X135214000Y-107840000D01*
X115214000Y-95840000D02*
X115214000Y-107840000D01*
X125214000Y-95840000D02*
X115214000Y-95840000D01*
X125214000Y-107840000D02*
X115214000Y-107840000D01*
X125214000Y-95840000D02*
X125214000Y-107840000D01*
X148765260Y-95829120D02*
X145366740Y-95829120D01*
X145366740Y-103329740D02*
X145366740Y-97330260D01*
X148765260Y-103329740D02*
X148765260Y-97330260D01*
X150119080Y-95328740D02*
X149019260Y-95328740D01*
X149618700Y-94729300D02*
X149618700Y-95928180D01*
X146970000Y-93634000D02*
X147670000Y-93634000D01*
X147670000Y-94834000D02*
X146970000Y-94834000D01*
X167806120Y-93755920D02*
X168506120Y-93755920D01*
X168506120Y-94955920D02*
X167806120Y-94955920D01*
X162789120Y-92485920D02*
X163489120Y-92485920D01*
X163489120Y-93685920D02*
X162789120Y-93685920D01*
X162789120Y-94771920D02*
X163489120Y-94771920D01*
X163489120Y-95971920D02*
X162789120Y-95971920D01*
X147670000Y-88484000D02*
X146970000Y-88484000D01*
X146970000Y-87284000D02*
X147670000Y-87284000D01*
X156464000Y-86316820D02*
X156464000Y-89715340D01*
X163964620Y-89715340D02*
X157965140Y-89715340D01*
X163964620Y-86316820D02*
X157965140Y-86316820D01*
X155963620Y-84963000D02*
X155963620Y-86062820D01*
X155364180Y-85463380D02*
X156563060Y-85463380D01*
X163497260Y-97353120D02*
X160098740Y-97353120D01*
X160098740Y-104853740D02*
X160098740Y-98854260D01*
X163497260Y-104853740D02*
X163497260Y-98854260D01*
X164851080Y-96852740D02*
X163751260Y-96852740D01*
X164350700Y-96253300D02*
X164350700Y-97452180D01*
X144291800Y-76518060D02*
X143591800Y-76518060D01*
X143591800Y-75318060D02*
X144291800Y-75318060D01*
X157438100Y-74746720D02*
X157438100Y-68346720D01*
X147438100Y-74746720D02*
X147438100Y-68346720D01*
X157438100Y-68346720D02*
X147438100Y-68346720D01*
X157438100Y-74746720D02*
X147438100Y-74746720D01*
X110906000Y-52928000D02*
X110906000Y-52228000D01*
X112106000Y-52228000D02*
X112106000Y-52928000D01*
X141712200Y-66227400D02*
X142412200Y-66227400D01*
X142412200Y-67427400D02*
X141712200Y-67427400D01*
X132506200Y-73269400D02*
X131806200Y-73269400D01*
X131806200Y-72069400D02*
X132506200Y-72069400D01*
X132506200Y-69713400D02*
X131806200Y-69713400D01*
X131806200Y-68513400D02*
X132506200Y-68513400D01*
X112106000Y-55784000D02*
X112106000Y-56484000D01*
X110906000Y-56484000D02*
X110906000Y-55784000D01*
X127094000Y-65954000D02*
X127094000Y-86954000D01*
X127094000Y-86954000D02*
X107094000Y-86954000D01*
X107094000Y-86954000D02*
X107094000Y-65954000D01*
X107094000Y-65954000D02*
X127094000Y-65954000D01*
X139312200Y-68136400D02*
X139312200Y-68436400D01*
X144812200Y-68136400D02*
X144812200Y-68436400D01*
X144812200Y-73646400D02*
X144812200Y-73346400D01*
X139312200Y-73646400D02*
X139312200Y-73346400D01*
X139312200Y-68136400D02*
X144812200Y-68136400D01*
X139312200Y-73646400D02*
X144812200Y-73646400D01*
X139312200Y-68436400D02*
X137562200Y-68436400D01*
X171882860Y-64886960D02*
X165075660Y-64886960D01*
X165075660Y-57901960D02*
X165075660Y-64861560D01*
X171882860Y-57901960D02*
X171882860Y-64861560D01*
X166853660Y-63235960D02*
G75*
G03X166853660Y-63235960I-508000J0D01*
G01*
X166345660Y-62727960D02*
X166345660Y-63743960D01*
X166345660Y-59171960D02*
X166345660Y-60187960D01*
X166853660Y-59679960D02*
G75*
G03X166853660Y-59679960I-508000J0D01*
G01*
X171425660Y-63743960D02*
X171425660Y-62473960D01*
X169901660Y-63743960D02*
X171425660Y-63743960D01*
X169901660Y-62473960D02*
X169901660Y-63743960D01*
X171425660Y-62473960D02*
X169901660Y-62473960D01*
X171425660Y-58917960D02*
X169901660Y-58917960D01*
X169901660Y-58917960D02*
X169901660Y-60187960D01*
X169901660Y-60187960D02*
X171425660Y-60187960D01*
X171425660Y-60187960D02*
X171425660Y-58917960D01*
X165075660Y-57901960D02*
X171875660Y-57901960D01*
X107456180Y-93535440D02*
X114263380Y-93535440D01*
X114263380Y-100520440D02*
X114263380Y-93560840D01*
X107456180Y-100520440D02*
X107456180Y-93560840D01*
X113501380Y-95186440D02*
G75*
G03X113501380Y-95186440I-508000J0D01*
G01*
X112993380Y-95694440D02*
X112993380Y-94678440D01*
X112993380Y-99250440D02*
X112993380Y-98234440D01*
X113501380Y-98742440D02*
G75*
G03X113501380Y-98742440I-508000J0D01*
G01*
X107913380Y-94678440D02*
X107913380Y-95948440D01*
X109437380Y-94678440D02*
X107913380Y-94678440D01*
X109437380Y-95948440D02*
X109437380Y-94678440D01*
X107913380Y-95948440D02*
X109437380Y-95948440D01*
X107913380Y-99504440D02*
X109437380Y-99504440D01*
X109437380Y-99504440D02*
X109437380Y-98234440D01*
X109437380Y-98234440D02*
X107913380Y-98234440D01*
X107913380Y-98234440D02*
X107913380Y-99504440D01*
X114263380Y-100520440D02*
X107463380Y-100520440D01*
X129663253Y-62773560D02*
G75*
G03X129663253Y-62773560I-397573J0D01*
G01*
X130019880Y-63367360D02*
X130019880Y-63222360D01*
X125869880Y-63367360D02*
X125869880Y-63222360D01*
X125869880Y-58217360D02*
X125869880Y-58362360D01*
X130019880Y-58217360D02*
X130019880Y-58362360D01*
X130019880Y-63367360D02*
X125869880Y-63367360D01*
X130019880Y-58217360D02*
X125869880Y-58217360D01*
X130019880Y-63222360D02*
X131419880Y-63222360D01*
X141052613Y-78064360D02*
G75*
G03X141052613Y-78064360I-397573J0D01*
G01*
X139900840Y-77470560D02*
X139900840Y-77615560D01*
X144050840Y-77470560D02*
X144050840Y-77615560D01*
X144050840Y-82620560D02*
X144050840Y-82475560D01*
X139900840Y-82620560D02*
X139900840Y-82475560D01*
X139900840Y-77470560D02*
X144050840Y-77470560D01*
X139900840Y-82620560D02*
X144050840Y-82620560D01*
X139900840Y-77615560D02*
X138500840Y-77615560D01*
X142504160Y-63482220D02*
X144764760Y-63482220D01*
X142504160Y-58910220D02*
X144764760Y-58910220D01*
X142504160Y-63482220D02*
X142250160Y-63482220D01*
X142504160Y-58910220D02*
X142250160Y-58910220D01*
X142377160Y-61196220D02*
G75*
G03X142377160Y-61196220I-2032000J0D01*
G01*
X135900160Y-58910220D02*
X142250160Y-58910220D01*
X144764760Y-58910220D02*
X144764760Y-63482220D01*
X142250160Y-63482220D02*
X135900160Y-63482220D01*
X135900160Y-63482220D02*
X135900160Y-58910220D01*
X134775676Y-66533781D02*
X135442343Y-67533781D01*
X135442343Y-66533781D02*
X134775676Y-67533781D01*
X136347105Y-67533781D02*
X135775676Y-67533781D01*
X136061390Y-67533781D02*
X136061390Y-66533781D01*
X135966152Y-66676638D01*
X135870914Y-66771876D01*
X135775676Y-66819495D01*
X155321095Y-89114381D02*
X155321095Y-89923905D01*
X155368714Y-90019143D01*
X155416333Y-90066762D01*
X155511571Y-90114381D01*
X155702048Y-90114381D01*
X155797286Y-90066762D01*
X155844905Y-90019143D01*
X155892524Y-89923905D01*
X155892524Y-89114381D01*
X156273476Y-89114381D02*
X156892524Y-89114381D01*
X156559190Y-89495333D01*
X156702048Y-89495333D01*
X156797286Y-89542952D01*
X156844905Y-89590571D01*
X156892524Y-89685810D01*
X156892524Y-89923905D01*
X156844905Y-90019143D01*
X156797286Y-90066762D01*
X156702048Y-90114381D01*
X156416333Y-90114381D01*
X156321095Y-90066762D01*
X156273476Y-90019143D01*
X171211501Y-96522777D02*
X170735310Y-96856111D01*
X171211501Y-97094206D02*
X170211501Y-97094206D01*
X170211501Y-96713253D01*
X170259120Y-96618015D01*
X170306739Y-96570396D01*
X170401977Y-96522777D01*
X170544834Y-96522777D01*
X170640072Y-96570396D01*
X170687691Y-96618015D01*
X170735310Y-96713253D01*
X170735310Y-97094206D01*
X171211501Y-95570396D02*
X171211501Y-96141825D01*
X171211501Y-95856111D02*
X170211501Y-95856111D01*
X170354358Y-95951349D01*
X170449596Y-96046587D01*
X170497215Y-96141825D01*
X171211501Y-95094206D02*
X171211501Y-94903730D01*
X171163882Y-94808491D01*
X171116263Y-94760872D01*
X170973406Y-94665634D01*
X170782930Y-94618015D01*
X170401977Y-94618015D01*
X170306739Y-94665634D01*
X170259120Y-94713253D01*
X170211501Y-94808491D01*
X170211501Y-94998968D01*
X170259120Y-95094206D01*
X170306739Y-95141825D01*
X170401977Y-95189444D01*
X170640072Y-95189444D01*
X170735310Y-95141825D01*
X170782930Y-95094206D01*
X170830549Y-94998968D01*
X170830549Y-94808491D01*
X170782930Y-94713253D01*
X170735310Y-94665634D01*
X170640072Y-94618015D01*
X171211501Y-92585777D02*
X170735310Y-92919111D01*
X171211501Y-93157206D02*
X170211501Y-93157206D01*
X170211501Y-92776253D01*
X170259120Y-92681015D01*
X170306739Y-92633396D01*
X170401977Y-92585777D01*
X170544834Y-92585777D01*
X170640072Y-92633396D01*
X170687691Y-92681015D01*
X170735310Y-92776253D01*
X170735310Y-93157206D01*
X171211501Y-91633396D02*
X171211501Y-92204825D01*
X171211501Y-91919111D02*
X170211501Y-91919111D01*
X170354358Y-92014349D01*
X170449596Y-92109587D01*
X170497215Y-92204825D01*
X170640072Y-91061968D02*
X170592453Y-91157206D01*
X170544834Y-91204825D01*
X170449596Y-91252444D01*
X170401977Y-91252444D01*
X170306739Y-91204825D01*
X170259120Y-91157206D01*
X170211501Y-91061968D01*
X170211501Y-90871491D01*
X170259120Y-90776253D01*
X170306739Y-90728634D01*
X170401977Y-90681015D01*
X170449596Y-90681015D01*
X170544834Y-90728634D01*
X170592453Y-90776253D01*
X170640072Y-90871491D01*
X170640072Y-91061968D01*
X170687691Y-91157206D01*
X170735310Y-91204825D01*
X170830549Y-91252444D01*
X171021025Y-91252444D01*
X171116263Y-91204825D01*
X171163882Y-91157206D01*
X171211501Y-91061968D01*
X171211501Y-90871491D01*
X171163882Y-90776253D01*
X171116263Y-90728634D01*
X171021025Y-90681015D01*
X170830549Y-90681015D01*
X170735310Y-90728634D01*
X170687691Y-90776253D01*
X170640072Y-90871491D01*
X167858203Y-86136741D02*
X167524869Y-85660550D01*
X167286774Y-86136741D02*
X167286774Y-85136741D01*
X167667727Y-85136741D01*
X167762965Y-85184360D01*
X167810584Y-85231979D01*
X167858203Y-85327217D01*
X167858203Y-85470074D01*
X167810584Y-85565312D01*
X167762965Y-85612931D01*
X167667727Y-85660550D01*
X167286774Y-85660550D01*
X168810584Y-86136741D02*
X168239155Y-86136741D01*
X168524869Y-86136741D02*
X168524869Y-85136741D01*
X168429631Y-85279598D01*
X168334393Y-85374836D01*
X168239155Y-85422455D01*
X169143917Y-85136741D02*
X169810584Y-85136741D01*
X169382012Y-86136741D01*
X169588441Y-90843337D02*
X169112250Y-91176671D01*
X169588441Y-91414766D02*
X168588441Y-91414766D01*
X168588441Y-91033813D01*
X168636060Y-90938575D01*
X168683679Y-90890956D01*
X168778917Y-90843337D01*
X168921774Y-90843337D01*
X169017012Y-90890956D01*
X169064631Y-90938575D01*
X169112250Y-91033813D01*
X169112250Y-91414766D01*
X169588441Y-89890956D02*
X169588441Y-90462385D01*
X169588441Y-90176671D02*
X168588441Y-90176671D01*
X168731298Y-90271909D01*
X168826536Y-90367147D01*
X168874155Y-90462385D01*
X168588441Y-89033813D02*
X168588441Y-89224290D01*
X168636060Y-89319528D01*
X168683679Y-89367147D01*
X168826536Y-89462385D01*
X169017012Y-89510004D01*
X169397965Y-89510004D01*
X169493203Y-89462385D01*
X169540822Y-89414766D01*
X169588441Y-89319528D01*
X169588441Y-89129051D01*
X169540822Y-89033813D01*
X169493203Y-88986194D01*
X169397965Y-88938575D01*
X169159870Y-88938575D01*
X169064631Y-88986194D01*
X169017012Y-89033813D01*
X168969393Y-89129051D01*
X168969393Y-89319528D01*
X169017012Y-89414766D01*
X169064631Y-89462385D01*
X169159870Y-89510004D01*
X158772623Y-72517261D02*
X158439289Y-72041070D01*
X158201194Y-72517261D02*
X158201194Y-71517261D01*
X158582147Y-71517261D01*
X158677385Y-71564880D01*
X158725004Y-71612499D01*
X158772623Y-71707737D01*
X158772623Y-71850594D01*
X158725004Y-71945832D01*
X158677385Y-71993451D01*
X158582147Y-72041070D01*
X158201194Y-72041070D01*
X159725004Y-72517261D02*
X159153575Y-72517261D01*
X159439289Y-72517261D02*
X159439289Y-71517261D01*
X159344051Y-71660118D01*
X159248813Y-71755356D01*
X159153575Y-71802975D01*
X160058337Y-71517261D02*
X160677385Y-71517261D01*
X160344051Y-71898213D01*
X160486909Y-71898213D01*
X160582147Y-71945832D01*
X160629766Y-71993451D01*
X160677385Y-72088690D01*
X160677385Y-72326785D01*
X160629766Y-72422023D01*
X160582147Y-72469642D01*
X160486909Y-72517261D01*
X160201194Y-72517261D01*
X160105956Y-72469642D01*
X160058337Y-72422023D01*
X131942723Y-85184241D02*
X131609389Y-84708050D01*
X131371294Y-85184241D02*
X131371294Y-84184241D01*
X131752247Y-84184241D01*
X131847485Y-84231860D01*
X131895104Y-84279479D01*
X131942723Y-84374717D01*
X131942723Y-84517574D01*
X131895104Y-84612812D01*
X131847485Y-84660431D01*
X131752247Y-84708050D01*
X131371294Y-84708050D01*
X132895104Y-85184241D02*
X132323675Y-85184241D01*
X132609389Y-85184241D02*
X132609389Y-84184241D01*
X132514151Y-84327098D01*
X132418913Y-84422336D01*
X132323675Y-84469955D01*
X133276056Y-84279479D02*
X133323675Y-84231860D01*
X133418913Y-84184241D01*
X133657009Y-84184241D01*
X133752247Y-84231860D01*
X133799866Y-84279479D01*
X133847485Y-84374717D01*
X133847485Y-84469955D01*
X133799866Y-84612812D01*
X133228437Y-85184241D01*
X133847485Y-85184241D01*
X166623883Y-70934841D02*
X166290549Y-70458650D01*
X166052454Y-70934841D02*
X166052454Y-69934841D01*
X166433407Y-69934841D01*
X166528645Y-69982460D01*
X166576264Y-70030079D01*
X166623883Y-70125317D01*
X166623883Y-70268174D01*
X166576264Y-70363412D01*
X166528645Y-70411031D01*
X166433407Y-70458650D01*
X166052454Y-70458650D01*
X167576264Y-70934841D02*
X167004835Y-70934841D01*
X167290549Y-70934841D02*
X167290549Y-69934841D01*
X167195311Y-70077698D01*
X167100073Y-70172936D01*
X167004835Y-70220555D01*
X168528645Y-70934841D02*
X167957216Y-70934841D01*
X168242930Y-70934841D02*
X168242930Y-69934841D01*
X168147692Y-70077698D01*
X168052454Y-70172936D01*
X167957216Y-70220555D01*
X133215143Y-87828381D02*
X132881809Y-87352190D01*
X132643714Y-87828381D02*
X132643714Y-86828381D01*
X133024667Y-86828381D01*
X133119905Y-86876000D01*
X133167524Y-86923619D01*
X133215143Y-87018857D01*
X133215143Y-87161714D01*
X133167524Y-87256952D01*
X133119905Y-87304571D01*
X133024667Y-87352190D01*
X132643714Y-87352190D01*
X134167524Y-87828381D02*
X133596095Y-87828381D01*
X133881809Y-87828381D02*
X133881809Y-86828381D01*
X133786571Y-86971238D01*
X133691333Y-87066476D01*
X133596095Y-87114095D01*
X134786571Y-86828381D02*
X134881810Y-86828381D01*
X134977048Y-86876000D01*
X135024667Y-86923619D01*
X135072286Y-87018857D01*
X135119905Y-87209333D01*
X135119905Y-87447429D01*
X135072286Y-87637905D01*
X135024667Y-87733143D01*
X134977048Y-87780762D01*
X134881810Y-87828381D01*
X134786571Y-87828381D01*
X134691333Y-87780762D01*
X134643714Y-87733143D01*
X134596095Y-87637905D01*
X134548476Y-87447429D01*
X134548476Y-87209333D01*
X134596095Y-87018857D01*
X134643714Y-86923619D01*
X134691333Y-86876000D01*
X134786571Y-86828381D01*
X130135334Y-87828381D02*
X129802000Y-87352190D01*
X129563905Y-87828381D02*
X129563905Y-86828381D01*
X129944858Y-86828381D01*
X130040096Y-86876000D01*
X130087715Y-86923619D01*
X130135334Y-87018857D01*
X130135334Y-87161714D01*
X130087715Y-87256952D01*
X130040096Y-87304571D01*
X129944858Y-87352190D01*
X129563905Y-87352190D01*
X130611524Y-87828381D02*
X130802000Y-87828381D01*
X130897239Y-87780762D01*
X130944858Y-87733143D01*
X131040096Y-87590286D01*
X131087715Y-87399810D01*
X131087715Y-87018857D01*
X131040096Y-86923619D01*
X130992477Y-86876000D01*
X130897239Y-86828381D01*
X130706762Y-86828381D01*
X130611524Y-86876000D01*
X130563905Y-86923619D01*
X130516286Y-87018857D01*
X130516286Y-87256952D01*
X130563905Y-87352190D01*
X130611524Y-87399810D01*
X130706762Y-87447429D01*
X130897239Y-87447429D01*
X130992477Y-87399810D01*
X131040096Y-87352190D01*
X131087715Y-87256952D01*
X161661814Y-83566261D02*
X161328480Y-83090070D01*
X161090385Y-83566261D02*
X161090385Y-82566261D01*
X161471338Y-82566261D01*
X161566576Y-82613880D01*
X161614195Y-82661499D01*
X161661814Y-82756737D01*
X161661814Y-82899594D01*
X161614195Y-82994832D01*
X161566576Y-83042451D01*
X161471338Y-83090070D01*
X161090385Y-83090070D01*
X162233242Y-82994832D02*
X162138004Y-82947213D01*
X162090385Y-82899594D01*
X162042766Y-82804356D01*
X162042766Y-82756737D01*
X162090385Y-82661499D01*
X162138004Y-82613880D01*
X162233242Y-82566261D01*
X162423719Y-82566261D01*
X162518957Y-82613880D01*
X162566576Y-82661499D01*
X162614195Y-82756737D01*
X162614195Y-82804356D01*
X162566576Y-82899594D01*
X162518957Y-82947213D01*
X162423719Y-82994832D01*
X162233242Y-82994832D01*
X162138004Y-83042451D01*
X162090385Y-83090070D01*
X162042766Y-83185309D01*
X162042766Y-83375785D01*
X162090385Y-83471023D01*
X162138004Y-83518642D01*
X162233242Y-83566261D01*
X162423719Y-83566261D01*
X162518957Y-83518642D01*
X162566576Y-83471023D01*
X162614195Y-83375785D01*
X162614195Y-83185309D01*
X162566576Y-83090070D01*
X162518957Y-83042451D01*
X162423719Y-82994832D01*
X166233814Y-77724261D02*
X165900480Y-77248070D01*
X165662385Y-77724261D02*
X165662385Y-76724261D01*
X166043338Y-76724261D01*
X166138576Y-76771880D01*
X166186195Y-76819499D01*
X166233814Y-76914737D01*
X166233814Y-77057594D01*
X166186195Y-77152832D01*
X166138576Y-77200451D01*
X166043338Y-77248070D01*
X165662385Y-77248070D01*
X166567147Y-76724261D02*
X167233814Y-76724261D01*
X166805242Y-77724261D01*
X159578814Y-67310261D02*
X159245480Y-66834070D01*
X159007385Y-67310261D02*
X159007385Y-66310261D01*
X159388338Y-66310261D01*
X159483576Y-66357880D01*
X159531195Y-66405499D01*
X159578814Y-66500737D01*
X159578814Y-66643594D01*
X159531195Y-66738832D01*
X159483576Y-66786451D01*
X159388338Y-66834070D01*
X159007385Y-66834070D01*
X160435957Y-66310261D02*
X160245480Y-66310261D01*
X160150242Y-66357880D01*
X160102623Y-66405499D01*
X160007385Y-66548356D01*
X159959766Y-66738832D01*
X159959766Y-67119785D01*
X160007385Y-67215023D01*
X160055004Y-67262642D01*
X160150242Y-67310261D01*
X160340719Y-67310261D01*
X160435957Y-67262642D01*
X160483576Y-67215023D01*
X160531195Y-67119785D01*
X160531195Y-66881690D01*
X160483576Y-66786451D01*
X160435957Y-66738832D01*
X160340719Y-66691213D01*
X160150242Y-66691213D01*
X160055004Y-66738832D01*
X160007385Y-66786451D01*
X159959766Y-66881690D01*
X159756814Y-77089261D02*
X159423480Y-76613070D01*
X159185385Y-77089261D02*
X159185385Y-76089261D01*
X159566338Y-76089261D01*
X159661576Y-76136880D01*
X159709195Y-76184499D01*
X159756814Y-76279737D01*
X159756814Y-76422594D01*
X159709195Y-76517832D01*
X159661576Y-76565451D01*
X159566338Y-76613070D01*
X159185385Y-76613070D01*
X160661576Y-76089261D02*
X160185385Y-76089261D01*
X160137766Y-76565451D01*
X160185385Y-76517832D01*
X160280623Y-76470213D01*
X160518719Y-76470213D01*
X160613957Y-76517832D01*
X160661576Y-76565451D01*
X160709195Y-76660690D01*
X160709195Y-76898785D01*
X160661576Y-76994023D01*
X160613957Y-77041642D01*
X160518719Y-77089261D01*
X160280623Y-77089261D01*
X160185385Y-77041642D01*
X160137766Y-76994023D01*
X159756814Y-81153261D02*
X159423480Y-80677070D01*
X159185385Y-81153261D02*
X159185385Y-80153261D01*
X159566338Y-80153261D01*
X159661576Y-80200880D01*
X159709195Y-80248499D01*
X159756814Y-80343737D01*
X159756814Y-80486594D01*
X159709195Y-80581832D01*
X159661576Y-80629451D01*
X159566338Y-80677070D01*
X159185385Y-80677070D01*
X160613957Y-80486594D02*
X160613957Y-81153261D01*
X160375861Y-80105642D02*
X160137766Y-80819928D01*
X160756814Y-80819928D01*
X165852814Y-63246261D02*
X165519480Y-62770070D01*
X165281385Y-63246261D02*
X165281385Y-62246261D01*
X165662338Y-62246261D01*
X165757576Y-62293880D01*
X165805195Y-62341499D01*
X165852814Y-62436737D01*
X165852814Y-62579594D01*
X165805195Y-62674832D01*
X165757576Y-62722451D01*
X165662338Y-62770070D01*
X165281385Y-62770070D01*
X166186147Y-62246261D02*
X166805195Y-62246261D01*
X166471861Y-62627213D01*
X166614719Y-62627213D01*
X166709957Y-62674832D01*
X166757576Y-62722451D01*
X166805195Y-62817690D01*
X166805195Y-63055785D01*
X166757576Y-63151023D01*
X166709957Y-63198642D01*
X166614719Y-63246261D01*
X166329004Y-63246261D01*
X166233766Y-63198642D01*
X166186147Y-63151023D01*
X153355814Y-77851261D02*
X153022480Y-77375070D01*
X152784385Y-77851261D02*
X152784385Y-76851261D01*
X153165338Y-76851261D01*
X153260576Y-76898880D01*
X153308195Y-76946499D01*
X153355814Y-77041737D01*
X153355814Y-77184594D01*
X153308195Y-77279832D01*
X153260576Y-77327451D01*
X153165338Y-77375070D01*
X152784385Y-77375070D01*
X153736766Y-76946499D02*
X153784385Y-76898880D01*
X153879623Y-76851261D01*
X154117719Y-76851261D01*
X154212957Y-76898880D01*
X154260576Y-76946499D01*
X154308195Y-77041737D01*
X154308195Y-77136975D01*
X154260576Y-77279832D01*
X153689147Y-77851261D01*
X154308195Y-77851261D01*
X135177234Y-64173281D02*
X134843900Y-63697090D01*
X134605805Y-64173281D02*
X134605805Y-63173281D01*
X134986758Y-63173281D01*
X135081996Y-63220900D01*
X135129615Y-63268519D01*
X135177234Y-63363757D01*
X135177234Y-63506614D01*
X135129615Y-63601852D01*
X135081996Y-63649471D01*
X134986758Y-63697090D01*
X134605805Y-63697090D01*
X136129615Y-64173281D02*
X135558186Y-64173281D01*
X135843900Y-64173281D02*
X135843900Y-63173281D01*
X135748662Y-63316138D01*
X135653424Y-63411376D01*
X135558186Y-63458995D01*
X166432242Y-74263499D02*
X166337004Y-74215880D01*
X166241766Y-74120642D01*
X166098909Y-73977785D01*
X166003670Y-73930166D01*
X165908432Y-73930166D01*
X165956051Y-74168261D02*
X165860813Y-74120642D01*
X165765575Y-74025404D01*
X165717956Y-73834928D01*
X165717956Y-73501594D01*
X165765575Y-73311118D01*
X165860813Y-73215880D01*
X165956051Y-73168261D01*
X166146528Y-73168261D01*
X166241766Y-73215880D01*
X166337004Y-73311118D01*
X166384623Y-73501594D01*
X166384623Y-73834928D01*
X166337004Y-74025404D01*
X166241766Y-74120642D01*
X166146528Y-74168261D01*
X165956051Y-74168261D01*
X167241766Y-73501594D02*
X167241766Y-74168261D01*
X167003670Y-73120642D02*
X166765575Y-73834928D01*
X167384623Y-73834928D01*
X166432242Y-81375499D02*
X166337004Y-81327880D01*
X166241766Y-81232642D01*
X166098909Y-81089785D01*
X166003670Y-81042166D01*
X165908432Y-81042166D01*
X165956051Y-81280261D02*
X165860813Y-81232642D01*
X165765575Y-81137404D01*
X165717956Y-80946928D01*
X165717956Y-80613594D01*
X165765575Y-80423118D01*
X165860813Y-80327880D01*
X165956051Y-80280261D01*
X166146528Y-80280261D01*
X166241766Y-80327880D01*
X166337004Y-80423118D01*
X166384623Y-80613594D01*
X166384623Y-80946928D01*
X166337004Y-81137404D01*
X166241766Y-81232642D01*
X166146528Y-81280261D01*
X165956051Y-81280261D01*
X166717956Y-80280261D02*
X167337004Y-80280261D01*
X167003670Y-80661213D01*
X167146528Y-80661213D01*
X167241766Y-80708832D01*
X167289385Y-80756451D01*
X167337004Y-80851690D01*
X167337004Y-81089785D01*
X167289385Y-81185023D01*
X167241766Y-81232642D01*
X167146528Y-81280261D01*
X166860813Y-81280261D01*
X166765575Y-81232642D01*
X166717956Y-81185023D01*
X166051242Y-66516499D02*
X165956004Y-66468880D01*
X165860766Y-66373642D01*
X165717909Y-66230785D01*
X165622670Y-66183166D01*
X165527432Y-66183166D01*
X165575051Y-66421261D02*
X165479813Y-66373642D01*
X165384575Y-66278404D01*
X165336956Y-66087928D01*
X165336956Y-65754594D01*
X165384575Y-65564118D01*
X165479813Y-65468880D01*
X165575051Y-65421261D01*
X165765528Y-65421261D01*
X165860766Y-65468880D01*
X165956004Y-65564118D01*
X166003623Y-65754594D01*
X166003623Y-66087928D01*
X165956004Y-66278404D01*
X165860766Y-66373642D01*
X165765528Y-66421261D01*
X165575051Y-66421261D01*
X166384575Y-65516499D02*
X166432194Y-65468880D01*
X166527432Y-65421261D01*
X166765528Y-65421261D01*
X166860766Y-65468880D01*
X166908385Y-65516499D01*
X166956004Y-65611737D01*
X166956004Y-65706975D01*
X166908385Y-65849832D01*
X166336956Y-66421261D01*
X166956004Y-66421261D01*
X153224242Y-81248499D02*
X153129004Y-81200880D01*
X153033766Y-81105642D01*
X152890909Y-80962785D01*
X152795670Y-80915166D01*
X152700432Y-80915166D01*
X152748051Y-81153261D02*
X152652813Y-81105642D01*
X152557575Y-81010404D01*
X152509956Y-80819928D01*
X152509956Y-80486594D01*
X152557575Y-80296118D01*
X152652813Y-80200880D01*
X152748051Y-80153261D01*
X152938528Y-80153261D01*
X153033766Y-80200880D01*
X153129004Y-80296118D01*
X153176623Y-80486594D01*
X153176623Y-80819928D01*
X153129004Y-81010404D01*
X153033766Y-81105642D01*
X152938528Y-81153261D01*
X152748051Y-81153261D01*
X154129004Y-81153261D02*
X153557575Y-81153261D01*
X153843289Y-81153261D02*
X153843289Y-80153261D01*
X153748051Y-80296118D01*
X153652813Y-80391356D01*
X153557575Y-80438975D01*
X122451905Y-59380381D02*
X122451905Y-58380381D01*
X122832858Y-58380381D01*
X122928096Y-58428000D01*
X122975715Y-58475619D01*
X123023334Y-58570857D01*
X123023334Y-58713714D01*
X122975715Y-58808952D01*
X122928096Y-58856571D01*
X122832858Y-58904190D01*
X122451905Y-58904190D01*
X123356667Y-58380381D02*
X123975715Y-58380381D01*
X123642381Y-58761333D01*
X123785239Y-58761333D01*
X123880477Y-58808952D01*
X123928096Y-58856571D01*
X123975715Y-58951810D01*
X123975715Y-59189905D01*
X123928096Y-59285143D01*
X123880477Y-59332762D01*
X123785239Y-59380381D01*
X123499524Y-59380381D01*
X123404286Y-59332762D01*
X123356667Y-59285143D01*
X172110661Y-71830155D02*
X171110661Y-71830155D01*
X171110661Y-71449202D01*
X171158280Y-71353964D01*
X171205899Y-71306345D01*
X171301137Y-71258726D01*
X171443994Y-71258726D01*
X171539232Y-71306345D01*
X171586851Y-71353964D01*
X171634470Y-71449202D01*
X171634470Y-71830155D01*
X171205899Y-70877774D02*
X171158280Y-70830155D01*
X171110661Y-70734917D01*
X171110661Y-70496821D01*
X171158280Y-70401583D01*
X171205899Y-70353964D01*
X171301137Y-70306345D01*
X171396375Y-70306345D01*
X171539232Y-70353964D01*
X172110661Y-70925393D01*
X172110661Y-70306345D01*
X141062186Y-65528757D02*
X141062186Y-64328757D01*
X141519329Y-64328757D01*
X141633615Y-64385900D01*
X141690758Y-64443043D01*
X141747901Y-64557329D01*
X141747901Y-64728757D01*
X141690758Y-64843043D01*
X141633615Y-64900186D01*
X141519329Y-64957329D01*
X141062186Y-64957329D01*
X142890758Y-65528757D02*
X142205043Y-65528757D01*
X142547901Y-65528757D02*
X142547901Y-64328757D01*
X142433615Y-64500186D01*
X142319329Y-64614471D01*
X142205043Y-64671614D01*
X138434001Y-106723571D02*
X137719715Y-106723571D01*
X137719715Y-105223571D01*
X138862572Y-105366429D02*
X138934001Y-105295000D01*
X139076858Y-105223571D01*
X139434001Y-105223571D01*
X139576858Y-105295000D01*
X139648287Y-105366429D01*
X139719715Y-105509286D01*
X139719715Y-105652143D01*
X139648287Y-105866429D01*
X138791144Y-106723571D01*
X139719715Y-106723571D01*
X137799001Y-85006571D02*
X137084715Y-85006571D01*
X137084715Y-83506571D01*
X139084715Y-85006571D02*
X138227572Y-85006571D01*
X138656144Y-85006571D02*
X138656144Y-83506571D01*
X138513287Y-83720857D01*
X138370429Y-83863714D01*
X138227572Y-83935143D01*
X130911507Y-78349861D02*
X130911507Y-79064147D01*
X130863887Y-79207004D01*
X130768649Y-79302242D01*
X130625792Y-79349861D01*
X130530554Y-79349861D01*
X131387697Y-79349861D02*
X131387697Y-78349861D01*
X131768650Y-78349861D01*
X131863888Y-78397480D01*
X131911507Y-78445099D01*
X131959126Y-78540337D01*
X131959126Y-78683194D01*
X131911507Y-78778432D01*
X131863888Y-78826051D01*
X131768650Y-78873670D01*
X131387697Y-78873670D01*
X132911507Y-79349861D02*
X132340078Y-79349861D01*
X132625792Y-79349861D02*
X132625792Y-78349861D01*
X132530554Y-78492718D01*
X132435316Y-78587956D01*
X132340078Y-78635575D01*
X156741905Y-104410381D02*
X156741905Y-103410381D01*
X156980000Y-103410381D01*
X157122858Y-103458000D01*
X157218096Y-103553238D01*
X157265715Y-103648476D01*
X157313334Y-103838952D01*
X157313334Y-103981810D01*
X157265715Y-104172286D01*
X157218096Y-104267524D01*
X157122858Y-104362762D01*
X156980000Y-104410381D01*
X156741905Y-104410381D01*
X157646667Y-103410381D02*
X158313334Y-103410381D01*
X157884762Y-104410381D01*
X151915905Y-107259381D02*
X151915905Y-106259381D01*
X152154000Y-106259381D01*
X152296858Y-106307000D01*
X152392096Y-106402238D01*
X152439715Y-106497476D01*
X152487334Y-106687952D01*
X152487334Y-106830810D01*
X152439715Y-107021286D01*
X152392096Y-107116524D01*
X152296858Y-107211762D01*
X152154000Y-107259381D01*
X151915905Y-107259381D01*
X153344477Y-106259381D02*
X153154000Y-106259381D01*
X153058762Y-106307000D01*
X153011143Y-106354619D01*
X152915905Y-106497476D01*
X152868286Y-106687952D01*
X152868286Y-107068905D01*
X152915905Y-107164143D01*
X152963524Y-107211762D01*
X153058762Y-107259381D01*
X153249239Y-107259381D01*
X153344477Y-107211762D01*
X153392096Y-107164143D01*
X153439715Y-107068905D01*
X153439715Y-106830810D01*
X153392096Y-106735571D01*
X153344477Y-106687952D01*
X153249239Y-106640333D01*
X153058762Y-106640333D01*
X152963524Y-106687952D01*
X152915905Y-106735571D01*
X152868286Y-106830810D01*
X150410381Y-99723905D02*
X149410381Y-99723905D01*
X150410381Y-99152476D02*
X149838952Y-99581048D01*
X149410381Y-99152476D02*
X149981810Y-99723905D01*
X150174667Y-105500095D02*
X150174667Y-105023904D01*
X150460381Y-105595333D02*
X149460381Y-105262000D01*
X150460381Y-104928666D01*
X149121905Y-81097381D02*
X149121905Y-80097381D01*
X149360000Y-80097381D01*
X149502858Y-80145000D01*
X149598096Y-80240238D01*
X149645715Y-80335476D01*
X149693334Y-80525952D01*
X149693334Y-80668810D01*
X149645715Y-80859286D01*
X149598096Y-80954524D01*
X149502858Y-81049762D01*
X149360000Y-81097381D01*
X149121905Y-81097381D01*
X150598096Y-80097381D02*
X150121905Y-80097381D01*
X150074286Y-80573571D01*
X150121905Y-80525952D01*
X150217143Y-80478333D01*
X150455239Y-80478333D01*
X150550477Y-80525952D01*
X150598096Y-80573571D01*
X150645715Y-80668810D01*
X150645715Y-80906905D01*
X150598096Y-81002143D01*
X150550477Y-81049762D01*
X150455239Y-81097381D01*
X150217143Y-81097381D01*
X150121905Y-81049762D01*
X150074286Y-81002143D01*
X145407095Y-84145381D02*
X145407095Y-83145381D01*
X145978524Y-84145381D02*
X145549952Y-83573952D01*
X145978524Y-83145381D02*
X145407095Y-83716810D01*
X153685905Y-83605667D02*
X154162096Y-83605667D01*
X153590667Y-83891381D02*
X153924000Y-82891381D01*
X154257334Y-83891381D01*
X149248905Y-87320381D02*
X149248905Y-86320381D01*
X149487000Y-86320381D01*
X149629858Y-86368000D01*
X149725096Y-86463238D01*
X149772715Y-86558476D01*
X149820334Y-86748952D01*
X149820334Y-86891810D01*
X149772715Y-87082286D01*
X149725096Y-87177524D01*
X149629858Y-87272762D01*
X149487000Y-87320381D01*
X149248905Y-87320381D01*
X150677477Y-86653714D02*
X150677477Y-87320381D01*
X150439381Y-86272762D02*
X150201286Y-86987048D01*
X150820334Y-86987048D01*
X159058385Y-70485261D02*
X159058385Y-69485261D01*
X159296480Y-69485261D01*
X159439338Y-69532880D01*
X159534576Y-69628118D01*
X159582195Y-69723356D01*
X159629814Y-69913832D01*
X159629814Y-70056690D01*
X159582195Y-70247166D01*
X159534576Y-70342404D01*
X159439338Y-70437642D01*
X159296480Y-70485261D01*
X159058385Y-70485261D01*
X159963147Y-69485261D02*
X160582195Y-69485261D01*
X160248861Y-69866213D01*
X160391719Y-69866213D01*
X160486957Y-69913832D01*
X160534576Y-69961451D01*
X160582195Y-70056690D01*
X160582195Y-70294785D01*
X160534576Y-70390023D01*
X160486957Y-70437642D01*
X160391719Y-70485261D01*
X160106004Y-70485261D01*
X160010766Y-70437642D01*
X159963147Y-70390023D01*
X159566385Y-79121261D02*
X159566385Y-78121261D01*
X159804480Y-78121261D01*
X159947338Y-78168880D01*
X160042576Y-78264118D01*
X160090195Y-78359356D01*
X160137814Y-78549832D01*
X160137814Y-78692690D01*
X160090195Y-78883166D01*
X160042576Y-78978404D01*
X159947338Y-79073642D01*
X159804480Y-79121261D01*
X159566385Y-79121261D01*
X160518766Y-78216499D02*
X160566385Y-78168880D01*
X160661623Y-78121261D01*
X160899719Y-78121261D01*
X160994957Y-78168880D01*
X161042576Y-78216499D01*
X161090195Y-78311737D01*
X161090195Y-78406975D01*
X161042576Y-78549832D01*
X160471147Y-79121261D01*
X161090195Y-79121261D01*
X159185385Y-64897261D02*
X159185385Y-63897261D01*
X159423480Y-63897261D01*
X159566338Y-63944880D01*
X159661576Y-64040118D01*
X159709195Y-64135356D01*
X159756814Y-64325832D01*
X159756814Y-64468690D01*
X159709195Y-64659166D01*
X159661576Y-64754404D01*
X159566338Y-64849642D01*
X159423480Y-64897261D01*
X159185385Y-64897261D01*
X160709195Y-64897261D02*
X160137766Y-64897261D01*
X160423480Y-64897261D02*
X160423480Y-63897261D01*
X160328242Y-64040118D01*
X160233004Y-64135356D01*
X160137766Y-64182975D01*
X126745715Y-106535714D02*
X126674286Y-106607143D01*
X126460000Y-106678571D01*
X126317143Y-106678571D01*
X126102858Y-106607143D01*
X125960000Y-106464286D01*
X125888572Y-106321429D01*
X125817143Y-106035714D01*
X125817143Y-105821429D01*
X125888572Y-105535714D01*
X125960000Y-105392857D01*
X126102858Y-105250000D01*
X126317143Y-105178571D01*
X126460000Y-105178571D01*
X126674286Y-105250000D01*
X126745715Y-105321429D01*
X127674286Y-105178571D02*
X127960000Y-105178571D01*
X128102858Y-105250000D01*
X128245715Y-105392857D01*
X128317143Y-105678571D01*
X128317143Y-106178571D01*
X128245715Y-106464286D01*
X128102858Y-106607143D01*
X127960000Y-106678571D01*
X127674286Y-106678571D01*
X127531429Y-106607143D01*
X127388572Y-106464286D01*
X127317143Y-106178571D01*
X127317143Y-105678571D01*
X127388572Y-105392857D01*
X127531429Y-105250000D01*
X127674286Y-105178571D01*
X128960001Y-106678571D02*
X128960001Y-105178571D01*
X129460001Y-106250000D01*
X129960001Y-105178571D01*
X129960001Y-106678571D01*
X130317144Y-106821429D02*
X131460001Y-106821429D01*
X132317144Y-105892857D02*
X132531430Y-105964286D01*
X132602858Y-106035714D01*
X132674287Y-106178571D01*
X132674287Y-106392857D01*
X132602858Y-106535714D01*
X132531430Y-106607143D01*
X132388572Y-106678571D01*
X131817144Y-106678571D01*
X131817144Y-105178571D01*
X132317144Y-105178571D01*
X132460001Y-105250000D01*
X132531430Y-105321429D01*
X132602858Y-105464286D01*
X132602858Y-105607143D01*
X132531430Y-105750000D01*
X132460001Y-105821429D01*
X132317144Y-105892857D01*
X131817144Y-105892857D01*
X134102858Y-106678571D02*
X133245715Y-106678571D01*
X133674287Y-106678571D02*
X133674287Y-105178571D01*
X133531430Y-105392857D01*
X133388572Y-105535714D01*
X133245715Y-105607143D01*
X116852858Y-106535714D02*
X116781429Y-106607143D01*
X116567143Y-106678571D01*
X116424286Y-106678571D01*
X116210001Y-106607143D01*
X116067143Y-106464286D01*
X115995715Y-106321429D01*
X115924286Y-106035714D01*
X115924286Y-105821429D01*
X115995715Y-105535714D01*
X116067143Y-105392857D01*
X116210001Y-105250000D01*
X116424286Y-105178571D01*
X116567143Y-105178571D01*
X116781429Y-105250000D01*
X116852858Y-105321429D01*
X117781429Y-105178571D02*
X118067143Y-105178571D01*
X118210001Y-105250000D01*
X118352858Y-105392857D01*
X118424286Y-105678571D01*
X118424286Y-106178571D01*
X118352858Y-106464286D01*
X118210001Y-106607143D01*
X118067143Y-106678571D01*
X117781429Y-106678571D01*
X117638572Y-106607143D01*
X117495715Y-106464286D01*
X117424286Y-106178571D01*
X117424286Y-105678571D01*
X117495715Y-105392857D01*
X117638572Y-105250000D01*
X117781429Y-105178571D01*
X119067144Y-106678571D02*
X119067144Y-105178571D01*
X119567144Y-106250000D01*
X120067144Y-105178571D01*
X120067144Y-106678571D01*
X120424287Y-106821429D02*
X121567144Y-106821429D01*
X121852858Y-106250000D02*
X122567144Y-106250000D01*
X121710001Y-106678571D02*
X122210001Y-105178571D01*
X122710001Y-106678571D01*
X123995715Y-106678571D02*
X123138572Y-106678571D01*
X123567144Y-106678571D02*
X123567144Y-105178571D01*
X123424287Y-105392857D01*
X123281429Y-105535714D01*
X123138572Y-105607143D01*
X146042143Y-106275143D02*
X145994524Y-106322762D01*
X145851667Y-106370381D01*
X145756429Y-106370381D01*
X145613571Y-106322762D01*
X145518333Y-106227524D01*
X145470714Y-106132286D01*
X145423095Y-105941810D01*
X145423095Y-105798952D01*
X145470714Y-105608476D01*
X145518333Y-105513238D01*
X145613571Y-105418000D01*
X145756429Y-105370381D01*
X145851667Y-105370381D01*
X145994524Y-105418000D01*
X146042143Y-105465619D01*
X146994524Y-106370381D02*
X146423095Y-106370381D01*
X146708809Y-106370381D02*
X146708809Y-105370381D01*
X146613571Y-105513238D01*
X146518333Y-105608476D01*
X146423095Y-105656095D01*
X147565952Y-105798952D02*
X147470714Y-105751333D01*
X147423095Y-105703714D01*
X147375476Y-105608476D01*
X147375476Y-105560857D01*
X147423095Y-105465619D01*
X147470714Y-105418000D01*
X147565952Y-105370381D01*
X147756429Y-105370381D01*
X147851667Y-105418000D01*
X147899286Y-105465619D01*
X147946905Y-105560857D01*
X147946905Y-105608476D01*
X147899286Y-105703714D01*
X147851667Y-105751333D01*
X147756429Y-105798952D01*
X147565952Y-105798952D01*
X147470714Y-105846571D01*
X147423095Y-105894190D01*
X147375476Y-105989429D01*
X147375476Y-106179905D01*
X147423095Y-106275143D01*
X147470714Y-106322762D01*
X147565952Y-106370381D01*
X147756429Y-106370381D01*
X147851667Y-106322762D01*
X147899286Y-106275143D01*
X147946905Y-106179905D01*
X147946905Y-105989429D01*
X147899286Y-105894190D01*
X147851667Y-105846571D01*
X147756429Y-105798952D01*
X149687589Y-95712232D02*
X149687589Y-94950327D01*
X150068541Y-95331279D02*
X149306636Y-95331279D01*
X146677143Y-93194143D02*
X146629524Y-93241762D01*
X146486667Y-93289381D01*
X146391429Y-93289381D01*
X146248571Y-93241762D01*
X146153333Y-93146524D01*
X146105714Y-93051286D01*
X146058095Y-92860810D01*
X146058095Y-92717952D01*
X146105714Y-92527476D01*
X146153333Y-92432238D01*
X146248571Y-92337000D01*
X146391429Y-92289381D01*
X146486667Y-92289381D01*
X146629524Y-92337000D01*
X146677143Y-92384619D01*
X147629524Y-93289381D02*
X147058095Y-93289381D01*
X147343809Y-93289381D02*
X147343809Y-92289381D01*
X147248571Y-92432238D01*
X147153333Y-92527476D01*
X147058095Y-92575095D01*
X147962857Y-92289381D02*
X148629524Y-92289381D01*
X148200952Y-93289381D01*
X166290263Y-94998777D02*
X166337882Y-95046396D01*
X166385501Y-95189253D01*
X166385501Y-95284491D01*
X166337882Y-95427349D01*
X166242644Y-95522587D01*
X166147406Y-95570206D01*
X165956930Y-95617825D01*
X165814072Y-95617825D01*
X165623596Y-95570206D01*
X165528358Y-95522587D01*
X165433120Y-95427349D01*
X165385501Y-95284491D01*
X165385501Y-95189253D01*
X165433120Y-95046396D01*
X165480739Y-94998777D01*
X166385501Y-94046396D02*
X166385501Y-94617825D01*
X166385501Y-94332111D02*
X165385501Y-94332111D01*
X165528358Y-94427349D01*
X165623596Y-94522587D01*
X165671215Y-94617825D01*
X165385501Y-93713063D02*
X165385501Y-93094015D01*
X165766453Y-93427349D01*
X165766453Y-93284491D01*
X165814072Y-93189253D01*
X165861691Y-93141634D01*
X165956930Y-93094015D01*
X166195025Y-93094015D01*
X166290263Y-93141634D01*
X166337882Y-93189253D01*
X166385501Y-93284491D01*
X166385501Y-93570206D01*
X166337882Y-93665444D01*
X166290263Y-93713063D01*
X159321263Y-93316063D02*
X159273644Y-93363682D01*
X159130787Y-93411301D01*
X159035549Y-93411301D01*
X158892691Y-93363682D01*
X158797453Y-93268444D01*
X158749834Y-93173206D01*
X158702215Y-92982730D01*
X158702215Y-92839872D01*
X158749834Y-92649396D01*
X158797453Y-92554158D01*
X158892691Y-92458920D01*
X159035549Y-92411301D01*
X159130787Y-92411301D01*
X159273644Y-92458920D01*
X159321263Y-92506539D01*
X160273644Y-93411301D02*
X159702215Y-93411301D01*
X159987929Y-93411301D02*
X159987929Y-92411301D01*
X159892691Y-92554158D01*
X159797453Y-92649396D01*
X159702215Y-92697015D01*
X160654596Y-92506539D02*
X160702215Y-92458920D01*
X160797453Y-92411301D01*
X161035549Y-92411301D01*
X161130787Y-92458920D01*
X161178406Y-92506539D01*
X161226025Y-92601777D01*
X161226025Y-92697015D01*
X161178406Y-92839872D01*
X160606977Y-93411301D01*
X161226025Y-93411301D01*
X159448263Y-95602063D02*
X159400644Y-95649682D01*
X159257787Y-95697301D01*
X159162549Y-95697301D01*
X159019691Y-95649682D01*
X158924453Y-95554444D01*
X158876834Y-95459206D01*
X158829215Y-95268730D01*
X158829215Y-95125872D01*
X158876834Y-94935396D01*
X158924453Y-94840158D01*
X159019691Y-94744920D01*
X159162549Y-94697301D01*
X159257787Y-94697301D01*
X159400644Y-94744920D01*
X159448263Y-94792539D01*
X160400644Y-95697301D02*
X159829215Y-95697301D01*
X160114929Y-95697301D02*
X160114929Y-94697301D01*
X160019691Y-94840158D01*
X159924453Y-94935396D01*
X159829215Y-94983015D01*
X161353025Y-95697301D02*
X160781596Y-95697301D01*
X161067310Y-95697301D02*
X161067310Y-94697301D01*
X160972072Y-94840158D01*
X160876834Y-94935396D01*
X160781596Y-94983015D01*
X145788143Y-86717143D02*
X145740524Y-86764762D01*
X145597667Y-86812381D01*
X145502429Y-86812381D01*
X145359571Y-86764762D01*
X145264333Y-86669524D01*
X145216714Y-86574286D01*
X145169095Y-86383810D01*
X145169095Y-86240952D01*
X145216714Y-86050476D01*
X145264333Y-85955238D01*
X145359571Y-85860000D01*
X145502429Y-85812381D01*
X145597667Y-85812381D01*
X145740524Y-85860000D01*
X145788143Y-85907619D01*
X146740524Y-86812381D02*
X146169095Y-86812381D01*
X146454809Y-86812381D02*
X146454809Y-85812381D01*
X146359571Y-85955238D01*
X146264333Y-86050476D01*
X146169095Y-86098095D01*
X147359571Y-85812381D02*
X147454810Y-85812381D01*
X147550048Y-85860000D01*
X147597667Y-85907619D01*
X147645286Y-86002857D01*
X147692905Y-86193333D01*
X147692905Y-86431429D01*
X147645286Y-86621905D01*
X147597667Y-86717143D01*
X147550048Y-86764762D01*
X147454810Y-86812381D01*
X147359571Y-86812381D01*
X147264333Y-86764762D01*
X147216714Y-86717143D01*
X147169095Y-86621905D01*
X147121476Y-86431429D01*
X147121476Y-86193333D01*
X147169095Y-86002857D01*
X147216714Y-85907619D01*
X147264333Y-85860000D01*
X147359571Y-85812381D01*
X165045214Y-85960223D02*
X164997595Y-86007842D01*
X164854738Y-86055461D01*
X164759500Y-86055461D01*
X164616642Y-86007842D01*
X164521404Y-85912604D01*
X164473785Y-85817366D01*
X164426166Y-85626890D01*
X164426166Y-85484032D01*
X164473785Y-85293556D01*
X164521404Y-85198318D01*
X164616642Y-85103080D01*
X164759500Y-85055461D01*
X164854738Y-85055461D01*
X164997595Y-85103080D01*
X165045214Y-85150699D01*
X165521404Y-86055461D02*
X165711880Y-86055461D01*
X165807119Y-86007842D01*
X165854738Y-85960223D01*
X165949976Y-85817366D01*
X165997595Y-85626890D01*
X165997595Y-85245937D01*
X165949976Y-85150699D01*
X165902357Y-85103080D01*
X165807119Y-85055461D01*
X165616642Y-85055461D01*
X165521404Y-85103080D01*
X165473785Y-85150699D01*
X165426166Y-85245937D01*
X165426166Y-85484032D01*
X165473785Y-85579270D01*
X165521404Y-85626890D01*
X165616642Y-85674509D01*
X165807119Y-85674509D01*
X165902357Y-85626890D01*
X165949976Y-85579270D01*
X165997595Y-85484032D01*
X155585208Y-85537349D02*
X156347113Y-85537349D01*
X155966161Y-85918301D02*
X155966161Y-85156396D01*
X164171334Y-106656143D02*
X164123715Y-106703762D01*
X163980858Y-106751381D01*
X163885620Y-106751381D01*
X163742762Y-106703762D01*
X163647524Y-106608524D01*
X163599905Y-106513286D01*
X163552286Y-106322810D01*
X163552286Y-106179952D01*
X163599905Y-105989476D01*
X163647524Y-105894238D01*
X163742762Y-105799000D01*
X163885620Y-105751381D01*
X163980858Y-105751381D01*
X164123715Y-105799000D01*
X164171334Y-105846619D01*
X164742762Y-106179952D02*
X164647524Y-106132333D01*
X164599905Y-106084714D01*
X164552286Y-105989476D01*
X164552286Y-105941857D01*
X164599905Y-105846619D01*
X164647524Y-105799000D01*
X164742762Y-105751381D01*
X164933239Y-105751381D01*
X165028477Y-105799000D01*
X165076096Y-105846619D01*
X165123715Y-105941857D01*
X165123715Y-105989476D01*
X165076096Y-106084714D01*
X165028477Y-106132333D01*
X164933239Y-106179952D01*
X164742762Y-106179952D01*
X164647524Y-106227571D01*
X164599905Y-106275190D01*
X164552286Y-106370429D01*
X164552286Y-106560905D01*
X164599905Y-106656143D01*
X164647524Y-106703762D01*
X164742762Y-106751381D01*
X164933239Y-106751381D01*
X165028477Y-106703762D01*
X165076096Y-106656143D01*
X165123715Y-106560905D01*
X165123715Y-106370429D01*
X165076096Y-106275190D01*
X165028477Y-106227571D01*
X164933239Y-106179952D01*
X164419589Y-97236232D02*
X164419589Y-96474327D01*
X164800541Y-96855279D02*
X164038636Y-96855279D01*
X143775134Y-78175203D02*
X143727515Y-78222822D01*
X143584658Y-78270441D01*
X143489420Y-78270441D01*
X143346562Y-78222822D01*
X143251324Y-78127584D01*
X143203705Y-78032346D01*
X143156086Y-77841870D01*
X143156086Y-77699012D01*
X143203705Y-77508536D01*
X143251324Y-77413298D01*
X143346562Y-77318060D01*
X143489420Y-77270441D01*
X143584658Y-77270441D01*
X143727515Y-77318060D01*
X143775134Y-77365679D01*
X144108467Y-77270441D02*
X144775134Y-77270441D01*
X144346562Y-78270441D01*
X152525434Y-66696863D02*
X152477815Y-66744482D01*
X152334958Y-66792101D01*
X152239720Y-66792101D01*
X152096862Y-66744482D01*
X152001624Y-66649244D01*
X151954005Y-66554006D01*
X151906386Y-66363530D01*
X151906386Y-66220672D01*
X151954005Y-66030196D01*
X152001624Y-65934958D01*
X152096862Y-65839720D01*
X152239720Y-65792101D01*
X152334958Y-65792101D01*
X152477815Y-65839720D01*
X152525434Y-65887339D01*
X153382577Y-65792101D02*
X153192100Y-65792101D01*
X153096862Y-65839720D01*
X153049243Y-65887339D01*
X152954005Y-66030196D01*
X152906386Y-66220672D01*
X152906386Y-66601625D01*
X152954005Y-66696863D01*
X153001624Y-66744482D01*
X153096862Y-66792101D01*
X153287339Y-66792101D01*
X153382577Y-66744482D01*
X153430196Y-66696863D01*
X153477815Y-66601625D01*
X153477815Y-66363530D01*
X153430196Y-66268291D01*
X153382577Y-66220672D01*
X153287339Y-66173053D01*
X153096862Y-66173053D01*
X153001624Y-66220672D01*
X152954005Y-66268291D01*
X152906386Y-66363530D01*
X150809529Y-73927672D02*
X150809529Y-73165767D01*
X150709529Y-69727672D02*
X150709529Y-68965767D01*
X151090481Y-69346719D02*
X150328576Y-69346719D01*
X109307334Y-53062143D02*
X109259715Y-53109762D01*
X109116858Y-53157381D01*
X109021620Y-53157381D01*
X108878762Y-53109762D01*
X108783524Y-53014524D01*
X108735905Y-52919286D01*
X108688286Y-52728810D01*
X108688286Y-52585952D01*
X108735905Y-52395476D01*
X108783524Y-52300238D01*
X108878762Y-52205000D01*
X109021620Y-52157381D01*
X109116858Y-52157381D01*
X109259715Y-52205000D01*
X109307334Y-52252619D01*
X110212096Y-52157381D02*
X109735905Y-52157381D01*
X109688286Y-52633571D01*
X109735905Y-52585952D01*
X109831143Y-52538333D01*
X110069239Y-52538333D01*
X110164477Y-52585952D01*
X110212096Y-52633571D01*
X110259715Y-52728810D01*
X110259715Y-52966905D01*
X110212096Y-53062143D01*
X110164477Y-53109762D01*
X110069239Y-53157381D01*
X109831143Y-53157381D01*
X109735905Y-53109762D01*
X109688286Y-53062143D01*
X144689534Y-66549543D02*
X144641915Y-66597162D01*
X144499058Y-66644781D01*
X144403820Y-66644781D01*
X144260962Y-66597162D01*
X144165724Y-66501924D01*
X144118105Y-66406686D01*
X144070486Y-66216210D01*
X144070486Y-66073352D01*
X144118105Y-65882876D01*
X144165724Y-65787638D01*
X144260962Y-65692400D01*
X144403820Y-65644781D01*
X144499058Y-65644781D01*
X144641915Y-65692400D01*
X144689534Y-65740019D01*
X145546677Y-65978114D02*
X145546677Y-66644781D01*
X145308581Y-65597162D02*
X145070486Y-66311448D01*
X145689534Y-66311448D01*
X131989534Y-71375543D02*
X131941915Y-71423162D01*
X131799058Y-71470781D01*
X131703820Y-71470781D01*
X131560962Y-71423162D01*
X131465724Y-71327924D01*
X131418105Y-71232686D01*
X131370486Y-71042210D01*
X131370486Y-70899352D01*
X131418105Y-70708876D01*
X131465724Y-70613638D01*
X131560962Y-70518400D01*
X131703820Y-70470781D01*
X131799058Y-70470781D01*
X131941915Y-70518400D01*
X131989534Y-70566019D01*
X132322867Y-70470781D02*
X132941915Y-70470781D01*
X132608581Y-70851733D01*
X132751439Y-70851733D01*
X132846677Y-70899352D01*
X132894296Y-70946971D01*
X132941915Y-71042210D01*
X132941915Y-71280305D01*
X132894296Y-71375543D01*
X132846677Y-71423162D01*
X132751439Y-71470781D01*
X132465724Y-71470781D01*
X132370486Y-71423162D01*
X132322867Y-71375543D01*
X131989534Y-67819543D02*
X131941915Y-67867162D01*
X131799058Y-67914781D01*
X131703820Y-67914781D01*
X131560962Y-67867162D01*
X131465724Y-67771924D01*
X131418105Y-67676686D01*
X131370486Y-67486210D01*
X131370486Y-67343352D01*
X131418105Y-67152876D01*
X131465724Y-67057638D01*
X131560962Y-66962400D01*
X131703820Y-66914781D01*
X131799058Y-66914781D01*
X131941915Y-66962400D01*
X131989534Y-67010019D01*
X132370486Y-67010019D02*
X132418105Y-66962400D01*
X132513343Y-66914781D01*
X132751439Y-66914781D01*
X132846677Y-66962400D01*
X132894296Y-67010019D01*
X132941915Y-67105257D01*
X132941915Y-67200495D01*
X132894296Y-67343352D01*
X132322867Y-67914781D01*
X132941915Y-67914781D01*
X109180334Y-56745143D02*
X109132715Y-56792762D01*
X108989858Y-56840381D01*
X108894620Y-56840381D01*
X108751762Y-56792762D01*
X108656524Y-56697524D01*
X108608905Y-56602286D01*
X108561286Y-56411810D01*
X108561286Y-56268952D01*
X108608905Y-56078476D01*
X108656524Y-55983238D01*
X108751762Y-55888000D01*
X108894620Y-55840381D01*
X108989858Y-55840381D01*
X109132715Y-55888000D01*
X109180334Y-55935619D01*
X110132715Y-56840381D02*
X109561286Y-56840381D01*
X109847000Y-56840381D02*
X109847000Y-55840381D01*
X109751762Y-55983238D01*
X109656524Y-56078476D01*
X109561286Y-56126095D01*
X123547286Y-63555571D02*
X123690143Y-63603190D01*
X123737762Y-63650810D01*
X123785381Y-63746048D01*
X123785381Y-63888905D01*
X123737762Y-63984143D01*
X123690143Y-64031762D01*
X123594905Y-64079381D01*
X123213952Y-64079381D01*
X123213952Y-63079381D01*
X123547286Y-63079381D01*
X123642524Y-63127000D01*
X123690143Y-63174619D01*
X123737762Y-63269857D01*
X123737762Y-63365095D01*
X123690143Y-63460333D01*
X123642524Y-63507952D01*
X123547286Y-63555571D01*
X123213952Y-63555571D01*
X124071095Y-63079381D02*
X124642524Y-63079381D01*
X124356809Y-64079381D02*
X124356809Y-63079381D01*
X125499667Y-64079381D02*
X124928238Y-64079381D01*
X125213952Y-64079381D02*
X125213952Y-63079381D01*
X125118714Y-63222238D01*
X125023476Y-63317476D01*
X124928238Y-63365095D01*
X141300295Y-66663781D02*
X141300295Y-67473305D01*
X141347914Y-67568543D01*
X141395533Y-67616162D01*
X141490771Y-67663781D01*
X141681248Y-67663781D01*
X141776486Y-67616162D01*
X141824105Y-67568543D01*
X141871724Y-67473305D01*
X141871724Y-66663781D01*
X142871724Y-67663781D02*
X142300295Y-67663781D01*
X142586009Y-67663781D02*
X142586009Y-66663781D01*
X142490771Y-66806638D01*
X142395533Y-66901876D01*
X142300295Y-66949495D01*
X173628231Y-64089102D02*
X172128231Y-64089102D01*
X172128231Y-63517674D01*
X172199660Y-63374816D01*
X172271089Y-63303388D01*
X172413946Y-63231959D01*
X172628231Y-63231959D01*
X172771089Y-63303388D01*
X172842517Y-63374816D01*
X172913946Y-63517674D01*
X172913946Y-64089102D01*
X172128231Y-61874816D02*
X172128231Y-62589102D01*
X172842517Y-62660531D01*
X172771089Y-62589102D01*
X172699660Y-62446245D01*
X172699660Y-62089102D01*
X172771089Y-61946245D01*
X172842517Y-61874816D01*
X172985374Y-61803388D01*
X173342517Y-61803388D01*
X173485374Y-61874816D01*
X173556803Y-61946245D01*
X173628231Y-62089102D01*
X173628231Y-62446245D01*
X173556803Y-62589102D01*
X173485374Y-62660531D01*
X107067951Y-96547582D02*
X105567951Y-96547582D01*
X105567951Y-95976154D01*
X105639380Y-95833296D01*
X105710809Y-95761868D01*
X105853666Y-95690439D01*
X106067951Y-95690439D01*
X106210809Y-95761868D01*
X106282237Y-95833296D01*
X106353666Y-95976154D01*
X106353666Y-96547582D01*
X106067951Y-94404725D02*
X107067951Y-94404725D01*
X105496523Y-94761868D02*
X106567951Y-95119011D01*
X106567951Y-94190439D01*
X127182975Y-63744741D02*
X127182975Y-64554265D01*
X127230594Y-64649503D01*
X127278213Y-64697122D01*
X127373451Y-64744741D01*
X127563928Y-64744741D01*
X127659166Y-64697122D01*
X127706785Y-64649503D01*
X127754404Y-64554265D01*
X127754404Y-63744741D01*
X128182975Y-63839979D02*
X128230594Y-63792360D01*
X128325832Y-63744741D01*
X128563928Y-63744741D01*
X128659166Y-63792360D01*
X128706785Y-63839979D01*
X128754404Y-63935217D01*
X128754404Y-64030455D01*
X128706785Y-64173312D01*
X128135356Y-64744741D01*
X128754404Y-64744741D01*
X140999650Y-76997941D02*
X140999650Y-75997941D01*
X142047269Y-76902703D02*
X141999650Y-76950322D01*
X141856793Y-76997941D01*
X141761555Y-76997941D01*
X141618697Y-76950322D01*
X141523459Y-76855084D01*
X141475840Y-76759846D01*
X141428221Y-76569370D01*
X141428221Y-76426512D01*
X141475840Y-76236036D01*
X141523459Y-76140798D01*
X141618697Y-76045560D01*
X141761555Y-75997941D01*
X141856793Y-75997941D01*
X141999650Y-76045560D01*
X142047269Y-76093179D01*
X142999650Y-76997941D02*
X142428221Y-76997941D01*
X142713935Y-76997941D02*
X142713935Y-75997941D01*
X142618697Y-76140798D01*
X142523459Y-76236036D01*
X142428221Y-76283655D01*
X137710160Y-65867363D02*
X137924446Y-65938791D01*
X138281589Y-65938791D01*
X138424446Y-65867363D01*
X138495875Y-65795934D01*
X138567303Y-65653077D01*
X138567303Y-65510220D01*
X138495875Y-65367363D01*
X138424446Y-65295934D01*
X138281589Y-65224506D01*
X137995875Y-65153077D01*
X137853017Y-65081649D01*
X137781589Y-65010220D01*
X137710160Y-64867363D01*
X137710160Y-64724506D01*
X137781589Y-64581649D01*
X137853017Y-64510220D01*
X137995875Y-64438791D01*
X138353017Y-64438791D01*
X138567303Y-64510220D01*
X139067303Y-64438791D02*
X139424446Y-65938791D01*
X139710160Y-64867363D01*
X139995874Y-65938791D01*
X140353017Y-64438791D01*
X141710160Y-65938791D02*
X140853017Y-65938791D01*
X141281589Y-65938791D02*
X141281589Y-64438791D01*
X141138732Y-64653077D01*
X140995874Y-64795934D01*
X140853017Y-64867363D01*
M02*
