G04 #@! TF.FileFunction,Soldermask,Top*
%FSLAX46Y46*%
G04 Gerber Fmt 4.6, Leading zero omitted, Abs format (unit mm)*
G04 Created by KiCad (PCBNEW 4.1.0-alpha+201607200716+6988~46~ubuntu16.04.1-product) date Thu Jul 21 11:47:31 2016*
%MOMM*%
%LPD*%
G01*
G04 APERTURE LIST*
%ADD10C,0.100000*%
%ADD11R,2.400000X1.500000*%
%ADD12R,1.400000X0.800000*%
%ADD13R,3.400000X4.400000*%
%ADD14R,0.900000X1.300000*%
%ADD15R,1.300000X0.900000*%
%ADD16R,0.999440X1.400760*%
%ADD17R,2.432000X2.432000*%
%ADD18O,2.432000X2.432000*%
%ADD19R,2.127200X2.127200*%
%ADD20O,2.127200X2.127200*%
%ADD21R,2.432000X2.127200*%
%ADD22O,2.432000X2.127200*%
%ADD23C,1.400000*%
%ADD24R,2.900000X3.400000*%
%ADD25R,1.950000X1.000000*%
%ADD26R,0.990000X0.850000*%
%ADD27R,2.200860X2.899360*%
%ADD28R,2.899360X2.200860*%
%ADD29R,1.197560X1.400000*%
%ADD30C,3.900000*%
%ADD31R,2.200860X3.150820*%
%ADD32R,1.200000X1.150000*%
%ADD33R,3.150820X2.200860*%
%ADD34C,2.305000*%
%ADD35R,1.150000X1.200000*%
%ADD36R,6.900000X4.400000*%
%ADD37C,14.400000*%
%ADD38C,3.600000*%
%ADD39R,2.100000X1.050000*%
G04 APERTURE END LIST*
D10*
D11*
X133985000Y-64671000D03*
X133985000Y-68171000D03*
D12*
X151714000Y-91055000D03*
X151714000Y-91705000D03*
X151714000Y-92355000D03*
X151714000Y-93005000D03*
X151714000Y-93655000D03*
X151714000Y-94305000D03*
X151714000Y-94955000D03*
X151714000Y-95605000D03*
X151714000Y-96255000D03*
X151714000Y-96905000D03*
X157514000Y-96905000D03*
X157514000Y-96255000D03*
X157514000Y-95605000D03*
X157514000Y-94955000D03*
X157514000Y-94305000D03*
X157514000Y-93655000D03*
X157514000Y-93005000D03*
X157514000Y-92355000D03*
X157514000Y-91705000D03*
X157514000Y-91055000D03*
D13*
X154614000Y-93980000D03*
D14*
X146570000Y-91186000D03*
X148070000Y-91186000D03*
X168668000Y-97790000D03*
X170168000Y-97790000D03*
X169025000Y-84963000D03*
X167525000Y-84963000D03*
X167525000Y-94742000D03*
X169025000Y-94742000D03*
X169025000Y-92329000D03*
X167525000Y-92329000D03*
X167525000Y-87630000D03*
X169025000Y-87630000D03*
X167525000Y-80137000D03*
X169025000Y-80137000D03*
X167525000Y-82550000D03*
X169025000Y-82550000D03*
X162318000Y-86360000D03*
X163818000Y-86360000D03*
X156222000Y-87122000D03*
X157722000Y-87122000D03*
D15*
X159583000Y-71743000D03*
X159583000Y-70243000D03*
X135199000Y-81649000D03*
X135199000Y-80149000D03*
X162123000Y-67933000D03*
X162123000Y-66433000D03*
X133532000Y-90412000D03*
X133532000Y-88912000D03*
X130484000Y-90412000D03*
X130484000Y-88912000D03*
X159710000Y-78855000D03*
X159710000Y-77355000D03*
X162250000Y-75045000D03*
X162250000Y-73545000D03*
X159583000Y-64758000D03*
X159583000Y-63258000D03*
X156154000Y-73799000D03*
X156154000Y-75299000D03*
X156154000Y-78601000D03*
X156154000Y-77101000D03*
X162123000Y-60948000D03*
X162123000Y-59448000D03*
X153360000Y-75299000D03*
X153360000Y-73799000D03*
D14*
X132854000Y-60325000D03*
X134354000Y-60325000D03*
D16*
X161472760Y-69789040D03*
X162773240Y-69789040D03*
X162123000Y-71688960D03*
X161599760Y-76901040D03*
X162900240Y-76901040D03*
X162250000Y-78800960D03*
X161218760Y-62804040D03*
X162519240Y-62804040D03*
X161869000Y-64703960D03*
X152709760Y-76901040D03*
X154010240Y-76901040D03*
X153360000Y-78800960D03*
D17*
X168148000Y-73406000D03*
D18*
X168148000Y-75946000D03*
D19*
X115062000Y-55880000D03*
D20*
X115062000Y-53340000D03*
X117602000Y-55880000D03*
X117602000Y-53340000D03*
X120142000Y-55880000D03*
X120142000Y-53340000D03*
X122682000Y-55880000D03*
X122682000Y-53340000D03*
X125222000Y-55880000D03*
X125222000Y-53340000D03*
X127762000Y-55880000D03*
X127762000Y-53340000D03*
X130302000Y-55880000D03*
X130302000Y-53340000D03*
X132842000Y-55880000D03*
X132842000Y-53340000D03*
X135382000Y-55880000D03*
X135382000Y-53340000D03*
X137922000Y-55880000D03*
X137922000Y-53340000D03*
X140462000Y-55880000D03*
X140462000Y-53340000D03*
X143002000Y-55880000D03*
X143002000Y-53340000D03*
X145542000Y-55880000D03*
X145542000Y-53340000D03*
X148082000Y-55880000D03*
X148082000Y-53340000D03*
X150622000Y-55880000D03*
X150622000Y-53340000D03*
X153162000Y-55880000D03*
X153162000Y-53340000D03*
X155702000Y-55880000D03*
X155702000Y-53340000D03*
X158242000Y-55880000D03*
X158242000Y-53340000D03*
X160782000Y-55880000D03*
X160782000Y-53340000D03*
X163322000Y-55880000D03*
X163322000Y-53340000D03*
D21*
X168148000Y-60706000D03*
D22*
X168148000Y-63246000D03*
X168148000Y-65786000D03*
X168148000Y-68326000D03*
D23*
X137541000Y-60452000D03*
D24*
X140898000Y-102876000D03*
X140898000Y-97276000D03*
X140898000Y-92462000D03*
X140898000Y-86862000D03*
D17*
X135199000Y-74041000D03*
D18*
X135199000Y-76581000D03*
D25*
X141389000Y-74168000D03*
X141389000Y-75438000D03*
X141389000Y-76708000D03*
X141389000Y-77978000D03*
X146789000Y-77978000D03*
X146789000Y-76708000D03*
X146789000Y-75438000D03*
X146789000Y-74168000D03*
D26*
X158535000Y-102108000D03*
X156425000Y-102108000D03*
D27*
X152908000Y-100363020D03*
X152908000Y-104360980D03*
D28*
X147861020Y-83566000D03*
X151858980Y-83566000D03*
D26*
X153709000Y-87122000D03*
X151599000Y-87122000D03*
D29*
X159583000Y-67932300D03*
X159583000Y-66433700D03*
X159710000Y-75044300D03*
X159710000Y-73545700D03*
X159583000Y-60947300D03*
X159583000Y-59448700D03*
D30*
X132714000Y-97840000D03*
X127714000Y-97840000D03*
X122714000Y-97840000D03*
X117714000Y-97840000D03*
D31*
X147066000Y-102953820D03*
X147066000Y-97706180D03*
D32*
X146570000Y-94234000D03*
X148070000Y-94234000D03*
X165112000Y-97790000D03*
X166612000Y-97790000D03*
X162318000Y-95758000D03*
X163818000Y-95758000D03*
X162318000Y-93218000D03*
X163818000Y-93218000D03*
X167335000Y-89916000D03*
X168835000Y-89916000D03*
X162318000Y-88646000D03*
X163818000Y-88646000D03*
X162318000Y-90932000D03*
X163818000Y-90932000D03*
X148070000Y-87884000D03*
X146570000Y-87884000D03*
D33*
X162841820Y-83058000D03*
X157594180Y-83058000D03*
D31*
X161798000Y-104477820D03*
X161798000Y-99230180D03*
D32*
X144839000Y-72009000D03*
X143339000Y-72009000D03*
D34*
X151511000Y-69175000D03*
X151511000Y-64175000D03*
D35*
X111506000Y-53328000D03*
X111506000Y-51828000D03*
D32*
X139839000Y-62357000D03*
X141339000Y-62357000D03*
X131433000Y-68199000D03*
X129933000Y-68199000D03*
X131433000Y-64643000D03*
X129933000Y-64643000D03*
D35*
X111506000Y-55384000D03*
X111506000Y-56884000D03*
D36*
X117094000Y-63454000D03*
X117094000Y-89454000D03*
D37*
X117094000Y-76454000D03*
D38*
X110236000Y-103632000D03*
X168148000Y-103632000D03*
D39*
X136939000Y-64516000D03*
X136939000Y-65786000D03*
X136939000Y-67056000D03*
X136939000Y-68326000D03*
X144239000Y-68326000D03*
X144239000Y-67056000D03*
X144239000Y-65786000D03*
X144239000Y-64516000D03*
D14*
X157849000Y-99695000D03*
X156349000Y-99695000D03*
M02*
