*%FSLAX24Y24*%
*%MOIN*%
G01*
%ADD11C,0.0010*%
%ADD12C,0.0020*%
%ADD13C,0.0039*%
%ADD14C,0.0073*%
%ADD15C,0.0079*%
%ADD16C,0.0100*%
%ADD17O,0.0110X0.0394*%
%ADD18C,0.0118*%
%ADD19C,0.0120*%
%ADD20O,0.0150X0.0434*%
%ADD21C,0.0197*%
%ADD22C,0.0295*%
%ADD23C,0.0295*%
%ADD24C,0.0300*%
%ADD25C,0.0340*%
%ADD26C,0.0350*%
%ADD27C,0.0354*%
%ADD28C,0.0394*%
%ADD29O,0.0394X0.0110*%
%ADD30C,0.0394*%
%ADD31C,0.0394*%
%ADD32C,0.0400*%
%ADD33O,0.0434X0.0150*%
%ADD34C,0.0440*%
%ADD35C,0.0472*%
%ADD36C,0.0500*%
%ADD37C,0.0540*%
%ADD38C,0.0554*%
%ADD39C,0.0591*%
%ADD40C,0.0594*%
%ADD41C,0.0594*%
%ADD42C,0.0600*%
%ADD43C,0.0631*%
%ADD44C,0.0672*%
%ADD45C,0.1000*%
%ADD46C,0.1040*%
%ADD47C,0.1063*%
%ADD48C,0.1263*%
%ADD49R,0.0020X0.0020*%
%ADD50R,0.0059X0.0059*%
%ADD51R,0.0098X0.0315*%
%ADD52R,0.0100X0.0100*%
%ADD53R,0.0110X0.0299*%
%ADD54R,0.0138X0.0500*%
%ADD55R,0.0138X0.0355*%
%ADD56R,0.0150X0.0339*%
%ADD57R,0.0157X0.0079*%
%ADD58R,0.0178X0.0540*%
%ADD59R,0.0197X0.0119*%
%ADD60R,0.0200X0.0200*%
%ADD61R,0.0200X0.0250*%
%ADD62R,0.0200X0.0287*%
%ADD63R,0.0240X0.0290*%
%ADD64R,0.0240X0.0327*%
%ADD65R,0.0250X0.0200*%
%ADD66R,0.0287X0.0200*%
%ADD67R,0.0290X0.0240*%
%ADD68R,0.0299X0.0110*%
%ADD69R,0.0300X0.0300*%
%ADD70R,0.0300X0.0300*%
%ADD71R,0.0315X0.0098*%
%ADD72R,0.0327X0.0240*%
%ADD73R,0.0339X0.0150*%
%ADD74R,0.0340X0.0340*%
%ADD75R,0.0355X0.0138*%
%ADD76R,0.0360X0.0360*%
%ADD77R,0.0360X0.0500*%
%ADD78R,0.0400X0.0400*%
%ADD79R,0.0400X0.0400*%
%ADD80R,0.0400X0.0540*%
%ADD81R,0.0472X0.0433*%
%ADD82R,0.0500X0.0500*%
%ADD83R,0.0500X0.0500*%
%ADD84R,0.0500X0.0600*%
%ADD85R,0.0512X0.0473*%
%ADD86R,0.0540X0.0540*%
%ADD87R,0.0540X0.0640*%
%ADD88R,0.0591X0.0591*%
%ADD89R,0.0600X0.0500*%
%ADD90R,0.0600X0.0600*%
%ADD91R,0.0600X0.0600*%
%ADD92R,0.0631X0.0631*%
%ADD93R,0.0640X0.0540*%
%ADD94R,0.0640X0.0640*%
%ADD95R,0.0700X0.0700*%
%ADD96R,0.0787X0.0472*%
%ADD97R,0.0800X0.0800*%
%ADD98R,0.0827X0.0512*%
%ADD99R,0.0900X0.0900*%
%ADD100R,0.1000X0.1000*%
%ADD101R,0.1000X0.1000*%
%ADD102R,0.1024X0.1024*%
%ADD103R,0.1040X0.1040*%
%ADD104R,0.1100X0.1100*%
%ADD105R,0.1200X0.1200*%
%ADD106R,0.1339X0.1358*%
%ADD107R,0.1400X0.1400*%
%ADD108R,0.1500X0.1500*%
%ADD109R,0.1800X0.1800*%
%ADD110R,0.2200X0.2200*%
%ADD111R,0.2300X0.2300*%
G54D11*
X96019Y86388D02*
X96319D01*
X96169Y86238D02*
Y86538D01*
X90610Y77204D02*
X90310D01*
X90460Y77054D02*
Y77354D01*
X92328Y75551D02*
X92528D01*
X92428Y75451D02*
Y75651D01*
X92703Y75551D02*
X92903D01*
X92803Y75451D02*
Y75651D01*
X92988Y76486D02*
X93188D01*
X93088Y76386D02*
Y76586D01*
X92509Y76565D02*
X92309D01*
X92409Y76465D02*
Y76665D01*
X92643Y77037D02*
X92843D01*
X92743Y76937D02*
Y77137D01*
X91790Y77510D02*
X91590D01*
X91690Y77410D02*
Y77610D01*
X92014Y78907D02*
X92214D01*
X92114Y78807D02*
Y79007D01*
X92319Y80610D02*
X92519D01*
X92419Y80510D02*
Y80710D01*
X92565Y82017D02*
X92765D01*
X92665Y81917D02*
Y82117D01*
X92627Y83248D02*
X92427D01*
X92527Y83148D02*
Y83348D01*
X91899Y83258D02*
X91699D01*
X91799Y83158D02*
Y83358D01*
X90304Y83494D02*
X90104D01*
X90204Y83394D02*
Y83594D01*
X90225Y82382D02*
X90025D01*
X90125Y82282D02*
Y82482D01*
X90380Y82017D02*
X90580D01*
X90480Y81917D02*
Y82117D01*
X91433Y81663D02*
X91633D01*
X91533Y81563D02*
Y81763D01*
X90265Y80088D02*
X90065D01*
X90165Y79988D02*
Y80188D01*
X94602Y79704D02*
X94802D01*
X94702Y79604D02*
Y79804D01*
X94779Y80945D02*
X94979D01*
X94879Y80845D02*
Y81045D01*
X95075Y81545D02*
X95275D01*
X95175Y81445D02*
Y81645D01*
X94851Y81949D02*
X94651D01*
X94751Y81849D02*
Y82049D01*
X94546Y82805D02*
X94346D01*
X94446Y82705D02*
Y82905D01*
X94376Y83218D02*
X94576D01*
X94476Y83118D02*
Y83318D01*
X94681Y83543D02*
X94881D01*
X94781Y83443D02*
Y83643D01*
X94947Y84025D02*
X95147D01*
X95047Y83925D02*
Y84125D01*
X95137Y84921D02*
X94937D01*
X95037Y84821D02*
Y85021D01*
X94733Y85364D02*
X94533D01*
X94633Y85264D02*
Y85464D01*
X94231Y85374D02*
X94031D01*
X94131Y85274D02*
Y85474D01*
X93139Y85157D02*
X92939D01*
X93039Y85057D02*
Y85257D01*
X93027Y83996D02*
X93227D01*
X93127Y83896D02*
Y84096D01*
X94041Y83671D02*
X94241D01*
X94141Y83571D02*
Y83771D01*
X96187Y84409D02*
X96387D01*
X96287Y84309D02*
Y84509D01*
X96023Y84793D02*
X95823D01*
X95923Y84693D02*
Y84893D01*
X96561Y85216D02*
X96761D01*
X96661Y85116D02*
Y85316D01*
X96456Y80836D02*
X96256D01*
X96356Y80736D02*
Y80936D01*
X96590Y79734D02*
X96790D01*
X96690Y79634D02*
Y79834D01*
X95698Y78071D02*
X95498D01*
X95598Y77971D02*
Y78171D01*
X95147Y78327D02*
X94947D01*
X95047Y78227D02*
Y78427D01*
X94576Y78277D02*
X94376D01*
X94476Y78177D02*
Y78377D01*
X94497Y76998D02*
X94297D01*
X94397Y76898D02*
Y77098D01*
X94297Y76082D02*
X94497D01*
X94397Y75982D02*
Y76182D01*
X95439Y76073D02*
X95639D01*
X95539Y75973D02*
Y76173D01*
X90324Y85069D02*
X90124D01*
X90224Y84969D02*
Y85169D01*
X90124Y86201D02*
X90324D01*
X90224Y86101D02*
Y86301D01*
X96659Y84055D02*
X96859D01*
X96759Y83955D02*
Y84155D01*
X98401Y84114D02*
X98601D01*
X98501Y84014D02*
Y84214D01*
X98306Y84862D02*
X98106D01*
X98206Y84762D02*
Y84962D01*
X99366Y84488D02*
X99566D01*
X99466Y84388D02*
Y84588D01*
X99888Y84045D02*
X100088D01*
X99988Y83945D02*
Y84145D01*
X100704Y84075D02*
X100904D01*
X100804Y83975D02*
Y84175D01*
X100422Y83425D02*
X100222D01*
X100322Y83325D02*
Y83525D01*
X100596Y82815D02*
X100796D01*
X100696Y82715D02*
Y82915D01*
X100596Y82027D02*
X100796D01*
X100696Y81927D02*
Y82127D01*
X100314Y81752D02*
X100114D01*
X100214Y81652D02*
Y81852D01*
X100186Y82342D02*
X99986D01*
X100086Y82242D02*
Y82442D01*
X99910Y82815D02*
X99710D01*
X99810Y82715D02*
Y82915D01*
X99103Y82785D02*
X98903D01*
X99003Y82685D02*
Y82885D01*
X99218Y81870D02*
X99418D01*
X99318Y81770D02*
Y81970D01*
X98149Y81958D02*
X97949D01*
X98049Y81858D02*
Y82058D01*
X97834Y81545D02*
X97634D01*
X97734Y81445D02*
Y81645D01*
X97351Y81535D02*
X97151D01*
X97251Y81435D02*
Y81635D01*
X97722Y83031D02*
X97922D01*
X97822Y82931D02*
Y83131D01*
X97804Y79724D02*
X97604D01*
X97704Y79624D02*
Y79824D01*
X97765Y79183D02*
X97565D01*
X97665Y79083D02*
Y79283D01*
X97351Y78858D02*
X97151D01*
X97251Y78758D02*
Y78958D01*
X97958Y78523D02*
X98158D01*
X98058Y78423D02*
Y78623D01*
X98011Y78041D02*
X97811D01*
X97911Y77941D02*
Y78141D01*
X98204Y77303D02*
X98404D01*
X98304Y77203D02*
Y77403D01*
X98529Y77293D02*
X98729D01*
X98629Y77193D02*
Y77393D01*
X99021Y76673D02*
X99221D01*
X99121Y76573D02*
Y76773D01*
X99103Y76240D02*
X98903D01*
X99003Y76140D02*
Y76340D01*
X99503Y76785D02*
X99703D01*
X99603Y76685D02*
Y76885D01*
X100074Y76785D02*
X100274D01*
X100174Y76685D02*
Y76885D01*
X100891Y77316D02*
X101091D01*
X100991Y77216D02*
Y77416D01*
X101757Y77070D02*
X101957D01*
X101857Y76970D02*
Y77170D01*
X101757Y76352D02*
X101957D01*
X101857Y76252D02*
Y76452D01*
X102693Y76496D02*
X102893D01*
X102793Y76396D02*
Y76596D01*
X102873Y77037D02*
X102673D01*
X102773Y76937D02*
Y77137D01*
X103382Y76919D02*
X103582D01*
X103482Y76819D02*
Y77019D01*
X103382Y76240D02*
X103582D01*
X103482Y76140D02*
Y76340D01*
X104031Y76575D02*
X104231D01*
X104131Y76475D02*
Y76675D01*
X104090Y75964D02*
X104290D01*
X104190Y75864D02*
Y76064D01*
X104612Y76004D02*
X104812D01*
X104712Y75904D02*
Y76104D01*
X105035Y76260D02*
X105235D01*
X105135Y76160D02*
Y76360D01*
X105225Y76899D02*
X105025D01*
X105125Y76799D02*
Y76999D01*
X105360Y77165D02*
X105560D01*
X105460Y77065D02*
Y77265D01*
X105390Y77647D02*
X105590D01*
X105490Y77547D02*
Y77747D01*
X104714Y77667D02*
X104514D01*
X104614Y77567D02*
Y77767D01*
X104645Y76949D02*
X104445D01*
X104545Y76849D02*
Y77049D01*
X105380Y76614D02*
X105580D01*
X105480Y76514D02*
Y76714D01*
X105206Y78464D02*
X105006D01*
X105106Y78364D02*
Y78564D01*
X105340Y78917D02*
X105540D01*
X105440Y78817D02*
Y79017D01*
X105442Y79517D02*
X105242D01*
X105342Y79417D02*
Y79617D01*
X105314Y80098D02*
X105114D01*
X105214Y79998D02*
Y80198D01*
X104773Y79970D02*
X104573D01*
X104673Y79870D02*
Y80070D01*
X104612Y80417D02*
X104812D01*
X104712Y80317D02*
Y80517D01*
X104612Y81204D02*
X104812D01*
X104712Y81104D02*
Y81304D01*
X104408Y81525D02*
X104208D01*
X104308Y81425D02*
Y81625D01*
X104533Y82027D02*
X104733D01*
X104633Y81927D02*
Y82127D01*
X104533Y82815D02*
X104733D01*
X104633Y82715D02*
Y82915D01*
X103946Y82815D02*
X103746D01*
X103846Y82715D02*
Y82915D01*
X103158Y82815D02*
X102958D01*
X103058Y82715D02*
Y82915D01*
X102958Y82027D02*
X103158D01*
X103058Y81927D02*
Y82127D01*
X103746Y82027D02*
X103946D01*
X103846Y81927D02*
Y82127D01*
X102371Y82027D02*
X102171D01*
X102271Y81927D02*
Y82127D01*
X102171Y82815D02*
X102371D01*
X102271Y82715D02*
Y82915D01*
X101584Y82815D02*
X101384D01*
X101484Y82715D02*
Y82915D01*
X101384Y82027D02*
X101584D01*
X101484Y81927D02*
Y82127D01*
X101816Y80505D02*
X102016D01*
X101916Y80405D02*
Y80605D01*
X102496Y80541D02*
X102696D01*
X102596Y80441D02*
Y80641D01*
X103313Y80531D02*
X103513D01*
X103413Y80431D02*
Y80631D01*
X103460Y78976D02*
X103660D01*
X103560Y78876D02*
Y79076D01*
X102951Y78921D02*
X102751D01*
X102851Y78821D02*
Y79021D01*
X102784Y79295D02*
X102584D01*
X102684Y79195D02*
Y79395D01*
X104129Y79088D02*
X104329D01*
X104229Y78988D02*
Y79188D01*
X104064Y77986D02*
X103864D01*
X103964Y77886D02*
Y78086D01*
X103739Y77671D02*
X103539D01*
X103639Y77571D02*
Y77771D01*
X100894Y78556D02*
X100694D01*
X100794Y78456D02*
Y78656D01*
X100225Y78330D02*
X100025D01*
X100125Y78230D02*
Y78430D01*
X99084Y79035D02*
X98884D01*
X98984Y78935D02*
Y79135D01*
X98729Y80138D02*
X98529D01*
X98629Y80038D02*
Y80238D01*
X99297Y80564D02*
X99497D01*
X99397Y80464D02*
Y80664D01*
X100891Y80545D02*
X101091D01*
X100991Y80445D02*
Y80645D01*
X105242Y80856D02*
X105442D01*
X105342Y80756D02*
Y80956D01*
X105242Y81663D02*
X105442D01*
X105342Y81563D02*
Y81763D01*
X105393Y82460D02*
X105193D01*
X105293Y82360D02*
Y82560D01*
X107283Y82315D02*
X107483D01*
X107383Y82215D02*
Y82415D01*
X107283Y81528D02*
X107483D01*
X107383Y81428D02*
Y81628D01*
X107312Y81515D02*
X107512D01*
X107412Y81415D02*
Y81615D01*
X107483Y80740D02*
X107283D01*
X107383Y80640D02*
Y80840D01*
X107283Y79953D02*
X107483D01*
X107383Y79853D02*
Y80053D01*
X109645Y79953D02*
X109845D01*
X109745Y79853D02*
Y80053D01*
X109645Y80740D02*
X109845D01*
X109745Y80640D02*
Y80840D01*
X109645Y81528D02*
X109845D01*
X109745Y81428D02*
Y81628D01*
X109645Y82315D02*
X109845D01*
X109745Y82215D02*
Y82415D01*
X109645Y83102D02*
X109845D01*
X109745Y83002D02*
Y83202D01*
X109645Y83890D02*
X109845D01*
X109745Y83790D02*
Y83990D01*
X109645Y84677D02*
X109845D01*
X109745Y84577D02*
Y84777D01*
X109645Y85465D02*
X109845D01*
X109745Y85365D02*
Y85565D01*
X109645Y86252D02*
X109845D01*
X109745Y86152D02*
Y86352D01*
X107483Y86252D02*
X107283D01*
X107383Y86152D02*
Y86352D01*
X107283Y85465D02*
X107483D01*
X107383Y85365D02*
Y85565D01*
X107283Y84677D02*
X107483D01*
X107383Y84577D02*
Y84777D01*
X107283Y83890D02*
X107483D01*
X107383Y83790D02*
Y83990D01*
X107283Y83102D02*
X107483D01*
X107383Y83002D02*
Y83202D01*
X109645Y79165D02*
X109845D01*
X109745Y79065D02*
Y79265D01*
X96938Y76073D02*
X96738D01*
X96838Y75973D02*
Y76173D01*
X99051Y86132D02*
X99251D01*
X99151Y86032D02*
Y86232D01*
X99169Y75748D02*
X99369D01*
X99269Y75648D02*
Y75848D01*
X99103Y75285D02*
X98903D01*
X99003Y75185D02*
Y75385D01*
X99563Y75275D02*
X99763D01*
X99663Y75175D02*
Y75375D01*
X100458Y75275D02*
X100658D01*
X100558Y75175D02*
Y75375D01*
X100891Y75728D02*
X101091D01*
X100991Y75628D02*
Y75828D01*
X101777Y75728D02*
X101977D01*
X101877Y75628D02*
Y75828D01*
X102201Y75275D02*
X102401D01*
X102301Y75175D02*
Y75375D01*
X102968Y75246D02*
X103168D01*
X103068Y75146D02*
Y75346D01*
X102863Y75728D02*
X102663D01*
X102763Y75628D02*
Y75828D01*
X103411Y75669D02*
X103611D01*
X103511Y75569D02*
Y75769D01*
X103923Y75295D02*
X104123D01*
X104023Y75195D02*
Y75395D01*
X104760Y75295D02*
X104960D01*
X104860Y75195D02*
Y75395D01*
X105301Y75679D02*
X105501D01*
X105401Y75579D02*
Y75779D01*
X101564Y75246D02*
X101364D01*
X101464Y75146D02*
Y75346D01*
X100206Y75728D02*
X100006D01*
X100106Y75628D02*
Y75828D01*
X98404Y75541D02*
X98204D01*
X98304Y75441D02*
Y75641D01*
X96761Y83002D02*
X96561D01*
X96661Y82902D02*
Y83102D01*
X96561Y82608D02*
X96761D01*
X96661Y82508D02*
Y82708D01*
X96561Y82214D02*
X96761D01*
X96661Y82114D02*
Y82314D01*
X95973Y83002D02*
X95773D01*
X95873Y82902D02*
Y83102D01*
X96167Y83002D02*
X96367D01*
X96267Y82902D02*
Y83102D01*
X96167Y82608D02*
X96367D01*
X96267Y82508D02*
Y82708D01*
X95973Y82608D02*
X95773D01*
X95873Y82508D02*
Y82708D01*
X95773Y82214D02*
X95973D01*
X95873Y82114D02*
Y82314D01*
X96167Y82214D02*
X96367D01*
X96267Y82114D02*
Y82314D01*
X104247Y83917D02*
X104547D01*
X104397Y83767D02*
Y84067D01*
X101947Y85717D02*
X101647D01*
X101797Y85567D02*
Y85867D01*
X101647Y83917D02*
X101947D01*
X101797Y83767D02*
Y84067D01*
X104247Y85717D02*
X104547D01*
X104397Y85567D02*
Y85867D01*
X94330Y80285D02*
X94030D01*
X94180Y80135D02*
Y80435D01*
X94030Y81285D02*
X94330D01*
X94180Y81135D02*
Y81435D01*
X96001Y85374D02*
X96301D01*
X96151Y85224D02*
Y85524D01*
X97001Y85374D02*
X97301D01*
X97151Y85224D02*
Y85524D01*
X98001Y85374D02*
X98301D01*
X98151Y85224D02*
Y85524D01*
X99001Y85374D02*
X99301D01*
X99151Y85224D02*
Y85524D01*
X93809Y85964D02*
X93509D01*
X93659Y85814D02*
Y86114D01*
X91899Y85708D02*
X91599D01*
X91749Y85558D02*
Y85858D01*
X91599Y84429D02*
X91899D01*
X91749Y84279D02*
Y84579D01*
X90689Y78582D02*
X90389D01*
X90539Y78432D02*
Y78732D01*
X90389Y75846D02*
X90689D01*
X90539Y75696D02*
Y75996D01*
X89781Y74911D02*
X110263D01*
Y86722D01*
X89781D01*
Y74911D01*
X110253D02*
Y86722D01*
X102133D01*
G54D16*
X94482Y88467D02*
X94318Y88631D01*
X93990D01*
X93826Y88467D01*
Y88303D01*
X93990Y88139D01*
X94318D01*
X94482Y87975D01*
Y87811D01*
X94318Y87647D01*
X93990D01*
X93826Y87811D01*
X94810Y87647D02*
Y88303D01*
X95138Y88631D01*
X95466Y88303D01*
Y87647D01*
Y88139D01*
X94810D01*
X95794Y88631D02*
X96450D01*
X95794D02*
Y87647D01*
X96450D01*
X96122Y88139D02*
X95794D01*
X96778Y88631D02*
X97434D01*
X97106D01*
Y87647D01*
X98746Y88631D02*
X99074D01*
X98910D01*
Y87647D01*
X98746D01*
X99074D01*
X99566D02*
Y87811D01*
X99730D01*
Y87647D01*
X99566D01*
X100878Y88631D02*
X101042Y88467D01*
X100878Y88631D02*
X100550D01*
X100386Y88467D01*
Y88303D01*
X100550Y88139D01*
X100878D01*
X101042Y87975D01*
Y87811D01*
X100878Y87647D01*
X100550D01*
X100386Y87811D01*
X101370D02*
Y87647D01*
Y87811D02*
X101534D01*
Y87647D01*
X101370D01*
X104157D02*
X104649D01*
X104813Y87811D01*
X104649Y87975D01*
X104321D01*
X104157Y88139D01*
X104321Y88303D01*
X104813D01*
X105141Y87811D02*
Y87647D01*
Y87811D02*
X105305D01*
Y87647D01*
X105141D01*
X105961D02*
Y88303D01*
Y87975D02*
Y87647D01*
Y87975D02*
X106125Y88139D01*
X106289Y88303D01*
X106453D01*
X106945Y87811D02*
Y87647D01*
Y87811D02*
X107109D01*
Y87647D01*
X106945D01*
X107765D02*
X108093D01*
X107929D01*
Y88631D01*
X107765D01*
X108585Y87811D02*
Y87647D01*
Y87811D02*
X108749D01*
Y87647D01*
X108585D01*
D02*
M02*
