M71
M48
T1F00S00C0.015
T2F00S00C0.035
T3F00S00C0.039
T4F00S00C0.040
T5F00S00C0.047
T6F00S00C0.106
%
T01
X00265Y00064
X00302
X00331Y00157
X00263Y00165
X00296Y00213
X00191Y0026
X00233Y004
X00264Y0057
X00288Y00711
X00275Y00834
X00202Y00835
X00042Y00858
X00034Y00747
X0007Y00711
X00175Y00675
X00038Y00518
X00492Y00479
X0051Y00603
X00539Y00663
X00497Y00704
X00467Y00789
X00469Y00831
X005Y00863
X00436Y00876
X00609Y00809
X00649
X00688
Y0077
Y0073
X00649
Y0077
X00609
Y0073
X00657Y00593
X00691Y00482
X00792Y00481
X00788Y00427
X00747Y00395
X00828Y00361
X00813Y00313
X00852Y00239
X00885Y00238
X00934Y00176
X00922Y00133
X00949Y00084
X00922Y00037
X00988Y00036
X01078
X01121Y00082
X0121
X01208Y00144
Y00216
X01299Y00213
X01301Y00158
X01298Y00082
X01329Y00033
X01252Y00036
X01168Y00033
X01032Y00082
X01039Y00187
X00982
X01121Y00241
X01101Y00365
X01034Y00342
X0092Y00412
X00885Y00523
X00962Y00565
X00954Y00696
X01043Y00684
X01031Y00743
X01003Y0079
X00922Y00787
X00804Y00812
X00827Y00705
X00795Y00663
X00747Y00662
X01092Y00712
Y0079
X0117
X01249
Y00712
X0117
X01328
X01406
Y0079
X01328
X01453Y00661
X01363Y00562
X01281Y00563
X01214Y00559
X01121Y00563
X0129Y00438
X01307Y00401
X01378Y00406
X01445Y00418
X01418Y00307
X01386Y00276
X0137Y00201
X0137Y00133
X01373Y00076
X01424Y00038
X01441Y00105
X01435Y00166
X01476Y00204
X00852Y00063
X00706Y00116
X00576
X00462Y00117
Y00209
X00469Y00337
X00527Y00342
X00582Y00316
X01054Y00851
X01485Y0079
Y00712
X01493Y00629
Y00551
X01489Y00506
X01543Y00519
X01556Y00461
X01566Y00401
X01532Y00355
X01571Y00274
X01568Y00225
X0157Y0017
X01534Y00199
X01535Y00135
X01493Y00109
X01508Y00038
X01562Y00077
X01483Y00276
X01556Y00594
Y00675
X01551Y00755
X0176Y0074
Y00662
X01763Y0066
X0176Y00583
Y00504
X01996
Y00583
Y00662
Y0074
Y00819
X0176
X01996Y00425
Y00898
Y00977
Y01055
Y01134
X0176
Y01055
Y00977
Y00898
X01102Y00916
X01021Y00913
X00969Y00958
X00872Y0092
X00843Y00995
X00688Y01031
X00614Y00988
X00651Y0095
X00698Y00914
X00527Y00911
X00526Y01001
X00485Y01045
X00435Y01046
X00326Y01025
X00335Y00908
X00044Y01016
Y01129
X00937Y01122
T02
X0044Y00537
Y00637
X00388Y01105
X00639Y01148
X00637Y01046
X00737
X00837
X00937
T03
X00076Y00094
X00076Y00367
X00197Y00952
Y0108
T04
X01202Y00901
Y01081
X01462Y00901
T05
X01462Y01081
T06
X00068Y00229
M30
