*%FSLAX24Y24*%
*%MOIN*%
G01*
%ADD11C,0.0010*%
%ADD12C,0.0020*%
%ADD13C,0.0039*%
%ADD14C,0.0073*%
%ADD15C,0.0079*%
%ADD16C,0.0100*%
%ADD17O,0.0110X0.0394*%
%ADD18C,0.0118*%
%ADD19C,0.0120*%
%ADD20O,0.0150X0.0434*%
%ADD21C,0.0197*%
%ADD22C,0.0295*%
%ADD23C,0.0295*%
%ADD24C,0.0300*%
%ADD25C,0.0340*%
%ADD26C,0.0350*%
%ADD27C,0.0354*%
%ADD28C,0.0394*%
%ADD29O,0.0394X0.0110*%
%ADD30C,0.0394*%
%ADD31C,0.0394*%
%ADD32C,0.0400*%
%ADD33O,0.0434X0.0150*%
%ADD34C,0.0440*%
%ADD35C,0.0472*%
%ADD36C,0.0500*%
%ADD37C,0.0540*%
%ADD38C,0.0554*%
%ADD39C,0.0591*%
%ADD40C,0.0594*%
%ADD41C,0.0594*%
%ADD42C,0.0600*%
%ADD43C,0.0631*%
%ADD44C,0.0672*%
%ADD45C,0.1000*%
%ADD46C,0.1040*%
%ADD47C,0.1063*%
%ADD48C,0.1263*%
%ADD49R,0.0020X0.0020*%
%ADD50R,0.0059X0.0059*%
%ADD51R,0.0098X0.0315*%
%ADD52R,0.0100X0.0100*%
%ADD53R,0.0110X0.0299*%
%ADD54R,0.0138X0.0500*%
%ADD55R,0.0138X0.0355*%
%ADD56R,0.0150X0.0339*%
%ADD57R,0.0157X0.0079*%
%ADD58R,0.0178X0.0540*%
%ADD59R,0.0197X0.0119*%
%ADD60R,0.0200X0.0200*%
%ADD61R,0.0200X0.0250*%
%ADD62R,0.0200X0.0287*%
%ADD63R,0.0240X0.0290*%
%ADD64R,0.0240X0.0327*%
%ADD65R,0.0250X0.0200*%
%ADD66R,0.0287X0.0200*%
%ADD67R,0.0290X0.0240*%
%ADD68R,0.0299X0.0110*%
%ADD69R,0.0300X0.0300*%
%ADD70R,0.0300X0.0300*%
%ADD71R,0.0315X0.0098*%
%ADD72R,0.0327X0.0240*%
%ADD73R,0.0339X0.0150*%
%ADD74R,0.0340X0.0340*%
%ADD75R,0.0355X0.0138*%
%ADD76R,0.0360X0.0360*%
%ADD77R,0.0360X0.0500*%
%ADD78R,0.0400X0.0400*%
%ADD79R,0.0400X0.0400*%
%ADD80R,0.0400X0.0540*%
%ADD81R,0.0472X0.0433*%
%ADD82R,0.0500X0.0500*%
%ADD83R,0.0500X0.0500*%
%ADD84R,0.0500X0.0600*%
%ADD85R,0.0512X0.0473*%
%ADD86R,0.0540X0.0540*%
%ADD87R,0.0540X0.0640*%
%ADD88R,0.0591X0.0591*%
%ADD89R,0.0600X0.0500*%
%ADD90R,0.0600X0.0600*%
%ADD91R,0.0600X0.0600*%
%ADD92R,0.0631X0.0631*%
%ADD93R,0.0640X0.0540*%
%ADD94R,0.0640X0.0640*%
%ADD95R,0.0700X0.0700*%
%ADD96R,0.0787X0.0472*%
%ADD97R,0.0800X0.0800*%
%ADD98R,0.0827X0.0512*%
%ADD99R,0.0900X0.0900*%
%ADD100R,0.1000X0.1000*%
%ADD101R,0.1000X0.1000*%
%ADD102R,0.1024X0.1024*%
%ADD103R,0.1040X0.1040*%
%ADD104R,0.1100X0.1100*%
%ADD105R,0.1200X0.1200*%
%ADD106R,0.1339X0.1358*%
%ADD107R,0.1400X0.1400*%
%ADD108R,0.1500X0.1500*%
%ADD109R,0.1800X0.1800*%
%ADD110R,0.2200X0.2200*%
%ADD111R,0.2300X0.2300*%
G54D11*
X89781Y74911D02*
X110263D01*
Y86722D01*
X89781D01*
Y74911D01*
X110253D02*
Y86722D01*
X102133D01*
G54D15*
X99072Y78267D02*
Y77293D01*
Y78267D02*
X99269Y78464D01*
X99240Y78435D02*
X99535Y78730D01*
X99535D02*
X99968D01*
X100027Y78789D01*
Y78986D01*
X100223Y78980D02*
Y78773D01*
X100017Y78566D01*
X99810D01*
X99623D01*
X99416Y78360D01*
Y77503D01*
X99702Y77218D01*
X99712Y77503D02*
X99672D01*
X99820Y77966D02*
Y78251D01*
X99899Y78330D01*
X100125D01*
X100420Y77986D02*
Y78930D01*
X100617Y78960D02*
Y78743D01*
X100804Y78556D01*
X101404Y78429D02*
Y77907D01*
X101109Y77799D02*
Y79364D01*
X100972Y79557D02*
X101247D01*
X101867Y78937D01*
X101847Y78871D02*
X101424D01*
X101847Y78448D02*
Y77946D01*
Y77927D02*
X102654D01*
X102684Y78399D02*
X102280D01*
Y78842D01*
X102300Y79295D02*
X102684D01*
X102861Y79117D01*
Y78743D01*
X103088Y78517D01*
X103540D01*
X103777D02*
X104278D01*
X104673Y78494D02*
Y79075D01*
X104673Y79517D02*
Y80256D01*
X104397Y82864D02*
Y83927D01*
X103599Y81362D02*
X104229Y80732D01*
X103599Y81362D02*
X100430D01*
X100223Y81155D01*
Y80545D01*
X100420Y80554D02*
Y80978D01*
X100588Y81145D01*
X101936D01*
X101916D02*
X103501D01*
X103492Y81141D02*
X103866Y80767D01*
Y80708D01*
Y78730D01*
X103777Y78320D02*
Y78153D01*
X103944Y77986D01*
X103964Y77972D02*
Y77618D01*
X103550Y77651D02*
Y77887D01*
Y78025D01*
Y78015D02*
Y78940D01*
X103196Y78812D02*
Y80023D01*
Y78812D02*
X103304Y78704D01*
X103294Y78310D02*
Y77927D01*
X103275Y77484D02*
X102822D01*
X102330Y77454D02*
X101857D01*
X101454Y77484D02*
Y76844D01*
Y76795D02*
X100154D01*
Y76322D01*
X100598Y76348D02*
Y75935D01*
X101011Y75886D02*
Y76338D01*
X101464Y76358D02*
Y75886D01*
X102320Y76539D02*
X102861D01*
X102330Y77021D02*
Y77434D01*
X101404Y77503D02*
X101109Y77799D01*
X100991Y77316D02*
X100440D01*
X99613Y76785D02*
Y76371D01*
X99594Y76338D02*
Y75767D01*
X98304Y75541D02*
Y76525D01*
X99072Y77293D01*
X98984Y78494D02*
X99397Y78907D01*
X99397Y78909D02*
X99810D01*
X99578Y79126D02*
X99783Y79330D01*
X99578Y79126D02*
X99243D01*
X99141D01*
X99031Y79016D01*
X98984Y78494D02*
X98905D01*
X98964D02*
X98029D01*
X97970Y78838D02*
X98492Y79360D01*
X98501Y79370D02*
X99446D01*
X99486Y79567D02*
X98078D01*
X97675Y79163D01*
X97694Y79173D02*
X91966D01*
X91808Y79016D01*
Y78592D01*
X92123Y78277D01*
X92163Y78071D02*
X91897D01*
X91621Y78346D01*
Y79084D01*
X91917Y79380D01*
X97291D01*
X97675Y79764D01*
X97665D02*
X98531D01*
X98580Y79764D02*
X98659D01*
X98619Y79764D02*
X98383D01*
X98600D02*
X99397D01*
X99466Y79964D02*
X99160D01*
X99052Y80072D01*
X99003Y80138D02*
X98186D01*
X97980Y80384D02*
Y81063D01*
X96602D01*
X96612D02*
X96484Y81191D01*
X96562Y81161D02*
Y81555D01*
X96759Y81525D02*
Y81368D01*
X96838Y81289D01*
X97104D01*
X97251Y81437D01*
Y81584D01*
X97360Y81929D02*
X97734Y81555D01*
X97783Y82116D02*
X97891D01*
X98039Y81968D01*
X98049Y81958D01*
X97783Y82116D02*
X97281D01*
X97291Y82313D02*
X98334D01*
X98344D01*
X98442Y82411D01*
X98403Y82372D02*
X98678Y82647D01*
Y83307D01*
Y83228D02*
Y83415D01*
X98157Y83937D01*
Y84035D01*
Y84045D02*
Y84478D01*
X98147D02*
X98570D01*
X98600Y84498D02*
Y84675D01*
X98767Y84842D01*
X99171D02*
Y84665D01*
X99013Y84508D01*
X98984Y84055D02*
X98492D01*
X98157Y84045D02*
Y84025D01*
X97822Y83937D02*
X97123Y84636D01*
Y85374D01*
X96651Y85206D02*
Y85561D01*
X96641Y85571D01*
X96405Y85807D01*
X96326D01*
X95844D01*
X95804Y85984D02*
X97291D01*
X97320D01*
X97389Y85915D01*
X97369Y85935D02*
X97665Y85640D01*
Y85521D01*
Y85010D01*
X97763Y84911D01*
Y84458D01*
X97724Y84035D02*
X98452Y83307D01*
Y83110D01*
Y83208D02*
Y82736D01*
X98255Y82539D01*
X98285Y82569D02*
X98226Y82510D01*
X97360D01*
X97409D02*
Y82519D01*
X97310Y82706D02*
X98098D01*
X98088D02*
X98216Y82834D01*
X98226Y82844D02*
Y83248D01*
X97547Y83927D01*
X97625Y83848D02*
X96907Y84567D01*
X96917Y84557D02*
X96759Y84714D01*
X96779Y84695D02*
X96119Y85354D01*
X95549Y85443D02*
X95027Y84921D01*
X94643Y84951D02*
X95499Y85807D01*
X96395D01*
X95804Y85984D02*
X95332Y86456D01*
X95273Y86516D01*
X93314D01*
X93039Y86240D01*
Y85138D01*
X93629Y85167D02*
X93836Y85374D01*
X94161D01*
X94584Y85384D02*
X93846Y84645D01*
Y84055D01*
Y84114D02*
Y83563D01*
X94151Y83258D01*
Y83090D01*
Y83208D02*
Y82657D01*
X94299Y82510D01*
X94988D01*
X94909D02*
X95263D01*
Y82706D02*
X94604D01*
X94486Y82825D01*
X94791Y82903D02*
X95175D01*
X95204Y83100D02*
X94938D01*
X94810Y83228D01*
Y83563D01*
X94476Y83218D02*
X94791Y82903D01*
X93964Y83149D02*
Y82618D01*
Y82657D02*
Y82529D01*
X94180Y82313D01*
X94948D01*
X94830D02*
X95204D01*
X95243Y82116D02*
X94909D01*
X94751Y81958D01*
X95175Y81909D02*
Y81545D01*
X95578D02*
Y80403D01*
X95598Y79704D02*
X95854D01*
X96031Y79882D01*
Y81043D01*
X95775Y81299D01*
Y81535D01*
X95972Y81614D02*
Y82047D01*
X96169Y82106D02*
Y81604D01*
X96366D02*
Y81309D01*
X96543Y81132D01*
X96562Y81122D02*
Y81269D01*
X96385Y80836D02*
X96769D01*
X97143Y80827D02*
Y81053D01*
X97980Y80964D02*
Y81161D01*
X99367Y82549D01*
Y82795D01*
Y82746D02*
Y84075D01*
X99456Y84055D02*
Y84429D01*
X99180Y84852D02*
X99988D01*
X99673Y85344D02*
X99092D01*
X98610Y85147D02*
Y85827D01*
Y85669D02*
Y86250D01*
X98826Y86466D01*
X98944D01*
X98866D02*
X99367D01*
X99249D02*
X101612D01*
X101661Y86417D01*
X101769Y86309D01*
Y85817D01*
Y85689D02*
X104397D01*
X106941Y78974D02*
X107161Y78754D01*
X105125Y78090D02*
Y77697D01*
X105135Y77303D02*
Y76830D01*
X104377Y77195D02*
X103728D01*
X104229Y79088D02*
Y80584D01*
Y80732D01*
X103600Y80708D02*
Y80433D01*
X103610Y80453D02*
Y79852D01*
Y80138D02*
X103364Y80384D01*
X103344Y80502D02*
X103590Y80256D01*
X103580Y80374D02*
X103373Y80580D01*
X103383Y80679D02*
X103610Y80453D01*
X103590Y80551D02*
X103423Y80718D01*
X103383Y80827D02*
X103580Y80630D01*
X103600Y80708D02*
X103432Y80876D01*
X103610Y79409D02*
X103846D01*
X102379Y80003D02*
X102133Y79757D01*
X101040D01*
Y79974D02*
X101877D01*
X101936Y80476D02*
X101483D01*
X102320Y80023D02*
X102773D01*
X100981Y80515D02*
X100607Y80141D01*
X99771Y80224D02*
X99389Y80606D01*
X99406Y80584D02*
X98964D01*
X99308Y80997D02*
X99731D01*
X99702Y80948D02*
X99830Y80820D01*
Y80751D01*
Y80545D01*
X99751Y81440D02*
X99338D01*
X99732Y81427D02*
Y81939D01*
X98993Y83612D02*
Y84035D01*
X99003Y83199D02*
Y82785D01*
X98226Y82844D02*
X98108Y82726D01*
X97812Y83130D02*
X97586Y82903D01*
X97330D01*
X97389Y83100D02*
X97507D01*
X97655Y83248D01*
Y83366D01*
Y83563D01*
X97261Y83956D01*
X97271Y83947D02*
X96425Y84793D01*
X96277D01*
X96356D02*
X95952D01*
X95549Y84655D02*
Y85029D01*
Y84655D02*
X96169Y84035D01*
Y83750D01*
X96562Y83720D02*
Y83858D01*
Y83868D02*
X96464Y83966D01*
Y84173D01*
X96257Y84380D01*
X95775Y84094D02*
Y84065D01*
Y83671D01*
X95578Y83622D02*
Y84025D01*
X95263Y84340D01*
X95066D01*
X94417D01*
X94131Y84055D01*
Y83671D01*
X93629Y83484D02*
Y84045D01*
Y83996D02*
Y85167D01*
X93659Y85984D02*
X94456D01*
X94643Y84951D02*
Y84754D01*
X94889Y84508D01*
X95362D01*
X95381Y84488D01*
X95421Y84449D01*
Y84449D02*
X95775Y84094D01*
X95263Y83809D02*
X95047Y84025D01*
X95263Y83809D02*
Y83307D01*
X93964Y83149D02*
X93629Y83484D01*
X93659Y83071D02*
X93767Y82962D01*
Y82962D02*
Y82372D01*
X93590Y82195D01*
X93108Y82126D02*
Y81703D01*
X92419Y77195D02*
Y76535D01*
Y77195D02*
X92537Y77313D01*
Y77451D01*
X92743Y77529D02*
Y77037D01*
X92940Y77293D02*
Y77441D01*
Y77293D02*
X93088Y77145D01*
Y76427D01*
X93885Y76388D02*
Y77234D01*
Y77185D02*
Y77559D01*
X93836Y77549D02*
X93619D01*
X93295Y77874D01*
X93275Y78071D02*
X93649D01*
X94141Y78208D02*
X93767Y78582D01*
X93728Y78622D02*
X93137D01*
X92547Y78651D02*
Y78829D01*
X92665Y78947D01*
X94702D01*
X94801Y78848D01*
X94850D01*
X94840D02*
X95617D01*
X95549D02*
X97261D01*
X97232Y78838D02*
X97970D01*
X97911Y78041D02*
X97173D01*
X96966D02*
Y77303D01*
X96169Y78071D02*
X95588D01*
X95047Y78415D02*
Y77628D01*
X94958Y77569D02*
X94387D01*
X94141Y77844D02*
Y78208D01*
Y77844D02*
X93905Y77608D01*
X93885Y76388D02*
X93531Y76033D01*
X96867Y79951D02*
Y80118D01*
Y79951D02*
X96671Y79754D01*
X95184Y79704D02*
X94682D01*
X94131D01*
X93728Y79724D02*
Y80000D01*
X93984Y80256D01*
X94190D01*
X94909Y80954D02*
X95283D01*
X91927Y81653D02*
X91533D01*
X91917Y81260D02*
X91080D01*
X90844Y82598D02*
Y83750D01*
X92202Y82677D02*
X93492D01*
X93511Y83071D02*
X93659D01*
X93442D02*
Y84104D01*
X93432Y84114D01*
X93117Y84429D01*
X91730D01*
X93127Y83996D02*
Y83100D01*
X91966Y81240D02*
Y80886D01*
X91621Y80935D02*
Y80039D01*
X91651D02*
X91100D01*
X92114Y78888D02*
X92261Y78740D01*
X92350D01*
X92074Y77864D02*
Y77726D01*
X91887Y77539D01*
X91730D01*
X92094Y80029D02*
X92556D01*
X92458Y80610D02*
X92222D01*
X92045Y80433D01*
X94121Y78612D02*
X94446Y78287D01*
X96759Y83651D02*
Y84065D01*
X98177Y84872D02*
X98334D01*
X98610Y85147D01*
X99151Y86132D02*
X100490D01*
X101799Y83927D02*
Y82785D01*
X105877Y75994D02*
X105745Y75862D01*
X105877Y75994D02*
X106139D01*
X106270Y75862D01*
Y75731D01*
X106271D01*
X106270D02*
X106271D01*
X106270D02*
X106271D01*
X106270D02*
X106139Y75600D01*
X106008D01*
X106139D01*
X106270Y75469D01*
Y75338D01*
X106139Y75206D01*
X105877D01*
X105745Y75338D01*
X106533Y75862D02*
X106664Y75994D01*
X106926D01*
X107057Y75862D01*
Y75731D01*
X106926Y75600D01*
X107057Y75469D01*
Y75338D01*
X106926Y75206D01*
X106664D01*
X106533Y75338D01*
Y75469D01*
X106664Y75600D01*
X106533Y75731D01*
Y75862D01*
X106664Y75600D02*
X106926D01*
X107320Y75994D02*
X107844D01*
X107320D02*
Y75600D01*
X107582Y75731D01*
X107713D01*
X107844Y75600D01*
Y75338D01*
X107713Y75206D01*
X107451D01*
X107320Y75338D01*
X108107Y75206D02*
X108632D01*
X108107D02*
X108632Y75731D01*
Y75862D01*
X108500Y75994D01*
X108238D01*
X108107Y75862D01*
X108894Y75338D02*
Y75206D01*
Y75338D02*
X109025D01*
Y75206D01*
X108894D01*
X109812Y75862D02*
X110075Y75994D01*
X109812Y75862D02*
X109550Y75600D01*
Y75338D01*
X109681Y75206D01*
X109944D01*
X110075Y75338D01*
Y75469D01*
X109944Y75600D01*
X109550D01*
G54D16*
X94482Y88467D02*
X94318Y88631D01*
X93990D01*
X93826Y88467D01*
Y88303D01*
X93990Y88139D01*
X94318D01*
X94482Y87975D01*
Y87811D01*
X94318Y87647D01*
X93990D01*
X93826Y87811D01*
X94810Y87647D02*
Y88303D01*
X95138Y88631D01*
X95466Y88303D01*
Y87647D01*
Y88139D01*
X94810D01*
X95794Y88631D02*
X96450D01*
X95794D02*
Y87647D01*
X96450D01*
X96122Y88139D02*
X95794D01*
X96778Y88631D02*
X97434D01*
X97106D01*
Y87647D01*
X98746Y88631D02*
X99074D01*
X98910D01*
Y87647D01*
X98746D01*
X99074D01*
X99566D02*
Y87811D01*
X99730D01*
Y87647D01*
X99566D01*
X100878Y88631D02*
X101042Y88467D01*
X100878Y88631D02*
X100550D01*
X100386Y88467D01*
Y88303D01*
X100550Y88139D01*
X100878D01*
X101042Y87975D01*
Y87811D01*
X100878Y87647D01*
X100550D01*
X100386Y87811D01*
X101370D02*
Y87647D01*
Y87811D02*
X101534D01*
Y87647D01*
X101370D01*
X104157D02*
X104649D01*
X104813Y87811D01*
X104649Y87975D01*
X104321D01*
X104157Y88139D01*
X104321Y88303D01*
X104813D01*
X105141Y87811D02*
Y87647D01*
Y87811D02*
X105305D01*
Y87647D01*
X105141D01*
X105961D02*
Y88303D01*
Y87975D02*
Y87647D01*
Y87975D02*
X106125Y88139D01*
X106289Y88303D01*
X106453D01*
X106945Y87811D02*
Y87647D01*
Y87811D02*
X107109D01*
Y87647D01*
X106945D01*
X107765D02*
X108093D01*
X107929D01*
Y88631D01*
X107765D01*
X108585Y87811D02*
Y87647D01*
Y87811D02*
X108749D01*
Y87647D01*
X108585D01*
G54D17*
X95578Y83612D02*
D03*
X95775D02*
D03*
X95972D02*
D03*
X96169D02*
D03*
X96366D02*
D03*
X96562D02*
D03*
X96759D02*
D03*
X96956D02*
D03*
X95578Y81604D02*
D03*
X95775D02*
D03*
X95972D02*
D03*
X96169D02*
D03*
X96366D02*
D03*
X96562D02*
D03*
X96759D02*
D03*
X96940Y81591D02*
D03*
G54D18*
X93600Y76033D02*
X92261D01*
X93600D02*
X93984Y75649D01*
X94860D01*
X95056Y75846D01*
Y76693D01*
X93364Y81427D02*
X93147Y81643D01*
X93364Y81427D02*
X93432Y81358D01*
Y80167D01*
X93324Y80147D02*
Y79813D01*
X93117Y79606D01*
X92783D01*
X92822D02*
X91799D01*
X91789D02*
X91336Y79153D01*
Y78641D01*
Y78671D02*
Y77500D01*
Y77677D02*
Y76958D01*
X91887Y76407D01*
X91907Y76388D01*
X91808Y76486D02*
X92261Y76033D01*
X92350Y81141D02*
X92842D01*
X92350D02*
X92251Y81240D01*
Y81919D01*
X92143Y82027D01*
X90588D01*
X90657Y82017D02*
Y81663D01*
X91021Y81653D02*
X91592D01*
X90824Y81122D02*
X90342D01*
X90125Y81338D01*
Y82401D01*
X90135Y82667D02*
X90775D01*
X92665Y82037D02*
Y81584D01*
X90549Y80118D02*
X90234D01*
X90155Y80098D02*
Y79764D01*
X90322Y79596D01*
X90903Y79488D02*
Y79222D01*
Y79104D01*
X90499Y78701D01*
G54D21*
X103216Y78838D02*
Y79980D01*
X105145Y78071D02*
X106070D01*
X104692Y78110D02*
Y78523D01*
X102793Y80019D02*
X102409D01*
X102320Y79970D02*
X102094Y79744D01*
X101356D01*
G54D22*
X91316Y75836D02*
X90549D01*
X91316D02*
X91602Y75551D01*
X92428D01*
X92163D02*
X92812D01*
X95165Y76742D02*
X95736D01*
X96119Y77126D01*
X96129Y77293D02*
X98629D01*
X103708Y81903D02*
X104751Y80860D01*
X105253Y80974D02*
X104318Y81909D01*
X104594Y81407D02*
X105096Y80905D01*
X104643Y81342D02*
X104229Y81755D01*
X104427Y82077D02*
X105401Y81102D01*
X105440Y80846D02*
Y81525D01*
Y82293D01*
X104673Y83061D01*
X104269D01*
X104427Y82972D02*
X105283Y82116D01*
X105293Y81860D02*
X104338Y82815D01*
X104417Y82411D02*
X105293Y81535D01*
X102724Y76112D02*
X101848D01*
X99121Y75797D02*
Y76653D01*
X99003Y76565D02*
X99240Y76801D01*
X99003Y76565D02*
Y75925D01*
X103501Y80689D02*
X103413Y80777D01*
X103501Y80689D02*
Y80433D01*
X99830Y81929D02*
X99466D01*
X99279Y81899D02*
X99810Y82431D01*
X99781Y82421D02*
Y83632D01*
X100175Y84025D01*
X94397Y77008D02*
Y76082D01*
X95549Y76073D02*
X97458D01*
X101572Y82175D02*
X102369D01*
X100637Y82067D02*
X99850D01*
X99742Y82047D02*
X100037Y81752D01*
X100736D01*
X100391Y81840D02*
X99997D01*
X99220D01*
X99279Y81899D01*
X99682Y82185D02*
X100381D01*
G54D23*
X90125Y82362D02*
Y86220D01*
G54D24*
X92428Y75551D02*
D03*
X92803D02*
D03*
X93088Y76486D02*
D03*
X92409Y76565D02*
D03*
X92743Y77037D02*
D03*
X91690Y77510D02*
D03*
X92114Y78907D02*
D03*
X92419Y80610D02*
D03*
X92665Y82017D02*
D03*
X92527Y83248D02*
D03*
X91799Y83258D02*
D03*
X90204Y83494D02*
D03*
X90125Y82382D02*
D03*
X90480Y82017D02*
D03*
X91533Y81663D02*
D03*
X90165Y80088D02*
D03*
X94702Y79704D02*
D03*
X94879Y80945D02*
D03*
X95175Y81545D02*
D03*
X94751Y81949D02*
D03*
X94446Y82805D02*
D03*
X94476Y83218D02*
D03*
X94781Y83543D02*
D03*
X95047Y84025D02*
D03*
X95037Y84921D02*
D03*
X94633Y85364D02*
D03*
X94131Y85374D02*
D03*
X93039Y85157D02*
D03*
X93127Y83996D02*
D03*
X94141Y83671D02*
D03*
X96287Y84409D02*
D03*
X95923Y84793D02*
D03*
X96661Y85216D02*
D03*
X96356Y80836D02*
D03*
X96690Y79734D02*
D03*
X95598Y78071D02*
D03*
X95047Y78327D02*
D03*
X94476Y78277D02*
D03*
X94397Y76998D02*
D03*
Y76082D02*
D03*
X95539Y76073D02*
D03*
X90224Y85069D02*
D03*
Y86201D02*
D03*
X96759Y84055D02*
D03*
X98501Y84114D02*
D03*
X98206Y84862D02*
D03*
X99466Y84488D02*
D03*
X99988Y84045D02*
D03*
X100804Y84075D02*
D03*
X100322Y83425D02*
D03*
X100696Y82815D02*
D03*
Y82027D02*
D03*
X100214Y81752D02*
D03*
X100086Y82342D02*
D03*
X99810Y82815D02*
D03*
X99003Y82785D02*
D03*
X99318Y81870D02*
D03*
X98049Y81958D02*
D03*
X97734Y81545D02*
D03*
X97251Y81535D02*
D03*
X97822Y83031D02*
D03*
X97704Y79724D02*
D03*
X97665Y79183D02*
D03*
X97251Y78858D02*
D03*
X98058Y78523D02*
D03*
X97911Y78041D02*
D03*
X98304Y77303D02*
D03*
X98629Y77293D02*
D03*
X99121Y76673D02*
D03*
X99003Y76240D02*
D03*
X99603Y76785D02*
D03*
X100174D02*
D03*
X100991Y77316D02*
D03*
X101857Y77070D02*
D03*
Y76352D02*
D03*
X102793Y76496D02*
D03*
X102773Y77037D02*
D03*
X103482Y76919D02*
D03*
X103482Y76240D02*
D03*
X104131Y76575D02*
D03*
X104190Y75964D02*
D03*
X104712Y76004D02*
D03*
X105135Y76260D02*
D03*
X105125Y76899D02*
D03*
X105460Y77165D02*
D03*
X105490Y77647D02*
D03*
X104614Y77667D02*
D03*
X104545Y76949D02*
D03*
X105480Y76614D02*
D03*
X105106Y78464D02*
D03*
X105440Y78917D02*
D03*
X105342Y79517D02*
D03*
X105214Y80098D02*
D03*
X104673Y79970D02*
D03*
X104712Y80417D02*
D03*
Y81204D02*
D03*
X104308Y81525D02*
D03*
X104633Y82027D02*
D03*
Y82815D02*
D03*
X103846D02*
D03*
X103058D02*
D03*
Y82027D02*
D03*
X103846D02*
D03*
X102271D02*
D03*
Y82815D02*
D03*
X101484D02*
D03*
Y82027D02*
D03*
X101916Y80505D02*
D03*
X102596Y80541D02*
D03*
X103413Y80531D02*
D03*
X103560Y78976D02*
D03*
X102851Y78921D02*
D03*
X102684Y79295D02*
D03*
X104229Y79088D02*
D03*
X103964Y77986D02*
D03*
X103639Y77671D02*
D03*
X100794Y78556D02*
D03*
X100125Y78330D02*
D03*
X98984Y79035D02*
D03*
X98629Y80138D02*
D03*
X99397Y80564D02*
D03*
X100991Y80545D02*
D03*
X105342Y80856D02*
D03*
Y81663D02*
D03*
X105293Y82460D02*
D03*
X107383Y82315D02*
D03*
Y81528D02*
D03*
X107412Y81515D02*
D03*
X107383Y80740D02*
D03*
Y79953D02*
D03*
X109745D02*
D03*
Y80740D02*
D03*
Y81528D02*
D03*
Y82315D02*
D03*
Y83102D02*
D03*
Y83890D02*
D03*
Y84677D02*
D03*
Y85465D02*
D03*
Y86252D02*
D03*
X107383D02*
D03*
Y85465D02*
D03*
Y84677D02*
D03*
Y83890D02*
D03*
Y83102D02*
D03*
X109745Y79165D02*
D03*
X96838Y76073D02*
D03*
X99151Y86132D02*
D03*
X99269Y75748D02*
D03*
X99003Y75285D02*
D03*
X99663Y75275D02*
D03*
X100558D02*
D03*
X100991Y75728D02*
D03*
X101877D02*
D03*
X102301Y75275D02*
D03*
X103068Y75246D02*
D03*
X102763Y75728D02*
D03*
X103511Y75669D02*
D03*
X104023Y75295D02*
D03*
X104860D02*
D03*
X105401Y75679D02*
D03*
X101464Y75246D02*
D03*
X100106Y75728D02*
D03*
X98304Y75541D02*
D03*
X96661Y83002D02*
D03*
Y82608D02*
D03*
Y82214D02*
D03*
X95873Y83002D02*
D03*
X96267D02*
D03*
Y82608D02*
D03*
X95873D02*
D03*
Y82214D02*
D03*
X96267D02*
D03*
G54D29*
X95262Y83297D02*
D03*
X97271Y82116D02*
D03*
Y81919D02*
D03*
X95262Y83100D02*
D03*
Y82903D02*
D03*
Y82706D02*
D03*
Y82510D02*
D03*
Y82313D02*
D03*
Y82116D02*
D03*
Y81919D02*
D03*
X97271Y83297D02*
D03*
Y83100D02*
D03*
Y82903D02*
D03*
Y82706D02*
D03*
Y82510D02*
D03*
Y82313D02*
D03*
G54D31*
X107383Y85465D02*
X109745D01*
Y86252D02*
X107383D01*
Y84677D02*
X109745D01*
Y83890D02*
X107383D01*
Y83102D02*
X109745D01*
Y82315D02*
X107383D01*
Y81528D02*
X109745D01*
Y80740D02*
X107383D01*
X107383Y79953D02*
X109745D01*
X109745Y79165D02*
X107777D01*
X106740Y78071D02*
X105952D01*
X106751Y78143D02*
G75*
G02*X107771Y79163I1020D01*
G54D32*
G74*
X93738Y78061D02*
D03*
X90460Y77204D02*
D03*
G54D36*
X96169Y86388D02*
D03*
X94180Y81285D02*
D03*
X96151Y85374D02*
D03*
X97151D02*
D03*
X98151D02*
D03*
G54D39*
X91749Y85708D02*
D03*
G54D45*
X104397Y83917D02*
D03*
X101797Y85717D02*
D03*
Y83917D02*
D03*
X104397Y85717D02*
D03*
X90539Y78582D02*
D03*
G54D49*
X101710Y76122D02*
X102566D01*
G54D50*
X104358Y77254D02*
Y77657D01*
G54D51*
X93137Y78622D02*
D03*
Y77519D02*
D03*
X92940D02*
D03*
X92743D02*
D03*
X92547D02*
D03*
X92350D02*
D03*
Y78622D02*
D03*
X92547D02*
D03*
X92743D02*
D03*
X92940D02*
D03*
G54D52*
X105490Y75197D02*
X105548D01*
Y77784D01*
X105490D01*
Y75197D01*
X105372Y77077D02*
X105400D01*
Y77784D01*
X105372D01*
Y77077D01*
X100923Y80791D02*
X101728D01*
Y80869D01*
X100923D01*
Y80791D01*
X101003Y80830D02*
X101648D01*
G54D53*
X100617Y78999D02*
D03*
X100420D02*
D03*
X100223D02*
D03*
X100027D02*
D03*
X99830D02*
D03*
X100617Y80535D02*
D03*
X100420D02*
D03*
X100223D02*
D03*
X100027D02*
D03*
X99830D02*
D03*
G54D54*
X91090Y80187D02*
D03*
X90578Y81082D02*
D03*
X90834D02*
D03*
X91090D02*
D03*
X90578Y80187D02*
D03*
G54D57*
X103304Y78704D02*
D03*
Y78515D02*
D03*
Y78326D02*
D03*
X103777Y78704D02*
D03*
Y78515D02*
D03*
Y78326D02*
D03*
G54D60*
X99389Y76763D02*
X99691D01*
Y76839D01*
X99389D01*
Y76763D01*
X103621Y76990D02*
X103657D01*
Y77626D01*
X103621D01*
Y76990D01*
X101800Y76225D02*
X102505D01*
Y76252D01*
X101800D01*
Y76225D01*
G54D61*
X103984Y77598D02*
D03*
Y77198D02*
D03*
X105135Y77293D02*
D03*
Y77693D02*
D03*
X104682Y79084D02*
D03*
Y79529D02*
D03*
X103600Y79823D02*
D03*
Y79423D02*
D03*
X101483Y80486D02*
D03*
Y80041D02*
D03*
X101404Y78429D02*
D03*
Y78873D02*
D03*
X101847Y78429D02*
D03*
Y78873D02*
D03*
X102300Y79267D02*
D03*
Y78822D02*
D03*
X103275Y77927D02*
D03*
Y77482D02*
D03*
X102684Y77956D02*
D03*
Y78401D02*
D03*
X102290Y77946D02*
D03*
Y78391D02*
D03*
X102310Y77001D02*
D03*
Y76556D02*
D03*
X101847Y77484D02*
D03*
Y77929D02*
D03*
X101424Y77484D02*
D03*
Y77929D02*
D03*
X101454Y76350D02*
D03*
Y76795D02*
D03*
X101021Y76350D02*
D03*
Y76795D02*
D03*
X100597D02*
D03*
Y76350D02*
D03*
X99003Y80556D02*
D03*
Y80112D02*
D03*
X99721Y81442D02*
D03*
Y80997D02*
D03*
X99318Y81442D02*
D03*
Y80997D02*
D03*
X99003Y83208D02*
D03*
Y83608D02*
D03*
X95558Y85039D02*
D03*
Y85439D02*
D03*
X93501Y82671D02*
D03*
Y83071D02*
D03*
X93108Y82671D02*
D03*
Y83071D02*
D03*
G54D62*
X91936Y81309D02*
D03*
Y81677D02*
D03*
G54D65*
X105145Y78071D02*
D03*
X104700D02*
D03*
X104692Y78517D02*
D03*
X104247D02*
D03*
X103225Y80013D02*
D03*
X102780D02*
D03*
X102310D02*
D03*
X101865D02*
D03*
X102330Y77474D02*
D03*
X102775D02*
D03*
X94285Y77559D02*
D03*
X93885D02*
D03*
X94118Y78612D02*
D03*
X93718D02*
D03*
X91629Y80029D02*
D03*
X92074D02*
D03*
X94138Y79704D02*
D03*
X93738D02*
D03*
X95584D02*
D03*
X95184D02*
D03*
X99374Y84055D02*
D03*
X98974D02*
D03*
X98970Y84488D02*
D03*
X98570D02*
D03*
X98153Y84478D02*
D03*
X97753D02*
D03*
X93517Y82155D02*
D03*
X93117D02*
D03*
X91621Y80905D02*
D03*
X92021D02*
D03*
G54D66*
X90647Y81643D02*
D03*
X91016D02*
D03*
X95661Y80955D02*
D03*
X95293D02*
D03*
X96775Y80817D02*
D03*
X97143D02*
D03*
X99185Y84842D02*
D03*
X98816D02*
D03*
X91641Y80403D02*
D03*
X92010D02*
D03*
G54D68*
X99456Y80161D02*
D03*
X100991D02*
D03*
Y79964D02*
D03*
Y79767D02*
D03*
Y79570D02*
D03*
Y79373D02*
D03*
X99456Y79964D02*
D03*
Y79767D02*
D03*
Y79570D02*
D03*
Y79373D02*
D03*
G54D69*
X100495Y79767D02*
D03*
X99945D02*
D03*
X100223Y80047D02*
D03*
Y79497D02*
D03*
X99604Y76362D02*
D03*
X100154D02*
D03*
X92665Y81565D02*
D03*
X93215D02*
D03*
X90912Y79508D02*
D03*
X90362D02*
D03*
G54D70*
X101850Y76492D02*
X101914D01*
Y77078D01*
X101850D01*
Y76492D01*
X102736Y77000D02*
X103420D01*
Y77054D01*
X102736D01*
Y77000D01*
X99714Y85012D02*
X99798D01*
Y85312D01*
X99714D01*
Y85012D01*
G54D71*
X93295Y77874D02*
D03*
Y78071D02*
D03*
Y78267D02*
D03*
X92192Y77874D02*
D03*
Y78071D02*
D03*
Y78267D02*
D03*
G54D76*
X92566Y80147D02*
D03*
X93316D02*
D03*
G54D77*
X92946Y80947D02*
D03*
G54D79*
X102747Y78861D02*
X102799D01*
Y79573D01*
X102747D01*
Y78861D01*
X100916Y81808D02*
X101825D01*
Y81870D01*
X100916D01*
Y81808D01*
G54D81*
X99830Y77346D02*
D03*
Y77897D02*
D03*
X100460D02*
D03*
Y77346D02*
D03*
G54D82*
X94180Y80285D02*
D03*
X99151Y85374D02*
D03*
X93659Y85964D02*
D03*
G54D83*
X104529Y76943D02*
X104619D01*
Y77604D01*
X104529D01*
Y76943D01*
X100041Y83203D02*
X100102D01*
Y84573D01*
X100041D01*
Y83203D01*
G54D84*
X95037Y77612D02*
D03*
Y76712D02*
D03*
G54D88*
X91749Y84429D02*
D03*
G54D89*
X96223Y78071D02*
D03*
X97123D02*
D03*
X96232Y80295D02*
D03*
X95332D02*
D03*
X98033Y80285D02*
D03*
X97133D02*
D03*
G54D90*
X97478Y75835D02*
D03*
Y77185D02*
D03*
X96198Y75845D02*
D03*
Y77195D02*
D03*
X92192Y82628D02*
D03*
X90842D02*
D03*
G54D91*
X105268Y78617D02*
X105298D01*
Y79601D01*
X105268D01*
Y78617D01*
X102078Y80589D02*
X103122D01*
Y80619D01*
X102078D01*
Y80589D01*
G54D95*
X90466Y83509D02*
X92384D01*
Y83528D01*
X90466D01*
Y83509D01*
G54D96*
X100647Y86014D02*
D03*
X94647D02*
D03*
G54D97*
X102986Y76453D02*
X103977D01*
Y76539D01*
X102986D01*
Y76453D01*
X100693Y82004D02*
X101330D01*
Y82021D01*
X100693D01*
Y82004D01*
X100565Y83471D02*
X100572D01*
Y83675D01*
X100565D01*
Y83471D01*
G54D99*
X99306Y75597D02*
X104006D01*
Y75613D01*
X99306D01*
Y75597D01*
X100103Y82704D02*
X103947D01*
Y82758D01*
X100103D01*
Y82704D01*
G54D100*
X90539Y75846D02*
D03*
G54D101*
X104877Y75647D02*
X104950D01*
Y76537D01*
X104877D01*
Y75647D01*
X102525Y82108D02*
X103995D01*
Y82180D01*
X102525D01*
Y82108D01*
X100379Y84535D02*
X100472D01*
Y84962D01*
X100379D01*
Y84535D01*
G54D102*
X100223Y79767D02*
D03*
G54D104*
X105006Y80402D02*
X105048D01*
Y80444D01*
X105006D01*
Y80402D01*
X90597Y83867D02*
X90638D01*
Y85857D01*
X90597D01*
Y83867D01*
G54D106*
X96257Y82608D02*
D03*
M02*
