*%FSLAX24Y24*%
*%MOIN*%
G01*
%ADD11C,0.0010*%
%ADD12C,0.0020*%
%ADD13C,0.0039*%
%ADD14C,0.0073*%
%ADD15C,0.0079*%
%ADD16C,0.0100*%
%ADD17O,0.0110X0.0394*%
%ADD18C,0.0118*%
%ADD19C,0.0120*%
%ADD20O,0.0150X0.0434*%
%ADD21C,0.0197*%
%ADD22C,0.0295*%
%ADD23C,0.0295*%
%ADD24C,0.0300*%
%ADD25C,0.0340*%
%ADD26C,0.0350*%
%ADD27C,0.0354*%
%ADD28C,0.0394*%
%ADD29O,0.0394X0.0110*%
%ADD30C,0.0394*%
%ADD31C,0.0394*%
%ADD32C,0.0400*%
%ADD33O,0.0434X0.0150*%
%ADD34C,0.0440*%
%ADD35C,0.0472*%
%ADD36C,0.0500*%
%ADD37C,0.0540*%
%ADD38C,0.0554*%
%ADD39C,0.0591*%
%ADD40C,0.0594*%
%ADD41C,0.0594*%
%ADD42C,0.0600*%
%ADD43C,0.0631*%
%ADD44C,0.0672*%
%ADD45C,0.1000*%
%ADD46C,0.1040*%
%ADD47C,0.1063*%
%ADD48C,0.1263*%
%ADD49R,0.0020X0.0020*%
%ADD50R,0.0059X0.0059*%
%ADD51R,0.0098X0.0315*%
%ADD52R,0.0100X0.0100*%
%ADD53R,0.0110X0.0299*%
%ADD54R,0.0138X0.0500*%
%ADD55R,0.0138X0.0355*%
%ADD56R,0.0150X0.0339*%
%ADD57R,0.0157X0.0079*%
%ADD58R,0.0178X0.0540*%
%ADD59R,0.0197X0.0119*%
%ADD60R,0.0200X0.0200*%
%ADD61R,0.0200X0.0250*%
%ADD62R,0.0200X0.0287*%
%ADD63R,0.0240X0.0290*%
%ADD64R,0.0240X0.0327*%
%ADD65R,0.0250X0.0200*%
%ADD66R,0.0287X0.0200*%
%ADD67R,0.0290X0.0240*%
%ADD68R,0.0299X0.0110*%
%ADD69R,0.0300X0.0300*%
%ADD70R,0.0300X0.0300*%
%ADD71R,0.0315X0.0098*%
%ADD72R,0.0327X0.0240*%
%ADD73R,0.0339X0.0150*%
%ADD74R,0.0340X0.0340*%
%ADD75R,0.0355X0.0138*%
%ADD76R,0.0360X0.0360*%
%ADD77R,0.0360X0.0500*%
%ADD78R,0.0400X0.0400*%
%ADD79R,0.0400X0.0400*%
%ADD80R,0.0400X0.0540*%
%ADD81R,0.0472X0.0433*%
%ADD82R,0.0500X0.0500*%
%ADD83R,0.0500X0.0500*%
%ADD84R,0.0500X0.0600*%
%ADD85R,0.0512X0.0473*%
%ADD86R,0.0540X0.0540*%
%ADD87R,0.0540X0.0640*%
%ADD88R,0.0591X0.0591*%
%ADD89R,0.0600X0.0500*%
%ADD90R,0.0600X0.0600*%
%ADD91R,0.0600X0.0600*%
%ADD92R,0.0631X0.0631*%
%ADD93R,0.0640X0.0540*%
%ADD94R,0.0640X0.0640*%
%ADD95R,0.0700X0.0700*%
%ADD96R,0.0787X0.0472*%
%ADD97R,0.0800X0.0800*%
%ADD98R,0.0827X0.0512*%
%ADD99R,0.0900X0.0900*%
%ADD100R,0.1000X0.1000*%
%ADD101R,0.1000X0.1000*%
%ADD102R,0.1024X0.1024*%
%ADD103R,0.1040X0.1040*%
%ADD104R,0.1100X0.1100*%
%ADD105R,0.1200X0.1200*%
%ADD106R,0.1339X0.1358*%
%ADD107R,0.1400X0.1400*%
%ADD108R,0.1500X0.1500*%
%ADD109R,0.1800X0.1800*%
%ADD110R,0.2200X0.2200*%
%ADD111R,0.2300X0.2300*%
G54D11*
X95919Y86138D02*
Y86471D01*
X96085Y86637D01*
X96252Y86471D01*
Y86138D01*
Y86387D01*
X95919D01*
X90210Y77454D02*
Y76954D01*
X90460D01*
X90543Y77038D01*
Y77121D01*
X90460Y77204D01*
X90210D01*
X90211D01*
X90210D02*
X90211D01*
X90210D02*
X90211D01*
X90210D02*
X90460D01*
X90543Y77288D01*
Y77371D01*
X90460Y77454D01*
X90210D01*
X92428Y75801D02*
X92512Y75717D01*
X92428Y75801D02*
X92262D01*
X92178Y75717D01*
Y75384D01*
X92262Y75301D01*
X92428D01*
X92512Y75384D01*
X92886Y75717D02*
X92802Y75801D01*
X92636D01*
X92553Y75717D01*
Y75384D01*
X92636Y75301D01*
X92802D01*
X92886Y75384D01*
X93171Y76653D02*
X93088Y76736D01*
X92921D01*
X92838Y76653D01*
Y76319D01*
X92921Y76236D01*
X93088D01*
X93171Y76319D01*
X92492Y76731D02*
X92409Y76815D01*
X92242D01*
X92159Y76731D01*
Y76398D01*
X92242Y76315D01*
X92409D01*
X92492Y76398D01*
X92827Y77204D02*
X92743Y77287D01*
X92577D01*
X92493Y77204D01*
Y76870D01*
X92577Y76787D01*
X92743D01*
X92827Y76870D01*
X91774Y77676D02*
X91690Y77759D01*
X91524D01*
X91440Y77676D01*
Y77343D01*
X91524Y77260D01*
X91690D01*
X91774Y77343D01*
X92197Y79074D02*
X92113Y79157D01*
X91947D01*
X91864Y79074D01*
Y78741D01*
X91947Y78657D01*
X92113D01*
X92197Y78741D01*
X92502Y80777D02*
X92419Y80860D01*
X92252D01*
X92169Y80777D01*
Y80443D01*
X92252Y80360D01*
X92419D01*
X92502Y80443D01*
X92748Y82184D02*
X92665Y82267D01*
X92498D01*
X92415Y82184D01*
Y81851D01*
X92498Y81767D01*
X92665D01*
X92748Y81851D01*
X92610Y83414D02*
X92527Y83498D01*
X92360D01*
X92277Y83414D01*
Y83081D01*
X92360Y82998D01*
X92527D01*
X92610Y83081D01*
X91882Y83424D02*
X91798Y83507D01*
X91632D01*
X91549Y83424D01*
Y83091D01*
X91632Y83008D01*
X91798D01*
X91882Y83091D01*
X90287Y83660D02*
X90204Y83744D01*
X90037D01*
X89954Y83660D01*
Y83327D01*
X90037Y83244D01*
X90204D01*
X90287Y83327D01*
X90125Y82631D02*
X90209Y82548D01*
X90125Y82631D02*
X89959D01*
X89875Y82548D01*
Y82215D01*
X89959Y82132D01*
X90125D01*
X90209Y82215D01*
X90480Y82267D02*
X90563Y82184D01*
X90480Y82267D02*
X90313D01*
X90230Y82184D01*
Y81851D01*
X90313Y81767D01*
X90480D01*
X90563Y81851D01*
X91533Y81913D02*
X91616Y81830D01*
X91533Y81913D02*
X91366D01*
X91283Y81830D01*
Y81496D01*
X91366Y81413D01*
X91533D01*
X91616Y81496D01*
X90248Y80255D02*
X90165Y80338D01*
X89998D01*
X89915Y80255D01*
Y79922D01*
X89998Y79838D01*
X90165D01*
X90248Y79922D01*
X94702Y79954D02*
X94785Y79871D01*
X94702Y79954D02*
X94535D01*
X94452Y79871D01*
Y79538D01*
X94535Y79454D01*
X94702D01*
X94785Y79538D01*
X94963Y81111D02*
X94879Y81194D01*
X94713D01*
X94629Y81111D01*
Y80778D01*
X94713Y80695D01*
X94879D01*
X94963Y80778D01*
X95258Y81712D02*
X95174Y81795D01*
X95008D01*
X94925Y81712D01*
Y81378D01*
X95008Y81295D01*
X95174D01*
X95258Y81378D01*
X94835Y82115D02*
X94751Y82198D01*
X94585D01*
X94501Y82115D01*
Y81782D01*
X94585Y81699D01*
X94751D01*
X94835Y81782D01*
X94529Y82971D02*
X94446Y83055D01*
X94280D01*
X94196Y82971D01*
Y82638D01*
X94280Y82555D01*
X94446D01*
X94529Y82638D01*
X94559Y83385D02*
X94476Y83468D01*
X94309D01*
X94226Y83385D01*
Y83052D01*
X94309Y82968D01*
X94476D01*
X94559Y83052D01*
X94864Y83710D02*
X94781Y83793D01*
X94614D01*
X94531Y83710D01*
Y83376D01*
X94614Y83293D01*
X94781D01*
X94864Y83376D01*
X95130Y84192D02*
X95047Y84275D01*
X94880D01*
X94797Y84192D01*
Y83859D01*
X94880Y83775D01*
X95047D01*
X95130Y83859D01*
X95120Y85088D02*
X95037Y85171D01*
X94870D01*
X94787Y85088D01*
Y84754D01*
X94870Y84671D01*
X95037D01*
X95120Y84754D01*
X94716Y85530D02*
X94633Y85614D01*
X94467D01*
X94383Y85530D01*
Y85197D01*
X94467Y85114D01*
X94633D01*
X94716Y85197D01*
X94214Y85540D02*
X94131Y85624D01*
X93965D01*
X93881Y85540D01*
Y85207D01*
X93965Y85124D01*
X94131D01*
X94214Y85207D01*
X93122Y85324D02*
X93039Y85407D01*
X92872D01*
X92789Y85324D01*
Y84991D01*
X92872Y84907D01*
X93039D01*
X93122Y84991D01*
X93127Y84246D02*
X93211Y84162D01*
X93127Y84246D02*
X92961D01*
X92877Y84162D01*
Y83829D01*
X92961Y83746D01*
X93127D01*
X93211Y83829D01*
X94141Y83921D02*
X94224Y83838D01*
X94141Y83921D02*
X93974D01*
X93891Y83838D01*
Y83504D01*
X93974Y83421D01*
X94141D01*
X94224Y83504D01*
X96287Y84659D02*
X96370Y84576D01*
X96287Y84659D02*
X96120D01*
X96037Y84576D01*
Y84243D01*
X96120Y84159D01*
X96287D01*
X96370Y84243D01*
X96006Y84960D02*
X95923Y85043D01*
X95756D01*
X95673Y84960D01*
Y84626D01*
X95756Y84543D01*
X95923D01*
X96006Y84626D01*
X96744Y85383D02*
X96661Y85466D01*
X96494D01*
X96411Y85383D01*
Y85050D01*
X96494Y84966D01*
X96661D01*
X96744Y85050D01*
X96356Y81086D02*
X96439Y81003D01*
X96356Y81086D02*
X96189D01*
X96106Y81003D01*
Y80670D01*
X96189Y80586D01*
X96356D01*
X96439Y80670D01*
X96690Y79984D02*
X96774Y79901D01*
X96690Y79984D02*
X96524D01*
X96440Y79901D01*
Y79567D01*
X96524Y79484D01*
X96690D01*
X96774Y79567D01*
X95598Y78320D02*
X95681Y78237D01*
X95598Y78320D02*
X95431D01*
X95348Y78237D01*
Y77904D01*
X95431Y77821D01*
X95598D01*
X95681Y77904D01*
X95130Y78493D02*
X95047Y78576D01*
X94880D01*
X94797Y78493D01*
Y78160D01*
X94880Y78077D01*
X95047D01*
X95130Y78160D01*
X94559Y78444D02*
X94476Y78527D01*
X94309D01*
X94226Y78444D01*
Y78111D01*
X94309Y78027D01*
X94476D01*
X94559Y78111D01*
X94397Y77248D02*
X94480Y77164D01*
X94397Y77248D02*
X94230D01*
X94147Y77164D01*
Y76831D01*
X94230Y76748D01*
X94397D01*
X94480Y76831D01*
X94397Y76332D02*
X94480Y76249D01*
X94397Y76332D02*
X94230D01*
X94147Y76249D01*
Y75916D01*
X94230Y75832D01*
X94397D01*
X94480Y75916D01*
X95539Y76322D02*
X95622Y76239D01*
X95539Y76322D02*
X95372D01*
X95289Y76239D01*
Y75906D01*
X95372Y75823D01*
X95539D01*
X95622Y75906D01*
X90307Y85235D02*
X90224Y85318D01*
X90057D01*
X89974Y85235D01*
Y84902D01*
X90057Y84819D01*
X90224D01*
X90307Y84902D01*
Y86367D02*
X90224Y86450D01*
X90057D01*
X89974Y86367D01*
Y86034D01*
X90057Y85951D01*
X90224D01*
X90307Y86034D01*
X96759Y84305D02*
X96842Y84221D01*
X96759Y84305D02*
X96593D01*
X96509Y84221D01*
Y83888D01*
X96593Y83805D01*
X96759D01*
X96842Y83888D01*
X98501Y84364D02*
X98585Y84280D01*
X98501Y84364D02*
X98335D01*
X98251Y84280D01*
Y83947D01*
X98335Y83864D01*
X98501D01*
X98585Y83947D01*
X98289Y85028D02*
X98206Y85112D01*
X98039D01*
X97956Y85028D01*
Y84695D01*
X98039Y84612D01*
X98206D01*
X98289Y84695D01*
X99466Y84738D02*
X99549Y84654D01*
X99466Y84738D02*
X99299D01*
X99216Y84654D01*
Y84321D01*
X99299Y84238D01*
X99466D01*
X99549Y84321D01*
X99987Y84295D02*
X100071Y84212D01*
X99987Y84295D02*
X99821D01*
X99738Y84212D01*
Y83878D01*
X99821Y83795D01*
X99987D01*
X100071Y83878D01*
X100804Y84324D02*
X100888Y84241D01*
X100804Y84324D02*
X100638D01*
X100554Y84241D01*
Y83908D01*
X100638Y83825D01*
X100804D01*
X100888Y83908D01*
X100405Y83591D02*
X100322Y83675D01*
X100156D01*
X100072Y83591D01*
Y83258D01*
X100156Y83175D01*
X100322D01*
X100405Y83258D01*
X100696Y83065D02*
X100779Y82981D01*
X100696Y83065D02*
X100530D01*
X100446Y82981D01*
Y82648D01*
X100530Y82565D01*
X100696D01*
X100779Y82648D01*
X100696Y82277D02*
X100779Y82194D01*
X100696Y82277D02*
X100530D01*
X100446Y82194D01*
Y81861D01*
X100530Y81777D01*
X100696D01*
X100779Y81861D01*
X100297Y81918D02*
X100214Y82002D01*
X100047D01*
X99964Y81918D01*
Y81585D01*
X100047Y81502D01*
X100214D01*
X100297Y81585D01*
X100169Y82509D02*
X100086Y82592D01*
X99919D01*
X99836Y82509D01*
Y82176D01*
X99919Y82092D01*
X100086D01*
X100169Y82176D01*
X99894Y82981D02*
X99810Y83065D01*
X99644D01*
X99560Y82981D01*
Y82648D01*
X99644Y82565D01*
X99810D01*
X99894Y82648D01*
X99087Y82952D02*
X99003Y83035D01*
X98837D01*
X98753Y82952D01*
Y82618D01*
X98837Y82535D01*
X99003D01*
X99087Y82618D01*
X99318Y82120D02*
X99401Y82036D01*
X99318Y82120D02*
X99152D01*
X99068Y82036D01*
Y81703D01*
X99152Y81620D01*
X99318D01*
X99401Y81703D01*
X98132Y82125D02*
X98048Y82208D01*
X97882D01*
X97799Y82125D01*
Y81792D01*
X97882Y81708D01*
X98048D01*
X98132Y81792D01*
X97817Y81712D02*
X97734Y81795D01*
X97567D01*
X97484Y81712D01*
Y81378D01*
X97567Y81295D01*
X97734D01*
X97817Y81378D01*
X97335Y81702D02*
X97251Y81785D01*
X97085D01*
X97001Y81702D01*
Y81369D01*
X97085Y81285D01*
X97251D01*
X97335Y81369D01*
X97905Y83198D02*
X97822Y83281D01*
X97656D01*
X97572Y83198D01*
Y82865D01*
X97656Y82781D01*
X97822D01*
X97905Y82865D01*
X97704Y79974D02*
X97787Y79891D01*
X97704Y79974D02*
X97537D01*
X97454Y79891D01*
Y79557D01*
X97537Y79474D01*
X97704D01*
X97787Y79557D01*
X97665Y79433D02*
X97748Y79349D01*
X97665Y79433D02*
X97498D01*
X97415Y79349D01*
Y79016D01*
X97498Y78933D01*
X97665D01*
X97748Y79016D01*
X97335Y79025D02*
X97251Y79108D01*
X97085D01*
X97001Y79025D01*
Y78691D01*
X97085Y78608D01*
X97251D01*
X97335Y78691D01*
X98058Y78773D02*
X98142Y78690D01*
X98058Y78773D02*
X97892D01*
X97808Y78690D01*
Y78357D01*
X97892Y78273D01*
X98058D01*
X98142Y78357D01*
X97994Y78208D02*
X97911Y78291D01*
X97744D01*
X97661Y78208D01*
Y77874D01*
X97744Y77791D01*
X97911D01*
X97994Y77874D01*
X98304Y77553D02*
X98388Y77469D01*
X98304Y77553D02*
X98138D01*
X98054Y77469D01*
Y77136D01*
X98138Y77053D01*
X98304D01*
X98388Y77136D01*
X98713Y77460D02*
X98629Y77543D01*
X98463D01*
X98379Y77460D01*
Y77126D01*
X98463Y77043D01*
X98629D01*
X98713Y77126D01*
X99121Y76923D02*
X99205Y76840D01*
X99121Y76923D02*
X98955D01*
X98871Y76840D01*
Y76506D01*
X98955Y76423D01*
X99121D01*
X99205Y76506D01*
X99087Y76406D02*
X99003Y76490D01*
X98837D01*
X98753Y76406D01*
Y76073D01*
X98837Y75990D01*
X99003D01*
X99087Y76073D01*
X99687Y76951D02*
X99603Y77035D01*
X99437D01*
X99353Y76951D01*
Y76618D01*
X99437Y76535D01*
X99603D01*
X99687Y76618D01*
X100174Y77035D02*
X100257Y76951D01*
X100174Y77035D02*
X100007D01*
X99924Y76951D01*
Y76618D01*
X100007Y76535D01*
X100174D01*
X100257Y76618D01*
X101074Y77483D02*
X100991Y77566D01*
X100824D01*
X100741Y77483D01*
Y77150D01*
X100824Y77066D01*
X100991D01*
X101074Y77150D01*
X101857Y77320D02*
X101940Y77237D01*
X101857Y77320D02*
X101691D01*
X101607Y77237D01*
Y76904D01*
X101691Y76820D01*
X101857D01*
X101940Y76904D01*
X101857Y76602D02*
X101940Y76518D01*
X101857Y76602D02*
X101691D01*
X101607Y76518D01*
Y76185D01*
X101691Y76102D01*
X101857D01*
X101940Y76185D01*
X102793Y76746D02*
X102876Y76662D01*
X102793Y76746D02*
X102626D01*
X102543Y76662D01*
Y76329D01*
X102626Y76246D01*
X102793D01*
X102876Y76329D01*
X102856Y77204D02*
X102773Y77287D01*
X102606D01*
X102523Y77204D01*
Y76870D01*
X102606Y76787D01*
X102773D01*
X102856Y76870D01*
X103482Y77169D02*
X103565Y77086D01*
X103482Y77169D02*
X103315D01*
X103232Y77086D01*
Y76752D01*
X103315Y76669D01*
X103482D01*
X103565Y76752D01*
X103482Y76490D02*
X103565Y76406D01*
X103482Y76490D02*
X103315D01*
X103232Y76406D01*
Y76073D01*
X103315Y75990D01*
X103482D01*
X103565Y76073D01*
X104214Y76741D02*
X104131Y76824D01*
X103965D01*
X103881Y76741D01*
Y76408D01*
X103965Y76325D01*
X104131D01*
X104214Y76408D01*
X104190Y76214D02*
X104274Y76131D01*
X104190Y76214D02*
X104024D01*
X103940Y76131D01*
Y75798D01*
X104024Y75714D01*
X104190D01*
X104274Y75798D01*
X104712Y76254D02*
X104795Y76170D01*
X104712Y76254D02*
X104545D01*
X104462Y76170D01*
Y75837D01*
X104545Y75754D01*
X104712D01*
X104795Y75837D01*
X105218Y76426D02*
X105135Y76509D01*
X104968D01*
X104885Y76426D01*
Y76093D01*
X104968Y76010D01*
X105135D01*
X105218Y76093D01*
X105209Y77066D02*
X105125Y77149D01*
X104959D01*
X104875Y77066D01*
Y76733D01*
X104959Y76649D01*
X105125D01*
X105209Y76733D01*
X105543Y77332D02*
X105460Y77415D01*
X105293D01*
X105210Y77332D01*
Y76998D01*
X105293Y76915D01*
X105460D01*
X105543Y76998D01*
X105573Y77814D02*
X105489Y77897D01*
X105323D01*
X105240Y77814D01*
Y77481D01*
X105323Y77397D01*
X105489D01*
X105573Y77481D01*
X104697Y77834D02*
X104613Y77917D01*
X104447D01*
X104364Y77834D01*
Y77500D01*
X104447Y77417D01*
X104613D01*
X104697Y77500D01*
X104545Y77198D02*
X104628Y77115D01*
X104545Y77198D02*
X104378D01*
X104295Y77115D01*
Y76782D01*
X104378Y76699D01*
X104545D01*
X104628Y76782D01*
X105480Y76864D02*
X105563Y76780D01*
X105480Y76864D02*
X105313D01*
X105230Y76780D01*
Y76447D01*
X105313Y76364D01*
X105480D01*
X105563Y76447D01*
X105189Y78631D02*
X105106Y78714D01*
X104939D01*
X104856Y78631D01*
Y78298D01*
X104939Y78214D01*
X105106D01*
X105189Y78298D01*
X105524Y79084D02*
X105440Y79167D01*
X105274D01*
X105190Y79084D01*
Y78750D01*
X105274Y78667D01*
X105440D01*
X105524Y78750D01*
X105425Y79684D02*
X105342Y79767D01*
X105175D01*
X105092Y79684D01*
Y79351D01*
X105175Y79267D01*
X105342D01*
X105425Y79351D01*
X105297Y80265D02*
X105214Y80348D01*
X105047D01*
X104964Y80265D01*
Y79931D01*
X105047Y79848D01*
X105214D01*
X105297Y79931D01*
X104756Y80137D02*
X104673Y80220D01*
X104506D01*
X104423Y80137D01*
Y79804D01*
X104506Y79720D01*
X104673D01*
X104756Y79804D01*
X104795Y80583D02*
X104711Y80667D01*
X104545D01*
X104462Y80583D01*
Y80250D01*
X104545Y80167D01*
X104711D01*
X104795Y80250D01*
Y81371D02*
X104711Y81454D01*
X104545D01*
X104462Y81371D01*
Y81037D01*
X104545Y80954D01*
X104711D01*
X104795Y81037D01*
X104392Y81692D02*
X104308Y81775D01*
X104142D01*
X104058Y81692D01*
Y81359D01*
X104142Y81275D01*
X104308D01*
X104392Y81359D01*
X104716Y82194D02*
X104633Y82277D01*
X104467D01*
X104383Y82194D01*
Y81861D01*
X104467Y81777D01*
X104633D01*
X104716Y81861D01*
Y82981D02*
X104633Y83065D01*
X104467D01*
X104383Y82981D01*
Y82648D01*
X104467Y82565D01*
X104633D01*
X104716Y82648D01*
X103929Y82981D02*
X103846Y83065D01*
X103679D01*
X103596Y82981D01*
Y82648D01*
X103679Y82565D01*
X103846D01*
X103929Y82648D01*
X103142Y82981D02*
X103058Y83065D01*
X102892D01*
X102808Y82981D01*
Y82648D01*
X102892Y82565D01*
X103058D01*
X103142Y82648D01*
X103058Y82277D02*
X103142Y82194D01*
X103058Y82277D02*
X102892D01*
X102808Y82194D01*
Y81861D01*
X102892Y81777D01*
X103058D01*
X103142Y81861D01*
X103846Y82277D02*
X103929Y82194D01*
X103846Y82277D02*
X103679D01*
X103596Y82194D01*
Y81861D01*
X103679Y81777D01*
X103846D01*
X103929Y81861D01*
X102354Y82194D02*
X102271Y82277D01*
X102104D01*
X102021Y82194D01*
Y81861D01*
X102104Y81777D01*
X102271D01*
X102354Y81861D01*
Y82981D02*
X102271Y83065D01*
X102104D01*
X102021Y82981D01*
Y82648D01*
X102104Y82565D01*
X102271D01*
X102354Y82648D01*
X101567Y82981D02*
X101484Y83065D01*
X101317D01*
X101234Y82981D01*
Y82648D01*
X101317Y82565D01*
X101484D01*
X101567Y82648D01*
X101484Y82277D02*
X101567Y82194D01*
X101484Y82277D02*
X101317D01*
X101234Y82194D01*
Y81861D01*
X101317Y81777D01*
X101484D01*
X101567Y81861D01*
X101916Y80755D02*
X102000Y80672D01*
X101916Y80755D02*
X101750D01*
X101666Y80672D01*
Y80339D01*
X101750Y80255D01*
X101916D01*
X102000Y80339D01*
X102596Y80791D02*
X102679Y80708D01*
X102596Y80791D02*
X102429D01*
X102346Y80708D01*
Y80374D01*
X102429Y80291D01*
X102596D01*
X102679Y80374D01*
X103413Y80781D02*
X103496Y80698D01*
X103413Y80781D02*
X103246D01*
X103163Y80698D01*
Y80365D01*
X103246Y80281D01*
X103413D01*
X103496Y80365D01*
X103560Y79226D02*
X103644Y79143D01*
X103560Y79226D02*
X103394D01*
X103310Y79143D01*
Y78809D01*
X103394Y78726D01*
X103560D01*
X103644Y78809D01*
X102935Y79087D02*
X102851Y79170D01*
X102685D01*
X102601Y79087D01*
Y78754D01*
X102685Y78671D01*
X102851D01*
X102935Y78754D01*
X102767Y79461D02*
X102684Y79544D01*
X102517D01*
X102434Y79461D01*
Y79128D01*
X102517Y79045D01*
X102684D01*
X102767Y79128D01*
X104229Y79338D02*
X104313Y79254D01*
X104229Y79338D02*
X104063D01*
X103979Y79254D01*
Y78921D01*
X104063Y78838D01*
X104229D01*
X104313Y78921D01*
X103963Y78235D02*
X104047Y78152D01*
X103963Y78235D02*
X103797D01*
X103714Y78152D01*
Y77819D01*
X103797Y77736D01*
X103963D01*
X104047Y77819D01*
X103722Y77837D02*
X103639Y77920D01*
X103472D01*
X103389Y77837D01*
Y77504D01*
X103472Y77421D01*
X103639D01*
X103722Y77504D01*
X100877Y78723D02*
X100794Y78806D01*
X100628D01*
X100544Y78723D01*
Y78390D01*
X100628Y78306D01*
X100794D01*
X100877Y78390D01*
X100208Y78497D02*
X100125Y78580D01*
X99958D01*
X99875Y78497D01*
Y78163D01*
X99958Y78080D01*
X100125D01*
X100208Y78163D01*
X99067Y79202D02*
X98984Y79285D01*
X98817D01*
X98734Y79202D01*
Y78869D01*
X98817Y78785D01*
X98984D01*
X99067Y78869D01*
X98713Y80304D02*
X98629Y80387D01*
X98463D01*
X98379Y80304D01*
Y79971D01*
X98463Y79888D01*
X98629D01*
X98713Y79971D01*
X99480Y80731D02*
X99397Y80814D01*
X99230D01*
X99147Y80731D01*
Y80398D01*
X99230Y80314D01*
X99397D01*
X99480Y80398D01*
X100991Y80794D02*
X101074Y80711D01*
X100991Y80794D02*
X100824D01*
X100741Y80711D01*
Y80378D01*
X100824Y80295D01*
X100991D01*
X101074Y80378D01*
X105342Y81106D02*
X105425Y81023D01*
X105342Y81106D02*
X105175D01*
X105092Y81023D01*
Y80689D01*
X105175Y80606D01*
X105342D01*
X105425Y80689D01*
Y81830D02*
X105342Y81913D01*
X105175D01*
X105092Y81830D01*
Y81496D01*
X105175Y81413D01*
X105342D01*
X105425Y81496D01*
X105376Y82627D02*
X105293Y82710D01*
X105126D01*
X105043Y82627D01*
Y82294D01*
X105126Y82210D01*
X105293D01*
X105376Y82294D01*
X107383Y82565D02*
X107466Y82482D01*
X107383Y82565D02*
X107216D01*
X107133Y82482D01*
Y82148D01*
X107216Y82065D01*
X107383D01*
X107466Y82148D01*
X107383Y81777D02*
X107466Y81694D01*
X107383Y81777D02*
X107216D01*
X107133Y81694D01*
Y81361D01*
X107216Y81278D01*
X107383D01*
X107466Y81361D01*
X107495Y81681D02*
X107412Y81765D01*
X107246D01*
X107162Y81681D01*
Y81348D01*
X107246Y81265D01*
X107412D01*
X107495Y81348D01*
X107383Y80990D02*
X107466Y80907D01*
X107383Y80990D02*
X107216D01*
X107133Y80907D01*
Y80574D01*
X107216Y80490D01*
X107383D01*
X107466Y80574D01*
X107383Y80203D02*
X107466Y80119D01*
X107383Y80203D02*
X107216D01*
X107133Y80119D01*
Y79786D01*
X107216Y79703D01*
X107383D01*
X107466Y79786D01*
X109745Y80203D02*
X109829Y80119D01*
X109745Y80203D02*
X109579D01*
X109495Y80119D01*
Y79786D01*
X109579Y79703D01*
X109745D01*
X109829Y79786D01*
Y80907D02*
X109745Y80990D01*
X109579D01*
X109495Y80907D01*
Y80574D01*
X109579Y80490D01*
X109745D01*
X109829Y80574D01*
Y81694D02*
X109745Y81777D01*
X109579D01*
X109495Y81694D01*
Y81361D01*
X109579Y81278D01*
X109745D01*
X109829Y81361D01*
Y82482D02*
X109745Y82565D01*
X109579D01*
X109495Y82482D01*
Y82148D01*
X109579Y82065D01*
X109745D01*
X109829Y82148D01*
Y83269D02*
X109745Y83352D01*
X109579D01*
X109495Y83269D01*
Y82936D01*
X109579Y82852D01*
X109745D01*
X109829Y82936D01*
Y84056D02*
X109745Y84140D01*
X109579D01*
X109495Y84056D01*
Y83723D01*
X109579Y83640D01*
X109745D01*
X109829Y83723D01*
Y84844D02*
X109745Y84927D01*
X109579D01*
X109495Y84844D01*
Y84511D01*
X109579Y84427D01*
X109745D01*
X109829Y84511D01*
Y85631D02*
X109745Y85714D01*
X109579D01*
X109495Y85631D01*
Y85298D01*
X109579Y85215D01*
X109745D01*
X109829Y85298D01*
Y86419D02*
X109745Y86502D01*
X109579D01*
X109495Y86419D01*
Y86085D01*
X109579Y86002D01*
X109745D01*
X109829Y86085D01*
X107466Y86419D02*
X107383Y86502D01*
X107216D01*
X107133Y86419D01*
Y86085D01*
X107216Y86002D01*
X107383D01*
X107466Y86085D01*
X107383Y85714D02*
X107466Y85631D01*
X107383Y85714D02*
X107216D01*
X107133Y85631D01*
Y85298D01*
X107216Y85215D01*
X107383D01*
X107466Y85298D01*
X107383Y84927D02*
X107466Y84844D01*
X107383Y84927D02*
X107216D01*
X107133Y84844D01*
Y84511D01*
X107216Y84427D01*
X107383D01*
X107466Y84511D01*
X107383Y84140D02*
X107466Y84056D01*
X107383Y84140D02*
X107216D01*
X107133Y84056D01*
Y83723D01*
X107216Y83640D01*
X107383D01*
X107466Y83723D01*
X107383Y83352D02*
X107466Y83269D01*
X107383Y83352D02*
X107216D01*
X107133Y83269D01*
Y82936D01*
X107216Y82852D01*
X107383D01*
X107466Y82936D01*
X109745Y79415D02*
X109829Y79332D01*
X109745Y79415D02*
X109579D01*
X109495Y79332D01*
Y78999D01*
X109579Y78915D01*
X109745D01*
X109829Y78999D01*
X96921Y76239D02*
X96838Y76322D01*
X96671D01*
X96588Y76239D01*
Y75906D01*
X96671Y75823D01*
X96838D01*
X96921Y75906D01*
X99234Y86298D02*
X99151Y86381D01*
X98984D01*
X98901Y86298D01*
Y85965D01*
X98984Y85882D01*
X99151D01*
X99234Y85965D01*
X99269Y75998D02*
X99352Y75914D01*
X99269Y75998D02*
X99102D01*
X99019Y75914D01*
Y75581D01*
X99102Y75498D01*
X99269D01*
X99352Y75581D01*
X99087Y75452D02*
X99003Y75535D01*
X98837D01*
X98753Y75452D01*
Y75119D01*
X98837Y75035D01*
X99003D01*
X99087Y75119D01*
X99663Y75525D02*
X99746Y75442D01*
X99663Y75525D02*
X99496D01*
X99413Y75442D01*
Y75109D01*
X99496Y75025D01*
X99663D01*
X99746Y75109D01*
X100558Y75525D02*
X100642Y75442D01*
X100558Y75525D02*
X100392D01*
X100308Y75442D01*
Y75109D01*
X100392Y75025D01*
X100558D01*
X100642Y75109D01*
X101075Y75895D02*
X100991Y75978D01*
X100825D01*
X100741Y75895D01*
Y75561D01*
X100825Y75478D01*
X100991D01*
X101075Y75561D01*
X101877Y75978D02*
X101961Y75895D01*
X101877Y75978D02*
X101711D01*
X101627Y75895D01*
Y75561D01*
X101711Y75478D01*
X101877D01*
X101961Y75561D01*
X102300Y75525D02*
X102384Y75442D01*
X102300Y75525D02*
X102134D01*
X102051Y75442D01*
Y75109D01*
X102134Y75025D01*
X102300D01*
X102384Y75109D01*
X103068Y75496D02*
X103151Y75412D01*
X103068Y75496D02*
X102902D01*
X102818Y75412D01*
Y75079D01*
X102902Y74996D01*
X103068D01*
X103151Y75079D01*
X102846Y75895D02*
X102763Y75978D01*
X102596D01*
X102513Y75895D01*
Y75561D01*
X102596Y75478D01*
X102763D01*
X102846Y75561D01*
X103511Y75919D02*
X103594Y75836D01*
X103511Y75919D02*
X103344D01*
X103261Y75836D01*
Y75502D01*
X103344Y75419D01*
X103511D01*
X103594Y75502D01*
X104023Y75545D02*
X104106Y75462D01*
X104023Y75545D02*
X103856D01*
X103773Y75462D01*
Y75128D01*
X103856Y75045D01*
X104023D01*
X104106Y75128D01*
X104860Y75545D02*
X104943Y75462D01*
X104860Y75545D02*
X104693D01*
X104610Y75462D01*
Y75128D01*
X104693Y75045D01*
X104860D01*
X104943Y75128D01*
X105484Y75845D02*
X105401Y75929D01*
X105234D01*
X105151Y75845D01*
Y75512D01*
X105234Y75429D01*
X105401D01*
X105484Y75512D01*
X101547Y75412D02*
X101464Y75496D01*
X101297D01*
X101214Y75412D01*
Y75079D01*
X101297Y74996D01*
X101464D01*
X101547Y75079D01*
X100189Y75895D02*
X100106Y75978D01*
X99939D01*
X99856Y75895D01*
Y75561D01*
X99939Y75478D01*
X100106D01*
X100189Y75561D01*
X98388Y75708D02*
X98304Y75791D01*
X98138D01*
X98054Y75708D01*
Y75374D01*
X98138Y75291D01*
X98304D01*
X98388Y75374D01*
X96744Y83168D02*
X96661Y83252D01*
X96494D01*
X96411Y83168D01*
Y82835D01*
X96494Y82752D01*
X96661D01*
X96744Y82835D01*
Y82775D02*
X96661Y82858D01*
X96494D01*
X96411Y82775D01*
Y82441D01*
X96494Y82358D01*
X96661D01*
X96744Y82441D01*
Y82381D02*
X96661Y82464D01*
X96494D01*
X96411Y82381D01*
Y82048D01*
X96494Y81964D01*
X96661D01*
X96744Y82048D01*
X95957Y83168D02*
X95873Y83252D01*
X95707D01*
X95623Y83168D01*
Y82835D01*
X95707Y82752D01*
X95873D01*
X95957Y82835D01*
X96350Y83168D02*
X96267Y83252D01*
X96100D01*
X96017Y83168D01*
Y82835D01*
X96100Y82752D01*
X96267D01*
X96350Y82835D01*
Y82775D02*
X96267Y82858D01*
X96100D01*
X96017Y82775D01*
Y82441D01*
X96100Y82358D01*
X96267D01*
X96350Y82441D01*
X95957Y82775D02*
X95873Y82858D01*
X95707D01*
X95623Y82775D01*
Y82441D01*
X95707Y82358D01*
X95873D01*
X95957Y82441D01*
Y82381D02*
X95873Y82464D01*
X95707D01*
X95623Y82381D01*
Y82048D01*
X95707Y81964D01*
X95873D01*
X95957Y82048D01*
X96350Y82381D02*
X96267Y82464D01*
X96100D01*
X96017Y82381D01*
Y82048D01*
X96100Y81964D01*
X96267D01*
X96350Y82048D01*
X104147Y83667D02*
Y84167D01*
Y83667D02*
X104397D01*
X104480Y83750D01*
Y84084D01*
X104397Y84167D01*
X104147D01*
X101547Y85467D02*
Y85967D01*
Y85467D02*
X101797D01*
X101880Y85550D01*
Y85884D01*
X101797Y85967D01*
X101547D01*
Y84167D02*
Y83667D01*
X101797D01*
X101880Y83750D01*
Y84084D01*
X101797Y84167D01*
X101547D01*
X104147Y85967D02*
X104480D01*
X104147D02*
Y85467D01*
X104480D01*
X104314Y85717D02*
X104147D01*
X93930Y80368D02*
Y80035D01*
Y80368D02*
X94097Y80535D01*
X94264Y80368D01*
Y80035D01*
Y80285D01*
X93930D01*
Y81035D02*
Y81368D01*
X94097Y81535D01*
X94264Y81368D01*
Y81035D01*
Y81285D01*
X93930D01*
X95901Y85124D02*
Y85457D01*
X96068Y85624D01*
X96234Y85457D01*
Y85124D01*
Y85374D01*
X95901D01*
X96901Y85457D02*
Y85124D01*
Y85457D02*
X97068Y85624D01*
X97234Y85457D01*
Y85124D01*
Y85374D01*
X96901D01*
X97901Y85457D02*
Y85124D01*
Y85457D02*
X98068Y85624D01*
X98234Y85457D01*
Y85124D01*
Y85374D01*
X97901D01*
X98901Y85457D02*
Y85124D01*
Y85457D02*
X99068Y85624D01*
X99234Y85457D01*
Y85124D01*
Y85374D01*
X98901D01*
X93409Y85714D02*
Y86048D01*
X93575Y86214D01*
X93742Y86048D01*
Y85714D01*
Y85964D01*
X93409D01*
X91833Y85958D02*
X91499D01*
Y85708D01*
X91666D01*
X91499D01*
Y85458D01*
Y84679D02*
X91833D01*
X91499D02*
Y84429D01*
X91666D01*
X91499D01*
Y84179D01*
X90622Y78832D02*
X90289D01*
Y78582D01*
X90455D01*
X90289D01*
Y78332D01*
X90289Y76096D02*
X90622D01*
X90289D02*
Y75846D01*
X90455D01*
X90289D01*
Y75596D01*
X89781Y74911D02*
X110263D01*
Y86722D01*
X89781D01*
Y74911D01*
X110253D02*
Y86722D01*
X102133D01*
G54D16*
X94482Y88467D02*
X94318Y88631D01*
X93990D01*
X93826Y88467D01*
Y88303D01*
X93990Y88139D01*
X94318D01*
X94482Y87975D01*
Y87811D01*
X94318Y87647D01*
X93990D01*
X93826Y87811D01*
X94810Y87647D02*
Y88303D01*
X95138Y88631D01*
X95466Y88303D01*
Y87647D01*
Y88139D01*
X94810D01*
X95794Y88631D02*
X96450D01*
X95794D02*
Y87647D01*
X96450D01*
X96122Y88139D02*
X95794D01*
X96778Y88631D02*
X97434D01*
X97106D01*
Y87647D01*
X98746Y88631D02*
X99074D01*
X98910D01*
Y87647D01*
X98746D01*
X99074D01*
X99566D02*
Y87811D01*
X99730D01*
Y87647D01*
X99566D01*
X100878Y88631D02*
X101042Y88467D01*
X100878Y88631D02*
X100550D01*
X100386Y88467D01*
Y88303D01*
X100550Y88139D01*
X100878D01*
X101042Y87975D01*
Y87811D01*
X100878Y87647D01*
X100550D01*
X100386Y87811D01*
X101370D02*
Y87647D01*
Y87811D02*
X101534D01*
Y87647D01*
X101370D01*
X104157D02*
X104649D01*
X104813Y87811D01*
X104649Y87975D01*
X104321D01*
X104157Y88139D01*
X104321Y88303D01*
X104813D01*
X105141Y87811D02*
Y87647D01*
Y87811D02*
X105305D01*
Y87647D01*
X105141D01*
X105961D02*
Y88303D01*
Y87975D02*
Y87647D01*
Y87975D02*
X106125Y88139D01*
X106289Y88303D01*
X106453D01*
X106945Y87811D02*
Y87647D01*
Y87811D02*
X107109D01*
Y87647D01*
X106945D01*
X107765D02*
X108093D01*
X107929D01*
Y88631D01*
X107765D01*
X108585Y87811D02*
Y87647D01*
Y87811D02*
X108749D01*
Y87647D01*
X108585D01*
D02*
M02*
