*%FSLAX24Y24*%
*%MOIN*%
G01*
%ADD11C,0.0010*%
%ADD12C,0.0020*%
%ADD13C,0.0039*%
%ADD14C,0.0073*%
%ADD15C,0.0079*%
%ADD16C,0.0100*%
%ADD17O,0.0110X0.0394*%
%ADD18C,0.0118*%
%ADD19C,0.0120*%
%ADD20O,0.0150X0.0434*%
%ADD21C,0.0197*%
%ADD22C,0.0295*%
%ADD23C,0.0295*%
%ADD24C,0.0300*%
%ADD25C,0.0340*%
%ADD26C,0.0350*%
%ADD27C,0.0354*%
%ADD28C,0.0394*%
%ADD29O,0.0394X0.0110*%
%ADD30C,0.0394*%
%ADD31C,0.0394*%
%ADD32C,0.0400*%
%ADD33O,0.0434X0.0150*%
%ADD34C,0.0440*%
%ADD35C,0.0472*%
%ADD36C,0.0500*%
%ADD37C,0.0540*%
%ADD38C,0.0554*%
%ADD39C,0.0591*%
%ADD40C,0.0594*%
%ADD41C,0.0594*%
%ADD42C,0.0600*%
%ADD43C,0.0631*%
%ADD44C,0.0672*%
%ADD45C,0.1000*%
%ADD46C,0.1040*%
%ADD47C,0.1063*%
%ADD48C,0.1263*%
%ADD49R,0.0020X0.0020*%
%ADD50R,0.0059X0.0059*%
%ADD51R,0.0098X0.0315*%
%ADD52R,0.0100X0.0100*%
%ADD53R,0.0110X0.0299*%
%ADD54R,0.0138X0.0500*%
%ADD55R,0.0138X0.0355*%
%ADD56R,0.0150X0.0339*%
%ADD57R,0.0157X0.0079*%
%ADD58R,0.0178X0.0540*%
%ADD59R,0.0197X0.0119*%
%ADD60R,0.0200X0.0200*%
%ADD61R,0.0200X0.0250*%
%ADD62R,0.0200X0.0287*%
%ADD63R,0.0240X0.0290*%
%ADD64R,0.0240X0.0327*%
%ADD65R,0.0250X0.0200*%
%ADD66R,0.0287X0.0200*%
%ADD67R,0.0290X0.0240*%
%ADD68R,0.0299X0.0110*%
%ADD69R,0.0300X0.0300*%
%ADD70R,0.0300X0.0300*%
%ADD71R,0.0315X0.0098*%
%ADD72R,0.0327X0.0240*%
%ADD73R,0.0339X0.0150*%
%ADD74R,0.0340X0.0340*%
%ADD75R,0.0355X0.0138*%
%ADD76R,0.0360X0.0360*%
%ADD77R,0.0360X0.0500*%
%ADD78R,0.0400X0.0400*%
%ADD79R,0.0400X0.0400*%
%ADD80R,0.0400X0.0540*%
%ADD81R,0.0472X0.0433*%
%ADD82R,0.0500X0.0500*%
%ADD83R,0.0500X0.0500*%
%ADD84R,0.0500X0.0600*%
%ADD85R,0.0512X0.0473*%
%ADD86R,0.0540X0.0540*%
%ADD87R,0.0540X0.0640*%
%ADD88R,0.0591X0.0591*%
%ADD89R,0.0600X0.0500*%
%ADD90R,0.0600X0.0600*%
%ADD91R,0.0600X0.0600*%
%ADD92R,0.0631X0.0631*%
%ADD93R,0.0640X0.0540*%
%ADD94R,0.0640X0.0640*%
%ADD95R,0.0700X0.0700*%
%ADD96R,0.0787X0.0472*%
%ADD97R,0.0800X0.0800*%
%ADD98R,0.0827X0.0512*%
%ADD99R,0.0900X0.0900*%
%ADD100R,0.1000X0.1000*%
%ADD101R,0.1000X0.1000*%
%ADD102R,0.1024X0.1024*%
%ADD103R,0.1040X0.1040*%
%ADD104R,0.1100X0.1100*%
%ADD105R,0.1200X0.1200*%
%ADD106R,0.1339X0.1358*%
%ADD107R,0.1400X0.1400*%
%ADD108R,0.1500X0.1500*%
%ADD109R,0.1800X0.1800*%
%ADD110R,0.2200X0.2200*%
%ADD111R,0.2300X0.2300*%
G54D11*
X93334Y78602D02*
X93275Y78661D01*
X92153D02*
Y77480D01*
X93334D02*
Y78602D01*
Y77480D02*
X92153D01*
Y78661D02*
X93177D01*
X93157Y78661D02*
X93275D01*
X89781Y74911D02*
X110263D01*
Y86722D01*
X89781D01*
Y74911D01*
X110253D02*
Y86722D01*
X102133D01*
G54D12*
X90522Y81417D02*
X90391D01*
X90522Y81548D01*
Y81581D01*
X90490Y81614D01*
X90424D01*
X90391Y81581D01*
X90588Y81417D02*
X90719D01*
X90588D02*
X90719Y81548D01*
Y81581D01*
X90686Y81614D01*
X90621D01*
X90588Y81581D01*
X90785D02*
X90817Y81614D01*
X90883D01*
X90916Y81581D01*
Y81450D01*
X90883Y81417D01*
X90817D01*
X90785Y81450D01*
Y81581D01*
X90981Y81548D02*
Y81417D01*
Y81548D02*
X91080D01*
X91113Y81515D01*
Y81417D01*
X91178Y81614D02*
X91309D01*
X91178D02*
Y81515D01*
X91244D01*
X91178D01*
Y81417D01*
X90512Y81847D02*
X90480Y81880D01*
X90414D01*
X90381Y81847D01*
Y81716D01*
X90414Y81683D01*
X90480D01*
X90512Y81716D01*
X90578Y81683D02*
X90709D01*
X90578D02*
X90709Y81814D01*
Y81847D01*
X90676Y81880D01*
X90611D01*
X90578Y81847D01*
X90775D02*
X90808Y81880D01*
X90873D01*
X90906Y81847D01*
Y81814D01*
X90907D01*
X90906D02*
X90907D01*
X90906D02*
X90907D01*
X90906D02*
X90873Y81781D01*
X90840D01*
X90873D01*
X90906Y81748D01*
Y81716D01*
X90873Y81683D01*
X90808D01*
X90775Y81716D01*
X95224Y81791D02*
Y81988D01*
X95289Y81922D01*
X95355Y81988D01*
Y81791D01*
X95519Y81988D02*
X95552Y81955D01*
X95519Y81988D02*
X95453D01*
X95421Y81955D01*
Y81922D01*
X95453Y81889D01*
X95519D01*
X95552Y81857D01*
Y81824D01*
X95519Y81791D01*
X95453D01*
X95421Y81824D01*
X95617Y81791D02*
Y81988D01*
X95716D01*
X95749Y81955D01*
Y81889D01*
X95716Y81857D01*
X95617D01*
X95913Y81791D02*
Y81988D01*
X95814Y81889D01*
X95945D01*
X96011Y81955D02*
X96044Y81988D01*
X96109D01*
X96142Y81955D01*
Y81922D01*
X96143D01*
X96142D02*
X96143D01*
X96142D02*
X96143D01*
X96142D02*
X96109Y81889D01*
X96077D01*
X96109D01*
X96142Y81857D01*
Y81824D01*
X96109Y81791D01*
X96044D01*
X96011Y81824D01*
X96208Y81955D02*
X96241Y81988D01*
X96306D01*
X96339Y81955D01*
Y81824D01*
X96306Y81791D01*
X96241D01*
X96208Y81824D01*
Y81955D01*
X96503Y81988D02*
X96536Y81955D01*
X96503Y81988D02*
X96437D01*
X96405Y81955D01*
Y81824D01*
X96437Y81791D01*
X96503D01*
X96536Y81824D01*
Y81889D01*
X96470D01*
X96601Y81791D02*
X96732D01*
X96601D02*
X96732Y81922D01*
Y81955D01*
X96700Y81988D01*
X96634D01*
X96601Y81955D01*
X96896Y81988D02*
Y81791D01*
X96798Y81889D02*
X96896Y81988D01*
X96929Y81889D02*
X96798D01*
X96995Y81955D02*
X97028Y81988D01*
X97093D01*
X97126Y81955D01*
Y81922D01*
X97127D01*
X97126D02*
X97127D01*
X97126D02*
X97127D01*
X97126D02*
X97093Y81889D01*
X97060D01*
X97093D01*
X97126Y81857D01*
Y81824D01*
X97093Y81791D01*
X97028D01*
X96995Y81824D01*
X97192Y81955D02*
X97224Y81988D01*
X97290D01*
X97323Y81955D01*
Y81922D01*
X97324D01*
X97323D02*
X97324D01*
X97323D02*
X97324D01*
X97323D02*
X97290Y81889D01*
X97257D01*
X97290D01*
X97323Y81857D01*
Y81824D01*
X97290Y81791D01*
X97224D01*
X97192Y81824D01*
X96031Y82680D02*
Y82844D01*
Y82680D02*
X96064Y82647D01*
X96129D01*
X96162Y82680D01*
Y82844D01*
X96228Y82647D02*
X96359D01*
X96228D02*
X96359Y82779D01*
Y82811D01*
X96326Y82844D01*
X96260D01*
X96228Y82811D01*
X97554Y87467D02*
X97685D01*
X97620D01*
Y87270D01*
X97751Y87434D02*
X97784Y87467D01*
X97849D01*
X97882Y87434D01*
Y87401D01*
X97883D01*
X97882D02*
X97883D01*
X97882D02*
X97883D01*
X97882D02*
X97849Y87368D01*
X97817D01*
X97849D01*
X97882Y87335D01*
Y87303D01*
X97849Y87270D01*
X97784D01*
X97751Y87303D01*
X102852Y84754D02*
X102983D01*
X102917D01*
Y84557D01*
X103049D02*
Y84688D01*
X103114Y84754D01*
X103180Y84688D01*
Y84557D01*
Y84655D01*
X103049D01*
X103245Y84557D02*
Y84754D01*
X103311Y84688D01*
X103376Y84754D01*
Y84557D01*
X103442D02*
Y84754D01*
X103540D01*
X103573Y84721D01*
Y84655D01*
X103540Y84622D01*
X103442D01*
X103091Y85246D02*
X102960D01*
X103026D02*
X103091D01*
X103026D02*
Y85049D01*
X103157D02*
X103288D01*
X103157D02*
X103288Y85180D01*
Y85213D01*
X103255Y85246D01*
X103190D01*
X103157Y85213D01*
X103915Y76683D02*
Y76617D01*
Y76650D01*
X104112D01*
X104113D01*
X104112D02*
X104079Y76683D01*
X104046Y76519D02*
X103849D01*
X104046D02*
Y76420D01*
X104013Y76388D01*
X103948D01*
X103915Y76420D01*
Y76519D01*
X104112Y76322D02*
Y76191D01*
Y76322D02*
X104013D01*
Y76256D01*
Y76322D01*
X103915D01*
X104059Y77437D02*
X104092Y77470D01*
Y77536D01*
X104059Y77569D01*
X103928D01*
X103895Y77536D01*
Y77470D01*
X103928Y77437D01*
X103895Y77372D02*
Y77241D01*
Y77372D02*
X104026Y77241D01*
X104059D01*
X104092Y77273D01*
Y77339D01*
X104059Y77372D01*
X104092Y77175D02*
Y77044D01*
X104059D01*
X103928Y77175D01*
X103895D01*
X105230Y76752D02*
X105263Y76719D01*
Y76653D01*
X105230Y76621D01*
X105197D01*
X105198D01*
X105197D02*
X105198D01*
X105197D02*
X105198D01*
X105197D02*
X105165Y76653D01*
Y76686D01*
Y76653D01*
X105132Y76621D01*
X105099D01*
X105066Y76653D01*
Y76719D01*
X105099Y76752D01*
X105230Y76555D02*
X105263Y76522D01*
Y76457D01*
X105230Y76424D01*
X105197D01*
X105198D01*
X105197D02*
X105198D01*
X105197D02*
X105198D01*
X105197D02*
X105165Y76457D01*
Y76489D01*
Y76457D01*
X105132Y76424D01*
X105099D01*
X105066Y76457D01*
Y76522D01*
X105099Y76555D01*
X105066Y76358D02*
X105197D01*
Y76260D01*
X105165Y76227D01*
X105066D01*
Y76161D02*
X105263D01*
X105165D02*
X105066D01*
X105165D02*
Y76030D01*
X105263D01*
X105066D01*
X105056Y77500D02*
X105253D01*
X105056D02*
Y77369D01*
X105253Y77303D02*
Y77172D01*
X105220D01*
X105089Y77303D01*
X105056D01*
X105732Y78126D02*
X105798Y78159D01*
X105732Y78126D02*
X105667Y78061D01*
Y77995D01*
X105699Y77962D01*
X105765D01*
X105798Y77995D01*
Y78028D01*
X105765Y78061D01*
X105667D01*
X105863Y78126D02*
X105896Y78159D01*
X105962D01*
X105995Y78126D01*
Y78094D01*
X105962Y78061D01*
X105995Y78028D01*
Y77995D01*
X105962Y77962D01*
X105896D01*
X105863Y77995D01*
Y78028D01*
X105896Y78061D01*
X105863Y78094D01*
Y78126D01*
X105896Y78061D02*
X105962D01*
X106060Y78094D02*
Y77897D01*
Y78094D02*
X106159D01*
X106191Y78061D01*
Y77995D01*
X106159Y77962D01*
X106060D01*
X106257Y78159D02*
X106388D01*
X106257D02*
Y78061D01*
X106323D01*
X106257D01*
Y77962D01*
X104548Y78097D02*
X104515Y78130D01*
X104449D01*
X104417Y78097D01*
Y77966D01*
X104449Y77933D01*
X104515D01*
X104548Y77966D01*
X104613Y77933D02*
X104679D01*
X104646D01*
Y78130D01*
X104647D01*
X104646D02*
X104613Y78097D01*
X104053Y79396D02*
X104085Y79429D01*
X104053Y79396D02*
Y79331D01*
X104085Y79298D01*
X104217D01*
X104249Y79331D01*
Y79396D01*
X104217Y79429D01*
X104184D01*
X104151Y79396D01*
Y79298D01*
X104184Y79232D02*
X104053D01*
X104184D02*
Y79134D01*
X104151Y79101D01*
X104053D01*
Y79035D02*
X104249D01*
X104151D02*
X104053D01*
X104151D02*
Y78904D01*
X104249D01*
X104053D01*
Y78671D02*
X104249D01*
X104053D02*
Y78540D01*
X104217Y78409D02*
X104249Y78343D01*
X104217Y78409D02*
X104151Y78474D01*
X104085D01*
X104053Y78441D01*
Y78376D01*
X104085Y78343D01*
X104118D01*
X104151Y78376D01*
Y78474D01*
X104633Y79603D02*
Y79734D01*
X104764Y79603D01*
X104797D01*
X104830Y79636D01*
Y79701D01*
X104797Y79734D01*
X104666Y79537D02*
X104633D01*
X104666D02*
Y79504D01*
X104633D01*
Y79537D01*
X104830Y79373D02*
Y79242D01*
X104797D01*
X104666Y79373D01*
X104633D01*
X104568Y79176D02*
X104764D01*
Y79078D01*
X104732Y79045D01*
X104666D01*
X104633Y79078D01*
Y79176D01*
X104830Y78980D02*
Y78848D01*
Y78980D02*
X104732D01*
Y78914D01*
Y78980D01*
X104633D01*
X105289Y79504D02*
X105322Y79537D01*
Y79603D01*
X105289Y79636D01*
X105158D01*
X105125Y79603D01*
Y79537D01*
X105158Y79504D01*
X105125Y79439D02*
Y79308D01*
Y79439D02*
X105257Y79308D01*
X105289D01*
X105322Y79340D01*
Y79406D01*
X105289Y79439D01*
X105322Y79144D02*
X105125D01*
X105224Y79242D02*
X105322Y79144D01*
X105224Y79111D02*
Y79242D01*
X103964Y80603D02*
Y80669D01*
Y80636D02*
Y80603D01*
Y80636D02*
X104161D01*
X104162D01*
X104161D02*
X104128Y80669D01*
X104095Y80505D02*
X103898D01*
X104095D02*
Y80407D01*
X104062Y80374D01*
X103997D01*
X103964Y80407D01*
Y80505D01*
X104161Y80308D02*
Y80177D01*
Y80308D02*
X104062D01*
Y80243D01*
Y80308D01*
X103964D01*
X103931Y80111D02*
Y79980D01*
X103767Y79577D02*
X103734Y79544D01*
X103767Y79577D02*
Y79642D01*
X103734Y79675D01*
X103603D01*
X103570Y79642D01*
Y79577D01*
X103603Y79544D01*
X103767Y79478D02*
Y79347D01*
Y79478D02*
X103669D01*
X103701Y79413D01*
Y79380D01*
X103669Y79347D01*
X103603D01*
X103570Y79380D01*
Y79445D01*
X103603Y79478D01*
X102904Y80708D02*
X102839Y80676D01*
X102773Y80610D01*
Y80544D01*
X102806Y80512D01*
X102871D01*
X102904Y80544D01*
Y80577D01*
X102871Y80610D01*
X102773D01*
X102970Y80544D02*
Y80512D01*
Y80544D02*
X103003D01*
Y80512D01*
X102970D01*
X103134Y80676D02*
X103167Y80708D01*
X103232D01*
X103265Y80676D01*
Y80643D01*
X103232Y80610D01*
X103265Y80577D01*
Y80544D01*
X103232Y80512D01*
X103167D01*
X103134Y80544D01*
Y80577D01*
X103167Y80610D01*
X103134Y80643D01*
Y80676D01*
X103167Y80610D02*
X103232D01*
X103331Y80643D02*
Y80446D01*
Y80643D02*
X103429D01*
X103462Y80610D01*
Y80544D01*
X103429Y80512D01*
X103331D01*
X103527Y80708D02*
X103659D01*
X103527D02*
Y80610D01*
X103593D01*
X103527D01*
Y80512D01*
X102875Y80174D02*
X102842Y80206D01*
X102776D01*
X102743Y80174D01*
Y80042D01*
X102776Y80010D01*
X102842D01*
X102875Y80042D01*
X102940Y80010D02*
X103006D01*
X102973D01*
Y80206D01*
X102974D01*
X102973D02*
X102940Y80174D01*
X103104D02*
X103137Y80206D01*
X103203D01*
X103235Y80174D01*
Y80141D01*
X103203Y80108D01*
X103235Y80075D01*
Y80042D01*
X103203Y80010D01*
X103137D01*
X103104Y80042D01*
Y80075D01*
X103137Y80108D01*
X103104Y80141D01*
Y80174D01*
X103137Y80108D02*
X103203D01*
X101953Y80462D02*
X101887D01*
X101920D02*
X101953D01*
X101920D02*
Y80659D01*
X101921D01*
X101920D02*
X101887Y80626D01*
X102051Y80462D02*
X102117D01*
X102084D01*
Y80659D01*
X102085D01*
X102084D02*
X102051Y80626D01*
X102215Y80594D02*
Y80462D01*
Y80594D02*
X102314D01*
X102346Y80561D01*
Y80462D01*
X102412D02*
Y80659D01*
Y80561D02*
Y80462D01*
Y80561D02*
X102543D01*
Y80659D01*
Y80462D01*
X101877Y80108D02*
Y79911D01*
X102009D01*
X102074D02*
X102205D01*
X102074D02*
X102205Y80042D01*
Y80075D01*
X102172Y80108D01*
X102107D01*
X102074Y80075D01*
X101562Y81709D02*
X101530Y81742D01*
X101562Y81709D02*
Y81644D01*
X101530Y81611D01*
X101497D01*
X101498D01*
X101497D02*
X101498D01*
X101497D02*
X101498D01*
X101497D02*
X101464Y81644D01*
Y81676D01*
Y81644D01*
X101431Y81611D01*
X101398D01*
X101366Y81644D01*
Y81709D01*
X101398Y81742D01*
Y81545D02*
X101366D01*
X101398D02*
Y81512D01*
X101366D01*
Y81545D01*
X101398Y81381D02*
X101366Y81348D01*
Y81283D01*
X101398Y81250D01*
X101530D01*
X101562Y81283D01*
Y81348D01*
X101530Y81381D01*
X101497D01*
X101464Y81348D01*
Y81250D01*
X101497Y81184D02*
X101300D01*
X101497D02*
Y81086D01*
X101464Y81053D01*
X101398D01*
X101366Y81086D01*
Y81184D01*
X101562Y80988D02*
Y80856D01*
Y80988D02*
X101464D01*
Y80922D01*
Y80988D01*
X101366D01*
X101493Y80610D02*
X101461Y80577D01*
X101493Y80610D02*
Y80676D01*
X101461Y80708D01*
X101329D01*
X101297Y80676D01*
Y80610D01*
X101329Y80577D01*
Y80512D02*
X101297Y80479D01*
Y80413D01*
X101329Y80380D01*
X101461D01*
X101493Y80413D01*
Y80479D01*
X101461Y80512D01*
X101428D01*
X101395Y80479D01*
Y80380D01*
X99794Y79721D02*
X99761Y79754D01*
X99696D01*
X99663Y79721D01*
Y79688D01*
X99696Y79655D01*
X99761D01*
X99794Y79622D01*
Y79590D01*
X99761Y79557D01*
X99696D01*
X99663Y79590D01*
X99860Y79557D02*
Y79754D01*
Y79557D02*
X99991D01*
X100155D02*
Y79754D01*
X100056Y79655D01*
X100188D01*
X100352Y79557D02*
Y79754D01*
X100253Y79655D01*
X100384D01*
X100450Y79721D02*
X100483Y79754D01*
X100548D01*
X100581Y79721D01*
Y79688D01*
X100582D01*
X100581D02*
X100582D01*
X100581D02*
X100582D01*
X100581D02*
X100548Y79655D01*
X100515D01*
X100548D01*
X100581Y79622D01*
Y79590D01*
X100548Y79557D01*
X100483D01*
X100450Y79590D01*
X100647Y79557D02*
X100778D01*
X100647D02*
X100778Y79688D01*
Y79721D01*
X100745Y79754D01*
X100679D01*
X100647Y79721D01*
X100145Y80003D02*
Y80167D01*
Y80003D02*
X100178Y79970D01*
X100243D01*
X100276Y80003D01*
Y80167D01*
X100342Y79970D02*
X100407D01*
X100375D01*
Y80167D01*
X100376D01*
X100375D02*
X100342Y80134D01*
X101257Y79114D02*
Y79048D01*
Y79081D01*
X101454D01*
X101455D01*
X101454D02*
X101421Y79114D01*
X101257Y78950D02*
Y78819D01*
Y78950D02*
X101388Y78819D01*
X101421D01*
X101454Y78852D01*
Y78917D01*
X101421Y78950D01*
Y78753D02*
X101454Y78720D01*
Y78655D01*
X101421Y78622D01*
X101290D01*
X101257Y78655D01*
Y78720D01*
X101290Y78753D01*
X101421D01*
X101388Y78556D02*
X101257D01*
X101388D02*
Y78458D01*
X101356Y78425D01*
X101257D01*
Y78360D02*
X101454D01*
X101356D02*
X101257D01*
X101356D02*
Y78228D01*
X101454D01*
X101257D01*
X101021Y78809D02*
X100824D01*
Y78678D01*
Y78612D02*
Y78546D01*
Y78579D01*
X101021D01*
X101022D01*
X101021D02*
X100988Y78612D01*
X104082Y73169D02*
X104049Y73136D01*
X104082Y73169D02*
Y73235D01*
X104049Y73267D01*
X103918D01*
X103885Y73235D01*
Y73169D01*
X103918Y73136D01*
X103885Y73071D02*
Y73005D01*
Y73038D01*
X104082D01*
X104083D01*
X104082D02*
X104049Y73071D01*
X103885Y72907D02*
Y72776D01*
Y72907D02*
X104016Y72776D01*
X104049D01*
X104082Y72808D01*
Y72874D01*
X104049Y72907D01*
Y72316D02*
X104082Y72284D01*
Y72218D01*
X104049Y72185D01*
X104016D01*
X104017D01*
X104016D02*
X104017D01*
X104016D02*
X104017D01*
X104016D02*
X103984Y72218D01*
Y72251D01*
Y72218D01*
X103951Y72185D01*
X103918D01*
X103885Y72218D01*
Y72284D01*
X103918Y72316D01*
Y72120D02*
X103885Y72087D01*
Y72021D01*
X103918Y71988D01*
X104049D01*
X104082Y72021D01*
Y72087D01*
X104049Y72120D01*
X104016D01*
X103984Y72087D01*
Y71988D01*
X104016Y71923D02*
X103820D01*
X104016D02*
Y71824D01*
X103984Y71792D01*
X103918D01*
X103885Y71824D01*
Y71923D01*
X104082Y71726D02*
Y71595D01*
Y71726D02*
X103984D01*
Y71660D01*
Y71726D01*
X103885D01*
X101904Y78825D02*
X101936Y78858D01*
Y78924D01*
X101904Y78956D01*
X101772D01*
X101740Y78924D01*
Y78858D01*
X101772Y78825D01*
X101740Y78760D02*
Y78694D01*
Y78727D01*
X101936D01*
X101937D01*
X101936D02*
X101904Y78760D01*
X101740Y78596D02*
Y78464D01*
Y78596D02*
X101871Y78464D01*
X101904D01*
X101936Y78497D01*
Y78563D01*
X101904Y78596D01*
X102871Y79357D02*
Y79488D01*
X102773D01*
X102806Y79422D01*
Y79390D01*
X102773Y79357D01*
X102707D01*
X102675Y79390D01*
Y79455D01*
X102707Y79488D01*
X102839Y79291D02*
X102871Y79258D01*
Y79193D01*
X102839Y79160D01*
X102707D01*
X102675Y79193D01*
Y79258D01*
X102707Y79291D01*
X102839D01*
X102871Y79094D02*
X102675D01*
X102871D02*
Y78996D01*
X102839Y78963D01*
X102773D01*
X102740Y78996D01*
Y79094D01*
Y79029D02*
X102675Y78963D01*
X102428Y79439D02*
X102232D01*
X102428D02*
Y79340D01*
X102396Y79308D01*
X102330D01*
X102297Y79340D01*
Y79439D01*
Y79373D02*
X102232Y79308D01*
Y79242D02*
Y79176D01*
Y79209D01*
X102428D01*
X102429D01*
X102428D02*
X102396Y79242D01*
X103058Y79347D02*
Y79478D01*
X103190Y79347D01*
X103222D01*
X103255Y79380D01*
Y79445D01*
X103222Y79478D01*
X103058Y79281D02*
Y79150D01*
Y79281D02*
X103190Y79150D01*
X103222D01*
X103255Y79183D01*
Y79249D01*
X103222Y79281D01*
X103058Y79085D02*
Y79019D01*
Y79052D01*
X103255D01*
X103256D01*
X103255D02*
X103222Y79085D01*
X103255Y78822D02*
X103058D01*
X103157Y78921D02*
X103255Y78822D01*
X103157Y78789D02*
Y78921D01*
X103255Y78724D02*
Y78593D01*
Y78658D01*
X103058D01*
Y78527D02*
X103255D01*
X103124D02*
X103058D01*
X103124D02*
X103255Y78396D01*
X103157Y78494D01*
X103058Y78396D01*
X103485Y78730D02*
X103649D01*
X103485D02*
X103452Y78697D01*
Y78632D01*
X103485Y78599D01*
X103649D01*
Y78533D02*
Y78402D01*
Y78533D02*
X103551D01*
X103583Y78468D01*
Y78435D01*
X103551Y78402D01*
X103485D01*
X103452Y78435D01*
Y78500D01*
X103485Y78533D01*
X103429Y76883D02*
X103462Y76817D01*
X103429Y76883D02*
X103364Y76949D01*
X103298D01*
X103265Y76916D01*
Y76850D01*
X103298Y76817D01*
X103331D01*
X103364Y76850D01*
Y76949D01*
X103429Y76752D02*
X103462Y76719D01*
Y76653D01*
X103429Y76621D01*
X103396D01*
X103364Y76653D01*
X103331Y76621D01*
X103298D01*
X103265Y76653D01*
Y76719D01*
X103298Y76752D01*
X103331D01*
X103364Y76719D01*
X103396Y76752D01*
X103429D01*
X103364Y76719D02*
Y76653D01*
X103396Y76555D02*
X103200D01*
X103396D02*
Y76457D01*
X103364Y76424D01*
X103298D01*
X103265Y76457D01*
Y76555D01*
X103462Y76358D02*
Y76227D01*
Y76358D02*
X103364D01*
Y76293D01*
Y76358D01*
X103265D01*
X103429Y77821D02*
X103462Y77854D01*
Y77920D01*
X103429Y77953D01*
X103298D01*
X103265Y77920D01*
Y77854D01*
X103298Y77821D01*
X103265Y77756D02*
Y77625D01*
Y77756D02*
X103396Y77625D01*
X103429D01*
X103462Y77657D01*
Y77723D01*
X103429Y77756D01*
Y77559D02*
X103462Y77526D01*
Y77461D01*
X103429Y77428D01*
X103298D01*
X103265Y77461D01*
Y77526D01*
X103298Y77559D01*
X103429D01*
X102350Y73159D02*
X102153D01*
Y73028D01*
Y72962D02*
Y72897D01*
Y72930D01*
X102350D01*
X102351D01*
X102350D02*
X102317Y72962D01*
X102153Y72798D02*
Y72733D01*
Y72766D01*
X102350D01*
X102351D01*
X102350D02*
X102317Y72798D01*
X102350Y72241D02*
Y72110D01*
Y72241D02*
X102251D01*
X102284Y72175D01*
Y72142D01*
X102251Y72110D01*
X102186D01*
X102153Y72142D01*
Y72208D01*
X102186Y72241D01*
Y72044D02*
X102153D01*
X102186D02*
Y72011D01*
X102153D01*
Y72044D01*
X102317Y71815D02*
X102350Y71749D01*
X102317Y71815D02*
X102251Y71880D01*
X102186D01*
X102153Y71847D01*
Y71782D01*
X102186Y71749D01*
X102219D01*
X102251Y71782D01*
Y71880D01*
X102284Y71683D02*
X102153D01*
X102284D02*
Y71585D01*
X102251Y71552D01*
X102153D01*
Y71487D02*
X102350D01*
X102251D02*
X102153D01*
X102251D02*
Y71355D01*
X102350D01*
X102153D01*
X102665Y78415D02*
X102862D01*
X102665D02*
Y78284D01*
Y78218D02*
Y78153D01*
Y78186D01*
X102862D01*
X102863D01*
X102862D02*
X102829Y78218D01*
X102665Y78054D02*
Y77989D01*
Y78022D01*
X102862D01*
X102863D01*
X102862D02*
X102829Y78054D01*
X103501Y73100D02*
X103468Y73067D01*
X103501Y73100D02*
Y73166D01*
X103468Y73199D01*
X103337D01*
X103304Y73166D01*
Y73100D01*
X103337Y73067D01*
X103304Y73002D02*
Y72936D01*
Y72969D01*
X103501D01*
X103502D01*
X103501D02*
X103468Y73002D01*
X103501Y72739D02*
X103304D01*
X103403Y72838D02*
X103501Y72739D01*
X103403Y72707D02*
Y72838D01*
X103468Y72182D02*
X103501Y72116D01*
X103468Y72182D02*
X103403Y72247D01*
X103337D01*
X103304Y72215D01*
Y72149D01*
X103337Y72116D01*
X103370D01*
X103403Y72149D01*
Y72247D01*
X103436Y72051D02*
X103239D01*
X103436D02*
Y71952D01*
X103403Y71919D01*
X103337D01*
X103304Y71952D01*
Y72051D01*
X103501Y71854D02*
Y71723D01*
Y71854D02*
X103403D01*
Y71788D01*
Y71854D01*
X103304D01*
X102366Y78195D02*
X102399Y78228D01*
Y78294D01*
X102366Y78327D01*
X102235D01*
X102202Y78294D01*
Y78228D01*
X102235Y78195D01*
X102202Y78130D02*
Y78064D01*
Y78097D01*
X102399D01*
X102400D01*
X102399D02*
X102366Y78130D01*
X102399Y77867D02*
X102202D01*
X102301Y77966D02*
X102399Y77867D01*
X102301Y77835D02*
Y77966D01*
X102405Y76063D02*
X102438Y76030D01*
Y75964D01*
X102405Y75932D01*
X102373D01*
X102374D01*
X102373D02*
X102374D01*
X102373D02*
X102374D01*
X102373D02*
X102340Y75964D01*
Y75997D01*
Y75964D01*
X102307Y75932D01*
X102274D01*
X102242Y75964D01*
Y76030D01*
X102274Y76063D01*
Y75866D02*
X102242D01*
X102274D02*
Y75833D01*
X102242D01*
Y75866D01*
X102405Y75702D02*
X102438Y75669D01*
Y75604D01*
X102405Y75571D01*
X102373D01*
X102374D01*
X102373D02*
X102374D01*
X102373D02*
X102374D01*
X102373D02*
X102340Y75604D01*
Y75636D01*
Y75604D01*
X102307Y75571D01*
X102274D01*
X102242Y75604D01*
Y75669D01*
X102274Y75702D01*
X102176Y75505D02*
X102373D01*
Y75407D01*
X102340Y75374D01*
X102274D01*
X102242Y75407D01*
Y75505D01*
X102438Y75308D02*
Y75177D01*
Y75308D02*
X102340D01*
Y75243D01*
Y75308D01*
X102242D01*
X102396Y76758D02*
X102428Y76791D01*
Y76857D01*
X102396Y76890D01*
X102264D01*
X102232Y76857D01*
Y76791D01*
X102264Y76758D01*
X102232Y76693D02*
Y76627D01*
Y76660D01*
X102428D01*
X102429D01*
X102428D02*
X102396Y76693D01*
Y76529D02*
X102428Y76496D01*
Y76430D01*
X102396Y76398D01*
X102363D01*
X102364D01*
X102363D02*
X102364D01*
X102363D02*
X102364D01*
X102363D02*
X102330Y76430D01*
Y76463D01*
Y76430D01*
X102297Y76398D01*
X102264D01*
X102232Y76430D01*
Y76496D01*
X102264Y76529D01*
X102724Y73179D02*
X102921D01*
X102724D02*
Y73048D01*
Y72884D02*
X102921D01*
X102822Y72982D01*
Y72851D01*
X102724Y72392D02*
Y72326D01*
Y72359D01*
X102921D01*
X102922D01*
X102921D02*
X102888Y72392D01*
X102921Y72228D02*
Y72097D01*
Y72228D02*
X102822D01*
X102855Y72162D01*
Y72129D01*
X102822Y72097D01*
X102757D01*
X102724Y72129D01*
Y72195D01*
X102757Y72228D01*
X102724Y72031D02*
X102855D01*
Y71933D01*
X102822Y71900D01*
X102724D01*
Y71834D02*
X102921D01*
X102822D02*
X102724D01*
X102822D02*
Y71703D01*
X102921D01*
X102724D01*
X102734Y76860D02*
Y77057D01*
Y76860D02*
X102865D01*
X103029D02*
Y77057D01*
X102930Y76958D01*
X103062D01*
X101749Y73169D02*
X101553D01*
Y73038D01*
X101749Y72972D02*
Y72841D01*
Y72972D02*
X101651D01*
X101684Y72907D01*
Y72874D01*
X101651Y72841D01*
X101585D01*
X101553Y72874D01*
Y72939D01*
X101585Y72972D01*
X101553Y72382D02*
Y72316D01*
Y72349D01*
X101749D01*
X101750D01*
X101749D02*
X101717Y72382D01*
X101749Y72218D02*
Y72087D01*
Y72218D02*
X101651D01*
X101684Y72152D01*
Y72120D01*
X101651Y72087D01*
X101585D01*
X101553Y72120D01*
Y72185D01*
X101585Y72218D01*
X101553Y72021D02*
X101684D01*
Y71923D01*
X101651Y71890D01*
X101553D01*
Y71824D02*
X101749D01*
X101651D02*
X101553D01*
X101651D02*
Y71693D01*
X101749D01*
X101553D01*
X101700Y77913D02*
X101897D01*
X101700D02*
Y77782D01*
X101897Y77716D02*
Y77585D01*
Y77716D02*
X101799D01*
X101831Y77651D01*
Y77618D01*
X101799Y77585D01*
X101733D01*
X101700Y77618D01*
Y77684D01*
X101733Y77716D01*
X101464Y77841D02*
X101431Y77874D01*
X101464Y77841D02*
Y77775D01*
X101431Y77743D01*
X101300D01*
X101267Y77775D01*
Y77841D01*
X101300Y77874D01*
X101431D01*
X101464Y77677D02*
X101267D01*
X101464D02*
Y77579D01*
X101431Y77546D01*
X101365D01*
X101333Y77579D01*
Y77677D01*
Y77611D02*
X101267Y77546D01*
X101070Y78002D02*
X100873D01*
X101070D02*
Y77903D01*
X101037Y77871D01*
X100972D01*
X100939Y77903D01*
Y78002D01*
Y77936D02*
X100873Y77871D01*
Y77805D02*
Y77739D01*
Y77772D01*
X101070D01*
X101071D01*
X101070D02*
X101037Y77805D01*
X101070Y77641D02*
Y77510D01*
Y77641D02*
X100972D01*
X101005Y77575D01*
Y77543D01*
X100972Y77510D01*
X100906D01*
X100873Y77543D01*
Y77608D01*
X100906Y77641D01*
X101657Y75827D02*
X101690Y75794D01*
Y75728D01*
X101657Y75695D01*
X101625D01*
X101626D01*
X101625D02*
X101626D01*
X101625D02*
X101626D01*
X101625D02*
X101592Y75728D01*
Y75761D01*
Y75728D01*
X101559Y75695D01*
X101526D01*
X101493Y75728D01*
Y75794D01*
X101526Y75827D01*
X101657Y75630D02*
X101690Y75597D01*
Y75531D01*
X101657Y75499D01*
X101625D01*
X101626D01*
X101625D02*
X101626D01*
X101625D02*
X101626D01*
X101625D02*
X101592Y75531D01*
Y75564D01*
Y75531D01*
X101559Y75499D01*
X101526D01*
X101493Y75531D01*
Y75597D01*
X101526Y75630D01*
X101428Y75433D02*
X101625D01*
Y75335D01*
X101592Y75302D01*
X101526D01*
X101493Y75335D01*
Y75433D01*
X101690Y75236D02*
Y75105D01*
Y75236D02*
X101592D01*
Y75171D01*
Y75236D01*
X101493D01*
X101618Y76699D02*
X101651Y76732D01*
Y76798D01*
X101618Y76830D01*
X101487D01*
X101454Y76798D01*
Y76732D01*
X101487Y76699D01*
X101454Y76634D02*
Y76568D01*
Y76601D01*
X101651D01*
X101652D01*
X101651D02*
X101618Y76634D01*
Y76470D02*
X101651Y76437D01*
Y76371D01*
X101618Y76339D01*
X101487D01*
X101454Y76371D01*
Y76437D01*
X101487Y76470D01*
X101618D01*
X100982Y75147D02*
Y75082D01*
Y75115D01*
X101178D01*
X101179D01*
X101178D02*
X101146Y75147D01*
Y74983D02*
X101178Y74951D01*
Y74885D01*
X101146Y74852D01*
X101014D01*
X100982Y74885D01*
Y74951D01*
X101014Y74983D01*
X101146D01*
Y74787D02*
X101178Y74754D01*
Y74688D01*
X101146Y74655D01*
X101014D01*
X100982Y74688D01*
Y74754D01*
X101014Y74787D01*
X101146D01*
X101113Y74590D02*
X100916D01*
X101113D02*
Y74491D01*
X101080Y74459D01*
X101014D01*
X100982Y74491D01*
Y74590D01*
X101178Y74393D02*
Y74262D01*
Y74393D02*
X101080D01*
Y74327D01*
Y74393D01*
X100982D01*
X101155Y75656D02*
X101188Y75689D01*
Y75754D01*
X101155Y75787D01*
X101024D01*
X100992Y75754D01*
Y75689D01*
X101024Y75656D01*
X100992Y75590D02*
Y75525D01*
Y75558D01*
X101188D01*
X101189D01*
X101188D02*
X101155Y75590D01*
X100992Y75426D02*
Y75361D01*
Y75394D01*
X101188D01*
X101189D01*
X101188D02*
X101155Y75426D01*
X100480Y75187D02*
Y75121D01*
Y75154D01*
X100676D01*
X100677D01*
X100676D02*
X100644Y75187D01*
Y75023D02*
X100676Y74990D01*
Y74924D01*
X100644Y74892D01*
X100512D01*
X100480Y74924D01*
Y74990D01*
X100512Y75023D01*
X100644D01*
Y74826D02*
X100676Y74793D01*
Y74728D01*
X100644Y74695D01*
X100512D01*
X100480Y74728D01*
Y74793D01*
X100512Y74826D01*
X100644D01*
X100611Y74629D02*
X100480D01*
X100611D02*
Y74531D01*
X100578Y74498D01*
X100480D01*
X100676Y74432D02*
Y74301D01*
Y74432D02*
X100578D01*
Y74367D01*
Y74432D01*
X100480D01*
X100644Y75764D02*
X100676Y75797D01*
Y75863D01*
X100644Y75895D01*
X100512D01*
X100480Y75863D01*
Y75797D01*
X100512Y75764D01*
X100480Y75699D02*
Y75633D01*
Y75666D01*
X100676D01*
X100677D01*
X100676D02*
X100644Y75699D01*
X100676Y75535D02*
Y75403D01*
Y75535D02*
X100578D01*
X100611Y75469D01*
Y75436D01*
X100578Y75403D01*
X100512D01*
X100480Y75436D01*
Y75502D01*
X100512Y75535D01*
X99390Y75708D02*
X99259D01*
X99390Y75840D01*
Y75872D01*
X99358Y75905D01*
X99292D01*
X99259Y75872D01*
X99456Y75741D02*
Y75708D01*
Y75741D02*
X99489D01*
Y75708D01*
X99456D01*
X99620D02*
X99751D01*
X99620D02*
X99751Y75840D01*
Y75872D01*
X99718Y75905D01*
X99653D01*
X99620Y75872D01*
X99817Y75840D02*
Y75741D01*
X99850Y75708D01*
X99948D01*
Y75840D01*
X100014Y75905D02*
X100145D01*
X100014D02*
Y75807D01*
X100079D01*
X100014D01*
Y75708D01*
X99755Y76433D02*
X99722Y76466D01*
X99656D01*
X99623Y76433D01*
Y76302D01*
X99656Y76269D01*
X99722D01*
X99755Y76302D01*
X99820Y76466D02*
X99951D01*
Y76433D01*
X99820Y76302D01*
Y76269D01*
X100125Y78048D02*
X100092Y78080D01*
X100125Y78048D02*
Y77982D01*
X100092Y77949D01*
X100060D01*
X100061D01*
X100060D02*
X100061D01*
X100060D02*
X100061D01*
X100060D02*
X100027Y77982D01*
Y78015D01*
Y77982D01*
X99994Y77949D01*
X99961D01*
X99929Y77982D01*
Y78048D01*
X99961Y78080D01*
X100092Y77884D02*
X100125Y77851D01*
Y77785D01*
X100092Y77752D01*
X99961D01*
X99929Y77785D01*
Y77851D01*
X99961Y77884D01*
X100092D01*
X100125Y77687D02*
X99929D01*
X100060Y77621D02*
X100125Y77687D01*
X100060Y77621D02*
X100125Y77556D01*
X99929D01*
Y77490D02*
X100125D01*
X100027D02*
X99929D01*
X100027D02*
Y77359D01*
X100125D01*
X99929D01*
X100060Y77293D02*
Y77162D01*
X99929Y77293D01*
Y77162D01*
X100375Y77772D02*
X100506D01*
X100539Y77805D01*
Y77871D01*
X100506Y77903D01*
X100375D01*
X100342Y77871D01*
Y77805D01*
Y77772D02*
X100407Y77838D01*
X100342Y77805D02*
X100375Y77772D01*
X100539Y77707D02*
Y77575D01*
X100506D01*
X100375Y77707D01*
X100342D01*
Y77575D01*
Y77510D02*
Y77444D01*
Y77477D01*
X100539D01*
X100540D01*
X100539D02*
X100506Y77510D01*
X96651Y77874D02*
Y78071D01*
X96553Y77972D01*
X96684D01*
X96749Y77907D02*
Y77874D01*
Y77907D02*
X96782D01*
Y77874D01*
X96749D01*
X96913Y78071D02*
X97044D01*
Y78038D01*
X96913Y77907D01*
Y77874D01*
X97110Y77907D02*
Y78005D01*
Y77907D02*
X97143Y77874D01*
X97241D01*
Y78005D01*
X97307Y78071D02*
X97438D01*
X97307D02*
Y77972D01*
X97372D01*
X97307D01*
Y77874D01*
X96142Y78126D02*
X96110Y78159D01*
X96044D01*
X96011Y78126D01*
Y77995D01*
X96044Y77962D01*
X96110D01*
X96142Y77995D01*
X96208Y77962D02*
X96339D01*
X96208D02*
X96339Y78094D01*
Y78126D01*
X96306Y78159D01*
X96241D01*
X96208Y78126D01*
X97330Y76210D02*
X97527D01*
X97428Y76309D01*
Y76178D01*
X97527Y76112D02*
Y75981D01*
X97494D01*
X97363Y76112D01*
X97330D01*
X97363Y75915D02*
X97461D01*
X97363D02*
X97330Y75882D01*
Y75784D01*
X97461D01*
X97527Y75718D02*
Y75587D01*
Y75718D02*
X97428D01*
Y75653D01*
Y75718D01*
X97330D01*
X97563Y76985D02*
X97596Y77018D01*
Y77083D01*
X97563Y77116D01*
X97432D01*
X97399Y77083D01*
Y77018D01*
X97432Y76985D01*
X97563Y76919D02*
X97596Y76886D01*
Y76821D01*
X97563Y76788D01*
X97530D01*
X97531D01*
X97530D02*
X97531D01*
X97530D02*
X97531D01*
X97530D02*
X97497Y76821D01*
Y76854D01*
Y76821D01*
X97465Y76788D01*
X97432D01*
X97399Y76821D01*
Y76886D01*
X97432Y76919D01*
X97596Y76722D02*
Y76591D01*
Y76722D02*
X97497D01*
X97530Y76657D01*
Y76624D01*
X97497Y76591D01*
X97432D01*
X97399Y76624D01*
Y76690D01*
X97432Y76722D01*
X96237Y76279D02*
X96041D01*
X96139Y76378D02*
X96237Y76279D01*
X96139Y76247D02*
Y76378D01*
X96237Y76181D02*
Y76050D01*
X96205D01*
X96074Y76181D01*
X96041D01*
X96074Y75984D02*
X96172D01*
X96074D02*
X96041Y75951D01*
Y75853D01*
X96172D01*
X96237Y75787D02*
Y75656D01*
Y75787D02*
X96139D01*
Y75722D01*
Y75787D01*
X96041D01*
X96244Y77024D02*
X96277Y77057D01*
Y77122D01*
X96244Y77155D01*
X96113D01*
X96080Y77122D01*
Y77057D01*
X96113Y77024D01*
X96244Y76958D02*
X96277Y76926D01*
Y76860D01*
X96244Y76827D01*
X96211D01*
X96212D01*
X96211D02*
X96212D01*
X96211D02*
X96212D01*
X96211D02*
X96178Y76860D01*
Y76893D01*
Y76860D01*
X96146Y76827D01*
X96113D01*
X96080Y76860D01*
Y76926D01*
X96113Y76958D01*
X96080Y76762D02*
Y76631D01*
Y76762D02*
X96211Y76631D01*
X96244D01*
X96277Y76663D01*
Y76729D01*
X96244Y76762D01*
X94869Y77159D02*
Y77224D01*
Y77191D02*
Y77159D01*
Y77191D02*
X95066D01*
X95067D01*
X95066D02*
X95033Y77224D01*
Y77060D02*
X95066Y77027D01*
Y76962D01*
X95033Y76929D01*
X94902D01*
X94869Y76962D01*
Y77027D01*
X94902Y77060D01*
X95033D01*
X95001Y76863D02*
X94902D01*
X94869Y76831D01*
Y76732D01*
X95001D01*
X95066Y76667D02*
Y76535D01*
Y76667D02*
X94968D01*
Y76601D01*
Y76667D01*
X94869D01*
X95211Y77743D02*
X95243Y77775D01*
Y77841D01*
X95211Y77874D01*
X95079D01*
X95047Y77841D01*
Y77775D01*
X95079Y77743D01*
X95047Y77579D02*
X95243D01*
X95145Y77677D01*
Y77546D01*
X93734Y77441D02*
X93669D01*
X93701D02*
X93734D01*
X93701D02*
Y77637D01*
X93702D01*
X93701D02*
X93669Y77605D01*
X93833D02*
X93865Y77637D01*
X93931D01*
X93964Y77605D01*
Y77474D01*
X93931Y77441D01*
X93865D01*
X93833Y77474D01*
Y77605D01*
X94029D02*
X94062Y77637D01*
X94128D01*
X94161Y77605D01*
Y77474D01*
X94128Y77441D01*
X94062D01*
X94029Y77474D01*
Y77605D01*
X94226Y77572D02*
Y77441D01*
Y77572D02*
X94325D01*
X94357Y77539D01*
Y77441D01*
X94423Y77637D02*
X94554D01*
X94423D02*
Y77539D01*
X94489D01*
X94423D01*
Y77441D01*
X94203Y78117D02*
X94171Y78149D01*
X94105D01*
X94072Y78117D01*
Y77985D01*
X94105Y77953D01*
X94171D01*
X94203Y77985D01*
X94269Y77953D02*
X94400D01*
X94269D02*
X94400Y78084D01*
Y78117D01*
X94367Y78149D01*
X94302D01*
X94269Y78117D01*
X94466Y77953D02*
X94531D01*
X94499D01*
Y78149D01*
X94500D01*
X94499D02*
X94466Y78117D01*
X93646Y78386D02*
X93580D01*
X93613D02*
X93646D01*
X93613D02*
Y78582D01*
X93614D01*
X93613D02*
X93580Y78550D01*
X93744D02*
X93777Y78582D01*
X93842D01*
X93875Y78550D01*
Y78418D01*
X93842Y78386D01*
X93777D01*
X93744Y78418D01*
Y78550D01*
X93941D02*
X93974Y78582D01*
X94039D01*
X94072Y78550D01*
Y78418D01*
X94039Y78386D01*
X93974D01*
X93941Y78418D01*
Y78550D01*
X94138Y78517D02*
Y78386D01*
Y78517D02*
X94236D01*
X94269Y78484D01*
Y78386D01*
X94334Y78582D02*
X94466D01*
X94334D02*
Y78484D01*
X94400D01*
X94334D01*
Y78386D01*
X93888Y78786D02*
X93856Y78819D01*
X93790D01*
X93757Y78786D01*
Y78655D01*
X93790Y78622D01*
X93856D01*
X93888Y78655D01*
X93954Y78786D02*
X93987Y78819D01*
X94052D01*
X94085Y78786D01*
Y78753D01*
X94086D01*
X94085D02*
X94086D01*
X94085D02*
X94086D01*
X94085D02*
X94052Y78720D01*
X94020D01*
X94052D01*
X94085Y78687D01*
Y78655D01*
X94052Y78622D01*
X93987D01*
X93954Y78655D01*
X92192Y77815D02*
Y77618D01*
X92323D01*
X92389Y77815D02*
X92455D01*
X92422D01*
Y77618D01*
X92389D01*
X92455D01*
X92651Y77815D02*
X92684Y77782D01*
X92651Y77815D02*
X92586D01*
X92553Y77782D01*
Y77749D01*
X92586Y77716D01*
X92651D01*
X92684Y77683D01*
Y77651D01*
X92651Y77618D01*
X92586D01*
X92553Y77651D01*
X92750Y77782D02*
X92783Y77815D01*
X92848D01*
X92881Y77782D01*
Y77749D01*
X92882D01*
X92881D02*
X92882D01*
X92881D02*
X92882D01*
X92881D02*
X92848Y77716D01*
X92815D01*
X92848D01*
X92881Y77683D01*
Y77651D01*
X92848Y77618D01*
X92783D01*
X92750Y77651D01*
X92947Y77618D02*
Y77815D01*
Y77618D02*
X93045D01*
X93078Y77651D01*
Y77782D01*
X93045Y77815D01*
X92947D01*
X93143D02*
Y77618D01*
Y77716D01*
X93275D01*
Y77815D01*
Y77618D01*
X92517Y78349D02*
Y78513D01*
Y78349D02*
X92550Y78317D01*
X92615D01*
X92648Y78349D01*
Y78513D01*
X92714Y78481D02*
X92747Y78513D01*
X92812D01*
X92845Y78481D01*
Y78448D01*
X92846D01*
X92845D02*
X92846D01*
X92845D02*
X92846D01*
X92845D02*
X92812Y78415D01*
X92779D01*
X92812D01*
X92845Y78382D01*
Y78349D01*
X92812Y78317D01*
X92747D01*
X92714Y78349D01*
X91552Y79468D02*
Y79665D01*
X91454Y79567D01*
X91585D01*
X91651Y79665D02*
X91782D01*
Y79632D01*
X91651Y79501D01*
Y79468D01*
X91848Y79632D02*
X91880Y79665D01*
X91946D01*
X91979Y79632D01*
Y79501D01*
X91946Y79468D01*
X91880D01*
X91848Y79501D01*
Y79632D01*
X92044Y79665D02*
Y79468D01*
Y79665D02*
X92143D01*
X92176Y79632D01*
Y79567D01*
X92143Y79534D01*
X92044D01*
X92110D02*
X92176Y79468D01*
X91612Y79842D02*
Y80039D01*
X91710D01*
X91743Y80006D01*
Y79941D01*
X91710Y79908D01*
X91612D01*
X91677D02*
X91743Y79842D01*
X91907D02*
Y80039D01*
X91808Y79941D01*
X91940D01*
X92566Y80551D02*
Y80748D01*
Y80551D02*
X92665D01*
X92697Y80584D01*
Y80617D01*
X92665Y80649D01*
X92566D01*
X92567D01*
X92566D02*
X92567D01*
X92566D02*
X92567D01*
X92566D02*
X92665D01*
X92697Y80682D01*
Y80715D01*
X92665Y80748D01*
X92566D01*
X92861D02*
X92894Y80715D01*
X92861Y80748D02*
X92796D01*
X92763Y80715D01*
Y80584D01*
X92796Y80551D01*
X92861D01*
X92894Y80584D01*
X92960Y80715D02*
X92993Y80748D01*
X93058D01*
X93091Y80715D01*
Y80682D01*
X93058Y80649D01*
X93091Y80617D01*
Y80584D01*
X93058Y80551D01*
X92993D01*
X92960Y80584D01*
Y80617D01*
X92993Y80649D01*
X92960Y80682D01*
Y80715D01*
X92993Y80649D02*
X93058D01*
X93157Y80551D02*
X93222D01*
X93189D01*
Y80748D01*
X93190D01*
X93189D02*
X93157Y80715D01*
X93321Y80748D02*
X93452D01*
Y80715D01*
X93321Y80584D01*
Y80551D01*
X93022Y80830D02*
Y80961D01*
X92990Y80994D01*
X92924D01*
X92891Y80961D01*
Y80830D01*
X92924Y80797D01*
X92990D01*
X93022D02*
X92957Y80863D01*
X92990Y80797D02*
X93022Y80830D01*
X93088Y80797D02*
X93153D01*
X93121D01*
Y80994D01*
X93122D01*
X93121D02*
X93088Y80961D01*
X94417Y80915D02*
X94614D01*
Y81046D01*
Y81112D02*
X94417D01*
X94614D02*
Y81210D01*
X94581Y81243D01*
X94450D01*
X94417Y81210D01*
Y81112D01*
X94614Y81309D02*
Y81374D01*
Y81341D01*
X94417D01*
X94418D01*
X94417D02*
X94450Y81309D01*
X93728Y79281D02*
Y79084D01*
X93629Y79183D02*
X93728Y79281D01*
X93760Y79183D02*
X93629D01*
X93826Y79281D02*
X93957D01*
Y79248D01*
X93826Y79117D01*
Y79084D01*
X94023Y79248D02*
X94056Y79281D01*
X94121D01*
X94154Y79248D01*
Y79117D01*
X94121Y79084D01*
X94056D01*
X94023Y79117D01*
Y79248D01*
X94220Y79281D02*
Y79084D01*
Y79281D02*
X94318D01*
X94351Y79248D01*
Y79183D01*
X94318Y79150D01*
X94220D01*
X94285D02*
X94351Y79084D01*
X93767Y79508D02*
Y79704D01*
X93865D01*
X93898Y79672D01*
Y79606D01*
X93865Y79573D01*
X93767D01*
X93833D02*
X93898Y79508D01*
X93964D02*
X94029D01*
X93997D01*
Y79704D01*
X93998D01*
X93997D02*
X93964Y79672D01*
X94128D02*
X94161Y79704D01*
X94226D01*
X94259Y79672D01*
Y79540D01*
X94226Y79508D01*
X94161D01*
X94128Y79540D01*
Y79672D01*
X94997Y79311D02*
X95129D01*
X94997D02*
Y79212D01*
X95063Y79245D01*
X95096D01*
X95129Y79212D01*
Y79147D01*
X95096Y79114D01*
X95030D01*
X94997Y79147D01*
X95260Y79278D02*
X95325Y79311D01*
X95260Y79278D02*
X95194Y79212D01*
Y79147D01*
X95227Y79114D01*
X95293D01*
X95325Y79147D01*
Y79180D01*
X95293Y79212D01*
X95194D01*
X95391Y79245D02*
Y79048D01*
Y79245D02*
X95489D01*
X95522Y79212D01*
Y79147D01*
X95489Y79114D01*
X95391D01*
X95588Y79311D02*
X95719D01*
X95588D02*
Y79212D01*
X95653D01*
X95588D01*
Y79114D01*
X95247Y79731D02*
X95214Y79763D01*
X95148D01*
X95116Y79731D01*
Y79599D01*
X95148Y79567D01*
X95214D01*
X95247Y79599D01*
X95312Y79567D02*
X95443D01*
X95312D02*
X95443Y79698D01*
Y79731D01*
X95411Y79763D01*
X95345D01*
X95312Y79731D01*
X95509Y79599D02*
X95542Y79567D01*
X95607D01*
X95640Y79599D01*
Y79731D01*
X95607Y79763D01*
X95542D01*
X95509Y79731D01*
Y79698D01*
X95542Y79665D01*
X95640D01*
X95588Y80292D02*
X95621Y80325D01*
X95686D01*
X95719Y80292D01*
Y80259D01*
X95720D01*
X95719D02*
X95720D01*
X95719D02*
X95720D01*
X95719D02*
X95686Y80226D01*
X95654D01*
X95686D01*
X95719Y80193D01*
Y80161D01*
X95686Y80128D01*
X95621D01*
X95588Y80161D01*
X95785Y80128D02*
X95916D01*
X95785D02*
X95916Y80259D01*
Y80292D01*
X95883Y80325D01*
X95818D01*
X95785Y80292D01*
X95982Y80325D02*
Y80128D01*
Y80193D01*
X96113Y80325D01*
X96014Y80226D01*
X96113Y80128D01*
X96178D02*
Y80325D01*
Y80226D02*
Y80128D01*
Y80226D02*
X96310D01*
Y80325D01*
Y80128D01*
X96375Y80259D02*
X96506D01*
X96375Y80128D01*
X96506D01*
X95129Y80357D02*
Y80489D01*
X95096Y80521D01*
X95030D01*
X94997Y80489D01*
Y80357D01*
X95030Y80325D01*
X95096D01*
X95129D02*
X95063Y80390D01*
X95096Y80325D02*
X95129Y80357D01*
X95194Y80521D02*
X95325D01*
Y80489D01*
X95194Y80357D01*
Y80325D01*
X95325D01*
X95391D02*
X95522D01*
X95391D02*
X95522Y80456D01*
Y80489D01*
X95489Y80521D01*
X95424D01*
X95391Y80489D01*
X95316Y81073D02*
X95184D01*
Y80974D01*
X95250Y81007D01*
X95283D01*
X95316Y80974D01*
Y80909D01*
X95283Y80876D01*
X95217D01*
X95184Y80909D01*
X95447Y81040D02*
X95512Y81073D01*
X95447Y81040D02*
X95381Y80974D01*
Y80909D01*
X95414Y80876D01*
X95480D01*
X95512Y80909D01*
Y80941D01*
X95480Y80974D01*
X95381D01*
X95578Y81007D02*
Y80810D01*
Y81007D02*
X95676D01*
X95709Y80974D01*
Y80909D01*
X95676Y80876D01*
X95578D01*
X95775Y81073D02*
X95906D01*
X95775D02*
Y80974D01*
X95840D01*
X95775D01*
Y80876D01*
X94942Y81473D02*
X94909Y81506D01*
X94843D01*
X94810Y81473D01*
Y81342D01*
X94843Y81309D01*
X94909D01*
X94942Y81342D01*
X95007Y81309D02*
X95138D01*
X95007D02*
X95138Y81440D01*
Y81473D01*
X95106Y81506D01*
X95040D01*
X95007Y81473D01*
X95204D02*
X95237Y81506D01*
X95302D01*
X95335Y81473D01*
Y81440D01*
X95302Y81407D01*
X95335Y81374D01*
Y81342D01*
X95302Y81309D01*
X95237D01*
X95204Y81342D01*
Y81374D01*
X95237Y81407D01*
X95204Y81440D01*
Y81473D01*
X95237Y81407D02*
X95302D01*
X96484Y80817D02*
X96549D01*
X96516D01*
Y81013D01*
X96517D01*
X96516D02*
X96484Y80981D01*
X96648D02*
X96680Y81013D01*
X96746D01*
X96779Y80981D01*
Y80849D01*
X96746Y80817D01*
X96680D01*
X96648Y80849D01*
Y80981D01*
X96844D02*
X96877Y81013D01*
X96943D01*
X96976Y80981D01*
Y80849D01*
X96943Y80817D01*
X96877D01*
X96844Y80849D01*
Y80981D01*
X97041Y80948D02*
Y80817D01*
Y80948D02*
X97140D01*
X97172Y80915D01*
Y80817D01*
X97238Y81013D02*
X97369D01*
X97238D02*
Y80915D01*
X97304D01*
X97238D01*
Y80817D01*
X96723Y81365D02*
X96690Y81397D01*
X96625D01*
X96592Y81365D01*
Y81233D01*
X96625Y81201D01*
X96690D01*
X96723Y81233D01*
X96789Y81365D02*
X96821Y81397D01*
X96887D01*
X96920Y81365D01*
Y81332D01*
X96921D01*
X96920D02*
X96921D01*
X96920D02*
X96921D01*
X96920D02*
X96887Y81299D01*
X96854D01*
X96887D01*
X96920Y81266D01*
Y81233D01*
X96887Y81201D01*
X96821D01*
X96789Y81233D01*
X96985Y81201D02*
X97051D01*
X97018D01*
Y81397D01*
X97019D01*
X97018D02*
X96985Y81365D01*
X97606Y80177D02*
Y79980D01*
X97507Y80078D02*
X97606Y80177D01*
X97638Y80078D02*
X97507D01*
X97704Y80013D02*
Y79980D01*
Y80013D02*
X97737D01*
Y79980D01*
X97704D01*
X97868Y80177D02*
X97999D01*
Y80144D01*
X97868Y80013D01*
Y79980D01*
X98065Y80013D02*
Y80111D01*
Y80013D02*
X98098Y79980D01*
X98196D01*
Y80111D01*
X98262Y80177D02*
X98393D01*
X98262D02*
Y80078D01*
X98327D01*
X98262D01*
Y79980D01*
X97038Y80361D02*
X97005Y80393D01*
X96940D01*
X96907Y80361D01*
Y80229D01*
X96940Y80197D01*
X97005D01*
X97038Y80229D01*
X97104Y80361D02*
X97136Y80393D01*
X97202D01*
X97235Y80361D01*
Y80328D01*
X97236D01*
X97235D02*
X97236D01*
X97235D02*
X97236D01*
X97235D02*
X97202Y80295D01*
X97169D01*
X97202D01*
X97235Y80262D01*
Y80229D01*
X97202Y80197D01*
X97136D01*
X97104Y80229D01*
X97300Y80361D02*
X97333Y80393D01*
X97399D01*
X97432Y80361D01*
Y80229D01*
X97399Y80197D01*
X97333D01*
X97300Y80229D01*
Y80361D01*
X98934Y79586D02*
Y79521D01*
Y79554D01*
X99131D01*
X99132D01*
X99131D02*
X99098Y79586D01*
Y79422D02*
X99131Y79390D01*
Y79324D01*
X99098Y79291D01*
X98967D01*
X98934Y79324D01*
Y79390D01*
X98967Y79422D01*
X99098D01*
Y79226D02*
X99131Y79193D01*
Y79127D01*
X99098Y79094D01*
X98967D01*
X98934Y79127D01*
Y79193D01*
X98967Y79226D01*
X99098D01*
X99066Y79029D02*
X98934D01*
X99066D02*
Y78930D01*
X99033Y78898D01*
X98934D01*
X99131Y78832D02*
Y78701D01*
Y78832D02*
X99033D01*
Y78766D01*
Y78832D01*
X98934D01*
X99059Y80311D02*
X99092Y80344D01*
Y80410D01*
X99059Y80443D01*
X98928D01*
X98895Y80410D01*
Y80344D01*
X98928Y80311D01*
X98895Y80246D02*
Y80180D01*
Y80213D01*
X99092D01*
X99093D01*
X99092D02*
X99059Y80246D01*
X99092Y80082D02*
Y79951D01*
X99059D01*
X98928Y80082D01*
X98895D01*
X99712Y82729D02*
Y82795D01*
Y82762D02*
Y82729D01*
Y82762D02*
X99909D01*
X99910D01*
X99909D02*
X99876Y82795D01*
Y82631D02*
X99909Y82598D01*
Y82533D01*
X99876Y82500D01*
X99745D01*
X99712Y82533D01*
Y82598D01*
X99745Y82631D01*
X99876D01*
Y82434D02*
X99909Y82401D01*
Y82336D01*
X99876Y82303D01*
X99745D01*
X99712Y82336D01*
Y82401D01*
X99745Y82434D01*
X99876D01*
X99843Y82237D02*
X99712D01*
X99843D02*
Y82139D01*
X99810Y82106D01*
X99712D01*
X99909Y82041D02*
Y81910D01*
Y82041D02*
X99810D01*
Y81975D01*
Y82041D01*
X99712D01*
X99919Y81456D02*
X99886Y81424D01*
X99919Y81456D02*
Y81522D01*
X99886Y81555D01*
X99755D01*
X99722Y81522D01*
Y81456D01*
X99755Y81424D01*
X99886Y81358D02*
X99919Y81325D01*
Y81260D01*
X99886Y81227D01*
X99853D01*
X99820Y81260D01*
X99787Y81227D01*
X99755D01*
X99722Y81260D01*
Y81325D01*
X99755Y81358D01*
X99787D01*
X99820Y81325D01*
X99853Y81358D01*
X99886D01*
X99820Y81325D02*
Y81260D01*
X99121Y82346D02*
Y82411D01*
Y82378D02*
Y82346D01*
Y82378D02*
X99318D01*
X99319D01*
X99318D02*
X99285Y82411D01*
X99253Y82247D02*
X99154D01*
X99121Y82214D01*
Y82116D01*
X99253D01*
X99318Y82050D02*
Y81919D01*
Y82050D02*
X99220D01*
Y81985D01*
Y82050D01*
X99121D01*
X99348Y81437D02*
X99315Y81404D01*
X99348Y81437D02*
Y81502D01*
X99315Y81535D01*
X99184D01*
X99151Y81502D01*
Y81437D01*
X99184Y81404D01*
X99315Y81273D02*
X99348Y81207D01*
X99315Y81273D02*
X99249Y81338D01*
X99184D01*
X99151Y81306D01*
Y81240D01*
X99184Y81207D01*
X99217D01*
X99249Y81240D01*
Y81338D01*
X99623Y82795D02*
Y82926D01*
Y82795D02*
X99492Y82926D01*
X99459D01*
X99427Y82893D01*
Y82828D01*
X99459Y82795D01*
X99591Y82992D02*
X99623D01*
X99591D02*
Y83025D01*
X99623D01*
Y82992D01*
Y83156D02*
Y83287D01*
Y83156D02*
X99492Y83287D01*
X99459D01*
X99427Y83254D01*
Y83189D01*
X99459Y83156D01*
X99492Y83353D02*
X99623D01*
X99492D02*
Y83451D01*
X99525Y83484D01*
X99623D01*
X99427Y83549D02*
Y83681D01*
Y83549D02*
X99525D01*
Y83615D01*
Y83549D01*
X99623D01*
X98869Y83143D02*
X98836Y83110D01*
Y83044D01*
X98869Y83012D01*
X99000D01*
X99033Y83044D01*
Y83110D01*
X99000Y83143D01*
X98869Y83208D02*
X98836Y83241D01*
Y83307D01*
X98869Y83340D01*
X98902D01*
X98903D01*
X98902D02*
X98903D01*
X98902D02*
X98903D01*
X98902D02*
X98934Y83307D01*
Y83274D01*
Y83307D01*
X98967Y83340D01*
X99000D01*
X99033Y83307D01*
Y83241D01*
X99000Y83208D01*
X99033Y83504D02*
X98836D01*
X98934Y83405D01*
Y83536D01*
X100027Y83769D02*
Y83966D01*
X99928Y83868D01*
X100060D01*
X100125Y83966D02*
X100256D01*
Y83933D01*
X100125Y83802D01*
Y83769D01*
X100322D02*
Y83966D01*
Y83835D02*
Y83769D01*
Y83835D02*
X100453Y83966D01*
X100355Y83868D01*
X100453Y83769D01*
X99978Y84065D02*
Y84262D01*
X100076D01*
X100109Y84229D01*
Y84163D01*
X100076Y84130D01*
X99978D01*
X100043D02*
X100109Y84065D01*
X100175Y84098D02*
X100207Y84065D01*
X100273D01*
X100306Y84098D01*
Y84229D01*
X100273Y84262D01*
X100207D01*
X100175Y84229D01*
Y84196D01*
X100207Y84163D01*
X100306D01*
X96635Y85115D02*
X96602Y85147D01*
X96536D01*
X96503Y85115D01*
Y84983D01*
X96536Y84951D01*
X96602D01*
X96635Y84983D01*
X96700Y84951D02*
Y85147D01*
X96831Y84951D01*
Y85147D01*
X96897D02*
X97028D01*
X96897D02*
Y85049D01*
X96962Y85082D01*
X96995D01*
X97028Y85049D01*
Y84983D01*
X96995Y84951D01*
X96930D01*
X96897Y84983D01*
X100342Y84803D02*
X100407D01*
X100375D01*
Y85000D01*
X100376D01*
X100375D02*
X100342Y84967D01*
X100506Y84934D02*
Y84836D01*
X100539Y84803D01*
X100637D01*
Y84934D01*
X100703Y85000D02*
X100834D01*
X100703D02*
Y84901D01*
X100768D01*
X100703D01*
Y84803D01*
X99873Y85026D02*
X99840Y85059D01*
X99774D01*
X99741Y85026D01*
Y84895D01*
X99774Y84862D01*
X99840D01*
X99873Y84895D01*
X99938Y85026D02*
X99971Y85059D01*
X100037D01*
X100069Y85026D01*
Y84993D01*
X100070D01*
X100069D02*
X100070D01*
X100069D02*
X100070D01*
X100069D02*
X100037Y84960D01*
X100004D01*
X100037D01*
X100069Y84928D01*
Y84895D01*
X100037Y84862D01*
X99971D01*
X99938Y84895D01*
X100201Y85026D02*
X100266Y85059D01*
X100201Y85026D02*
X100135Y84960D01*
Y84895D01*
X100168Y84862D01*
X100233D01*
X100266Y84895D01*
Y84928D01*
X100233Y84960D01*
X100135D01*
X98911Y84468D02*
X98846D01*
X98879D02*
X98911D01*
X98879D02*
Y84665D01*
X98880D01*
X98879D02*
X98846Y84632D01*
X99010Y84665D02*
Y84468D01*
X99075Y84599D02*
X99010Y84665D01*
X99075Y84599D02*
X99141Y84665D01*
Y84468D01*
X99692Y84488D02*
Y84685D01*
X99791D01*
X99823Y84652D01*
Y84586D01*
X99791Y84554D01*
X99692D01*
X99758D02*
X99823Y84488D01*
X99889D02*
X100020D01*
X99889D02*
X100020Y84619D01*
Y84652D01*
X99987Y84685D01*
X99922D01*
X99889Y84652D01*
X97622Y84350D02*
X97556D01*
X97589D02*
X97622D01*
X97589D02*
Y84547D01*
X97590D01*
X97589D02*
X97556Y84514D01*
X97720D02*
X97753Y84547D01*
X97819D01*
X97852Y84514D01*
Y84383D01*
X97819Y84350D01*
X97753D01*
X97720Y84383D01*
Y84514D01*
X97917Y84547D02*
Y84350D01*
X97983Y84481D02*
X97917Y84547D01*
X97983Y84481D02*
X98048Y84547D01*
Y84350D01*
X96936Y84370D02*
Y84567D01*
X97035D01*
X97068Y84534D01*
Y84468D01*
X97035Y84435D01*
X96936D01*
X97002D02*
X97068Y84370D01*
X97133Y84534D02*
X97166Y84567D01*
X97232D01*
X97264Y84534D01*
Y84501D01*
X97265D01*
X97264D02*
X97265D01*
X97264D02*
X97265D01*
X97264D02*
X97232Y84468D01*
X97199D01*
X97232D01*
X97264Y84435D01*
Y84403D01*
X97232Y84370D01*
X97166D01*
X97133Y84403D01*
X95558Y85095D02*
X95526Y85128D01*
X95558Y85095D02*
Y85029D01*
X95526Y84997D01*
X95394D01*
X95362Y85029D01*
Y85095D01*
X95394Y85128D01*
X95526D01*
X95558Y84931D02*
X95362D01*
X95558D02*
Y84833D01*
X95526Y84800D01*
X95460D01*
X95427Y84833D01*
Y84931D01*
Y84865D02*
X95362Y84800D01*
X95145Y84911D02*
X94948D01*
X95145D02*
Y84813D01*
X95112Y84780D01*
X95047D01*
X95014Y84813D01*
Y84911D01*
Y84846D02*
X94948Y84780D01*
X95112Y84714D02*
X95145Y84682D01*
Y84616D01*
X95112Y84583D01*
X95079D01*
X95080D01*
X95079D02*
X95080D01*
X95079D02*
X95080D01*
X95079D02*
X95047Y84616D01*
Y84649D01*
Y84616D01*
X95014Y84583D01*
X94981D01*
X94948Y84616D01*
Y84682D01*
X94981Y84714D01*
X94948Y84518D02*
Y84386D01*
Y84518D02*
X95079Y84386D01*
X95112D01*
X95145Y84419D01*
Y84485D01*
X95112Y84518D01*
X98885Y86200D02*
X98918Y86168D01*
X98885Y86200D02*
X98820D01*
X98787Y86168D01*
Y86135D01*
X98820Y86102D01*
X98885D01*
X98918Y86069D01*
Y86037D01*
X98885Y86004D01*
X98820D01*
X98787Y86037D01*
X98984Y86200D02*
X99115D01*
X99049D01*
Y86004D01*
X99180D02*
Y86200D01*
X99279D01*
X99312Y86168D01*
Y86102D01*
X99279Y86069D01*
X99180D01*
X99246D02*
X99312Y86004D01*
X99377Y86200D02*
X99443D01*
X99410D01*
Y86004D01*
X99377D01*
X99443D01*
X99541D02*
Y86200D01*
X99640D01*
X99672Y86168D01*
Y86102D01*
X99640Y86069D01*
X99541D01*
X97806Y86207D02*
X97773Y86240D01*
X97707D01*
X97675Y86207D01*
Y86076D01*
X97707Y86043D01*
X97773D01*
X97806Y86076D01*
X97871Y86043D02*
Y86240D01*
X98003Y86043D01*
Y86240D01*
X98068Y86207D02*
X98101Y86240D01*
X98167D01*
X98199Y86207D01*
Y86174D01*
X98200D01*
X98199D02*
X98200D01*
X98199D02*
X98200D01*
X98199D02*
X98167Y86141D01*
X98134D01*
X98167D01*
X98199Y86109D01*
Y86076D01*
X98167Y86043D01*
X98101D01*
X98068Y86076D01*
X92655Y85708D02*
Y85577D01*
Y85643D01*
X92458D01*
Y85512D02*
X92589D01*
X92655Y85446D01*
X92589Y85380D01*
X92458D01*
X92556D01*
Y85512D01*
X92458Y85315D02*
X92655D01*
Y85216D01*
X92622Y85184D01*
X92556D01*
X92524Y85216D01*
Y85315D01*
X92458Y85118D02*
X92655D01*
Y85020D01*
X92622Y84987D01*
X92556D01*
X92524Y85020D01*
Y85118D01*
X92606Y84577D02*
X92573Y84544D01*
X92606Y84577D02*
Y84642D01*
X92573Y84675D01*
X92442D01*
X92409Y84642D01*
Y84577D01*
X92442Y84544D01*
X92409Y84478D02*
X92606D01*
X92409Y84347D01*
X92606D01*
X92409Y84281D02*
Y84150D01*
Y84281D02*
X92540Y84150D01*
X92573D01*
X92606Y84183D01*
Y84249D01*
X92573Y84281D01*
X91163Y82555D02*
X91098Y82522D01*
X91032Y82456D01*
Y82391D01*
X91065Y82358D01*
X91131D01*
X91163Y82391D01*
Y82423D01*
X91131Y82456D01*
X91032D01*
X91262Y82325D02*
X91295Y82358D01*
Y82391D01*
X91262D01*
Y82358D01*
X91295D01*
X91262Y82325D01*
X91229Y82292D01*
X91426Y82522D02*
X91459Y82555D01*
X91524D01*
X91557Y82522D01*
Y82489D01*
X91524Y82456D01*
X91557Y82423D01*
Y82391D01*
X91524Y82358D01*
X91459D01*
X91426Y82391D01*
Y82423D01*
X91459Y82456D01*
X91426Y82489D01*
Y82522D01*
X91459Y82456D02*
X91524D01*
X91623Y82423D02*
Y82555D01*
Y82423D02*
X91688Y82358D01*
X91754Y82423D01*
Y82555D01*
X91112Y82718D02*
Y82915D01*
Y82718D02*
X91211D01*
X91243Y82751D01*
Y82882D01*
X91211Y82915D01*
X91112D01*
X91309D02*
X91440D01*
Y82882D01*
X91309Y82751D01*
Y82718D01*
X91440D01*
X91506D02*
X91571D01*
X91539D01*
Y82915D01*
X91540D01*
X91539D02*
X91506Y82882D01*
X93698Y82802D02*
Y82736D01*
Y82769D02*
Y82802D01*
Y82769D02*
X93501D01*
X93502D01*
X93501D02*
X93534Y82736D01*
X93501Y82900D02*
X93698D01*
X93633D01*
X93501Y83031D01*
X93600Y82933D01*
X93698Y83031D01*
X93885Y82628D02*
X94082D01*
X93885D02*
Y82726D01*
X93918Y82759D01*
X93984D01*
X94016Y82726D01*
Y82628D01*
Y82693D02*
X94082Y82759D01*
Y82825D02*
Y82956D01*
Y82825D02*
X93951Y82956D01*
X93918D01*
X93885Y82923D01*
Y82857D01*
X93918Y82825D01*
X93885Y83120D02*
X94082D01*
X93984Y83021D02*
X93885Y83120D01*
X93984Y83152D02*
Y83021D01*
X93098Y83602D02*
Y83668D01*
Y83635D01*
X92901D01*
X92902D01*
X92901D02*
X92934Y83602D01*
Y83766D02*
X92901Y83799D01*
Y83865D01*
X92934Y83897D01*
X93065D01*
X93098Y83865D01*
Y83799D01*
X93065Y83766D01*
X92934D01*
Y83963D02*
X92901Y83996D01*
Y84061D01*
X92934Y84094D01*
X93065D01*
X93098Y84061D01*
Y83996D01*
X93065Y83963D01*
X92934D01*
X92901Y84160D02*
X93098D01*
X93032D01*
X92901Y84291D01*
X92999Y84192D01*
X93098Y84291D01*
X93098Y82706D02*
X92901D01*
Y82805D01*
X92934Y82838D01*
X92999D01*
X93032Y82805D01*
Y82706D01*
Y82772D02*
X93098Y82838D01*
X92934Y82969D02*
X92901Y83034D01*
X92934Y82969D02*
X92999Y82903D01*
X93065D01*
X93098Y82936D01*
Y83002D01*
X93065Y83034D01*
X93032D01*
X92999Y83002D01*
Y82903D01*
X94053Y81998D02*
X94184D01*
X94053D02*
X94184Y82129D01*
Y82162D01*
X94151Y82195D01*
X94085D01*
X94053Y82162D01*
X94249Y82031D02*
Y81998D01*
Y82031D02*
X94282D01*
Y81998D01*
X94249D01*
X94413D02*
X94544D01*
X94413D02*
X94544Y82129D01*
Y82162D01*
X94512Y82195D01*
X94446D01*
X94413Y82162D01*
X94610Y82195D02*
Y81998D01*
X94676Y82129D02*
X94610Y82195D01*
X94676Y82129D02*
X94741Y82195D01*
Y81998D01*
X94043Y82264D02*
Y82460D01*
X94141D01*
X94174Y82428D01*
Y82362D01*
X94141Y82329D01*
X94043D01*
X94108D02*
X94174Y82264D01*
X94239Y82460D02*
X94371D01*
Y82428D01*
X94239Y82296D01*
Y82264D01*
X92699Y82175D02*
X92634D01*
X92667D02*
X92699D01*
X92667D02*
Y82372D01*
X92668D01*
X92667D02*
X92634Y82339D01*
X92798Y82306D02*
Y82208D01*
X92831Y82175D01*
X92929D01*
Y82306D01*
X92995Y82372D02*
X93126D01*
X92995D02*
Y82273D01*
X93060D01*
X92995D01*
Y82175D01*
X92550Y81758D02*
X92517Y81791D01*
X92451D01*
X92419Y81758D01*
Y81627D01*
X92451Y81594D01*
X92517D01*
X92550Y81627D01*
X92615Y81594D02*
X92747D01*
X92615D02*
X92747Y81725D01*
Y81758D01*
X92714Y81791D01*
X92648D01*
X92615Y81758D01*
X92878D02*
X92943Y81791D01*
X92878Y81758D02*
X92812Y81693D01*
Y81627D01*
X92845Y81594D01*
X92911D01*
X92943Y81627D01*
Y81660D01*
X92911Y81693D01*
X92812D01*
X91759Y81584D02*
Y81519D01*
Y81552D01*
X91956D01*
X91957D01*
X91956D02*
X91923Y81584D01*
X91956Y81420D02*
X91759D01*
X91890Y81355D02*
X91956Y81420D01*
X91890Y81355D02*
X91956Y81289D01*
X91759D01*
X91927Y81919D02*
X92123D01*
Y81821D01*
X92091Y81788D01*
X92025D01*
X91992Y81821D01*
Y81919D01*
Y81853D02*
X91927Y81788D01*
Y81624D02*
X92123D01*
X92025Y81722D01*
Y81591D01*
X91927Y81427D02*
X92123D01*
X92025Y81525D01*
Y81394D01*
X91812Y80728D02*
X91680D01*
X91812Y80859D01*
Y80892D01*
X91779Y80925D01*
X91713D01*
X91680Y80892D01*
X91877Y80925D02*
Y80728D01*
X91943Y80859D02*
X91877Y80925D01*
X91943Y80859D02*
X92008Y80925D01*
Y80728D01*
X90893Y80807D02*
Y81004D01*
X90991D01*
X91024Y80971D01*
Y80905D01*
X90991Y80872D01*
X90893D01*
X90959D02*
X91024Y80807D01*
X91090Y80971D02*
X91123Y81004D01*
X91188D01*
X91221Y80971D01*
Y80938D01*
X91188Y80905D01*
X91221Y80872D01*
Y80840D01*
X91188Y80807D01*
X91123D01*
X91090Y80840D01*
Y80872D01*
X91123Y80905D01*
X91090Y80938D01*
Y80971D01*
X91123Y80905D02*
X91188D01*
X91425Y80364D02*
X91556D01*
X91425D02*
X91556Y80495D01*
Y80528D01*
X91523Y80561D01*
X91457D01*
X91425Y80528D01*
X91621Y80364D02*
X91753D01*
X91621D02*
X91753Y80495D01*
Y80528D01*
X91720Y80561D01*
X91654D01*
X91621Y80528D01*
X91818D02*
X91851Y80561D01*
X91917D01*
X91949Y80528D01*
Y80397D01*
X91917Y80364D01*
X91851D01*
X91818Y80397D01*
Y80528D01*
X92015Y80495D02*
Y80364D01*
Y80495D02*
X92113D01*
X92146Y80462D01*
Y80364D01*
X92212Y80561D02*
X92343D01*
X92212D02*
Y80462D01*
X92277D01*
X92212D01*
Y80364D01*
X92556Y80364D02*
X92589Y80331D01*
X92556Y80364D02*
X92491D01*
X92458Y80331D01*
Y80200D01*
X92491Y80167D01*
X92556D01*
X92589Y80200D01*
X92655Y80167D02*
X92786D01*
X92655D02*
X92786Y80298D01*
Y80331D01*
X92753Y80364D01*
X92688D01*
X92655Y80331D01*
X92852Y80167D02*
X92983D01*
X92852D02*
X92983Y80298D01*
Y80331D01*
X92950Y80364D01*
X92884D01*
X92852Y80331D01*
X90047Y81985D02*
Y82116D01*
Y82050D02*
Y81985D01*
Y82050D02*
X89850D01*
Y81919D02*
X90047D01*
Y81821D01*
X90014Y81788D01*
X89948D01*
X89915Y81821D01*
Y81919D01*
X90047Y81624D02*
X90014Y81591D01*
X90047Y81624D02*
Y81690D01*
X90014Y81722D01*
X89981D01*
X89948Y81690D01*
Y81624D01*
X89915Y81591D01*
X89883D01*
X89850Y81624D01*
Y81690D01*
X89883Y81722D01*
X90047Y81526D02*
Y81394D01*
X90014D01*
X89883Y81526D01*
X89850D01*
Y81329D02*
Y81263D01*
Y81296D01*
X90047D01*
X90048D01*
X90047D02*
X90014Y81329D01*
X90047Y81165D02*
Y81034D01*
Y81165D02*
X89948D01*
X89981Y81099D01*
Y81066D01*
X89948Y81034D01*
X89883D01*
X89850Y81066D01*
Y81132D01*
X89883Y81165D01*
X90014Y80968D02*
X90047Y80935D01*
Y80870D01*
X90014Y80837D01*
X89883D01*
X89850Y80870D01*
Y80935D01*
X89883Y80968D01*
X90014D01*
X89850Y80771D02*
Y80706D01*
Y80738D01*
X90047D01*
X90048D01*
X90047D02*
X90014Y80771D01*
X90047Y80607D02*
X89850D01*
Y80509D01*
X89883Y80476D01*
X90014D01*
X90047Y80509D01*
Y80607D01*
Y80312D02*
X90014Y80279D01*
X90047Y80312D02*
Y80378D01*
X90014Y80410D01*
X89883D01*
X89850Y80378D01*
Y80312D01*
X89883Y80279D01*
X89850Y80214D02*
X90047D01*
X89915D02*
X89850D01*
X89915D02*
X90047Y80082D01*
X89948Y80181D01*
X89850Y80082D01*
Y80017D02*
X90047D01*
Y79918D01*
X90014Y79886D01*
X89948D01*
X89915Y79918D01*
Y80017D01*
Y79951D02*
X89850Y79886D01*
X90680Y80787D02*
X90844D01*
X90680D02*
X90647Y80754D01*
Y80689D01*
X90680Y80656D01*
X90844D01*
Y80492D02*
X90647D01*
X90745Y80590D02*
X90844Y80492D01*
X90745Y80459D02*
Y80590D01*
X90519Y79478D02*
Y79281D01*
X90421Y79380D02*
X90519Y79478D01*
X90552Y79380D02*
X90421D01*
X90617Y79281D02*
X90683D01*
X90650D01*
Y79478D01*
X90651D01*
X90650D02*
X90617Y79445D01*
X90880Y79478D02*
Y79281D01*
X90781Y79380D02*
X90880Y79478D01*
X90913Y79380D02*
X90781D01*
X90978Y79445D02*
X91011Y79478D01*
X91077D01*
X91109Y79445D01*
Y79412D01*
X91077Y79380D01*
X91109Y79347D01*
Y79314D01*
X91077Y79281D01*
X91011D01*
X90978Y79314D01*
Y79347D01*
X91011Y79380D01*
X90978Y79412D01*
Y79445D01*
X91011Y79380D02*
X91077D01*
X90184Y79508D02*
Y79704D01*
Y79508D02*
X90283D01*
X90316Y79540D01*
Y79672D01*
X90283Y79704D01*
X90184D01*
X90381Y79508D02*
X90447D01*
X90414D01*
Y79704D01*
X90415D01*
X90414D02*
X90381Y79672D01*
X91474Y76506D02*
X91671D01*
Y76407D01*
X91638Y76374D01*
X91572D01*
X91539Y76407D01*
Y76506D01*
X91671Y76276D02*
Y76210D01*
Y76276D02*
X91638Y76309D01*
X91507D01*
X91474Y76276D01*
Y76210D01*
X91507Y76178D01*
X91638D01*
X91671Y76210D01*
Y76112D02*
X91474D01*
X91539Y76046D01*
X91474Y75981D01*
X91671D01*
Y75915D02*
Y75784D01*
Y75915D02*
X91474D01*
Y75784D01*
X91572Y75850D02*
Y75915D01*
X91474Y75719D02*
X91671D01*
Y75620D01*
X91638Y75587D01*
X91572D01*
X91539Y75620D01*
Y75719D01*
Y75653D02*
X91474Y75587D01*
X91648Y77634D02*
X91680Y77667D01*
Y77733D01*
X91648Y77766D01*
X91516D01*
X91484Y77733D01*
Y77667D01*
X91516Y77634D01*
X91484Y77569D02*
X91680D01*
X91484Y77438D01*
X91680D01*
X91484Y77372D02*
Y77306D01*
Y77339D01*
X91680D01*
X91681D01*
X91680D02*
X91648Y77372D01*
G54D13*
X97015Y81506D02*
X97369Y81860D01*
Y82884D02*
Y83710D01*
X95165D02*
Y82884D01*
Y82332D02*
Y81506D01*
X97369Y81860D02*
Y82332D01*
Y83710D02*
X96543D01*
X95991D02*
X95165D01*
Y81506D02*
X95204D01*
X95991D01*
X96543D02*
X97015D01*
G54D15*
X94653Y85216D02*
Y86781D01*
X100627Y86830D02*
Y85216D01*
X94653D01*
X94633Y86830D02*
X100627D01*
X103777Y78799D02*
Y78232D01*
X103304D02*
Y78799D01*
Y78232D02*
X103777D01*
Y78799D02*
X103304D01*
X99593Y78133D02*
Y77149D01*
X100735D02*
Y78133D01*
Y77149D02*
X99593D01*
Y78133D02*
X100696D01*
G54D16*
X103259Y75892D02*
X103390Y76023D01*
X103259D02*
X103390Y75892D01*
X103324D02*
Y76023D01*
X103259Y75958D02*
X103390D01*
X94680Y79785D02*
Y81785D01*
X93680D02*
Y79785D01*
Y81785D02*
X94680D01*
Y79785D02*
X93680D01*
Y80785D02*
X94680D01*
X98651Y84874D02*
Y85874D01*
X99651D02*
Y84874D01*
X95651D02*
Y85874D01*
Y84874D02*
X99651D01*
Y85874D02*
X95651D01*
X101159Y85464D02*
Y86464D01*
X93159D02*
Y85464D01*
X94159D02*
Y86464D01*
X93159Y85464D02*
X101159D01*
Y86464D02*
X93159D01*
X92249Y85929D02*
Y83929D01*
X91249D02*
Y85929D01*
X92249D01*
Y83929D02*
X91249D01*
Y84929D02*
X92249D01*
X94482Y88467D02*
X94318Y88631D01*
X93990D01*
X93826Y88467D01*
Y88303D01*
X93990Y88139D01*
X94318D01*
X94482Y87975D01*
Y87811D01*
X94318Y87647D01*
X93990D01*
X93826Y87811D01*
X94810Y87647D02*
Y88303D01*
X95138Y88631D01*
X95466Y88303D01*
Y87647D01*
Y88139D01*
X94810D01*
X95794Y88631D02*
X96450D01*
X95794D02*
Y87647D01*
X96450D01*
X96122Y88139D02*
X95794D01*
X96778Y88631D02*
X97434D01*
X97106D01*
Y87647D01*
X98746Y88631D02*
X99074D01*
X98910D01*
Y87647D01*
X98746D01*
X99074D01*
X99566D02*
Y87811D01*
X99730D01*
Y87647D01*
X99566D01*
X100878Y88631D02*
X101042Y88467D01*
X100878Y88631D02*
X100550D01*
X100386Y88467D01*
Y88303D01*
X100550Y88139D01*
X100878D01*
X101042Y87975D01*
Y87811D01*
X100878Y87647D01*
X100550D01*
X100386Y87811D01*
X101370D02*
Y87647D01*
Y87811D02*
X101534D01*
Y87647D01*
X101370D01*
X104157D02*
X104649D01*
X104813Y87811D01*
X104649Y87975D01*
X104321D01*
X104157Y88139D01*
X104321Y88303D01*
X104813D01*
X105141Y87811D02*
Y87647D01*
Y87811D02*
X105305D01*
Y87647D01*
X105141D01*
X105961D02*
Y88303D01*
Y87975D02*
Y87647D01*
Y87975D02*
X106125Y88139D01*
X106289Y88303D01*
X106453D01*
X106945Y87811D02*
Y87647D01*
Y87811D02*
X107109D01*
Y87647D01*
X106945D01*
X107765D02*
X108093D01*
X107929D01*
Y88631D01*
X107765D01*
X108585Y87811D02*
Y87647D01*
Y87811D02*
X108749D01*
Y87647D01*
X108585D01*
G54D19*
X91397Y81343D02*
X91030D01*
Y81943D02*
X91397D01*
X90730D02*
X90280D01*
Y81343D02*
X90730D01*
X91397D02*
Y81943D01*
X90280D02*
Y81343D01*
X104284Y77198D02*
Y76778D01*
X103684D02*
Y77198D01*
Y77498D02*
Y77948D01*
X104284D02*
Y77498D01*
Y76778D02*
X103684D01*
Y77948D02*
X104284D01*
X104835Y78113D02*
Y77693D01*
X105435D02*
Y78113D01*
Y77393D02*
Y76943D01*
X104835D02*
Y77393D01*
Y78113D02*
X105435D01*
Y76943D02*
X104835D01*
X104325Y77771D02*
Y78371D01*
X105495D02*
Y77771D01*
X104745D02*
X104325D01*
Y78371D02*
X104745D01*
X105045D02*
X105495D01*
Y77771D02*
X105045D01*
X103872Y78217D02*
Y78817D01*
X105042D02*
Y78217D01*
X104292D02*
X103872D01*
Y78817D02*
X104292D01*
X104592D02*
X105042D01*
Y78217D02*
X104592D01*
X104382Y79484D02*
Y79904D01*
X104982D02*
Y79484D01*
Y79184D02*
Y78734D01*
X104382D02*
Y79184D01*
Y79904D02*
X104982D01*
Y78734D02*
X104382D01*
X103900Y79003D02*
Y79423D01*
X103300D02*
Y79003D01*
Y79723D02*
Y80173D01*
X103900D02*
Y79723D01*
Y79003D02*
X103300D01*
Y80173D02*
X103900D01*
X102405Y80313D02*
Y79713D01*
X103575D02*
Y80313D01*
X102825Y79713D02*
X102405D01*
Y80313D02*
X102825D01*
X103125D02*
X103575D01*
Y79713D02*
X103125D01*
X101490D02*
Y80313D01*
X102660D02*
Y79713D01*
X101910D02*
X101490D01*
Y80313D02*
X101910D01*
X102210D02*
X102660D01*
Y79713D02*
X102210D01*
X101783Y79666D02*
Y80086D01*
X101183D02*
Y79666D01*
Y80386D02*
Y80836D01*
X101783D02*
Y80386D01*
Y79666D02*
X101183D01*
Y80836D02*
X101783D01*
X100845Y80117D02*
Y79417D01*
X99595D02*
Y80117D01*
X99873Y80397D02*
X100573D01*
Y79147D02*
X99873D01*
X101104Y79249D02*
Y78829D01*
X101704D02*
Y79249D01*
Y78529D02*
Y78079D01*
X101104D02*
Y78529D01*
Y79249D02*
X101704D01*
Y78079D02*
X101104D01*
X101547Y78829D02*
Y79249D01*
X102147D02*
Y78829D01*
Y78529D02*
Y78079D01*
X101547D02*
Y78529D01*
Y79249D02*
X102147D01*
Y78079D02*
X101547D01*
X102000Y78472D02*
Y78922D01*
X102600D02*
Y78472D01*
Y79222D02*
Y79642D01*
X102000D02*
Y79222D01*
Y78472D02*
X102600D01*
Y79642D02*
X102000D01*
X103575Y77527D02*
Y77107D01*
X102975D02*
Y77527D01*
Y77827D02*
Y78277D01*
X103575D02*
Y77827D01*
Y77107D02*
X102975D01*
Y78277D02*
X103575D01*
X102384Y78356D02*
Y78776D01*
X102984D02*
Y78356D01*
Y78056D02*
Y77606D01*
X102384D02*
Y78056D01*
Y78776D02*
X102984D01*
Y77606D02*
X102384D01*
X101990Y78346D02*
Y78766D01*
X102590D02*
Y78346D01*
Y78046D02*
Y77596D01*
X101990D02*
Y78046D01*
Y78766D02*
X102590D01*
Y77596D02*
X101990D01*
X102610Y76601D02*
Y76181D01*
X102010D02*
Y76601D01*
Y76901D02*
Y77351D01*
X102610D02*
Y76901D01*
Y76181D02*
X102010D01*
Y77351D02*
X102610D01*
X103150Y77174D02*
Y77774D01*
X101980D02*
Y77174D01*
X102730Y77774D02*
X103150D01*
Y77174D02*
X102730D01*
X102430D02*
X101980D01*
Y77774D02*
X102430D01*
X101547Y77884D02*
Y78304D01*
X102147D02*
Y77884D01*
Y77584D02*
Y77134D01*
X101547D02*
Y77584D01*
Y78304D02*
X102147D01*
Y77134D02*
X101547D01*
X101124Y77884D02*
Y78304D01*
X101724D02*
Y77884D01*
Y77584D02*
Y77134D01*
X101124D02*
Y77584D01*
Y78304D02*
X101724D01*
Y77134D02*
X101124D01*
X101754Y77145D02*
Y76695D01*
X101154D02*
Y77145D01*
Y76395D02*
Y75975D01*
X101754D02*
Y76395D01*
Y77145D02*
X101154D01*
Y75975D02*
X101754D01*
X101321Y76695D02*
Y77145D01*
X100721D02*
Y76695D01*
Y76395D02*
Y75975D01*
X101321D02*
Y76395D01*
Y77145D02*
X100721D01*
Y75975D02*
X101321D01*
X100897D02*
Y76395D01*
X100297D02*
Y75975D01*
Y76695D02*
Y77145D01*
X100897D02*
Y76695D01*
Y75975D02*
X100297D01*
Y77145D02*
X100897D01*
X99254Y76712D02*
Y76012D01*
X100504D02*
Y76712D01*
X99754Y76012D02*
X99254D01*
Y76712D02*
X99754D01*
X100054D02*
X100504D01*
Y76012D02*
X100054D01*
X95723Y77621D02*
Y78521D01*
X97623D02*
Y77621D01*
X96473D02*
X95723D01*
Y78521D02*
X96473D01*
X96873D02*
X97623D01*
Y77621D02*
X96873D01*
X97978Y76085D02*
Y75335D01*
X96978D02*
Y76085D01*
Y76935D02*
Y77685D01*
X97978D02*
Y76935D01*
Y75335D02*
X96978D01*
Y77685D02*
X97978D01*
X96698Y76095D02*
Y75345D01*
X95698D02*
Y76095D01*
Y76945D02*
Y77695D01*
X96698D02*
Y76945D01*
Y75345D02*
X95698D01*
Y77695D02*
X96698D01*
X94587Y77362D02*
Y78112D01*
X95487D02*
Y77362D01*
Y76962D02*
Y76212D01*
X94587D02*
Y76962D01*
Y78112D02*
X95487D01*
Y76212D02*
X94587D01*
X93535Y77259D02*
Y77859D01*
X94705D02*
Y77259D01*
X93985Y77859D02*
X93535D01*
Y77259D02*
X93985D01*
X94285D02*
X94705D01*
Y77859D02*
X94285D01*
X93368Y78312D02*
Y78912D01*
X94538D02*
Y78312D01*
X93818Y78912D02*
X93368D01*
Y78312D02*
X93818D01*
X94118D02*
X94538D01*
Y78912D02*
X94118D01*
X92424Y79729D02*
Y80329D01*
X91254D02*
Y79729D01*
X91974D02*
X92424D01*
Y80329D02*
X91974D01*
X91674D02*
X91254D01*
Y79729D02*
X91674D01*
X92366Y80547D02*
Y80997D01*
X93516D02*
Y80547D01*
X92566Y80997D02*
X92366D01*
X92916Y80097D02*
X92966D01*
X93316Y80997D02*
X93516D01*
X93388Y80004D02*
Y79404D01*
X94558D02*
Y80004D01*
X93838D02*
X93388D01*
Y79404D02*
X93838D01*
X94138D02*
X94558D01*
Y80004D02*
X94138D01*
X94834D02*
Y79404D01*
X96004D02*
Y80004D01*
X95284D02*
X94834D01*
Y79404D02*
X95284D01*
X95584D02*
X96004D01*
Y80004D02*
X95584D01*
X96732Y79845D02*
Y80745D01*
X94832D02*
Y79845D01*
X95982Y80745D02*
X96732D01*
Y79845D02*
X95982D01*
X95582D02*
X94832D01*
Y80745D02*
X95582D01*
X94925Y80655D02*
Y81255D01*
X96043D02*
Y80655D01*
X95375D02*
X94925D01*
Y81255D02*
X95375D01*
X95675D02*
X96043D01*
Y80655D02*
X95675D01*
X97510Y80517D02*
Y81117D01*
X96393D02*
Y80517D01*
X97060Y81117D02*
X97510D01*
Y80517D02*
X97060D01*
X96760D02*
X96393D01*
Y81117D02*
X96760D01*
X98533Y80735D02*
Y79835D01*
X96633D02*
Y80735D01*
X97783D02*
X98533D01*
Y79835D02*
X97783D01*
X97383D02*
X96633D01*
Y80735D02*
X97383D01*
X98703Y80212D02*
Y79762D01*
X99303D02*
Y80212D01*
Y80512D02*
Y80932D01*
X98703D02*
Y80512D01*
Y79762D02*
X99303D01*
Y80932D02*
X98703D01*
X99421Y81097D02*
Y80647D01*
X100021D02*
Y81097D01*
Y81397D02*
Y81817D01*
X99421D02*
Y81397D01*
Y80647D02*
X100021D01*
Y81817D02*
X99421D01*
X99018Y81097D02*
Y80647D01*
X99618D02*
Y81097D01*
Y81397D02*
Y81817D01*
X99018D02*
Y81397D01*
Y80647D02*
X99618D01*
Y81817D02*
X99018D01*
X98703Y83608D02*
Y84028D01*
X99303D02*
Y83608D01*
Y83308D02*
Y82858D01*
X98703D02*
Y83308D01*
Y84028D02*
X99303D01*
Y82858D02*
X98703D01*
X98624Y83755D02*
Y84355D01*
X99794D02*
Y83755D01*
X99074Y84355D02*
X98624D01*
Y83755D02*
X99074D01*
X99374D02*
X99794D01*
Y84355D02*
X99374D01*
X98449Y84542D02*
Y85142D01*
X99567D02*
Y84542D01*
X98899D02*
X98449D01*
Y85142D02*
X98899D01*
X99199D02*
X99567D01*
Y84542D02*
X99199D01*
X98220Y84788D02*
Y84188D01*
X99390D02*
Y84788D01*
X98670D02*
X98220D01*
Y84188D02*
X98670D01*
X98970D02*
X99390D01*
Y84788D02*
X98970D01*
X97403Y84778D02*
Y84178D01*
X98573D02*
Y84778D01*
X97853D02*
X97403D01*
Y84178D02*
X97853D01*
X98153D02*
X98573D01*
Y84778D02*
X98153D01*
X95258Y85439D02*
Y85859D01*
X95858D02*
Y85439D01*
Y85139D02*
Y84689D01*
X95258D02*
Y85139D01*
Y85859D02*
X95858D01*
Y84689D02*
X95258D01*
X92692Y83128D02*
Y82128D01*
X90342D02*
Y83128D01*
X91942Y82128D02*
X92692D01*
Y83128D02*
X91942D01*
X91092D02*
X90342D01*
Y82128D02*
X91092D01*
X93801Y82971D02*
Y83421D01*
X93201D02*
Y82971D01*
Y82671D02*
Y82251D01*
X93801D02*
Y82671D01*
Y83421D02*
X93201D01*
Y82251D02*
X93801D01*
X93408Y82971D02*
Y83421D01*
X92808D02*
Y82971D01*
Y82671D02*
Y82251D01*
X93408D02*
Y82671D01*
Y83421D02*
X92808D01*
Y82251D02*
X93408D01*
X92767Y82455D02*
Y81855D01*
X93937D02*
Y82455D01*
X93217D02*
X92767D01*
Y81855D02*
X93217D01*
X93517D02*
X93937D01*
Y82455D02*
X93517D01*
X92315Y81915D02*
Y81215D01*
X93565D02*
Y81915D01*
X92765D02*
X92315D01*
Y81215D02*
X92765D01*
X93065D02*
X93565D01*
Y81915D02*
X93065D01*
X92236Y82059D02*
Y81692D01*
X91636D02*
Y82059D01*
Y81392D02*
Y80942D01*
X92236D02*
Y81392D01*
Y82059D02*
X91636D01*
Y80942D02*
X92236D01*
X92441Y81205D02*
Y80605D01*
X91271D02*
Y81205D01*
X92021D02*
X92441D01*
Y80605D02*
X92021D01*
X91721D02*
X91271D01*
Y81205D02*
X91721D01*
X92392Y80703D02*
Y80103D01*
X91274D02*
Y80703D01*
X92024Y80103D02*
X92392D01*
Y80703D02*
X92024D01*
X91724D02*
X91274D01*
Y80103D02*
X91724D01*
X90900Y80137D02*
X90750D01*
X91262Y79858D02*
Y79158D01*
X90012D02*
Y79858D01*
X90762D02*
X91262D01*
Y79158D02*
X90762D01*
X90462D02*
X90012D01*
Y79858D02*
X90462D01*
X91289Y78596D02*
Y75096D01*
X89789D02*
Y78596D01*
X91289D01*
Y75096D02*
X89789D01*
G54D22*
X100732Y79058D02*
X100929Y79255D01*
Y79255D02*
Y80476D01*
X99512D02*
Y79058D01*
X100614D01*
X100693D01*
X100732D01*
X100929Y80476D02*
X99512D01*
D02*
M02*
