G04 #@! TF.FileFunction,Copper,L1,Top,Signal*
%FSLAX46Y46*%
G04 Gerber Fmt 4.6, Leading zero omitted, Abs format (unit mm)*
G04 Created by KiCad (PCBNEW 4.0.2+dfsg1-stable) date lun 28 gen 2019 08:35:01 CET*
%MOMM*%
G01*
G04 APERTURE LIST*
%ADD10C,0.100000*%
%ADD11C,0.300000*%
%ADD12C,0.700000*%
%ADD13O,1.727200X1.727200*%
%ADD14R,1.727200X1.727200*%
%ADD15C,2.300000*%
%ADD16C,0.250000*%
G04 APERTURE END LIST*
D10*
D11*
X138381179Y-85395164D02*
X138452608Y-85466593D01*
X138524036Y-85680879D01*
X138524036Y-85823736D01*
X138452608Y-86038021D01*
X138309751Y-86180879D01*
X138166894Y-86252307D01*
X137881179Y-86323736D01*
X137666894Y-86323736D01*
X137381179Y-86252307D01*
X137238322Y-86180879D01*
X137095465Y-86038021D01*
X137024036Y-85823736D01*
X137024036Y-85680879D01*
X137095465Y-85466593D01*
X137166894Y-85395164D01*
X138452608Y-84823736D02*
X138524036Y-84609450D01*
X138524036Y-84252307D01*
X138452608Y-84109450D01*
X138381179Y-84038021D01*
X138238322Y-83966593D01*
X138095465Y-83966593D01*
X137952608Y-84038021D01*
X137881179Y-84109450D01*
X137809751Y-84252307D01*
X137738322Y-84538021D01*
X137666894Y-84680879D01*
X137595465Y-84752307D01*
X137452608Y-84823736D01*
X137309751Y-84823736D01*
X137166894Y-84752307D01*
X137095465Y-84680879D01*
X137024036Y-84538021D01*
X137024036Y-84180879D01*
X137095465Y-83966593D01*
X137024036Y-83466593D02*
X137024036Y-82538022D01*
X137595465Y-83038022D01*
X137595465Y-82823736D01*
X137666894Y-82680879D01*
X137738322Y-82609450D01*
X137881179Y-82538022D01*
X138238322Y-82538022D01*
X138381179Y-82609450D01*
X138452608Y-82680879D01*
X138524036Y-82823736D01*
X138524036Y-83252308D01*
X138452608Y-83395165D01*
X138381179Y-83466593D01*
X138524036Y-81823737D02*
X138524036Y-81538022D01*
X138452608Y-81395165D01*
X138381179Y-81323737D01*
X138166894Y-81180879D01*
X137881179Y-81109451D01*
X137309751Y-81109451D01*
X137166894Y-81180879D01*
X137095465Y-81252308D01*
X137024036Y-81395165D01*
X137024036Y-81680879D01*
X137095465Y-81823737D01*
X137166894Y-81895165D01*
X137309751Y-81966594D01*
X137666894Y-81966594D01*
X137809751Y-81895165D01*
X137881179Y-81823737D01*
X137952608Y-81680879D01*
X137952608Y-81395165D01*
X137881179Y-81252308D01*
X137809751Y-81180879D01*
X137666894Y-81109451D01*
X137024036Y-80609451D02*
X137024036Y-79680880D01*
X137595465Y-80180880D01*
X137595465Y-79966594D01*
X137666894Y-79823737D01*
X137738322Y-79752308D01*
X137881179Y-79680880D01*
X138238322Y-79680880D01*
X138381179Y-79752308D01*
X138452608Y-79823737D01*
X138524036Y-79966594D01*
X138524036Y-80395166D01*
X138452608Y-80538023D01*
X138381179Y-80609451D01*
X137024036Y-79180880D02*
X137024036Y-78252309D01*
X137595465Y-78752309D01*
X137595465Y-78538023D01*
X137666894Y-78395166D01*
X137738322Y-78323737D01*
X137881179Y-78252309D01*
X138238322Y-78252309D01*
X138381179Y-78323737D01*
X138452608Y-78395166D01*
X138524036Y-78538023D01*
X138524036Y-78966595D01*
X138452608Y-79109452D01*
X138381179Y-79180880D01*
X138524036Y-77609452D02*
X137024036Y-77609452D01*
X137024036Y-77252309D01*
X137095465Y-77038024D01*
X137238322Y-76895166D01*
X137381179Y-76823738D01*
X137666894Y-76752309D01*
X137881179Y-76752309D01*
X138166894Y-76823738D01*
X138309751Y-76895166D01*
X138452608Y-77038024D01*
X138524036Y-77252309D01*
X138524036Y-77609452D01*
X111860481Y-83589086D02*
X111931910Y-83517657D01*
X112146196Y-83446229D01*
X112289053Y-83446229D01*
X112503338Y-83517657D01*
X112646196Y-83660514D01*
X112717624Y-83803371D01*
X112789053Y-84089086D01*
X112789053Y-84303371D01*
X112717624Y-84589086D01*
X112646196Y-84731943D01*
X112503338Y-84874800D01*
X112289053Y-84946229D01*
X112146196Y-84946229D01*
X111931910Y-84874800D01*
X111860481Y-84803371D01*
X111289053Y-83517657D02*
X111074767Y-83446229D01*
X110717624Y-83446229D01*
X110574767Y-83517657D01*
X110503338Y-83589086D01*
X110431910Y-83731943D01*
X110431910Y-83874800D01*
X110503338Y-84017657D01*
X110574767Y-84089086D01*
X110717624Y-84160514D01*
X111003338Y-84231943D01*
X111146196Y-84303371D01*
X111217624Y-84374800D01*
X111289053Y-84517657D01*
X111289053Y-84660514D01*
X111217624Y-84803371D01*
X111146196Y-84874800D01*
X111003338Y-84946229D01*
X110646196Y-84946229D01*
X110431910Y-84874800D01*
X109931910Y-84946229D02*
X109003339Y-84946229D01*
X109503339Y-84374800D01*
X109289053Y-84374800D01*
X109146196Y-84303371D01*
X109074767Y-84231943D01*
X109003339Y-84089086D01*
X109003339Y-83731943D01*
X109074767Y-83589086D01*
X109146196Y-83517657D01*
X109289053Y-83446229D01*
X109717625Y-83446229D01*
X109860482Y-83517657D01*
X109931910Y-83589086D01*
X108289054Y-83446229D02*
X108003339Y-83446229D01*
X107860482Y-83517657D01*
X107789054Y-83589086D01*
X107646196Y-83803371D01*
X107574768Y-84089086D01*
X107574768Y-84660514D01*
X107646196Y-84803371D01*
X107717625Y-84874800D01*
X107860482Y-84946229D01*
X108146196Y-84946229D01*
X108289054Y-84874800D01*
X108360482Y-84803371D01*
X108431911Y-84660514D01*
X108431911Y-84303371D01*
X108360482Y-84160514D01*
X108289054Y-84089086D01*
X108146196Y-84017657D01*
X107860482Y-84017657D01*
X107717625Y-84089086D01*
X107646196Y-84160514D01*
X107574768Y-84303371D01*
X107074768Y-84946229D02*
X106146197Y-84946229D01*
X106646197Y-84374800D01*
X106431911Y-84374800D01*
X106289054Y-84303371D01*
X106217625Y-84231943D01*
X106146197Y-84089086D01*
X106146197Y-83731943D01*
X106217625Y-83589086D01*
X106289054Y-83517657D01*
X106431911Y-83446229D01*
X106860483Y-83446229D01*
X107003340Y-83517657D01*
X107074768Y-83589086D01*
X105646197Y-84946229D02*
X104717626Y-84946229D01*
X105217626Y-84374800D01*
X105003340Y-84374800D01*
X104860483Y-84303371D01*
X104789054Y-84231943D01*
X104717626Y-84089086D01*
X104717626Y-83731943D01*
X104789054Y-83589086D01*
X104860483Y-83517657D01*
X105003340Y-83446229D01*
X105431912Y-83446229D01*
X105574769Y-83517657D01*
X105646197Y-83589086D01*
X103217626Y-83589086D02*
X103289055Y-83517657D01*
X103503341Y-83446229D01*
X103646198Y-83446229D01*
X103860483Y-83517657D01*
X104003341Y-83660514D01*
X104074769Y-83803371D01*
X104146198Y-84089086D01*
X104146198Y-84303371D01*
X104074769Y-84589086D01*
X104003341Y-84731943D01*
X103860483Y-84874800D01*
X103646198Y-84946229D01*
X103503341Y-84946229D01*
X103289055Y-84874800D01*
X103217626Y-84803371D01*
X133667274Y-99564341D02*
X133738703Y-99635770D01*
X133810131Y-99850056D01*
X133810131Y-99992913D01*
X133738703Y-100207198D01*
X133595846Y-100350056D01*
X133452989Y-100421484D01*
X133167274Y-100492913D01*
X132952989Y-100492913D01*
X132667274Y-100421484D01*
X132524417Y-100350056D01*
X132381560Y-100207198D01*
X132310131Y-99992913D01*
X132310131Y-99850056D01*
X132381560Y-99635770D01*
X132452989Y-99564341D01*
X133738703Y-98992913D02*
X133810131Y-98778627D01*
X133810131Y-98421484D01*
X133738703Y-98278627D01*
X133667274Y-98207198D01*
X133524417Y-98135770D01*
X133381560Y-98135770D01*
X133238703Y-98207198D01*
X133167274Y-98278627D01*
X133095846Y-98421484D01*
X133024417Y-98707198D01*
X132952989Y-98850056D01*
X132881560Y-98921484D01*
X132738703Y-98992913D01*
X132595846Y-98992913D01*
X132452989Y-98921484D01*
X132381560Y-98850056D01*
X132310131Y-98707198D01*
X132310131Y-98350056D01*
X132381560Y-98135770D01*
X132310131Y-97635770D02*
X132310131Y-96707199D01*
X132881560Y-97207199D01*
X132881560Y-96992913D01*
X132952989Y-96850056D01*
X133024417Y-96778627D01*
X133167274Y-96707199D01*
X133524417Y-96707199D01*
X133667274Y-96778627D01*
X133738703Y-96850056D01*
X133810131Y-96992913D01*
X133810131Y-97421485D01*
X133738703Y-97564342D01*
X133667274Y-97635770D01*
X133810131Y-95992914D02*
X133810131Y-95707199D01*
X133738703Y-95564342D01*
X133667274Y-95492914D01*
X133452989Y-95350056D01*
X133167274Y-95278628D01*
X132595846Y-95278628D01*
X132452989Y-95350056D01*
X132381560Y-95421485D01*
X132310131Y-95564342D01*
X132310131Y-95850056D01*
X132381560Y-95992914D01*
X132452989Y-96064342D01*
X132595846Y-96135771D01*
X132952989Y-96135771D01*
X133095846Y-96064342D01*
X133167274Y-95992914D01*
X133238703Y-95850056D01*
X133238703Y-95564342D01*
X133167274Y-95421485D01*
X133095846Y-95350056D01*
X132952989Y-95278628D01*
X132310131Y-94778628D02*
X132310131Y-93850057D01*
X132881560Y-94350057D01*
X132881560Y-94135771D01*
X132952989Y-93992914D01*
X133024417Y-93921485D01*
X133167274Y-93850057D01*
X133524417Y-93850057D01*
X133667274Y-93921485D01*
X133738703Y-93992914D01*
X133810131Y-94135771D01*
X133810131Y-94564343D01*
X133738703Y-94707200D01*
X133667274Y-94778628D01*
X132310131Y-93350057D02*
X132310131Y-92421486D01*
X132881560Y-92921486D01*
X132881560Y-92707200D01*
X132952989Y-92564343D01*
X133024417Y-92492914D01*
X133167274Y-92421486D01*
X133524417Y-92421486D01*
X133667274Y-92492914D01*
X133738703Y-92564343D01*
X133810131Y-92707200D01*
X133810131Y-93135772D01*
X133738703Y-93278629D01*
X133667274Y-93350057D01*
X133024417Y-91278629D02*
X133095846Y-91064343D01*
X133167274Y-90992915D01*
X133310131Y-90921486D01*
X133524417Y-90921486D01*
X133667274Y-90992915D01*
X133738703Y-91064343D01*
X133810131Y-91207201D01*
X133810131Y-91778629D01*
X132310131Y-91778629D01*
X132310131Y-91278629D01*
X132381560Y-91135772D01*
X132452989Y-91064343D01*
X132595846Y-90992915D01*
X132738703Y-90992915D01*
X132881560Y-91064343D01*
X132952989Y-91135772D01*
X133024417Y-91278629D01*
X133024417Y-91778629D01*
X90179934Y-100864358D02*
X90251363Y-100935787D01*
X90322791Y-101150073D01*
X90322791Y-101292930D01*
X90251363Y-101507215D01*
X90108506Y-101650073D01*
X89965649Y-101721501D01*
X89679934Y-101792930D01*
X89465649Y-101792930D01*
X89179934Y-101721501D01*
X89037077Y-101650073D01*
X88894220Y-101507215D01*
X88822791Y-101292930D01*
X88822791Y-101150073D01*
X88894220Y-100935787D01*
X88965649Y-100864358D01*
X90251363Y-100292930D02*
X90322791Y-100078644D01*
X90322791Y-99721501D01*
X90251363Y-99578644D01*
X90179934Y-99507215D01*
X90037077Y-99435787D01*
X89894220Y-99435787D01*
X89751363Y-99507215D01*
X89679934Y-99578644D01*
X89608506Y-99721501D01*
X89537077Y-100007215D01*
X89465649Y-100150073D01*
X89394220Y-100221501D01*
X89251363Y-100292930D01*
X89108506Y-100292930D01*
X88965649Y-100221501D01*
X88894220Y-100150073D01*
X88822791Y-100007215D01*
X88822791Y-99650073D01*
X88894220Y-99435787D01*
X88822791Y-98935787D02*
X88822791Y-98007216D01*
X89394220Y-98507216D01*
X89394220Y-98292930D01*
X89465649Y-98150073D01*
X89537077Y-98078644D01*
X89679934Y-98007216D01*
X90037077Y-98007216D01*
X90179934Y-98078644D01*
X90251363Y-98150073D01*
X90322791Y-98292930D01*
X90322791Y-98721502D01*
X90251363Y-98864359D01*
X90179934Y-98935787D01*
X90322791Y-97292931D02*
X90322791Y-97007216D01*
X90251363Y-96864359D01*
X90179934Y-96792931D01*
X89965649Y-96650073D01*
X89679934Y-96578645D01*
X89108506Y-96578645D01*
X88965649Y-96650073D01*
X88894220Y-96721502D01*
X88822791Y-96864359D01*
X88822791Y-97150073D01*
X88894220Y-97292931D01*
X88965649Y-97364359D01*
X89108506Y-97435788D01*
X89465649Y-97435788D01*
X89608506Y-97364359D01*
X89679934Y-97292931D01*
X89751363Y-97150073D01*
X89751363Y-96864359D01*
X89679934Y-96721502D01*
X89608506Y-96650073D01*
X89465649Y-96578645D01*
X88822791Y-96078645D02*
X88822791Y-95150074D01*
X89394220Y-95650074D01*
X89394220Y-95435788D01*
X89465649Y-95292931D01*
X89537077Y-95221502D01*
X89679934Y-95150074D01*
X90037077Y-95150074D01*
X90179934Y-95221502D01*
X90251363Y-95292931D01*
X90322791Y-95435788D01*
X90322791Y-95864360D01*
X90251363Y-96007217D01*
X90179934Y-96078645D01*
X88822791Y-94650074D02*
X88822791Y-93721503D01*
X89394220Y-94221503D01*
X89394220Y-94007217D01*
X89465649Y-93864360D01*
X89537077Y-93792931D01*
X89679934Y-93721503D01*
X90037077Y-93721503D01*
X90179934Y-93792931D01*
X90251363Y-93864360D01*
X90322791Y-94007217D01*
X90322791Y-94435789D01*
X90251363Y-94578646D01*
X90179934Y-94650074D01*
X89894220Y-93150075D02*
X89894220Y-92435789D01*
X90322791Y-93292932D02*
X88822791Y-92792932D01*
X90322791Y-92292932D01*
D12*
X138343068Y-91563474D02*
X140343068Y-91563474D01*
X137200211Y-92277760D02*
X139343068Y-92992045D01*
X139343068Y-91134903D01*
X119277640Y-85549217D02*
X117420497Y-85549217D01*
X118420497Y-84406360D01*
X117991925Y-84406360D01*
X117706211Y-84263503D01*
X117563354Y-84120646D01*
X117420497Y-83834931D01*
X117420497Y-83120646D01*
X117563354Y-82834931D01*
X117706211Y-82692074D01*
X117991925Y-82549217D01*
X118849068Y-82549217D01*
X119134782Y-82692074D01*
X119277640Y-82834931D01*
X118182498Y-93176577D02*
X118325355Y-93033720D01*
X118611069Y-92890863D01*
X119325355Y-92890863D01*
X119611069Y-93033720D01*
X119753926Y-93176577D01*
X119896783Y-93462291D01*
X119896783Y-93748006D01*
X119753926Y-94176577D01*
X118039640Y-95890863D01*
X119896783Y-95890863D01*
X85020043Y-97353903D02*
X83305758Y-97353903D01*
X84162900Y-97353903D02*
X84162900Y-94353903D01*
X83877186Y-94782474D01*
X83591472Y-95068189D01*
X83305758Y-95211046D01*
D13*
X142635905Y-105830583D03*
X145175905Y-105830583D03*
X142635905Y-103290583D03*
X145175905Y-103290583D03*
X142635905Y-100750583D03*
X145175905Y-100750583D03*
X142635905Y-98210583D03*
X145175905Y-98210583D03*
X142635905Y-95670583D03*
X145175905Y-95670583D03*
X142635905Y-93130583D03*
X145175905Y-93130583D03*
X142635905Y-90590583D03*
X145175905Y-90590583D03*
X142635905Y-88050583D03*
X145175905Y-88050583D03*
X142635905Y-85510583D03*
X145175905Y-85510583D03*
X142635905Y-82970583D03*
X145175905Y-82970583D03*
X142635905Y-80430583D03*
X145175905Y-80430583D03*
D14*
X142635905Y-77890583D03*
D13*
X145175905Y-77890583D03*
X132646420Y-79606140D03*
X132646420Y-77066140D03*
X130106420Y-79606140D03*
X130106420Y-77066140D03*
X127566420Y-79606140D03*
X127566420Y-77066140D03*
X125026420Y-79606140D03*
X125026420Y-77066140D03*
X122486420Y-79606140D03*
X122486420Y-77066140D03*
X119946420Y-79606140D03*
X119946420Y-77066140D03*
X117406420Y-79606140D03*
X117406420Y-77066140D03*
X114866420Y-79606140D03*
X114866420Y-77066140D03*
X112326420Y-79606140D03*
X112326420Y-77066140D03*
X109786420Y-79606140D03*
X109786420Y-77066140D03*
X107246420Y-79606140D03*
X107246420Y-77066140D03*
D14*
X104706420Y-79606140D03*
D13*
X104706420Y-77066140D03*
X104247216Y-103989516D03*
X104247216Y-106529516D03*
X106787216Y-103989516D03*
X106787216Y-106529516D03*
X109327216Y-103989516D03*
X109327216Y-106529516D03*
X111867216Y-103989516D03*
X111867216Y-106529516D03*
X114407216Y-103989516D03*
X114407216Y-106529516D03*
X116947216Y-103989516D03*
X116947216Y-106529516D03*
X119487216Y-103989516D03*
X119487216Y-106529516D03*
X122027216Y-103989516D03*
X122027216Y-106529516D03*
X124567216Y-103989516D03*
X124567216Y-106529516D03*
X127107216Y-103989516D03*
X127107216Y-106529516D03*
X129647216Y-103989516D03*
X129647216Y-106529516D03*
D14*
X132187216Y-103989516D03*
D13*
X132187216Y-106529516D03*
X98811080Y-87871300D03*
X98811080Y-85331300D03*
X96271080Y-87871300D03*
X96271080Y-85331300D03*
X93731080Y-87871300D03*
X93731080Y-85331300D03*
X91191080Y-87871300D03*
X91191080Y-85331300D03*
X88651080Y-87871300D03*
X88651080Y-85331300D03*
X86111080Y-87871300D03*
X86111080Y-85331300D03*
X83571080Y-87871300D03*
X83571080Y-85331300D03*
X81031080Y-87871300D03*
X81031080Y-85331300D03*
X78491080Y-87871300D03*
X78491080Y-85331300D03*
X75951080Y-87871300D03*
X75951080Y-85331300D03*
X73411080Y-87871300D03*
X73411080Y-85331300D03*
D14*
X70871080Y-87871300D03*
D13*
X70871080Y-85331300D03*
X70731380Y-104007920D03*
X70731380Y-106547920D03*
X73271380Y-104007920D03*
X73271380Y-106547920D03*
X75811380Y-104007920D03*
X75811380Y-106547920D03*
X78351380Y-104007920D03*
X78351380Y-106547920D03*
X80891380Y-104007920D03*
X80891380Y-106547920D03*
X83431380Y-104007920D03*
X83431380Y-106547920D03*
X85971380Y-104007920D03*
X85971380Y-106547920D03*
X88511380Y-104007920D03*
X88511380Y-106547920D03*
X91051380Y-104007920D03*
X91051380Y-106547920D03*
X93591380Y-104007920D03*
X93591380Y-106547920D03*
X96131380Y-104007920D03*
X96131380Y-106547920D03*
D14*
X98671380Y-104007920D03*
D13*
X98671380Y-106547920D03*
D15*
X106743500Y-94249300D03*
X106743500Y-97749300D03*
X96575880Y-97749300D03*
X96575880Y-94249300D03*
D16*
X107246420Y-79606140D02*
X108435021Y-80794741D01*
X108435021Y-80794741D02*
X116217819Y-80794741D01*
X116542821Y-80469739D02*
X117406420Y-79606140D01*
X116217819Y-80794741D02*
X116542821Y-80469739D01*
X107246420Y-77066140D02*
X108435021Y-78254741D01*
X108435021Y-78254741D02*
X116217819Y-78254741D01*
X116217819Y-78254741D02*
X116542821Y-77929739D01*
X116542821Y-77929739D02*
X117406420Y-77066140D01*
X119487216Y-103989516D02*
X113837720Y-98340020D01*
X113837720Y-98340020D02*
X113551236Y-98053536D01*
X108392645Y-97726500D02*
X113224200Y-97726500D01*
X113224200Y-97726500D02*
X113837720Y-98340020D01*
X106743500Y-97749300D02*
X108369845Y-97749300D01*
X108369845Y-97749300D02*
X108392645Y-97726500D01*
X106743500Y-94249300D02*
X106743500Y-95875645D01*
X106743500Y-95875645D02*
X106743500Y-97749300D01*
X96575880Y-97749300D02*
X97685800Y-97749300D01*
X97685800Y-97749300D02*
X98671380Y-98734880D01*
X98671380Y-98734880D02*
X98671380Y-102894320D01*
X98671380Y-102894320D02*
X98671380Y-104007920D01*
X96575880Y-94249300D02*
X96575880Y-95875645D01*
X96575880Y-95875645D02*
X96575880Y-97749300D01*
X91191080Y-85331300D02*
X92379681Y-84142699D01*
X92379681Y-84142699D02*
X99381609Y-84142699D01*
X99381609Y-84142699D02*
X99999681Y-84760771D01*
X99999681Y-84760771D02*
X99999681Y-90035499D01*
X99999681Y-90035499D02*
X97845879Y-92189301D01*
X97845879Y-92189301D02*
X96575880Y-93459300D01*
X96575880Y-93459300D02*
X96575880Y-95255351D01*
X92542479Y-100419019D02*
X95267781Y-103144321D01*
X92542479Y-87463569D02*
X92542479Y-100419019D01*
X91761609Y-86682699D02*
X92542479Y-87463569D01*
X90820359Y-86682699D02*
X91761609Y-86682699D01*
X89839681Y-85702021D02*
X90820359Y-86682699D01*
X89839681Y-84760771D02*
X89839681Y-85702021D01*
X89221609Y-84142699D02*
X89839681Y-84760771D01*
X87299681Y-84142699D02*
X89221609Y-84142699D01*
X86111080Y-85331300D02*
X87299681Y-84142699D01*
X95267781Y-103144321D02*
X96131380Y-104007920D01*
X91719400Y-91843860D02*
X91719400Y-100376810D01*
X91719400Y-100376810D02*
X94942779Y-103600189D01*
X89839681Y-89964141D02*
X91719400Y-91843860D01*
X89839681Y-86519901D02*
X89839681Y-89964141D01*
X94942779Y-103600189D02*
X94942779Y-105359319D01*
X88651080Y-85331300D02*
X89839681Y-86519901D01*
X95267781Y-105684321D02*
X96131380Y-106547920D01*
X94942779Y-105359319D02*
X95267781Y-105684321D01*
X88511380Y-104007920D02*
X88511380Y-106547920D01*
X93591380Y-104007920D02*
X93591380Y-105229234D01*
X93591380Y-105229234D02*
X93591380Y-106547920D01*
X91051380Y-106547920D02*
X91051380Y-105326606D01*
X91051380Y-105326606D02*
X91051380Y-104007920D01*
X79354679Y-86194899D02*
X78491080Y-85331300D01*
X79842479Y-86682699D02*
X79354679Y-86194899D01*
X85971380Y-104007920D02*
X85971380Y-102786606D01*
X79842479Y-96657705D02*
X79842479Y-86682699D01*
X85971380Y-102786606D02*
X79842479Y-96657705D01*
X81031080Y-85331300D02*
X82219681Y-86519901D01*
X87159981Y-105359319D02*
X85971380Y-106547920D01*
X82219681Y-86519901D02*
X82219681Y-89316441D01*
X82219681Y-89316441D02*
X87302340Y-94399100D01*
X87302340Y-94399100D02*
X87302340Y-105216960D01*
X87302340Y-105216960D02*
X87159981Y-105359319D01*
X83230720Y-101305360D02*
X77139681Y-95214321D01*
X77139681Y-95214321D02*
X77139681Y-86519901D01*
X77139681Y-86519901D02*
X76814679Y-86194899D01*
X76814679Y-86194899D02*
X75951080Y-85331300D01*
X83230720Y-102585946D02*
X83230720Y-101305360D01*
X83431380Y-104007920D02*
X83431380Y-102786606D01*
X83431380Y-102786606D02*
X83230720Y-102585946D01*
X82242779Y-105359319D02*
X82242779Y-101831140D01*
X74762479Y-94198559D02*
X82242779Y-101678859D01*
X82242779Y-101678859D02*
X82242779Y-101831140D01*
X73411080Y-85331300D02*
X74762479Y-86682699D01*
X74762479Y-86682699D02*
X74762479Y-94198559D01*
X83431380Y-106547920D02*
X82242779Y-105359319D01*
X77162779Y-97688519D02*
X73411080Y-93936820D01*
X73411080Y-93936820D02*
X73411080Y-87871300D01*
X78351380Y-106547920D02*
X77162779Y-105359319D01*
X77162779Y-105359319D02*
X77162779Y-97688519D01*
X82382479Y-84923569D02*
X82382479Y-85901829D01*
X72840551Y-84142699D02*
X81601609Y-84142699D01*
X81601609Y-84142699D02*
X82382479Y-84923569D01*
X73271380Y-104007920D02*
X73271380Y-102786606D01*
X72222479Y-84760771D02*
X72840551Y-84142699D01*
X73271380Y-102786606D02*
X72222479Y-101737705D01*
X82382479Y-85901829D02*
X83000551Y-86519901D01*
X72222479Y-101737705D02*
X72222479Y-84760771D01*
X83000551Y-86519901D02*
X84759681Y-86519901D01*
X84759681Y-86519901D02*
X85247481Y-87007701D01*
X85247481Y-87007701D02*
X86111080Y-87871300D01*
X87462479Y-86682699D02*
X85703349Y-86682699D01*
X70264332Y-83692688D02*
X69110860Y-84846160D01*
X83691598Y-83692688D02*
X70264332Y-83692688D01*
X88651080Y-87871300D02*
X87462479Y-86682699D01*
X69867781Y-105684321D02*
X70731380Y-106547920D01*
X85703349Y-86682699D02*
X84759681Y-85739031D01*
X84759681Y-85739031D02*
X84759681Y-84760771D01*
X84759681Y-84760771D02*
X83691598Y-83692688D01*
X69110860Y-104927400D02*
X69867781Y-105684321D01*
X69110860Y-84846160D02*
X69110860Y-104927400D01*
X145175905Y-80430583D02*
X143824506Y-81781982D01*
X143824506Y-81781982D02*
X143824506Y-89239184D01*
X143824506Y-89239184D02*
X144312306Y-89726984D01*
X144312306Y-89726984D02*
X145175905Y-90590583D01*
X142635905Y-80430583D02*
X141447304Y-81619184D01*
X141447304Y-81619184D02*
X141447304Y-89401982D01*
X141447304Y-89401982D02*
X141772306Y-89726984D01*
X141772306Y-89726984D02*
X142635905Y-90590583D01*
M02*
