G04 #@! TF.FileFunction,Soldermask,Bot*
%FSLAX46Y46*%
G04 Gerber Fmt 4.6, Leading zero omitted, Abs format (unit mm)*
G04 Created by KiCad (PCBNEW 4.0.2+dfsg1-stable) date lun 28 gen 2019 08:35:01 CET*
%MOMM*%
G01*
G04 APERTURE LIST*
%ADD10C,0.100000*%
%ADD11O,2.127200X2.127200*%
%ADD12R,2.127200X2.127200*%
%ADD13C,2.700000*%
G04 APERTURE END LIST*
D10*
D11*
X142635905Y-105830583D03*
X145175905Y-105830583D03*
X142635905Y-103290583D03*
X145175905Y-103290583D03*
X142635905Y-100750583D03*
X145175905Y-100750583D03*
X142635905Y-98210583D03*
X145175905Y-98210583D03*
X142635905Y-95670583D03*
X145175905Y-95670583D03*
X142635905Y-93130583D03*
X145175905Y-93130583D03*
X142635905Y-90590583D03*
X145175905Y-90590583D03*
X142635905Y-88050583D03*
X145175905Y-88050583D03*
X142635905Y-85510583D03*
X145175905Y-85510583D03*
X142635905Y-82970583D03*
X145175905Y-82970583D03*
X142635905Y-80430583D03*
X145175905Y-80430583D03*
D12*
X142635905Y-77890583D03*
D11*
X145175905Y-77890583D03*
X132646420Y-79606140D03*
X132646420Y-77066140D03*
X130106420Y-79606140D03*
X130106420Y-77066140D03*
X127566420Y-79606140D03*
X127566420Y-77066140D03*
X125026420Y-79606140D03*
X125026420Y-77066140D03*
X122486420Y-79606140D03*
X122486420Y-77066140D03*
X119946420Y-79606140D03*
X119946420Y-77066140D03*
X117406420Y-79606140D03*
X117406420Y-77066140D03*
X114866420Y-79606140D03*
X114866420Y-77066140D03*
X112326420Y-79606140D03*
X112326420Y-77066140D03*
X109786420Y-79606140D03*
X109786420Y-77066140D03*
X107246420Y-79606140D03*
X107246420Y-77066140D03*
D12*
X104706420Y-79606140D03*
D11*
X104706420Y-77066140D03*
X104247216Y-103989516D03*
X104247216Y-106529516D03*
X106787216Y-103989516D03*
X106787216Y-106529516D03*
X109327216Y-103989516D03*
X109327216Y-106529516D03*
X111867216Y-103989516D03*
X111867216Y-106529516D03*
X114407216Y-103989516D03*
X114407216Y-106529516D03*
X116947216Y-103989516D03*
X116947216Y-106529516D03*
X119487216Y-103989516D03*
X119487216Y-106529516D03*
X122027216Y-103989516D03*
X122027216Y-106529516D03*
X124567216Y-103989516D03*
X124567216Y-106529516D03*
X127107216Y-103989516D03*
X127107216Y-106529516D03*
X129647216Y-103989516D03*
X129647216Y-106529516D03*
D12*
X132187216Y-103989516D03*
D11*
X132187216Y-106529516D03*
X98811080Y-87871300D03*
X98811080Y-85331300D03*
X96271080Y-87871300D03*
X96271080Y-85331300D03*
X93731080Y-87871300D03*
X93731080Y-85331300D03*
X91191080Y-87871300D03*
X91191080Y-85331300D03*
X88651080Y-87871300D03*
X88651080Y-85331300D03*
X86111080Y-87871300D03*
X86111080Y-85331300D03*
X83571080Y-87871300D03*
X83571080Y-85331300D03*
X81031080Y-87871300D03*
X81031080Y-85331300D03*
X78491080Y-87871300D03*
X78491080Y-85331300D03*
X75951080Y-87871300D03*
X75951080Y-85331300D03*
X73411080Y-87871300D03*
X73411080Y-85331300D03*
D12*
X70871080Y-87871300D03*
D11*
X70871080Y-85331300D03*
X70731380Y-104007920D03*
X70731380Y-106547920D03*
X73271380Y-104007920D03*
X73271380Y-106547920D03*
X75811380Y-104007920D03*
X75811380Y-106547920D03*
X78351380Y-104007920D03*
X78351380Y-106547920D03*
X80891380Y-104007920D03*
X80891380Y-106547920D03*
X83431380Y-104007920D03*
X83431380Y-106547920D03*
X85971380Y-104007920D03*
X85971380Y-106547920D03*
X88511380Y-104007920D03*
X88511380Y-106547920D03*
X91051380Y-104007920D03*
X91051380Y-106547920D03*
X93591380Y-104007920D03*
X93591380Y-106547920D03*
X96131380Y-104007920D03*
X96131380Y-106547920D03*
D12*
X98671380Y-104007920D03*
D11*
X98671380Y-106547920D03*
D13*
X106743500Y-94249300D03*
X106743500Y-97749300D03*
X96575880Y-97749300D03*
X96575880Y-94249300D03*
M02*
