M48
;DRILL file {KiCad 4.0.2+dfsg1-stable} date lun 28 gen 2019 08:35:02 CET
;FORMAT={-:-/ absolute / inch / decimal}
FMAT,2
INCH,TZ
T1C0.040
T2C0.051
%
G90
G05
M72
T1
X2.7847Y-4.0948
X2.7847Y-4.1948
X2.7902Y-3.3595
X2.7902Y-3.4595
X2.8847Y-4.0948
X2.8847Y-4.1948
X2.8902Y-3.3595
X2.8902Y-3.4595
X2.9847Y-4.0948
X2.9847Y-4.1948
X2.9902Y-3.3595
X2.9902Y-3.4595
X3.0847Y-4.0948
X3.0847Y-4.1948
X3.0902Y-3.3595
X3.0902Y-3.4595
X3.1847Y-4.0948
X3.1847Y-4.1948
X3.1902Y-3.3595
X3.1902Y-3.4595
X3.2847Y-4.0948
X3.2847Y-4.1948
X3.2902Y-3.3595
X3.2902Y-3.4595
X3.3847Y-4.0948
X3.3847Y-4.1948
X3.3902Y-3.3595
X3.3902Y-3.4595
X3.4847Y-4.0948
X3.4847Y-4.1948
X3.4902Y-3.3595
X3.4902Y-3.4595
X3.5847Y-4.0948
X3.5847Y-4.1948
X3.5902Y-3.3595
X3.5902Y-3.4595
X3.6847Y-4.0948
X3.6847Y-4.1948
X3.6902Y-3.3595
X3.6902Y-3.4595
X3.7847Y-4.0948
X3.7847Y-4.1948
X3.7902Y-3.3595
X3.7902Y-3.4595
X3.8847Y-4.0948
X3.8847Y-4.1948
X3.8902Y-3.3595
X3.8902Y-3.4595
X4.1042Y-4.0941
X4.1042Y-4.1941
X4.1223Y-3.0341
X4.1223Y-3.1341
X4.2042Y-4.0941
X4.2042Y-4.1941
X4.2223Y-3.0341
X4.2223Y-3.1341
X4.3042Y-4.0941
X4.3042Y-4.1941
X4.3223Y-3.0341
X4.3223Y-3.1341
X4.4042Y-4.0941
X4.4042Y-4.1941
X4.4223Y-3.0341
X4.4223Y-3.1341
X4.5042Y-4.0941
X4.5042Y-4.1941
X4.5223Y-3.0341
X4.5223Y-3.1341
X4.6042Y-4.0941
X4.6042Y-4.1941
X4.6223Y-3.0341
X4.6223Y-3.1341
X4.7042Y-4.0941
X4.7042Y-4.1941
X4.7223Y-3.0341
X4.7223Y-3.1341
X4.8042Y-4.0941
X4.8042Y-4.1941
X4.8223Y-3.0341
X4.8223Y-3.1341
X4.9042Y-4.0941
X4.9042Y-4.1941
X4.9223Y-3.0341
X4.9223Y-3.1341
X5.0042Y-4.0941
X5.0042Y-4.1941
X5.0223Y-3.0341
X5.0223Y-3.1341
X5.1042Y-4.0941
X5.1042Y-4.1941
X5.1223Y-3.0341
X5.1223Y-3.1341
X5.2042Y-4.0941
X5.2042Y-4.1941
X5.2223Y-3.0341
X5.2223Y-3.1341
X5.6156Y-3.0666
X5.6156Y-3.1666
X5.6156Y-3.2666
X5.6156Y-3.3666
X5.6156Y-3.4666
X5.6156Y-3.5666
X5.6156Y-3.6666
X5.6156Y-3.7666
X5.6156Y-3.8666
X5.6156Y-3.9666
X5.6156Y-4.0666
X5.6156Y-4.1666
X5.7156Y-3.0666
X5.7156Y-3.1666
X5.7156Y-3.2666
X5.7156Y-3.3666
X5.7156Y-3.4666
X5.7156Y-3.5666
X5.7156Y-3.6666
X5.7156Y-3.7666
X5.7156Y-3.8666
X5.7156Y-3.9666
X5.7156Y-4.0666
X5.7156Y-4.1666
T2
X3.8022Y-3.7106
X3.8022Y-3.8484
X4.2025Y-3.7106
X4.2025Y-3.8484
T0
M30
