G04 #@! TF.FileFunction,Copper,L2,Bot,Signal*
%FSLAX46Y46*%
G04 Gerber Fmt 4.6, Leading zero omitted, Abs format (unit mm)*
G04 Created by KiCad (PCBNEW 4.0.2+dfsg1-stable) date lun 28 gen 2019 08:35:01 CET*
%MOMM*%
G01*
G04 APERTURE LIST*
%ADD10C,0.100000*%
%ADD11C,0.700000*%
%ADD12O,1.727200X1.727200*%
%ADD13R,1.727200X1.727200*%
%ADD14C,2.300000*%
%ADD15C,0.250000*%
G04 APERTURE END LIST*
D10*
D11*
X138323083Y-92684529D02*
X140323083Y-92684529D01*
X137180226Y-91970243D02*
X139323083Y-91255958D01*
X139323083Y-93113100D01*
X117252240Y-85544137D02*
X119109383Y-85544137D01*
X118109383Y-84401280D01*
X118537955Y-84401280D01*
X118823669Y-84258423D01*
X118966526Y-84115566D01*
X119109383Y-83829851D01*
X119109383Y-83115566D01*
X118966526Y-82829851D01*
X118823669Y-82686994D01*
X118537955Y-82544137D01*
X117680812Y-82544137D01*
X117395098Y-82686994D01*
X117252240Y-82829851D01*
X119866302Y-93158797D02*
X119723445Y-93015940D01*
X119437731Y-92873083D01*
X118723445Y-92873083D01*
X118437731Y-93015940D01*
X118294874Y-93158797D01*
X118152017Y-93444511D01*
X118152017Y-93730226D01*
X118294874Y-94158797D01*
X120009160Y-95873083D01*
X118152017Y-95873083D01*
X83305757Y-97353903D02*
X85020042Y-97353903D01*
X84162900Y-97353903D02*
X84162900Y-94353903D01*
X84448614Y-94782474D01*
X84734328Y-95068189D01*
X85020042Y-95211046D01*
D12*
X142635905Y-105830583D03*
X145175905Y-105830583D03*
X142635905Y-103290583D03*
X145175905Y-103290583D03*
X142635905Y-100750583D03*
X145175905Y-100750583D03*
X142635905Y-98210583D03*
X145175905Y-98210583D03*
X142635905Y-95670583D03*
X145175905Y-95670583D03*
X142635905Y-93130583D03*
X145175905Y-93130583D03*
X142635905Y-90590583D03*
X145175905Y-90590583D03*
X142635905Y-88050583D03*
X145175905Y-88050583D03*
X142635905Y-85510583D03*
X145175905Y-85510583D03*
X142635905Y-82970583D03*
X145175905Y-82970583D03*
X142635905Y-80430583D03*
X145175905Y-80430583D03*
D13*
X142635905Y-77890583D03*
D12*
X145175905Y-77890583D03*
X132646420Y-79606140D03*
X132646420Y-77066140D03*
X130106420Y-79606140D03*
X130106420Y-77066140D03*
X127566420Y-79606140D03*
X127566420Y-77066140D03*
X125026420Y-79606140D03*
X125026420Y-77066140D03*
X122486420Y-79606140D03*
X122486420Y-77066140D03*
X119946420Y-79606140D03*
X119946420Y-77066140D03*
X117406420Y-79606140D03*
X117406420Y-77066140D03*
X114866420Y-79606140D03*
X114866420Y-77066140D03*
X112326420Y-79606140D03*
X112326420Y-77066140D03*
X109786420Y-79606140D03*
X109786420Y-77066140D03*
X107246420Y-79606140D03*
X107246420Y-77066140D03*
D13*
X104706420Y-79606140D03*
D12*
X104706420Y-77066140D03*
X104247216Y-103989516D03*
X104247216Y-106529516D03*
X106787216Y-103989516D03*
X106787216Y-106529516D03*
X109327216Y-103989516D03*
X109327216Y-106529516D03*
X111867216Y-103989516D03*
X111867216Y-106529516D03*
X114407216Y-103989516D03*
X114407216Y-106529516D03*
X116947216Y-103989516D03*
X116947216Y-106529516D03*
X119487216Y-103989516D03*
X119487216Y-106529516D03*
X122027216Y-103989516D03*
X122027216Y-106529516D03*
X124567216Y-103989516D03*
X124567216Y-106529516D03*
X127107216Y-103989516D03*
X127107216Y-106529516D03*
X129647216Y-103989516D03*
X129647216Y-106529516D03*
D13*
X132187216Y-103989516D03*
D12*
X132187216Y-106529516D03*
X98811080Y-87871300D03*
X98811080Y-85331300D03*
X96271080Y-87871300D03*
X96271080Y-85331300D03*
X93731080Y-87871300D03*
X93731080Y-85331300D03*
X91191080Y-87871300D03*
X91191080Y-85331300D03*
X88651080Y-87871300D03*
X88651080Y-85331300D03*
X86111080Y-87871300D03*
X86111080Y-85331300D03*
X83571080Y-87871300D03*
X83571080Y-85331300D03*
X81031080Y-87871300D03*
X81031080Y-85331300D03*
X78491080Y-87871300D03*
X78491080Y-85331300D03*
X75951080Y-87871300D03*
X75951080Y-85331300D03*
X73411080Y-87871300D03*
X73411080Y-85331300D03*
D13*
X70871080Y-87871300D03*
D12*
X70871080Y-85331300D03*
X70731380Y-104007920D03*
X70731380Y-106547920D03*
X73271380Y-104007920D03*
X73271380Y-106547920D03*
X75811380Y-104007920D03*
X75811380Y-106547920D03*
X78351380Y-104007920D03*
X78351380Y-106547920D03*
X80891380Y-104007920D03*
X80891380Y-106547920D03*
X83431380Y-104007920D03*
X83431380Y-106547920D03*
X85971380Y-104007920D03*
X85971380Y-106547920D03*
X88511380Y-104007920D03*
X88511380Y-106547920D03*
X91051380Y-104007920D03*
X91051380Y-106547920D03*
X93591380Y-104007920D03*
X93591380Y-106547920D03*
X96131380Y-104007920D03*
X96131380Y-106547920D03*
D13*
X98671380Y-104007920D03*
D12*
X98671380Y-106547920D03*
D14*
X106743500Y-94249300D03*
X106743500Y-97749300D03*
X96575880Y-97749300D03*
X96575880Y-94249300D03*
D15*
X97574100Y-101719380D02*
X95879920Y-101719380D01*
X95879920Y-101719380D02*
X93591380Y-104007920D01*
X99397820Y-99895660D02*
X97574100Y-101719380D01*
X99397820Y-92583000D02*
X99397820Y-99895660D01*
X96271080Y-85331300D02*
X97459681Y-86519901D01*
X97459681Y-86519901D02*
X97459681Y-90644861D01*
X97459681Y-90644861D02*
X99397820Y-92583000D01*
X88511380Y-106547920D02*
X89699981Y-105359319D01*
X89699981Y-105359319D02*
X92239981Y-105359319D01*
X92239981Y-105359319D02*
X92727781Y-104871519D01*
X92727781Y-104871519D02*
X93591380Y-104007920D01*
X93776800Y-91038680D02*
X93776800Y-101282500D01*
X93776800Y-101282500D02*
X91051380Y-104007920D01*
X94980879Y-89834601D02*
X93776800Y-91038680D01*
X93731080Y-85331300D02*
X94980879Y-86581099D01*
X94980879Y-86581099D02*
X94980879Y-89834601D01*
X80891380Y-106547920D02*
X82079981Y-105359319D01*
X87322779Y-94279601D02*
X92867481Y-88734899D01*
X82079981Y-105359319D02*
X86379111Y-105359319D01*
X86379111Y-105359319D02*
X87322779Y-104415651D01*
X87322779Y-104415651D02*
X87322779Y-94279601D01*
X92867481Y-88734899D02*
X93731080Y-87871300D01*
X75951080Y-87871300D02*
X77139681Y-86682699D01*
X77139681Y-86682699D02*
X81601609Y-86682699D01*
X79214979Y-103144321D02*
X78351380Y-104007920D01*
X81601609Y-86682699D02*
X82219681Y-87300771D01*
X82219681Y-87300771D02*
X82219681Y-100139619D01*
X82219681Y-100139619D02*
X79214979Y-103144321D01*
X75811380Y-104007920D02*
X81031080Y-98788220D01*
X81031080Y-98788220D02*
X81031080Y-87871300D01*
X75811380Y-106547920D02*
X74622779Y-105359319D01*
X74622779Y-105359319D02*
X74622779Y-91739601D01*
X74622779Y-91739601D02*
X77627481Y-88734899D01*
X77627481Y-88734899D02*
X78491080Y-87871300D01*
X72082779Y-84900471D02*
X72840551Y-84142699D01*
X82219681Y-86519901D02*
X82707481Y-87007701D01*
X72840551Y-84142699D02*
X81601609Y-84142699D01*
X73271380Y-106547920D02*
X72082779Y-105359319D01*
X72082779Y-105359319D02*
X72082779Y-84900471D01*
X81601609Y-84142699D02*
X82219681Y-84760771D01*
X82219681Y-84760771D02*
X82219681Y-86519901D01*
X82707481Y-87007701D02*
X83571080Y-87871300D01*
X73271380Y-106547920D02*
X73271380Y-105806240D01*
X90327481Y-87007701D02*
X91191080Y-87871300D01*
X89221609Y-84142699D02*
X90002479Y-84923569D01*
X82238019Y-84142699D02*
X89221609Y-84142699D01*
X90002479Y-86682699D02*
X90327481Y-87007701D01*
X81788009Y-83692688D02*
X82238019Y-84142699D01*
X70750562Y-83692688D02*
X81788009Y-83692688D01*
X69682479Y-84760771D02*
X70750562Y-83692688D01*
X90002479Y-84923569D02*
X90002479Y-86682699D01*
X69682479Y-102959019D02*
X69682479Y-84760771D01*
X70731380Y-104007920D02*
X69682479Y-102959019D01*
M02*
