G04 #@! TF.FileFunction,Other,Fab,Top*
%FSLAX46Y46*%
G04 Gerber Fmt 4.6, Leading zero omitted, Abs format (unit mm)*
G04 Created by KiCad (PCBNEW 4.0.2+dfsg1-stable) date lun 28 gen 2019 08:35:01 CET*
%MOMM*%
G01*
G04 APERTURE LIST*
%ADD10C,0.100000*%
%ADD11C,0.150000*%
G04 APERTURE END LIST*
D10*
D11*
X140270503Y-106141542D02*
X140318122Y-106189161D01*
X140365741Y-106332018D01*
X140365741Y-106427256D01*
X140318122Y-106570114D01*
X140222884Y-106665352D01*
X140127646Y-106712971D01*
X139937170Y-106760590D01*
X139794312Y-106760590D01*
X139603836Y-106712971D01*
X139508598Y-106665352D01*
X139413360Y-106570114D01*
X139365741Y-106427256D01*
X139365741Y-106332018D01*
X139413360Y-106189161D01*
X139460979Y-106141542D01*
X139365741Y-105522495D02*
X139365741Y-105332018D01*
X139413360Y-105236780D01*
X139508598Y-105141542D01*
X139699074Y-105093923D01*
X140032408Y-105093923D01*
X140222884Y-105141542D01*
X140318122Y-105236780D01*
X140365741Y-105332018D01*
X140365741Y-105522495D01*
X140318122Y-105617733D01*
X140222884Y-105712971D01*
X140032408Y-105760590D01*
X139699074Y-105760590D01*
X139508598Y-105712971D01*
X139413360Y-105617733D01*
X139365741Y-105522495D01*
X140365741Y-104665352D02*
X139365741Y-104665352D01*
X140365741Y-104093923D01*
X139365741Y-104093923D01*
X140365741Y-103617733D02*
X139365741Y-103617733D01*
X140365741Y-103046304D01*
X139365741Y-103046304D01*
X140460979Y-102808209D02*
X140460979Y-102046304D01*
X139365741Y-101617733D02*
X139365741Y-101522494D01*
X139413360Y-101427256D01*
X139460979Y-101379637D01*
X139556217Y-101332018D01*
X139746693Y-101284399D01*
X139984789Y-101284399D01*
X140175265Y-101332018D01*
X140270503Y-101379637D01*
X140318122Y-101427256D01*
X140365741Y-101522494D01*
X140365741Y-101617733D01*
X140318122Y-101712971D01*
X140270503Y-101760590D01*
X140175265Y-101808209D01*
X139984789Y-101855828D01*
X139746693Y-101855828D01*
X139556217Y-101808209D01*
X139460979Y-101760590D01*
X139413360Y-101712971D01*
X139365741Y-101617733D01*
X139460979Y-100903447D02*
X139413360Y-100855828D01*
X139365741Y-100760590D01*
X139365741Y-100522494D01*
X139413360Y-100427256D01*
X139460979Y-100379637D01*
X139556217Y-100332018D01*
X139651455Y-100332018D01*
X139794312Y-100379637D01*
X140365741Y-100951066D01*
X140365741Y-100332018D01*
X139365741Y-99998685D02*
X140365741Y-99332018D01*
X139365741Y-99332018D02*
X140365741Y-99998685D01*
X140365741Y-98427256D02*
X140365741Y-98998685D01*
X140365741Y-98712971D02*
X139365741Y-98712971D01*
X139508598Y-98808209D01*
X139603836Y-98903447D01*
X139651455Y-98998685D01*
X139460979Y-98046304D02*
X139413360Y-97998685D01*
X139365741Y-97903447D01*
X139365741Y-97665351D01*
X139413360Y-97570113D01*
X139460979Y-97522494D01*
X139556217Y-97474875D01*
X139651455Y-97474875D01*
X139794312Y-97522494D01*
X140365741Y-98093923D01*
X140365741Y-97474875D01*
X140460979Y-97284399D02*
X140460979Y-96522494D01*
X140365741Y-96284399D02*
X139365741Y-96284399D01*
X139365741Y-96046304D01*
X139413360Y-95903446D01*
X139508598Y-95808208D01*
X139603836Y-95760589D01*
X139794312Y-95712970D01*
X139937170Y-95712970D01*
X140127646Y-95760589D01*
X140222884Y-95808208D01*
X140318122Y-95903446D01*
X140365741Y-96046304D01*
X140365741Y-96284399D01*
X123451598Y-82518523D02*
X123403979Y-82566142D01*
X123261122Y-82613761D01*
X123165884Y-82613761D01*
X123023026Y-82566142D01*
X122927788Y-82470904D01*
X122880169Y-82375666D01*
X122832550Y-82185190D01*
X122832550Y-82042332D01*
X122880169Y-81851856D01*
X122927788Y-81756618D01*
X123023026Y-81661380D01*
X123165884Y-81613761D01*
X123261122Y-81613761D01*
X123403979Y-81661380D01*
X123451598Y-81708999D01*
X124070645Y-81613761D02*
X124261122Y-81613761D01*
X124356360Y-81661380D01*
X124451598Y-81756618D01*
X124499217Y-81947094D01*
X124499217Y-82280428D01*
X124451598Y-82470904D01*
X124356360Y-82566142D01*
X124261122Y-82613761D01*
X124070645Y-82613761D01*
X123975407Y-82566142D01*
X123880169Y-82470904D01*
X123832550Y-82280428D01*
X123832550Y-81947094D01*
X123880169Y-81756618D01*
X123975407Y-81661380D01*
X124070645Y-81613761D01*
X124927788Y-82613761D02*
X124927788Y-81613761D01*
X125499217Y-82613761D01*
X125499217Y-81613761D01*
X125975407Y-82613761D02*
X125975407Y-81613761D01*
X126546836Y-82613761D01*
X126546836Y-81613761D01*
X126784931Y-82708999D02*
X127546836Y-82708999D01*
X127975407Y-81613761D02*
X128070646Y-81613761D01*
X128165884Y-81661380D01*
X128213503Y-81708999D01*
X128261122Y-81804237D01*
X128308741Y-81994713D01*
X128308741Y-82232809D01*
X128261122Y-82423285D01*
X128213503Y-82518523D01*
X128165884Y-82566142D01*
X128070646Y-82613761D01*
X127975407Y-82613761D01*
X127880169Y-82566142D01*
X127832550Y-82518523D01*
X127784931Y-82423285D01*
X127737312Y-82232809D01*
X127737312Y-81994713D01*
X127784931Y-81804237D01*
X127832550Y-81708999D01*
X127880169Y-81661380D01*
X127975407Y-81613761D01*
X128689693Y-81708999D02*
X128737312Y-81661380D01*
X128832550Y-81613761D01*
X129070646Y-81613761D01*
X129165884Y-81661380D01*
X129213503Y-81708999D01*
X129261122Y-81804237D01*
X129261122Y-81899475D01*
X129213503Y-82042332D01*
X128642074Y-82613761D01*
X129261122Y-82613761D01*
X129594455Y-81613761D02*
X130261122Y-82613761D01*
X130261122Y-81613761D02*
X129594455Y-82613761D01*
X131165884Y-82613761D02*
X130594455Y-82613761D01*
X130880169Y-82613761D02*
X130880169Y-81613761D01*
X130784931Y-81756618D01*
X130689693Y-81851856D01*
X130594455Y-81899475D01*
X131546836Y-81708999D02*
X131594455Y-81661380D01*
X131689693Y-81613761D01*
X131927789Y-81613761D01*
X132023027Y-81661380D01*
X132070646Y-81708999D01*
X132118265Y-81804237D01*
X132118265Y-81899475D01*
X132070646Y-82042332D01*
X131499217Y-82613761D01*
X132118265Y-82613761D01*
X132308741Y-82708999D02*
X133070646Y-82708999D01*
X133880170Y-82518523D02*
X133832551Y-82566142D01*
X133689694Y-82613761D01*
X133594456Y-82613761D01*
X133451598Y-82566142D01*
X133356360Y-82470904D01*
X133308741Y-82375666D01*
X133261122Y-82185190D01*
X133261122Y-82042332D01*
X133308741Y-81851856D01*
X133356360Y-81756618D01*
X133451598Y-81661380D01*
X133594456Y-81613761D01*
X133689694Y-81613761D01*
X133832551Y-81661380D01*
X133880170Y-81708999D01*
X123090918Y-101929203D02*
X123043299Y-101976822D01*
X122900442Y-102024441D01*
X122805204Y-102024441D01*
X122662346Y-101976822D01*
X122567108Y-101881584D01*
X122519489Y-101786346D01*
X122471870Y-101595870D01*
X122471870Y-101453012D01*
X122519489Y-101262536D01*
X122567108Y-101167298D01*
X122662346Y-101072060D01*
X122805204Y-101024441D01*
X122900442Y-101024441D01*
X123043299Y-101072060D01*
X123090918Y-101119679D01*
X123709965Y-101024441D02*
X123900442Y-101024441D01*
X123995680Y-101072060D01*
X124090918Y-101167298D01*
X124138537Y-101357774D01*
X124138537Y-101691108D01*
X124090918Y-101881584D01*
X123995680Y-101976822D01*
X123900442Y-102024441D01*
X123709965Y-102024441D01*
X123614727Y-101976822D01*
X123519489Y-101881584D01*
X123471870Y-101691108D01*
X123471870Y-101357774D01*
X123519489Y-101167298D01*
X123614727Y-101072060D01*
X123709965Y-101024441D01*
X124567108Y-102024441D02*
X124567108Y-101024441D01*
X125138537Y-102024441D01*
X125138537Y-101024441D01*
X125614727Y-102024441D02*
X125614727Y-101024441D01*
X126186156Y-102024441D01*
X126186156Y-101024441D01*
X126424251Y-102119679D02*
X127186156Y-102119679D01*
X127614727Y-101024441D02*
X127709966Y-101024441D01*
X127805204Y-101072060D01*
X127852823Y-101119679D01*
X127900442Y-101214917D01*
X127948061Y-101405393D01*
X127948061Y-101643489D01*
X127900442Y-101833965D01*
X127852823Y-101929203D01*
X127805204Y-101976822D01*
X127709966Y-102024441D01*
X127614727Y-102024441D01*
X127519489Y-101976822D01*
X127471870Y-101929203D01*
X127424251Y-101833965D01*
X127376632Y-101643489D01*
X127376632Y-101405393D01*
X127424251Y-101214917D01*
X127471870Y-101119679D01*
X127519489Y-101072060D01*
X127614727Y-101024441D01*
X128329013Y-101119679D02*
X128376632Y-101072060D01*
X128471870Y-101024441D01*
X128709966Y-101024441D01*
X128805204Y-101072060D01*
X128852823Y-101119679D01*
X128900442Y-101214917D01*
X128900442Y-101310155D01*
X128852823Y-101453012D01*
X128281394Y-102024441D01*
X128900442Y-102024441D01*
X129233775Y-101024441D02*
X129900442Y-102024441D01*
X129900442Y-101024441D02*
X129233775Y-102024441D01*
X130805204Y-102024441D02*
X130233775Y-102024441D01*
X130519489Y-102024441D02*
X130519489Y-101024441D01*
X130424251Y-101167298D01*
X130329013Y-101262536D01*
X130233775Y-101310155D01*
X131186156Y-101119679D02*
X131233775Y-101072060D01*
X131329013Y-101024441D01*
X131567109Y-101024441D01*
X131662347Y-101072060D01*
X131709966Y-101119679D01*
X131757585Y-101214917D01*
X131757585Y-101310155D01*
X131709966Y-101453012D01*
X131138537Y-102024441D01*
X131757585Y-102024441D01*
X131948061Y-102119679D02*
X132709966Y-102119679D01*
X133281395Y-101500631D02*
X133424252Y-101548250D01*
X133471871Y-101595870D01*
X133519490Y-101691108D01*
X133519490Y-101833965D01*
X133471871Y-101929203D01*
X133424252Y-101976822D01*
X133329014Y-102024441D01*
X132948061Y-102024441D01*
X132948061Y-101024441D01*
X133281395Y-101024441D01*
X133376633Y-101072060D01*
X133424252Y-101119679D01*
X133471871Y-101214917D01*
X133471871Y-101310155D01*
X133424252Y-101405393D01*
X133376633Y-101453012D01*
X133281395Y-101500631D01*
X132948061Y-101500631D01*
X87877711Y-83095103D02*
X87830092Y-83142722D01*
X87687235Y-83190341D01*
X87591997Y-83190341D01*
X87449139Y-83142722D01*
X87353901Y-83047484D01*
X87306282Y-82952246D01*
X87258663Y-82761770D01*
X87258663Y-82618912D01*
X87306282Y-82428436D01*
X87353901Y-82333198D01*
X87449139Y-82237960D01*
X87591997Y-82190341D01*
X87687235Y-82190341D01*
X87830092Y-82237960D01*
X87877711Y-82285579D01*
X88496758Y-82190341D02*
X88687235Y-82190341D01*
X88782473Y-82237960D01*
X88877711Y-82333198D01*
X88925330Y-82523674D01*
X88925330Y-82857008D01*
X88877711Y-83047484D01*
X88782473Y-83142722D01*
X88687235Y-83190341D01*
X88496758Y-83190341D01*
X88401520Y-83142722D01*
X88306282Y-83047484D01*
X88258663Y-82857008D01*
X88258663Y-82523674D01*
X88306282Y-82333198D01*
X88401520Y-82237960D01*
X88496758Y-82190341D01*
X89353901Y-83190341D02*
X89353901Y-82190341D01*
X89925330Y-83190341D01*
X89925330Y-82190341D01*
X90401520Y-83190341D02*
X90401520Y-82190341D01*
X90972949Y-83190341D01*
X90972949Y-82190341D01*
X91211044Y-83285579D02*
X91972949Y-83285579D01*
X92401520Y-82190341D02*
X92496759Y-82190341D01*
X92591997Y-82237960D01*
X92639616Y-82285579D01*
X92687235Y-82380817D01*
X92734854Y-82571293D01*
X92734854Y-82809389D01*
X92687235Y-82999865D01*
X92639616Y-83095103D01*
X92591997Y-83142722D01*
X92496759Y-83190341D01*
X92401520Y-83190341D01*
X92306282Y-83142722D01*
X92258663Y-83095103D01*
X92211044Y-82999865D01*
X92163425Y-82809389D01*
X92163425Y-82571293D01*
X92211044Y-82380817D01*
X92258663Y-82285579D01*
X92306282Y-82237960D01*
X92401520Y-82190341D01*
X93115806Y-82285579D02*
X93163425Y-82237960D01*
X93258663Y-82190341D01*
X93496759Y-82190341D01*
X93591997Y-82237960D01*
X93639616Y-82285579D01*
X93687235Y-82380817D01*
X93687235Y-82476055D01*
X93639616Y-82618912D01*
X93068187Y-83190341D01*
X93687235Y-83190341D01*
X94020568Y-82190341D02*
X94687235Y-83190341D01*
X94687235Y-82190341D02*
X94020568Y-83190341D01*
X95591997Y-83190341D02*
X95020568Y-83190341D01*
X95306282Y-83190341D02*
X95306282Y-82190341D01*
X95211044Y-82333198D01*
X95115806Y-82428436D01*
X95020568Y-82476055D01*
X95972949Y-82285579D02*
X96020568Y-82237960D01*
X96115806Y-82190341D01*
X96353902Y-82190341D01*
X96449140Y-82237960D01*
X96496759Y-82285579D01*
X96544378Y-82380817D01*
X96544378Y-82476055D01*
X96496759Y-82618912D01*
X95925330Y-83190341D01*
X96544378Y-83190341D01*
X96734854Y-83285579D02*
X97496759Y-83285579D01*
X97877711Y-83190341D02*
X97782473Y-83142722D01*
X97734854Y-83095103D01*
X97687235Y-82999865D01*
X97687235Y-82714150D01*
X97734854Y-82618912D01*
X97782473Y-82571293D01*
X97877711Y-82523674D01*
X98020569Y-82523674D01*
X98115807Y-82571293D01*
X98163426Y-82618912D01*
X98211045Y-82714150D01*
X98211045Y-82999865D01*
X98163426Y-83095103D01*
X98115807Y-83142722D01*
X98020569Y-83190341D01*
X97877711Y-83190341D01*
X98782473Y-83190341D02*
X98687235Y-83142722D01*
X98639616Y-83047484D01*
X98639616Y-82190341D01*
X99591998Y-83190341D02*
X99591998Y-82190341D01*
X99591998Y-83142722D02*
X99496760Y-83190341D01*
X99306283Y-83190341D01*
X99211045Y-83142722D01*
X99163426Y-83095103D01*
X99115807Y-82999865D01*
X99115807Y-82714150D01*
X99163426Y-82618912D01*
X99211045Y-82571293D01*
X99306283Y-82523674D01*
X99496760Y-82523674D01*
X99591998Y-82571293D01*
X69374476Y-101454223D02*
X69326857Y-101501842D01*
X69184000Y-101549461D01*
X69088762Y-101549461D01*
X68945904Y-101501842D01*
X68850666Y-101406604D01*
X68803047Y-101311366D01*
X68755428Y-101120890D01*
X68755428Y-100978032D01*
X68803047Y-100787556D01*
X68850666Y-100692318D01*
X68945904Y-100597080D01*
X69088762Y-100549461D01*
X69184000Y-100549461D01*
X69326857Y-100597080D01*
X69374476Y-100644699D01*
X69993523Y-100549461D02*
X70184000Y-100549461D01*
X70279238Y-100597080D01*
X70374476Y-100692318D01*
X70422095Y-100882794D01*
X70422095Y-101216128D01*
X70374476Y-101406604D01*
X70279238Y-101501842D01*
X70184000Y-101549461D01*
X69993523Y-101549461D01*
X69898285Y-101501842D01*
X69803047Y-101406604D01*
X69755428Y-101216128D01*
X69755428Y-100882794D01*
X69803047Y-100692318D01*
X69898285Y-100597080D01*
X69993523Y-100549461D01*
X70850666Y-101549461D02*
X70850666Y-100549461D01*
X71422095Y-101549461D01*
X71422095Y-100549461D01*
X71898285Y-101549461D02*
X71898285Y-100549461D01*
X72469714Y-101549461D01*
X72469714Y-100549461D01*
X72707809Y-101644699D02*
X73469714Y-101644699D01*
X73898285Y-100549461D02*
X73993524Y-100549461D01*
X74088762Y-100597080D01*
X74136381Y-100644699D01*
X74184000Y-100739937D01*
X74231619Y-100930413D01*
X74231619Y-101168509D01*
X74184000Y-101358985D01*
X74136381Y-101454223D01*
X74088762Y-101501842D01*
X73993524Y-101549461D01*
X73898285Y-101549461D01*
X73803047Y-101501842D01*
X73755428Y-101454223D01*
X73707809Y-101358985D01*
X73660190Y-101168509D01*
X73660190Y-100930413D01*
X73707809Y-100739937D01*
X73755428Y-100644699D01*
X73803047Y-100597080D01*
X73898285Y-100549461D01*
X74612571Y-100644699D02*
X74660190Y-100597080D01*
X74755428Y-100549461D01*
X74993524Y-100549461D01*
X75088762Y-100597080D01*
X75136381Y-100644699D01*
X75184000Y-100739937D01*
X75184000Y-100835175D01*
X75136381Y-100978032D01*
X74564952Y-101549461D01*
X75184000Y-101549461D01*
X75517333Y-100549461D02*
X76184000Y-101549461D01*
X76184000Y-100549461D02*
X75517333Y-101549461D01*
X77088762Y-101549461D02*
X76517333Y-101549461D01*
X76803047Y-101549461D02*
X76803047Y-100549461D01*
X76707809Y-100692318D01*
X76612571Y-100787556D01*
X76517333Y-100835175D01*
X77469714Y-100644699D02*
X77517333Y-100597080D01*
X77612571Y-100549461D01*
X77850667Y-100549461D01*
X77945905Y-100597080D01*
X77993524Y-100644699D01*
X78041143Y-100739937D01*
X78041143Y-100835175D01*
X77993524Y-100978032D01*
X77422095Y-101549461D01*
X78041143Y-101549461D01*
X78231619Y-101644699D02*
X78993524Y-101644699D01*
X79231619Y-100882794D02*
X79231619Y-101549461D01*
X79231619Y-100978032D02*
X79279238Y-100930413D01*
X79374476Y-100882794D01*
X79517334Y-100882794D01*
X79612572Y-100930413D01*
X79660191Y-101025651D01*
X79660191Y-101549461D01*
X80517334Y-101501842D02*
X80422096Y-101549461D01*
X80231619Y-101549461D01*
X80136381Y-101501842D01*
X80088762Y-101406604D01*
X80088762Y-101025651D01*
X80136381Y-100930413D01*
X80231619Y-100882794D01*
X80422096Y-100882794D01*
X80517334Y-100930413D01*
X80564953Y-101025651D01*
X80564953Y-101120890D01*
X80088762Y-101216128D01*
X80898286Y-100882794D02*
X81088762Y-101549461D01*
X81279239Y-101073270D01*
X81469715Y-101549461D01*
X81660191Y-100882794D01*
X111679214Y-102035013D02*
X111750643Y-102106442D01*
X111822071Y-102320728D01*
X111822071Y-102463585D01*
X111750643Y-102677870D01*
X111607786Y-102820728D01*
X111464929Y-102892156D01*
X111179214Y-102963585D01*
X110964929Y-102963585D01*
X110679214Y-102892156D01*
X110536357Y-102820728D01*
X110393500Y-102677870D01*
X110322071Y-102463585D01*
X110322071Y-102320728D01*
X110393500Y-102106442D01*
X110464929Y-102035013D01*
X110322071Y-101106442D02*
X110322071Y-100820728D01*
X110393500Y-100677870D01*
X110536357Y-100535013D01*
X110822071Y-100463585D01*
X111322071Y-100463585D01*
X111607786Y-100535013D01*
X111750643Y-100677870D01*
X111822071Y-100820728D01*
X111822071Y-101106442D01*
X111750643Y-101249299D01*
X111607786Y-101392156D01*
X111322071Y-101463585D01*
X110822071Y-101463585D01*
X110536357Y-101392156D01*
X110393500Y-101249299D01*
X110322071Y-101106442D01*
X111822071Y-99820727D02*
X110322071Y-99820727D01*
X111822071Y-98963584D01*
X110322071Y-98963584D01*
X111822071Y-98249298D02*
X110322071Y-98249298D01*
X111822071Y-97392155D01*
X110322071Y-97392155D01*
X111964929Y-97035012D02*
X111964929Y-95892155D01*
X110322071Y-95249298D02*
X110322071Y-95106441D01*
X110393500Y-94963584D01*
X110464929Y-94892155D01*
X110607786Y-94820726D01*
X110893500Y-94749298D01*
X111250643Y-94749298D01*
X111536357Y-94820726D01*
X111679214Y-94892155D01*
X111750643Y-94963584D01*
X111822071Y-95106441D01*
X111822071Y-95249298D01*
X111750643Y-95392155D01*
X111679214Y-95463584D01*
X111536357Y-95535012D01*
X111250643Y-95606441D01*
X110893500Y-95606441D01*
X110607786Y-95535012D01*
X110464929Y-95463584D01*
X110393500Y-95392155D01*
X110322071Y-95249298D01*
X111822071Y-93320727D02*
X111822071Y-94177870D01*
X111822071Y-93749298D02*
X110322071Y-93749298D01*
X110536357Y-93892155D01*
X110679214Y-94035013D01*
X110750643Y-94177870D01*
X110322071Y-92820727D02*
X111822071Y-91820727D01*
X110322071Y-91820727D02*
X111822071Y-92820727D01*
X110322071Y-90963585D02*
X110322071Y-90820728D01*
X110393500Y-90677871D01*
X110464929Y-90606442D01*
X110607786Y-90535013D01*
X110893500Y-90463585D01*
X111250643Y-90463585D01*
X111536357Y-90535013D01*
X111679214Y-90606442D01*
X111750643Y-90677871D01*
X111822071Y-90820728D01*
X111822071Y-90963585D01*
X111750643Y-91106442D01*
X111679214Y-91177871D01*
X111536357Y-91249299D01*
X111250643Y-91320728D01*
X110893500Y-91320728D01*
X110607786Y-91249299D01*
X110464929Y-91177871D01*
X110393500Y-91106442D01*
X110322071Y-90963585D01*
X110464929Y-89892157D02*
X110393500Y-89820728D01*
X110322071Y-89677871D01*
X110322071Y-89320728D01*
X110393500Y-89177871D01*
X110464929Y-89106442D01*
X110607786Y-89035014D01*
X110750643Y-89035014D01*
X110964929Y-89106442D01*
X111822071Y-89963585D01*
X111822071Y-89035014D01*
X92711594Y-102035013D02*
X92783023Y-102106442D01*
X92854451Y-102320728D01*
X92854451Y-102463585D01*
X92783023Y-102677870D01*
X92640166Y-102820728D01*
X92497309Y-102892156D01*
X92211594Y-102963585D01*
X91997309Y-102963585D01*
X91711594Y-102892156D01*
X91568737Y-102820728D01*
X91425880Y-102677870D01*
X91354451Y-102463585D01*
X91354451Y-102320728D01*
X91425880Y-102106442D01*
X91497309Y-102035013D01*
X91354451Y-101106442D02*
X91354451Y-100820728D01*
X91425880Y-100677870D01*
X91568737Y-100535013D01*
X91854451Y-100463585D01*
X92354451Y-100463585D01*
X92640166Y-100535013D01*
X92783023Y-100677870D01*
X92854451Y-100820728D01*
X92854451Y-101106442D01*
X92783023Y-101249299D01*
X92640166Y-101392156D01*
X92354451Y-101463585D01*
X91854451Y-101463585D01*
X91568737Y-101392156D01*
X91425880Y-101249299D01*
X91354451Y-101106442D01*
X92854451Y-99820727D02*
X91354451Y-99820727D01*
X92854451Y-98963584D01*
X91354451Y-98963584D01*
X92854451Y-98249298D02*
X91354451Y-98249298D01*
X92854451Y-97392155D01*
X91354451Y-97392155D01*
X92997309Y-97035012D02*
X92997309Y-95892155D01*
X91354451Y-95249298D02*
X91354451Y-95106441D01*
X91425880Y-94963584D01*
X91497309Y-94892155D01*
X91640166Y-94820726D01*
X91925880Y-94749298D01*
X92283023Y-94749298D01*
X92568737Y-94820726D01*
X92711594Y-94892155D01*
X92783023Y-94963584D01*
X92854451Y-95106441D01*
X92854451Y-95249298D01*
X92783023Y-95392155D01*
X92711594Y-95463584D01*
X92568737Y-95535012D01*
X92283023Y-95606441D01*
X91925880Y-95606441D01*
X91640166Y-95535012D01*
X91497309Y-95463584D01*
X91425880Y-95392155D01*
X91354451Y-95249298D01*
X92854451Y-93320727D02*
X92854451Y-94177870D01*
X92854451Y-93749298D02*
X91354451Y-93749298D01*
X91568737Y-93892155D01*
X91711594Y-94035013D01*
X91783023Y-94177870D01*
X91354451Y-92820727D02*
X92854451Y-91820727D01*
X91354451Y-91820727D02*
X92854451Y-92820727D01*
X91354451Y-90963585D02*
X91354451Y-90820728D01*
X91425880Y-90677871D01*
X91497309Y-90606442D01*
X91640166Y-90535013D01*
X91925880Y-90463585D01*
X92283023Y-90463585D01*
X92568737Y-90535013D01*
X92711594Y-90606442D01*
X92783023Y-90677871D01*
X92854451Y-90820728D01*
X92854451Y-90963585D01*
X92783023Y-91106442D01*
X92711594Y-91177871D01*
X92568737Y-91249299D01*
X92283023Y-91320728D01*
X91925880Y-91320728D01*
X91640166Y-91249299D01*
X91497309Y-91177871D01*
X91425880Y-91106442D01*
X91354451Y-90963585D01*
X91497309Y-89892157D02*
X91425880Y-89820728D01*
X91354451Y-89677871D01*
X91354451Y-89320728D01*
X91425880Y-89177871D01*
X91497309Y-89106442D01*
X91640166Y-89035014D01*
X91783023Y-89035014D01*
X91997309Y-89106442D01*
X92854451Y-89963585D01*
X92854451Y-89035014D01*
M02*
