G04 #@! TF.FileFunction,Other,ECO1*
%FSLAX46Y46*%
G04 Gerber Fmt 4.6, Leading zero omitted, Abs format (unit mm)*
G04 Created by KiCad (PCBNEW 4.0.2+dfsg1-stable) date mar 18 dic 2018 10:10:51 CET*
%MOMM*%
G01*
G04 APERTURE LIST*
%ADD10C,0.100000*%
%ADD11C,0.300000*%
G04 APERTURE END LIST*
D10*
D11*
X111204704Y-105848299D02*
X111205720Y-104848299D01*
X112705066Y-105492680D01*
X112634945Y-104206895D02*
X112706373Y-104206967D01*
X112849158Y-104278540D01*
X112920513Y-104350042D01*
X111207752Y-102848300D02*
X111207026Y-103562586D01*
X111921239Y-103634740D01*
X111849884Y-103563239D01*
X111778600Y-103420309D01*
X111778963Y-103063167D01*
X111850537Y-102920382D01*
X111922038Y-102849026D01*
X112064967Y-102777743D01*
X112422110Y-102778106D01*
X112564894Y-102849679D01*
X112636251Y-102921180D01*
X112707534Y-103064110D01*
X112707171Y-103421253D01*
X112635598Y-103564037D01*
X112564096Y-103635394D01*
X111208768Y-101848302D02*
X111208913Y-101705445D01*
X111280487Y-101562660D01*
X111351989Y-101491304D01*
X111494918Y-101420020D01*
X111780705Y-101348882D01*
X112137847Y-101349245D01*
X112423489Y-101420964D01*
X112566273Y-101492538D01*
X112637630Y-101564039D01*
X112708912Y-101706969D01*
X112708767Y-101849826D01*
X112637194Y-101992610D01*
X112565693Y-102063966D01*
X112422763Y-102135249D01*
X112136977Y-102206388D01*
X111779834Y-102206025D01*
X111494193Y-102134306D01*
X111351408Y-102062733D01*
X111280052Y-101991231D01*
X111208768Y-101848302D01*
X112710726Y-99921256D02*
X112709856Y-100778398D01*
X112710291Y-100349826D02*
X111210292Y-100348302D01*
X111424433Y-100491377D01*
X111567144Y-100634380D01*
X111638428Y-100777310D01*
X112712541Y-98135542D02*
X111712541Y-98134527D01*
X111855399Y-98134672D02*
X111784043Y-98063171D01*
X111712759Y-97920241D01*
X111712977Y-97705956D01*
X111784551Y-97563171D01*
X111927480Y-97491888D01*
X112713194Y-97492686D01*
X111927480Y-97491888D02*
X111784696Y-97420313D01*
X111713412Y-97277384D01*
X111713630Y-97063099D01*
X111785204Y-96920314D01*
X111928133Y-96849031D01*
X112713847Y-96849829D01*
X112714572Y-96135544D02*
X111714573Y-96134528D01*
X111857431Y-96134673D02*
X111786074Y-96063172D01*
X111714791Y-95920242D01*
X111715008Y-95705957D01*
X111786582Y-95563172D01*
X111929512Y-95491889D01*
X112715226Y-95492687D01*
X111929512Y-95491889D02*
X111786728Y-95420315D01*
X111715444Y-95277385D01*
X111715661Y-95063100D01*
X111787236Y-94920315D01*
X111930165Y-94849032D01*
X112715879Y-94849830D01*
X113385603Y-96528771D02*
X113377983Y-104029391D01*
X119753380Y-96535240D02*
X110685604Y-96526028D01*
X119745760Y-104035860D02*
X110677984Y-104026648D01*
X113377983Y-104029391D02*
X112792707Y-102902292D01*
X113377983Y-104029391D02*
X113965548Y-102903484D01*
X113385603Y-96528771D02*
X112798038Y-97654678D01*
X113385603Y-96528771D02*
X113970879Y-97655870D01*
X117931310Y-92075552D02*
X118931310Y-92074197D01*
X118290485Y-93575066D01*
X119576100Y-93501897D02*
X119576197Y-93573325D01*
X119504962Y-93716279D01*
X119433630Y-93787804D01*
X120931308Y-92071488D02*
X120217022Y-92072455D01*
X120146561Y-92786838D01*
X120217893Y-92715313D01*
X120360653Y-92643690D01*
X120717796Y-92643207D01*
X120860750Y-92714442D01*
X120932275Y-92785773D01*
X121003897Y-92928533D01*
X121004380Y-93285676D01*
X120933146Y-93428630D01*
X120861814Y-93500155D01*
X120719054Y-93571777D01*
X120361911Y-93572261D01*
X120218957Y-93501026D01*
X120147432Y-93429694D01*
X121931306Y-92070133D02*
X122074163Y-92069940D01*
X122217116Y-92141175D01*
X122288642Y-92212507D01*
X122360264Y-92355268D01*
X122432079Y-92640885D01*
X122432563Y-92998027D01*
X122361522Y-93283838D01*
X122290287Y-93426791D01*
X122218955Y-93498317D01*
X122076194Y-93569938D01*
X121933338Y-93570132D01*
X121790384Y-93498898D01*
X121718858Y-93427565D01*
X121647237Y-93284805D01*
X121575421Y-92999188D01*
X121574937Y-92642046D01*
X121645979Y-92356235D01*
X121717213Y-92213281D01*
X121788546Y-92141756D01*
X121931306Y-92070133D01*
X123861907Y-93567520D02*
X123004765Y-93568681D01*
X123433336Y-93568100D02*
X123431304Y-92068102D01*
X123288738Y-92282581D01*
X123146073Y-92425631D01*
X123003313Y-92497254D01*
X125647619Y-93565101D02*
X125646265Y-92565102D01*
X125646458Y-92707960D02*
X125717789Y-92636434D01*
X125860550Y-92564811D01*
X126074835Y-92564521D01*
X126217789Y-92635757D01*
X126289411Y-92778517D01*
X126290476Y-93564230D01*
X126289411Y-92778517D02*
X126360647Y-92635563D01*
X126503407Y-92563941D01*
X126717692Y-92563650D01*
X126860646Y-92634886D01*
X126932268Y-92777646D01*
X126933332Y-93563359D01*
X127647617Y-93562392D02*
X127646263Y-92562393D01*
X127646456Y-92705250D02*
X127717787Y-92633725D01*
X127860549Y-92562102D01*
X128074833Y-92561812D01*
X128217787Y-92633047D01*
X128289409Y-92775808D01*
X128290474Y-93561521D01*
X128289409Y-92775808D02*
X128360645Y-92632854D01*
X128503405Y-92561232D01*
X128717690Y-92560941D01*
X128860644Y-92632177D01*
X128932266Y-92774937D01*
X128933330Y-93560650D01*
X119755364Y-94244512D02*
X127255984Y-94234352D01*
X119758460Y-96530160D02*
X119751707Y-91544515D01*
X127259080Y-96520000D02*
X127252327Y-91534355D01*
X127255984Y-94234352D02*
X126130276Y-94822298D01*
X127255984Y-94234352D02*
X126128687Y-93649458D01*
X119755364Y-94244512D02*
X120882661Y-94829406D01*
X119755364Y-94244512D02*
X120881072Y-93656566D01*
M02*
