G04 #@! TF.FileFunction,Other,Fab,Top*
%FSLAX46Y46*%
G04 Gerber Fmt 4.6, Leading zero omitted, Abs format (unit mm)*
G04 Created by KiCad (PCBNEW 4.0.2+dfsg1-stable) date mar 18 dic 2018 10:10:51 CET*
%MOMM*%
G01*
G04 APERTURE LIST*
%ADD10C,0.100000*%
%ADD11C,0.150000*%
G04 APERTURE END LIST*
D10*
D11*
X125567963Y-105415982D02*
X125710820Y-105463601D01*
X125948916Y-105463601D01*
X126044154Y-105415982D01*
X126091773Y-105368363D01*
X126139392Y-105273125D01*
X126139392Y-105177887D01*
X126091773Y-105082649D01*
X126044154Y-105035030D01*
X125948916Y-104987410D01*
X125758439Y-104939791D01*
X125663201Y-104892172D01*
X125615582Y-104844553D01*
X125567963Y-104749315D01*
X125567963Y-104654077D01*
X125615582Y-104558839D01*
X125663201Y-104511220D01*
X125758439Y-104463601D01*
X125996535Y-104463601D01*
X126139392Y-104511220D01*
X126567963Y-105463601D02*
X126567963Y-104463601D01*
X126948916Y-104463601D01*
X127044154Y-104511220D01*
X127091773Y-104558839D01*
X127139392Y-104654077D01*
X127139392Y-104796934D01*
X127091773Y-104892172D01*
X127044154Y-104939791D01*
X126948916Y-104987410D01*
X126567963Y-104987410D01*
X127520344Y-105415982D02*
X127663201Y-105463601D01*
X127901297Y-105463601D01*
X127996535Y-105415982D01*
X128044154Y-105368363D01*
X128091773Y-105273125D01*
X128091773Y-105177887D01*
X128044154Y-105082649D01*
X127996535Y-105035030D01*
X127901297Y-104987410D01*
X127710820Y-104939791D01*
X127615582Y-104892172D01*
X127567963Y-104844553D01*
X127520344Y-104749315D01*
X127520344Y-104654077D01*
X127567963Y-104558839D01*
X127615582Y-104511220D01*
X127710820Y-104463601D01*
X127948916Y-104463601D01*
X128091773Y-104511220D01*
X128377487Y-104463601D02*
X128948916Y-104463601D01*
X128663201Y-105463601D02*
X128663201Y-104463601D01*
X128452431Y-107882963D02*
X128404812Y-107930582D01*
X128261955Y-107978201D01*
X128166717Y-107978201D01*
X128023859Y-107930582D01*
X127928621Y-107835344D01*
X127881002Y-107740106D01*
X127833383Y-107549630D01*
X127833383Y-107406772D01*
X127881002Y-107216296D01*
X127928621Y-107121058D01*
X128023859Y-107025820D01*
X128166717Y-106978201D01*
X128261955Y-106978201D01*
X128404812Y-107025820D01*
X128452431Y-107073439D01*
X129071478Y-106978201D02*
X129261955Y-106978201D01*
X129357193Y-107025820D01*
X129452431Y-107121058D01*
X129500050Y-107311534D01*
X129500050Y-107644868D01*
X129452431Y-107835344D01*
X129357193Y-107930582D01*
X129261955Y-107978201D01*
X129071478Y-107978201D01*
X128976240Y-107930582D01*
X128881002Y-107835344D01*
X128833383Y-107644868D01*
X128833383Y-107311534D01*
X128881002Y-107121058D01*
X128976240Y-107025820D01*
X129071478Y-106978201D01*
X129928621Y-107978201D02*
X129928621Y-106978201D01*
X130500050Y-107978201D01*
X130500050Y-106978201D01*
X130976240Y-107978201D02*
X130976240Y-106978201D01*
X131547669Y-107978201D01*
X131547669Y-106978201D01*
X131785764Y-108073439D02*
X132547669Y-108073439D01*
X132976240Y-106978201D02*
X133071479Y-106978201D01*
X133166717Y-107025820D01*
X133214336Y-107073439D01*
X133261955Y-107168677D01*
X133309574Y-107359153D01*
X133309574Y-107597249D01*
X133261955Y-107787725D01*
X133214336Y-107882963D01*
X133166717Y-107930582D01*
X133071479Y-107978201D01*
X132976240Y-107978201D01*
X132881002Y-107930582D01*
X132833383Y-107882963D01*
X132785764Y-107787725D01*
X132738145Y-107597249D01*
X132738145Y-107359153D01*
X132785764Y-107168677D01*
X132833383Y-107073439D01*
X132881002Y-107025820D01*
X132976240Y-106978201D01*
X134261955Y-107978201D02*
X133690526Y-107978201D01*
X133976240Y-107978201D02*
X133976240Y-106978201D01*
X133881002Y-107121058D01*
X133785764Y-107216296D01*
X133690526Y-107263915D01*
X134595288Y-106978201D02*
X135261955Y-107978201D01*
X135261955Y-106978201D02*
X134595288Y-107978201D01*
X135833383Y-106978201D02*
X135928622Y-106978201D01*
X136023860Y-107025820D01*
X136071479Y-107073439D01*
X136119098Y-107168677D01*
X136166717Y-107359153D01*
X136166717Y-107597249D01*
X136119098Y-107787725D01*
X136071479Y-107882963D01*
X136023860Y-107930582D01*
X135928622Y-107978201D01*
X135833383Y-107978201D01*
X135738145Y-107930582D01*
X135690526Y-107882963D01*
X135642907Y-107787725D01*
X135595288Y-107597249D01*
X135595288Y-107359153D01*
X135642907Y-107168677D01*
X135690526Y-107073439D01*
X135738145Y-107025820D01*
X135833383Y-106978201D01*
X137119098Y-107978201D02*
X136547669Y-107978201D01*
X136833383Y-107978201D02*
X136833383Y-106978201D01*
X136738145Y-107121058D01*
X136642907Y-107216296D01*
X136547669Y-107263915D01*
X128312731Y-97710263D02*
X128265112Y-97757882D01*
X128122255Y-97805501D01*
X128027017Y-97805501D01*
X127884159Y-97757882D01*
X127788921Y-97662644D01*
X127741302Y-97567406D01*
X127693683Y-97376930D01*
X127693683Y-97234072D01*
X127741302Y-97043596D01*
X127788921Y-96948358D01*
X127884159Y-96853120D01*
X128027017Y-96805501D01*
X128122255Y-96805501D01*
X128265112Y-96853120D01*
X128312731Y-96900739D01*
X128931778Y-96805501D02*
X129122255Y-96805501D01*
X129217493Y-96853120D01*
X129312731Y-96948358D01*
X129360350Y-97138834D01*
X129360350Y-97472168D01*
X129312731Y-97662644D01*
X129217493Y-97757882D01*
X129122255Y-97805501D01*
X128931778Y-97805501D01*
X128836540Y-97757882D01*
X128741302Y-97662644D01*
X128693683Y-97472168D01*
X128693683Y-97138834D01*
X128741302Y-96948358D01*
X128836540Y-96853120D01*
X128931778Y-96805501D01*
X129788921Y-97805501D02*
X129788921Y-96805501D01*
X130360350Y-97805501D01*
X130360350Y-96805501D01*
X130836540Y-97805501D02*
X130836540Y-96805501D01*
X131407969Y-97805501D01*
X131407969Y-96805501D01*
X131646064Y-97900739D02*
X132407969Y-97900739D01*
X132836540Y-96805501D02*
X132931779Y-96805501D01*
X133027017Y-96853120D01*
X133074636Y-96900739D01*
X133122255Y-96995977D01*
X133169874Y-97186453D01*
X133169874Y-97424549D01*
X133122255Y-97615025D01*
X133074636Y-97710263D01*
X133027017Y-97757882D01*
X132931779Y-97805501D01*
X132836540Y-97805501D01*
X132741302Y-97757882D01*
X132693683Y-97710263D01*
X132646064Y-97615025D01*
X132598445Y-97424549D01*
X132598445Y-97186453D01*
X132646064Y-96995977D01*
X132693683Y-96900739D01*
X132741302Y-96853120D01*
X132836540Y-96805501D01*
X134122255Y-97805501D02*
X133550826Y-97805501D01*
X133836540Y-97805501D02*
X133836540Y-96805501D01*
X133741302Y-96948358D01*
X133646064Y-97043596D01*
X133550826Y-97091215D01*
X134455588Y-96805501D02*
X135122255Y-97805501D01*
X135122255Y-96805501D02*
X134455588Y-97805501D01*
X135693683Y-96805501D02*
X135788922Y-96805501D01*
X135884160Y-96853120D01*
X135931779Y-96900739D01*
X135979398Y-96995977D01*
X136027017Y-97186453D01*
X136027017Y-97424549D01*
X135979398Y-97615025D01*
X135931779Y-97710263D01*
X135884160Y-97757882D01*
X135788922Y-97805501D01*
X135693683Y-97805501D01*
X135598445Y-97757882D01*
X135550826Y-97710263D01*
X135503207Y-97615025D01*
X135455588Y-97424549D01*
X135455588Y-97186453D01*
X135503207Y-96995977D01*
X135550826Y-96900739D01*
X135598445Y-96853120D01*
X135693683Y-96805501D01*
X136979398Y-97805501D02*
X136407969Y-97805501D01*
X136693683Y-97805501D02*
X136693683Y-96805501D01*
X136598445Y-96948358D01*
X136503207Y-97043596D01*
X136407969Y-97091215D01*
M02*
