G04 #@! TF.FileFunction,Legend,Top*
%FSLAX46Y46*%
G04 Gerber Fmt 4.6, Leading zero omitted, Abs format (unit mm)*
G04 Created by KiCad (PCBNEW 4.0.2+dfsg1-stable) date mar 18 dic 2018 10:10:51 CET*
%MOMM*%
G01*
G04 APERTURE LIST*
%ADD10C,0.100000*%
%ADD11C,0.150000*%
G04 APERTURE END LIST*
D10*
D11*
X129750820Y-103995220D02*
G75*
G03X129750820Y-103995220I-2540000J0D01*
G01*
X123400820Y-100185220D02*
X131020820Y-100185220D01*
X131020820Y-100185220D02*
X131020820Y-107805220D01*
X131020820Y-107805220D02*
X123400820Y-107805220D01*
X123400820Y-100185220D02*
X123400820Y-107805220D01*
X125877487Y-103637982D02*
X126020344Y-103685601D01*
X126258440Y-103685601D01*
X126353678Y-103637982D01*
X126401297Y-103590363D01*
X126448916Y-103495125D01*
X126448916Y-103399887D01*
X126401297Y-103304649D01*
X126353678Y-103257030D01*
X126258440Y-103209410D01*
X126067963Y-103161791D01*
X125972725Y-103114172D01*
X125925106Y-103066553D01*
X125877487Y-102971315D01*
X125877487Y-102876077D01*
X125925106Y-102780839D01*
X125972725Y-102733220D01*
X126067963Y-102685601D01*
X126306059Y-102685601D01*
X126448916Y-102733220D01*
X126782249Y-102685601D02*
X127020344Y-103685601D01*
X127210821Y-102971315D01*
X127401297Y-103685601D01*
X127639392Y-102685601D01*
X128544154Y-103685601D02*
X127972725Y-103685601D01*
X128258439Y-103685601D02*
X128258439Y-102685601D01*
X128163201Y-102828458D01*
X128067963Y-102923696D01*
X127972725Y-102971315D01*
X131992145Y-111026201D02*
X131992145Y-110026201D01*
X132373098Y-110026201D01*
X132468336Y-110073820D01*
X132515955Y-110121439D01*
X132563574Y-110216677D01*
X132563574Y-110359534D01*
X132515955Y-110454772D01*
X132468336Y-110502391D01*
X132373098Y-110550010D01*
X131992145Y-110550010D01*
X132944526Y-110121439D02*
X132992145Y-110073820D01*
X133087383Y-110026201D01*
X133325479Y-110026201D01*
X133420717Y-110073820D01*
X133468336Y-110121439D01*
X133515955Y-110216677D01*
X133515955Y-110311915D01*
X133468336Y-110454772D01*
X132896907Y-111026201D01*
X133515955Y-111026201D01*
X131852445Y-100853501D02*
X131852445Y-99853501D01*
X132233398Y-99853501D01*
X132328636Y-99901120D01*
X132376255Y-99948739D01*
X132423874Y-100043977D01*
X132423874Y-100186834D01*
X132376255Y-100282072D01*
X132328636Y-100329691D01*
X132233398Y-100377310D01*
X131852445Y-100377310D01*
X133376255Y-100853501D02*
X132804826Y-100853501D01*
X133090540Y-100853501D02*
X133090540Y-99853501D01*
X132995302Y-99996358D01*
X132900064Y-100091596D01*
X132804826Y-100139215D01*
M02*
