G04 #@! TF.FileFunction,Drawing*
%FSLAX46Y46*%
G04 Gerber Fmt 4.6, Leading zero omitted, Abs format (unit mm)*
G04 Created by KiCad (PCBNEW 4.0.2+dfsg1-stable) date mer 24 ott 2018 10:21:22 CEST*
%MOMM*%
G01*
G04 APERTURE LIST*
%ADD10C,0.100000*%
%ADD11C,0.300000*%
%ADD12C,0.200000*%
G04 APERTURE END LIST*
D10*
D11*
X183662429Y-73621001D02*
X182662429Y-73621001D01*
X184233857Y-73263858D02*
X183162429Y-72906715D01*
X183162429Y-73835287D01*
X182662429Y-74478143D02*
X182662429Y-74763858D01*
X182733857Y-74906715D01*
X182805286Y-74978143D01*
X183019571Y-75121001D01*
X183305286Y-75192429D01*
X183876714Y-75192429D01*
X184019571Y-75121001D01*
X184091000Y-75049572D01*
X184162429Y-74906715D01*
X184162429Y-74621001D01*
X184091000Y-74478143D01*
X184019571Y-74406715D01*
X183876714Y-74335286D01*
X183519571Y-74335286D01*
X183376714Y-74406715D01*
X183305286Y-74478143D01*
X183233857Y-74621001D01*
X183233857Y-74906715D01*
X183305286Y-75049572D01*
X183376714Y-75121001D01*
X183519571Y-75192429D01*
X182805286Y-75835286D02*
X182733857Y-75906714D01*
X182662429Y-75835286D01*
X182733857Y-75763857D01*
X182805286Y-75835286D01*
X182662429Y-75835286D01*
X184162429Y-76835286D02*
X184162429Y-76978143D01*
X184091000Y-77121000D01*
X184019571Y-77192429D01*
X183876714Y-77263858D01*
X183591000Y-77335286D01*
X183233857Y-77335286D01*
X182948143Y-77263858D01*
X182805286Y-77192429D01*
X182733857Y-77121000D01*
X182662429Y-76978143D01*
X182662429Y-76835286D01*
X182733857Y-76692429D01*
X182805286Y-76621000D01*
X182948143Y-76549572D01*
X183233857Y-76478143D01*
X183591000Y-76478143D01*
X183876714Y-76549572D01*
X184019571Y-76621000D01*
X184091000Y-76692429D01*
X184162429Y-76835286D01*
X184019571Y-77906714D02*
X184091000Y-77978143D01*
X184162429Y-78121000D01*
X184162429Y-78478143D01*
X184091000Y-78621000D01*
X184019571Y-78692429D01*
X183876714Y-78763857D01*
X183733857Y-78763857D01*
X183519571Y-78692429D01*
X182662429Y-77835286D01*
X182662429Y-78763857D01*
X184019571Y-79335285D02*
X184091000Y-79406714D01*
X184162429Y-79549571D01*
X184162429Y-79906714D01*
X184091000Y-80049571D01*
X184019571Y-80121000D01*
X183876714Y-80192428D01*
X183733857Y-80192428D01*
X183519571Y-80121000D01*
X182662429Y-79263857D01*
X182662429Y-80192428D01*
X182662429Y-81978142D02*
X183662429Y-81978142D01*
X183519571Y-81978142D02*
X183591000Y-82049570D01*
X183662429Y-82192428D01*
X183662429Y-82406713D01*
X183591000Y-82549570D01*
X183448143Y-82620999D01*
X182662429Y-82620999D01*
X183448143Y-82620999D02*
X183591000Y-82692428D01*
X183662429Y-82835285D01*
X183662429Y-83049570D01*
X183591000Y-83192428D01*
X183448143Y-83263856D01*
X182662429Y-83263856D01*
X182662429Y-83978142D02*
X183662429Y-83978142D01*
X183519571Y-83978142D02*
X183591000Y-84049570D01*
X183662429Y-84192428D01*
X183662429Y-84406713D01*
X183591000Y-84549570D01*
X183448143Y-84620999D01*
X182662429Y-84620999D01*
X183448143Y-84620999D02*
X183591000Y-84692428D01*
X183662429Y-84835285D01*
X183662429Y-85049570D01*
X183591000Y-85192428D01*
X183448143Y-85263856D01*
X182662429Y-85263856D01*
X181991000Y-54610000D02*
X181991000Y-103632000D01*
X105283000Y-54610000D02*
X184691000Y-54610000D01*
X105283000Y-103632000D02*
X184691000Y-103632000D01*
X181991000Y-103632000D02*
X181404579Y-102505496D01*
X181991000Y-103632000D02*
X182577421Y-102505496D01*
X181991000Y-54610000D02*
X181404579Y-55736504D01*
X181991000Y-54610000D02*
X182577421Y-55736504D01*
X133763430Y-113050571D02*
X133049144Y-113050571D01*
X132977715Y-113764857D01*
X133049144Y-113693429D01*
X133192001Y-113622000D01*
X133549144Y-113622000D01*
X133692001Y-113693429D01*
X133763430Y-113764857D01*
X133834858Y-113907714D01*
X133834858Y-114264857D01*
X133763430Y-114407714D01*
X133692001Y-114479143D01*
X133549144Y-114550571D01*
X133192001Y-114550571D01*
X133049144Y-114479143D01*
X132977715Y-114407714D01*
X134334858Y-113050571D02*
X135334858Y-113050571D01*
X134692001Y-114550571D01*
X135906286Y-114407714D02*
X135977714Y-114479143D01*
X135906286Y-114550571D01*
X135834857Y-114479143D01*
X135906286Y-114407714D01*
X135906286Y-114550571D01*
X136692000Y-114550571D02*
X136977715Y-114550571D01*
X137120572Y-114479143D01*
X137192000Y-114407714D01*
X137334858Y-114193429D01*
X137406286Y-113907714D01*
X137406286Y-113336286D01*
X137334858Y-113193429D01*
X137263429Y-113122000D01*
X137120572Y-113050571D01*
X136834858Y-113050571D01*
X136692000Y-113122000D01*
X136620572Y-113193429D01*
X136549143Y-113336286D01*
X136549143Y-113693429D01*
X136620572Y-113836286D01*
X136692000Y-113907714D01*
X136834858Y-113979143D01*
X137120572Y-113979143D01*
X137263429Y-113907714D01*
X137334858Y-113836286D01*
X137406286Y-113693429D01*
X138834857Y-114550571D02*
X137977714Y-114550571D01*
X138406286Y-114550571D02*
X138406286Y-113050571D01*
X138263429Y-113264857D01*
X138120571Y-113407714D01*
X137977714Y-113479143D01*
X139406285Y-113193429D02*
X139477714Y-113122000D01*
X139620571Y-113050571D01*
X139977714Y-113050571D01*
X140120571Y-113122000D01*
X140192000Y-113193429D01*
X140263428Y-113336286D01*
X140263428Y-113479143D01*
X140192000Y-113693429D01*
X139334857Y-114550571D01*
X140263428Y-114550571D01*
X142049142Y-114550571D02*
X142049142Y-113550571D01*
X142049142Y-113693429D02*
X142120570Y-113622000D01*
X142263428Y-113550571D01*
X142477713Y-113550571D01*
X142620570Y-113622000D01*
X142691999Y-113764857D01*
X142691999Y-114550571D01*
X142691999Y-113764857D02*
X142763428Y-113622000D01*
X142906285Y-113550571D01*
X143120570Y-113550571D01*
X143263428Y-113622000D01*
X143334856Y-113764857D01*
X143334856Y-114550571D01*
X144049142Y-114550571D02*
X144049142Y-113550571D01*
X144049142Y-113693429D02*
X144120570Y-113622000D01*
X144263428Y-113550571D01*
X144477713Y-113550571D01*
X144620570Y-113622000D01*
X144691999Y-113764857D01*
X144691999Y-114550571D01*
X144691999Y-113764857D02*
X144763428Y-113622000D01*
X144906285Y-113550571D01*
X145120570Y-113550571D01*
X145263428Y-113622000D01*
X145334856Y-113764857D01*
X145334856Y-114550571D01*
X110236000Y-112522000D02*
X168148000Y-112522000D01*
X110236000Y-38608000D02*
X110236000Y-115222000D01*
X168148000Y-38608000D02*
X168148000Y-115222000D01*
X168148000Y-112522000D02*
X167021496Y-113108421D01*
X168148000Y-112522000D02*
X167021496Y-111935579D01*
X110236000Y-112522000D02*
X111362504Y-113108421D01*
X110236000Y-112522000D02*
X111362504Y-111935579D01*
X118499715Y-39373429D02*
X118571144Y-39302000D01*
X118714001Y-39230571D01*
X119071144Y-39230571D01*
X119214001Y-39302000D01*
X119285430Y-39373429D01*
X119356858Y-39516286D01*
X119356858Y-39659143D01*
X119285430Y-39873429D01*
X118428287Y-40730571D01*
X119356858Y-40730571D01*
X120214001Y-39873429D02*
X120071143Y-39802000D01*
X119999715Y-39730571D01*
X119928286Y-39587714D01*
X119928286Y-39516286D01*
X119999715Y-39373429D01*
X120071143Y-39302000D01*
X120214001Y-39230571D01*
X120499715Y-39230571D01*
X120642572Y-39302000D01*
X120714001Y-39373429D01*
X120785429Y-39516286D01*
X120785429Y-39587714D01*
X120714001Y-39730571D01*
X120642572Y-39802000D01*
X120499715Y-39873429D01*
X120214001Y-39873429D01*
X120071143Y-39944857D01*
X119999715Y-40016286D01*
X119928286Y-40159143D01*
X119928286Y-40444857D01*
X119999715Y-40587714D01*
X120071143Y-40659143D01*
X120214001Y-40730571D01*
X120499715Y-40730571D01*
X120642572Y-40659143D01*
X120714001Y-40587714D01*
X120785429Y-40444857D01*
X120785429Y-40159143D01*
X120714001Y-40016286D01*
X120642572Y-39944857D01*
X120499715Y-39873429D01*
X121428286Y-40587714D02*
X121499714Y-40659143D01*
X121428286Y-40730571D01*
X121356857Y-40659143D01*
X121428286Y-40587714D01*
X121428286Y-40730571D01*
X122214000Y-40730571D02*
X122499715Y-40730571D01*
X122642572Y-40659143D01*
X122714000Y-40587714D01*
X122856858Y-40373429D01*
X122928286Y-40087714D01*
X122928286Y-39516286D01*
X122856858Y-39373429D01*
X122785429Y-39302000D01*
X122642572Y-39230571D01*
X122356858Y-39230571D01*
X122214000Y-39302000D01*
X122142572Y-39373429D01*
X122071143Y-39516286D01*
X122071143Y-39873429D01*
X122142572Y-40016286D01*
X122214000Y-40087714D01*
X122356858Y-40159143D01*
X122642572Y-40159143D01*
X122785429Y-40087714D01*
X122856858Y-40016286D01*
X122928286Y-39873429D01*
X124285429Y-39230571D02*
X123571143Y-39230571D01*
X123499714Y-39944857D01*
X123571143Y-39873429D01*
X123714000Y-39802000D01*
X124071143Y-39802000D01*
X124214000Y-39873429D01*
X124285429Y-39944857D01*
X124356857Y-40087714D01*
X124356857Y-40444857D01*
X124285429Y-40587714D01*
X124214000Y-40659143D01*
X124071143Y-40730571D01*
X123714000Y-40730571D01*
X123571143Y-40659143D01*
X123499714Y-40587714D01*
X125642571Y-39230571D02*
X125356857Y-39230571D01*
X125214000Y-39302000D01*
X125142571Y-39373429D01*
X124999714Y-39587714D01*
X124928285Y-39873429D01*
X124928285Y-40444857D01*
X124999714Y-40587714D01*
X125071142Y-40659143D01*
X125214000Y-40730571D01*
X125499714Y-40730571D01*
X125642571Y-40659143D01*
X125714000Y-40587714D01*
X125785428Y-40444857D01*
X125785428Y-40087714D01*
X125714000Y-39944857D01*
X125642571Y-39873429D01*
X125499714Y-39802000D01*
X125214000Y-39802000D01*
X125071142Y-39873429D01*
X124999714Y-39944857D01*
X124928285Y-40087714D01*
X127571142Y-40730571D02*
X127571142Y-39730571D01*
X127571142Y-39873429D02*
X127642570Y-39802000D01*
X127785428Y-39730571D01*
X127999713Y-39730571D01*
X128142570Y-39802000D01*
X128213999Y-39944857D01*
X128213999Y-40730571D01*
X128213999Y-39944857D02*
X128285428Y-39802000D01*
X128428285Y-39730571D01*
X128642570Y-39730571D01*
X128785428Y-39802000D01*
X128856856Y-39944857D01*
X128856856Y-40730571D01*
X129571142Y-40730571D02*
X129571142Y-39730571D01*
X129571142Y-39873429D02*
X129642570Y-39802000D01*
X129785428Y-39730571D01*
X129999713Y-39730571D01*
X130142570Y-39802000D01*
X130213999Y-39944857D01*
X130213999Y-40730571D01*
X130213999Y-39944857D02*
X130285428Y-39802000D01*
X130428285Y-39730571D01*
X130642570Y-39730571D01*
X130785428Y-39802000D01*
X130856856Y-39944857D01*
X130856856Y-40730571D01*
X139192000Y-41402000D02*
X110236000Y-41402000D01*
X139192000Y-46736000D02*
X139192000Y-38702000D01*
X110236000Y-46736000D02*
X110236000Y-38702000D01*
X110236000Y-41402000D02*
X111362504Y-40815579D01*
X110236000Y-41402000D02*
X111362504Y-41988421D01*
X139192000Y-41402000D02*
X138065496Y-40815579D01*
X139192000Y-41402000D02*
X138065496Y-41988421D01*
D12*
X139192000Y-54610000D02*
X139192000Y-46990000D01*
M02*
