G04 #@! TF.FileFunction,Copper,L2,Bot,Signal*
%FSLAX46Y46*%
G04 Gerber Fmt 4.6, Leading zero omitted, Abs format (unit mm)*
G04 Created by KiCad (PCBNEW 4.0.2+dfsg1-stable) date mer 24 ott 2018 10:21:22 CEST*
%MOMM*%
G01*
G04 APERTURE LIST*
%ADD10C,0.100000*%
%ADD11R,1.727200X1.727200*%
%ADD12O,1.727200X1.727200*%
%ADD13R,2.032000X1.727200*%
%ADD14O,2.032000X1.727200*%
%ADD15R,2.032000X2.032000*%
%ADD16O,2.032000X2.032000*%
%ADD17C,3.500000*%
%ADD18C,1.905000*%
%ADD19C,2.300000*%
%ADD20C,0.710000*%
%ADD21C,1.500000*%
%ADD22C,0.220000*%
%ADD23C,0.600000*%
%ADD24C,0.254000*%
G04 APERTURE END LIST*
D10*
D11*
X115062000Y-55880000D03*
D12*
X115062000Y-53340000D03*
X117602000Y-55880000D03*
X117602000Y-53340000D03*
X120142000Y-55880000D03*
X120142000Y-53340000D03*
X122682000Y-55880000D03*
X122682000Y-53340000D03*
X125222000Y-55880000D03*
X125222000Y-53340000D03*
X127762000Y-55880000D03*
X127762000Y-53340000D03*
X130302000Y-55880000D03*
X130302000Y-53340000D03*
X132842000Y-55880000D03*
X132842000Y-53340000D03*
X135382000Y-55880000D03*
X135382000Y-53340000D03*
X137922000Y-55880000D03*
X137922000Y-53340000D03*
X140462000Y-55880000D03*
X140462000Y-53340000D03*
X143002000Y-55880000D03*
X143002000Y-53340000D03*
X145542000Y-55880000D03*
X145542000Y-53340000D03*
X148082000Y-55880000D03*
X148082000Y-53340000D03*
X150622000Y-55880000D03*
X150622000Y-53340000D03*
X153162000Y-55880000D03*
X153162000Y-53340000D03*
X155702000Y-55880000D03*
X155702000Y-53340000D03*
X158242000Y-55880000D03*
X158242000Y-53340000D03*
X160782000Y-55880000D03*
X160782000Y-53340000D03*
X163322000Y-55880000D03*
X163322000Y-53340000D03*
D13*
X168864280Y-67028060D03*
D14*
X168864280Y-69568060D03*
X168864280Y-72108060D03*
X168864280Y-74648060D03*
D15*
X135244840Y-78389480D03*
D16*
X135244840Y-80929480D03*
D17*
X132714000Y-97840000D03*
X127714000Y-97840000D03*
X122714000Y-97840000D03*
X117714000Y-97840000D03*
D18*
X152438100Y-74046720D03*
X152438100Y-69046720D03*
D19*
X168475660Y-63151960D03*
X168475660Y-59651960D03*
X110863380Y-95270440D03*
X110863380Y-98770440D03*
D20*
X122300886Y-89207226D03*
X127734060Y-74917300D03*
X150533100Y-70497700D03*
X129740660Y-70652640D03*
D21*
X149781260Y-62189360D03*
X159715200Y-59690000D03*
X159717740Y-62341760D03*
X165934244Y-78508253D03*
D20*
X151485601Y-81008221D03*
X131373880Y-67688460D03*
X155702000Y-97353120D03*
D21*
X165564820Y-98529140D03*
X165564820Y-95117920D03*
X161947860Y-102146100D03*
X154180540Y-83703160D03*
X162629610Y-76505406D03*
X163376530Y-70744228D03*
X157998160Y-82616040D03*
X153449020Y-80878680D03*
X109540040Y-54030880D03*
X150192896Y-93664929D03*
X156329380Y-101274880D03*
X158341060Y-89516510D03*
X153984960Y-89829640D03*
X146999960Y-100083620D03*
X116278660Y-101635560D03*
X153797000Y-97221040D03*
X157411420Y-98752660D03*
D20*
X158790640Y-95371920D03*
X158808420Y-92372180D03*
X158768131Y-91444667D03*
X159252920Y-96255000D03*
X167280145Y-78351380D03*
X129790487Y-75565005D03*
X159755840Y-78519020D03*
X159755840Y-76009500D03*
X139217400Y-82969100D03*
X147337780Y-76629260D03*
X147253960Y-80790538D03*
X132549900Y-86847680D03*
X143455050Y-83907290D03*
X146682460Y-79971900D03*
X166276020Y-69524880D03*
X171287440Y-64828420D03*
X139735901Y-63794299D03*
X148300440Y-69987620D03*
X137386368Y-61856357D03*
X140550900Y-65549780D03*
X139276769Y-62521377D03*
X154863800Y-64917320D03*
X136695180Y-57726580D03*
D22*
X122655885Y-88852227D02*
X122300886Y-89207226D01*
X127734060Y-74917300D02*
X127734060Y-83774052D01*
X127734060Y-83774052D02*
X122655885Y-88852227D01*
X129740660Y-70652640D02*
X150378160Y-70652640D01*
X150378160Y-70652640D02*
X150533100Y-70497700D01*
D23*
X149781260Y-62189360D02*
X159565340Y-62189360D01*
X159565340Y-62189360D02*
X159717740Y-62341760D01*
X159715200Y-59690000D02*
X159715200Y-62339220D01*
X159715200Y-62339220D02*
X159717740Y-62341760D01*
X163376530Y-66000550D02*
X159717740Y-62341760D01*
X160312040Y-62936060D02*
X159717740Y-62341760D01*
X163376530Y-70744228D02*
X163376530Y-66000550D01*
X165184245Y-77758254D02*
X165934244Y-78508253D01*
X162629610Y-76505406D02*
X163931397Y-76505406D01*
X163931397Y-76505406D02*
X165184245Y-77758254D01*
X120142000Y-53340000D02*
X120142000Y-52118686D01*
X120142000Y-52118686D02*
X120334287Y-51926399D01*
X120334287Y-51926399D02*
X128888399Y-51926399D01*
X128888399Y-51926399D02*
X129438401Y-52476401D01*
X129438401Y-52476401D02*
X130302000Y-53340000D01*
X131373880Y-67688460D02*
X131373880Y-62031880D01*
X131373880Y-62031880D02*
X125222000Y-55880000D01*
D22*
X155702000Y-97353120D02*
X164388800Y-97353120D01*
X164388800Y-97353120D02*
X165564820Y-98529140D01*
D23*
X153430541Y-82953161D02*
X154180540Y-83703160D01*
X151485601Y-74999219D02*
X151485601Y-81008221D01*
X152438100Y-74046720D02*
X151485601Y-74999219D01*
X151485601Y-81008221D02*
X153430541Y-82953161D01*
X161947860Y-102146100D02*
X165564820Y-98529140D01*
X165564820Y-98529140D02*
X165564820Y-95117920D01*
X162629610Y-76505406D02*
X161879611Y-77255405D01*
X161879611Y-77255405D02*
X155646785Y-77255405D01*
X155646785Y-77255405D02*
X153390599Y-74999219D01*
X153390599Y-74999219D02*
X152438100Y-74046720D01*
X163376530Y-75758486D02*
X162629610Y-76505406D01*
X163376530Y-70744228D02*
X163376530Y-75758486D01*
X153449020Y-80878680D02*
X156260800Y-80878680D01*
X156260800Y-80878680D02*
X157998160Y-82616040D01*
X109540040Y-54030880D02*
X109540040Y-55091540D01*
X109540040Y-55091540D02*
X109163379Y-55468201D01*
X109163379Y-55468201D02*
X109163379Y-97070439D01*
X109163379Y-97070439D02*
X109713381Y-97620441D01*
X109713381Y-97620441D02*
X110863380Y-98770440D01*
X150192896Y-94725589D02*
X150192896Y-93664929D01*
X150192896Y-96199056D02*
X150192896Y-94725589D01*
X155268720Y-101274880D02*
X150192896Y-96199056D01*
X156329380Y-101274880D02*
X155268720Y-101274880D01*
X150192896Y-93621704D02*
X150192896Y-93664929D01*
X146999960Y-96857865D02*
X149442897Y-94414928D01*
X153984960Y-89829640D02*
X150192896Y-93621704D01*
X149442897Y-94414928D02*
X150192896Y-93664929D01*
X146999960Y-100083620D02*
X146999960Y-96857865D01*
X153984960Y-89829640D02*
X158027930Y-89829640D01*
X158027930Y-89829640D02*
X158341060Y-89516510D01*
X116278660Y-101635560D02*
X145448020Y-101635560D01*
X145448020Y-101635560D02*
X146999960Y-100083620D01*
X157411420Y-98752660D02*
X155328620Y-98752660D01*
X155328620Y-98752660D02*
X153797000Y-97221040D01*
D22*
X158808420Y-92372180D02*
X158808420Y-95354140D01*
X158808420Y-95354140D02*
X158790640Y-95371920D01*
X159607919Y-91782410D02*
X159270176Y-91444667D01*
X159252920Y-96255000D02*
X159607919Y-95900001D01*
X159270176Y-91444667D02*
X158768131Y-91444667D01*
X159607919Y-95900001D02*
X159607919Y-91782410D01*
X166400430Y-79733140D02*
X167280145Y-78853425D01*
X167280145Y-78853425D02*
X167280145Y-78351380D01*
X160969960Y-79733140D02*
X166400430Y-79733140D01*
X159755840Y-78519020D02*
X160969960Y-79733140D01*
X129435488Y-75210006D02*
X129790487Y-75565005D01*
X156480559Y-72734219D02*
X132621273Y-72734219D01*
X159755840Y-76009500D02*
X156480559Y-72734219D01*
X125222000Y-53340000D02*
X123998399Y-54563601D01*
X132621273Y-72734219D02*
X130145486Y-75210006D01*
X123998399Y-69772917D02*
X129435488Y-75210006D01*
X130145486Y-75210006D02*
X129790487Y-75565005D01*
X123998399Y-54563601D02*
X123998399Y-69772917D01*
X147337780Y-76629260D02*
X140997940Y-82969100D01*
X140997940Y-82969100D02*
X139217400Y-82969100D01*
X132549900Y-86847680D02*
X141698863Y-86847680D01*
X141698863Y-86847680D02*
X147253960Y-81292583D01*
X147253960Y-81292583D02*
X147253960Y-80790538D01*
X143455050Y-83199310D02*
X143455050Y-83405245D01*
X143455050Y-83405245D02*
X143455050Y-83907290D01*
X146682460Y-79971900D02*
X143455050Y-83199310D01*
X167678100Y-64810640D02*
X166276020Y-66212720D01*
X166276020Y-66212720D02*
X166276020Y-69524880D01*
X170767615Y-64810640D02*
X167678100Y-64810640D01*
X171287440Y-64828420D02*
X170785395Y-64828420D01*
X170785395Y-64828420D02*
X170767615Y-64810640D01*
X135676299Y-63794299D02*
X139233856Y-63794299D01*
X127762000Y-55880000D02*
X135676299Y-63794299D01*
X139233856Y-63794299D02*
X139735901Y-63794299D01*
X147798395Y-69987620D02*
X148300440Y-69987620D01*
X144988740Y-69987620D02*
X147798395Y-69987620D01*
X140550900Y-65549780D02*
X144988740Y-69987620D01*
X136884323Y-61856357D02*
X137386368Y-61856357D01*
X129128399Y-54706399D02*
X130865329Y-54706399D01*
X127762000Y-53340000D02*
X129128399Y-54706399D01*
X131668399Y-56640433D02*
X136884323Y-61856357D01*
X131668399Y-55509469D02*
X131668399Y-56640433D01*
X130865329Y-54706399D02*
X131668399Y-55509469D01*
X136943377Y-62521377D02*
X130302000Y-55880000D01*
X139276769Y-62521377D02*
X136943377Y-62521377D01*
X136542732Y-58777662D02*
X136320098Y-58777662D01*
X134208399Y-56665963D02*
X134208399Y-54706399D01*
X133705599Y-54203599D02*
X132842000Y-53340000D01*
X142682390Y-64917320D02*
X136542732Y-58777662D01*
X134208399Y-54706399D02*
X133705599Y-54203599D01*
X154863800Y-64917320D02*
X142682390Y-64917320D01*
X136320098Y-58777662D02*
X134208399Y-56665963D01*
X135382000Y-53340000D02*
X136695180Y-54653180D01*
X136695180Y-54653180D02*
X136695180Y-57726580D01*
X160782000Y-55880000D02*
X168053960Y-63151960D01*
X168053960Y-63151960D02*
X168475660Y-63151960D01*
D24*
G36*
X171290000Y-63838422D02*
X171091381Y-63838249D01*
X170727383Y-63988650D01*
X170650258Y-64065640D01*
X170029036Y-64065640D01*
X170260349Y-63508576D01*
X170260969Y-62798459D01*
X169989792Y-62142160D01*
X169488101Y-61639593D01*
X168928589Y-61407264D01*
X169440059Y-61195406D01*
X169557079Y-60912985D01*
X168475660Y-59831565D01*
X167394241Y-60912985D01*
X167511261Y-61195406D01*
X168046169Y-61398049D01*
X167556122Y-61600533D01*
X165307212Y-59351623D01*
X166680642Y-59351623D01*
X166702346Y-60061408D01*
X166932214Y-60616359D01*
X167214635Y-60733379D01*
X168296055Y-59651960D01*
X168655265Y-59651960D01*
X169736685Y-60733379D01*
X170019106Y-60616359D01*
X170270678Y-59952297D01*
X170248974Y-59242512D01*
X170019106Y-58687561D01*
X169736685Y-58570541D01*
X168655265Y-59651960D01*
X168296055Y-59651960D01*
X167214635Y-58570541D01*
X166932214Y-58687561D01*
X166680642Y-59351623D01*
X165307212Y-59351623D01*
X164346524Y-58390935D01*
X167394241Y-58390935D01*
X168475660Y-59472355D01*
X169557079Y-58390935D01*
X169440059Y-58108514D01*
X168775997Y-57856942D01*
X168066212Y-57878646D01*
X167511261Y-58108514D01*
X167394241Y-58390935D01*
X164346524Y-58390935D01*
X163356655Y-57401066D01*
X163895489Y-57293885D01*
X164381670Y-56969029D01*
X164706526Y-56482848D01*
X164820600Y-55909359D01*
X164820600Y-55850641D01*
X164706526Y-55277152D01*
X164381670Y-54790971D01*
X164110828Y-54610000D01*
X164381670Y-54429029D01*
X164706526Y-53942848D01*
X164820600Y-53369359D01*
X164820600Y-53310641D01*
X164706526Y-52737152D01*
X164381670Y-52250971D01*
X163895489Y-51926115D01*
X163322000Y-51812041D01*
X162748511Y-51926115D01*
X162262330Y-52250971D01*
X162052000Y-52565752D01*
X161841670Y-52250971D01*
X161355489Y-51926115D01*
X160782000Y-51812041D01*
X160208511Y-51926115D01*
X159722330Y-52250971D01*
X159512000Y-52565752D01*
X159301670Y-52250971D01*
X158815489Y-51926115D01*
X158242000Y-51812041D01*
X157668511Y-51926115D01*
X157182330Y-52250971D01*
X156972000Y-52565752D01*
X156761670Y-52250971D01*
X156275489Y-51926115D01*
X155702000Y-51812041D01*
X155128511Y-51926115D01*
X154642330Y-52250971D01*
X154432000Y-52565752D01*
X154221670Y-52250971D01*
X153735489Y-51926115D01*
X153162000Y-51812041D01*
X152588511Y-51926115D01*
X152102330Y-52250971D01*
X151892000Y-52565752D01*
X151681670Y-52250971D01*
X151195489Y-51926115D01*
X150622000Y-51812041D01*
X150048511Y-51926115D01*
X149562330Y-52250971D01*
X149352000Y-52565752D01*
X149141670Y-52250971D01*
X148655489Y-51926115D01*
X148082000Y-51812041D01*
X147508511Y-51926115D01*
X147022330Y-52250971D01*
X146812000Y-52565752D01*
X146601670Y-52250971D01*
X146115489Y-51926115D01*
X145542000Y-51812041D01*
X144968511Y-51926115D01*
X144482330Y-52250971D01*
X144272000Y-52565752D01*
X144061670Y-52250971D01*
X143575489Y-51926115D01*
X143002000Y-51812041D01*
X142428511Y-51926115D01*
X141942330Y-52250971D01*
X141732000Y-52565752D01*
X141521670Y-52250971D01*
X141035489Y-51926115D01*
X140462000Y-51812041D01*
X139888511Y-51926115D01*
X139402330Y-52250971D01*
X139192000Y-52565752D01*
X138981670Y-52250971D01*
X138495489Y-51926115D01*
X137922000Y-51812041D01*
X137348511Y-51926115D01*
X136862330Y-52250971D01*
X136652000Y-52565752D01*
X136441670Y-52250971D01*
X135955489Y-51926115D01*
X135382000Y-51812041D01*
X134808511Y-51926115D01*
X134322330Y-52250971D01*
X134112000Y-52565752D01*
X133901670Y-52250971D01*
X133415489Y-51926115D01*
X132842000Y-51812041D01*
X132268511Y-51926115D01*
X131782330Y-52250971D01*
X131566336Y-52574228D01*
X131508821Y-52451510D01*
X131076947Y-52057312D01*
X130661026Y-51885042D01*
X130429000Y-52006183D01*
X130429000Y-53213000D01*
X130449000Y-53213000D01*
X130449000Y-53467000D01*
X130429000Y-53467000D01*
X130429000Y-53487000D01*
X130175000Y-53487000D01*
X130175000Y-53467000D01*
X130155000Y-53467000D01*
X130155000Y-53213000D01*
X130175000Y-53213000D01*
X130175000Y-52006183D01*
X129942974Y-51885042D01*
X129527053Y-52057312D01*
X129095179Y-52451510D01*
X129037664Y-52574228D01*
X128821670Y-52250971D01*
X128335489Y-51926115D01*
X127762000Y-51812041D01*
X127188511Y-51926115D01*
X126702330Y-52250971D01*
X126492000Y-52565752D01*
X126281670Y-52250971D01*
X125795489Y-51926115D01*
X125222000Y-51812041D01*
X124648511Y-51926115D01*
X124162330Y-52250971D01*
X123952000Y-52565752D01*
X123741670Y-52250971D01*
X123255489Y-51926115D01*
X122682000Y-51812041D01*
X122108511Y-51926115D01*
X121622330Y-52250971D01*
X121406336Y-52574228D01*
X121348821Y-52451510D01*
X120916947Y-52057312D01*
X120501026Y-51885042D01*
X120269000Y-52006183D01*
X120269000Y-53213000D01*
X120289000Y-53213000D01*
X120289000Y-53467000D01*
X120269000Y-53467000D01*
X120269000Y-53487000D01*
X120015000Y-53487000D01*
X120015000Y-53467000D01*
X119995000Y-53467000D01*
X119995000Y-53213000D01*
X120015000Y-53213000D01*
X120015000Y-52006183D01*
X119782974Y-51885042D01*
X119367053Y-52057312D01*
X118935179Y-52451510D01*
X118877664Y-52574228D01*
X118661670Y-52250971D01*
X118175489Y-51926115D01*
X117602000Y-51812041D01*
X117028511Y-51926115D01*
X116542330Y-52250971D01*
X116332000Y-52565752D01*
X116121670Y-52250971D01*
X115635489Y-51926115D01*
X115062000Y-51812041D01*
X114488511Y-51926115D01*
X114002330Y-52250971D01*
X113677474Y-52737152D01*
X113563400Y-53310641D01*
X113563400Y-53369359D01*
X113677474Y-53942848D01*
X113988574Y-54408442D01*
X113963083Y-54413238D01*
X113746959Y-54552310D01*
X113601969Y-54764510D01*
X113550960Y-55016400D01*
X113550960Y-56743600D01*
X113595238Y-56978917D01*
X113734310Y-57195041D01*
X113946510Y-57340031D01*
X114198400Y-57391040D01*
X115925600Y-57391040D01*
X116160917Y-57346762D01*
X116377041Y-57207690D01*
X116522031Y-56995490D01*
X116530864Y-56951869D01*
X116542330Y-56969029D01*
X117028511Y-57293885D01*
X117602000Y-57407959D01*
X118175489Y-57293885D01*
X118661670Y-56969029D01*
X118872000Y-56654248D01*
X119082330Y-56969029D01*
X119568511Y-57293885D01*
X120142000Y-57407959D01*
X120715489Y-57293885D01*
X121201670Y-56969029D01*
X121412000Y-56654248D01*
X121622330Y-56969029D01*
X122108511Y-57293885D01*
X122682000Y-57407959D01*
X123253399Y-57294301D01*
X123253399Y-69772912D01*
X123253398Y-69772917D01*
X123310109Y-70058016D01*
X123471604Y-70299712D01*
X127227371Y-74055479D01*
X127174003Y-74077530D01*
X126895268Y-74355778D01*
X126744232Y-74719513D01*
X126743889Y-75113359D01*
X126894290Y-75477357D01*
X126989060Y-75572293D01*
X126989060Y-83465462D01*
X122237352Y-88217170D01*
X122104827Y-88217055D01*
X121740829Y-88367456D01*
X121462094Y-88645704D01*
X121311058Y-89009439D01*
X121310715Y-89403285D01*
X121461116Y-89767283D01*
X121739364Y-90046018D01*
X122103099Y-90197054D01*
X122496945Y-90197397D01*
X122860943Y-90046996D01*
X123139678Y-89768748D01*
X123290714Y-89405013D01*
X123290831Y-89270871D01*
X125517963Y-87043739D01*
X131559729Y-87043739D01*
X131710130Y-87407737D01*
X131988378Y-87686472D01*
X132352113Y-87837508D01*
X132745959Y-87837851D01*
X133109957Y-87687450D01*
X133204893Y-87592680D01*
X141698858Y-87592680D01*
X141698863Y-87592681D01*
X141983962Y-87535970D01*
X142225658Y-87374475D01*
X147780752Y-81819380D01*
X147780755Y-81819378D01*
X147942250Y-81577682D01*
X147960960Y-81483622D01*
X148092752Y-81352060D01*
X148175423Y-81152965D01*
X152063780Y-81152965D01*
X152274189Y-81662195D01*
X152663456Y-82052141D01*
X153172318Y-82263439D01*
X153723305Y-82263920D01*
X154232535Y-82053511D01*
X154472784Y-81813680D01*
X155873510Y-81813680D01*
X156613214Y-82553384D01*
X156612920Y-82890325D01*
X156823329Y-83399555D01*
X157212596Y-83789501D01*
X157721458Y-84000799D01*
X158272445Y-84001280D01*
X158781675Y-83790871D01*
X159171621Y-83401604D01*
X159382919Y-82892742D01*
X159383400Y-82341755D01*
X159172991Y-81832525D01*
X158783724Y-81442579D01*
X158274862Y-81231281D01*
X157935395Y-81230985D01*
X156921945Y-80217535D01*
X156618609Y-80014853D01*
X156260800Y-79943680D01*
X154472630Y-79943680D01*
X154234584Y-79705219D01*
X153725722Y-79493921D01*
X153174735Y-79493440D01*
X152665505Y-79703849D01*
X152275559Y-80093116D01*
X152064261Y-80601978D01*
X152063780Y-81152965D01*
X148175423Y-81152965D01*
X148243788Y-80988325D01*
X148244131Y-80594479D01*
X148093730Y-80230481D01*
X147815482Y-79951746D01*
X147672530Y-79892387D01*
X147672631Y-79775841D01*
X147522230Y-79411843D01*
X147243982Y-79133108D01*
X146880247Y-78982072D01*
X146486401Y-78981729D01*
X146122403Y-79132130D01*
X145843668Y-79410378D01*
X145692632Y-79774113D01*
X145692515Y-79908255D01*
X142928255Y-82672515D01*
X142766760Y-82914211D01*
X142710049Y-83199310D01*
X142710050Y-83199315D01*
X142710050Y-83252140D01*
X142616258Y-83345768D01*
X142465222Y-83709503D01*
X142464879Y-84103349D01*
X142615280Y-84467347D01*
X142820264Y-84672690D01*
X141390273Y-86102680D01*
X133205050Y-86102680D01*
X133111422Y-86008888D01*
X132747687Y-85857852D01*
X132353841Y-85857509D01*
X131989843Y-86007910D01*
X131711108Y-86286158D01*
X131560072Y-86649893D01*
X131559729Y-87043739D01*
X125517963Y-87043739D01*
X128260855Y-84300847D01*
X128422350Y-84059151D01*
X128479061Y-83774052D01*
X128479060Y-83774047D01*
X128479060Y-83165159D01*
X138227229Y-83165159D01*
X138377630Y-83529157D01*
X138655878Y-83807892D01*
X139019613Y-83958928D01*
X139413459Y-83959271D01*
X139777457Y-83808870D01*
X139872393Y-83714100D01*
X140997935Y-83714100D01*
X140997940Y-83714101D01*
X141283039Y-83657390D01*
X141524735Y-83495895D01*
X146305550Y-78715079D01*
X158765669Y-78715079D01*
X158916070Y-79079077D01*
X159194318Y-79357812D01*
X159558053Y-79508848D01*
X159692195Y-79508965D01*
X160443165Y-80259935D01*
X160684861Y-80421430D01*
X160969960Y-80478141D01*
X160969965Y-80478140D01*
X166400425Y-80478140D01*
X166400430Y-80478141D01*
X166685529Y-80421430D01*
X166927225Y-80259935D01*
X167806937Y-79380222D01*
X167806940Y-79380220D01*
X167968435Y-79138524D01*
X167969707Y-79132130D01*
X167987145Y-79044464D01*
X168118937Y-78912902D01*
X168269973Y-78549167D01*
X168270316Y-78155321D01*
X168119915Y-77791323D01*
X167841667Y-77512588D01*
X167477932Y-77361552D01*
X167084086Y-77361209D01*
X166720088Y-77511610D01*
X166441353Y-77789858D01*
X166290317Y-78153593D01*
X166289974Y-78547439D01*
X166360896Y-78719084D01*
X166091840Y-78988140D01*
X161278550Y-78988140D01*
X160745896Y-78455486D01*
X160746011Y-78322961D01*
X160595610Y-77958963D01*
X160317362Y-77680228D01*
X159953627Y-77529192D01*
X159559781Y-77528849D01*
X159195783Y-77679250D01*
X158917048Y-77957498D01*
X158766012Y-78321233D01*
X158765669Y-78715079D01*
X146305550Y-78715079D01*
X147401313Y-77619316D01*
X147533839Y-77619431D01*
X147897837Y-77469030D01*
X148176572Y-77190782D01*
X148327608Y-76827047D01*
X148327951Y-76433201D01*
X148177550Y-76069203D01*
X147899302Y-75790468D01*
X147535567Y-75639432D01*
X147141721Y-75639089D01*
X146777723Y-75789490D01*
X146498988Y-76067738D01*
X146347952Y-76431473D01*
X146347835Y-76565616D01*
X140689350Y-82224100D01*
X139872550Y-82224100D01*
X139778922Y-82130308D01*
X139415187Y-81979272D01*
X139021341Y-81978929D01*
X138657343Y-82129330D01*
X138378608Y-82407578D01*
X138227572Y-82771313D01*
X138227229Y-83165159D01*
X128479060Y-83165159D01*
X128479060Y-80929480D01*
X133561495Y-80929480D01*
X133687170Y-81561290D01*
X134045062Y-82096913D01*
X134580685Y-82454805D01*
X135212495Y-82580480D01*
X135277185Y-82580480D01*
X135908995Y-82454805D01*
X136444618Y-82096913D01*
X136802510Y-81561290D01*
X136928185Y-80929480D01*
X136802510Y-80297670D01*
X136575341Y-79957688D01*
X136712281Y-79869570D01*
X136857271Y-79657370D01*
X136908280Y-79405480D01*
X136908280Y-77373480D01*
X136864002Y-77138163D01*
X136724930Y-76922039D01*
X136512730Y-76777049D01*
X136260840Y-76726040D01*
X134228840Y-76726040D01*
X133993523Y-76770318D01*
X133777399Y-76909390D01*
X133632409Y-77121590D01*
X133581400Y-77373480D01*
X133581400Y-79405480D01*
X133625678Y-79640797D01*
X133764750Y-79856921D01*
X133913677Y-79958678D01*
X133687170Y-80297670D01*
X133561495Y-80929480D01*
X128479060Y-80929480D01*
X128479060Y-75572450D01*
X128572852Y-75478822D01*
X128595697Y-75423805D01*
X128800431Y-75628539D01*
X128800316Y-75761064D01*
X128950717Y-76125062D01*
X129228965Y-76403797D01*
X129592700Y-76554833D01*
X129986546Y-76555176D01*
X130350544Y-76404775D01*
X130629279Y-76126527D01*
X130780315Y-75762792D01*
X130780432Y-75628650D01*
X131244202Y-75164879D01*
X151499546Y-75164879D01*
X151592388Y-75426808D01*
X152184901Y-75645395D01*
X152815961Y-75620598D01*
X153283812Y-75426808D01*
X153376654Y-75164879D01*
X152438100Y-74226325D01*
X151499546Y-75164879D01*
X131244202Y-75164879D01*
X132929862Y-73479219D01*
X150955376Y-73479219D01*
X150839425Y-73793521D01*
X150864222Y-74424581D01*
X151058012Y-74892432D01*
X151319941Y-74985274D01*
X152258495Y-74046720D01*
X152244353Y-74032578D01*
X152423958Y-73852973D01*
X152438100Y-73867115D01*
X152452243Y-73852973D01*
X152631848Y-74032578D01*
X152617705Y-74046720D01*
X153556259Y-74985274D01*
X153818188Y-74892432D01*
X154036775Y-74299919D01*
X154011978Y-73668859D01*
X153933427Y-73479219D01*
X156171969Y-73479219D01*
X158765784Y-76073034D01*
X158765669Y-76205559D01*
X158916070Y-76569557D01*
X159194318Y-76848292D01*
X159558053Y-76999328D01*
X159951899Y-76999671D01*
X160315897Y-76849270D01*
X160594632Y-76571022D01*
X160745668Y-76207287D01*
X160746011Y-75813441D01*
X160595610Y-75449443D01*
X160317362Y-75170708D01*
X159953627Y-75019672D01*
X159819484Y-75019555D01*
X159807016Y-75007086D01*
X167256922Y-75007086D01*
X167259571Y-75022851D01*
X167513548Y-75550096D01*
X167949960Y-75940014D01*
X168502367Y-76133244D01*
X168737280Y-75988984D01*
X168737280Y-74775060D01*
X168991280Y-74775060D01*
X168991280Y-75988984D01*
X169226193Y-76133244D01*
X169778600Y-75940014D01*
X170215012Y-75550096D01*
X170468989Y-75022851D01*
X170471638Y-75007086D01*
X170350497Y-74775060D01*
X168991280Y-74775060D01*
X168737280Y-74775060D01*
X167378063Y-74775060D01*
X167256922Y-75007086D01*
X159807016Y-75007086D01*
X157007354Y-72207424D01*
X156765658Y-72045929D01*
X156480559Y-71989218D01*
X156480554Y-71989219D01*
X132621278Y-71989219D01*
X132621273Y-71989218D01*
X132336174Y-72045929D01*
X132094478Y-72207424D01*
X132094476Y-72207427D01*
X129790487Y-74511415D01*
X124743399Y-69464327D01*
X124743399Y-57285431D01*
X124862974Y-57334958D01*
X125095000Y-57213817D01*
X125095000Y-56007000D01*
X125075000Y-56007000D01*
X125075000Y-55753000D01*
X125095000Y-55753000D01*
X125095000Y-55733000D01*
X125349000Y-55733000D01*
X125349000Y-55753000D01*
X125369000Y-55753000D01*
X125369000Y-56007000D01*
X125349000Y-56007000D01*
X125349000Y-57213817D01*
X125581026Y-57334958D01*
X125996947Y-57162688D01*
X126428821Y-56768490D01*
X126486336Y-56645772D01*
X126702330Y-56969029D01*
X127188511Y-57293885D01*
X127762000Y-57407959D01*
X128157666Y-57329256D01*
X135149504Y-64321094D01*
X135391200Y-64482589D01*
X135676299Y-64539300D01*
X135676304Y-64539299D01*
X139080751Y-64539299D01*
X139174379Y-64633091D01*
X139538114Y-64784127D01*
X139916266Y-64784456D01*
X139712108Y-64988258D01*
X139561072Y-65351993D01*
X139560729Y-65745839D01*
X139711130Y-66109837D01*
X139989378Y-66388572D01*
X140353113Y-66539608D01*
X140487255Y-66539725D01*
X143855171Y-69907640D01*
X130395810Y-69907640D01*
X130302182Y-69813848D01*
X129938447Y-69662812D01*
X129544601Y-69662469D01*
X129180603Y-69812870D01*
X128901868Y-70091118D01*
X128750832Y-70454853D01*
X128750489Y-70848699D01*
X128900890Y-71212697D01*
X129179138Y-71491432D01*
X129542873Y-71642468D01*
X129936719Y-71642811D01*
X130300717Y-71492410D01*
X130395653Y-71397640D01*
X150118839Y-71397640D01*
X150335313Y-71487528D01*
X150729159Y-71487871D01*
X151093157Y-71337470D01*
X151371892Y-71059222D01*
X151522928Y-70695487D01*
X151523205Y-70377253D01*
X151537679Y-70391752D01*
X152120941Y-70633944D01*
X152752488Y-70634495D01*
X153336172Y-70393322D01*
X153783132Y-69947141D01*
X154025324Y-69363879D01*
X154025875Y-68732332D01*
X153784702Y-68148648D01*
X153338521Y-67701688D01*
X152755259Y-67459496D01*
X152123712Y-67458945D01*
X151540028Y-67700118D01*
X151093068Y-68146299D01*
X150850876Y-68729561D01*
X150850325Y-69361108D01*
X150948262Y-69598134D01*
X150730887Y-69507872D01*
X150337041Y-69507529D01*
X149973043Y-69657930D01*
X149722896Y-69907640D01*
X149290510Y-69907640D01*
X149290611Y-69791561D01*
X149140210Y-69427563D01*
X148861962Y-69148828D01*
X148498227Y-68997792D01*
X148104381Y-68997449D01*
X147740383Y-69147850D01*
X147645447Y-69242620D01*
X145297329Y-69242620D01*
X141540956Y-65486246D01*
X141541071Y-65353721D01*
X141390670Y-64989723D01*
X141112422Y-64710988D01*
X140748687Y-64559952D01*
X140370535Y-64559623D01*
X140574693Y-64355821D01*
X140719227Y-64007746D01*
X142155593Y-65444112D01*
X142155595Y-65444115D01*
X142397291Y-65605610D01*
X142682390Y-65662321D01*
X142682395Y-65662320D01*
X154208650Y-65662320D01*
X154302278Y-65756112D01*
X154666013Y-65907148D01*
X155059859Y-65907491D01*
X155423857Y-65757090D01*
X155702592Y-65478842D01*
X155853628Y-65115107D01*
X155853971Y-64721261D01*
X155703570Y-64357263D01*
X155425322Y-64078528D01*
X155061587Y-63927492D01*
X154667741Y-63927149D01*
X154303743Y-64077550D01*
X154208807Y-64172320D01*
X142990979Y-64172320D01*
X137320180Y-58501520D01*
X137533972Y-58288102D01*
X137685008Y-57924367D01*
X137685351Y-57530521D01*
X137608983Y-57345696D01*
X137922000Y-57407959D01*
X138495489Y-57293885D01*
X138981670Y-56969029D01*
X139192000Y-56654248D01*
X139402330Y-56969029D01*
X139888511Y-57293885D01*
X140462000Y-57407959D01*
X141035489Y-57293885D01*
X141521670Y-56969029D01*
X141732000Y-56654248D01*
X141942330Y-56969029D01*
X142428511Y-57293885D01*
X143002000Y-57407959D01*
X143575489Y-57293885D01*
X144061670Y-56969029D01*
X144272000Y-56654248D01*
X144482330Y-56969029D01*
X144968511Y-57293885D01*
X145542000Y-57407959D01*
X146115489Y-57293885D01*
X146601670Y-56969029D01*
X146812000Y-56654248D01*
X147022330Y-56969029D01*
X147508511Y-57293885D01*
X148082000Y-57407959D01*
X148655489Y-57293885D01*
X149141670Y-56969029D01*
X149352000Y-56654248D01*
X149562330Y-56969029D01*
X150048511Y-57293885D01*
X150622000Y-57407959D01*
X151195489Y-57293885D01*
X151681670Y-56969029D01*
X151892000Y-56654248D01*
X152102330Y-56969029D01*
X152588511Y-57293885D01*
X153162000Y-57407959D01*
X153735489Y-57293885D01*
X154221670Y-56969029D01*
X154432000Y-56654248D01*
X154642330Y-56969029D01*
X155128511Y-57293885D01*
X155702000Y-57407959D01*
X156275489Y-57293885D01*
X156761670Y-56969029D01*
X156972000Y-56654248D01*
X157182330Y-56969029D01*
X157668511Y-57293885D01*
X158242000Y-57407959D01*
X158815489Y-57293885D01*
X159301670Y-56969029D01*
X159512000Y-56654248D01*
X159722330Y-56969029D01*
X160208511Y-57293885D01*
X160782000Y-57407959D01*
X161177666Y-57329256D01*
X166690930Y-62842519D01*
X166690351Y-63505461D01*
X166961528Y-64161760D01*
X167117323Y-64317828D01*
X165749225Y-65685925D01*
X165587730Y-65927621D01*
X165531019Y-66212720D01*
X165531020Y-66212725D01*
X165531020Y-68869730D01*
X165437228Y-68963358D01*
X165286192Y-69327093D01*
X165285849Y-69720939D01*
X165436250Y-70084937D01*
X165714498Y-70363672D01*
X166078233Y-70514708D01*
X166472079Y-70515051D01*
X166836077Y-70364650D01*
X167114812Y-70086402D01*
X167229230Y-69810854D01*
X167295009Y-70141549D01*
X167619865Y-70627730D01*
X167934646Y-70838060D01*
X167619865Y-71048390D01*
X167295009Y-71534571D01*
X167180935Y-72108060D01*
X167295009Y-72681549D01*
X167619865Y-73167730D01*
X167929349Y-73374521D01*
X167513548Y-73746024D01*
X167259571Y-74273269D01*
X167256922Y-74289034D01*
X167378063Y-74521060D01*
X168737280Y-74521060D01*
X168737280Y-74501060D01*
X168991280Y-74501060D01*
X168991280Y-74521060D01*
X170350497Y-74521060D01*
X170471638Y-74289034D01*
X170468989Y-74273269D01*
X170215012Y-73746024D01*
X169799211Y-73374521D01*
X170108695Y-73167730D01*
X170433551Y-72681549D01*
X170547625Y-72108060D01*
X170433551Y-71534571D01*
X170108695Y-71048390D01*
X169793914Y-70838060D01*
X170108695Y-70627730D01*
X170433551Y-70141549D01*
X170547625Y-69568060D01*
X170433551Y-68994571D01*
X170108695Y-68508390D01*
X170094367Y-68498817D01*
X170115597Y-68494822D01*
X170331721Y-68355750D01*
X170476711Y-68143550D01*
X170527720Y-67891660D01*
X170527720Y-66164460D01*
X170483442Y-65929143D01*
X170344370Y-65713019D01*
X170132170Y-65568029D01*
X170070991Y-65555640D01*
X170614541Y-65555640D01*
X170725918Y-65667212D01*
X171089653Y-65818248D01*
X171290000Y-65818422D01*
X171290000Y-107290000D01*
X107710000Y-107290000D01*
X107710000Y-104074619D01*
X108000613Y-104074619D01*
X108340155Y-104896372D01*
X108968321Y-105525636D01*
X109789481Y-105866611D01*
X110678619Y-105867387D01*
X111500372Y-105527845D01*
X112129636Y-104899679D01*
X112470611Y-104078519D01*
X112470614Y-104074619D01*
X165912613Y-104074619D01*
X166252155Y-104896372D01*
X166880321Y-105525636D01*
X167701481Y-105866611D01*
X168590619Y-105867387D01*
X169412372Y-105527845D01*
X170041636Y-104899679D01*
X170382611Y-104078519D01*
X170383387Y-103189381D01*
X170043845Y-102367628D01*
X169415679Y-101738364D01*
X168594519Y-101397389D01*
X167705381Y-101396613D01*
X166883628Y-101736155D01*
X166254364Y-102364321D01*
X165913389Y-103185481D01*
X165912613Y-104074619D01*
X112470614Y-104074619D01*
X112471387Y-103189381D01*
X112131845Y-102367628D01*
X111674861Y-101909845D01*
X114893420Y-101909845D01*
X115103829Y-102419075D01*
X115493096Y-102809021D01*
X116001958Y-103020319D01*
X116552945Y-103020800D01*
X117062175Y-102810391D01*
X117302424Y-102570560D01*
X145448020Y-102570560D01*
X145805829Y-102499387D01*
X146109165Y-102296705D01*
X146937304Y-101468566D01*
X147274245Y-101468860D01*
X147783475Y-101258451D01*
X148173421Y-100869184D01*
X148384719Y-100360322D01*
X148385200Y-99809335D01*
X148174791Y-99300105D01*
X147934960Y-99059856D01*
X147934960Y-97245155D01*
X149257896Y-95922219D01*
X149257896Y-96199056D01*
X149329069Y-96556865D01*
X149531751Y-96860201D01*
X154607575Y-101936025D01*
X154910911Y-102138707D01*
X155268720Y-102209880D01*
X155305770Y-102209880D01*
X155543816Y-102448341D01*
X156052678Y-102659639D01*
X156603665Y-102660120D01*
X157112895Y-102449711D01*
X157502841Y-102060444D01*
X157714139Y-101551582D01*
X157714620Y-101000595D01*
X157504211Y-100491365D01*
X157150895Y-100137433D01*
X157685705Y-100137900D01*
X158194935Y-99927491D01*
X158584881Y-99538224D01*
X158796179Y-99029362D01*
X158796660Y-98478375D01*
X158586251Y-97969145D01*
X158196984Y-97579199D01*
X157688122Y-97367901D01*
X157137135Y-97367420D01*
X156627905Y-97577829D01*
X156387656Y-97817660D01*
X155715910Y-97817660D01*
X155181946Y-97283696D01*
X155182240Y-96946755D01*
X154971831Y-96437525D01*
X154582564Y-96047579D01*
X154073702Y-95836281D01*
X153522715Y-95835800D01*
X153013485Y-96046209D01*
X152623539Y-96435476D01*
X152412241Y-96944338D01*
X152412109Y-97095979D01*
X151127896Y-95811766D01*
X151127896Y-94688539D01*
X151366357Y-94450493D01*
X151577655Y-93941631D01*
X151577989Y-93558901D01*
X153922304Y-91214586D01*
X154259245Y-91214880D01*
X154768475Y-91004471D01*
X155008724Y-90764640D01*
X157735319Y-90764640D01*
X157956181Y-90856350D01*
X157929339Y-90883145D01*
X157778303Y-91246880D01*
X157777960Y-91640726D01*
X157908751Y-91957265D01*
X157818592Y-92174393D01*
X157818249Y-92568239D01*
X157968650Y-92932237D01*
X158063420Y-93027173D01*
X158063420Y-94699021D01*
X157951848Y-94810398D01*
X157800812Y-95174133D01*
X157800469Y-95567979D01*
X157950870Y-95931977D01*
X158229118Y-96210712D01*
X158262946Y-96224759D01*
X158262749Y-96451059D01*
X158413150Y-96815057D01*
X158691398Y-97093792D01*
X159055133Y-97244828D01*
X159448979Y-97245171D01*
X159812977Y-97094770D01*
X160091712Y-96816522D01*
X160242748Y-96452787D01*
X160242912Y-96264866D01*
X160296209Y-96185100D01*
X160352919Y-95900001D01*
X160352919Y-91782415D01*
X160352920Y-91782410D01*
X160296209Y-91497311D01*
X160134714Y-91255615D01*
X160134711Y-91255613D01*
X159796971Y-90917872D01*
X159555275Y-90756377D01*
X159461215Y-90737667D01*
X159329653Y-90605875D01*
X159245284Y-90570842D01*
X159514521Y-90302074D01*
X159725819Y-89793212D01*
X159726300Y-89242225D01*
X159515891Y-88732995D01*
X159126624Y-88343049D01*
X158617762Y-88131751D01*
X158066775Y-88131270D01*
X157557545Y-88341679D01*
X157167599Y-88730946D01*
X157099627Y-88894640D01*
X155008570Y-88894640D01*
X154770524Y-88656179D01*
X154261662Y-88444881D01*
X153710675Y-88444400D01*
X153201445Y-88654809D01*
X152811499Y-89044076D01*
X152600201Y-89552938D01*
X152599905Y-89892405D01*
X150212365Y-92279945D01*
X149918611Y-92279689D01*
X149409381Y-92490098D01*
X149019435Y-92879365D01*
X148808137Y-93388227D01*
X148807841Y-93727694D01*
X146338815Y-96196720D01*
X146136133Y-96500056D01*
X146064960Y-96857865D01*
X146064960Y-99060010D01*
X145826499Y-99298056D01*
X145615201Y-99806918D01*
X145614905Y-100146385D01*
X145060730Y-100700560D01*
X117302270Y-100700560D01*
X117064224Y-100462099D01*
X116555362Y-100250801D01*
X116004375Y-100250320D01*
X115495145Y-100460729D01*
X115105199Y-100849996D01*
X114893901Y-101358858D01*
X114893420Y-101909845D01*
X111674861Y-101909845D01*
X111503679Y-101738364D01*
X110682519Y-101397389D01*
X109793381Y-101396613D01*
X108971628Y-101736155D01*
X108342364Y-102364321D01*
X108001389Y-103185481D01*
X108000613Y-104074619D01*
X107710000Y-104074619D01*
X107710000Y-54305165D01*
X108154800Y-54305165D01*
X108365209Y-54814395D01*
X108444355Y-54893679D01*
X108299552Y-55110392D01*
X108228379Y-55468201D01*
X108228379Y-97070439D01*
X108299552Y-97428248D01*
X108502234Y-97731584D01*
X109109728Y-98339078D01*
X109078691Y-98413824D01*
X109078071Y-99123941D01*
X109349248Y-99780240D01*
X109850939Y-100282807D01*
X110506764Y-100555129D01*
X111216881Y-100555749D01*
X111873180Y-100284572D01*
X112375747Y-99782881D01*
X112648069Y-99127056D01*
X112648689Y-98416939D01*
X112605464Y-98312325D01*
X115328587Y-98312325D01*
X115690916Y-99189229D01*
X116361242Y-99860726D01*
X117237513Y-100224585D01*
X118186325Y-100225413D01*
X119063229Y-99863084D01*
X119734726Y-99192758D01*
X120098585Y-98316487D01*
X120098588Y-98312325D01*
X120328587Y-98312325D01*
X120690916Y-99189229D01*
X121361242Y-99860726D01*
X122237513Y-100224585D01*
X123186325Y-100225413D01*
X124063229Y-99863084D01*
X124734726Y-99192758D01*
X125098585Y-98316487D01*
X125098588Y-98312325D01*
X125328587Y-98312325D01*
X125690916Y-99189229D01*
X126361242Y-99860726D01*
X127237513Y-100224585D01*
X128186325Y-100225413D01*
X129063229Y-99863084D01*
X129392358Y-99534528D01*
X131199077Y-99534528D01*
X131389364Y-99879271D01*
X132270591Y-100230956D01*
X133219323Y-100218641D01*
X134038636Y-99879271D01*
X134228923Y-99534528D01*
X132714000Y-98019605D01*
X131199077Y-99534528D01*
X129392358Y-99534528D01*
X129734726Y-99192758D01*
X130098585Y-98316487D01*
X130099387Y-97396591D01*
X130323044Y-97396591D01*
X130335359Y-98345323D01*
X130674729Y-99164636D01*
X131019472Y-99354923D01*
X132534395Y-97840000D01*
X132893605Y-97840000D01*
X134408528Y-99354923D01*
X134753271Y-99164636D01*
X135104956Y-98283409D01*
X135092641Y-97334677D01*
X134753271Y-96515364D01*
X134408528Y-96325077D01*
X132893605Y-97840000D01*
X132534395Y-97840000D01*
X131019472Y-96325077D01*
X130674729Y-96515364D01*
X130323044Y-97396591D01*
X130099387Y-97396591D01*
X130099413Y-97367675D01*
X129737084Y-96490771D01*
X129392388Y-96145472D01*
X131199077Y-96145472D01*
X132714000Y-97660395D01*
X134228923Y-96145472D01*
X134038636Y-95800729D01*
X133157409Y-95449044D01*
X132208677Y-95461359D01*
X131389364Y-95800729D01*
X131199077Y-96145472D01*
X129392388Y-96145472D01*
X129066758Y-95819274D01*
X128190487Y-95455415D01*
X127241675Y-95454587D01*
X126364771Y-95816916D01*
X125693274Y-96487242D01*
X125329415Y-97363513D01*
X125328587Y-98312325D01*
X125098588Y-98312325D01*
X125099413Y-97367675D01*
X124737084Y-96490771D01*
X124066758Y-95819274D01*
X123190487Y-95455415D01*
X122241675Y-95454587D01*
X121364771Y-95816916D01*
X120693274Y-96487242D01*
X120329415Y-97363513D01*
X120328587Y-98312325D01*
X120098588Y-98312325D01*
X120099413Y-97367675D01*
X119737084Y-96490771D01*
X119066758Y-95819274D01*
X118190487Y-95455415D01*
X117241675Y-95454587D01*
X116364771Y-95816916D01*
X115693274Y-96487242D01*
X115329415Y-97363513D01*
X115328587Y-98312325D01*
X112605464Y-98312325D01*
X112377512Y-97760640D01*
X111875821Y-97258073D01*
X111316309Y-97025744D01*
X111827779Y-96813886D01*
X111944799Y-96531465D01*
X110863380Y-95450045D01*
X110849238Y-95464188D01*
X110669632Y-95284582D01*
X110683775Y-95270440D01*
X111042985Y-95270440D01*
X112124405Y-96351859D01*
X112406826Y-96234839D01*
X112658398Y-95570777D01*
X112636694Y-94860992D01*
X112406826Y-94306041D01*
X112124405Y-94189021D01*
X111042985Y-95270440D01*
X110683775Y-95270440D01*
X110669632Y-95256298D01*
X110849238Y-95076692D01*
X110863380Y-95090835D01*
X111944799Y-94009415D01*
X111827779Y-93726994D01*
X111163717Y-93475422D01*
X110453932Y-93497126D01*
X110098379Y-93644401D01*
X110098379Y-55855491D01*
X110201185Y-55752685D01*
X110403867Y-55449349D01*
X110475040Y-55091540D01*
X110475040Y-55054490D01*
X110713501Y-54816444D01*
X110924799Y-54307582D01*
X110925280Y-53756595D01*
X110714871Y-53247365D01*
X110325604Y-52857419D01*
X109816742Y-52646121D01*
X109265755Y-52645640D01*
X108756525Y-52856049D01*
X108366579Y-53245316D01*
X108155281Y-53754178D01*
X108154800Y-54305165D01*
X107710000Y-54305165D01*
X107710000Y-50710000D01*
X171290000Y-50710000D01*
X171290000Y-63838422D01*
X171290000Y-63838422D01*
G37*
X171290000Y-63838422D02*
X171091381Y-63838249D01*
X170727383Y-63988650D01*
X170650258Y-64065640D01*
X170029036Y-64065640D01*
X170260349Y-63508576D01*
X170260969Y-62798459D01*
X169989792Y-62142160D01*
X169488101Y-61639593D01*
X168928589Y-61407264D01*
X169440059Y-61195406D01*
X169557079Y-60912985D01*
X168475660Y-59831565D01*
X167394241Y-60912985D01*
X167511261Y-61195406D01*
X168046169Y-61398049D01*
X167556122Y-61600533D01*
X165307212Y-59351623D01*
X166680642Y-59351623D01*
X166702346Y-60061408D01*
X166932214Y-60616359D01*
X167214635Y-60733379D01*
X168296055Y-59651960D01*
X168655265Y-59651960D01*
X169736685Y-60733379D01*
X170019106Y-60616359D01*
X170270678Y-59952297D01*
X170248974Y-59242512D01*
X170019106Y-58687561D01*
X169736685Y-58570541D01*
X168655265Y-59651960D01*
X168296055Y-59651960D01*
X167214635Y-58570541D01*
X166932214Y-58687561D01*
X166680642Y-59351623D01*
X165307212Y-59351623D01*
X164346524Y-58390935D01*
X167394241Y-58390935D01*
X168475660Y-59472355D01*
X169557079Y-58390935D01*
X169440059Y-58108514D01*
X168775997Y-57856942D01*
X168066212Y-57878646D01*
X167511261Y-58108514D01*
X167394241Y-58390935D01*
X164346524Y-58390935D01*
X163356655Y-57401066D01*
X163895489Y-57293885D01*
X164381670Y-56969029D01*
X164706526Y-56482848D01*
X164820600Y-55909359D01*
X164820600Y-55850641D01*
X164706526Y-55277152D01*
X164381670Y-54790971D01*
X164110828Y-54610000D01*
X164381670Y-54429029D01*
X164706526Y-53942848D01*
X164820600Y-53369359D01*
X164820600Y-53310641D01*
X164706526Y-52737152D01*
X164381670Y-52250971D01*
X163895489Y-51926115D01*
X163322000Y-51812041D01*
X162748511Y-51926115D01*
X162262330Y-52250971D01*
X162052000Y-52565752D01*
X161841670Y-52250971D01*
X161355489Y-51926115D01*
X160782000Y-51812041D01*
X160208511Y-51926115D01*
X159722330Y-52250971D01*
X159512000Y-52565752D01*
X159301670Y-52250971D01*
X158815489Y-51926115D01*
X158242000Y-51812041D01*
X157668511Y-51926115D01*
X157182330Y-52250971D01*
X156972000Y-52565752D01*
X156761670Y-52250971D01*
X156275489Y-51926115D01*
X155702000Y-51812041D01*
X155128511Y-51926115D01*
X154642330Y-52250971D01*
X154432000Y-52565752D01*
X154221670Y-52250971D01*
X153735489Y-51926115D01*
X153162000Y-51812041D01*
X152588511Y-51926115D01*
X152102330Y-52250971D01*
X151892000Y-52565752D01*
X151681670Y-52250971D01*
X151195489Y-51926115D01*
X150622000Y-51812041D01*
X150048511Y-51926115D01*
X149562330Y-52250971D01*
X149352000Y-52565752D01*
X149141670Y-52250971D01*
X148655489Y-51926115D01*
X148082000Y-51812041D01*
X147508511Y-51926115D01*
X147022330Y-52250971D01*
X146812000Y-52565752D01*
X146601670Y-52250971D01*
X146115489Y-51926115D01*
X145542000Y-51812041D01*
X144968511Y-51926115D01*
X144482330Y-52250971D01*
X144272000Y-52565752D01*
X144061670Y-52250971D01*
X143575489Y-51926115D01*
X143002000Y-51812041D01*
X142428511Y-51926115D01*
X141942330Y-52250971D01*
X141732000Y-52565752D01*
X141521670Y-52250971D01*
X141035489Y-51926115D01*
X140462000Y-51812041D01*
X139888511Y-51926115D01*
X139402330Y-52250971D01*
X139192000Y-52565752D01*
X138981670Y-52250971D01*
X138495489Y-51926115D01*
X137922000Y-51812041D01*
X137348511Y-51926115D01*
X136862330Y-52250971D01*
X136652000Y-52565752D01*
X136441670Y-52250971D01*
X135955489Y-51926115D01*
X135382000Y-51812041D01*
X134808511Y-51926115D01*
X134322330Y-52250971D01*
X134112000Y-52565752D01*
X133901670Y-52250971D01*
X133415489Y-51926115D01*
X132842000Y-51812041D01*
X132268511Y-51926115D01*
X131782330Y-52250971D01*
X131566336Y-52574228D01*
X131508821Y-52451510D01*
X131076947Y-52057312D01*
X130661026Y-51885042D01*
X130429000Y-52006183D01*
X130429000Y-53213000D01*
X130449000Y-53213000D01*
X130449000Y-53467000D01*
X130429000Y-53467000D01*
X130429000Y-53487000D01*
X130175000Y-53487000D01*
X130175000Y-53467000D01*
X130155000Y-53467000D01*
X130155000Y-53213000D01*
X130175000Y-53213000D01*
X130175000Y-52006183D01*
X129942974Y-51885042D01*
X129527053Y-52057312D01*
X129095179Y-52451510D01*
X129037664Y-52574228D01*
X128821670Y-52250971D01*
X128335489Y-51926115D01*
X127762000Y-51812041D01*
X127188511Y-51926115D01*
X126702330Y-52250971D01*
X126492000Y-52565752D01*
X126281670Y-52250971D01*
X125795489Y-51926115D01*
X125222000Y-51812041D01*
X124648511Y-51926115D01*
X124162330Y-52250971D01*
X123952000Y-52565752D01*
X123741670Y-52250971D01*
X123255489Y-51926115D01*
X122682000Y-51812041D01*
X122108511Y-51926115D01*
X121622330Y-52250971D01*
X121406336Y-52574228D01*
X121348821Y-52451510D01*
X120916947Y-52057312D01*
X120501026Y-51885042D01*
X120269000Y-52006183D01*
X120269000Y-53213000D01*
X120289000Y-53213000D01*
X120289000Y-53467000D01*
X120269000Y-53467000D01*
X120269000Y-53487000D01*
X120015000Y-53487000D01*
X120015000Y-53467000D01*
X119995000Y-53467000D01*
X119995000Y-53213000D01*
X120015000Y-53213000D01*
X120015000Y-52006183D01*
X119782974Y-51885042D01*
X119367053Y-52057312D01*
X118935179Y-52451510D01*
X118877664Y-52574228D01*
X118661670Y-52250971D01*
X118175489Y-51926115D01*
X117602000Y-51812041D01*
X117028511Y-51926115D01*
X116542330Y-52250971D01*
X116332000Y-52565752D01*
X116121670Y-52250971D01*
X115635489Y-51926115D01*
X115062000Y-51812041D01*
X114488511Y-51926115D01*
X114002330Y-52250971D01*
X113677474Y-52737152D01*
X113563400Y-53310641D01*
X113563400Y-53369359D01*
X113677474Y-53942848D01*
X113988574Y-54408442D01*
X113963083Y-54413238D01*
X113746959Y-54552310D01*
X113601969Y-54764510D01*
X113550960Y-55016400D01*
X113550960Y-56743600D01*
X113595238Y-56978917D01*
X113734310Y-57195041D01*
X113946510Y-57340031D01*
X114198400Y-57391040D01*
X115925600Y-57391040D01*
X116160917Y-57346762D01*
X116377041Y-57207690D01*
X116522031Y-56995490D01*
X116530864Y-56951869D01*
X116542330Y-56969029D01*
X117028511Y-57293885D01*
X117602000Y-57407959D01*
X118175489Y-57293885D01*
X118661670Y-56969029D01*
X118872000Y-56654248D01*
X119082330Y-56969029D01*
X119568511Y-57293885D01*
X120142000Y-57407959D01*
X120715489Y-57293885D01*
X121201670Y-56969029D01*
X121412000Y-56654248D01*
X121622330Y-56969029D01*
X122108511Y-57293885D01*
X122682000Y-57407959D01*
X123253399Y-57294301D01*
X123253399Y-69772912D01*
X123253398Y-69772917D01*
X123310109Y-70058016D01*
X123471604Y-70299712D01*
X127227371Y-74055479D01*
X127174003Y-74077530D01*
X126895268Y-74355778D01*
X126744232Y-74719513D01*
X126743889Y-75113359D01*
X126894290Y-75477357D01*
X126989060Y-75572293D01*
X126989060Y-83465462D01*
X122237352Y-88217170D01*
X122104827Y-88217055D01*
X121740829Y-88367456D01*
X121462094Y-88645704D01*
X121311058Y-89009439D01*
X121310715Y-89403285D01*
X121461116Y-89767283D01*
X121739364Y-90046018D01*
X122103099Y-90197054D01*
X122496945Y-90197397D01*
X122860943Y-90046996D01*
X123139678Y-89768748D01*
X123290714Y-89405013D01*
X123290831Y-89270871D01*
X125517963Y-87043739D01*
X131559729Y-87043739D01*
X131710130Y-87407737D01*
X131988378Y-87686472D01*
X132352113Y-87837508D01*
X132745959Y-87837851D01*
X133109957Y-87687450D01*
X133204893Y-87592680D01*
X141698858Y-87592680D01*
X141698863Y-87592681D01*
X141983962Y-87535970D01*
X142225658Y-87374475D01*
X147780752Y-81819380D01*
X147780755Y-81819378D01*
X147942250Y-81577682D01*
X147960960Y-81483622D01*
X148092752Y-81352060D01*
X148175423Y-81152965D01*
X152063780Y-81152965D01*
X152274189Y-81662195D01*
X152663456Y-82052141D01*
X153172318Y-82263439D01*
X153723305Y-82263920D01*
X154232535Y-82053511D01*
X154472784Y-81813680D01*
X155873510Y-81813680D01*
X156613214Y-82553384D01*
X156612920Y-82890325D01*
X156823329Y-83399555D01*
X157212596Y-83789501D01*
X157721458Y-84000799D01*
X158272445Y-84001280D01*
X158781675Y-83790871D01*
X159171621Y-83401604D01*
X159382919Y-82892742D01*
X159383400Y-82341755D01*
X159172991Y-81832525D01*
X158783724Y-81442579D01*
X158274862Y-81231281D01*
X157935395Y-81230985D01*
X156921945Y-80217535D01*
X156618609Y-80014853D01*
X156260800Y-79943680D01*
X154472630Y-79943680D01*
X154234584Y-79705219D01*
X153725722Y-79493921D01*
X153174735Y-79493440D01*
X152665505Y-79703849D01*
X152275559Y-80093116D01*
X152064261Y-80601978D01*
X152063780Y-81152965D01*
X148175423Y-81152965D01*
X148243788Y-80988325D01*
X148244131Y-80594479D01*
X148093730Y-80230481D01*
X147815482Y-79951746D01*
X147672530Y-79892387D01*
X147672631Y-79775841D01*
X147522230Y-79411843D01*
X147243982Y-79133108D01*
X146880247Y-78982072D01*
X146486401Y-78981729D01*
X146122403Y-79132130D01*
X145843668Y-79410378D01*
X145692632Y-79774113D01*
X145692515Y-79908255D01*
X142928255Y-82672515D01*
X142766760Y-82914211D01*
X142710049Y-83199310D01*
X142710050Y-83199315D01*
X142710050Y-83252140D01*
X142616258Y-83345768D01*
X142465222Y-83709503D01*
X142464879Y-84103349D01*
X142615280Y-84467347D01*
X142820264Y-84672690D01*
X141390273Y-86102680D01*
X133205050Y-86102680D01*
X133111422Y-86008888D01*
X132747687Y-85857852D01*
X132353841Y-85857509D01*
X131989843Y-86007910D01*
X131711108Y-86286158D01*
X131560072Y-86649893D01*
X131559729Y-87043739D01*
X125517963Y-87043739D01*
X128260855Y-84300847D01*
X128422350Y-84059151D01*
X128479061Y-83774052D01*
X128479060Y-83774047D01*
X128479060Y-83165159D01*
X138227229Y-83165159D01*
X138377630Y-83529157D01*
X138655878Y-83807892D01*
X139019613Y-83958928D01*
X139413459Y-83959271D01*
X139777457Y-83808870D01*
X139872393Y-83714100D01*
X140997935Y-83714100D01*
X140997940Y-83714101D01*
X141283039Y-83657390D01*
X141524735Y-83495895D01*
X146305550Y-78715079D01*
X158765669Y-78715079D01*
X158916070Y-79079077D01*
X159194318Y-79357812D01*
X159558053Y-79508848D01*
X159692195Y-79508965D01*
X160443165Y-80259935D01*
X160684861Y-80421430D01*
X160969960Y-80478141D01*
X160969965Y-80478140D01*
X166400425Y-80478140D01*
X166400430Y-80478141D01*
X166685529Y-80421430D01*
X166927225Y-80259935D01*
X167806937Y-79380222D01*
X167806940Y-79380220D01*
X167968435Y-79138524D01*
X167969707Y-79132130D01*
X167987145Y-79044464D01*
X168118937Y-78912902D01*
X168269973Y-78549167D01*
X168270316Y-78155321D01*
X168119915Y-77791323D01*
X167841667Y-77512588D01*
X167477932Y-77361552D01*
X167084086Y-77361209D01*
X166720088Y-77511610D01*
X166441353Y-77789858D01*
X166290317Y-78153593D01*
X166289974Y-78547439D01*
X166360896Y-78719084D01*
X166091840Y-78988140D01*
X161278550Y-78988140D01*
X160745896Y-78455486D01*
X160746011Y-78322961D01*
X160595610Y-77958963D01*
X160317362Y-77680228D01*
X159953627Y-77529192D01*
X159559781Y-77528849D01*
X159195783Y-77679250D01*
X158917048Y-77957498D01*
X158766012Y-78321233D01*
X158765669Y-78715079D01*
X146305550Y-78715079D01*
X147401313Y-77619316D01*
X147533839Y-77619431D01*
X147897837Y-77469030D01*
X148176572Y-77190782D01*
X148327608Y-76827047D01*
X148327951Y-76433201D01*
X148177550Y-76069203D01*
X147899302Y-75790468D01*
X147535567Y-75639432D01*
X147141721Y-75639089D01*
X146777723Y-75789490D01*
X146498988Y-76067738D01*
X146347952Y-76431473D01*
X146347835Y-76565616D01*
X140689350Y-82224100D01*
X139872550Y-82224100D01*
X139778922Y-82130308D01*
X139415187Y-81979272D01*
X139021341Y-81978929D01*
X138657343Y-82129330D01*
X138378608Y-82407578D01*
X138227572Y-82771313D01*
X138227229Y-83165159D01*
X128479060Y-83165159D01*
X128479060Y-80929480D01*
X133561495Y-80929480D01*
X133687170Y-81561290D01*
X134045062Y-82096913D01*
X134580685Y-82454805D01*
X135212495Y-82580480D01*
X135277185Y-82580480D01*
X135908995Y-82454805D01*
X136444618Y-82096913D01*
X136802510Y-81561290D01*
X136928185Y-80929480D01*
X136802510Y-80297670D01*
X136575341Y-79957688D01*
X136712281Y-79869570D01*
X136857271Y-79657370D01*
X136908280Y-79405480D01*
X136908280Y-77373480D01*
X136864002Y-77138163D01*
X136724930Y-76922039D01*
X136512730Y-76777049D01*
X136260840Y-76726040D01*
X134228840Y-76726040D01*
X133993523Y-76770318D01*
X133777399Y-76909390D01*
X133632409Y-77121590D01*
X133581400Y-77373480D01*
X133581400Y-79405480D01*
X133625678Y-79640797D01*
X133764750Y-79856921D01*
X133913677Y-79958678D01*
X133687170Y-80297670D01*
X133561495Y-80929480D01*
X128479060Y-80929480D01*
X128479060Y-75572450D01*
X128572852Y-75478822D01*
X128595697Y-75423805D01*
X128800431Y-75628539D01*
X128800316Y-75761064D01*
X128950717Y-76125062D01*
X129228965Y-76403797D01*
X129592700Y-76554833D01*
X129986546Y-76555176D01*
X130350544Y-76404775D01*
X130629279Y-76126527D01*
X130780315Y-75762792D01*
X130780432Y-75628650D01*
X131244202Y-75164879D01*
X151499546Y-75164879D01*
X151592388Y-75426808D01*
X152184901Y-75645395D01*
X152815961Y-75620598D01*
X153283812Y-75426808D01*
X153376654Y-75164879D01*
X152438100Y-74226325D01*
X151499546Y-75164879D01*
X131244202Y-75164879D01*
X132929862Y-73479219D01*
X150955376Y-73479219D01*
X150839425Y-73793521D01*
X150864222Y-74424581D01*
X151058012Y-74892432D01*
X151319941Y-74985274D01*
X152258495Y-74046720D01*
X152244353Y-74032578D01*
X152423958Y-73852973D01*
X152438100Y-73867115D01*
X152452243Y-73852973D01*
X152631848Y-74032578D01*
X152617705Y-74046720D01*
X153556259Y-74985274D01*
X153818188Y-74892432D01*
X154036775Y-74299919D01*
X154011978Y-73668859D01*
X153933427Y-73479219D01*
X156171969Y-73479219D01*
X158765784Y-76073034D01*
X158765669Y-76205559D01*
X158916070Y-76569557D01*
X159194318Y-76848292D01*
X159558053Y-76999328D01*
X159951899Y-76999671D01*
X160315897Y-76849270D01*
X160594632Y-76571022D01*
X160745668Y-76207287D01*
X160746011Y-75813441D01*
X160595610Y-75449443D01*
X160317362Y-75170708D01*
X159953627Y-75019672D01*
X159819484Y-75019555D01*
X159807016Y-75007086D01*
X167256922Y-75007086D01*
X167259571Y-75022851D01*
X167513548Y-75550096D01*
X167949960Y-75940014D01*
X168502367Y-76133244D01*
X168737280Y-75988984D01*
X168737280Y-74775060D01*
X168991280Y-74775060D01*
X168991280Y-75988984D01*
X169226193Y-76133244D01*
X169778600Y-75940014D01*
X170215012Y-75550096D01*
X170468989Y-75022851D01*
X170471638Y-75007086D01*
X170350497Y-74775060D01*
X168991280Y-74775060D01*
X168737280Y-74775060D01*
X167378063Y-74775060D01*
X167256922Y-75007086D01*
X159807016Y-75007086D01*
X157007354Y-72207424D01*
X156765658Y-72045929D01*
X156480559Y-71989218D01*
X156480554Y-71989219D01*
X132621278Y-71989219D01*
X132621273Y-71989218D01*
X132336174Y-72045929D01*
X132094478Y-72207424D01*
X132094476Y-72207427D01*
X129790487Y-74511415D01*
X124743399Y-69464327D01*
X124743399Y-57285431D01*
X124862974Y-57334958D01*
X125095000Y-57213817D01*
X125095000Y-56007000D01*
X125075000Y-56007000D01*
X125075000Y-55753000D01*
X125095000Y-55753000D01*
X125095000Y-55733000D01*
X125349000Y-55733000D01*
X125349000Y-55753000D01*
X125369000Y-55753000D01*
X125369000Y-56007000D01*
X125349000Y-56007000D01*
X125349000Y-57213817D01*
X125581026Y-57334958D01*
X125996947Y-57162688D01*
X126428821Y-56768490D01*
X126486336Y-56645772D01*
X126702330Y-56969029D01*
X127188511Y-57293885D01*
X127762000Y-57407959D01*
X128157666Y-57329256D01*
X135149504Y-64321094D01*
X135391200Y-64482589D01*
X135676299Y-64539300D01*
X135676304Y-64539299D01*
X139080751Y-64539299D01*
X139174379Y-64633091D01*
X139538114Y-64784127D01*
X139916266Y-64784456D01*
X139712108Y-64988258D01*
X139561072Y-65351993D01*
X139560729Y-65745839D01*
X139711130Y-66109837D01*
X139989378Y-66388572D01*
X140353113Y-66539608D01*
X140487255Y-66539725D01*
X143855171Y-69907640D01*
X130395810Y-69907640D01*
X130302182Y-69813848D01*
X129938447Y-69662812D01*
X129544601Y-69662469D01*
X129180603Y-69812870D01*
X128901868Y-70091118D01*
X128750832Y-70454853D01*
X128750489Y-70848699D01*
X128900890Y-71212697D01*
X129179138Y-71491432D01*
X129542873Y-71642468D01*
X129936719Y-71642811D01*
X130300717Y-71492410D01*
X130395653Y-71397640D01*
X150118839Y-71397640D01*
X150335313Y-71487528D01*
X150729159Y-71487871D01*
X151093157Y-71337470D01*
X151371892Y-71059222D01*
X151522928Y-70695487D01*
X151523205Y-70377253D01*
X151537679Y-70391752D01*
X152120941Y-70633944D01*
X152752488Y-70634495D01*
X153336172Y-70393322D01*
X153783132Y-69947141D01*
X154025324Y-69363879D01*
X154025875Y-68732332D01*
X153784702Y-68148648D01*
X153338521Y-67701688D01*
X152755259Y-67459496D01*
X152123712Y-67458945D01*
X151540028Y-67700118D01*
X151093068Y-68146299D01*
X150850876Y-68729561D01*
X150850325Y-69361108D01*
X150948262Y-69598134D01*
X150730887Y-69507872D01*
X150337041Y-69507529D01*
X149973043Y-69657930D01*
X149722896Y-69907640D01*
X149290510Y-69907640D01*
X149290611Y-69791561D01*
X149140210Y-69427563D01*
X148861962Y-69148828D01*
X148498227Y-68997792D01*
X148104381Y-68997449D01*
X147740383Y-69147850D01*
X147645447Y-69242620D01*
X145297329Y-69242620D01*
X141540956Y-65486246D01*
X141541071Y-65353721D01*
X141390670Y-64989723D01*
X141112422Y-64710988D01*
X140748687Y-64559952D01*
X140370535Y-64559623D01*
X140574693Y-64355821D01*
X140719227Y-64007746D01*
X142155593Y-65444112D01*
X142155595Y-65444115D01*
X142397291Y-65605610D01*
X142682390Y-65662321D01*
X142682395Y-65662320D01*
X154208650Y-65662320D01*
X154302278Y-65756112D01*
X154666013Y-65907148D01*
X155059859Y-65907491D01*
X155423857Y-65757090D01*
X155702592Y-65478842D01*
X155853628Y-65115107D01*
X155853971Y-64721261D01*
X155703570Y-64357263D01*
X155425322Y-64078528D01*
X155061587Y-63927492D01*
X154667741Y-63927149D01*
X154303743Y-64077550D01*
X154208807Y-64172320D01*
X142990979Y-64172320D01*
X137320180Y-58501520D01*
X137533972Y-58288102D01*
X137685008Y-57924367D01*
X137685351Y-57530521D01*
X137608983Y-57345696D01*
X137922000Y-57407959D01*
X138495489Y-57293885D01*
X138981670Y-56969029D01*
X139192000Y-56654248D01*
X139402330Y-56969029D01*
X139888511Y-57293885D01*
X140462000Y-57407959D01*
X141035489Y-57293885D01*
X141521670Y-56969029D01*
X141732000Y-56654248D01*
X141942330Y-56969029D01*
X142428511Y-57293885D01*
X143002000Y-57407959D01*
X143575489Y-57293885D01*
X144061670Y-56969029D01*
X144272000Y-56654248D01*
X144482330Y-56969029D01*
X144968511Y-57293885D01*
X145542000Y-57407959D01*
X146115489Y-57293885D01*
X146601670Y-56969029D01*
X146812000Y-56654248D01*
X147022330Y-56969029D01*
X147508511Y-57293885D01*
X148082000Y-57407959D01*
X148655489Y-57293885D01*
X149141670Y-56969029D01*
X149352000Y-56654248D01*
X149562330Y-56969029D01*
X150048511Y-57293885D01*
X150622000Y-57407959D01*
X151195489Y-57293885D01*
X151681670Y-56969029D01*
X151892000Y-56654248D01*
X152102330Y-56969029D01*
X152588511Y-57293885D01*
X153162000Y-57407959D01*
X153735489Y-57293885D01*
X154221670Y-56969029D01*
X154432000Y-56654248D01*
X154642330Y-56969029D01*
X155128511Y-57293885D01*
X155702000Y-57407959D01*
X156275489Y-57293885D01*
X156761670Y-56969029D01*
X156972000Y-56654248D01*
X157182330Y-56969029D01*
X157668511Y-57293885D01*
X158242000Y-57407959D01*
X158815489Y-57293885D01*
X159301670Y-56969029D01*
X159512000Y-56654248D01*
X159722330Y-56969029D01*
X160208511Y-57293885D01*
X160782000Y-57407959D01*
X161177666Y-57329256D01*
X166690930Y-62842519D01*
X166690351Y-63505461D01*
X166961528Y-64161760D01*
X167117323Y-64317828D01*
X165749225Y-65685925D01*
X165587730Y-65927621D01*
X165531019Y-66212720D01*
X165531020Y-66212725D01*
X165531020Y-68869730D01*
X165437228Y-68963358D01*
X165286192Y-69327093D01*
X165285849Y-69720939D01*
X165436250Y-70084937D01*
X165714498Y-70363672D01*
X166078233Y-70514708D01*
X166472079Y-70515051D01*
X166836077Y-70364650D01*
X167114812Y-70086402D01*
X167229230Y-69810854D01*
X167295009Y-70141549D01*
X167619865Y-70627730D01*
X167934646Y-70838060D01*
X167619865Y-71048390D01*
X167295009Y-71534571D01*
X167180935Y-72108060D01*
X167295009Y-72681549D01*
X167619865Y-73167730D01*
X167929349Y-73374521D01*
X167513548Y-73746024D01*
X167259571Y-74273269D01*
X167256922Y-74289034D01*
X167378063Y-74521060D01*
X168737280Y-74521060D01*
X168737280Y-74501060D01*
X168991280Y-74501060D01*
X168991280Y-74521060D01*
X170350497Y-74521060D01*
X170471638Y-74289034D01*
X170468989Y-74273269D01*
X170215012Y-73746024D01*
X169799211Y-73374521D01*
X170108695Y-73167730D01*
X170433551Y-72681549D01*
X170547625Y-72108060D01*
X170433551Y-71534571D01*
X170108695Y-71048390D01*
X169793914Y-70838060D01*
X170108695Y-70627730D01*
X170433551Y-70141549D01*
X170547625Y-69568060D01*
X170433551Y-68994571D01*
X170108695Y-68508390D01*
X170094367Y-68498817D01*
X170115597Y-68494822D01*
X170331721Y-68355750D01*
X170476711Y-68143550D01*
X170527720Y-67891660D01*
X170527720Y-66164460D01*
X170483442Y-65929143D01*
X170344370Y-65713019D01*
X170132170Y-65568029D01*
X170070991Y-65555640D01*
X170614541Y-65555640D01*
X170725918Y-65667212D01*
X171089653Y-65818248D01*
X171290000Y-65818422D01*
X171290000Y-107290000D01*
X107710000Y-107290000D01*
X107710000Y-104074619D01*
X108000613Y-104074619D01*
X108340155Y-104896372D01*
X108968321Y-105525636D01*
X109789481Y-105866611D01*
X110678619Y-105867387D01*
X111500372Y-105527845D01*
X112129636Y-104899679D01*
X112470611Y-104078519D01*
X112470614Y-104074619D01*
X165912613Y-104074619D01*
X166252155Y-104896372D01*
X166880321Y-105525636D01*
X167701481Y-105866611D01*
X168590619Y-105867387D01*
X169412372Y-105527845D01*
X170041636Y-104899679D01*
X170382611Y-104078519D01*
X170383387Y-103189381D01*
X170043845Y-102367628D01*
X169415679Y-101738364D01*
X168594519Y-101397389D01*
X167705381Y-101396613D01*
X166883628Y-101736155D01*
X166254364Y-102364321D01*
X165913389Y-103185481D01*
X165912613Y-104074619D01*
X112470614Y-104074619D01*
X112471387Y-103189381D01*
X112131845Y-102367628D01*
X111674861Y-101909845D01*
X114893420Y-101909845D01*
X115103829Y-102419075D01*
X115493096Y-102809021D01*
X116001958Y-103020319D01*
X116552945Y-103020800D01*
X117062175Y-102810391D01*
X117302424Y-102570560D01*
X145448020Y-102570560D01*
X145805829Y-102499387D01*
X146109165Y-102296705D01*
X146937304Y-101468566D01*
X147274245Y-101468860D01*
X147783475Y-101258451D01*
X148173421Y-100869184D01*
X148384719Y-100360322D01*
X148385200Y-99809335D01*
X148174791Y-99300105D01*
X147934960Y-99059856D01*
X147934960Y-97245155D01*
X149257896Y-95922219D01*
X149257896Y-96199056D01*
X149329069Y-96556865D01*
X149531751Y-96860201D01*
X154607575Y-101936025D01*
X154910911Y-102138707D01*
X155268720Y-102209880D01*
X155305770Y-102209880D01*
X155543816Y-102448341D01*
X156052678Y-102659639D01*
X156603665Y-102660120D01*
X157112895Y-102449711D01*
X157502841Y-102060444D01*
X157714139Y-101551582D01*
X157714620Y-101000595D01*
X157504211Y-100491365D01*
X157150895Y-100137433D01*
X157685705Y-100137900D01*
X158194935Y-99927491D01*
X158584881Y-99538224D01*
X158796179Y-99029362D01*
X158796660Y-98478375D01*
X158586251Y-97969145D01*
X158196984Y-97579199D01*
X157688122Y-97367901D01*
X157137135Y-97367420D01*
X156627905Y-97577829D01*
X156387656Y-97817660D01*
X155715910Y-97817660D01*
X155181946Y-97283696D01*
X155182240Y-96946755D01*
X154971831Y-96437525D01*
X154582564Y-96047579D01*
X154073702Y-95836281D01*
X153522715Y-95835800D01*
X153013485Y-96046209D01*
X152623539Y-96435476D01*
X152412241Y-96944338D01*
X152412109Y-97095979D01*
X151127896Y-95811766D01*
X151127896Y-94688539D01*
X151366357Y-94450493D01*
X151577655Y-93941631D01*
X151577989Y-93558901D01*
X153922304Y-91214586D01*
X154259245Y-91214880D01*
X154768475Y-91004471D01*
X155008724Y-90764640D01*
X157735319Y-90764640D01*
X157956181Y-90856350D01*
X157929339Y-90883145D01*
X157778303Y-91246880D01*
X157777960Y-91640726D01*
X157908751Y-91957265D01*
X157818592Y-92174393D01*
X157818249Y-92568239D01*
X157968650Y-92932237D01*
X158063420Y-93027173D01*
X158063420Y-94699021D01*
X157951848Y-94810398D01*
X157800812Y-95174133D01*
X157800469Y-95567979D01*
X157950870Y-95931977D01*
X158229118Y-96210712D01*
X158262946Y-96224759D01*
X158262749Y-96451059D01*
X158413150Y-96815057D01*
X158691398Y-97093792D01*
X159055133Y-97244828D01*
X159448979Y-97245171D01*
X159812977Y-97094770D01*
X160091712Y-96816522D01*
X160242748Y-96452787D01*
X160242912Y-96264866D01*
X160296209Y-96185100D01*
X160352919Y-95900001D01*
X160352919Y-91782415D01*
X160352920Y-91782410D01*
X160296209Y-91497311D01*
X160134714Y-91255615D01*
X160134711Y-91255613D01*
X159796971Y-90917872D01*
X159555275Y-90756377D01*
X159461215Y-90737667D01*
X159329653Y-90605875D01*
X159245284Y-90570842D01*
X159514521Y-90302074D01*
X159725819Y-89793212D01*
X159726300Y-89242225D01*
X159515891Y-88732995D01*
X159126624Y-88343049D01*
X158617762Y-88131751D01*
X158066775Y-88131270D01*
X157557545Y-88341679D01*
X157167599Y-88730946D01*
X157099627Y-88894640D01*
X155008570Y-88894640D01*
X154770524Y-88656179D01*
X154261662Y-88444881D01*
X153710675Y-88444400D01*
X153201445Y-88654809D01*
X152811499Y-89044076D01*
X152600201Y-89552938D01*
X152599905Y-89892405D01*
X150212365Y-92279945D01*
X149918611Y-92279689D01*
X149409381Y-92490098D01*
X149019435Y-92879365D01*
X148808137Y-93388227D01*
X148807841Y-93727694D01*
X146338815Y-96196720D01*
X146136133Y-96500056D01*
X146064960Y-96857865D01*
X146064960Y-99060010D01*
X145826499Y-99298056D01*
X145615201Y-99806918D01*
X145614905Y-100146385D01*
X145060730Y-100700560D01*
X117302270Y-100700560D01*
X117064224Y-100462099D01*
X116555362Y-100250801D01*
X116004375Y-100250320D01*
X115495145Y-100460729D01*
X115105199Y-100849996D01*
X114893901Y-101358858D01*
X114893420Y-101909845D01*
X111674861Y-101909845D01*
X111503679Y-101738364D01*
X110682519Y-101397389D01*
X109793381Y-101396613D01*
X108971628Y-101736155D01*
X108342364Y-102364321D01*
X108001389Y-103185481D01*
X108000613Y-104074619D01*
X107710000Y-104074619D01*
X107710000Y-54305165D01*
X108154800Y-54305165D01*
X108365209Y-54814395D01*
X108444355Y-54893679D01*
X108299552Y-55110392D01*
X108228379Y-55468201D01*
X108228379Y-97070439D01*
X108299552Y-97428248D01*
X108502234Y-97731584D01*
X109109728Y-98339078D01*
X109078691Y-98413824D01*
X109078071Y-99123941D01*
X109349248Y-99780240D01*
X109850939Y-100282807D01*
X110506764Y-100555129D01*
X111216881Y-100555749D01*
X111873180Y-100284572D01*
X112375747Y-99782881D01*
X112648069Y-99127056D01*
X112648689Y-98416939D01*
X112605464Y-98312325D01*
X115328587Y-98312325D01*
X115690916Y-99189229D01*
X116361242Y-99860726D01*
X117237513Y-100224585D01*
X118186325Y-100225413D01*
X119063229Y-99863084D01*
X119734726Y-99192758D01*
X120098585Y-98316487D01*
X120098588Y-98312325D01*
X120328587Y-98312325D01*
X120690916Y-99189229D01*
X121361242Y-99860726D01*
X122237513Y-100224585D01*
X123186325Y-100225413D01*
X124063229Y-99863084D01*
X124734726Y-99192758D01*
X125098585Y-98316487D01*
X125098588Y-98312325D01*
X125328587Y-98312325D01*
X125690916Y-99189229D01*
X126361242Y-99860726D01*
X127237513Y-100224585D01*
X128186325Y-100225413D01*
X129063229Y-99863084D01*
X129392358Y-99534528D01*
X131199077Y-99534528D01*
X131389364Y-99879271D01*
X132270591Y-100230956D01*
X133219323Y-100218641D01*
X134038636Y-99879271D01*
X134228923Y-99534528D01*
X132714000Y-98019605D01*
X131199077Y-99534528D01*
X129392358Y-99534528D01*
X129734726Y-99192758D01*
X130098585Y-98316487D01*
X130099387Y-97396591D01*
X130323044Y-97396591D01*
X130335359Y-98345323D01*
X130674729Y-99164636D01*
X131019472Y-99354923D01*
X132534395Y-97840000D01*
X132893605Y-97840000D01*
X134408528Y-99354923D01*
X134753271Y-99164636D01*
X135104956Y-98283409D01*
X135092641Y-97334677D01*
X134753271Y-96515364D01*
X134408528Y-96325077D01*
X132893605Y-97840000D01*
X132534395Y-97840000D01*
X131019472Y-96325077D01*
X130674729Y-96515364D01*
X130323044Y-97396591D01*
X130099387Y-97396591D01*
X130099413Y-97367675D01*
X129737084Y-96490771D01*
X129392388Y-96145472D01*
X131199077Y-96145472D01*
X132714000Y-97660395D01*
X134228923Y-96145472D01*
X134038636Y-95800729D01*
X133157409Y-95449044D01*
X132208677Y-95461359D01*
X131389364Y-95800729D01*
X131199077Y-96145472D01*
X129392388Y-96145472D01*
X129066758Y-95819274D01*
X128190487Y-95455415D01*
X127241675Y-95454587D01*
X126364771Y-95816916D01*
X125693274Y-96487242D01*
X125329415Y-97363513D01*
X125328587Y-98312325D01*
X125098588Y-98312325D01*
X125099413Y-97367675D01*
X124737084Y-96490771D01*
X124066758Y-95819274D01*
X123190487Y-95455415D01*
X122241675Y-95454587D01*
X121364771Y-95816916D01*
X120693274Y-96487242D01*
X120329415Y-97363513D01*
X120328587Y-98312325D01*
X120098588Y-98312325D01*
X120099413Y-97367675D01*
X119737084Y-96490771D01*
X119066758Y-95819274D01*
X118190487Y-95455415D01*
X117241675Y-95454587D01*
X116364771Y-95816916D01*
X115693274Y-96487242D01*
X115329415Y-97363513D01*
X115328587Y-98312325D01*
X112605464Y-98312325D01*
X112377512Y-97760640D01*
X111875821Y-97258073D01*
X111316309Y-97025744D01*
X111827779Y-96813886D01*
X111944799Y-96531465D01*
X110863380Y-95450045D01*
X110849238Y-95464188D01*
X110669632Y-95284582D01*
X110683775Y-95270440D01*
X111042985Y-95270440D01*
X112124405Y-96351859D01*
X112406826Y-96234839D01*
X112658398Y-95570777D01*
X112636694Y-94860992D01*
X112406826Y-94306041D01*
X112124405Y-94189021D01*
X111042985Y-95270440D01*
X110683775Y-95270440D01*
X110669632Y-95256298D01*
X110849238Y-95076692D01*
X110863380Y-95090835D01*
X111944799Y-94009415D01*
X111827779Y-93726994D01*
X111163717Y-93475422D01*
X110453932Y-93497126D01*
X110098379Y-93644401D01*
X110098379Y-55855491D01*
X110201185Y-55752685D01*
X110403867Y-55449349D01*
X110475040Y-55091540D01*
X110475040Y-55054490D01*
X110713501Y-54816444D01*
X110924799Y-54307582D01*
X110925280Y-53756595D01*
X110714871Y-53247365D01*
X110325604Y-52857419D01*
X109816742Y-52646121D01*
X109265755Y-52645640D01*
X108756525Y-52856049D01*
X108366579Y-53245316D01*
X108155281Y-53754178D01*
X108154800Y-54305165D01*
X107710000Y-54305165D01*
X107710000Y-50710000D01*
X171290000Y-50710000D01*
X171290000Y-63838422D01*
M02*
