M48
;DRILL file {KiCad 4.0.2+dfsg1-stable} date mer 24 ott 2018 10:21:25 CEST
;FORMAT={-:-/ absolute / inch / decimal}
FMAT,2
INCH,TZ
T1C0.012
T2C0.020
T3C0.040
T4C0.047
T5C0.051
T6C0.071
%
G90
G05
M72
T1
X4.815Y-3.5121
X5.0289Y-2.9495
X5.1079Y-2.7816
X5.1099Y-2.975
X5.1722Y-2.6649
X5.2185Y-3.4192
X5.3817Y-2.2727
X5.4089Y-2.4353
X5.481Y-3.2665
X5.4833Y-2.4615
X5.5014Y-2.5116
X5.5335Y-2.5807
X5.6478Y-3.3034
X5.7749Y-3.1485
X5.7974Y-3.1807
X5.8007Y-3.0169
X5.8386Y-2.7554
X5.9265Y-2.7755
X5.964Y-3.1893
X6.097Y-2.5558
X6.13Y-3.8328
X6.2507Y-3.6002
X6.2516Y-3.7548
X6.2523Y-3.6367
X6.2698Y-3.7896
X6.2896Y-2.9925
X6.2896Y-3.0913
X6.5463Y-2.7372
X6.5858Y-3.0847
X6.7436Y-2.5523
T2
X4.3126Y-2.1272
X4.5779Y-4.0014
X5.7874Y-3.9403
X5.8969Y-2.4484
X5.9131Y-3.6876
X6.0413Y-3.1842
X6.055Y-3.8276
X6.0624Y-3.5366
X6.0701Y-3.2954
X6.1547Y-3.9872
X6.1973Y-3.8879
X6.2204Y-3.2526
X6.2339Y-3.5243
X6.288Y-2.35
X6.2881Y-2.4544
X6.3759Y-4.0215
X6.4027Y-3.012
X6.4321Y-2.7852
X6.5183Y-3.7448
X6.5183Y-3.8791
X6.5328Y-3.0909
T3
X4.53Y-2.1
X4.53Y-2.2
X4.63Y-2.1
X4.63Y-2.2
X4.73Y-2.1
X4.73Y-2.2
X4.83Y-2.1
X4.83Y-2.2
X4.93Y-2.1
X4.93Y-2.2
X5.03Y-2.1
X5.03Y-2.2
X5.13Y-2.1
X5.13Y-2.2
X5.23Y-2.1
X5.23Y-2.2
X5.3246Y-3.0862
X5.3246Y-3.1862
X5.33Y-2.1
X5.33Y-2.2
X5.43Y-2.1
X5.43Y-2.2
X5.53Y-2.1
X5.53Y-2.2
X5.63Y-2.1
X5.63Y-2.2
X5.73Y-2.1
X5.73Y-2.2
X5.83Y-2.1
X5.83Y-2.2
X5.93Y-2.1
X5.93Y-2.2
X6.03Y-2.1
X6.03Y-2.2
X6.13Y-2.1
X6.13Y-2.2
X6.23Y-2.1
X6.23Y-2.2
X6.33Y-2.1
X6.33Y-2.2
X6.43Y-2.1
X6.43Y-2.2
X6.6482Y-2.6389
X6.6482Y-2.7389
X6.6482Y-2.8389
X6.6482Y-2.9389
T4
X6.0015Y-2.7184
X6.0015Y-2.9152
T5
X4.3647Y-3.7508
X4.3647Y-3.8886
X6.6329Y-2.3485
X6.6329Y-2.4863
T6
X4.6344Y-3.852
X4.8313Y-3.852
X5.0281Y-3.852
X5.225Y-3.852
T0
M30
