G04 #@! TF.FileFunction,Other,User*
%FSLAX46Y46*%
G04 Gerber Fmt 4.6, Leading zero omitted, Abs format (unit mm)*
G04 Created by KiCad (PCBNEW 4.0.2+dfsg1-stable) date mer 24 ott 2018 10:21:22 CEST*
%MOMM*%
G01*
G04 APERTURE LIST*
%ADD10C,0.100000*%
%ADD11C,0.050000*%
G04 APERTURE END LIST*
D10*
D11*
X150964000Y-90430000D02*
X150964000Y-97530000D01*
X158264000Y-90430000D02*
X158264000Y-97530000D01*
X150964000Y-90430000D02*
X158264000Y-90430000D01*
X150964000Y-97530000D02*
X158264000Y-97530000D01*
X169646120Y-97568920D02*
X167046120Y-97568920D01*
X169646120Y-95968920D02*
X167046120Y-95968920D01*
X169646120Y-97568920D02*
X169646120Y-95968920D01*
X167046120Y-97568920D02*
X167046120Y-95968920D01*
X167046120Y-91269920D02*
X169646120Y-91269920D01*
X167046120Y-92869920D02*
X169646120Y-92869920D01*
X167046120Y-91269920D02*
X167046120Y-92869920D01*
X169646120Y-91269920D02*
X169646120Y-92869920D01*
X167020720Y-86616640D02*
X169620720Y-86616640D01*
X167020720Y-88216640D02*
X169620720Y-88216640D01*
X167020720Y-86616640D02*
X167020720Y-88216640D01*
X169620720Y-86616640D02*
X169620720Y-88216640D01*
X165550060Y-89400480D02*
X168150060Y-89400480D01*
X165550060Y-91000480D02*
X168150060Y-91000480D01*
X165550060Y-89400480D02*
X165550060Y-91000480D01*
X168150060Y-89400480D02*
X168150060Y-91000480D01*
X160845480Y-75142880D02*
X160845480Y-72542880D01*
X162445480Y-75142880D02*
X162445480Y-72542880D01*
X160845480Y-75142880D02*
X162445480Y-75142880D01*
X160845480Y-72542880D02*
X162445480Y-72542880D01*
X134396580Y-86158860D02*
X134396580Y-83558860D01*
X135996580Y-86158860D02*
X135996580Y-83558860D01*
X134396580Y-86158860D02*
X135996580Y-86158860D01*
X134396580Y-83558860D02*
X135996580Y-83558860D01*
X163997740Y-71782460D02*
X163997740Y-69182460D01*
X165597740Y-71782460D02*
X165597740Y-69182460D01*
X163997740Y-71782460D02*
X165597740Y-71782460D01*
X163997740Y-69182460D02*
X165597740Y-69182460D01*
X132732000Y-90962000D02*
X132732000Y-88362000D01*
X134332000Y-90962000D02*
X134332000Y-88362000D01*
X132732000Y-90962000D02*
X134332000Y-90962000D01*
X132732000Y-88362000D02*
X134332000Y-88362000D01*
X129684000Y-90962000D02*
X129684000Y-88362000D01*
X131284000Y-90962000D02*
X131284000Y-88362000D01*
X129684000Y-90962000D02*
X131284000Y-90962000D01*
X129684000Y-88362000D02*
X131284000Y-88362000D01*
X160972480Y-82254880D02*
X160972480Y-79654880D01*
X162572480Y-82254880D02*
X162572480Y-79654880D01*
X160972480Y-82254880D02*
X162572480Y-82254880D01*
X160972480Y-79654880D02*
X162572480Y-79654880D01*
X163512480Y-78444880D02*
X163512480Y-75844880D01*
X165112480Y-78444880D02*
X165112480Y-75844880D01*
X163512480Y-78444880D02*
X165112480Y-78444880D01*
X163512480Y-75844880D02*
X165112480Y-75844880D01*
X160845480Y-68157880D02*
X160845480Y-65557880D01*
X162445480Y-68157880D02*
X162445480Y-65557880D01*
X160845480Y-68157880D02*
X162445480Y-68157880D01*
X160845480Y-65557880D02*
X162445480Y-65557880D01*
X159016480Y-76098880D02*
X159016480Y-78698880D01*
X157416480Y-76098880D02*
X157416480Y-78698880D01*
X159016480Y-76098880D02*
X157416480Y-76098880D01*
X159016480Y-78698880D02*
X157416480Y-78698880D01*
X157416480Y-82000880D02*
X157416480Y-79400880D01*
X159016480Y-82000880D02*
X159016480Y-79400880D01*
X157416480Y-82000880D02*
X159016480Y-82000880D01*
X157416480Y-79400880D02*
X159016480Y-79400880D01*
X163385480Y-64347880D02*
X163385480Y-61747880D01*
X164985480Y-64347880D02*
X164985480Y-61747880D01*
X163385480Y-64347880D02*
X164985480Y-64347880D01*
X163385480Y-61747880D02*
X164985480Y-61747880D01*
X154622480Y-78698880D02*
X154622480Y-76098880D01*
X156222480Y-78698880D02*
X156222480Y-76098880D01*
X154622480Y-78698880D02*
X156222480Y-78698880D01*
X154622480Y-76098880D02*
X156222480Y-76098880D01*
X134043900Y-64820900D02*
X136643900Y-64820900D01*
X134043900Y-66420900D02*
X136643900Y-66420900D01*
X134043900Y-64820900D02*
X134043900Y-66420900D01*
X136643900Y-64820900D02*
X136643900Y-66420900D01*
X113312000Y-57630000D02*
X165112000Y-57630000D01*
X113312000Y-51580000D02*
X165112000Y-51580000D01*
X113312000Y-57630000D02*
X113312000Y-51580000D01*
X165112000Y-57630000D02*
X165112000Y-51580000D01*
X167114280Y-65278060D02*
X167114280Y-76428060D01*
X170614280Y-65278060D02*
X170614280Y-76428060D01*
X167114280Y-65278060D02*
X170614280Y-65278060D01*
X167114280Y-76428060D02*
X170614280Y-76428060D01*
X133494840Y-76639480D02*
X133494840Y-82689480D01*
X136994840Y-76639480D02*
X136994840Y-82689480D01*
X133494840Y-76639480D02*
X136994840Y-76639480D01*
X133494840Y-82689480D02*
X136994840Y-82689480D01*
X158980000Y-103058000D02*
X155980000Y-103058000D01*
X155980000Y-103058000D02*
X155980000Y-101158000D01*
X158980000Y-101158000D02*
X155980000Y-101158000D01*
X158980000Y-103058000D02*
X158980000Y-101158000D01*
X154908000Y-98862000D02*
X154908000Y-105862000D01*
X154908000Y-105862000D02*
X150908000Y-105862000D01*
X150908000Y-105862000D02*
X150908000Y-98862000D01*
X150908000Y-98862000D02*
X154908000Y-98862000D01*
X146360000Y-81566000D02*
X153360000Y-81566000D01*
X153360000Y-81566000D02*
X153360000Y-85566000D01*
X153360000Y-85566000D02*
X146360000Y-85566000D01*
X146360000Y-85566000D02*
X146360000Y-81566000D01*
X154154000Y-88072000D02*
X151154000Y-88072000D01*
X151154000Y-88072000D02*
X151154000Y-86172000D01*
X154154000Y-86172000D02*
X151154000Y-86172000D01*
X154154000Y-88072000D02*
X154154000Y-86172000D01*
X145870000Y-93484000D02*
X148770000Y-93484000D01*
X145870000Y-94984000D02*
X148770000Y-94984000D01*
X145870000Y-93484000D02*
X145870000Y-94984000D01*
X148770000Y-93484000D02*
X148770000Y-94984000D01*
X166706120Y-93605920D02*
X169606120Y-93605920D01*
X166706120Y-95105920D02*
X169606120Y-95105920D01*
X166706120Y-93605920D02*
X166706120Y-95105920D01*
X169606120Y-93605920D02*
X169606120Y-95105920D01*
X161689120Y-92335920D02*
X164589120Y-92335920D01*
X161689120Y-93835920D02*
X164589120Y-93835920D01*
X161689120Y-92335920D02*
X161689120Y-93835920D01*
X164589120Y-92335920D02*
X164589120Y-93835920D01*
X161689120Y-94621920D02*
X164589120Y-94621920D01*
X161689120Y-96121920D02*
X164589120Y-96121920D01*
X161689120Y-94621920D02*
X161689120Y-96121920D01*
X164589120Y-94621920D02*
X164589120Y-96121920D01*
X148770000Y-88634000D02*
X145870000Y-88634000D01*
X148770000Y-87134000D02*
X145870000Y-87134000D01*
X148770000Y-88634000D02*
X148770000Y-87134000D01*
X145870000Y-88634000D02*
X145870000Y-87134000D01*
X145391800Y-76668060D02*
X142491800Y-76668060D01*
X145391800Y-75168060D02*
X142491800Y-75168060D01*
X145391800Y-76668060D02*
X145391800Y-75168060D01*
X142491800Y-76668060D02*
X142491800Y-75168060D01*
X110756000Y-54028000D02*
X110756000Y-51128000D01*
X112256000Y-54028000D02*
X112256000Y-51128000D01*
X110756000Y-54028000D02*
X112256000Y-54028000D01*
X110756000Y-51128000D02*
X112256000Y-51128000D01*
X140612200Y-66077400D02*
X143512200Y-66077400D01*
X140612200Y-67577400D02*
X143512200Y-67577400D01*
X140612200Y-66077400D02*
X140612200Y-67577400D01*
X143512200Y-66077400D02*
X143512200Y-67577400D01*
X133606200Y-73419400D02*
X130706200Y-73419400D01*
X133606200Y-71919400D02*
X130706200Y-71919400D01*
X133606200Y-73419400D02*
X133606200Y-71919400D01*
X130706200Y-73419400D02*
X130706200Y-71919400D01*
X133606200Y-69863400D02*
X130706200Y-69863400D01*
X133606200Y-68363400D02*
X130706200Y-68363400D01*
X133606200Y-69863400D02*
X133606200Y-68363400D01*
X130706200Y-69863400D02*
X130706200Y-68363400D01*
X112256000Y-54684000D02*
X112256000Y-57584000D01*
X110756000Y-54684000D02*
X110756000Y-57584000D01*
X112256000Y-54684000D02*
X110756000Y-54684000D01*
X112256000Y-57584000D02*
X110756000Y-57584000D01*
X137312200Y-67941400D02*
X137312200Y-73841400D01*
X146812200Y-67941400D02*
X146812200Y-73841400D01*
X137312200Y-67941400D02*
X146812200Y-67941400D01*
X137312200Y-73841400D02*
X146812200Y-73841400D01*
X131694880Y-63542360D02*
X131694880Y-58042360D01*
X124194880Y-63542360D02*
X124194880Y-58042360D01*
X131694880Y-63542360D02*
X124194880Y-63542360D01*
X131694880Y-58042360D02*
X124194880Y-58042360D01*
X138225840Y-77295560D02*
X138225840Y-82795560D01*
X145725840Y-77295560D02*
X145725840Y-82795560D01*
X138225840Y-77295560D02*
X145725840Y-77295560D01*
X138225840Y-82795560D02*
X145725840Y-82795560D01*
M02*
