G04 #@! TF.FileFunction,Legend,Top*
%FSLAX46Y46*%
G04 Gerber Fmt 4.6, Leading zero omitted, Abs format (unit mm)*
G04 Created by KiCad (PCBNEW 4.0.2+dfsg1-stable) date mer 31 ott 2018 08:46:36 CET*
%MOMM*%
G01*
G04 APERTURE LIST*
%ADD10C,0.100000*%
%ADD11C,0.300000*%
%ADD12C,0.200000*%
%ADD13C,0.150000*%
G04 APERTURE END LIST*
D10*
D11*
X170239571Y-78362429D02*
X171739571Y-78362429D01*
X170311000Y-78362429D02*
X170239571Y-78219572D01*
X170239571Y-77933858D01*
X170311000Y-77791001D01*
X170382429Y-77719572D01*
X170525286Y-77648143D01*
X170953857Y-77648143D01*
X171096714Y-77719572D01*
X171168143Y-77791001D01*
X171239571Y-77933858D01*
X171239571Y-78219572D01*
X171168143Y-78362429D01*
X171239571Y-76791000D02*
X171168143Y-76933858D01*
X171096714Y-77005286D01*
X170953857Y-77076715D01*
X170525286Y-77076715D01*
X170382429Y-77005286D01*
X170311000Y-76933858D01*
X170239571Y-76791000D01*
X170239571Y-76576715D01*
X170311000Y-76433858D01*
X170382429Y-76362429D01*
X170525286Y-76291000D01*
X170953857Y-76291000D01*
X171096714Y-76362429D01*
X171168143Y-76433858D01*
X171239571Y-76576715D01*
X171239571Y-76791000D01*
X170239571Y-75791000D02*
X171239571Y-75505286D01*
X170525286Y-75219572D01*
X171239571Y-74933857D01*
X170239571Y-74648143D01*
X171382429Y-74433857D02*
X171382429Y-73291000D01*
X171239571Y-72291000D02*
X170453857Y-72291000D01*
X170311000Y-72362429D01*
X170239571Y-72505286D01*
X170239571Y-72791000D01*
X170311000Y-72933857D01*
X171168143Y-72291000D02*
X171239571Y-72433857D01*
X171239571Y-72791000D01*
X171168143Y-72933857D01*
X171025286Y-73005286D01*
X170882429Y-73005286D01*
X170739571Y-72933857D01*
X170668143Y-72791000D01*
X170668143Y-72433857D01*
X170596714Y-72291000D01*
X170239571Y-70933857D02*
X171239571Y-70933857D01*
X170239571Y-71576714D02*
X171025286Y-71576714D01*
X171168143Y-71505286D01*
X171239571Y-71362428D01*
X171239571Y-71148143D01*
X171168143Y-71005286D01*
X171096714Y-70933857D01*
X171239571Y-70362428D02*
X170239571Y-69576714D01*
X170239571Y-70362428D02*
X171239571Y-69576714D01*
X168755143Y-58229143D02*
X168826571Y-58086286D01*
X168826571Y-57800571D01*
X168755143Y-57657714D01*
X168612286Y-57586286D01*
X168540857Y-57586286D01*
X168398000Y-57657714D01*
X168326571Y-57800571D01*
X168326571Y-58014857D01*
X168255143Y-58157714D01*
X168112286Y-58229143D01*
X168040857Y-58229143D01*
X167898000Y-58157714D01*
X167826571Y-58014857D01*
X167826571Y-57800571D01*
X167898000Y-57657714D01*
X168755143Y-56372000D02*
X168826571Y-56514857D01*
X168826571Y-56800571D01*
X168755143Y-56943428D01*
X168612286Y-57014857D01*
X168040857Y-57014857D01*
X167898000Y-56943428D01*
X167826571Y-56800571D01*
X167826571Y-56514857D01*
X167898000Y-56372000D01*
X168040857Y-56300571D01*
X168183714Y-56300571D01*
X168326571Y-57014857D01*
X168826571Y-55657714D02*
X167826571Y-55657714D01*
X168112286Y-55657714D02*
X167969429Y-55586286D01*
X167898000Y-55514857D01*
X167826571Y-55372000D01*
X167826571Y-55229143D01*
X168826571Y-54729143D02*
X167826571Y-54729143D01*
X167326571Y-54729143D02*
X167398000Y-54800572D01*
X167469429Y-54729143D01*
X167398000Y-54657715D01*
X167326571Y-54729143D01*
X167469429Y-54729143D01*
X168826571Y-53372000D02*
X168040857Y-53372000D01*
X167898000Y-53443429D01*
X167826571Y-53586286D01*
X167826571Y-53872000D01*
X167898000Y-54014857D01*
X168755143Y-53372000D02*
X168826571Y-53514857D01*
X168826571Y-53872000D01*
X168755143Y-54014857D01*
X168612286Y-54086286D01*
X168469429Y-54086286D01*
X168326571Y-54014857D01*
X168255143Y-53872000D01*
X168255143Y-53514857D01*
X168183714Y-53372000D01*
X168826571Y-52443428D02*
X168755143Y-52586286D01*
X168612286Y-52657714D01*
X167326571Y-52657714D01*
D12*
X115697000Y-58801000D02*
G75*
G03X115697000Y-58801000I-635000J0D01*
G01*
D11*
X108902572Y-63607143D02*
X110045429Y-63607143D01*
X109474000Y-64178571D02*
X109474000Y-63035714D01*
X128115286Y-78264144D02*
X128043857Y-78192715D01*
X127972429Y-77978429D01*
X127972429Y-77835572D01*
X128043857Y-77621287D01*
X128186714Y-77478429D01*
X128329571Y-77407001D01*
X128615286Y-77335572D01*
X128829571Y-77335572D01*
X129115286Y-77407001D01*
X129258143Y-77478429D01*
X129401000Y-77621287D01*
X129472429Y-77835572D01*
X129472429Y-77978429D01*
X129401000Y-78192715D01*
X129329571Y-78264144D01*
X127972429Y-79764144D02*
X128686714Y-79264144D01*
X127972429Y-78907001D02*
X129472429Y-78907001D01*
X129472429Y-79478429D01*
X129401000Y-79621287D01*
X129329571Y-79692715D01*
X129186714Y-79764144D01*
X128972429Y-79764144D01*
X128829571Y-79692715D01*
X128758143Y-79621287D01*
X128686714Y-79478429D01*
X128686714Y-78907001D01*
X129329571Y-80335572D02*
X129401000Y-80407001D01*
X129472429Y-80549858D01*
X129472429Y-80907001D01*
X129401000Y-81049858D01*
X129329571Y-81121287D01*
X129186714Y-81192715D01*
X129043857Y-81192715D01*
X128829571Y-81121287D01*
X127972429Y-80264144D01*
X127972429Y-81192715D01*
X129472429Y-82121286D02*
X129472429Y-82264143D01*
X129401000Y-82407000D01*
X129329571Y-82478429D01*
X129186714Y-82549858D01*
X128901000Y-82621286D01*
X128543857Y-82621286D01*
X128258143Y-82549858D01*
X128115286Y-82478429D01*
X128043857Y-82407000D01*
X127972429Y-82264143D01*
X127972429Y-82121286D01*
X128043857Y-81978429D01*
X128115286Y-81907000D01*
X128258143Y-81835572D01*
X128543857Y-81764143D01*
X128901000Y-81764143D01*
X129186714Y-81835572D01*
X129329571Y-81907000D01*
X129401000Y-81978429D01*
X129472429Y-82121286D01*
X129472429Y-83121286D02*
X129472429Y-84049857D01*
X128901000Y-83549857D01*
X128901000Y-83764143D01*
X128829571Y-83907000D01*
X128758143Y-83978429D01*
X128615286Y-84049857D01*
X128258143Y-84049857D01*
X128115286Y-83978429D01*
X128043857Y-83907000D01*
X127972429Y-83764143D01*
X127972429Y-83335571D01*
X128043857Y-83192714D01*
X128115286Y-83121286D01*
X129329571Y-84621285D02*
X129401000Y-84692714D01*
X129472429Y-84835571D01*
X129472429Y-85192714D01*
X129401000Y-85335571D01*
X129329571Y-85407000D01*
X129186714Y-85478428D01*
X129043857Y-85478428D01*
X128829571Y-85407000D01*
X127972429Y-84549857D01*
X127972429Y-85478428D01*
D12*
X160431480Y-75747880D02*
X160812480Y-75747880D01*
X159161480Y-74477880D02*
X160431480Y-75747880D01*
D11*
X155468000Y-60360571D02*
X155110857Y-60360571D01*
X155110857Y-58217714D01*
X155468000Y-58217714D01*
X155825143Y-58860571D02*
X156396572Y-58860571D01*
X156039429Y-58360571D02*
X156039429Y-59646286D01*
X156110857Y-59789143D01*
X156253715Y-59860571D01*
X156396572Y-59860571D01*
X156753715Y-59860571D02*
X157539429Y-58860571D01*
X156753715Y-58860571D02*
X157539429Y-59860571D01*
X157968001Y-60360571D02*
X158325144Y-60360571D01*
X158325144Y-58217714D01*
X157968001Y-58217714D01*
X155589766Y-75402451D02*
X155232623Y-75402451D01*
X155232623Y-73259594D01*
X155589766Y-73259594D01*
X156161195Y-74902451D02*
X156161195Y-73902451D01*
X156161195Y-74188166D02*
X156232623Y-74045309D01*
X156304052Y-73973880D01*
X156446909Y-73902451D01*
X156589766Y-73902451D01*
X156946909Y-74902451D02*
X157732623Y-73902451D01*
X156946909Y-73902451D02*
X157732623Y-74902451D01*
X158161195Y-75402451D02*
X158518338Y-75402451D01*
X158518338Y-73259594D01*
X158161195Y-73259594D01*
X133978200Y-76387971D02*
X133621057Y-76387971D01*
X133621057Y-74245114D01*
X133978200Y-74245114D01*
X134335343Y-74887971D02*
X134906772Y-74887971D01*
X134549629Y-74387971D02*
X134549629Y-75673686D01*
X134621057Y-75816543D01*
X134763915Y-75887971D01*
X134906772Y-75887971D01*
X135978200Y-75816543D02*
X135835343Y-75887971D01*
X135549629Y-75887971D01*
X135406772Y-75816543D01*
X135335343Y-75673686D01*
X135335343Y-75102257D01*
X135406772Y-74959400D01*
X135549629Y-74887971D01*
X135835343Y-74887971D01*
X135978200Y-74959400D01*
X136049629Y-75102257D01*
X136049629Y-75245114D01*
X135335343Y-75387971D01*
X136692486Y-75887971D02*
X136692486Y-74887971D01*
X136692486Y-75173686D02*
X136763914Y-75030829D01*
X136835343Y-74959400D01*
X136978200Y-74887971D01*
X137121057Y-74887971D01*
X137621057Y-75887971D02*
X137621057Y-74887971D01*
X137621057Y-75030829D02*
X137692485Y-74959400D01*
X137835343Y-74887971D01*
X138049628Y-74887971D01*
X138192485Y-74959400D01*
X138263914Y-75102257D01*
X138263914Y-75887971D01*
X138263914Y-75102257D02*
X138335343Y-74959400D01*
X138478200Y-74887971D01*
X138692485Y-74887971D01*
X138835343Y-74959400D01*
X138906771Y-75102257D01*
X138906771Y-75887971D01*
X139478200Y-76387971D02*
X139835343Y-76387971D01*
X139835343Y-74245114D01*
X139478200Y-74245114D01*
X131826143Y-93484000D02*
X131683286Y-93412571D01*
X131469000Y-93412571D01*
X131254715Y-93484000D01*
X131111857Y-93626857D01*
X131040429Y-93769714D01*
X130969000Y-94055429D01*
X130969000Y-94269714D01*
X131040429Y-94555429D01*
X131111857Y-94698286D01*
X131254715Y-94841143D01*
X131469000Y-94912571D01*
X131611857Y-94912571D01*
X131826143Y-94841143D01*
X131897572Y-94769714D01*
X131897572Y-94269714D01*
X131611857Y-94269714D01*
X132540429Y-94912571D02*
X132540429Y-93412571D01*
X133397572Y-94912571D01*
X133397572Y-93412571D01*
X134111858Y-94912571D02*
X134111858Y-93412571D01*
X134469001Y-93412571D01*
X134683286Y-93484000D01*
X134826144Y-93626857D01*
X134897572Y-93769714D01*
X134969001Y-94055429D01*
X134969001Y-94269714D01*
X134897572Y-94555429D01*
X134826144Y-94698286D01*
X134683286Y-94841143D01*
X134469001Y-94912571D01*
X134111858Y-94912571D01*
X127615143Y-94253857D02*
X127829429Y-94325286D01*
X127900857Y-94396714D01*
X127972286Y-94539571D01*
X127972286Y-94753857D01*
X127900857Y-94896714D01*
X127829429Y-94968143D01*
X127686571Y-95039571D01*
X127115143Y-95039571D01*
X127115143Y-93539571D01*
X127615143Y-93539571D01*
X127758000Y-93611000D01*
X127829429Y-93682429D01*
X127900857Y-93825286D01*
X127900857Y-93968143D01*
X127829429Y-94111000D01*
X127758000Y-94182429D01*
X127615143Y-94253857D01*
X127115143Y-94253857D01*
X122324857Y-94611000D02*
X123039143Y-94611000D01*
X122182000Y-95039571D02*
X122682000Y-93539571D01*
X123182000Y-95039571D01*
X116268572Y-94087143D02*
X117411429Y-94087143D01*
X116840000Y-94658571D02*
X116840000Y-93515714D01*
X122956144Y-92118571D02*
X122456144Y-91404286D01*
X122099001Y-92118571D02*
X122099001Y-90618571D01*
X122670429Y-90618571D01*
X122813287Y-90690000D01*
X122884715Y-90761429D01*
X122956144Y-90904286D01*
X122956144Y-91118571D01*
X122884715Y-91261429D01*
X122813287Y-91332857D01*
X122670429Y-91404286D01*
X122099001Y-91404286D01*
X123527572Y-92047143D02*
X123741858Y-92118571D01*
X124099001Y-92118571D01*
X124241858Y-92047143D01*
X124313287Y-91975714D01*
X124384715Y-91832857D01*
X124384715Y-91690000D01*
X124313287Y-91547143D01*
X124241858Y-91475714D01*
X124099001Y-91404286D01*
X123813287Y-91332857D01*
X123670429Y-91261429D01*
X123599001Y-91190000D01*
X123527572Y-91047143D01*
X123527572Y-90904286D01*
X123599001Y-90761429D01*
X123670429Y-90690000D01*
X123813287Y-90618571D01*
X124170429Y-90618571D01*
X124384715Y-90690000D01*
X125670429Y-91118571D02*
X125670429Y-92118571D01*
X125313286Y-90547143D02*
X124956143Y-91618571D01*
X125884715Y-91618571D01*
X126670429Y-91261429D02*
X126527571Y-91190000D01*
X126456143Y-91118571D01*
X126384714Y-90975714D01*
X126384714Y-90904286D01*
X126456143Y-90761429D01*
X126527571Y-90690000D01*
X126670429Y-90618571D01*
X126956143Y-90618571D01*
X127099000Y-90690000D01*
X127170429Y-90761429D01*
X127241857Y-90904286D01*
X127241857Y-90975714D01*
X127170429Y-91118571D01*
X127099000Y-91190000D01*
X126956143Y-91261429D01*
X126670429Y-91261429D01*
X126527571Y-91332857D01*
X126456143Y-91404286D01*
X126384714Y-91547143D01*
X126384714Y-91832857D01*
X126456143Y-91975714D01*
X126527571Y-92047143D01*
X126670429Y-92118571D01*
X126956143Y-92118571D01*
X127099000Y-92047143D01*
X127170429Y-91975714D01*
X127241857Y-91832857D01*
X127241857Y-91547143D01*
X127170429Y-91404286D01*
X127099000Y-91332857D01*
X126956143Y-91261429D01*
X128599000Y-90618571D02*
X127884714Y-90618571D01*
X127813285Y-91332857D01*
X127884714Y-91261429D01*
X128027571Y-91190000D01*
X128384714Y-91190000D01*
X128527571Y-91261429D01*
X128599000Y-91332857D01*
X128670428Y-91475714D01*
X128670428Y-91832857D01*
X128599000Y-91975714D01*
X128527571Y-92047143D01*
X128384714Y-92118571D01*
X128027571Y-92118571D01*
X127884714Y-92047143D01*
X127813285Y-91975714D01*
D13*
X135458200Y-71291400D02*
X135458200Y-71891400D01*
X135458200Y-70391400D02*
X135458200Y-69891400D01*
X136058200Y-70391400D02*
X134758200Y-70391400D01*
X136058200Y-71291400D02*
X134758200Y-71291400D01*
X136058200Y-70591400D02*
X136058200Y-71091400D01*
X136058200Y-71091400D02*
X134758200Y-71091400D01*
X134758200Y-71091400D02*
X134758200Y-70591400D01*
X134758200Y-70591400D02*
X136058200Y-70591400D01*
X134258200Y-68391400D02*
X134258200Y-73391400D01*
X134258200Y-73391400D02*
X136658200Y-73391400D01*
X136658200Y-73391400D02*
X136658200Y-68391400D01*
X136658200Y-68391400D02*
X134258200Y-68391400D01*
X153192575Y-91059000D02*
G75*
G03X153192575Y-91059000I-331175J0D01*
G01*
X152289000Y-90605000D02*
X152289000Y-90630000D01*
X156939000Y-90605000D02*
X156939000Y-90630000D01*
X156939000Y-97355000D02*
X156939000Y-97330000D01*
X152289000Y-97355000D02*
X152289000Y-97330000D01*
X152289000Y-90605000D02*
X156939000Y-90605000D01*
X152289000Y-97355000D02*
X156939000Y-97355000D01*
X152289000Y-90630000D02*
X151214000Y-90630000D01*
X167846120Y-96093920D02*
X168846120Y-96093920D01*
X168846120Y-97443920D02*
X167846120Y-97443920D01*
X168846120Y-92744920D02*
X167846120Y-92744920D01*
X167846120Y-91394920D02*
X168846120Y-91394920D01*
X168820720Y-88091640D02*
X167820720Y-88091640D01*
X167820720Y-86741640D02*
X168820720Y-86741640D01*
X167350060Y-90875480D02*
X166350060Y-90875480D01*
X166350060Y-89525480D02*
X167350060Y-89525480D01*
X162320480Y-73342880D02*
X162320480Y-74342880D01*
X160970480Y-74342880D02*
X160970480Y-73342880D01*
X135871580Y-84358860D02*
X135871580Y-85358860D01*
X134521580Y-85358860D02*
X134521580Y-84358860D01*
X165472740Y-69982460D02*
X165472740Y-70982460D01*
X164122740Y-70982460D02*
X164122740Y-69982460D01*
X134207000Y-89162000D02*
X134207000Y-90162000D01*
X132857000Y-90162000D02*
X132857000Y-89162000D01*
X131159000Y-89162000D02*
X131159000Y-90162000D01*
X129809000Y-90162000D02*
X129809000Y-89162000D01*
X162447480Y-80454880D02*
X162447480Y-81454880D01*
X161097480Y-81454880D02*
X161097480Y-80454880D01*
X164987480Y-76644880D02*
X164987480Y-77644880D01*
X163637480Y-77644880D02*
X163637480Y-76644880D01*
X162320480Y-66357880D02*
X162320480Y-67357880D01*
X160970480Y-67357880D02*
X160970480Y-66357880D01*
X157541480Y-77898880D02*
X157541480Y-76898880D01*
X158891480Y-76898880D02*
X158891480Y-77898880D01*
X158891480Y-80200880D02*
X158891480Y-81200880D01*
X157541480Y-81200880D02*
X157541480Y-80200880D01*
X164860480Y-62547880D02*
X164860480Y-63547880D01*
X163510480Y-63547880D02*
X163510480Y-62547880D01*
X156097480Y-76898880D02*
X156097480Y-77898880D01*
X154747480Y-77898880D02*
X154747480Y-76898880D01*
X135843900Y-66295900D02*
X134843900Y-66295900D01*
X134843900Y-64945900D02*
X135843900Y-64945900D01*
X164439480Y-74096880D02*
X165074480Y-74096880D01*
X165074480Y-74096880D02*
X165074480Y-73080880D01*
X163296480Y-73080880D02*
X163296480Y-74096880D01*
X163296480Y-74096880D02*
X163931480Y-74096880D01*
X164439480Y-74223880D02*
X164439480Y-74096880D01*
X163931480Y-74096880D02*
X163931480Y-74223880D01*
X165074480Y-73080880D02*
X163296480Y-73080880D01*
X163931480Y-74223880D02*
X164439480Y-74223880D01*
X164566480Y-81208880D02*
X165201480Y-81208880D01*
X165201480Y-81208880D02*
X165201480Y-80192880D01*
X163423480Y-80192880D02*
X163423480Y-81208880D01*
X163423480Y-81208880D02*
X164058480Y-81208880D01*
X164566480Y-81335880D02*
X164566480Y-81208880D01*
X164058480Y-81208880D02*
X164058480Y-81335880D01*
X165201480Y-80192880D02*
X163423480Y-80192880D01*
X164058480Y-81335880D02*
X164566480Y-81335880D01*
X164185480Y-67111880D02*
X164820480Y-67111880D01*
X164820480Y-67111880D02*
X164820480Y-66095880D01*
X163042480Y-66095880D02*
X163042480Y-67111880D01*
X163042480Y-67111880D02*
X163677480Y-67111880D01*
X164185480Y-67238880D02*
X164185480Y-67111880D01*
X163677480Y-67111880D02*
X163677480Y-67238880D01*
X164820480Y-66095880D02*
X163042480Y-66095880D01*
X163677480Y-67238880D02*
X164185480Y-67238880D01*
X155676480Y-81208880D02*
X156311480Y-81208880D01*
X156311480Y-81208880D02*
X156311480Y-80192880D01*
X154533480Y-80192880D02*
X154533480Y-81208880D01*
X154533480Y-81208880D02*
X155168480Y-81208880D01*
X155676480Y-81335880D02*
X155676480Y-81208880D01*
X155168480Y-81208880D02*
X155168480Y-81335880D01*
X156311480Y-80192880D02*
X154533480Y-80192880D01*
X155168480Y-81335880D02*
X155676480Y-81335880D01*
X164592000Y-52070000D02*
X113792000Y-52070000D01*
X116332000Y-57150000D02*
X164592000Y-57150000D01*
X164592000Y-52070000D02*
X164592000Y-57150000D01*
X113792000Y-52070000D02*
X113792000Y-54610000D01*
X113512000Y-55880000D02*
X113512000Y-57430000D01*
X113792000Y-54610000D02*
X116332000Y-54610000D01*
X116332000Y-54610000D02*
X116332000Y-57150000D01*
X113512000Y-57430000D02*
X115062000Y-57430000D01*
X167594280Y-68298060D02*
X167594280Y-75918060D01*
X170134280Y-68298060D02*
X170134280Y-75918060D01*
X170414280Y-65478060D02*
X170414280Y-67028060D01*
X167594280Y-75918060D02*
X170134280Y-75918060D01*
X170134280Y-68298060D02*
X167594280Y-68298060D01*
X167314280Y-67028060D02*
X167314280Y-65478060D01*
X167314280Y-65478060D02*
X170414280Y-65478060D01*
X144698000Y-96276000D02*
X142698000Y-96276000D01*
X144698000Y-103876000D02*
X142698000Y-103876000D01*
X137098000Y-103876000D02*
X139098000Y-103876000D01*
X137098000Y-103876000D02*
X137098000Y-96276000D01*
X137098000Y-96276000D02*
X139098000Y-96276000D01*
X144698000Y-103876000D02*
X144698000Y-96276000D01*
X144698000Y-85862000D02*
X142698000Y-85862000D01*
X144698000Y-93462000D02*
X142698000Y-93462000D01*
X137098000Y-93462000D02*
X139098000Y-93462000D01*
X137098000Y-93462000D02*
X137098000Y-85862000D01*
X137098000Y-85862000D02*
X139098000Y-85862000D01*
X144698000Y-93462000D02*
X144698000Y-85862000D01*
X136514840Y-79659480D02*
X136514840Y-82199480D01*
X136794840Y-76839480D02*
X136794840Y-78389480D01*
X136514840Y-79659480D02*
X133974840Y-79659480D01*
X133694840Y-78389480D02*
X133694840Y-76839480D01*
X133694840Y-76839480D02*
X136794840Y-76839480D01*
X133974840Y-79659480D02*
X133974840Y-82199480D01*
X133974840Y-82199480D02*
X136514840Y-82199480D01*
X157230000Y-102108000D02*
X156980000Y-102108000D01*
X157730000Y-102108000D02*
X157980000Y-102108000D01*
X157730000Y-102108000D02*
X157230000Y-102458000D01*
X157230000Y-102458000D02*
X157230000Y-101758000D01*
X157230000Y-101758000D02*
X157730000Y-102108000D01*
X157730000Y-102458000D02*
X157730000Y-101758000D01*
X158780000Y-101308000D02*
X156380000Y-101308000D01*
X158780000Y-102908000D02*
X156380000Y-102908000D01*
X154408000Y-101862000D02*
X151408000Y-101862000D01*
X151157940Y-100562860D02*
X151508460Y-100562860D01*
X154658060Y-100562860D02*
X154307540Y-100562860D01*
X151157940Y-104612440D02*
X151508460Y-104612440D01*
X151157940Y-100111560D02*
X151508460Y-100111560D01*
X154658060Y-100111560D02*
X154307540Y-100111560D01*
X154658060Y-104612440D02*
X154307540Y-104612440D01*
X151157940Y-100111560D02*
X151157940Y-104612440D01*
X154658060Y-100111560D02*
X154658060Y-104612440D01*
X149360000Y-82066000D02*
X149360000Y-85066000D01*
X148060860Y-85316060D02*
X148060860Y-84965540D01*
X148060860Y-81815940D02*
X148060860Y-82166460D01*
X152110440Y-85316060D02*
X152110440Y-84965540D01*
X147609560Y-85316060D02*
X147609560Y-84965540D01*
X147609560Y-81815940D02*
X147609560Y-82166460D01*
X152110440Y-81815940D02*
X152110440Y-82166460D01*
X147609560Y-85316060D02*
X152110440Y-85316060D01*
X147609560Y-81815940D02*
X152110440Y-81815940D01*
X152404000Y-87122000D02*
X152154000Y-87122000D01*
X152904000Y-87122000D02*
X153154000Y-87122000D01*
X152904000Y-87122000D02*
X152404000Y-87472000D01*
X152404000Y-87472000D02*
X152404000Y-86772000D01*
X152404000Y-86772000D02*
X152904000Y-87122000D01*
X152904000Y-87472000D02*
X152904000Y-86772000D01*
X153954000Y-86322000D02*
X151554000Y-86322000D01*
X153954000Y-87922000D02*
X151554000Y-87922000D01*
X161195900Y-69583300D02*
X162095060Y-69583300D01*
X162095060Y-69583300D02*
X162095060Y-69184520D01*
X161195900Y-69184520D02*
X162095060Y-69184520D01*
X161195900Y-69583300D02*
X161195900Y-69184520D01*
X161195900Y-70881240D02*
X162095060Y-70881240D01*
X162095060Y-70881240D02*
X162095060Y-70482460D01*
X161195900Y-70482460D02*
X162095060Y-70482460D01*
X161195900Y-70881240D02*
X161195900Y-70482460D01*
X161195900Y-70032880D02*
X161345760Y-70032880D01*
X161345760Y-70032880D02*
X161345760Y-69733160D01*
X161195900Y-69733160D02*
X161345760Y-69733160D01*
X161195900Y-70032880D02*
X161195900Y-69733160D01*
X161945200Y-70032880D02*
X162095060Y-70032880D01*
X162095060Y-70032880D02*
X162095060Y-69733160D01*
X161945200Y-69733160D02*
X162095060Y-69733160D01*
X161945200Y-70032880D02*
X161945200Y-69733160D01*
X161495620Y-70032880D02*
X161795340Y-70032880D01*
X161795340Y-70032880D02*
X161795340Y-69733160D01*
X161495620Y-69733160D02*
X161795340Y-69733160D01*
X161495620Y-70032880D02*
X161495620Y-69733160D01*
X161246700Y-69583300D02*
X161246700Y-70482460D01*
X162044260Y-69583300D02*
X162044260Y-70482460D01*
X161322900Y-76695300D02*
X162222060Y-76695300D01*
X162222060Y-76695300D02*
X162222060Y-76296520D01*
X161322900Y-76296520D02*
X162222060Y-76296520D01*
X161322900Y-76695300D02*
X161322900Y-76296520D01*
X161322900Y-77993240D02*
X162222060Y-77993240D01*
X162222060Y-77993240D02*
X162222060Y-77594460D01*
X161322900Y-77594460D02*
X162222060Y-77594460D01*
X161322900Y-77993240D02*
X161322900Y-77594460D01*
X161322900Y-77144880D02*
X161472760Y-77144880D01*
X161472760Y-77144880D02*
X161472760Y-76845160D01*
X161322900Y-76845160D02*
X161472760Y-76845160D01*
X161322900Y-77144880D02*
X161322900Y-76845160D01*
X162072200Y-77144880D02*
X162222060Y-77144880D01*
X162222060Y-77144880D02*
X162222060Y-76845160D01*
X162072200Y-76845160D02*
X162222060Y-76845160D01*
X162072200Y-77144880D02*
X162072200Y-76845160D01*
X161622620Y-77144880D02*
X161922340Y-77144880D01*
X161922340Y-77144880D02*
X161922340Y-76845160D01*
X161622620Y-76845160D02*
X161922340Y-76845160D01*
X161622620Y-77144880D02*
X161622620Y-76845160D01*
X161373700Y-76695300D02*
X161373700Y-77594460D01*
X162171260Y-76695300D02*
X162171260Y-77594460D01*
X161195900Y-62598300D02*
X162095060Y-62598300D01*
X162095060Y-62598300D02*
X162095060Y-62199520D01*
X161195900Y-62199520D02*
X162095060Y-62199520D01*
X161195900Y-62598300D02*
X161195900Y-62199520D01*
X161195900Y-63896240D02*
X162095060Y-63896240D01*
X162095060Y-63896240D02*
X162095060Y-63497460D01*
X161195900Y-63497460D02*
X162095060Y-63497460D01*
X161195900Y-63896240D02*
X161195900Y-63497460D01*
X161195900Y-63047880D02*
X161345760Y-63047880D01*
X161345760Y-63047880D02*
X161345760Y-62748160D01*
X161195900Y-62748160D02*
X161345760Y-62748160D01*
X161195900Y-63047880D02*
X161195900Y-62748160D01*
X161945200Y-63047880D02*
X162095060Y-63047880D01*
X162095060Y-63047880D02*
X162095060Y-62748160D01*
X161945200Y-62748160D02*
X162095060Y-62748160D01*
X161945200Y-63047880D02*
X161945200Y-62748160D01*
X161495620Y-63047880D02*
X161795340Y-63047880D01*
X161795340Y-63047880D02*
X161795340Y-62748160D01*
X161495620Y-62748160D02*
X161795340Y-62748160D01*
X161495620Y-63047880D02*
X161495620Y-62748160D01*
X161246700Y-62598300D02*
X161246700Y-63497460D01*
X162044260Y-62598300D02*
X162044260Y-63497460D01*
X125214000Y-95840000D02*
X125214000Y-107840000D01*
X135214000Y-95840000D02*
X125214000Y-95840000D01*
X135214000Y-107840000D02*
X125214000Y-107840000D01*
X135214000Y-95840000D02*
X135214000Y-107840000D01*
X115214000Y-95840000D02*
X115214000Y-107840000D01*
X125214000Y-95840000D02*
X115214000Y-95840000D01*
X125214000Y-107840000D02*
X115214000Y-107840000D01*
X125214000Y-95840000D02*
X125214000Y-107840000D01*
X148765260Y-95829120D02*
X145366740Y-95829120D01*
X145366740Y-103329740D02*
X145366740Y-97330260D01*
X148765260Y-103329740D02*
X148765260Y-97330260D01*
X150119080Y-95328740D02*
X149019260Y-95328740D01*
X149618700Y-94729300D02*
X149618700Y-95928180D01*
X146970000Y-93634000D02*
X147670000Y-93634000D01*
X147670000Y-94834000D02*
X146970000Y-94834000D01*
X167806120Y-93755920D02*
X168506120Y-93755920D01*
X168506120Y-94955920D02*
X167806120Y-94955920D01*
X162789120Y-92485920D02*
X163489120Y-92485920D01*
X163489120Y-93685920D02*
X162789120Y-93685920D01*
X162789120Y-94771920D02*
X163489120Y-94771920D01*
X163489120Y-95971920D02*
X162789120Y-95971920D01*
X147670000Y-88484000D02*
X146970000Y-88484000D01*
X146970000Y-87284000D02*
X147670000Y-87284000D01*
X156464000Y-86316820D02*
X156464000Y-89715340D01*
X163964620Y-89715340D02*
X157965140Y-89715340D01*
X163964620Y-86316820D02*
X157965140Y-86316820D01*
X155963620Y-84963000D02*
X155963620Y-86062820D01*
X155364180Y-85463380D02*
X156563060Y-85463380D01*
X163497260Y-97353120D02*
X160098740Y-97353120D01*
X160098740Y-104853740D02*
X160098740Y-98854260D01*
X163497260Y-104853740D02*
X163497260Y-98854260D01*
X164851080Y-96852740D02*
X163751260Y-96852740D01*
X164350700Y-96253300D02*
X164350700Y-97452180D01*
X144291800Y-76518060D02*
X143591800Y-76518060D01*
X143591800Y-75318060D02*
X144291800Y-75318060D01*
X157438100Y-74746720D02*
X157438100Y-68346720D01*
X147438100Y-74746720D02*
X147438100Y-68346720D01*
X157438100Y-68346720D02*
X147438100Y-68346720D01*
X157438100Y-74746720D02*
X147438100Y-74746720D01*
X110906000Y-52928000D02*
X110906000Y-52228000D01*
X112106000Y-52228000D02*
X112106000Y-52928000D01*
X141712200Y-66227400D02*
X142412200Y-66227400D01*
X142412200Y-67427400D02*
X141712200Y-67427400D01*
X132506200Y-73269400D02*
X131806200Y-73269400D01*
X131806200Y-72069400D02*
X132506200Y-72069400D01*
X132506200Y-69713400D02*
X131806200Y-69713400D01*
X131806200Y-68513400D02*
X132506200Y-68513400D01*
X112106000Y-55784000D02*
X112106000Y-56484000D01*
X110906000Y-56484000D02*
X110906000Y-55784000D01*
X127094000Y-65954000D02*
X127094000Y-86954000D01*
X127094000Y-86954000D02*
X107094000Y-86954000D01*
X107094000Y-86954000D02*
X107094000Y-65954000D01*
X107094000Y-65954000D02*
X127094000Y-65954000D01*
X139312200Y-68136400D02*
X139312200Y-68436400D01*
X144812200Y-68136400D02*
X144812200Y-68436400D01*
X144812200Y-73646400D02*
X144812200Y-73346400D01*
X139312200Y-73646400D02*
X139312200Y-73346400D01*
X139312200Y-68136400D02*
X144812200Y-68136400D01*
X139312200Y-73646400D02*
X144812200Y-73646400D01*
X139312200Y-68436400D02*
X137562200Y-68436400D01*
X171882860Y-64886960D02*
X165075660Y-64886960D01*
X165075660Y-57901960D02*
X165075660Y-64861560D01*
X171882860Y-57901960D02*
X171882860Y-64861560D01*
X166853660Y-63235960D02*
G75*
G03X166853660Y-63235960I-508000J0D01*
G01*
X166345660Y-62727960D02*
X166345660Y-63743960D01*
X166345660Y-59171960D02*
X166345660Y-60187960D01*
X166853660Y-59679960D02*
G75*
G03X166853660Y-59679960I-508000J0D01*
G01*
X171425660Y-63743960D02*
X171425660Y-62473960D01*
X169901660Y-63743960D02*
X171425660Y-63743960D01*
X169901660Y-62473960D02*
X169901660Y-63743960D01*
X171425660Y-62473960D02*
X169901660Y-62473960D01*
X171425660Y-58917960D02*
X169901660Y-58917960D01*
X169901660Y-58917960D02*
X169901660Y-60187960D01*
X169901660Y-60187960D02*
X171425660Y-60187960D01*
X171425660Y-60187960D02*
X171425660Y-58917960D01*
X165075660Y-57901960D02*
X171875660Y-57901960D01*
X107456180Y-93535440D02*
X114263380Y-93535440D01*
X114263380Y-100520440D02*
X114263380Y-93560840D01*
X107456180Y-100520440D02*
X107456180Y-93560840D01*
X113501380Y-95186440D02*
G75*
G03X113501380Y-95186440I-508000J0D01*
G01*
X112993380Y-95694440D02*
X112993380Y-94678440D01*
X112993380Y-99250440D02*
X112993380Y-98234440D01*
X113501380Y-98742440D02*
G75*
G03X113501380Y-98742440I-508000J0D01*
G01*
X107913380Y-94678440D02*
X107913380Y-95948440D01*
X109437380Y-94678440D02*
X107913380Y-94678440D01*
X109437380Y-95948440D02*
X109437380Y-94678440D01*
X107913380Y-95948440D02*
X109437380Y-95948440D01*
X107913380Y-99504440D02*
X109437380Y-99504440D01*
X109437380Y-99504440D02*
X109437380Y-98234440D01*
X109437380Y-98234440D02*
X107913380Y-98234440D01*
X107913380Y-98234440D02*
X107913380Y-99504440D01*
X114263380Y-100520440D02*
X107463380Y-100520440D01*
X129663253Y-62773560D02*
G75*
G03X129663253Y-62773560I-397573J0D01*
G01*
X130019880Y-63367360D02*
X130019880Y-63222360D01*
X125869880Y-63367360D02*
X125869880Y-63222360D01*
X125869880Y-58217360D02*
X125869880Y-58362360D01*
X130019880Y-58217360D02*
X130019880Y-58362360D01*
X130019880Y-63367360D02*
X125869880Y-63367360D01*
X130019880Y-58217360D02*
X125869880Y-58217360D01*
X130019880Y-63222360D02*
X131419880Y-63222360D01*
X141052613Y-78064360D02*
G75*
G03X141052613Y-78064360I-397573J0D01*
G01*
X139900840Y-77470560D02*
X139900840Y-77615560D01*
X144050840Y-77470560D02*
X144050840Y-77615560D01*
X144050840Y-82620560D02*
X144050840Y-82475560D01*
X139900840Y-82620560D02*
X139900840Y-82475560D01*
X139900840Y-77470560D02*
X144050840Y-77470560D01*
X139900840Y-82620560D02*
X144050840Y-82620560D01*
X139900840Y-77615560D02*
X138500840Y-77615560D01*
X142504160Y-63482220D02*
X144764760Y-63482220D01*
X142504160Y-58910220D02*
X144764760Y-58910220D01*
X142504160Y-63482220D02*
X142250160Y-63482220D01*
X142504160Y-58910220D02*
X142250160Y-58910220D01*
X142377160Y-61196220D02*
G75*
G03X142377160Y-61196220I-2032000J0D01*
G01*
X135900160Y-58910220D02*
X142250160Y-58910220D01*
X144764760Y-58910220D02*
X144764760Y-63482220D01*
X142250160Y-63482220D02*
X135900160Y-63482220D01*
X135900160Y-63482220D02*
X135900160Y-58910220D01*
X134762976Y-73541641D02*
X135429643Y-74541641D01*
X135429643Y-73541641D02*
X134762976Y-74541641D01*
X136334405Y-74541641D02*
X135762976Y-74541641D01*
X136048690Y-74541641D02*
X136048690Y-73541641D01*
X135953452Y-73684498D01*
X135858214Y-73779736D01*
X135762976Y-73827355D01*
X153743755Y-93419681D02*
X153743755Y-94229205D01*
X153791374Y-94324443D01*
X153838993Y-94372062D01*
X153934231Y-94419681D01*
X154124708Y-94419681D01*
X154219946Y-94372062D01*
X154267565Y-94324443D01*
X154315184Y-94229205D01*
X154315184Y-93419681D01*
X154696136Y-93419681D02*
X155315184Y-93419681D01*
X154981850Y-93800633D01*
X155124708Y-93800633D01*
X155219946Y-93848252D01*
X155267565Y-93895871D01*
X155315184Y-93991110D01*
X155315184Y-94229205D01*
X155267565Y-94324443D01*
X155219946Y-94372062D01*
X155124708Y-94419681D01*
X154838993Y-94419681D01*
X154743755Y-94372062D01*
X154696136Y-94324443D01*
X167878523Y-97244161D02*
X167545189Y-96767970D01*
X167307094Y-97244161D02*
X167307094Y-96244161D01*
X167688047Y-96244161D01*
X167783285Y-96291780D01*
X167830904Y-96339399D01*
X167878523Y-96434637D01*
X167878523Y-96577494D01*
X167830904Y-96672732D01*
X167783285Y-96720351D01*
X167688047Y-96767970D01*
X167307094Y-96767970D01*
X168830904Y-97244161D02*
X168259475Y-97244161D01*
X168545189Y-97244161D02*
X168545189Y-96244161D01*
X168449951Y-96387018D01*
X168354713Y-96482256D01*
X168259475Y-96529875D01*
X169307094Y-97244161D02*
X169497570Y-97244161D01*
X169592809Y-97196542D01*
X169640428Y-97148923D01*
X169735666Y-97006066D01*
X169783285Y-96815590D01*
X169783285Y-96434637D01*
X169735666Y-96339399D01*
X169688047Y-96291780D01*
X169592809Y-96244161D01*
X169402332Y-96244161D01*
X169307094Y-96291780D01*
X169259475Y-96339399D01*
X169211856Y-96434637D01*
X169211856Y-96672732D01*
X169259475Y-96767970D01*
X169307094Y-96815590D01*
X169402332Y-96863209D01*
X169592809Y-96863209D01*
X169688047Y-96815590D01*
X169735666Y-96767970D01*
X169783285Y-96672732D01*
X167771843Y-94787981D02*
X167438509Y-94311790D01*
X167200414Y-94787981D02*
X167200414Y-93787981D01*
X167581367Y-93787981D01*
X167676605Y-93835600D01*
X167724224Y-93883219D01*
X167771843Y-93978457D01*
X167771843Y-94121314D01*
X167724224Y-94216552D01*
X167676605Y-94264171D01*
X167581367Y-94311790D01*
X167200414Y-94311790D01*
X168724224Y-94787981D02*
X168152795Y-94787981D01*
X168438509Y-94787981D02*
X168438509Y-93787981D01*
X168343271Y-93930838D01*
X168248033Y-94026076D01*
X168152795Y-94073695D01*
X169295652Y-94216552D02*
X169200414Y-94168933D01*
X169152795Y-94121314D01*
X169105176Y-94026076D01*
X169105176Y-93978457D01*
X169152795Y-93883219D01*
X169200414Y-93835600D01*
X169295652Y-93787981D01*
X169486129Y-93787981D01*
X169581367Y-93835600D01*
X169628986Y-93883219D01*
X169676605Y-93978457D01*
X169676605Y-94026076D01*
X169628986Y-94121314D01*
X169581367Y-94168933D01*
X169486129Y-94216552D01*
X169295652Y-94216552D01*
X169200414Y-94264171D01*
X169152795Y-94311790D01*
X169105176Y-94407029D01*
X169105176Y-94597505D01*
X169152795Y-94692743D01*
X169200414Y-94740362D01*
X169295652Y-94787981D01*
X169486129Y-94787981D01*
X169581367Y-94740362D01*
X169628986Y-94692743D01*
X169676605Y-94597505D01*
X169676605Y-94407029D01*
X169628986Y-94311790D01*
X169581367Y-94264171D01*
X169486129Y-94216552D01*
X167698183Y-87879181D02*
X167364849Y-87402990D01*
X167126754Y-87879181D02*
X167126754Y-86879181D01*
X167507707Y-86879181D01*
X167602945Y-86926800D01*
X167650564Y-86974419D01*
X167698183Y-87069657D01*
X167698183Y-87212514D01*
X167650564Y-87307752D01*
X167602945Y-87355371D01*
X167507707Y-87402990D01*
X167126754Y-87402990D01*
X168650564Y-87879181D02*
X168079135Y-87879181D01*
X168364849Y-87879181D02*
X168364849Y-86879181D01*
X168269611Y-87022038D01*
X168174373Y-87117276D01*
X168079135Y-87164895D01*
X168983897Y-86879181D02*
X169650564Y-86879181D01*
X169221992Y-87879181D01*
X166362143Y-90632541D02*
X166028809Y-90156350D01*
X165790714Y-90632541D02*
X165790714Y-89632541D01*
X166171667Y-89632541D01*
X166266905Y-89680160D01*
X166314524Y-89727779D01*
X166362143Y-89823017D01*
X166362143Y-89965874D01*
X166314524Y-90061112D01*
X166266905Y-90108731D01*
X166171667Y-90156350D01*
X165790714Y-90156350D01*
X167314524Y-90632541D02*
X166743095Y-90632541D01*
X167028809Y-90632541D02*
X167028809Y-89632541D01*
X166933571Y-89775398D01*
X166838333Y-89870636D01*
X166743095Y-89918255D01*
X168171667Y-89632541D02*
X167981190Y-89632541D01*
X167885952Y-89680160D01*
X167838333Y-89727779D01*
X167743095Y-89870636D01*
X167695476Y-90061112D01*
X167695476Y-90442065D01*
X167743095Y-90537303D01*
X167790714Y-90584922D01*
X167885952Y-90632541D01*
X168076429Y-90632541D01*
X168171667Y-90584922D01*
X168219286Y-90537303D01*
X168266905Y-90442065D01*
X168266905Y-90203970D01*
X168219286Y-90108731D01*
X168171667Y-90061112D01*
X168076429Y-90013493D01*
X167885952Y-90013493D01*
X167790714Y-90061112D01*
X167743095Y-90108731D01*
X167695476Y-90203970D01*
X162217361Y-74475577D02*
X161741170Y-74808911D01*
X162217361Y-75047006D02*
X161217361Y-75047006D01*
X161217361Y-74666053D01*
X161264980Y-74570815D01*
X161312599Y-74523196D01*
X161407837Y-74475577D01*
X161550694Y-74475577D01*
X161645932Y-74523196D01*
X161693551Y-74570815D01*
X161741170Y-74666053D01*
X161741170Y-75047006D01*
X162217361Y-73523196D02*
X162217361Y-74094625D01*
X162217361Y-73808911D02*
X161217361Y-73808911D01*
X161360218Y-73904149D01*
X161455456Y-73999387D01*
X161503075Y-74094625D01*
X161217361Y-73189863D02*
X161217361Y-72570815D01*
X161598313Y-72904149D01*
X161598313Y-72761291D01*
X161645932Y-72666053D01*
X161693551Y-72618434D01*
X161788790Y-72570815D01*
X162026885Y-72570815D01*
X162122123Y-72618434D01*
X162169742Y-72666053D01*
X162217361Y-72761291D01*
X162217361Y-73047006D01*
X162169742Y-73142244D01*
X162122123Y-73189863D01*
X135707381Y-85461077D02*
X135231190Y-85794411D01*
X135707381Y-86032506D02*
X134707381Y-86032506D01*
X134707381Y-85651553D01*
X134755000Y-85556315D01*
X134802619Y-85508696D01*
X134897857Y-85461077D01*
X135040714Y-85461077D01*
X135135952Y-85508696D01*
X135183571Y-85556315D01*
X135231190Y-85651553D01*
X135231190Y-86032506D01*
X135707381Y-84508696D02*
X135707381Y-85080125D01*
X135707381Y-84794411D02*
X134707381Y-84794411D01*
X134850238Y-84889649D01*
X134945476Y-84984887D01*
X134993095Y-85080125D01*
X134802619Y-84127744D02*
X134755000Y-84080125D01*
X134707381Y-83984887D01*
X134707381Y-83746791D01*
X134755000Y-83651553D01*
X134802619Y-83603934D01*
X134897857Y-83556315D01*
X134993095Y-83556315D01*
X135135952Y-83603934D01*
X135707381Y-84175363D01*
X135707381Y-83556315D01*
X165346641Y-71107537D02*
X164870450Y-71440871D01*
X165346641Y-71678966D02*
X164346641Y-71678966D01*
X164346641Y-71298013D01*
X164394260Y-71202775D01*
X164441879Y-71155156D01*
X164537117Y-71107537D01*
X164679974Y-71107537D01*
X164775212Y-71155156D01*
X164822831Y-71202775D01*
X164870450Y-71298013D01*
X164870450Y-71678966D01*
X165346641Y-70155156D02*
X165346641Y-70726585D01*
X165346641Y-70440871D02*
X164346641Y-70440871D01*
X164489498Y-70536109D01*
X164584736Y-70631347D01*
X164632355Y-70726585D01*
X165346641Y-69202775D02*
X165346641Y-69774204D01*
X165346641Y-69488490D02*
X164346641Y-69488490D01*
X164489498Y-69583728D01*
X164584736Y-69678966D01*
X164632355Y-69774204D01*
X134043681Y-90294697D02*
X133567490Y-90628031D01*
X134043681Y-90866126D02*
X133043681Y-90866126D01*
X133043681Y-90485173D01*
X133091300Y-90389935D01*
X133138919Y-90342316D01*
X133234157Y-90294697D01*
X133377014Y-90294697D01*
X133472252Y-90342316D01*
X133519871Y-90389935D01*
X133567490Y-90485173D01*
X133567490Y-90866126D01*
X134043681Y-89342316D02*
X134043681Y-89913745D01*
X134043681Y-89628031D02*
X133043681Y-89628031D01*
X133186538Y-89723269D01*
X133281776Y-89818507D01*
X133329395Y-89913745D01*
X133043681Y-88723269D02*
X133043681Y-88628030D01*
X133091300Y-88532792D01*
X133138919Y-88485173D01*
X133234157Y-88437554D01*
X133424633Y-88389935D01*
X133662729Y-88389935D01*
X133853205Y-88437554D01*
X133948443Y-88485173D01*
X133996062Y-88532792D01*
X134043681Y-88628030D01*
X134043681Y-88723269D01*
X133996062Y-88818507D01*
X133948443Y-88866126D01*
X133853205Y-88913745D01*
X133662729Y-88961364D01*
X133424633Y-88961364D01*
X133234157Y-88913745D01*
X133138919Y-88866126D01*
X133091300Y-88818507D01*
X133043681Y-88723269D01*
X131003301Y-89841366D02*
X130527110Y-90174700D01*
X131003301Y-90412795D02*
X130003301Y-90412795D01*
X130003301Y-90031842D01*
X130050920Y-89936604D01*
X130098539Y-89888985D01*
X130193777Y-89841366D01*
X130336634Y-89841366D01*
X130431872Y-89888985D01*
X130479491Y-89936604D01*
X130527110Y-90031842D01*
X130527110Y-90412795D01*
X131003301Y-89365176D02*
X131003301Y-89174700D01*
X130955682Y-89079461D01*
X130908063Y-89031842D01*
X130765206Y-88936604D01*
X130574730Y-88888985D01*
X130193777Y-88888985D01*
X130098539Y-88936604D01*
X130050920Y-88984223D01*
X130003301Y-89079461D01*
X130003301Y-89269938D01*
X130050920Y-89365176D01*
X130098539Y-89412795D01*
X130193777Y-89460414D01*
X130431872Y-89460414D01*
X130527110Y-89412795D01*
X130574730Y-89365176D01*
X130622349Y-89269938D01*
X130622349Y-89079461D01*
X130574730Y-88984223D01*
X130527110Y-88936604D01*
X130431872Y-88888985D01*
X162313881Y-81012326D02*
X161837690Y-81345660D01*
X162313881Y-81583755D02*
X161313881Y-81583755D01*
X161313881Y-81202802D01*
X161361500Y-81107564D01*
X161409119Y-81059945D01*
X161504357Y-81012326D01*
X161647214Y-81012326D01*
X161742452Y-81059945D01*
X161790071Y-81107564D01*
X161837690Y-81202802D01*
X161837690Y-81583755D01*
X161742452Y-80440898D02*
X161694833Y-80536136D01*
X161647214Y-80583755D01*
X161551976Y-80631374D01*
X161504357Y-80631374D01*
X161409119Y-80583755D01*
X161361500Y-80536136D01*
X161313881Y-80440898D01*
X161313881Y-80250421D01*
X161361500Y-80155183D01*
X161409119Y-80107564D01*
X161504357Y-80059945D01*
X161551976Y-80059945D01*
X161647214Y-80107564D01*
X161694833Y-80155183D01*
X161742452Y-80250421D01*
X161742452Y-80440898D01*
X161790071Y-80536136D01*
X161837690Y-80583755D01*
X161932929Y-80631374D01*
X162123405Y-80631374D01*
X162218643Y-80583755D01*
X162266262Y-80536136D01*
X162313881Y-80440898D01*
X162313881Y-80250421D01*
X162266262Y-80155183D01*
X162218643Y-80107564D01*
X162123405Y-80059945D01*
X161932929Y-80059945D01*
X161837690Y-80107564D01*
X161790071Y-80155183D01*
X161742452Y-80250421D01*
X164861501Y-77133746D02*
X164385310Y-77467080D01*
X164861501Y-77705175D02*
X163861501Y-77705175D01*
X163861501Y-77324222D01*
X163909120Y-77228984D01*
X163956739Y-77181365D01*
X164051977Y-77133746D01*
X164194834Y-77133746D01*
X164290072Y-77181365D01*
X164337691Y-77228984D01*
X164385310Y-77324222D01*
X164385310Y-77705175D01*
X163861501Y-76800413D02*
X163861501Y-76133746D01*
X164861501Y-76562318D01*
X162186881Y-66938186D02*
X161710690Y-67271520D01*
X162186881Y-67509615D02*
X161186881Y-67509615D01*
X161186881Y-67128662D01*
X161234500Y-67033424D01*
X161282119Y-66985805D01*
X161377357Y-66938186D01*
X161520214Y-66938186D01*
X161615452Y-66985805D01*
X161663071Y-67033424D01*
X161710690Y-67128662D01*
X161710690Y-67509615D01*
X161186881Y-66081043D02*
X161186881Y-66271520D01*
X161234500Y-66366758D01*
X161282119Y-66414377D01*
X161424976Y-66509615D01*
X161615452Y-66557234D01*
X161996405Y-66557234D01*
X162091643Y-66509615D01*
X162139262Y-66461996D01*
X162186881Y-66366758D01*
X162186881Y-66176281D01*
X162139262Y-66081043D01*
X162091643Y-66033424D01*
X161996405Y-65985805D01*
X161758310Y-65985805D01*
X161663071Y-66033424D01*
X161615452Y-66081043D01*
X161567833Y-66176281D01*
X161567833Y-66366758D01*
X161615452Y-66461996D01*
X161663071Y-66509615D01*
X161758310Y-66557234D01*
X158740101Y-77590946D02*
X158263910Y-77924280D01*
X158740101Y-78162375D02*
X157740101Y-78162375D01*
X157740101Y-77781422D01*
X157787720Y-77686184D01*
X157835339Y-77638565D01*
X157930577Y-77590946D01*
X158073434Y-77590946D01*
X158168672Y-77638565D01*
X158216291Y-77686184D01*
X158263910Y-77781422D01*
X158263910Y-78162375D01*
X157740101Y-76686184D02*
X157740101Y-77162375D01*
X158216291Y-77209994D01*
X158168672Y-77162375D01*
X158121053Y-77067137D01*
X158121053Y-76829041D01*
X158168672Y-76733803D01*
X158216291Y-76686184D01*
X158311530Y-76638565D01*
X158549625Y-76638565D01*
X158644863Y-76686184D01*
X158692482Y-76733803D01*
X158740101Y-76829041D01*
X158740101Y-77067137D01*
X158692482Y-77162375D01*
X158644863Y-77209994D01*
X158762961Y-80847226D02*
X158286770Y-81180560D01*
X158762961Y-81418655D02*
X157762961Y-81418655D01*
X157762961Y-81037702D01*
X157810580Y-80942464D01*
X157858199Y-80894845D01*
X157953437Y-80847226D01*
X158096294Y-80847226D01*
X158191532Y-80894845D01*
X158239151Y-80942464D01*
X158286770Y-81037702D01*
X158286770Y-81418655D01*
X158096294Y-79990083D02*
X158762961Y-79990083D01*
X157715342Y-80228179D02*
X158429628Y-80466274D01*
X158429628Y-79847226D01*
X164815781Y-63128186D02*
X164339590Y-63461520D01*
X164815781Y-63699615D02*
X163815781Y-63699615D01*
X163815781Y-63318662D01*
X163863400Y-63223424D01*
X163911019Y-63175805D01*
X164006257Y-63128186D01*
X164149114Y-63128186D01*
X164244352Y-63175805D01*
X164291971Y-63223424D01*
X164339590Y-63318662D01*
X164339590Y-63699615D01*
X163815781Y-62794853D02*
X163815781Y-62175805D01*
X164196733Y-62509139D01*
X164196733Y-62366281D01*
X164244352Y-62271043D01*
X164291971Y-62223424D01*
X164387210Y-62175805D01*
X164625305Y-62175805D01*
X164720543Y-62223424D01*
X164768162Y-62271043D01*
X164815781Y-62366281D01*
X164815781Y-62651996D01*
X164768162Y-62747234D01*
X164720543Y-62794853D01*
X156001981Y-77590946D02*
X155525790Y-77924280D01*
X156001981Y-78162375D02*
X155001981Y-78162375D01*
X155001981Y-77781422D01*
X155049600Y-77686184D01*
X155097219Y-77638565D01*
X155192457Y-77590946D01*
X155335314Y-77590946D01*
X155430552Y-77638565D01*
X155478171Y-77686184D01*
X155525790Y-77781422D01*
X155525790Y-78162375D01*
X155097219Y-77209994D02*
X155049600Y-77162375D01*
X155001981Y-77067137D01*
X155001981Y-76829041D01*
X155049600Y-76733803D01*
X155097219Y-76686184D01*
X155192457Y-76638565D01*
X155287695Y-76638565D01*
X155430552Y-76686184D01*
X156001981Y-77257613D01*
X156001981Y-76638565D01*
X135288994Y-66136781D02*
X134955660Y-65660590D01*
X134717565Y-66136781D02*
X134717565Y-65136781D01*
X135098518Y-65136781D01*
X135193756Y-65184400D01*
X135241375Y-65232019D01*
X135288994Y-65327257D01*
X135288994Y-65470114D01*
X135241375Y-65565352D01*
X135193756Y-65612971D01*
X135098518Y-65660590D01*
X134717565Y-65660590D01*
X136241375Y-66136781D02*
X135669946Y-66136781D01*
X135955660Y-66136781D02*
X135955660Y-65136781D01*
X135860422Y-65279638D01*
X135765184Y-65374876D01*
X135669946Y-65422495D01*
X164179262Y-75442059D02*
X164084024Y-75394440D01*
X163988786Y-75299202D01*
X163845929Y-75156345D01*
X163750690Y-75108726D01*
X163655452Y-75108726D01*
X163703071Y-75346821D02*
X163607833Y-75299202D01*
X163512595Y-75203964D01*
X163464976Y-75013488D01*
X163464976Y-74680154D01*
X163512595Y-74489678D01*
X163607833Y-74394440D01*
X163703071Y-74346821D01*
X163893548Y-74346821D01*
X163988786Y-74394440D01*
X164084024Y-74489678D01*
X164131643Y-74680154D01*
X164131643Y-75013488D01*
X164084024Y-75203964D01*
X163988786Y-75299202D01*
X163893548Y-75346821D01*
X163703071Y-75346821D01*
X164988786Y-74680154D02*
X164988786Y-75346821D01*
X164750690Y-74299202D02*
X164512595Y-75013488D01*
X165131643Y-75013488D01*
X164275782Y-82648039D02*
X164180544Y-82600420D01*
X164085306Y-82505182D01*
X163942449Y-82362325D01*
X163847210Y-82314706D01*
X163751972Y-82314706D01*
X163799591Y-82552801D02*
X163704353Y-82505182D01*
X163609115Y-82409944D01*
X163561496Y-82219468D01*
X163561496Y-81886134D01*
X163609115Y-81695658D01*
X163704353Y-81600420D01*
X163799591Y-81552801D01*
X163990068Y-81552801D01*
X164085306Y-81600420D01*
X164180544Y-81695658D01*
X164228163Y-81886134D01*
X164228163Y-82219468D01*
X164180544Y-82409944D01*
X164085306Y-82505182D01*
X163990068Y-82552801D01*
X163799591Y-82552801D01*
X164561496Y-81552801D02*
X165180544Y-81552801D01*
X164847210Y-81933753D01*
X164990068Y-81933753D01*
X165085306Y-81981372D01*
X165132925Y-82028991D01*
X165180544Y-82124230D01*
X165180544Y-82362325D01*
X165132925Y-82457563D01*
X165085306Y-82505182D01*
X164990068Y-82552801D01*
X164704353Y-82552801D01*
X164609115Y-82505182D01*
X164561496Y-82457563D01*
X163973522Y-68413879D02*
X163878284Y-68366260D01*
X163783046Y-68271022D01*
X163640189Y-68128165D01*
X163544950Y-68080546D01*
X163449712Y-68080546D01*
X163497331Y-68318641D02*
X163402093Y-68271022D01*
X163306855Y-68175784D01*
X163259236Y-67985308D01*
X163259236Y-67651974D01*
X163306855Y-67461498D01*
X163402093Y-67366260D01*
X163497331Y-67318641D01*
X163687808Y-67318641D01*
X163783046Y-67366260D01*
X163878284Y-67461498D01*
X163925903Y-67651974D01*
X163925903Y-67985308D01*
X163878284Y-68175784D01*
X163783046Y-68271022D01*
X163687808Y-68318641D01*
X163497331Y-68318641D01*
X164306855Y-67413879D02*
X164354474Y-67366260D01*
X164449712Y-67318641D01*
X164687808Y-67318641D01*
X164783046Y-67366260D01*
X164830665Y-67413879D01*
X164878284Y-67509117D01*
X164878284Y-67604355D01*
X164830665Y-67747212D01*
X164259236Y-68318641D01*
X164878284Y-68318641D01*
X155378162Y-82609939D02*
X155282924Y-82562320D01*
X155187686Y-82467082D01*
X155044829Y-82324225D01*
X154949590Y-82276606D01*
X154854352Y-82276606D01*
X154901971Y-82514701D02*
X154806733Y-82467082D01*
X154711495Y-82371844D01*
X154663876Y-82181368D01*
X154663876Y-81848034D01*
X154711495Y-81657558D01*
X154806733Y-81562320D01*
X154901971Y-81514701D01*
X155092448Y-81514701D01*
X155187686Y-81562320D01*
X155282924Y-81657558D01*
X155330543Y-81848034D01*
X155330543Y-82181368D01*
X155282924Y-82371844D01*
X155187686Y-82467082D01*
X155092448Y-82514701D01*
X154901971Y-82514701D01*
X156282924Y-82514701D02*
X155711495Y-82514701D01*
X155997209Y-82514701D02*
X155997209Y-81514701D01*
X155901971Y-81657558D01*
X155806733Y-81752796D01*
X155711495Y-81800415D01*
X116879145Y-53855881D02*
X116879145Y-52855881D01*
X117260098Y-52855881D01*
X117355336Y-52903500D01*
X117402955Y-52951119D01*
X117450574Y-53046357D01*
X117450574Y-53189214D01*
X117402955Y-53284452D01*
X117355336Y-53332071D01*
X117260098Y-53379690D01*
X116879145Y-53379690D01*
X117783907Y-52855881D02*
X118402955Y-52855881D01*
X118069621Y-53236833D01*
X118212479Y-53236833D01*
X118307717Y-53284452D01*
X118355336Y-53332071D01*
X118402955Y-53427310D01*
X118402955Y-53665405D01*
X118355336Y-53760643D01*
X118307717Y-53808262D01*
X118212479Y-53855881D01*
X117926764Y-53855881D01*
X117831526Y-53808262D01*
X117783907Y-53760643D01*
X169453821Y-71380575D02*
X168453821Y-71380575D01*
X168453821Y-70999622D01*
X168501440Y-70904384D01*
X168549059Y-70856765D01*
X168644297Y-70809146D01*
X168787154Y-70809146D01*
X168882392Y-70856765D01*
X168930011Y-70904384D01*
X168977630Y-70999622D01*
X168977630Y-71380575D01*
X168549059Y-70428194D02*
X168501440Y-70380575D01*
X168453821Y-70285337D01*
X168453821Y-70047241D01*
X168501440Y-69952003D01*
X168549059Y-69904384D01*
X168644297Y-69856765D01*
X168739535Y-69856765D01*
X168882392Y-69904384D01*
X169453821Y-70475813D01*
X169453821Y-69856765D01*
X138260566Y-66133277D02*
X138260566Y-64933277D01*
X138717709Y-64933277D01*
X138831995Y-64990420D01*
X138889138Y-65047563D01*
X138946281Y-65161849D01*
X138946281Y-65333277D01*
X138889138Y-65447563D01*
X138831995Y-65504706D01*
X138717709Y-65561849D01*
X138260566Y-65561849D01*
X140089138Y-66133277D02*
X139403423Y-66133277D01*
X139746281Y-66133277D02*
X139746281Y-64933277D01*
X139631995Y-65104706D01*
X139517709Y-65218991D01*
X139403423Y-65276134D01*
X140585381Y-100619951D02*
X139871095Y-100619951D01*
X139871095Y-99119951D01*
X141013952Y-99262809D02*
X141085381Y-99191380D01*
X141228238Y-99119951D01*
X141585381Y-99119951D01*
X141728238Y-99191380D01*
X141799667Y-99262809D01*
X141871095Y-99405666D01*
X141871095Y-99548523D01*
X141799667Y-99762809D01*
X140942524Y-100619951D01*
X141871095Y-100619951D01*
X140598081Y-90406611D02*
X139883795Y-90406611D01*
X139883795Y-88906611D01*
X141883795Y-90406611D02*
X141026652Y-90406611D01*
X141455224Y-90406611D02*
X141455224Y-88906611D01*
X141312367Y-89120897D01*
X141169509Y-89263754D01*
X141026652Y-89335183D01*
X134429287Y-77943461D02*
X134429287Y-78657747D01*
X134381667Y-78800604D01*
X134286429Y-78895842D01*
X134143572Y-78943461D01*
X134048334Y-78943461D01*
X134905477Y-78943461D02*
X134905477Y-77943461D01*
X135286430Y-77943461D01*
X135381668Y-77991080D01*
X135429287Y-78038699D01*
X135476906Y-78133937D01*
X135476906Y-78276794D01*
X135429287Y-78372032D01*
X135381668Y-78419651D01*
X135286430Y-78467270D01*
X134905477Y-78467270D01*
X136429287Y-78943461D02*
X135857858Y-78943461D01*
X136143572Y-78943461D02*
X136143572Y-77943461D01*
X136048334Y-78086318D01*
X135953096Y-78181556D01*
X135857858Y-78229175D01*
X156741905Y-104410381D02*
X156741905Y-103410381D01*
X156980000Y-103410381D01*
X157122858Y-103458000D01*
X157218096Y-103553238D01*
X157265715Y-103648476D01*
X157313334Y-103838952D01*
X157313334Y-103981810D01*
X157265715Y-104172286D01*
X157218096Y-104267524D01*
X157122858Y-104362762D01*
X156980000Y-104410381D01*
X156741905Y-104410381D01*
X157646667Y-103410381D02*
X158313334Y-103410381D01*
X157884762Y-104410381D01*
X153583901Y-103996715D02*
X152583901Y-103996715D01*
X152583901Y-103758620D01*
X152631520Y-103615762D01*
X152726758Y-103520524D01*
X152821996Y-103472905D01*
X153012472Y-103425286D01*
X153155330Y-103425286D01*
X153345806Y-103472905D01*
X153441044Y-103520524D01*
X153536282Y-103615762D01*
X153583901Y-103758620D01*
X153583901Y-103996715D01*
X152583901Y-102568143D02*
X152583901Y-102758620D01*
X152631520Y-102853858D01*
X152679139Y-102901477D01*
X152821996Y-102996715D01*
X153012472Y-103044334D01*
X153393425Y-103044334D01*
X153488663Y-102996715D01*
X153536282Y-102949096D01*
X153583901Y-102853858D01*
X153583901Y-102663381D01*
X153536282Y-102568143D01*
X153488663Y-102520524D01*
X153393425Y-102472905D01*
X153155330Y-102472905D01*
X153060091Y-102520524D01*
X153012472Y-102568143D01*
X152964853Y-102663381D01*
X152964853Y-102853858D01*
X153012472Y-102949096D01*
X153060091Y-102996715D01*
X153155330Y-103044334D01*
X150410381Y-99723905D02*
X149410381Y-99723905D01*
X150410381Y-99152476D02*
X149838952Y-99581048D01*
X149410381Y-99152476D02*
X149981810Y-99723905D01*
X150174667Y-105500095D02*
X150174667Y-105023904D01*
X150460381Y-105595333D02*
X149460381Y-105262000D01*
X150460381Y-104928666D01*
X150071865Y-84018381D02*
X150071865Y-83018381D01*
X150309960Y-83018381D01*
X150452818Y-83066000D01*
X150548056Y-83161238D01*
X150595675Y-83256476D01*
X150643294Y-83446952D01*
X150643294Y-83589810D01*
X150595675Y-83780286D01*
X150548056Y-83875524D01*
X150452818Y-83970762D01*
X150309960Y-84018381D01*
X150071865Y-84018381D01*
X151548056Y-83018381D02*
X151071865Y-83018381D01*
X151024246Y-83494571D01*
X151071865Y-83446952D01*
X151167103Y-83399333D01*
X151405199Y-83399333D01*
X151500437Y-83446952D01*
X151548056Y-83494571D01*
X151595675Y-83589810D01*
X151595675Y-83827905D01*
X151548056Y-83923143D01*
X151500437Y-83970762D01*
X151405199Y-84018381D01*
X151167103Y-84018381D01*
X151071865Y-83970762D01*
X151024246Y-83923143D01*
X145407095Y-84145381D02*
X145407095Y-83145381D01*
X145978524Y-84145381D02*
X145549952Y-83573952D01*
X145978524Y-83145381D02*
X145407095Y-83716810D01*
X153685905Y-83605667D02*
X154162096Y-83605667D01*
X153590667Y-83891381D02*
X153924000Y-82891381D01*
X154257334Y-83891381D01*
X152177525Y-89024721D02*
X152177525Y-88024721D01*
X152415620Y-88024721D01*
X152558478Y-88072340D01*
X152653716Y-88167578D01*
X152701335Y-88262816D01*
X152748954Y-88453292D01*
X152748954Y-88596150D01*
X152701335Y-88786626D01*
X152653716Y-88881864D01*
X152558478Y-88977102D01*
X152415620Y-89024721D01*
X152177525Y-89024721D01*
X153606097Y-88358054D02*
X153606097Y-89024721D01*
X153368001Y-87977102D02*
X153129906Y-88691388D01*
X153748954Y-88691388D01*
X160947361Y-70877655D02*
X159947361Y-70877655D01*
X159947361Y-70639560D01*
X159994980Y-70496702D01*
X160090218Y-70401464D01*
X160185456Y-70353845D01*
X160375932Y-70306226D01*
X160518790Y-70306226D01*
X160709266Y-70353845D01*
X160804504Y-70401464D01*
X160899742Y-70496702D01*
X160947361Y-70639560D01*
X160947361Y-70877655D01*
X159947361Y-69972893D02*
X159947361Y-69353845D01*
X160328313Y-69687179D01*
X160328313Y-69544321D01*
X160375932Y-69449083D01*
X160423551Y-69401464D01*
X160518790Y-69353845D01*
X160756885Y-69353845D01*
X160852123Y-69401464D01*
X160899742Y-69449083D01*
X160947361Y-69544321D01*
X160947361Y-69830036D01*
X160899742Y-69925274D01*
X160852123Y-69972893D01*
X163225741Y-78009975D02*
X162225741Y-78009975D01*
X162225741Y-77771880D01*
X162273360Y-77629022D01*
X162368598Y-77533784D01*
X162463836Y-77486165D01*
X162654312Y-77438546D01*
X162797170Y-77438546D01*
X162987646Y-77486165D01*
X163082884Y-77533784D01*
X163178122Y-77629022D01*
X163225741Y-77771880D01*
X163225741Y-78009975D01*
X162320979Y-77057594D02*
X162273360Y-77009975D01*
X162225741Y-76914737D01*
X162225741Y-76676641D01*
X162273360Y-76581403D01*
X162320979Y-76533784D01*
X162416217Y-76486165D01*
X162511455Y-76486165D01*
X162654312Y-76533784D01*
X163225741Y-77105213D01*
X163225741Y-76486165D01*
X160975301Y-63788515D02*
X159975301Y-63788515D01*
X159975301Y-63550420D01*
X160022920Y-63407562D01*
X160118158Y-63312324D01*
X160213396Y-63264705D01*
X160403872Y-63217086D01*
X160546730Y-63217086D01*
X160737206Y-63264705D01*
X160832444Y-63312324D01*
X160927682Y-63407562D01*
X160975301Y-63550420D01*
X160975301Y-63788515D01*
X160975301Y-62264705D02*
X160975301Y-62836134D01*
X160975301Y-62550420D02*
X159975301Y-62550420D01*
X160118158Y-62645658D01*
X160213396Y-62740896D01*
X160261015Y-62836134D01*
X126745715Y-106535714D02*
X126674286Y-106607143D01*
X126460000Y-106678571D01*
X126317143Y-106678571D01*
X126102858Y-106607143D01*
X125960000Y-106464286D01*
X125888572Y-106321429D01*
X125817143Y-106035714D01*
X125817143Y-105821429D01*
X125888572Y-105535714D01*
X125960000Y-105392857D01*
X126102858Y-105250000D01*
X126317143Y-105178571D01*
X126460000Y-105178571D01*
X126674286Y-105250000D01*
X126745715Y-105321429D01*
X127674286Y-105178571D02*
X127960000Y-105178571D01*
X128102858Y-105250000D01*
X128245715Y-105392857D01*
X128317143Y-105678571D01*
X128317143Y-106178571D01*
X128245715Y-106464286D01*
X128102858Y-106607143D01*
X127960000Y-106678571D01*
X127674286Y-106678571D01*
X127531429Y-106607143D01*
X127388572Y-106464286D01*
X127317143Y-106178571D01*
X127317143Y-105678571D01*
X127388572Y-105392857D01*
X127531429Y-105250000D01*
X127674286Y-105178571D01*
X128960001Y-106678571D02*
X128960001Y-105178571D01*
X129460001Y-106250000D01*
X129960001Y-105178571D01*
X129960001Y-106678571D01*
X130317144Y-106821429D02*
X131460001Y-106821429D01*
X132317144Y-105892857D02*
X132531430Y-105964286D01*
X132602858Y-106035714D01*
X132674287Y-106178571D01*
X132674287Y-106392857D01*
X132602858Y-106535714D01*
X132531430Y-106607143D01*
X132388572Y-106678571D01*
X131817144Y-106678571D01*
X131817144Y-105178571D01*
X132317144Y-105178571D01*
X132460001Y-105250000D01*
X132531430Y-105321429D01*
X132602858Y-105464286D01*
X132602858Y-105607143D01*
X132531430Y-105750000D01*
X132460001Y-105821429D01*
X132317144Y-105892857D01*
X131817144Y-105892857D01*
X134102858Y-106678571D02*
X133245715Y-106678571D01*
X133674287Y-106678571D02*
X133674287Y-105178571D01*
X133531430Y-105392857D01*
X133388572Y-105535714D01*
X133245715Y-105607143D01*
X116852858Y-106535714D02*
X116781429Y-106607143D01*
X116567143Y-106678571D01*
X116424286Y-106678571D01*
X116210001Y-106607143D01*
X116067143Y-106464286D01*
X115995715Y-106321429D01*
X115924286Y-106035714D01*
X115924286Y-105821429D01*
X115995715Y-105535714D01*
X116067143Y-105392857D01*
X116210001Y-105250000D01*
X116424286Y-105178571D01*
X116567143Y-105178571D01*
X116781429Y-105250000D01*
X116852858Y-105321429D01*
X117781429Y-105178571D02*
X118067143Y-105178571D01*
X118210001Y-105250000D01*
X118352858Y-105392857D01*
X118424286Y-105678571D01*
X118424286Y-106178571D01*
X118352858Y-106464286D01*
X118210001Y-106607143D01*
X118067143Y-106678571D01*
X117781429Y-106678571D01*
X117638572Y-106607143D01*
X117495715Y-106464286D01*
X117424286Y-106178571D01*
X117424286Y-105678571D01*
X117495715Y-105392857D01*
X117638572Y-105250000D01*
X117781429Y-105178571D01*
X119067144Y-106678571D02*
X119067144Y-105178571D01*
X119567144Y-106250000D01*
X120067144Y-105178571D01*
X120067144Y-106678571D01*
X120424287Y-106821429D02*
X121567144Y-106821429D01*
X121852858Y-106250000D02*
X122567144Y-106250000D01*
X121710001Y-106678571D02*
X122210001Y-105178571D01*
X122710001Y-106678571D01*
X123995715Y-106678571D02*
X123138572Y-106678571D01*
X123567144Y-106678571D02*
X123567144Y-105178571D01*
X123424287Y-105392857D01*
X123281429Y-105535714D01*
X123138572Y-105607143D01*
X147600943Y-101191297D02*
X147648562Y-101238916D01*
X147696181Y-101381773D01*
X147696181Y-101477011D01*
X147648562Y-101619869D01*
X147553324Y-101715107D01*
X147458086Y-101762726D01*
X147267610Y-101810345D01*
X147124752Y-101810345D01*
X146934276Y-101762726D01*
X146839038Y-101715107D01*
X146743800Y-101619869D01*
X146696181Y-101477011D01*
X146696181Y-101381773D01*
X146743800Y-101238916D01*
X146791419Y-101191297D01*
X147696181Y-100238916D02*
X147696181Y-100810345D01*
X147696181Y-100524631D02*
X146696181Y-100524631D01*
X146839038Y-100619869D01*
X146934276Y-100715107D01*
X146981895Y-100810345D01*
X147124752Y-99667488D02*
X147077133Y-99762726D01*
X147029514Y-99810345D01*
X146934276Y-99857964D01*
X146886657Y-99857964D01*
X146791419Y-99810345D01*
X146743800Y-99762726D01*
X146696181Y-99667488D01*
X146696181Y-99477011D01*
X146743800Y-99381773D01*
X146791419Y-99334154D01*
X146886657Y-99286535D01*
X146934276Y-99286535D01*
X147029514Y-99334154D01*
X147077133Y-99381773D01*
X147124752Y-99477011D01*
X147124752Y-99667488D01*
X147172371Y-99762726D01*
X147219990Y-99810345D01*
X147315229Y-99857964D01*
X147505705Y-99857964D01*
X147600943Y-99810345D01*
X147648562Y-99762726D01*
X147696181Y-99667488D01*
X147696181Y-99477011D01*
X147648562Y-99381773D01*
X147600943Y-99334154D01*
X147505705Y-99286535D01*
X147315229Y-99286535D01*
X147219990Y-99334154D01*
X147172371Y-99381773D01*
X147124752Y-99477011D01*
X149687589Y-95712232D02*
X149687589Y-94950327D01*
X150068541Y-95331279D02*
X149306636Y-95331279D01*
X146710163Y-94685123D02*
X146662544Y-94732742D01*
X146519687Y-94780361D01*
X146424449Y-94780361D01*
X146281591Y-94732742D01*
X146186353Y-94637504D01*
X146138734Y-94542266D01*
X146091115Y-94351790D01*
X146091115Y-94208932D01*
X146138734Y-94018456D01*
X146186353Y-93923218D01*
X146281591Y-93827980D01*
X146424449Y-93780361D01*
X146519687Y-93780361D01*
X146662544Y-93827980D01*
X146710163Y-93875599D01*
X147662544Y-94780361D02*
X147091115Y-94780361D01*
X147376829Y-94780361D02*
X147376829Y-93780361D01*
X147281591Y-93923218D01*
X147186353Y-94018456D01*
X147091115Y-94066075D01*
X147995877Y-93780361D02*
X148662544Y-93780361D01*
X148233972Y-94780361D01*
X167807403Y-92488023D02*
X167759784Y-92535642D01*
X167616927Y-92583261D01*
X167521689Y-92583261D01*
X167378831Y-92535642D01*
X167283593Y-92440404D01*
X167235974Y-92345166D01*
X167188355Y-92154690D01*
X167188355Y-92011832D01*
X167235974Y-91821356D01*
X167283593Y-91726118D01*
X167378831Y-91630880D01*
X167521689Y-91583261D01*
X167616927Y-91583261D01*
X167759784Y-91630880D01*
X167807403Y-91678499D01*
X168759784Y-92583261D02*
X168188355Y-92583261D01*
X168474069Y-92583261D02*
X168474069Y-91583261D01*
X168378831Y-91726118D01*
X168283593Y-91821356D01*
X168188355Y-91868975D01*
X169093117Y-91583261D02*
X169712165Y-91583261D01*
X169378831Y-91964213D01*
X169521689Y-91964213D01*
X169616927Y-92011832D01*
X169664546Y-92059451D01*
X169712165Y-92154690D01*
X169712165Y-92392785D01*
X169664546Y-92488023D01*
X169616927Y-92535642D01*
X169521689Y-92583261D01*
X169235974Y-92583261D01*
X169140736Y-92535642D01*
X169093117Y-92488023D01*
X162569923Y-93537043D02*
X162522304Y-93584662D01*
X162379447Y-93632281D01*
X162284209Y-93632281D01*
X162141351Y-93584662D01*
X162046113Y-93489424D01*
X161998494Y-93394186D01*
X161950875Y-93203710D01*
X161950875Y-93060852D01*
X161998494Y-92870376D01*
X162046113Y-92775138D01*
X162141351Y-92679900D01*
X162284209Y-92632281D01*
X162379447Y-92632281D01*
X162522304Y-92679900D01*
X162569923Y-92727519D01*
X163522304Y-93632281D02*
X162950875Y-93632281D01*
X163236589Y-93632281D02*
X163236589Y-92632281D01*
X163141351Y-92775138D01*
X163046113Y-92870376D01*
X162950875Y-92917995D01*
X163903256Y-92727519D02*
X163950875Y-92679900D01*
X164046113Y-92632281D01*
X164284209Y-92632281D01*
X164379447Y-92679900D01*
X164427066Y-92727519D01*
X164474685Y-92822757D01*
X164474685Y-92917995D01*
X164427066Y-93060852D01*
X163855637Y-93632281D01*
X164474685Y-93632281D01*
X162605483Y-95777323D02*
X162557864Y-95824942D01*
X162415007Y-95872561D01*
X162319769Y-95872561D01*
X162176911Y-95824942D01*
X162081673Y-95729704D01*
X162034054Y-95634466D01*
X161986435Y-95443990D01*
X161986435Y-95301132D01*
X162034054Y-95110656D01*
X162081673Y-95015418D01*
X162176911Y-94920180D01*
X162319769Y-94872561D01*
X162415007Y-94872561D01*
X162557864Y-94920180D01*
X162605483Y-94967799D01*
X163557864Y-95872561D02*
X162986435Y-95872561D01*
X163272149Y-95872561D02*
X163272149Y-94872561D01*
X163176911Y-95015418D01*
X163081673Y-95110656D01*
X162986435Y-95158275D01*
X164510245Y-95872561D02*
X163938816Y-95872561D01*
X164224530Y-95872561D02*
X164224530Y-94872561D01*
X164129292Y-95015418D01*
X164034054Y-95110656D01*
X163938816Y-95158275D01*
X146816843Y-88350363D02*
X146769224Y-88397982D01*
X146626367Y-88445601D01*
X146531129Y-88445601D01*
X146388271Y-88397982D01*
X146293033Y-88302744D01*
X146245414Y-88207506D01*
X146197795Y-88017030D01*
X146197795Y-87874172D01*
X146245414Y-87683696D01*
X146293033Y-87588458D01*
X146388271Y-87493220D01*
X146531129Y-87445601D01*
X146626367Y-87445601D01*
X146769224Y-87493220D01*
X146816843Y-87540839D01*
X147769224Y-88445601D02*
X147197795Y-88445601D01*
X147483509Y-88445601D02*
X147483509Y-87445601D01*
X147388271Y-87588458D01*
X147293033Y-87683696D01*
X147197795Y-87731315D01*
X148388271Y-87445601D02*
X148483510Y-87445601D01*
X148578748Y-87493220D01*
X148626367Y-87540839D01*
X148673986Y-87636077D01*
X148721605Y-87826553D01*
X148721605Y-88064649D01*
X148673986Y-88255125D01*
X148626367Y-88350363D01*
X148578748Y-88397982D01*
X148483510Y-88445601D01*
X148388271Y-88445601D01*
X148293033Y-88397982D01*
X148245414Y-88350363D01*
X148197795Y-88255125D01*
X148150176Y-88064649D01*
X148150176Y-87826553D01*
X148197795Y-87636077D01*
X148245414Y-87540839D01*
X148293033Y-87493220D01*
X148388271Y-87445601D01*
X161057294Y-88327503D02*
X161009675Y-88375122D01*
X160866818Y-88422741D01*
X160771580Y-88422741D01*
X160628722Y-88375122D01*
X160533484Y-88279884D01*
X160485865Y-88184646D01*
X160438246Y-87994170D01*
X160438246Y-87851312D01*
X160485865Y-87660836D01*
X160533484Y-87565598D01*
X160628722Y-87470360D01*
X160771580Y-87422741D01*
X160866818Y-87422741D01*
X161009675Y-87470360D01*
X161057294Y-87517979D01*
X161533484Y-88422741D02*
X161723960Y-88422741D01*
X161819199Y-88375122D01*
X161866818Y-88327503D01*
X161962056Y-88184646D01*
X162009675Y-87994170D01*
X162009675Y-87613217D01*
X161962056Y-87517979D01*
X161914437Y-87470360D01*
X161819199Y-87422741D01*
X161628722Y-87422741D01*
X161533484Y-87470360D01*
X161485865Y-87517979D01*
X161438246Y-87613217D01*
X161438246Y-87851312D01*
X161485865Y-87946550D01*
X161533484Y-87994170D01*
X161628722Y-88041789D01*
X161819199Y-88041789D01*
X161914437Y-87994170D01*
X161962056Y-87946550D01*
X162009675Y-87851312D01*
X155585208Y-85537349D02*
X156347113Y-85537349D01*
X155966161Y-85918301D02*
X155966161Y-85156396D01*
X162340563Y-102089246D02*
X162388182Y-102136865D01*
X162435801Y-102279722D01*
X162435801Y-102374960D01*
X162388182Y-102517818D01*
X162292944Y-102613056D01*
X162197706Y-102660675D01*
X162007230Y-102708294D01*
X161864372Y-102708294D01*
X161673896Y-102660675D01*
X161578658Y-102613056D01*
X161483420Y-102517818D01*
X161435801Y-102374960D01*
X161435801Y-102279722D01*
X161483420Y-102136865D01*
X161531039Y-102089246D01*
X161864372Y-101517818D02*
X161816753Y-101613056D01*
X161769134Y-101660675D01*
X161673896Y-101708294D01*
X161626277Y-101708294D01*
X161531039Y-101660675D01*
X161483420Y-101613056D01*
X161435801Y-101517818D01*
X161435801Y-101327341D01*
X161483420Y-101232103D01*
X161531039Y-101184484D01*
X161626277Y-101136865D01*
X161673896Y-101136865D01*
X161769134Y-101184484D01*
X161816753Y-101232103D01*
X161864372Y-101327341D01*
X161864372Y-101517818D01*
X161911991Y-101613056D01*
X161959610Y-101660675D01*
X162054849Y-101708294D01*
X162245325Y-101708294D01*
X162340563Y-101660675D01*
X162388182Y-101613056D01*
X162435801Y-101517818D01*
X162435801Y-101327341D01*
X162388182Y-101232103D01*
X162340563Y-101184484D01*
X162245325Y-101136865D01*
X162054849Y-101136865D01*
X161959610Y-101184484D01*
X161911991Y-101232103D01*
X161864372Y-101327341D01*
X164419589Y-97236232D02*
X164419589Y-96474327D01*
X164800541Y-96855279D02*
X164038636Y-96855279D01*
X143820854Y-76338703D02*
X143773235Y-76386322D01*
X143630378Y-76433941D01*
X143535140Y-76433941D01*
X143392282Y-76386322D01*
X143297044Y-76291084D01*
X143249425Y-76195846D01*
X143201806Y-76005370D01*
X143201806Y-75862512D01*
X143249425Y-75672036D01*
X143297044Y-75576798D01*
X143392282Y-75481560D01*
X143535140Y-75433941D01*
X143630378Y-75433941D01*
X143773235Y-75481560D01*
X143820854Y-75529179D01*
X144154187Y-75433941D02*
X144820854Y-75433941D01*
X144392282Y-76433941D01*
X152500034Y-71807343D02*
X152452415Y-71854962D01*
X152309558Y-71902581D01*
X152214320Y-71902581D01*
X152071462Y-71854962D01*
X151976224Y-71759724D01*
X151928605Y-71664486D01*
X151880986Y-71474010D01*
X151880986Y-71331152D01*
X151928605Y-71140676D01*
X151976224Y-71045438D01*
X152071462Y-70950200D01*
X152214320Y-70902581D01*
X152309558Y-70902581D01*
X152452415Y-70950200D01*
X152500034Y-70997819D01*
X153357177Y-70902581D02*
X153166700Y-70902581D01*
X153071462Y-70950200D01*
X153023843Y-70997819D01*
X152928605Y-71140676D01*
X152880986Y-71331152D01*
X152880986Y-71712105D01*
X152928605Y-71807343D01*
X152976224Y-71854962D01*
X153071462Y-71902581D01*
X153261939Y-71902581D01*
X153357177Y-71854962D01*
X153404796Y-71807343D01*
X153452415Y-71712105D01*
X153452415Y-71474010D01*
X153404796Y-71378771D01*
X153357177Y-71331152D01*
X153261939Y-71283533D01*
X153071462Y-71283533D01*
X152976224Y-71331152D01*
X152928605Y-71378771D01*
X152880986Y-71474010D01*
X150809529Y-73927672D02*
X150809529Y-73165767D01*
X150709529Y-69727672D02*
X150709529Y-68965767D01*
X151090481Y-69346719D02*
X150328576Y-69346719D01*
X111849980Y-52788646D02*
X111883313Y-52821980D01*
X111916647Y-52921980D01*
X111916647Y-52988646D01*
X111883313Y-53088646D01*
X111816647Y-53155313D01*
X111749980Y-53188646D01*
X111616647Y-53221980D01*
X111516647Y-53221980D01*
X111383313Y-53188646D01*
X111316647Y-53155313D01*
X111249980Y-53088646D01*
X111216647Y-52988646D01*
X111216647Y-52921980D01*
X111249980Y-52821980D01*
X111283313Y-52788646D01*
X111216647Y-52155313D02*
X111216647Y-52488646D01*
X111549980Y-52521980D01*
X111516647Y-52488646D01*
X111483313Y-52421980D01*
X111483313Y-52255313D01*
X111516647Y-52188646D01*
X111549980Y-52155313D01*
X111616647Y-52121980D01*
X111783313Y-52121980D01*
X111849980Y-52155313D01*
X111883313Y-52188646D01*
X111916647Y-52255313D01*
X111916647Y-52421980D01*
X111883313Y-52488646D01*
X111849980Y-52521980D01*
X141852354Y-67301383D02*
X141804735Y-67349002D01*
X141661878Y-67396621D01*
X141566640Y-67396621D01*
X141423782Y-67349002D01*
X141328544Y-67253764D01*
X141280925Y-67158526D01*
X141233306Y-66968050D01*
X141233306Y-66825192D01*
X141280925Y-66634716D01*
X141328544Y-66539478D01*
X141423782Y-66444240D01*
X141566640Y-66396621D01*
X141661878Y-66396621D01*
X141804735Y-66444240D01*
X141852354Y-66491859D01*
X142709497Y-66729954D02*
X142709497Y-67396621D01*
X142471401Y-66349002D02*
X142233306Y-67063288D01*
X142852354Y-67063288D01*
X132092874Y-73008300D02*
X132059540Y-73041633D01*
X131959540Y-73074967D01*
X131892874Y-73074967D01*
X131792874Y-73041633D01*
X131726207Y-72974967D01*
X131692874Y-72908300D01*
X131659540Y-72774967D01*
X131659540Y-72674967D01*
X131692874Y-72541633D01*
X131726207Y-72474967D01*
X131792874Y-72408300D01*
X131892874Y-72374967D01*
X131959540Y-72374967D01*
X132059540Y-72408300D01*
X132092874Y-72441633D01*
X132326207Y-72374967D02*
X132759540Y-72374967D01*
X132526207Y-72641633D01*
X132626207Y-72641633D01*
X132692874Y-72674967D01*
X132726207Y-72708300D01*
X132759540Y-72774967D01*
X132759540Y-72941633D01*
X132726207Y-73008300D01*
X132692874Y-73041633D01*
X132626207Y-73074967D01*
X132426207Y-73074967D01*
X132359540Y-73041633D01*
X132326207Y-73008300D01*
X132047154Y-69437060D02*
X132013820Y-69470393D01*
X131913820Y-69503727D01*
X131847154Y-69503727D01*
X131747154Y-69470393D01*
X131680487Y-69403727D01*
X131647154Y-69337060D01*
X131613820Y-69203727D01*
X131613820Y-69103727D01*
X131647154Y-68970393D01*
X131680487Y-68903727D01*
X131747154Y-68837060D01*
X131847154Y-68803727D01*
X131913820Y-68803727D01*
X132013820Y-68837060D01*
X132047154Y-68870393D01*
X132313820Y-68870393D02*
X132347154Y-68837060D01*
X132413820Y-68803727D01*
X132580487Y-68803727D01*
X132647154Y-68837060D01*
X132680487Y-68870393D01*
X132713820Y-68937060D01*
X132713820Y-69003727D01*
X132680487Y-69103727D01*
X132280487Y-69503727D01*
X132713820Y-69503727D01*
X111849980Y-56235426D02*
X111883313Y-56268760D01*
X111916647Y-56368760D01*
X111916647Y-56435426D01*
X111883313Y-56535426D01*
X111816647Y-56602093D01*
X111749980Y-56635426D01*
X111616647Y-56668760D01*
X111516647Y-56668760D01*
X111383313Y-56635426D01*
X111316647Y-56602093D01*
X111249980Y-56535426D01*
X111216647Y-56435426D01*
X111216647Y-56368760D01*
X111249980Y-56268760D01*
X111283313Y-56235426D01*
X111916647Y-55568760D02*
X111916647Y-55968760D01*
X111916647Y-55768760D02*
X111216647Y-55768760D01*
X111316647Y-55835426D01*
X111383313Y-55902093D01*
X111416647Y-55968760D01*
X119724586Y-68457771D02*
X119867443Y-68505390D01*
X119915062Y-68553010D01*
X119962681Y-68648248D01*
X119962681Y-68791105D01*
X119915062Y-68886343D01*
X119867443Y-68933962D01*
X119772205Y-68981581D01*
X119391252Y-68981581D01*
X119391252Y-67981581D01*
X119724586Y-67981581D01*
X119819824Y-68029200D01*
X119867443Y-68076819D01*
X119915062Y-68172057D01*
X119915062Y-68267295D01*
X119867443Y-68362533D01*
X119819824Y-68410152D01*
X119724586Y-68457771D01*
X119391252Y-68457771D01*
X120248395Y-67981581D02*
X120819824Y-67981581D01*
X120534109Y-68981581D02*
X120534109Y-67981581D01*
X121676967Y-68981581D02*
X121105538Y-68981581D01*
X121391252Y-68981581D02*
X121391252Y-67981581D01*
X121296014Y-68124438D01*
X121200776Y-68219676D01*
X121105538Y-68267295D01*
X141257115Y-70178681D02*
X141257115Y-70988205D01*
X141304734Y-71083443D01*
X141352353Y-71131062D01*
X141447591Y-71178681D01*
X141638068Y-71178681D01*
X141733306Y-71131062D01*
X141780925Y-71083443D01*
X141828544Y-70988205D01*
X141828544Y-70178681D01*
X142828544Y-71178681D02*
X142257115Y-71178681D01*
X142542829Y-71178681D02*
X142542829Y-70178681D01*
X142447591Y-70321538D01*
X142352353Y-70416776D01*
X142257115Y-70464395D01*
X167480278Y-61945911D02*
X167480278Y-60445911D01*
X168051706Y-60445911D01*
X168194564Y-60517340D01*
X168265992Y-60588769D01*
X168337421Y-60731626D01*
X168337421Y-60945911D01*
X168265992Y-61088769D01*
X168194564Y-61160197D01*
X168051706Y-61231626D01*
X167480278Y-61231626D01*
X169694564Y-60445911D02*
X168980278Y-60445911D01*
X168908849Y-61160197D01*
X168980278Y-61088769D01*
X169123135Y-61017340D01*
X169480278Y-61017340D01*
X169623135Y-61088769D01*
X169694564Y-61160197D01*
X169765992Y-61303054D01*
X169765992Y-61660197D01*
X169694564Y-61803054D01*
X169623135Y-61874483D01*
X169480278Y-61945911D01*
X169123135Y-61945911D01*
X168980278Y-61874483D01*
X168908849Y-61803054D01*
X111473371Y-98165622D02*
X109973371Y-98165622D01*
X109973371Y-97594194D01*
X110044800Y-97451336D01*
X110116229Y-97379908D01*
X110259086Y-97308479D01*
X110473371Y-97308479D01*
X110616229Y-97379908D01*
X110687657Y-97451336D01*
X110759086Y-97594194D01*
X110759086Y-98165622D01*
X110473371Y-96022765D02*
X111473371Y-96022765D01*
X109901943Y-96379908D02*
X110973371Y-96737051D01*
X110973371Y-95808479D01*
X127322675Y-60359041D02*
X127322675Y-61168565D01*
X127370294Y-61263803D01*
X127417913Y-61311422D01*
X127513151Y-61359041D01*
X127703628Y-61359041D01*
X127798866Y-61311422D01*
X127846485Y-61263803D01*
X127894104Y-61168565D01*
X127894104Y-60359041D01*
X128322675Y-60454279D02*
X128370294Y-60406660D01*
X128465532Y-60359041D01*
X128703628Y-60359041D01*
X128798866Y-60406660D01*
X128846485Y-60454279D01*
X128894104Y-60549517D01*
X128894104Y-60644755D01*
X128846485Y-60787612D01*
X128275056Y-61359041D01*
X128894104Y-61359041D01*
X140923450Y-80490321D02*
X140923450Y-79490321D01*
X141971069Y-80395083D02*
X141923450Y-80442702D01*
X141780593Y-80490321D01*
X141685355Y-80490321D01*
X141542497Y-80442702D01*
X141447259Y-80347464D01*
X141399640Y-80252226D01*
X141352021Y-80061750D01*
X141352021Y-79918892D01*
X141399640Y-79728416D01*
X141447259Y-79633178D01*
X141542497Y-79537940D01*
X141685355Y-79490321D01*
X141780593Y-79490321D01*
X141923450Y-79537940D01*
X141971069Y-79585559D01*
X142923450Y-80490321D02*
X142352021Y-80490321D01*
X142637735Y-80490321D02*
X142637735Y-79490321D01*
X142542497Y-79633178D01*
X142447259Y-79728416D01*
X142352021Y-79776035D01*
X138428980Y-61760183D02*
X138643266Y-61831611D01*
X139000409Y-61831611D01*
X139143266Y-61760183D01*
X139214695Y-61688754D01*
X139286123Y-61545897D01*
X139286123Y-61403040D01*
X139214695Y-61260183D01*
X139143266Y-61188754D01*
X139000409Y-61117326D01*
X138714695Y-61045897D01*
X138571837Y-60974469D01*
X138500409Y-60903040D01*
X138428980Y-60760183D01*
X138428980Y-60617326D01*
X138500409Y-60474469D01*
X138571837Y-60403040D01*
X138714695Y-60331611D01*
X139071837Y-60331611D01*
X139286123Y-60403040D01*
X139786123Y-60331611D02*
X140143266Y-61831611D01*
X140428980Y-60760183D01*
X140714694Y-61831611D01*
X141071837Y-60331611D01*
X142428980Y-61831611D02*
X141571837Y-61831611D01*
X142000409Y-61831611D02*
X142000409Y-60331611D01*
X141857552Y-60545897D01*
X141714694Y-60688754D01*
X141571837Y-60760183D01*
M02*
