G04 #@! TF.FileFunction,Soldermask,Top*
%FSLAX46Y46*%
G04 Gerber Fmt 4.6, Leading zero omitted, Abs format (unit mm)*
G04 Created by KiCad (PCBNEW 4.0.2+dfsg1-stable) date mer 24 ott 2018 10:21:22 CEST*
%MOMM*%
G01*
G04 APERTURE LIST*
%ADD10C,0.100000*%
%ADD11R,2.400000X1.500000*%
%ADD12R,1.400000X0.800000*%
%ADD13R,3.400000X4.400000*%
%ADD14R,0.900000X1.300000*%
%ADD15R,1.300000X0.900000*%
%ADD16R,0.999440X1.400760*%
%ADD17R,2.127200X2.127200*%
%ADD18O,2.127200X2.127200*%
%ADD19R,2.432000X2.127200*%
%ADD20O,2.432000X2.127200*%
%ADD21C,1.400000*%
%ADD22R,2.900000X3.400000*%
%ADD23R,2.432000X2.432000*%
%ADD24O,2.432000X2.432000*%
%ADD25R,0.990000X0.850000*%
%ADD26R,2.200860X2.899360*%
%ADD27R,2.899360X2.200860*%
%ADD28R,1.197560X1.400000*%
%ADD29C,3.900000*%
%ADD30R,2.200860X3.150820*%
%ADD31R,1.200000X1.150000*%
%ADD32R,3.150820X2.200860*%
%ADD33C,2.305000*%
%ADD34R,1.150000X1.200000*%
%ADD35R,6.900000X4.400000*%
%ADD36C,14.400000*%
%ADD37C,3.600000*%
%ADD38R,2.100000X1.050000*%
%ADD39C,2.700000*%
%ADD40R,1.950000X1.000000*%
%ADD41R,3.500000X1.700000*%
G04 APERTURE END LIST*
D10*
D11*
X135458200Y-69141400D03*
X135458200Y-72641400D03*
D12*
X151714000Y-91055000D03*
X151714000Y-91705000D03*
X151714000Y-92355000D03*
X151714000Y-93005000D03*
X151714000Y-93655000D03*
X151714000Y-94305000D03*
X151714000Y-94955000D03*
X151714000Y-95605000D03*
X151714000Y-96255000D03*
X151714000Y-96905000D03*
X157514000Y-96905000D03*
X157514000Y-96255000D03*
X157514000Y-95605000D03*
X157514000Y-94955000D03*
X157514000Y-94305000D03*
X157514000Y-93655000D03*
X157514000Y-93005000D03*
X157514000Y-92355000D03*
X157514000Y-91705000D03*
X157514000Y-91055000D03*
D13*
X154614000Y-93980000D03*
D14*
X169096120Y-96768920D03*
X167596120Y-96768920D03*
X167596120Y-92069920D03*
X169096120Y-92069920D03*
X167570720Y-87416640D03*
X169070720Y-87416640D03*
X166100060Y-90200480D03*
X167600060Y-90200480D03*
D15*
X161645480Y-74592880D03*
X161645480Y-73092880D03*
X135196580Y-85608860D03*
X135196580Y-84108860D03*
X164797740Y-71232460D03*
X164797740Y-69732460D03*
X133532000Y-90412000D03*
X133532000Y-88912000D03*
X130484000Y-90412000D03*
X130484000Y-88912000D03*
X161772480Y-81704880D03*
X161772480Y-80204880D03*
X164312480Y-77894880D03*
X164312480Y-76394880D03*
X161645480Y-67607880D03*
X161645480Y-66107880D03*
X158216480Y-76648880D03*
X158216480Y-78148880D03*
X158216480Y-81450880D03*
X158216480Y-79950880D03*
X164185480Y-63797880D03*
X164185480Y-62297880D03*
X155422480Y-78148880D03*
X155422480Y-76648880D03*
D14*
X134593900Y-65620900D03*
X136093900Y-65620900D03*
D16*
X163535240Y-72638920D03*
X164835720Y-72638920D03*
X164185480Y-74538840D03*
X163662240Y-79750920D03*
X164962720Y-79750920D03*
X164312480Y-81650840D03*
X163281240Y-65653920D03*
X164581720Y-65653920D03*
X163931480Y-67553840D03*
X154772240Y-79750920D03*
X156072720Y-79750920D03*
X155422480Y-81650840D03*
D17*
X115062000Y-55880000D03*
D18*
X115062000Y-53340000D03*
X117602000Y-55880000D03*
X117602000Y-53340000D03*
X120142000Y-55880000D03*
X120142000Y-53340000D03*
X122682000Y-55880000D03*
X122682000Y-53340000D03*
X125222000Y-55880000D03*
X125222000Y-53340000D03*
X127762000Y-55880000D03*
X127762000Y-53340000D03*
X130302000Y-55880000D03*
X130302000Y-53340000D03*
X132842000Y-55880000D03*
X132842000Y-53340000D03*
X135382000Y-55880000D03*
X135382000Y-53340000D03*
X137922000Y-55880000D03*
X137922000Y-53340000D03*
X140462000Y-55880000D03*
X140462000Y-53340000D03*
X143002000Y-55880000D03*
X143002000Y-53340000D03*
X145542000Y-55880000D03*
X145542000Y-53340000D03*
X148082000Y-55880000D03*
X148082000Y-53340000D03*
X150622000Y-55880000D03*
X150622000Y-53340000D03*
X153162000Y-55880000D03*
X153162000Y-53340000D03*
X155702000Y-55880000D03*
X155702000Y-53340000D03*
X158242000Y-55880000D03*
X158242000Y-53340000D03*
X160782000Y-55880000D03*
X160782000Y-53340000D03*
X163322000Y-55880000D03*
X163322000Y-53340000D03*
D19*
X168864280Y-67028060D03*
D20*
X168864280Y-69568060D03*
X168864280Y-72108060D03*
X168864280Y-74648060D03*
D21*
X139280900Y-65747900D03*
D22*
X140898000Y-102876000D03*
X140898000Y-97276000D03*
X140898000Y-92462000D03*
X140898000Y-86862000D03*
D23*
X135244840Y-78389480D03*
D24*
X135244840Y-80929480D03*
D25*
X158535000Y-102108000D03*
X156425000Y-102108000D03*
D26*
X152908000Y-100363020D03*
X152908000Y-104360980D03*
D27*
X147861020Y-83566000D03*
X151858980Y-83566000D03*
D25*
X153709000Y-87122000D03*
X151599000Y-87122000D03*
D28*
X161645480Y-70782180D03*
X161645480Y-69283580D03*
X161772480Y-77894180D03*
X161772480Y-76395580D03*
X161645480Y-63797180D03*
X161645480Y-62298580D03*
D29*
X132714000Y-97840000D03*
X127714000Y-97840000D03*
X122714000Y-97840000D03*
X117714000Y-97840000D03*
D30*
X147066000Y-102953820D03*
X147066000Y-97706180D03*
D31*
X146570000Y-94234000D03*
X148070000Y-94234000D03*
X167406120Y-94355920D03*
X168906120Y-94355920D03*
X162389120Y-93085920D03*
X163889120Y-93085920D03*
X162389120Y-95371920D03*
X163889120Y-95371920D03*
X148070000Y-87884000D03*
X146570000Y-87884000D03*
D32*
X163588700Y-88016080D03*
X158341060Y-88016080D03*
D30*
X161798000Y-104477820D03*
X161798000Y-99230180D03*
D31*
X144691800Y-75918060D03*
X143191800Y-75918060D03*
D33*
X152438100Y-74046720D03*
X152438100Y-69046720D03*
D34*
X111506000Y-53328000D03*
X111506000Y-51828000D03*
D31*
X141312200Y-66827400D03*
X142812200Y-66827400D03*
X132906200Y-72669400D03*
X131406200Y-72669400D03*
X132906200Y-69113400D03*
X131406200Y-69113400D03*
D34*
X111506000Y-55384000D03*
X111506000Y-56884000D03*
D35*
X117094000Y-63454000D03*
X117094000Y-89454000D03*
D36*
X117094000Y-76454000D03*
D37*
X110236000Y-103632000D03*
X168148000Y-103632000D03*
D38*
X138412200Y-68986400D03*
X138412200Y-70256400D03*
X138412200Y-71526400D03*
X138412200Y-72796400D03*
X145712200Y-72796400D03*
X145712200Y-71526400D03*
X145712200Y-70256400D03*
X145712200Y-68986400D03*
D39*
X168475660Y-63151960D03*
X168475660Y-59651960D03*
X110863380Y-95270440D03*
X110863380Y-98770440D03*
D40*
X130644880Y-62697360D03*
X130644880Y-61427360D03*
X130644880Y-60157360D03*
X130644880Y-58887360D03*
X125244880Y-58887360D03*
X125244880Y-60157360D03*
X125244880Y-61427360D03*
X125244880Y-62697360D03*
X139275840Y-78140560D03*
X139275840Y-79410560D03*
X139275840Y-80680560D03*
X139275840Y-81950560D03*
X144675840Y-81950560D03*
X144675840Y-80680560D03*
X144675840Y-79410560D03*
X144675840Y-78140560D03*
D41*
X144900160Y-58910220D03*
X144900160Y-63410220D03*
X135900160Y-63410220D03*
X135900160Y-58910220D03*
M02*
