M48
;DRILL file {KiCad 4.1.0-alpha+201607200716+6988~46~ubuntu16.04.1-product} date Thu Jul 21 11:47:21 2016
;FORMAT={-:-/ absolute / inch / decimal}
FMAT,2
INCH,TZ
T1C0.012
T2C0.016
T3C0.020
T4C0.040
T5C0.047
T6C0.071
%
G90
G05
M72
T1
X4.815Y-3.52
X5.07Y-2.91
X5.5535Y-2.6927
X5.6195Y-2.9362
X5.649Y-3.0014
X5.66Y-2.765
X5.6786Y-2.9735
X5.695Y-2.745
X5.755Y-2.595
X5.8747Y-3.1111
X5.9195Y-3.1352
X5.96Y-2.9833
X5.9925Y-2.8956
X6.0781Y-2.9055
X6.1341Y-2.4806
X6.2178Y-3.8463
X6.3027Y-3.4
X6.3168Y-3.6192
X6.3411Y-2.3103
X6.3625Y-3.7249
X6.603Y-3.8532
X6.6584Y-3.2901
T2
X5.6315Y-3.7566
X5.6554Y-3.906
X5.6676Y-3.8161
X5.8Y-3.645
X5.8752Y-3.7393
T3
X4.98Y-2.4359
X5.7201Y-3.5861
X5.8464Y-3.3648
X5.87Y-3.82
X5.876Y-3.6382
X5.9342Y-3.5147
X6.0586Y-3.4932
X6.1053Y-3.578
X6.1658Y-2.5495
X6.3018Y-3.8069
X6.5455Y-3.4
T4
X4.53Y-2.1
X4.53Y-2.2
X4.63Y-2.1
X4.63Y-2.2
X4.73Y-2.1
X4.73Y-2.2
X4.83Y-2.1
X4.83Y-2.2
X4.93Y-2.1
X4.93Y-2.2
X5.03Y-2.1
X5.03Y-2.2
X5.13Y-2.1
X5.13Y-2.2
X5.23Y-2.1
X5.23Y-2.2
X5.3228Y-2.915
X5.3228Y-3.015
X5.33Y-2.1
X5.33Y-2.2
X5.43Y-2.1
X5.43Y-2.2
X5.53Y-2.1
X5.53Y-2.2
X5.63Y-2.1
X5.63Y-2.2
X5.73Y-2.1
X5.73Y-2.2
X5.83Y-2.1
X5.83Y-2.2
X5.93Y-2.1
X5.93Y-2.2
X6.03Y-2.1
X6.03Y-2.2
X6.13Y-2.1
X6.13Y-2.2
X6.23Y-2.1
X6.23Y-2.2
X6.33Y-2.1
X6.33Y-2.2
X6.43Y-2.1
X6.43Y-2.2
X6.62Y-2.39
X6.62Y-2.49
X6.62Y-2.59
X6.62Y-2.69
X6.62Y-2.89
X6.62Y-2.99
T5
X5.965Y-2.5266
X5.965Y-2.7234
T6
X4.6344Y-3.852
X4.8313Y-3.852
X5.0281Y-3.852
X5.225Y-3.852
T0
M30
