G04 #@! TF.FileFunction,Copper,L1,Top,Signal*
%FSLAX46Y46*%
G04 Gerber Fmt 4.6, Leading zero omitted, Abs format (unit mm)*
G04 Created by KiCad (PCBNEW 4.1.0-alpha+201607200716+6988~46~ubuntu16.04.1-product) date Thu Jul 21 11:47:31 2016*
%MOMM*%
%LPD*%
G01*
G04 APERTURE LIST*
%ADD10C,0.100000*%
%ADD11C,0.300000*%
%ADD12R,2.000000X1.100000*%
%ADD13R,1.000000X0.400000*%
%ADD14R,3.000000X4.000000*%
%ADD15R,0.500000X0.900000*%
%ADD16R,0.900000X0.500000*%
%ADD17R,0.599440X1.000760*%
%ADD18R,2.032000X2.032000*%
%ADD19O,2.032000X2.032000*%
%ADD20R,1.727200X1.727200*%
%ADD21O,1.727200X1.727200*%
%ADD22R,2.032000X1.727200*%
%ADD23O,2.032000X1.727200*%
%ADD24C,1.000000*%
%ADD25R,2.500000X3.000000*%
%ADD26R,1.550000X0.600000*%
%ADD27R,0.590000X0.450000*%
%ADD28R,1.800860X2.499360*%
%ADD29R,2.499360X1.800860*%
%ADD30R,0.797560X1.000000*%
%ADD31C,3.500000*%
%ADD32R,1.800860X2.750820*%
%ADD33R,0.800000X0.750000*%
%ADD34R,2.750820X1.800860*%
%ADD35C,1.905000*%
%ADD36R,0.750000X0.800000*%
%ADD37R,6.500000X4.000000*%
%ADD38C,14.000000*%
%ADD39R,1.700000X0.650000*%
%ADD40C,0.710000*%
%ADD41C,1.500000*%
%ADD42C,0.220000*%
%ADD43C,0.600000*%
%ADD44C,0.400000*%
%ADD45C,0.350000*%
%ADD46C,0.254000*%
G04 APERTURE END LIST*
D10*
D11*
X108446571Y-60297142D02*
X108660857Y-60368571D01*
X109018000Y-60368571D01*
X109160857Y-60297142D01*
X109232285Y-60225714D01*
X109303714Y-60082857D01*
X109303714Y-59940000D01*
X109232285Y-59797142D01*
X109160857Y-59725714D01*
X109018000Y-59654285D01*
X108732285Y-59582857D01*
X108589428Y-59511428D01*
X108518000Y-59440000D01*
X108446571Y-59297142D01*
X108446571Y-59154285D01*
X108518000Y-59011428D01*
X108589428Y-58940000D01*
X108732285Y-58868571D01*
X109089428Y-58868571D01*
X109303714Y-58940000D01*
X110589428Y-60368571D02*
X110589428Y-59582857D01*
X110518000Y-59440000D01*
X110375142Y-59368571D01*
X110089428Y-59368571D01*
X109946571Y-59440000D01*
X110589428Y-60297142D02*
X110446571Y-60368571D01*
X110089428Y-60368571D01*
X109946571Y-60297142D01*
X109875142Y-60154285D01*
X109875142Y-60011428D01*
X109946571Y-59868571D01*
X110089428Y-59797142D01*
X110446571Y-59797142D01*
X110589428Y-59725714D01*
X111875142Y-60297142D02*
X111732285Y-60368571D01*
X111446571Y-60368571D01*
X111303714Y-60297142D01*
X111232285Y-60154285D01*
X111232285Y-59582857D01*
X111303714Y-59440000D01*
X111446571Y-59368571D01*
X111732285Y-59368571D01*
X111875142Y-59440000D01*
X111946571Y-59582857D01*
X111946571Y-59725714D01*
X111232285Y-59868571D01*
X112375142Y-59368571D02*
X112946571Y-59368571D01*
X112589428Y-58868571D02*
X112589428Y-60154285D01*
X112660857Y-60297142D01*
X112803714Y-60368571D01*
X112946571Y-60368571D01*
X114589428Y-60368571D02*
X114589428Y-58868571D01*
X115232285Y-60297142D02*
X115446571Y-60368571D01*
X115803714Y-60368571D01*
X115946571Y-60297142D01*
X116018000Y-60225714D01*
X116089428Y-60082857D01*
X116089428Y-59940000D01*
X116018000Y-59797142D01*
X115946571Y-59725714D01*
X115803714Y-59654285D01*
X115518000Y-59582857D01*
X115375142Y-59511428D01*
X115303714Y-59440000D01*
X115232285Y-59297142D01*
X115232285Y-59154285D01*
X115303714Y-59011428D01*
X115375142Y-58940000D01*
X115518000Y-58868571D01*
X115875142Y-58868571D01*
X116089428Y-58940000D01*
X111184428Y-90646714D02*
X111184428Y-91575285D01*
X110613000Y-91075285D01*
X110613000Y-91289571D01*
X110541571Y-91432428D01*
X110470142Y-91503857D01*
X110327285Y-91575285D01*
X109970142Y-91575285D01*
X109827285Y-91503857D01*
X109755857Y-91432428D01*
X109684428Y-91289571D01*
X109684428Y-90861000D01*
X109755857Y-90718142D01*
X109827285Y-90646714D01*
X109684428Y-92289571D02*
X109684428Y-92575285D01*
X109755857Y-92718142D01*
X109827285Y-92789571D01*
X110041571Y-92932428D01*
X110327285Y-93003857D01*
X110898714Y-93003857D01*
X111041571Y-92932428D01*
X111113000Y-92861000D01*
X111184428Y-92718142D01*
X111184428Y-92432428D01*
X111113000Y-92289571D01*
X111041571Y-92218142D01*
X110898714Y-92146714D01*
X110541571Y-92146714D01*
X110398714Y-92218142D01*
X110327285Y-92289571D01*
X110255857Y-92432428D01*
X110255857Y-92718142D01*
X110327285Y-92861000D01*
X110398714Y-92932428D01*
X110541571Y-93003857D01*
X111184428Y-93932428D02*
X111184428Y-94075285D01*
X111113000Y-94218142D01*
X111041571Y-94289571D01*
X110898714Y-94361000D01*
X110613000Y-94432428D01*
X110255857Y-94432428D01*
X109970142Y-94361000D01*
X109827285Y-94289571D01*
X109755857Y-94218142D01*
X109684428Y-94075285D01*
X109684428Y-93932428D01*
X109755857Y-93789571D01*
X109827285Y-93718142D01*
X109970142Y-93646714D01*
X110255857Y-93575285D01*
X110613000Y-93575285D01*
X110898714Y-93646714D01*
X111041571Y-93718142D01*
X111113000Y-93789571D01*
X111184428Y-93932428D01*
X111184428Y-95789571D02*
X111184428Y-95075285D01*
X110470142Y-95003857D01*
X110541571Y-95075285D01*
X110613000Y-95218142D01*
X110613000Y-95575285D01*
X110541571Y-95718142D01*
X110470142Y-95789571D01*
X110327285Y-95861000D01*
X109970142Y-95861000D01*
X109827285Y-95789571D01*
X109755857Y-95718142D01*
X109684428Y-95575285D01*
X109684428Y-95218142D01*
X109755857Y-95075285D01*
X109827285Y-95003857D01*
X109827285Y-96503857D02*
X109755857Y-96575285D01*
X109684428Y-96503857D01*
X109755857Y-96432428D01*
X109827285Y-96503857D01*
X109684428Y-96503857D01*
X109684428Y-98003857D02*
X109684428Y-97146714D01*
X109684428Y-97575285D02*
X111184428Y-97575285D01*
X110970142Y-97432428D01*
X110827285Y-97289571D01*
X110755857Y-97146714D01*
D12*
X133985000Y-64671000D03*
X133985000Y-68171000D03*
D13*
X151714000Y-91055000D03*
X151714000Y-91705000D03*
X151714000Y-92355000D03*
X151714000Y-93005000D03*
X151714000Y-93655000D03*
X151714000Y-94305000D03*
X151714000Y-94955000D03*
X151714000Y-95605000D03*
X151714000Y-96255000D03*
X151714000Y-96905000D03*
X157514000Y-96905000D03*
X157514000Y-96255000D03*
X157514000Y-95605000D03*
X157514000Y-94955000D03*
X157514000Y-94305000D03*
X157514000Y-93655000D03*
X157514000Y-93005000D03*
X157514000Y-92355000D03*
X157514000Y-91705000D03*
X157514000Y-91055000D03*
D14*
X154614000Y-93980000D03*
D15*
X146570000Y-91186000D03*
X148070000Y-91186000D03*
X168668000Y-97790000D03*
X170168000Y-97790000D03*
X169025000Y-84963000D03*
X167525000Y-84963000D03*
X167525000Y-94742000D03*
X169025000Y-94742000D03*
X169025000Y-92329000D03*
X167525000Y-92329000D03*
X167525000Y-87630000D03*
X169025000Y-87630000D03*
X167525000Y-80137000D03*
X169025000Y-80137000D03*
X167525000Y-82550000D03*
X169025000Y-82550000D03*
X162318000Y-86360000D03*
X163818000Y-86360000D03*
X156222000Y-87122000D03*
X157722000Y-87122000D03*
D16*
X159583000Y-71743000D03*
X159583000Y-70243000D03*
X135199000Y-81649000D03*
X135199000Y-80149000D03*
X162123000Y-67933000D03*
X162123000Y-66433000D03*
X133532000Y-90412000D03*
X133532000Y-88912000D03*
X130484000Y-90412000D03*
X130484000Y-88912000D03*
X159710000Y-78855000D03*
X159710000Y-77355000D03*
X162250000Y-75045000D03*
X162250000Y-73545000D03*
X159583000Y-64758000D03*
X159583000Y-63258000D03*
X156154000Y-73799000D03*
X156154000Y-75299000D03*
X156154000Y-78601000D03*
X156154000Y-77101000D03*
X162123000Y-60948000D03*
X162123000Y-59448000D03*
X153360000Y-75299000D03*
X153360000Y-73799000D03*
D15*
X132854000Y-60325000D03*
X134354000Y-60325000D03*
D17*
X161472760Y-69789040D03*
X162773240Y-69789040D03*
X162123000Y-71688960D03*
X161599760Y-76901040D03*
X162900240Y-76901040D03*
X162250000Y-78800960D03*
X161218760Y-62804040D03*
X162519240Y-62804040D03*
X161869000Y-64703960D03*
X152709760Y-76901040D03*
X154010240Y-76901040D03*
X153360000Y-78800960D03*
D18*
X168148000Y-73406000D03*
D19*
X168148000Y-75946000D03*
D20*
X115062000Y-55880000D03*
D21*
X115062000Y-53340000D03*
X117602000Y-55880000D03*
X117602000Y-53340000D03*
X120142000Y-55880000D03*
X120142000Y-53340000D03*
X122682000Y-55880000D03*
X122682000Y-53340000D03*
X125222000Y-55880000D03*
X125222000Y-53340000D03*
X127762000Y-55880000D03*
X127762000Y-53340000D03*
X130302000Y-55880000D03*
X130302000Y-53340000D03*
X132842000Y-55880000D03*
X132842000Y-53340000D03*
X135382000Y-55880000D03*
X135382000Y-53340000D03*
X137922000Y-55880000D03*
X137922000Y-53340000D03*
X140462000Y-55880000D03*
X140462000Y-53340000D03*
X143002000Y-55880000D03*
X143002000Y-53340000D03*
X145542000Y-55880000D03*
X145542000Y-53340000D03*
X148082000Y-55880000D03*
X148082000Y-53340000D03*
X150622000Y-55880000D03*
X150622000Y-53340000D03*
X153162000Y-55880000D03*
X153162000Y-53340000D03*
X155702000Y-55880000D03*
X155702000Y-53340000D03*
X158242000Y-55880000D03*
X158242000Y-53340000D03*
X160782000Y-55880000D03*
X160782000Y-53340000D03*
X163322000Y-55880000D03*
X163322000Y-53340000D03*
D22*
X168148000Y-60706000D03*
D23*
X168148000Y-63246000D03*
X168148000Y-65786000D03*
X168148000Y-68326000D03*
D24*
X137541000Y-60452000D03*
D25*
X140898000Y-102876000D03*
X140898000Y-97276000D03*
X140898000Y-92462000D03*
X140898000Y-86862000D03*
D18*
X135199000Y-74041000D03*
D19*
X135199000Y-76581000D03*
D26*
X141389000Y-74168000D03*
X141389000Y-75438000D03*
X141389000Y-76708000D03*
X141389000Y-77978000D03*
X146789000Y-77978000D03*
X146789000Y-76708000D03*
X146789000Y-75438000D03*
X146789000Y-74168000D03*
D27*
X158535000Y-102108000D03*
X156425000Y-102108000D03*
D28*
X152908000Y-100363020D03*
X152908000Y-104360980D03*
D29*
X147861020Y-83566000D03*
X151858980Y-83566000D03*
D27*
X153709000Y-87122000D03*
X151599000Y-87122000D03*
D30*
X159583000Y-67932300D03*
X159583000Y-66433700D03*
X159710000Y-75044300D03*
X159710000Y-73545700D03*
X159583000Y-60947300D03*
X159583000Y-59448700D03*
D31*
X132714000Y-97840000D03*
X127714000Y-97840000D03*
X122714000Y-97840000D03*
X117714000Y-97840000D03*
D32*
X147066000Y-102953820D03*
X147066000Y-97706180D03*
D33*
X146570000Y-94234000D03*
X148070000Y-94234000D03*
X165112000Y-97790000D03*
X166612000Y-97790000D03*
X162318000Y-95758000D03*
X163818000Y-95758000D03*
X162318000Y-93218000D03*
X163818000Y-93218000D03*
X167335000Y-89916000D03*
X168835000Y-89916000D03*
X162318000Y-88646000D03*
X163818000Y-88646000D03*
X162318000Y-90932000D03*
X163818000Y-90932000D03*
X148070000Y-87884000D03*
X146570000Y-87884000D03*
D34*
X162841820Y-83058000D03*
X157594180Y-83058000D03*
D32*
X161798000Y-104477820D03*
X161798000Y-99230180D03*
D33*
X144839000Y-72009000D03*
X143339000Y-72009000D03*
D35*
X151511000Y-69175000D03*
X151511000Y-64175000D03*
D36*
X111506000Y-53328000D03*
X111506000Y-51828000D03*
D33*
X139839000Y-62357000D03*
X141339000Y-62357000D03*
X131433000Y-68199000D03*
X129933000Y-68199000D03*
X131433000Y-64643000D03*
X129933000Y-64643000D03*
D36*
X111506000Y-55384000D03*
X111506000Y-56884000D03*
D37*
X117094000Y-63454000D03*
X117094000Y-89454000D03*
D38*
X117094000Y-76454000D03*
D39*
X136939000Y-64516000D03*
X136939000Y-65786000D03*
X136939000Y-67056000D03*
X136939000Y-68326000D03*
X144239000Y-68326000D03*
X144239000Y-67056000D03*
X144239000Y-65786000D03*
X144239000Y-64516000D03*
D15*
X157849000Y-99695000D03*
X156349000Y-99695000D03*
D40*
X122301000Y-89408000D03*
X128778000Y-73914000D03*
X141058989Y-68393958D03*
D41*
X155073556Y-90882300D03*
X166256100Y-86360000D03*
X126492364Y-61871486D03*
X145291588Y-91086992D03*
X156611600Y-64758000D03*
X149249720Y-92411376D03*
X153887934Y-88726218D03*
X148499727Y-85466442D03*
X150729650Y-89272366D03*
X149098000Y-97028000D03*
X160066600Y-96695200D03*
D40*
X161607600Y-94613700D03*
X160089800Y-86360000D03*
X161064600Y-58681500D03*
X155805700Y-63008100D03*
X150356300Y-79635200D03*
X142736400Y-74579700D03*
X149217200Y-79020700D03*
X144235300Y-75528100D03*
X151384000Y-75775000D03*
X143484100Y-76235900D03*
X152210400Y-73548000D03*
X143764000Y-70231002D03*
X144653000Y-69723000D03*
X146176988Y-65913000D03*
X154382500Y-73799000D03*
X169122100Y-83567400D03*
X160446800Y-91928100D03*
X157932600Y-97696200D03*
X167715000Y-97871700D03*
D24*
X143040000Y-95417400D03*
X143648100Y-99211600D03*
X147320000Y-92582996D03*
X149231041Y-94977988D03*
X143956700Y-96929400D03*
D42*
X151511000Y-64175000D02*
X144580000Y-64175000D01*
X144580000Y-64175000D02*
X144239000Y-64516000D01*
X129202397Y-69258397D02*
X128397000Y-68453000D01*
X117094000Y-63454000D02*
X125303000Y-63454000D01*
X128397000Y-66548000D02*
X128397000Y-68453000D01*
X125303000Y-63454000D02*
X128397000Y-66548000D01*
X130466614Y-69931012D02*
X129794000Y-69258397D01*
X129794000Y-69258397D02*
X129202397Y-69258397D01*
X130937000Y-69931012D02*
X130466614Y-69931012D01*
X122301000Y-89408000D02*
X117140000Y-89408000D01*
X117140000Y-89408000D02*
X117094000Y-89454000D01*
X130937000Y-72136000D02*
X129159000Y-73914000D01*
X129159000Y-73914000D02*
X128778000Y-73914000D01*
X139521935Y-69931012D02*
X130937000Y-69931012D01*
X130937000Y-69931012D02*
X130937000Y-72136000D01*
X141058989Y-68393958D02*
X139521935Y-69931012D01*
D43*
X166612000Y-98715300D02*
X165934400Y-98715300D01*
X165934400Y-98715300D02*
X164065700Y-100584000D01*
X164065700Y-100584000D02*
X164065700Y-102253300D01*
X164065700Y-102253300D02*
X161841180Y-104477820D01*
X161841180Y-104477820D02*
X161798000Y-104477820D01*
X157849000Y-99695000D02*
X157849000Y-99495000D01*
X154614000Y-96580000D02*
X154614000Y-93980000D01*
X157849000Y-99495000D02*
X157734000Y-99380000D01*
X157734000Y-99380000D02*
X157734000Y-99060000D01*
X157734000Y-99060000D02*
X157030210Y-98356210D01*
X157030210Y-98356210D02*
X156390210Y-98356210D01*
X156390210Y-98356210D02*
X154614000Y-96580000D01*
X143314000Y-72009000D02*
X143339000Y-72009000D01*
X141963999Y-67816999D02*
X141963999Y-70658999D01*
X141963999Y-70658999D02*
X143314000Y-72009000D01*
X141948300Y-67801300D02*
X141963999Y-67816999D01*
X128933000Y-64643000D02*
X129933000Y-64643000D01*
X127425396Y-64643000D02*
X128933000Y-64643000D01*
X124560386Y-57955514D02*
X124560386Y-61777990D01*
X124560386Y-61777990D02*
X127425396Y-64643000D01*
X125222000Y-57293900D02*
X124560386Y-57955514D01*
X135636000Y-102616000D02*
X135636000Y-100762000D01*
X135636000Y-100762000D02*
X132714000Y-97840000D01*
X138430000Y-105410000D02*
X135636000Y-102616000D01*
X145542000Y-105410000D02*
X138430000Y-105410000D01*
X147066000Y-103886000D02*
X145542000Y-105410000D01*
X147066000Y-102953820D02*
X147066000Y-103886000D01*
X124093999Y-75067011D02*
X129193385Y-75067011D01*
X129193385Y-75067011D02*
X129305386Y-74955010D01*
X124379000Y-91013000D02*
X129305386Y-86086614D01*
X129305386Y-86086614D02*
X129305386Y-74955010D01*
X123952000Y-91013000D02*
X124379000Y-91013000D01*
X122428990Y-74955010D02*
X124206000Y-74955010D01*
X132714000Y-97840000D02*
X130351400Y-100202600D01*
X130351400Y-100202600D02*
X121754200Y-100202600D01*
X121754200Y-100202600D02*
X120411500Y-98859900D01*
X120411500Y-98859900D02*
X120411500Y-94553500D01*
X120411500Y-94553500D02*
X123952000Y-91013000D01*
X124093999Y-75067011D02*
X124206000Y-74955010D01*
X142339000Y-72009000D02*
X143339000Y-72009000D01*
X132251396Y-72009000D02*
X142339000Y-72009000D01*
X129305386Y-74955010D02*
X132251396Y-72009000D01*
X120930000Y-76454000D02*
X122428990Y-74955010D01*
X130302000Y-53340000D02*
X128270000Y-51308000D01*
X128270000Y-51308000D02*
X122174000Y-51308000D01*
X122174000Y-51308000D02*
X120142000Y-53340000D01*
X165149300Y-93599000D02*
X168882300Y-93599000D01*
X168882300Y-93599000D02*
X169025000Y-93741700D01*
X164768300Y-93218000D02*
X165149300Y-93599000D01*
X169025000Y-92329000D02*
X169025000Y-93741700D01*
X148114300Y-79198100D02*
X145020600Y-79198100D01*
X145020600Y-79198100D02*
X140906700Y-83312000D01*
X140906700Y-83312000D02*
X140208000Y-83312000D01*
X140208000Y-83312000D02*
X138534100Y-84985900D01*
X138534100Y-84985900D02*
X138534100Y-92019900D01*
X138534100Y-92019900D02*
X132714000Y-97840000D01*
X129933000Y-68464002D02*
X130739999Y-69271001D01*
X135568999Y-69271001D02*
X136514000Y-68326000D01*
X136514000Y-68326000D02*
X137889000Y-68326000D01*
X130739999Y-69271001D02*
X135568999Y-69271001D01*
X129933000Y-67032200D02*
X129933000Y-68464002D01*
X139264000Y-68326000D02*
X137889000Y-68326000D01*
X140101043Y-67488957D02*
X139264000Y-68326000D01*
X141635957Y-67488957D02*
X140101043Y-67488957D01*
X141948300Y-67801300D02*
X141635957Y-67488957D01*
X154614000Y-91341856D02*
X155073556Y-90882300D01*
X154614000Y-93980000D02*
X154614000Y-91341856D01*
X129933000Y-67032200D02*
X129933000Y-68199000D01*
X118630000Y-51828000D02*
X111968700Y-51828000D01*
X120142000Y-53340000D02*
X118630000Y-51828000D01*
X163818000Y-90932000D02*
X163818000Y-93218000D01*
X163818000Y-93218000D02*
X164768300Y-93218000D01*
X152908000Y-104361000D02*
X154358700Y-104361000D01*
X152908000Y-104361000D02*
X151457300Y-104361000D01*
X159583000Y-59448700D02*
X160532100Y-59448700D01*
X151859000Y-83566000D02*
X151859000Y-82115300D01*
X146789000Y-77978000D02*
X148114300Y-77978000D01*
X166612000Y-97790000D02*
X166612000Y-98715300D01*
X160554000Y-104477800D02*
X160437200Y-104361000D01*
X161798000Y-104477800D02*
X160554000Y-104477800D01*
X125222000Y-55880000D02*
X125222000Y-57293900D01*
X111519300Y-51828000D02*
X111968700Y-51828000D01*
X111519300Y-51828000D02*
X111506000Y-51828000D01*
X150782800Y-77978000D02*
X148114300Y-77978000D01*
X151859800Y-76901000D02*
X150782800Y-77978000D01*
X152709800Y-76901000D02*
X151859800Y-76901000D01*
X160749800Y-73636400D02*
X160659100Y-73545700D01*
X160749800Y-76901000D02*
X160749800Y-73636400D01*
X161599800Y-76901000D02*
X160749800Y-76901000D01*
X159972000Y-73545700D02*
X160659100Y-73545700D01*
X159972000Y-73545700D02*
X159710000Y-73545700D01*
X159710000Y-73545700D02*
X158760900Y-73545700D01*
X154390200Y-69175000D02*
X151511000Y-69175000D01*
X158760900Y-73545700D02*
X154390200Y-69175000D01*
X168835000Y-89916000D02*
X168835000Y-89453300D01*
X168835000Y-89453300D02*
X168835000Y-88990700D01*
X169025000Y-89643300D02*
X169025000Y-92329000D01*
X168835000Y-89453300D02*
X169025000Y-89643300D01*
X160437200Y-104361000D02*
X160437200Y-104212500D01*
X169167600Y-98790400D02*
X170168000Y-97790000D01*
X166687100Y-98790400D02*
X169167600Y-98790400D01*
X166612000Y-98715300D02*
X166687100Y-98790400D01*
X164768300Y-93218000D02*
X164879700Y-93329400D01*
X169025000Y-88800700D02*
X169025000Y-88215300D01*
X168835000Y-88990700D02*
X169025000Y-88800700D01*
X169025000Y-88215300D02*
X169025000Y-87630000D01*
X111506000Y-56884000D02*
X112431300Y-56884000D01*
X111506000Y-51828000D02*
X110580700Y-51828000D01*
X112841200Y-57293900D02*
X112431300Y-56884000D01*
X125222000Y-57293900D02*
X112841200Y-57293900D01*
X110580700Y-57189200D02*
X110580700Y-51828000D01*
X110756200Y-57364700D02*
X110580700Y-57189200D01*
X111950600Y-57364700D02*
X110756200Y-57364700D01*
X112431300Y-56884000D02*
X111950600Y-57364700D01*
X141339000Y-62357000D02*
X141948300Y-62357000D01*
X159583000Y-66433700D02*
X160532100Y-66433700D01*
X169025000Y-94241800D02*
X169025000Y-93741700D01*
X166612000Y-97790000D02*
X166612000Y-96864700D01*
X169025000Y-94241800D02*
X169025000Y-94742000D01*
X166902300Y-96864700D02*
X166612000Y-96864700D01*
X169025000Y-94742000D02*
X166902300Y-96864700D01*
X168148000Y-79260000D02*
X169025000Y-80137000D01*
X168148000Y-75946000D02*
X168148000Y-79260000D01*
X161269400Y-69992400D02*
X161472800Y-69789000D01*
X161269400Y-72742200D02*
X161269400Y-69992400D01*
X163731800Y-72742200D02*
X161269400Y-72742200D01*
X168148000Y-68326000D02*
X163731800Y-72742200D01*
X160659100Y-73352500D02*
X160659100Y-73545700D01*
X161269400Y-72742200D02*
X160659100Y-73352500D01*
X141948300Y-62357000D02*
X141948300Y-67801300D01*
X162841800Y-83058000D02*
X162841800Y-84508700D01*
X163692800Y-85359700D02*
X162841800Y-84508700D01*
X163818000Y-85359700D02*
X163692800Y-85359700D01*
X163818000Y-86360000D02*
X163818000Y-85359700D01*
X160979100Y-65986700D02*
X160532100Y-66433700D01*
X160979100Y-62804000D02*
X160979100Y-65986700D01*
X161218800Y-62804000D02*
X160979100Y-62804000D01*
X167742400Y-86360000D02*
X166256100Y-86360000D01*
X169025000Y-87642600D02*
X167742400Y-86360000D01*
X169025000Y-88215300D02*
X169025000Y-87642600D01*
X166256100Y-86360000D02*
X163818000Y-86360000D01*
X129867700Y-66966900D02*
X129933000Y-67032200D01*
X129867700Y-65633600D02*
X129867700Y-66966900D01*
X129933000Y-65568300D02*
X129867700Y-65633600D01*
X129933000Y-64643000D02*
X129933000Y-65568300D01*
X132714000Y-98239300D02*
X132714000Y-97840000D01*
X160437200Y-104361000D02*
X154358700Y-104361000D01*
X150050100Y-102953800D02*
X151457300Y-104361000D01*
X147066000Y-102953800D02*
X150050100Y-102953800D01*
X148114300Y-77978000D02*
X148114300Y-79198100D01*
X151031500Y-82115300D02*
X151859000Y-82115300D01*
X148114300Y-79198100D02*
X151031500Y-82115300D01*
X117094000Y-76454000D02*
X120930000Y-76454000D01*
X142202500Y-62102800D02*
X141948300Y-62357000D01*
X160532100Y-62102800D02*
X142202500Y-62102800D01*
X160532100Y-59448700D02*
X160532100Y-62102800D01*
X160532100Y-62357000D02*
X160979100Y-62804000D01*
X160532100Y-62102800D02*
X160532100Y-62357000D01*
X136939000Y-64516000D02*
X139214300Y-64516000D01*
X126977878Y-62357000D02*
X126492364Y-61871486D01*
X139839000Y-62357000D02*
X126977878Y-62357000D01*
X157480000Y-57776200D02*
X157480000Y-57785000D01*
X155321000Y-59944000D02*
X141326700Y-59944000D01*
X157480000Y-57785000D02*
X155321000Y-59944000D01*
X154432000Y-67655800D02*
X155495800Y-67655800D01*
X149606000Y-67056000D02*
X153832200Y-67056000D01*
X153832200Y-67056000D02*
X154432000Y-67655800D01*
X149006200Y-67655800D02*
X149606000Y-67056000D01*
X148479500Y-67655800D02*
X149006200Y-67655800D01*
X145390596Y-91186000D02*
X145291588Y-91086992D01*
X146570000Y-91186000D02*
X145390596Y-91186000D01*
X144839000Y-72009000D02*
X144839000Y-72934300D01*
X146789000Y-74168000D02*
X145463700Y-74168000D01*
X168148000Y-60706000D02*
X168148000Y-59292100D01*
X139839000Y-62357000D02*
X139839000Y-61431700D01*
X112927300Y-55880000D02*
X112431300Y-55384000D01*
X115062000Y-55880000D02*
X112927300Y-55880000D01*
X111506000Y-55384000D02*
X112431300Y-55384000D01*
X159710000Y-78855000D02*
X158709700Y-78855000D01*
X146789000Y-74168000D02*
X148114300Y-74168000D01*
X156154000Y-78601000D02*
X157178500Y-78601000D01*
X158455700Y-78601000D02*
X158709700Y-78855000D01*
X157178500Y-78601000D02*
X158455700Y-78601000D01*
X144839000Y-73543300D02*
X145463700Y-74168000D01*
X144839000Y-72934300D02*
X144839000Y-73543300D01*
X144839000Y-72009000D02*
X144839000Y-71296300D01*
X139214300Y-63907000D02*
X139839000Y-63282300D01*
X139214300Y-64516000D02*
X139214300Y-63907000D01*
X139839000Y-62357000D02*
X139839000Y-63282300D01*
X144839000Y-71296300D02*
X148479500Y-67655800D01*
X155495800Y-67655800D02*
X159583000Y-71743000D01*
X156611600Y-64758000D02*
X159583000Y-64758000D01*
X156611600Y-66540000D02*
X155495800Y-67655800D01*
X156611600Y-64758000D02*
X156611600Y-66540000D01*
X149639600Y-72642700D02*
X148114300Y-74168000D01*
X156478400Y-72642700D02*
X149639600Y-72642700D01*
X157178500Y-73342800D02*
X156478400Y-72642700D01*
X157178500Y-78601000D02*
X157178500Y-73342800D01*
X141326700Y-59944000D02*
X139839000Y-61431700D01*
X166632100Y-57776200D02*
X157480000Y-57776200D01*
X168148000Y-59292100D02*
X166632100Y-57776200D01*
D42*
X133985000Y-64671000D02*
X135410000Y-64671000D01*
X135410000Y-64671000D02*
X135410000Y-65786000D01*
X135410000Y-65786000D02*
X136414000Y-65786000D01*
X136414000Y-65786000D02*
X136939000Y-65786000D01*
X132646700Y-64643000D02*
X132674700Y-64671000D01*
X131433000Y-64643000D02*
X132646700Y-64643000D01*
X133985000Y-64671000D02*
X132674700Y-64671000D01*
X133985000Y-68171000D02*
X135410000Y-68171000D01*
X135382000Y-68032000D02*
X135382000Y-67056000D01*
X135410000Y-68171000D02*
X135410000Y-68060000D01*
X135410000Y-68060000D02*
X135382000Y-68032000D01*
X135382000Y-67056000D02*
X136939000Y-67056000D01*
X133985000Y-68171000D02*
X131461000Y-68171000D01*
X131461000Y-68171000D02*
X131433000Y-68199000D01*
D43*
X150663999Y-93159546D02*
X150662170Y-93161375D01*
X149999719Y-93161375D02*
X149249720Y-92411376D01*
X150662170Y-93161375D02*
X149999719Y-93161375D01*
X151599000Y-87122000D02*
X151669000Y-87122000D01*
X151669000Y-87122000D02*
X153273218Y-88726218D01*
X153273218Y-88726218D02*
X153887934Y-88726218D01*
X149560387Y-85466442D02*
X148499727Y-85466442D01*
X151599000Y-86346700D02*
X150718742Y-85466442D01*
X150718742Y-85466442D02*
X149560387Y-85466442D01*
D44*
X151714000Y-93005000D02*
X150814000Y-93005000D01*
X150814000Y-93005000D02*
X150663999Y-93155001D01*
X150663999Y-93155001D02*
X150663999Y-93159546D01*
D43*
X150663999Y-93159546D02*
X150663999Y-93080010D01*
X111506000Y-53328000D02*
X112431300Y-53328000D01*
X151599000Y-87122000D02*
X151599000Y-86346700D01*
X156222000Y-85880900D02*
X156222000Y-86346700D01*
X157594200Y-84508700D02*
X156222000Y-85880900D01*
X156222000Y-86346700D02*
X156222000Y-87122000D01*
X117602000Y-53340000D02*
X115062000Y-53340000D01*
X112443300Y-53340000D02*
X115062000Y-53340000D01*
X112431300Y-53328000D02*
X112443300Y-53340000D01*
X157594200Y-83570700D02*
X157594200Y-84508700D01*
X157594200Y-83570700D02*
X157594200Y-83058000D01*
X157594200Y-83058000D02*
X157594200Y-81607300D01*
X167525000Y-82550000D02*
X166724700Y-82550000D01*
X156222000Y-86346700D02*
X151599000Y-86346700D01*
X165782000Y-81607300D02*
X166724700Y-82550000D01*
X157594200Y-81607300D02*
X165782000Y-81607300D01*
X151722011Y-89704989D02*
X151722011Y-90954999D01*
X151722011Y-89704989D02*
X151678088Y-89704989D01*
X151678088Y-89704989D02*
X151245465Y-89272366D01*
X151245465Y-89272366D02*
X150729650Y-89272366D01*
D44*
X149221000Y-96905000D02*
X149098000Y-97028000D01*
X151714000Y-96905000D02*
X149221000Y-96905000D01*
D43*
X161798000Y-99230200D02*
X161798000Y-97304500D01*
X160675900Y-97304500D02*
X160066600Y-96695200D01*
X161798000Y-97304500D02*
X160675900Y-97304500D01*
D42*
X157514000Y-92355000D02*
X158920400Y-92355000D01*
X158920400Y-92355000D02*
X160343400Y-90932000D01*
X160343400Y-90932000D02*
X162318000Y-90932000D01*
X162318000Y-90932000D02*
X162318000Y-88646000D01*
X167525000Y-87630000D02*
X166964700Y-87630000D01*
X165948700Y-88646000D02*
X166964700Y-87630000D01*
X163818000Y-88646000D02*
X165948700Y-88646000D01*
X157514000Y-91705000D02*
X158324300Y-91705000D01*
X158324300Y-91408300D02*
X158324300Y-91705000D01*
X161775700Y-87956900D02*
X158324300Y-91408300D01*
X162868900Y-87956900D02*
X161775700Y-87956900D01*
X163045100Y-88133100D02*
X162868900Y-87956900D01*
X163045100Y-89152400D02*
X163045100Y-88133100D01*
X163388400Y-89495700D02*
X163045100Y-89152400D01*
X166204400Y-89495700D02*
X163388400Y-89495700D01*
X166624700Y-89916000D02*
X166204400Y-89495700D01*
X167335000Y-89916000D02*
X166624700Y-89916000D01*
X162318000Y-86360000D02*
X161757700Y-86360000D01*
X162318000Y-93218000D02*
X162318000Y-93903300D01*
X162318000Y-93903300D02*
X161607600Y-94613700D01*
X160089800Y-86360000D02*
X161757700Y-86360000D01*
X159327800Y-87122000D02*
X157722000Y-87122000D01*
X160089800Y-86360000D02*
X159327800Y-87122000D01*
X158920400Y-96255000D02*
X157514000Y-96255000D01*
X160561700Y-94613700D02*
X158920400Y-96255000D01*
X161607600Y-94613700D02*
X160561700Y-94613700D01*
X165112000Y-97790000D02*
X165112000Y-97104700D01*
X162979400Y-97104700D02*
X165112000Y-97104700D01*
X162318000Y-96443300D02*
X162979400Y-97104700D01*
X162318000Y-95758000D02*
X162318000Y-96100600D01*
X162318000Y-96100600D02*
X162318000Y-96443300D01*
X158653100Y-95605000D02*
X157514000Y-95605000D01*
X161779800Y-92478300D02*
X158653100Y-95605000D01*
X162858800Y-92478300D02*
X161779800Y-92478300D01*
X163028400Y-92647900D02*
X162858800Y-92478300D01*
X163028400Y-95390200D02*
X163028400Y-92647900D01*
X162318000Y-96100600D02*
X163028400Y-95390200D01*
X165948700Y-95758000D02*
X166964700Y-94742000D01*
X163818000Y-95758000D02*
X165948700Y-95758000D01*
X167525000Y-94742000D02*
X166964700Y-94742000D01*
X129723700Y-90830300D02*
X129723700Y-90412000D01*
X122714000Y-97840000D02*
X129723700Y-90830300D01*
X130484000Y-90412000D02*
X129828800Y-90412000D01*
X129828800Y-90412000D02*
X129723700Y-90412000D01*
X129723700Y-87684600D02*
X135199000Y-82209300D01*
X129723700Y-90412000D02*
X129723700Y-87684600D01*
X135199000Y-81649000D02*
X135199000Y-82209300D01*
X133532000Y-92022000D02*
X133532000Y-90412000D01*
X127714000Y-97840000D02*
X133532000Y-92022000D01*
X159583000Y-60947300D02*
X158873900Y-60947300D01*
X161869000Y-64704000D02*
X161869000Y-63893300D01*
X156055600Y-63258000D02*
X159583000Y-63258000D01*
X155805700Y-63008100D02*
X156055600Y-63258000D01*
X161064600Y-58681500D02*
X160882100Y-58864000D01*
X160578300Y-58560300D02*
X160882100Y-58864000D01*
X159060800Y-58560300D02*
X160578300Y-58560300D01*
X158807500Y-58813600D02*
X159060800Y-58560300D01*
X158807500Y-60880900D02*
X158807500Y-58813600D01*
X158873900Y-60947300D02*
X158807500Y-60880900D01*
X161909100Y-63853200D02*
X161869000Y-63893300D01*
X161909100Y-62183400D02*
X161909100Y-63853200D01*
X161192500Y-61466800D02*
X161909100Y-62183400D01*
X161192500Y-59174500D02*
X161192500Y-61466800D01*
X160882100Y-58864000D02*
X161192500Y-59174500D01*
X159710000Y-75044300D02*
X159710000Y-77355000D01*
X160754300Y-77915300D02*
X159710000Y-77915300D01*
X161640000Y-78801000D02*
X160754300Y-77915300D01*
X159710000Y-77355000D02*
X159710000Y-77915300D01*
X162250000Y-78801000D02*
X161640000Y-78801000D01*
X159583000Y-67932300D02*
X159583000Y-70243000D01*
X160851800Y-67372600D02*
X160292100Y-67932300D01*
X162730500Y-67372600D02*
X160851800Y-67372600D01*
X163455000Y-68097100D02*
X162730500Y-67372600D01*
X163455000Y-70967000D02*
X163455000Y-68097100D01*
X162733000Y-71689000D02*
X163455000Y-70967000D01*
X162123000Y-71689000D02*
X162733000Y-71689000D01*
X159583000Y-67932300D02*
X160292100Y-67932300D01*
X167386000Y-71003500D02*
X164844500Y-73545000D01*
X170180000Y-68961000D02*
X168137500Y-71003500D01*
X168137500Y-71003500D02*
X167386000Y-71003500D01*
X170180000Y-66421000D02*
X170180000Y-68961000D01*
X169545000Y-65786000D02*
X170180000Y-66421000D01*
X168148000Y-65786000D02*
X169545000Y-65786000D01*
X164844500Y-73545000D02*
X163547300Y-73545000D01*
X163547300Y-73545000D02*
X162250000Y-73545000D01*
X162656500Y-79635200D02*
X150356300Y-79635200D01*
X163547300Y-78744400D02*
X162656500Y-79635200D01*
X163547300Y-73545000D02*
X163547300Y-78744400D01*
X142474300Y-74317600D02*
X142474300Y-74168000D01*
X142736400Y-74579700D02*
X142474300Y-74317600D01*
X141389000Y-74168000D02*
X142474300Y-74168000D01*
X155109700Y-77661300D02*
X156154000Y-77661300D01*
X153970000Y-78801000D02*
X155109700Y-77661300D01*
X156154000Y-77381100D02*
X156154000Y-77661300D01*
X156154000Y-77381100D02*
X156154000Y-77101000D01*
X156154000Y-77101000D02*
X156154000Y-75299000D01*
X141389000Y-76708000D02*
X142474300Y-76708000D01*
X141389000Y-75438000D02*
X142474300Y-75438000D01*
X153665000Y-78801000D02*
X153970000Y-78801000D01*
X153665000Y-78801000D02*
X153360000Y-78801000D01*
X149436900Y-78801000D02*
X149217200Y-79020700D01*
X153360000Y-78801000D02*
X149436900Y-78801000D01*
X142474300Y-76708000D02*
X142474300Y-75528100D01*
X142474300Y-75528100D02*
X142474300Y-75438000D01*
X144235300Y-75528100D02*
X142474300Y-75528100D01*
X151384000Y-75775000D02*
X152799700Y-74359300D01*
X168148000Y-63246000D02*
X169037000Y-63246000D01*
X169037000Y-63246000D02*
X169164000Y-63119000D01*
X164910300Y-60008300D02*
X162123000Y-60008300D01*
X166974100Y-62072100D02*
X164910300Y-60008300D01*
X168148000Y-62072100D02*
X166974100Y-62072100D01*
X162123000Y-59448000D02*
X162123000Y-60008300D01*
X168148000Y-63246000D02*
X168148000Y-62072100D01*
X153360000Y-73799000D02*
X153360000Y-74359300D01*
X143484100Y-76968200D02*
X142474300Y-77978000D01*
X143484100Y-76235900D02*
X143484100Y-76968200D01*
X141389000Y-77978000D02*
X142474300Y-77978000D01*
X152348700Y-73548000D02*
X152599700Y-73799000D01*
X152210400Y-73548000D02*
X152348700Y-73548000D01*
X153360000Y-73799000D02*
X152599700Y-73799000D01*
X152799700Y-74359300D02*
X153360000Y-74359300D01*
X130484000Y-88912000D02*
X131154000Y-88912000D01*
X131154000Y-88912000D02*
X131904000Y-89662000D01*
X131904000Y-89662000D02*
X135001000Y-89662000D01*
X135001000Y-89662000D02*
X136577900Y-88085100D01*
X136577900Y-88085100D02*
X136577900Y-85833800D01*
X136577900Y-85833800D02*
X145703700Y-76708000D01*
X145703700Y-76708000D02*
X146789000Y-76708000D01*
X133532000Y-87756400D02*
X133532000Y-88912000D01*
X140303700Y-80984700D02*
X133532000Y-87756400D01*
X140303700Y-73739400D02*
X140303700Y-80984700D01*
X140520200Y-73522900D02*
X140303700Y-73739400D01*
X143788600Y-73522900D02*
X140520200Y-73522900D01*
X145703700Y-75438000D02*
X143788600Y-73522900D01*
X146789000Y-75438000D02*
X145703700Y-75438000D01*
X136542700Y-78245000D02*
X135199000Y-79588700D01*
X136542700Y-75384700D02*
X136542700Y-78245000D01*
X135199000Y-74041000D02*
X136542700Y-75384700D01*
X135199000Y-80149000D02*
X135199000Y-79588700D01*
X135041300Y-60452000D02*
X134914300Y-60325000D01*
X137541000Y-60452000D02*
X135041300Y-60452000D01*
X134354000Y-60325000D02*
X134914300Y-60325000D01*
X162123000Y-66433000D02*
X162793000Y-66433000D01*
X162793000Y-66433000D02*
X164806000Y-64420000D01*
X164806000Y-64420000D02*
X168801100Y-64420000D01*
X168801100Y-64420000D02*
X169584010Y-63637090D01*
X169584010Y-63637090D02*
X169584010Y-62945026D01*
X169584010Y-62945026D02*
X169540800Y-62901816D01*
X169540800Y-62901816D02*
X169540800Y-54605800D01*
X169540800Y-54605800D02*
X166201365Y-51266366D01*
X166201365Y-51266366D02*
X132121634Y-51266366D01*
X132121634Y-51266366D02*
X131572000Y-51816000D01*
X131572000Y-51816000D02*
X131572000Y-54610000D01*
X131572000Y-54610000D02*
X123952000Y-54610000D01*
X123952000Y-54610000D02*
X122682000Y-55880000D01*
X143764000Y-68801000D02*
X144239000Y-68326000D01*
X143409001Y-69876003D02*
X143764000Y-70231002D01*
X143764000Y-68801000D02*
X143409001Y-69155999D01*
X143409001Y-69155999D02*
X143409001Y-69876003D01*
X146050000Y-67310000D02*
X145796000Y-67056000D01*
X145796000Y-67056000D02*
X144239000Y-67056000D01*
X146050000Y-68961000D02*
X146050000Y-67310000D01*
X145288000Y-69723000D02*
X146050000Y-68961000D01*
X144653000Y-69723000D02*
X145288000Y-69723000D01*
X146176988Y-65913000D02*
X144366000Y-65913000D01*
X144366000Y-65913000D02*
X144239000Y-65786000D01*
X132842000Y-59552700D02*
X132854000Y-59564700D01*
X132842000Y-55880000D02*
X132842000Y-59552700D01*
X132854000Y-60325000D02*
X132854000Y-59564700D01*
X156154000Y-73799000D02*
X154382500Y-73799000D01*
X153591000Y-76090300D02*
X153360000Y-75859300D01*
X154010200Y-76090300D02*
X153591000Y-76090300D01*
X153360000Y-75299000D02*
X153360000Y-75859300D01*
X154010200Y-76901000D02*
X154010200Y-76090300D01*
X162519200Y-61904500D02*
X162123000Y-61508300D01*
X162519200Y-62804000D02*
X162519200Y-61904500D01*
X162123000Y-60948000D02*
X162123000Y-61508300D01*
X162735000Y-76090300D02*
X162250000Y-75605300D01*
X162900200Y-76090300D02*
X162735000Y-76090300D01*
X162250000Y-75045000D02*
X162250000Y-75605300D01*
X162900200Y-76901000D02*
X162900200Y-76090300D01*
X162608000Y-68978300D02*
X162123000Y-68493300D01*
X162773200Y-68978300D02*
X162608000Y-68978300D01*
X162123000Y-67933000D02*
X162123000Y-68493300D01*
X162773200Y-69789000D02*
X162773200Y-68978300D01*
X168085300Y-81610300D02*
X168085300Y-80137000D01*
X168464700Y-81989700D02*
X168085300Y-81610300D01*
X168464700Y-82550000D02*
X168464700Y-81989700D01*
X167525000Y-80137000D02*
X168085300Y-80137000D01*
X169025000Y-82550000D02*
X168744900Y-82550000D01*
X168744900Y-82550000D02*
X168464700Y-82550000D01*
X168744900Y-83190200D02*
X169122100Y-83567400D01*
X168744900Y-82550000D02*
X168744900Y-83190200D01*
X159369900Y-93005000D02*
X157514000Y-93005000D01*
X160446800Y-91928100D02*
X159369900Y-93005000D01*
X167525000Y-92329000D02*
X166964700Y-92329000D01*
X164830300Y-90194600D02*
X166964700Y-92329000D01*
X163270300Y-90194600D02*
X164830300Y-90194600D01*
X163043000Y-90421900D02*
X163270300Y-90194600D01*
X163043000Y-91493800D02*
X163043000Y-90421900D01*
X162479000Y-92057800D02*
X163043000Y-91493800D01*
X161258100Y-92057800D02*
X162479000Y-92057800D01*
X159660900Y-93655000D02*
X161258100Y-92057800D01*
X157514000Y-93655000D02*
X159660900Y-93655000D01*
X168668000Y-97790000D02*
X168668000Y-97120000D01*
X168668000Y-97120000D02*
X169228300Y-96559700D01*
X168085300Y-84963000D02*
X167805200Y-84963000D01*
X167805200Y-84963000D02*
X167525000Y-84963000D01*
X169228300Y-96559700D02*
X169228300Y-95831100D01*
X169228300Y-95831100D02*
X169714900Y-95344500D01*
X169714900Y-95344500D02*
X169714900Y-87055000D01*
X169714900Y-87055000D02*
X168085300Y-85425400D01*
X168085300Y-85425400D02*
X168085300Y-84963000D01*
X168026000Y-97871700D02*
X168107700Y-97790000D01*
X167715000Y-97871700D02*
X168026000Y-97871700D01*
X168668000Y-97790000D02*
X168107700Y-97790000D01*
X157514000Y-94955000D02*
X156703700Y-94955000D01*
X157142900Y-97696200D02*
X157932600Y-97696200D01*
X156703700Y-97257000D02*
X157142900Y-97696200D01*
X156703700Y-94955000D02*
X156703700Y-97257000D01*
D45*
X153067001Y-89948001D02*
X151003000Y-87884000D01*
X151003000Y-87884000D02*
X148070000Y-87884000D01*
X154361001Y-89948001D02*
X153067001Y-89948001D01*
X154259999Y-89948001D02*
X154361001Y-89948001D01*
X154361001Y-89948001D02*
X155067000Y-89242002D01*
X155067000Y-89242002D02*
X155067000Y-89141000D01*
X155067000Y-87835000D02*
X154354000Y-87122000D01*
X154354000Y-87122000D02*
X153709000Y-87122000D01*
X155067000Y-89141000D02*
X155067000Y-87835000D01*
X155448000Y-89522000D02*
X155067000Y-89141000D01*
X156638700Y-90712700D02*
X155448000Y-89522000D01*
X157514000Y-91055000D02*
X156638700Y-91055000D01*
X156638700Y-91055000D02*
X156638700Y-90712700D01*
X146595000Y-87884000D02*
X146570000Y-87884000D01*
X151060179Y-91705000D02*
X147989479Y-88634300D01*
X151714000Y-91705000D02*
X151060179Y-91705000D01*
X147345300Y-88634300D02*
X146595000Y-87884000D01*
X147989479Y-88634300D02*
X147345300Y-88634300D01*
X147861000Y-83566000D02*
X146570000Y-84857000D01*
X146570000Y-84857000D02*
X146570000Y-87133700D01*
X142795000Y-87133700D02*
X142523300Y-86862000D01*
X146570000Y-87133700D02*
X142795000Y-87133700D01*
X140898000Y-86862000D02*
X142523300Y-86862000D01*
X146570000Y-87508800D02*
X146570000Y-87133700D01*
X146570000Y-87508800D02*
X146570000Y-87884000D01*
X143648100Y-99211600D02*
X145349900Y-100913400D01*
X145349900Y-100913400D02*
X149035500Y-100913400D01*
X149035500Y-100913400D02*
X150484100Y-102362000D01*
X150484100Y-102362000D02*
X154581700Y-102362000D01*
X154581700Y-102362000D02*
X154928000Y-102708300D01*
X154928000Y-102708300D02*
X158535000Y-102708300D01*
X158535000Y-102708300D02*
X158535000Y-102108000D01*
X157514000Y-96905000D02*
X158389300Y-96905000D01*
X158535000Y-102108000D02*
X158535000Y-101507700D01*
X158708200Y-97223900D02*
X158389300Y-96905000D01*
X158708200Y-101334500D02*
X158708200Y-97223900D01*
X158535000Y-101507700D02*
X158708200Y-101334500D01*
X145386600Y-95417400D02*
X143040000Y-95417400D01*
X146570000Y-94234000D02*
X145386600Y-95417400D01*
X144319400Y-97806300D02*
X145415000Y-96710700D01*
X145415000Y-96710700D02*
X145415000Y-96393000D01*
X145415000Y-96393000D02*
X145505700Y-96393000D01*
X145505700Y-96393000D02*
X146541100Y-95357600D01*
X146541100Y-95357600D02*
X148070000Y-95357600D01*
X148565398Y-95852998D02*
X148070000Y-95357600D01*
X151714000Y-96255000D02*
X150064004Y-96255000D01*
X150064004Y-96255000D02*
X149662002Y-95852998D01*
X149662002Y-95852998D02*
X148565398Y-95852998D01*
X148070000Y-94234000D02*
X148070000Y-94756300D01*
X140898000Y-102876000D02*
X140898000Y-101000700D01*
X148070000Y-94756300D02*
X148070000Y-95357600D01*
X146876100Y-100363000D02*
X144319400Y-97806300D01*
X152908000Y-100363000D02*
X146876100Y-100363000D01*
X140898000Y-100723800D02*
X140898000Y-101000700D01*
X143815500Y-97806300D02*
X140898000Y-100723800D01*
X144319400Y-97806300D02*
X143815500Y-97806300D01*
X155323300Y-99189300D02*
X155323300Y-99695000D01*
X155323300Y-99695000D02*
X155323300Y-101076300D01*
X156349000Y-99695000D02*
X155323300Y-99695000D01*
X155323300Y-101076300D02*
X155424700Y-101177700D01*
X155424700Y-101177700D02*
X156425000Y-101177700D01*
X156425000Y-101177700D02*
X156425000Y-101507700D01*
X156425000Y-101507700D02*
X156425000Y-102108000D01*
X155325600Y-99187000D02*
X155323300Y-99189300D01*
X154686000Y-98552000D02*
X155323300Y-99189300D01*
X153799300Y-98552000D02*
X152953500Y-97706200D01*
X153799300Y-98552000D02*
X154686000Y-98552000D01*
X148081998Y-91820998D02*
X148081998Y-91197998D01*
X148081998Y-91197998D02*
X148070000Y-91186000D01*
X150503057Y-94955000D02*
X149651043Y-94102986D01*
X147819999Y-92082997D02*
X147320000Y-92582996D01*
X148091300Y-91811696D02*
X148081998Y-91820998D01*
X148081998Y-91820998D02*
X147819999Y-92082997D01*
X149651043Y-94102986D02*
X149388988Y-94102986D01*
X149388988Y-94102986D02*
X148770001Y-93483999D01*
X147795999Y-92083039D02*
X148091300Y-91787738D01*
X147795999Y-93274001D02*
X147795999Y-92083039D01*
X148091300Y-91787738D02*
X148091300Y-91811696D01*
X148005997Y-93483999D02*
X147795999Y-93274001D01*
X148770001Y-93483999D02*
X148005997Y-93483999D01*
X151714000Y-94955000D02*
X150503057Y-94955000D01*
X147562802Y-98203002D02*
X152191798Y-98203002D01*
X152191798Y-98203002D02*
X152688600Y-97706200D01*
X147066000Y-97706200D02*
X147562802Y-98203002D01*
X148091300Y-91803100D02*
X148091300Y-91787738D01*
X169025000Y-84963000D02*
X169650300Y-84963000D01*
X152151700Y-94955000D02*
X152589300Y-94955000D01*
X152151700Y-94955000D02*
X151714000Y-94955000D01*
X169852400Y-75110400D02*
X168148000Y-73406000D01*
X169852400Y-84760900D02*
X169852400Y-75110400D01*
X169650300Y-84963000D02*
X169852400Y-84760900D01*
X152953500Y-97706200D02*
X152688600Y-97706200D01*
X152688600Y-95054300D02*
X152589300Y-94955000D01*
X152688600Y-97706200D02*
X152688600Y-95054300D01*
X148420991Y-89911991D02*
X143198009Y-89911991D01*
X140898000Y-92212000D02*
X140898000Y-92462000D01*
X150864000Y-92355000D02*
X148420991Y-89911991D01*
X143198009Y-89911991D02*
X140898000Y-92212000D01*
X151714000Y-92355000D02*
X150864000Y-92355000D01*
X150191837Y-95605000D02*
X149564825Y-94977988D01*
X149564825Y-94977988D02*
X149231041Y-94977988D01*
X151714000Y-95605000D02*
X150191837Y-95605000D01*
X142869900Y-96929400D02*
X143956700Y-96929400D01*
X142523300Y-97276000D02*
X142869900Y-96929400D01*
X140898000Y-97276000D02*
X142523300Y-97276000D01*
D46*
G36*
X171290000Y-107290000D02*
X107710000Y-107290000D01*
X107710000Y-104074619D01*
X108000613Y-104074619D01*
X108340155Y-104896372D01*
X108968321Y-105525636D01*
X109789481Y-105866611D01*
X110678619Y-105867387D01*
X111500372Y-105527845D01*
X112129636Y-104899679D01*
X112470611Y-104078519D01*
X112471387Y-103189381D01*
X112131845Y-102367628D01*
X111503679Y-101738364D01*
X110682519Y-101397389D01*
X109793381Y-101396613D01*
X108971628Y-101736155D01*
X108342364Y-102364321D01*
X108001389Y-103185481D01*
X108000613Y-104074619D01*
X107710000Y-104074619D01*
X107710000Y-89647429D01*
X108333000Y-89647429D01*
X108333000Y-99074572D01*
X112153000Y-99074572D01*
X112153000Y-98312325D01*
X115328587Y-98312325D01*
X115690916Y-99189229D01*
X116361242Y-99860726D01*
X117237513Y-100224585D01*
X118186325Y-100225413D01*
X119063229Y-99863084D01*
X119734726Y-99192758D01*
X120098585Y-98316487D01*
X120099413Y-97367675D01*
X119737084Y-96490771D01*
X119066758Y-95819274D01*
X118190487Y-95455415D01*
X117241675Y-95454587D01*
X116364771Y-95816916D01*
X115693274Y-96487242D01*
X115329415Y-97363513D01*
X115328587Y-98312325D01*
X112153000Y-98312325D01*
X112153000Y-89647429D01*
X108333000Y-89647429D01*
X107710000Y-89647429D01*
X107710000Y-86995000D01*
X113387973Y-86995000D01*
X113386191Y-86996191D01*
X113245843Y-87206235D01*
X113196560Y-87454000D01*
X113196560Y-91454000D01*
X113245843Y-91701765D01*
X113386191Y-91911809D01*
X113596235Y-92052157D01*
X113844000Y-92101440D01*
X120344000Y-92101440D01*
X120591765Y-92052157D01*
X120801809Y-91911809D01*
X120942157Y-91701765D01*
X120991440Y-91454000D01*
X120991440Y-90153000D01*
X121645850Y-90153000D01*
X121739478Y-90246792D01*
X122103213Y-90397828D01*
X122497059Y-90398171D01*
X122861057Y-90247770D01*
X123139792Y-89969522D01*
X123290828Y-89605787D01*
X123291171Y-89211941D01*
X123140770Y-88847943D01*
X122862522Y-88569208D01*
X122498787Y-88418172D01*
X122104941Y-88417829D01*
X121740943Y-88568230D01*
X121646007Y-88663000D01*
X120991440Y-88663000D01*
X120991440Y-87454000D01*
X120942157Y-87206235D01*
X120801809Y-86996191D01*
X120800027Y-86995000D01*
X127000000Y-86995000D01*
X127048601Y-86985333D01*
X127089803Y-86957803D01*
X127117333Y-86916601D01*
X127127000Y-86868000D01*
X127127000Y-66331589D01*
X127652000Y-66856589D01*
X127652000Y-68452995D01*
X127651999Y-68453000D01*
X127708710Y-68738099D01*
X127870205Y-68979795D01*
X128675600Y-69785189D01*
X128675602Y-69785192D01*
X128917298Y-69946687D01*
X129202397Y-70003397D01*
X129485411Y-70003397D01*
X129939817Y-70457804D01*
X129939819Y-70457807D01*
X130099188Y-70564293D01*
X130181515Y-70619302D01*
X130192000Y-70621388D01*
X130192000Y-71827411D01*
X129060191Y-72959220D01*
X128975787Y-72924172D01*
X128581941Y-72923829D01*
X128217943Y-73074230D01*
X127939208Y-73352478D01*
X127788172Y-73716213D01*
X127787829Y-74110059D01*
X127938230Y-74474057D01*
X128216478Y-74752792D01*
X128580213Y-74903828D01*
X128974059Y-74904171D01*
X129338057Y-74753770D01*
X129582318Y-74509935D01*
X129685795Y-74440795D01*
X131463792Y-72662797D01*
X131463795Y-72662795D01*
X131625290Y-72421099D01*
X131631476Y-72390000D01*
X131682001Y-72136000D01*
X131682000Y-72135995D01*
X131682000Y-70676012D01*
X139521930Y-70676012D01*
X139521935Y-70676013D01*
X139807034Y-70619302D01*
X140048730Y-70457807D01*
X141122523Y-69384014D01*
X141255048Y-69384129D01*
X141619046Y-69233728D01*
X141897781Y-68955480D01*
X142048817Y-68591745D01*
X142049160Y-68197899D01*
X141898759Y-67833901D01*
X141620511Y-67555166D01*
X141256776Y-67404130D01*
X140862930Y-67403787D01*
X140498932Y-67554188D01*
X140220197Y-67832436D01*
X140069161Y-68196171D01*
X140069044Y-68330314D01*
X139213345Y-69186012D01*
X138152013Y-69186012D01*
X138327327Y-69010699D01*
X138424000Y-68777310D01*
X138424000Y-68611750D01*
X138265250Y-68453000D01*
X137066000Y-68453000D01*
X137066000Y-68473000D01*
X136812000Y-68473000D01*
X136812000Y-68453000D01*
X136792000Y-68453000D01*
X136792000Y-68199000D01*
X136812000Y-68199000D01*
X136812000Y-68179000D01*
X137066000Y-68179000D01*
X137066000Y-68199000D01*
X138265250Y-68199000D01*
X138424000Y-68040250D01*
X138424000Y-67874690D01*
X138347017Y-67688838D01*
X138387157Y-67628765D01*
X138436440Y-67381000D01*
X138436440Y-66731000D01*
X138387157Y-66483235D01*
X138345573Y-66421000D01*
X138387157Y-66358765D01*
X138436440Y-66111000D01*
X138436440Y-65461000D01*
X138434451Y-65451000D01*
X139214300Y-65451000D01*
X139572109Y-65379827D01*
X139875445Y-65177145D01*
X140078127Y-64873809D01*
X140149300Y-64516000D01*
X140149300Y-64294290D01*
X140500145Y-63943445D01*
X140702827Y-63640109D01*
X140761380Y-63345746D01*
X140812691Y-63367000D01*
X141053250Y-63367000D01*
X141212000Y-63208250D01*
X141212000Y-62484000D01*
X141466000Y-62484000D01*
X141466000Y-63208250D01*
X141624750Y-63367000D01*
X141865309Y-63367000D01*
X142098698Y-63270327D01*
X142277327Y-63091699D01*
X142374000Y-62858310D01*
X142374000Y-62642750D01*
X142215250Y-62484000D01*
X141466000Y-62484000D01*
X141212000Y-62484000D01*
X141192000Y-62484000D01*
X141192000Y-62230000D01*
X141212000Y-62230000D01*
X141212000Y-61505750D01*
X141466000Y-61505750D01*
X141466000Y-62230000D01*
X142215250Y-62230000D01*
X142374000Y-62071250D01*
X142374000Y-61855690D01*
X142277327Y-61622301D01*
X142098698Y-61443673D01*
X141865309Y-61347000D01*
X141624750Y-61347000D01*
X141466000Y-61505750D01*
X141212000Y-61505750D01*
X141149620Y-61443370D01*
X141713989Y-60879000D01*
X155321000Y-60879000D01*
X155678809Y-60807827D01*
X155982145Y-60605145D01*
X157876090Y-58711200D01*
X158082868Y-58711200D01*
X158062499Y-58813600D01*
X158062500Y-58813605D01*
X158062500Y-60880895D01*
X158062499Y-60880900D01*
X158119210Y-61165999D01*
X158280705Y-61407695D01*
X158347103Y-61474092D01*
X158347105Y-61474095D01*
X158572000Y-61624364D01*
X158586063Y-61695065D01*
X158726411Y-61905109D01*
X158936455Y-62045457D01*
X159184220Y-62094740D01*
X159981780Y-62094740D01*
X160229545Y-62045457D01*
X160380434Y-61944636D01*
X160284040Y-62177350D01*
X160284040Y-62412031D01*
X160280765Y-62409843D01*
X160033000Y-62360560D01*
X159133000Y-62360560D01*
X158885235Y-62409843D01*
X158730851Y-62513000D01*
X156672310Y-62513000D01*
X156645470Y-62448043D01*
X156367222Y-62169308D01*
X156003487Y-62018272D01*
X155609641Y-62017929D01*
X155245643Y-62168330D01*
X154966908Y-62446578D01*
X154815872Y-62810313D01*
X154815529Y-63204159D01*
X154965930Y-63568157D01*
X155244178Y-63846892D01*
X155469978Y-63940652D01*
X155438139Y-63972436D01*
X155226841Y-64481298D01*
X155226360Y-65032285D01*
X155436769Y-65541515D01*
X155676600Y-65781764D01*
X155676600Y-66152711D01*
X155108510Y-66720800D01*
X154819290Y-66720800D01*
X154493345Y-66394855D01*
X154190009Y-66192173D01*
X153832200Y-66121000D01*
X149606000Y-66121000D01*
X149248191Y-66192173D01*
X148944855Y-66394855D01*
X148618910Y-66720800D01*
X148479500Y-66720800D01*
X148121691Y-66791973D01*
X147818355Y-66994655D01*
X146795000Y-68018010D01*
X146795000Y-67310000D01*
X146738290Y-67024901D01*
X146595529Y-66811243D01*
X146737045Y-66752770D01*
X147015780Y-66474522D01*
X147166816Y-66110787D01*
X147167159Y-65716941D01*
X147016758Y-65352943D01*
X146738510Y-65074208D01*
X146374775Y-64923172D01*
X145980929Y-64922829D01*
X145696812Y-65040224D01*
X145720726Y-64920000D01*
X150101150Y-64920000D01*
X150164398Y-65073072D01*
X150610579Y-65520032D01*
X151193841Y-65762224D01*
X151825388Y-65762775D01*
X152409072Y-65521602D01*
X152856032Y-65075421D01*
X153098224Y-64492159D01*
X153098775Y-63860612D01*
X152857602Y-63276928D01*
X152411421Y-62829968D01*
X151828159Y-62587776D01*
X151196612Y-62587225D01*
X150612928Y-62828398D01*
X150165968Y-63274579D01*
X150101431Y-63430000D01*
X144580005Y-63430000D01*
X144580000Y-63429999D01*
X144294901Y-63486710D01*
X144209818Y-63543560D01*
X143389000Y-63543560D01*
X143141235Y-63592843D01*
X142931191Y-63733191D01*
X142790843Y-63943235D01*
X142741560Y-64191000D01*
X142741560Y-64841000D01*
X142790843Y-65088765D01*
X142832427Y-65151000D01*
X142790843Y-65213235D01*
X142741560Y-65461000D01*
X142741560Y-66111000D01*
X142790843Y-66358765D01*
X142832427Y-66421000D01*
X142790843Y-66483235D01*
X142741560Y-66731000D01*
X142741560Y-67381000D01*
X142790843Y-67628765D01*
X142832427Y-67691000D01*
X142790843Y-67753235D01*
X142741560Y-68001000D01*
X142741560Y-68651000D01*
X142770483Y-68796410D01*
X142720711Y-68870900D01*
X142664000Y-69155999D01*
X142664001Y-69156004D01*
X142664001Y-69875998D01*
X142664000Y-69876003D01*
X142720711Y-70161102D01*
X142773991Y-70240842D01*
X142773829Y-70427061D01*
X142924230Y-70791059D01*
X143202478Y-71069794D01*
X143211998Y-71073747D01*
X143211998Y-71157748D01*
X143053250Y-70999000D01*
X142812691Y-70999000D01*
X142579302Y-71095673D01*
X142400673Y-71274301D01*
X142304000Y-71507690D01*
X142304000Y-71723250D01*
X142462750Y-71882000D01*
X143212000Y-71882000D01*
X143212000Y-71862000D01*
X143466000Y-71862000D01*
X143466000Y-71882000D01*
X143486000Y-71882000D01*
X143486000Y-72136000D01*
X143466000Y-72136000D01*
X143466000Y-72156000D01*
X143212000Y-72156000D01*
X143212000Y-72136000D01*
X142462750Y-72136000D01*
X142304000Y-72294750D01*
X142304000Y-72510310D01*
X142400673Y-72743699D01*
X142434874Y-72777900D01*
X140520200Y-72777900D01*
X140235101Y-72834610D01*
X139993405Y-72996105D01*
X139993403Y-72996108D01*
X139776905Y-73212605D01*
X139615410Y-73454301D01*
X139558699Y-73739400D01*
X139558700Y-73739405D01*
X139558700Y-80676110D01*
X133005205Y-87229605D01*
X132843710Y-87471301D01*
X132786999Y-87756400D01*
X132787000Y-87756405D01*
X132787000Y-88095405D01*
X132624191Y-88204191D01*
X132483843Y-88414235D01*
X132434560Y-88662000D01*
X132434560Y-88917000D01*
X132212589Y-88917000D01*
X131680795Y-88385205D01*
X131439099Y-88223710D01*
X131399602Y-88215853D01*
X131391809Y-88204191D01*
X131181765Y-88063843D01*
X130934000Y-88014560D01*
X130468700Y-88014560D01*
X130468700Y-87993190D01*
X135725792Y-82736097D01*
X135725795Y-82736095D01*
X135883712Y-82499753D01*
X135896765Y-82497157D01*
X136106809Y-82356809D01*
X136247157Y-82146765D01*
X136296440Y-81899000D01*
X136296440Y-81399000D01*
X136247157Y-81151235D01*
X136106809Y-80941191D01*
X136043666Y-80899000D01*
X136106809Y-80856809D01*
X136247157Y-80646765D01*
X136296440Y-80399000D01*
X136296440Y-79899000D01*
X136247157Y-79651235D01*
X136224285Y-79617005D01*
X137069492Y-78771797D01*
X137069495Y-78771795D01*
X137230990Y-78530099D01*
X137237536Y-78497191D01*
X137287701Y-78245000D01*
X137287700Y-78244995D01*
X137287700Y-75384705D01*
X137287701Y-75384700D01*
X137230990Y-75099601D01*
X137210837Y-75069440D01*
X137069495Y-74857905D01*
X137069492Y-74857903D01*
X136862440Y-74650851D01*
X136862440Y-73025000D01*
X136813157Y-72777235D01*
X136672809Y-72567191D01*
X136462765Y-72426843D01*
X136215000Y-72377560D01*
X134183000Y-72377560D01*
X133935235Y-72426843D01*
X133725191Y-72567191D01*
X133584843Y-72777235D01*
X133535560Y-73025000D01*
X133535560Y-75057000D01*
X133584843Y-75304765D01*
X133725191Y-75514809D01*
X133867872Y-75610146D01*
X133641330Y-75949190D01*
X133515655Y-76581000D01*
X133641330Y-77212810D01*
X133999222Y-77748433D01*
X134534845Y-78106325D01*
X135166655Y-78232000D01*
X135231345Y-78232000D01*
X135569343Y-78164768D01*
X134672205Y-79061905D01*
X134514288Y-79298247D01*
X134501235Y-79300843D01*
X134291191Y-79441191D01*
X134150843Y-79651235D01*
X134101560Y-79899000D01*
X134101560Y-80399000D01*
X134150843Y-80646765D01*
X134291191Y-80856809D01*
X134354334Y-80899000D01*
X134291191Y-80941191D01*
X134150843Y-81151235D01*
X134101560Y-81399000D01*
X134101560Y-81899000D01*
X134150843Y-82146765D01*
X134173715Y-82180996D01*
X129196905Y-87157805D01*
X129035410Y-87399501D01*
X128978699Y-87684600D01*
X128978700Y-87684605D01*
X128978700Y-90521711D01*
X123794279Y-95706131D01*
X123190487Y-95455415D01*
X122241675Y-95454587D01*
X121364771Y-95816916D01*
X120693274Y-96487242D01*
X120329415Y-97363513D01*
X120328587Y-98312325D01*
X120690916Y-99189229D01*
X121361242Y-99860726D01*
X122237513Y-100224585D01*
X123186325Y-100225413D01*
X124063229Y-99863084D01*
X124734726Y-99192758D01*
X125098585Y-98316487D01*
X125099413Y-97367675D01*
X124848111Y-96759478D01*
X130250492Y-91357097D01*
X130250495Y-91357095D01*
X130282337Y-91309440D01*
X130934000Y-91309440D01*
X131181765Y-91260157D01*
X131391809Y-91119809D01*
X131532157Y-90909765D01*
X131581440Y-90662000D01*
X131581440Y-90325260D01*
X131618901Y-90350290D01*
X131904000Y-90407001D01*
X131904005Y-90407000D01*
X132434560Y-90407000D01*
X132434560Y-90662000D01*
X132483843Y-90909765D01*
X132624191Y-91119809D01*
X132787000Y-91228595D01*
X132787000Y-91713411D01*
X128794279Y-95706131D01*
X128190487Y-95455415D01*
X127241675Y-95454587D01*
X126364771Y-95816916D01*
X125693274Y-96487242D01*
X125329415Y-97363513D01*
X125328587Y-98312325D01*
X125690916Y-99189229D01*
X126361242Y-99860726D01*
X127237513Y-100224585D01*
X128186325Y-100225413D01*
X129063229Y-99863084D01*
X129392358Y-99534528D01*
X131199077Y-99534528D01*
X131389364Y-99879271D01*
X132270591Y-100230956D01*
X133219323Y-100218641D01*
X134038636Y-99879271D01*
X134228923Y-99534528D01*
X132714000Y-98019605D01*
X131199077Y-99534528D01*
X129392358Y-99534528D01*
X129734726Y-99192758D01*
X130098585Y-98316487D01*
X130099387Y-97396591D01*
X130323044Y-97396591D01*
X130335359Y-98345323D01*
X130674729Y-99164636D01*
X131019472Y-99354923D01*
X132534395Y-97840000D01*
X132893605Y-97840000D01*
X134408528Y-99354923D01*
X134753271Y-99164636D01*
X135104956Y-98283409D01*
X135092641Y-97334677D01*
X134753271Y-96515364D01*
X134408528Y-96325077D01*
X132893605Y-97840000D01*
X132534395Y-97840000D01*
X131019472Y-96325077D01*
X130674729Y-96515364D01*
X130323044Y-97396591D01*
X130099387Y-97396591D01*
X130099413Y-97367675D01*
X129848111Y-96759478D01*
X130462117Y-96145472D01*
X131199077Y-96145472D01*
X132714000Y-97660395D01*
X134228923Y-96145472D01*
X134038636Y-95800729D01*
X133157409Y-95449044D01*
X132208677Y-95461359D01*
X131389364Y-95800729D01*
X131199077Y-96145472D01*
X130462117Y-96145472D01*
X134058792Y-92548797D01*
X134058795Y-92548795D01*
X134220290Y-92307099D01*
X134236711Y-92224545D01*
X134277001Y-92022000D01*
X134277000Y-92021995D01*
X134277000Y-91228595D01*
X134439809Y-91119809D01*
X134580157Y-90909765D01*
X134629440Y-90662000D01*
X134629440Y-90407000D01*
X135000995Y-90407000D01*
X135001000Y-90407001D01*
X135286099Y-90350290D01*
X135527795Y-90188795D01*
X137104692Y-88611897D01*
X137104695Y-88611895D01*
X137266190Y-88370199D01*
X137322900Y-88085100D01*
X137322900Y-86142390D01*
X145379000Y-78086289D01*
X145379000Y-78105002D01*
X145537748Y-78105002D01*
X145379000Y-78263750D01*
X145379000Y-78404310D01*
X145475673Y-78637699D01*
X145654302Y-78816327D01*
X145887691Y-78913000D01*
X146503250Y-78913000D01*
X146662000Y-78754250D01*
X146662000Y-78105000D01*
X146916000Y-78105000D01*
X146916000Y-78754250D01*
X147074750Y-78913000D01*
X147690309Y-78913000D01*
X147923698Y-78816327D01*
X148102327Y-78637699D01*
X148199000Y-78404310D01*
X148199000Y-78263750D01*
X148040250Y-78105000D01*
X146916000Y-78105000D01*
X146662000Y-78105000D01*
X146642000Y-78105000D01*
X146642000Y-77851000D01*
X146662000Y-77851000D01*
X146662000Y-77831000D01*
X146916000Y-77831000D01*
X146916000Y-77851000D01*
X148040250Y-77851000D01*
X148199000Y-77692250D01*
X148199000Y-77551690D01*
X148109232Y-77334972D01*
X148162157Y-77255765D01*
X148211440Y-77008000D01*
X148211440Y-76408000D01*
X148162157Y-76160235D01*
X148103868Y-76073000D01*
X148162157Y-75985765D01*
X148211440Y-75738000D01*
X148211440Y-75138000D01*
X148201046Y-75085745D01*
X148472109Y-75031827D01*
X148775445Y-74829145D01*
X150026890Y-73577700D01*
X151220374Y-73577700D01*
X151220229Y-73744059D01*
X151370630Y-74108057D01*
X151648878Y-74386792D01*
X151698156Y-74407254D01*
X151320466Y-74784944D01*
X151187941Y-74784829D01*
X150823943Y-74935230D01*
X150545208Y-75213478D01*
X150394172Y-75577213D01*
X150393829Y-75971059D01*
X150544230Y-76335057D01*
X150822478Y-76613792D01*
X151186213Y-76764828D01*
X151580059Y-76765171D01*
X151824090Y-76664340D01*
X151933790Y-76774040D01*
X152582760Y-76774040D01*
X152582760Y-76754040D01*
X152836760Y-76754040D01*
X152836760Y-76774040D01*
X152856760Y-76774040D01*
X152856760Y-77028040D01*
X152836760Y-77028040D01*
X152836760Y-77048040D01*
X152582760Y-77048040D01*
X152582760Y-77028040D01*
X151933790Y-77028040D01*
X151775040Y-77186790D01*
X151775040Y-77527730D01*
X151871713Y-77761119D01*
X152050342Y-77939747D01*
X152283731Y-78036420D01*
X152424010Y-78036420D01*
X152571887Y-77888543D01*
X152462123Y-78052815D01*
X152461489Y-78056000D01*
X149475502Y-78056000D01*
X149414987Y-78030872D01*
X149021141Y-78030529D01*
X148657143Y-78180930D01*
X148378408Y-78459178D01*
X148227372Y-78822913D01*
X148227029Y-79216759D01*
X148377430Y-79580757D01*
X148655678Y-79859492D01*
X149019413Y-80010528D01*
X149413259Y-80010871D01*
X149436394Y-80001312D01*
X149516530Y-80195257D01*
X149794778Y-80473992D01*
X150158513Y-80625028D01*
X150552359Y-80625371D01*
X150916357Y-80474970D01*
X151011293Y-80380200D01*
X162656495Y-80380200D01*
X162656500Y-80380201D01*
X162941599Y-80323490D01*
X163183295Y-80161995D01*
X164074092Y-79271197D01*
X164074095Y-79271195D01*
X164235590Y-79029499D01*
X164292300Y-78744400D01*
X164292300Y-76328944D01*
X166542025Y-76328944D01*
X166741615Y-76810818D01*
X167179621Y-77283188D01*
X167765054Y-77551983D01*
X168021000Y-77433367D01*
X168021000Y-76073000D01*
X166661164Y-76073000D01*
X166542025Y-76328944D01*
X164292300Y-76328944D01*
X164292300Y-74290000D01*
X164844495Y-74290000D01*
X164844500Y-74290001D01*
X165129599Y-74233290D01*
X165371295Y-74071795D01*
X166484560Y-72958530D01*
X166484560Y-74422000D01*
X166533843Y-74669765D01*
X166674191Y-74879809D01*
X166831113Y-74984662D01*
X166741615Y-75081182D01*
X166542025Y-75563056D01*
X166661164Y-75819000D01*
X168021000Y-75819000D01*
X168021000Y-75799000D01*
X168275000Y-75799000D01*
X168275000Y-75819000D01*
X168295000Y-75819000D01*
X168295000Y-76073000D01*
X168275000Y-76073000D01*
X168275000Y-77433367D01*
X168530946Y-77551983D01*
X169042400Y-77317155D01*
X169042400Y-81452560D01*
X168981149Y-81452560D01*
X168830300Y-81301711D01*
X168830300Y-81132950D01*
X168900000Y-81063250D01*
X168900000Y-80264000D01*
X168878000Y-80264000D01*
X168878000Y-80010000D01*
X168900000Y-80010000D01*
X168900000Y-79210750D01*
X168741250Y-79052000D01*
X168648691Y-79052000D01*
X168415302Y-79148673D01*
X168273654Y-79290320D01*
X168232809Y-79229191D01*
X168022765Y-79088843D01*
X167775000Y-79039560D01*
X167275000Y-79039560D01*
X167027235Y-79088843D01*
X166817191Y-79229191D01*
X166676843Y-79439235D01*
X166627560Y-79687000D01*
X166627560Y-80587000D01*
X166676843Y-80834765D01*
X166817191Y-81044809D01*
X167027235Y-81185157D01*
X167275000Y-81234440D01*
X167340300Y-81234440D01*
X167340300Y-81452560D01*
X167275000Y-81452560D01*
X167027235Y-81501843D01*
X167010209Y-81513219D01*
X166443145Y-80946155D01*
X166139809Y-80743473D01*
X165782000Y-80672300D01*
X157594200Y-80672300D01*
X157236391Y-80743473D01*
X156933055Y-80946155D01*
X156730373Y-81249491D01*
X156678528Y-81510130D01*
X156218770Y-81510130D01*
X155971005Y-81559413D01*
X155760961Y-81699761D01*
X155620613Y-81909805D01*
X155571330Y-82157570D01*
X155571330Y-83958430D01*
X155620613Y-84206195D01*
X155760961Y-84416239D01*
X155971005Y-84556587D01*
X156182045Y-84598565D01*
X155560855Y-85219755D01*
X155432602Y-85411700D01*
X151986290Y-85411700D01*
X151624625Y-85050035D01*
X151731980Y-84942680D01*
X151731980Y-83693000D01*
X151985980Y-83693000D01*
X151985980Y-84942680D01*
X152144730Y-85101430D01*
X153234969Y-85101430D01*
X153468358Y-85004757D01*
X153646987Y-84826129D01*
X153743660Y-84592740D01*
X153743660Y-83851750D01*
X153584910Y-83693000D01*
X151985980Y-83693000D01*
X151731980Y-83693000D01*
X150133050Y-83693000D01*
X149974300Y-83851750D01*
X149974300Y-84531442D01*
X149745208Y-84531442D01*
X149758140Y-84466430D01*
X149758140Y-82665570D01*
X149733016Y-82539260D01*
X149974300Y-82539260D01*
X149974300Y-83280250D01*
X150133050Y-83439000D01*
X151731980Y-83439000D01*
X151731980Y-82189320D01*
X151985980Y-82189320D01*
X151985980Y-83439000D01*
X153584910Y-83439000D01*
X153743660Y-83280250D01*
X153743660Y-82539260D01*
X153646987Y-82305871D01*
X153468358Y-82127243D01*
X153234969Y-82030570D01*
X152144730Y-82030570D01*
X151985980Y-82189320D01*
X151731980Y-82189320D01*
X151573230Y-82030570D01*
X150482991Y-82030570D01*
X150249602Y-82127243D01*
X150070973Y-82305871D01*
X149974300Y-82539260D01*
X149733016Y-82539260D01*
X149708857Y-82417805D01*
X149568509Y-82207761D01*
X149358465Y-82067413D01*
X149110700Y-82018130D01*
X146611340Y-82018130D01*
X146363575Y-82067413D01*
X146153531Y-82207761D01*
X146013183Y-82417805D01*
X145963900Y-82665570D01*
X145963900Y-84334147D01*
X145821658Y-84547026D01*
X145760000Y-84857000D01*
X145760000Y-86323700D01*
X143130512Y-86323700D01*
X143096056Y-86289244D01*
X143049555Y-86258173D01*
X142833274Y-86113658D01*
X142795440Y-86106132D01*
X142795440Y-85362000D01*
X142746157Y-85114235D01*
X142605809Y-84904191D01*
X142395765Y-84763843D01*
X142148000Y-84714560D01*
X139648000Y-84714560D01*
X139400235Y-84763843D01*
X139190191Y-84904191D01*
X139049843Y-85114235D01*
X139000560Y-85362000D01*
X139000560Y-88362000D01*
X139049843Y-88609765D01*
X139190191Y-88819809D01*
X139400235Y-88960157D01*
X139648000Y-89009440D01*
X142148000Y-89009440D01*
X142395765Y-88960157D01*
X142605809Y-88819809D01*
X142746157Y-88609765D01*
X142795440Y-88362000D01*
X142795440Y-87943700D01*
X145522560Y-87943700D01*
X145522560Y-88259000D01*
X145571843Y-88506765D01*
X145712191Y-88716809D01*
X145922235Y-88857157D01*
X146170000Y-88906440D01*
X146471927Y-88906440D01*
X146667478Y-89101991D01*
X143198009Y-89101991D01*
X142888035Y-89163649D01*
X142792161Y-89227710D01*
X142625253Y-89339234D01*
X141649927Y-90314560D01*
X139648000Y-90314560D01*
X139400235Y-90363843D01*
X139190191Y-90504191D01*
X139049843Y-90714235D01*
X139000560Y-90962000D01*
X139000560Y-93962000D01*
X139049843Y-94209765D01*
X139190191Y-94419809D01*
X139400235Y-94560157D01*
X139648000Y-94609440D01*
X142148000Y-94609440D01*
X142266436Y-94585882D01*
X142078355Y-94773635D01*
X141930977Y-95128560D01*
X139648000Y-95128560D01*
X139400235Y-95177843D01*
X139190191Y-95318191D01*
X139049843Y-95528235D01*
X139000560Y-95776000D01*
X139000560Y-98776000D01*
X139049843Y-99023765D01*
X139190191Y-99233809D01*
X139400235Y-99374157D01*
X139648000Y-99423440D01*
X141052848Y-99423440D01*
X140325244Y-100151044D01*
X140149658Y-100413826D01*
X140088000Y-100723800D01*
X140088000Y-100728560D01*
X139648000Y-100728560D01*
X139400235Y-100777843D01*
X139190191Y-100918191D01*
X139049843Y-101128235D01*
X139000560Y-101376000D01*
X139000560Y-104376000D01*
X139049843Y-104623765D01*
X139190191Y-104833809D01*
X139400235Y-104974157D01*
X139648000Y-105023440D01*
X142148000Y-105023440D01*
X142395765Y-104974157D01*
X142605809Y-104833809D01*
X142746157Y-104623765D01*
X142795440Y-104376000D01*
X142795440Y-103239570D01*
X145530570Y-103239570D01*
X145530570Y-104455539D01*
X145627243Y-104688928D01*
X145805871Y-104867557D01*
X146039260Y-104964230D01*
X146780250Y-104964230D01*
X146939000Y-104805480D01*
X146939000Y-103080820D01*
X147193000Y-103080820D01*
X147193000Y-104805480D01*
X147351750Y-104964230D01*
X148092740Y-104964230D01*
X148326129Y-104867557D01*
X148504757Y-104688928D01*
X148522236Y-104646730D01*
X151372570Y-104646730D01*
X151372570Y-105736969D01*
X151469243Y-105970358D01*
X151647871Y-106148987D01*
X151881260Y-106245660D01*
X152622250Y-106245660D01*
X152781000Y-106086910D01*
X152781000Y-104487980D01*
X153035000Y-104487980D01*
X153035000Y-106086910D01*
X153193750Y-106245660D01*
X153934740Y-106245660D01*
X154168129Y-106148987D01*
X154346757Y-105970358D01*
X154443430Y-105736969D01*
X154443430Y-104763570D01*
X160262570Y-104763570D01*
X160262570Y-105979539D01*
X160359243Y-106212928D01*
X160537871Y-106391557D01*
X160771260Y-106488230D01*
X161512250Y-106488230D01*
X161671000Y-106329480D01*
X161671000Y-104604820D01*
X161925000Y-104604820D01*
X161925000Y-106329480D01*
X162083750Y-106488230D01*
X162824740Y-106488230D01*
X163058129Y-106391557D01*
X163236757Y-106212928D01*
X163333430Y-105979539D01*
X163333430Y-104763570D01*
X163174680Y-104604820D01*
X161925000Y-104604820D01*
X161671000Y-104604820D01*
X160421320Y-104604820D01*
X160262570Y-104763570D01*
X154443430Y-104763570D01*
X154443430Y-104646730D01*
X154284680Y-104487980D01*
X153035000Y-104487980D01*
X152781000Y-104487980D01*
X151531320Y-104487980D01*
X151372570Y-104646730D01*
X148522236Y-104646730D01*
X148601430Y-104455539D01*
X148601430Y-103239570D01*
X148442680Y-103080820D01*
X147193000Y-103080820D01*
X146939000Y-103080820D01*
X145689320Y-103080820D01*
X145530570Y-103239570D01*
X142795440Y-103239570D01*
X142795440Y-101376000D01*
X142746157Y-101128235D01*
X142605809Y-100918191D01*
X142395765Y-100777843D01*
X142148000Y-100728560D01*
X142038752Y-100728560D01*
X142799380Y-99967932D01*
X143004335Y-100173245D01*
X143421344Y-100346403D01*
X143637579Y-100346592D01*
X144777144Y-101486157D01*
X145039927Y-101661743D01*
X145349900Y-101723400D01*
X145530570Y-101723400D01*
X145530570Y-102668070D01*
X145689320Y-102826820D01*
X146939000Y-102826820D01*
X146939000Y-102806820D01*
X147193000Y-102806820D01*
X147193000Y-102826820D01*
X148442680Y-102826820D01*
X148601430Y-102668070D01*
X148601430Y-101723400D01*
X148699988Y-101723400D01*
X149911344Y-102934757D01*
X150174127Y-103110343D01*
X150311997Y-103137766D01*
X150484100Y-103172000D01*
X151372570Y-103172000D01*
X151372570Y-104075230D01*
X151531320Y-104233980D01*
X152781000Y-104233980D01*
X152781000Y-104213980D01*
X153035000Y-104213980D01*
X153035000Y-104233980D01*
X154284680Y-104233980D01*
X154443430Y-104075230D01*
X154443430Y-103339980D01*
X154486635Y-103368849D01*
X154618026Y-103456642D01*
X154928000Y-103518300D01*
X158535000Y-103518300D01*
X158844974Y-103456642D01*
X159107756Y-103281056D01*
X159283342Y-103018274D01*
X159291730Y-102976101D01*
X160262570Y-102976101D01*
X160262570Y-104192070D01*
X160421320Y-104350820D01*
X161671000Y-104350820D01*
X161671000Y-102626160D01*
X161925000Y-102626160D01*
X161925000Y-104350820D01*
X163174680Y-104350820D01*
X163333430Y-104192070D01*
X163333430Y-104074619D01*
X165912613Y-104074619D01*
X166252155Y-104896372D01*
X166880321Y-105525636D01*
X167701481Y-105866611D01*
X168590619Y-105867387D01*
X169412372Y-105527845D01*
X170041636Y-104899679D01*
X170382611Y-104078519D01*
X170383387Y-103189381D01*
X170043845Y-102367628D01*
X169415679Y-101738364D01*
X168594519Y-101397389D01*
X167705381Y-101396613D01*
X166883628Y-101736155D01*
X166254364Y-102364321D01*
X165913389Y-103185481D01*
X165912613Y-104074619D01*
X163333430Y-104074619D01*
X163333430Y-102976101D01*
X163236757Y-102742712D01*
X163058129Y-102564083D01*
X162824740Y-102467410D01*
X162083750Y-102467410D01*
X161925000Y-102626160D01*
X161671000Y-102626160D01*
X161512250Y-102467410D01*
X160771260Y-102467410D01*
X160537871Y-102564083D01*
X160359243Y-102742712D01*
X160262570Y-102976101D01*
X159291730Y-102976101D01*
X159345000Y-102708300D01*
X159345000Y-102705217D01*
X159428157Y-102580765D01*
X159477440Y-102333000D01*
X159477440Y-101883000D01*
X159436085Y-101675091D01*
X159456543Y-101644473D01*
X159488033Y-101486157D01*
X159518200Y-101334500D01*
X159518200Y-97967140D01*
X159789898Y-98079959D01*
X160186357Y-98080305D01*
X160250130Y-98122917D01*
X160250130Y-100605590D01*
X160299413Y-100853355D01*
X160439761Y-101063399D01*
X160649805Y-101203747D01*
X160897570Y-101253030D01*
X162698430Y-101253030D01*
X162946195Y-101203747D01*
X163156239Y-101063399D01*
X163296587Y-100853355D01*
X163345870Y-100605590D01*
X163345870Y-97854770D01*
X163344862Y-97849700D01*
X164064560Y-97849700D01*
X164064560Y-98165000D01*
X164113843Y-98412765D01*
X164254191Y-98622809D01*
X164464235Y-98763157D01*
X164712000Y-98812440D01*
X165512000Y-98812440D01*
X165759765Y-98763157D01*
X165851102Y-98702127D01*
X165852302Y-98703327D01*
X166085691Y-98800000D01*
X166326250Y-98800000D01*
X166485000Y-98641250D01*
X166485000Y-97917000D01*
X166465000Y-97917000D01*
X166465000Y-97663000D01*
X166485000Y-97663000D01*
X166485000Y-96938750D01*
X166326250Y-96780000D01*
X166085691Y-96780000D01*
X165852302Y-96876673D01*
X165851102Y-96877873D01*
X165805869Y-96847649D01*
X165800290Y-96819601D01*
X165638795Y-96577905D01*
X165526691Y-96503000D01*
X165948695Y-96503000D01*
X165948700Y-96503001D01*
X166233799Y-96446290D01*
X166475495Y-96284795D01*
X166993005Y-95767285D01*
X167027235Y-95790157D01*
X167275000Y-95839440D01*
X167775000Y-95839440D01*
X168022765Y-95790157D01*
X168232809Y-95649809D01*
X168273654Y-95588680D01*
X168415302Y-95730327D01*
X168496642Y-95764019D01*
X168483299Y-95831100D01*
X168483300Y-95831105D01*
X168483300Y-96251111D01*
X168141205Y-96593205D01*
X167979710Y-96834901D01*
X167971853Y-96874398D01*
X167960191Y-96882191D01*
X167950062Y-96897350D01*
X167912787Y-96881872D01*
X167518941Y-96881529D01*
X167418186Y-96923160D01*
X167371698Y-96876673D01*
X167138309Y-96780000D01*
X166897750Y-96780000D01*
X166739000Y-96938750D01*
X166739000Y-97640611D01*
X166725172Y-97673913D01*
X166724829Y-98067759D01*
X166739000Y-98102055D01*
X166739000Y-98641250D01*
X166897750Y-98800000D01*
X167138309Y-98800000D01*
X167253815Y-98752156D01*
X167517213Y-98861528D01*
X167911059Y-98861871D01*
X168093134Y-98786639D01*
X168170235Y-98838157D01*
X168418000Y-98887440D01*
X168918000Y-98887440D01*
X169165765Y-98838157D01*
X169375809Y-98697809D01*
X169416654Y-98636680D01*
X169558302Y-98778327D01*
X169791691Y-98875000D01*
X169884250Y-98875000D01*
X170043000Y-98716250D01*
X170043000Y-97917000D01*
X170293000Y-97917000D01*
X170293000Y-98716250D01*
X170451750Y-98875000D01*
X170544309Y-98875000D01*
X170777698Y-98778327D01*
X170956327Y-98599699D01*
X171053000Y-98366310D01*
X171053000Y-98075750D01*
X170894250Y-97917000D01*
X170293000Y-97917000D01*
X170043000Y-97917000D01*
X170021000Y-97917000D01*
X170021000Y-97663000D01*
X170043000Y-97663000D01*
X170043000Y-96863750D01*
X170293000Y-96863750D01*
X170293000Y-97663000D01*
X170894250Y-97663000D01*
X171053000Y-97504250D01*
X171053000Y-97213690D01*
X170956327Y-96980301D01*
X170777698Y-96801673D01*
X170544309Y-96705000D01*
X170451750Y-96705000D01*
X170293000Y-96863750D01*
X170043000Y-96863750D01*
X169934419Y-96755169D01*
X169973301Y-96559700D01*
X169973300Y-96559695D01*
X169973300Y-96139690D01*
X170241692Y-95871297D01*
X170241695Y-95871295D01*
X170403190Y-95629599D01*
X170459900Y-95344500D01*
X170459900Y-87055000D01*
X170403190Y-86769901D01*
X170241695Y-86528205D01*
X170241692Y-86528203D01*
X169643784Y-85930294D01*
X169732809Y-85870809D01*
X169820828Y-85739080D01*
X169960274Y-85711342D01*
X170223056Y-85535756D01*
X170425157Y-85333656D01*
X170600743Y-85070873D01*
X170662400Y-84760900D01*
X170662400Y-75110400D01*
X170654253Y-75069440D01*
X170600743Y-74800427D01*
X170425157Y-74537644D01*
X169811440Y-73923927D01*
X169811440Y-72390000D01*
X169762157Y-72142235D01*
X169621809Y-71932191D01*
X169411765Y-71791843D01*
X169164000Y-71742560D01*
X168167367Y-71742560D01*
X168422599Y-71691790D01*
X168664295Y-71530295D01*
X170706792Y-69487797D01*
X170706795Y-69487795D01*
X170868290Y-69246099D01*
X170925000Y-68961000D01*
X170925000Y-66421005D01*
X170925001Y-66421000D01*
X170868290Y-66135901D01*
X170866247Y-66132843D01*
X170706795Y-65894205D01*
X170706792Y-65894203D01*
X170071795Y-65259205D01*
X169830099Y-65097710D01*
X169611510Y-65054229D01*
X169454878Y-64819812D01*
X170110805Y-64163885D01*
X170272300Y-63922189D01*
X170329011Y-63637090D01*
X170329010Y-63637085D01*
X170329010Y-62945031D01*
X170329011Y-62945026D01*
X170285800Y-62727795D01*
X170285800Y-54605805D01*
X170285801Y-54605800D01*
X170229090Y-54320701D01*
X170150998Y-54203827D01*
X170067595Y-54079005D01*
X170067592Y-54079003D01*
X166728162Y-50739574D01*
X166728160Y-50739571D01*
X166683904Y-50710000D01*
X171290000Y-50710000D01*
X171290000Y-107290000D01*
X171290000Y-107290000D01*
G37*
X171290000Y-107290000D02*
X107710000Y-107290000D01*
X107710000Y-104074619D01*
X108000613Y-104074619D01*
X108340155Y-104896372D01*
X108968321Y-105525636D01*
X109789481Y-105866611D01*
X110678619Y-105867387D01*
X111500372Y-105527845D01*
X112129636Y-104899679D01*
X112470611Y-104078519D01*
X112471387Y-103189381D01*
X112131845Y-102367628D01*
X111503679Y-101738364D01*
X110682519Y-101397389D01*
X109793381Y-101396613D01*
X108971628Y-101736155D01*
X108342364Y-102364321D01*
X108001389Y-103185481D01*
X108000613Y-104074619D01*
X107710000Y-104074619D01*
X107710000Y-89647429D01*
X108333000Y-89647429D01*
X108333000Y-99074572D01*
X112153000Y-99074572D01*
X112153000Y-98312325D01*
X115328587Y-98312325D01*
X115690916Y-99189229D01*
X116361242Y-99860726D01*
X117237513Y-100224585D01*
X118186325Y-100225413D01*
X119063229Y-99863084D01*
X119734726Y-99192758D01*
X120098585Y-98316487D01*
X120099413Y-97367675D01*
X119737084Y-96490771D01*
X119066758Y-95819274D01*
X118190487Y-95455415D01*
X117241675Y-95454587D01*
X116364771Y-95816916D01*
X115693274Y-96487242D01*
X115329415Y-97363513D01*
X115328587Y-98312325D01*
X112153000Y-98312325D01*
X112153000Y-89647429D01*
X108333000Y-89647429D01*
X107710000Y-89647429D01*
X107710000Y-86995000D01*
X113387973Y-86995000D01*
X113386191Y-86996191D01*
X113245843Y-87206235D01*
X113196560Y-87454000D01*
X113196560Y-91454000D01*
X113245843Y-91701765D01*
X113386191Y-91911809D01*
X113596235Y-92052157D01*
X113844000Y-92101440D01*
X120344000Y-92101440D01*
X120591765Y-92052157D01*
X120801809Y-91911809D01*
X120942157Y-91701765D01*
X120991440Y-91454000D01*
X120991440Y-90153000D01*
X121645850Y-90153000D01*
X121739478Y-90246792D01*
X122103213Y-90397828D01*
X122497059Y-90398171D01*
X122861057Y-90247770D01*
X123139792Y-89969522D01*
X123290828Y-89605787D01*
X123291171Y-89211941D01*
X123140770Y-88847943D01*
X122862522Y-88569208D01*
X122498787Y-88418172D01*
X122104941Y-88417829D01*
X121740943Y-88568230D01*
X121646007Y-88663000D01*
X120991440Y-88663000D01*
X120991440Y-87454000D01*
X120942157Y-87206235D01*
X120801809Y-86996191D01*
X120800027Y-86995000D01*
X127000000Y-86995000D01*
X127048601Y-86985333D01*
X127089803Y-86957803D01*
X127117333Y-86916601D01*
X127127000Y-86868000D01*
X127127000Y-66331589D01*
X127652000Y-66856589D01*
X127652000Y-68452995D01*
X127651999Y-68453000D01*
X127708710Y-68738099D01*
X127870205Y-68979795D01*
X128675600Y-69785189D01*
X128675602Y-69785192D01*
X128917298Y-69946687D01*
X129202397Y-70003397D01*
X129485411Y-70003397D01*
X129939817Y-70457804D01*
X129939819Y-70457807D01*
X130099188Y-70564293D01*
X130181515Y-70619302D01*
X130192000Y-70621388D01*
X130192000Y-71827411D01*
X129060191Y-72959220D01*
X128975787Y-72924172D01*
X128581941Y-72923829D01*
X128217943Y-73074230D01*
X127939208Y-73352478D01*
X127788172Y-73716213D01*
X127787829Y-74110059D01*
X127938230Y-74474057D01*
X128216478Y-74752792D01*
X128580213Y-74903828D01*
X128974059Y-74904171D01*
X129338057Y-74753770D01*
X129582318Y-74509935D01*
X129685795Y-74440795D01*
X131463792Y-72662797D01*
X131463795Y-72662795D01*
X131625290Y-72421099D01*
X131631476Y-72390000D01*
X131682001Y-72136000D01*
X131682000Y-72135995D01*
X131682000Y-70676012D01*
X139521930Y-70676012D01*
X139521935Y-70676013D01*
X139807034Y-70619302D01*
X140048730Y-70457807D01*
X141122523Y-69384014D01*
X141255048Y-69384129D01*
X141619046Y-69233728D01*
X141897781Y-68955480D01*
X142048817Y-68591745D01*
X142049160Y-68197899D01*
X141898759Y-67833901D01*
X141620511Y-67555166D01*
X141256776Y-67404130D01*
X140862930Y-67403787D01*
X140498932Y-67554188D01*
X140220197Y-67832436D01*
X140069161Y-68196171D01*
X140069044Y-68330314D01*
X139213345Y-69186012D01*
X138152013Y-69186012D01*
X138327327Y-69010699D01*
X138424000Y-68777310D01*
X138424000Y-68611750D01*
X138265250Y-68453000D01*
X137066000Y-68453000D01*
X137066000Y-68473000D01*
X136812000Y-68473000D01*
X136812000Y-68453000D01*
X136792000Y-68453000D01*
X136792000Y-68199000D01*
X136812000Y-68199000D01*
X136812000Y-68179000D01*
X137066000Y-68179000D01*
X137066000Y-68199000D01*
X138265250Y-68199000D01*
X138424000Y-68040250D01*
X138424000Y-67874690D01*
X138347017Y-67688838D01*
X138387157Y-67628765D01*
X138436440Y-67381000D01*
X138436440Y-66731000D01*
X138387157Y-66483235D01*
X138345573Y-66421000D01*
X138387157Y-66358765D01*
X138436440Y-66111000D01*
X138436440Y-65461000D01*
X138434451Y-65451000D01*
X139214300Y-65451000D01*
X139572109Y-65379827D01*
X139875445Y-65177145D01*
X140078127Y-64873809D01*
X140149300Y-64516000D01*
X140149300Y-64294290D01*
X140500145Y-63943445D01*
X140702827Y-63640109D01*
X140761380Y-63345746D01*
X140812691Y-63367000D01*
X141053250Y-63367000D01*
X141212000Y-63208250D01*
X141212000Y-62484000D01*
X141466000Y-62484000D01*
X141466000Y-63208250D01*
X141624750Y-63367000D01*
X141865309Y-63367000D01*
X142098698Y-63270327D01*
X142277327Y-63091699D01*
X142374000Y-62858310D01*
X142374000Y-62642750D01*
X142215250Y-62484000D01*
X141466000Y-62484000D01*
X141212000Y-62484000D01*
X141192000Y-62484000D01*
X141192000Y-62230000D01*
X141212000Y-62230000D01*
X141212000Y-61505750D01*
X141466000Y-61505750D01*
X141466000Y-62230000D01*
X142215250Y-62230000D01*
X142374000Y-62071250D01*
X142374000Y-61855690D01*
X142277327Y-61622301D01*
X142098698Y-61443673D01*
X141865309Y-61347000D01*
X141624750Y-61347000D01*
X141466000Y-61505750D01*
X141212000Y-61505750D01*
X141149620Y-61443370D01*
X141713989Y-60879000D01*
X155321000Y-60879000D01*
X155678809Y-60807827D01*
X155982145Y-60605145D01*
X157876090Y-58711200D01*
X158082868Y-58711200D01*
X158062499Y-58813600D01*
X158062500Y-58813605D01*
X158062500Y-60880895D01*
X158062499Y-60880900D01*
X158119210Y-61165999D01*
X158280705Y-61407695D01*
X158347103Y-61474092D01*
X158347105Y-61474095D01*
X158572000Y-61624364D01*
X158586063Y-61695065D01*
X158726411Y-61905109D01*
X158936455Y-62045457D01*
X159184220Y-62094740D01*
X159981780Y-62094740D01*
X160229545Y-62045457D01*
X160380434Y-61944636D01*
X160284040Y-62177350D01*
X160284040Y-62412031D01*
X160280765Y-62409843D01*
X160033000Y-62360560D01*
X159133000Y-62360560D01*
X158885235Y-62409843D01*
X158730851Y-62513000D01*
X156672310Y-62513000D01*
X156645470Y-62448043D01*
X156367222Y-62169308D01*
X156003487Y-62018272D01*
X155609641Y-62017929D01*
X155245643Y-62168330D01*
X154966908Y-62446578D01*
X154815872Y-62810313D01*
X154815529Y-63204159D01*
X154965930Y-63568157D01*
X155244178Y-63846892D01*
X155469978Y-63940652D01*
X155438139Y-63972436D01*
X155226841Y-64481298D01*
X155226360Y-65032285D01*
X155436769Y-65541515D01*
X155676600Y-65781764D01*
X155676600Y-66152711D01*
X155108510Y-66720800D01*
X154819290Y-66720800D01*
X154493345Y-66394855D01*
X154190009Y-66192173D01*
X153832200Y-66121000D01*
X149606000Y-66121000D01*
X149248191Y-66192173D01*
X148944855Y-66394855D01*
X148618910Y-66720800D01*
X148479500Y-66720800D01*
X148121691Y-66791973D01*
X147818355Y-66994655D01*
X146795000Y-68018010D01*
X146795000Y-67310000D01*
X146738290Y-67024901D01*
X146595529Y-66811243D01*
X146737045Y-66752770D01*
X147015780Y-66474522D01*
X147166816Y-66110787D01*
X147167159Y-65716941D01*
X147016758Y-65352943D01*
X146738510Y-65074208D01*
X146374775Y-64923172D01*
X145980929Y-64922829D01*
X145696812Y-65040224D01*
X145720726Y-64920000D01*
X150101150Y-64920000D01*
X150164398Y-65073072D01*
X150610579Y-65520032D01*
X151193841Y-65762224D01*
X151825388Y-65762775D01*
X152409072Y-65521602D01*
X152856032Y-65075421D01*
X153098224Y-64492159D01*
X153098775Y-63860612D01*
X152857602Y-63276928D01*
X152411421Y-62829968D01*
X151828159Y-62587776D01*
X151196612Y-62587225D01*
X150612928Y-62828398D01*
X150165968Y-63274579D01*
X150101431Y-63430000D01*
X144580005Y-63430000D01*
X144580000Y-63429999D01*
X144294901Y-63486710D01*
X144209818Y-63543560D01*
X143389000Y-63543560D01*
X143141235Y-63592843D01*
X142931191Y-63733191D01*
X142790843Y-63943235D01*
X142741560Y-64191000D01*
X142741560Y-64841000D01*
X142790843Y-65088765D01*
X142832427Y-65151000D01*
X142790843Y-65213235D01*
X142741560Y-65461000D01*
X142741560Y-66111000D01*
X142790843Y-66358765D01*
X142832427Y-66421000D01*
X142790843Y-66483235D01*
X142741560Y-66731000D01*
X142741560Y-67381000D01*
X142790843Y-67628765D01*
X142832427Y-67691000D01*
X142790843Y-67753235D01*
X142741560Y-68001000D01*
X142741560Y-68651000D01*
X142770483Y-68796410D01*
X142720711Y-68870900D01*
X142664000Y-69155999D01*
X142664001Y-69156004D01*
X142664001Y-69875998D01*
X142664000Y-69876003D01*
X142720711Y-70161102D01*
X142773991Y-70240842D01*
X142773829Y-70427061D01*
X142924230Y-70791059D01*
X143202478Y-71069794D01*
X143211998Y-71073747D01*
X143211998Y-71157748D01*
X143053250Y-70999000D01*
X142812691Y-70999000D01*
X142579302Y-71095673D01*
X142400673Y-71274301D01*
X142304000Y-71507690D01*
X142304000Y-71723250D01*
X142462750Y-71882000D01*
X143212000Y-71882000D01*
X143212000Y-71862000D01*
X143466000Y-71862000D01*
X143466000Y-71882000D01*
X143486000Y-71882000D01*
X143486000Y-72136000D01*
X143466000Y-72136000D01*
X143466000Y-72156000D01*
X143212000Y-72156000D01*
X143212000Y-72136000D01*
X142462750Y-72136000D01*
X142304000Y-72294750D01*
X142304000Y-72510310D01*
X142400673Y-72743699D01*
X142434874Y-72777900D01*
X140520200Y-72777900D01*
X140235101Y-72834610D01*
X139993405Y-72996105D01*
X139993403Y-72996108D01*
X139776905Y-73212605D01*
X139615410Y-73454301D01*
X139558699Y-73739400D01*
X139558700Y-73739405D01*
X139558700Y-80676110D01*
X133005205Y-87229605D01*
X132843710Y-87471301D01*
X132786999Y-87756400D01*
X132787000Y-87756405D01*
X132787000Y-88095405D01*
X132624191Y-88204191D01*
X132483843Y-88414235D01*
X132434560Y-88662000D01*
X132434560Y-88917000D01*
X132212589Y-88917000D01*
X131680795Y-88385205D01*
X131439099Y-88223710D01*
X131399602Y-88215853D01*
X131391809Y-88204191D01*
X131181765Y-88063843D01*
X130934000Y-88014560D01*
X130468700Y-88014560D01*
X130468700Y-87993190D01*
X135725792Y-82736097D01*
X135725795Y-82736095D01*
X135883712Y-82499753D01*
X135896765Y-82497157D01*
X136106809Y-82356809D01*
X136247157Y-82146765D01*
X136296440Y-81899000D01*
X136296440Y-81399000D01*
X136247157Y-81151235D01*
X136106809Y-80941191D01*
X136043666Y-80899000D01*
X136106809Y-80856809D01*
X136247157Y-80646765D01*
X136296440Y-80399000D01*
X136296440Y-79899000D01*
X136247157Y-79651235D01*
X136224285Y-79617005D01*
X137069492Y-78771797D01*
X137069495Y-78771795D01*
X137230990Y-78530099D01*
X137237536Y-78497191D01*
X137287701Y-78245000D01*
X137287700Y-78244995D01*
X137287700Y-75384705D01*
X137287701Y-75384700D01*
X137230990Y-75099601D01*
X137210837Y-75069440D01*
X137069495Y-74857905D01*
X137069492Y-74857903D01*
X136862440Y-74650851D01*
X136862440Y-73025000D01*
X136813157Y-72777235D01*
X136672809Y-72567191D01*
X136462765Y-72426843D01*
X136215000Y-72377560D01*
X134183000Y-72377560D01*
X133935235Y-72426843D01*
X133725191Y-72567191D01*
X133584843Y-72777235D01*
X133535560Y-73025000D01*
X133535560Y-75057000D01*
X133584843Y-75304765D01*
X133725191Y-75514809D01*
X133867872Y-75610146D01*
X133641330Y-75949190D01*
X133515655Y-76581000D01*
X133641330Y-77212810D01*
X133999222Y-77748433D01*
X134534845Y-78106325D01*
X135166655Y-78232000D01*
X135231345Y-78232000D01*
X135569343Y-78164768D01*
X134672205Y-79061905D01*
X134514288Y-79298247D01*
X134501235Y-79300843D01*
X134291191Y-79441191D01*
X134150843Y-79651235D01*
X134101560Y-79899000D01*
X134101560Y-80399000D01*
X134150843Y-80646765D01*
X134291191Y-80856809D01*
X134354334Y-80899000D01*
X134291191Y-80941191D01*
X134150843Y-81151235D01*
X134101560Y-81399000D01*
X134101560Y-81899000D01*
X134150843Y-82146765D01*
X134173715Y-82180996D01*
X129196905Y-87157805D01*
X129035410Y-87399501D01*
X128978699Y-87684600D01*
X128978700Y-87684605D01*
X128978700Y-90521711D01*
X123794279Y-95706131D01*
X123190487Y-95455415D01*
X122241675Y-95454587D01*
X121364771Y-95816916D01*
X120693274Y-96487242D01*
X120329415Y-97363513D01*
X120328587Y-98312325D01*
X120690916Y-99189229D01*
X121361242Y-99860726D01*
X122237513Y-100224585D01*
X123186325Y-100225413D01*
X124063229Y-99863084D01*
X124734726Y-99192758D01*
X125098585Y-98316487D01*
X125099413Y-97367675D01*
X124848111Y-96759478D01*
X130250492Y-91357097D01*
X130250495Y-91357095D01*
X130282337Y-91309440D01*
X130934000Y-91309440D01*
X131181765Y-91260157D01*
X131391809Y-91119809D01*
X131532157Y-90909765D01*
X131581440Y-90662000D01*
X131581440Y-90325260D01*
X131618901Y-90350290D01*
X131904000Y-90407001D01*
X131904005Y-90407000D01*
X132434560Y-90407000D01*
X132434560Y-90662000D01*
X132483843Y-90909765D01*
X132624191Y-91119809D01*
X132787000Y-91228595D01*
X132787000Y-91713411D01*
X128794279Y-95706131D01*
X128190487Y-95455415D01*
X127241675Y-95454587D01*
X126364771Y-95816916D01*
X125693274Y-96487242D01*
X125329415Y-97363513D01*
X125328587Y-98312325D01*
X125690916Y-99189229D01*
X126361242Y-99860726D01*
X127237513Y-100224585D01*
X128186325Y-100225413D01*
X129063229Y-99863084D01*
X129392358Y-99534528D01*
X131199077Y-99534528D01*
X131389364Y-99879271D01*
X132270591Y-100230956D01*
X133219323Y-100218641D01*
X134038636Y-99879271D01*
X134228923Y-99534528D01*
X132714000Y-98019605D01*
X131199077Y-99534528D01*
X129392358Y-99534528D01*
X129734726Y-99192758D01*
X130098585Y-98316487D01*
X130099387Y-97396591D01*
X130323044Y-97396591D01*
X130335359Y-98345323D01*
X130674729Y-99164636D01*
X131019472Y-99354923D01*
X132534395Y-97840000D01*
X132893605Y-97840000D01*
X134408528Y-99354923D01*
X134753271Y-99164636D01*
X135104956Y-98283409D01*
X135092641Y-97334677D01*
X134753271Y-96515364D01*
X134408528Y-96325077D01*
X132893605Y-97840000D01*
X132534395Y-97840000D01*
X131019472Y-96325077D01*
X130674729Y-96515364D01*
X130323044Y-97396591D01*
X130099387Y-97396591D01*
X130099413Y-97367675D01*
X129848111Y-96759478D01*
X130462117Y-96145472D01*
X131199077Y-96145472D01*
X132714000Y-97660395D01*
X134228923Y-96145472D01*
X134038636Y-95800729D01*
X133157409Y-95449044D01*
X132208677Y-95461359D01*
X131389364Y-95800729D01*
X131199077Y-96145472D01*
X130462117Y-96145472D01*
X134058792Y-92548797D01*
X134058795Y-92548795D01*
X134220290Y-92307099D01*
X134236711Y-92224545D01*
X134277001Y-92022000D01*
X134277000Y-92021995D01*
X134277000Y-91228595D01*
X134439809Y-91119809D01*
X134580157Y-90909765D01*
X134629440Y-90662000D01*
X134629440Y-90407000D01*
X135000995Y-90407000D01*
X135001000Y-90407001D01*
X135286099Y-90350290D01*
X135527795Y-90188795D01*
X137104692Y-88611897D01*
X137104695Y-88611895D01*
X137266190Y-88370199D01*
X137322900Y-88085100D01*
X137322900Y-86142390D01*
X145379000Y-78086289D01*
X145379000Y-78105002D01*
X145537748Y-78105002D01*
X145379000Y-78263750D01*
X145379000Y-78404310D01*
X145475673Y-78637699D01*
X145654302Y-78816327D01*
X145887691Y-78913000D01*
X146503250Y-78913000D01*
X146662000Y-78754250D01*
X146662000Y-78105000D01*
X146916000Y-78105000D01*
X146916000Y-78754250D01*
X147074750Y-78913000D01*
X147690309Y-78913000D01*
X147923698Y-78816327D01*
X148102327Y-78637699D01*
X148199000Y-78404310D01*
X148199000Y-78263750D01*
X148040250Y-78105000D01*
X146916000Y-78105000D01*
X146662000Y-78105000D01*
X146642000Y-78105000D01*
X146642000Y-77851000D01*
X146662000Y-77851000D01*
X146662000Y-77831000D01*
X146916000Y-77831000D01*
X146916000Y-77851000D01*
X148040250Y-77851000D01*
X148199000Y-77692250D01*
X148199000Y-77551690D01*
X148109232Y-77334972D01*
X148162157Y-77255765D01*
X148211440Y-77008000D01*
X148211440Y-76408000D01*
X148162157Y-76160235D01*
X148103868Y-76073000D01*
X148162157Y-75985765D01*
X148211440Y-75738000D01*
X148211440Y-75138000D01*
X148201046Y-75085745D01*
X148472109Y-75031827D01*
X148775445Y-74829145D01*
X150026890Y-73577700D01*
X151220374Y-73577700D01*
X151220229Y-73744059D01*
X151370630Y-74108057D01*
X151648878Y-74386792D01*
X151698156Y-74407254D01*
X151320466Y-74784944D01*
X151187941Y-74784829D01*
X150823943Y-74935230D01*
X150545208Y-75213478D01*
X150394172Y-75577213D01*
X150393829Y-75971059D01*
X150544230Y-76335057D01*
X150822478Y-76613792D01*
X151186213Y-76764828D01*
X151580059Y-76765171D01*
X151824090Y-76664340D01*
X151933790Y-76774040D01*
X152582760Y-76774040D01*
X152582760Y-76754040D01*
X152836760Y-76754040D01*
X152836760Y-76774040D01*
X152856760Y-76774040D01*
X152856760Y-77028040D01*
X152836760Y-77028040D01*
X152836760Y-77048040D01*
X152582760Y-77048040D01*
X152582760Y-77028040D01*
X151933790Y-77028040D01*
X151775040Y-77186790D01*
X151775040Y-77527730D01*
X151871713Y-77761119D01*
X152050342Y-77939747D01*
X152283731Y-78036420D01*
X152424010Y-78036420D01*
X152571887Y-77888543D01*
X152462123Y-78052815D01*
X152461489Y-78056000D01*
X149475502Y-78056000D01*
X149414987Y-78030872D01*
X149021141Y-78030529D01*
X148657143Y-78180930D01*
X148378408Y-78459178D01*
X148227372Y-78822913D01*
X148227029Y-79216759D01*
X148377430Y-79580757D01*
X148655678Y-79859492D01*
X149019413Y-80010528D01*
X149413259Y-80010871D01*
X149436394Y-80001312D01*
X149516530Y-80195257D01*
X149794778Y-80473992D01*
X150158513Y-80625028D01*
X150552359Y-80625371D01*
X150916357Y-80474970D01*
X151011293Y-80380200D01*
X162656495Y-80380200D01*
X162656500Y-80380201D01*
X162941599Y-80323490D01*
X163183295Y-80161995D01*
X164074092Y-79271197D01*
X164074095Y-79271195D01*
X164235590Y-79029499D01*
X164292300Y-78744400D01*
X164292300Y-76328944D01*
X166542025Y-76328944D01*
X166741615Y-76810818D01*
X167179621Y-77283188D01*
X167765054Y-77551983D01*
X168021000Y-77433367D01*
X168021000Y-76073000D01*
X166661164Y-76073000D01*
X166542025Y-76328944D01*
X164292300Y-76328944D01*
X164292300Y-74290000D01*
X164844495Y-74290000D01*
X164844500Y-74290001D01*
X165129599Y-74233290D01*
X165371295Y-74071795D01*
X166484560Y-72958530D01*
X166484560Y-74422000D01*
X166533843Y-74669765D01*
X166674191Y-74879809D01*
X166831113Y-74984662D01*
X166741615Y-75081182D01*
X166542025Y-75563056D01*
X166661164Y-75819000D01*
X168021000Y-75819000D01*
X168021000Y-75799000D01*
X168275000Y-75799000D01*
X168275000Y-75819000D01*
X168295000Y-75819000D01*
X168295000Y-76073000D01*
X168275000Y-76073000D01*
X168275000Y-77433367D01*
X168530946Y-77551983D01*
X169042400Y-77317155D01*
X169042400Y-81452560D01*
X168981149Y-81452560D01*
X168830300Y-81301711D01*
X168830300Y-81132950D01*
X168900000Y-81063250D01*
X168900000Y-80264000D01*
X168878000Y-80264000D01*
X168878000Y-80010000D01*
X168900000Y-80010000D01*
X168900000Y-79210750D01*
X168741250Y-79052000D01*
X168648691Y-79052000D01*
X168415302Y-79148673D01*
X168273654Y-79290320D01*
X168232809Y-79229191D01*
X168022765Y-79088843D01*
X167775000Y-79039560D01*
X167275000Y-79039560D01*
X167027235Y-79088843D01*
X166817191Y-79229191D01*
X166676843Y-79439235D01*
X166627560Y-79687000D01*
X166627560Y-80587000D01*
X166676843Y-80834765D01*
X166817191Y-81044809D01*
X167027235Y-81185157D01*
X167275000Y-81234440D01*
X167340300Y-81234440D01*
X167340300Y-81452560D01*
X167275000Y-81452560D01*
X167027235Y-81501843D01*
X167010209Y-81513219D01*
X166443145Y-80946155D01*
X166139809Y-80743473D01*
X165782000Y-80672300D01*
X157594200Y-80672300D01*
X157236391Y-80743473D01*
X156933055Y-80946155D01*
X156730373Y-81249491D01*
X156678528Y-81510130D01*
X156218770Y-81510130D01*
X155971005Y-81559413D01*
X155760961Y-81699761D01*
X155620613Y-81909805D01*
X155571330Y-82157570D01*
X155571330Y-83958430D01*
X155620613Y-84206195D01*
X155760961Y-84416239D01*
X155971005Y-84556587D01*
X156182045Y-84598565D01*
X155560855Y-85219755D01*
X155432602Y-85411700D01*
X151986290Y-85411700D01*
X151624625Y-85050035D01*
X151731980Y-84942680D01*
X151731980Y-83693000D01*
X151985980Y-83693000D01*
X151985980Y-84942680D01*
X152144730Y-85101430D01*
X153234969Y-85101430D01*
X153468358Y-85004757D01*
X153646987Y-84826129D01*
X153743660Y-84592740D01*
X153743660Y-83851750D01*
X153584910Y-83693000D01*
X151985980Y-83693000D01*
X151731980Y-83693000D01*
X150133050Y-83693000D01*
X149974300Y-83851750D01*
X149974300Y-84531442D01*
X149745208Y-84531442D01*
X149758140Y-84466430D01*
X149758140Y-82665570D01*
X149733016Y-82539260D01*
X149974300Y-82539260D01*
X149974300Y-83280250D01*
X150133050Y-83439000D01*
X151731980Y-83439000D01*
X151731980Y-82189320D01*
X151985980Y-82189320D01*
X151985980Y-83439000D01*
X153584910Y-83439000D01*
X153743660Y-83280250D01*
X153743660Y-82539260D01*
X153646987Y-82305871D01*
X153468358Y-82127243D01*
X153234969Y-82030570D01*
X152144730Y-82030570D01*
X151985980Y-82189320D01*
X151731980Y-82189320D01*
X151573230Y-82030570D01*
X150482991Y-82030570D01*
X150249602Y-82127243D01*
X150070973Y-82305871D01*
X149974300Y-82539260D01*
X149733016Y-82539260D01*
X149708857Y-82417805D01*
X149568509Y-82207761D01*
X149358465Y-82067413D01*
X149110700Y-82018130D01*
X146611340Y-82018130D01*
X146363575Y-82067413D01*
X146153531Y-82207761D01*
X146013183Y-82417805D01*
X145963900Y-82665570D01*
X145963900Y-84334147D01*
X145821658Y-84547026D01*
X145760000Y-84857000D01*
X145760000Y-86323700D01*
X143130512Y-86323700D01*
X143096056Y-86289244D01*
X143049555Y-86258173D01*
X142833274Y-86113658D01*
X142795440Y-86106132D01*
X142795440Y-85362000D01*
X142746157Y-85114235D01*
X142605809Y-84904191D01*
X142395765Y-84763843D01*
X142148000Y-84714560D01*
X139648000Y-84714560D01*
X139400235Y-84763843D01*
X139190191Y-84904191D01*
X139049843Y-85114235D01*
X139000560Y-85362000D01*
X139000560Y-88362000D01*
X139049843Y-88609765D01*
X139190191Y-88819809D01*
X139400235Y-88960157D01*
X139648000Y-89009440D01*
X142148000Y-89009440D01*
X142395765Y-88960157D01*
X142605809Y-88819809D01*
X142746157Y-88609765D01*
X142795440Y-88362000D01*
X142795440Y-87943700D01*
X145522560Y-87943700D01*
X145522560Y-88259000D01*
X145571843Y-88506765D01*
X145712191Y-88716809D01*
X145922235Y-88857157D01*
X146170000Y-88906440D01*
X146471927Y-88906440D01*
X146667478Y-89101991D01*
X143198009Y-89101991D01*
X142888035Y-89163649D01*
X142792161Y-89227710D01*
X142625253Y-89339234D01*
X141649927Y-90314560D01*
X139648000Y-90314560D01*
X139400235Y-90363843D01*
X139190191Y-90504191D01*
X139049843Y-90714235D01*
X139000560Y-90962000D01*
X139000560Y-93962000D01*
X139049843Y-94209765D01*
X139190191Y-94419809D01*
X139400235Y-94560157D01*
X139648000Y-94609440D01*
X142148000Y-94609440D01*
X142266436Y-94585882D01*
X142078355Y-94773635D01*
X141930977Y-95128560D01*
X139648000Y-95128560D01*
X139400235Y-95177843D01*
X139190191Y-95318191D01*
X139049843Y-95528235D01*
X139000560Y-95776000D01*
X139000560Y-98776000D01*
X139049843Y-99023765D01*
X139190191Y-99233809D01*
X139400235Y-99374157D01*
X139648000Y-99423440D01*
X141052848Y-99423440D01*
X140325244Y-100151044D01*
X140149658Y-100413826D01*
X140088000Y-100723800D01*
X140088000Y-100728560D01*
X139648000Y-100728560D01*
X139400235Y-100777843D01*
X139190191Y-100918191D01*
X139049843Y-101128235D01*
X139000560Y-101376000D01*
X139000560Y-104376000D01*
X139049843Y-104623765D01*
X139190191Y-104833809D01*
X139400235Y-104974157D01*
X139648000Y-105023440D01*
X142148000Y-105023440D01*
X142395765Y-104974157D01*
X142605809Y-104833809D01*
X142746157Y-104623765D01*
X142795440Y-104376000D01*
X142795440Y-103239570D01*
X145530570Y-103239570D01*
X145530570Y-104455539D01*
X145627243Y-104688928D01*
X145805871Y-104867557D01*
X146039260Y-104964230D01*
X146780250Y-104964230D01*
X146939000Y-104805480D01*
X146939000Y-103080820D01*
X147193000Y-103080820D01*
X147193000Y-104805480D01*
X147351750Y-104964230D01*
X148092740Y-104964230D01*
X148326129Y-104867557D01*
X148504757Y-104688928D01*
X148522236Y-104646730D01*
X151372570Y-104646730D01*
X151372570Y-105736969D01*
X151469243Y-105970358D01*
X151647871Y-106148987D01*
X151881260Y-106245660D01*
X152622250Y-106245660D01*
X152781000Y-106086910D01*
X152781000Y-104487980D01*
X153035000Y-104487980D01*
X153035000Y-106086910D01*
X153193750Y-106245660D01*
X153934740Y-106245660D01*
X154168129Y-106148987D01*
X154346757Y-105970358D01*
X154443430Y-105736969D01*
X154443430Y-104763570D01*
X160262570Y-104763570D01*
X160262570Y-105979539D01*
X160359243Y-106212928D01*
X160537871Y-106391557D01*
X160771260Y-106488230D01*
X161512250Y-106488230D01*
X161671000Y-106329480D01*
X161671000Y-104604820D01*
X161925000Y-104604820D01*
X161925000Y-106329480D01*
X162083750Y-106488230D01*
X162824740Y-106488230D01*
X163058129Y-106391557D01*
X163236757Y-106212928D01*
X163333430Y-105979539D01*
X163333430Y-104763570D01*
X163174680Y-104604820D01*
X161925000Y-104604820D01*
X161671000Y-104604820D01*
X160421320Y-104604820D01*
X160262570Y-104763570D01*
X154443430Y-104763570D01*
X154443430Y-104646730D01*
X154284680Y-104487980D01*
X153035000Y-104487980D01*
X152781000Y-104487980D01*
X151531320Y-104487980D01*
X151372570Y-104646730D01*
X148522236Y-104646730D01*
X148601430Y-104455539D01*
X148601430Y-103239570D01*
X148442680Y-103080820D01*
X147193000Y-103080820D01*
X146939000Y-103080820D01*
X145689320Y-103080820D01*
X145530570Y-103239570D01*
X142795440Y-103239570D01*
X142795440Y-101376000D01*
X142746157Y-101128235D01*
X142605809Y-100918191D01*
X142395765Y-100777843D01*
X142148000Y-100728560D01*
X142038752Y-100728560D01*
X142799380Y-99967932D01*
X143004335Y-100173245D01*
X143421344Y-100346403D01*
X143637579Y-100346592D01*
X144777144Y-101486157D01*
X145039927Y-101661743D01*
X145349900Y-101723400D01*
X145530570Y-101723400D01*
X145530570Y-102668070D01*
X145689320Y-102826820D01*
X146939000Y-102826820D01*
X146939000Y-102806820D01*
X147193000Y-102806820D01*
X147193000Y-102826820D01*
X148442680Y-102826820D01*
X148601430Y-102668070D01*
X148601430Y-101723400D01*
X148699988Y-101723400D01*
X149911344Y-102934757D01*
X150174127Y-103110343D01*
X150311997Y-103137766D01*
X150484100Y-103172000D01*
X151372570Y-103172000D01*
X151372570Y-104075230D01*
X151531320Y-104233980D01*
X152781000Y-104233980D01*
X152781000Y-104213980D01*
X153035000Y-104213980D01*
X153035000Y-104233980D01*
X154284680Y-104233980D01*
X154443430Y-104075230D01*
X154443430Y-103339980D01*
X154486635Y-103368849D01*
X154618026Y-103456642D01*
X154928000Y-103518300D01*
X158535000Y-103518300D01*
X158844974Y-103456642D01*
X159107756Y-103281056D01*
X159283342Y-103018274D01*
X159291730Y-102976101D01*
X160262570Y-102976101D01*
X160262570Y-104192070D01*
X160421320Y-104350820D01*
X161671000Y-104350820D01*
X161671000Y-102626160D01*
X161925000Y-102626160D01*
X161925000Y-104350820D01*
X163174680Y-104350820D01*
X163333430Y-104192070D01*
X163333430Y-104074619D01*
X165912613Y-104074619D01*
X166252155Y-104896372D01*
X166880321Y-105525636D01*
X167701481Y-105866611D01*
X168590619Y-105867387D01*
X169412372Y-105527845D01*
X170041636Y-104899679D01*
X170382611Y-104078519D01*
X170383387Y-103189381D01*
X170043845Y-102367628D01*
X169415679Y-101738364D01*
X168594519Y-101397389D01*
X167705381Y-101396613D01*
X166883628Y-101736155D01*
X166254364Y-102364321D01*
X165913389Y-103185481D01*
X165912613Y-104074619D01*
X163333430Y-104074619D01*
X163333430Y-102976101D01*
X163236757Y-102742712D01*
X163058129Y-102564083D01*
X162824740Y-102467410D01*
X162083750Y-102467410D01*
X161925000Y-102626160D01*
X161671000Y-102626160D01*
X161512250Y-102467410D01*
X160771260Y-102467410D01*
X160537871Y-102564083D01*
X160359243Y-102742712D01*
X160262570Y-102976101D01*
X159291730Y-102976101D01*
X159345000Y-102708300D01*
X159345000Y-102705217D01*
X159428157Y-102580765D01*
X159477440Y-102333000D01*
X159477440Y-101883000D01*
X159436085Y-101675091D01*
X159456543Y-101644473D01*
X159488033Y-101486157D01*
X159518200Y-101334500D01*
X159518200Y-97967140D01*
X159789898Y-98079959D01*
X160186357Y-98080305D01*
X160250130Y-98122917D01*
X160250130Y-100605590D01*
X160299413Y-100853355D01*
X160439761Y-101063399D01*
X160649805Y-101203747D01*
X160897570Y-101253030D01*
X162698430Y-101253030D01*
X162946195Y-101203747D01*
X163156239Y-101063399D01*
X163296587Y-100853355D01*
X163345870Y-100605590D01*
X163345870Y-97854770D01*
X163344862Y-97849700D01*
X164064560Y-97849700D01*
X164064560Y-98165000D01*
X164113843Y-98412765D01*
X164254191Y-98622809D01*
X164464235Y-98763157D01*
X164712000Y-98812440D01*
X165512000Y-98812440D01*
X165759765Y-98763157D01*
X165851102Y-98702127D01*
X165852302Y-98703327D01*
X166085691Y-98800000D01*
X166326250Y-98800000D01*
X166485000Y-98641250D01*
X166485000Y-97917000D01*
X166465000Y-97917000D01*
X166465000Y-97663000D01*
X166485000Y-97663000D01*
X166485000Y-96938750D01*
X166326250Y-96780000D01*
X166085691Y-96780000D01*
X165852302Y-96876673D01*
X165851102Y-96877873D01*
X165805869Y-96847649D01*
X165800290Y-96819601D01*
X165638795Y-96577905D01*
X165526691Y-96503000D01*
X165948695Y-96503000D01*
X165948700Y-96503001D01*
X166233799Y-96446290D01*
X166475495Y-96284795D01*
X166993005Y-95767285D01*
X167027235Y-95790157D01*
X167275000Y-95839440D01*
X167775000Y-95839440D01*
X168022765Y-95790157D01*
X168232809Y-95649809D01*
X168273654Y-95588680D01*
X168415302Y-95730327D01*
X168496642Y-95764019D01*
X168483299Y-95831100D01*
X168483300Y-95831105D01*
X168483300Y-96251111D01*
X168141205Y-96593205D01*
X167979710Y-96834901D01*
X167971853Y-96874398D01*
X167960191Y-96882191D01*
X167950062Y-96897350D01*
X167912787Y-96881872D01*
X167518941Y-96881529D01*
X167418186Y-96923160D01*
X167371698Y-96876673D01*
X167138309Y-96780000D01*
X166897750Y-96780000D01*
X166739000Y-96938750D01*
X166739000Y-97640611D01*
X166725172Y-97673913D01*
X166724829Y-98067759D01*
X166739000Y-98102055D01*
X166739000Y-98641250D01*
X166897750Y-98800000D01*
X167138309Y-98800000D01*
X167253815Y-98752156D01*
X167517213Y-98861528D01*
X167911059Y-98861871D01*
X168093134Y-98786639D01*
X168170235Y-98838157D01*
X168418000Y-98887440D01*
X168918000Y-98887440D01*
X169165765Y-98838157D01*
X169375809Y-98697809D01*
X169416654Y-98636680D01*
X169558302Y-98778327D01*
X169791691Y-98875000D01*
X169884250Y-98875000D01*
X170043000Y-98716250D01*
X170043000Y-97917000D01*
X170293000Y-97917000D01*
X170293000Y-98716250D01*
X170451750Y-98875000D01*
X170544309Y-98875000D01*
X170777698Y-98778327D01*
X170956327Y-98599699D01*
X171053000Y-98366310D01*
X171053000Y-98075750D01*
X170894250Y-97917000D01*
X170293000Y-97917000D01*
X170043000Y-97917000D01*
X170021000Y-97917000D01*
X170021000Y-97663000D01*
X170043000Y-97663000D01*
X170043000Y-96863750D01*
X170293000Y-96863750D01*
X170293000Y-97663000D01*
X170894250Y-97663000D01*
X171053000Y-97504250D01*
X171053000Y-97213690D01*
X170956327Y-96980301D01*
X170777698Y-96801673D01*
X170544309Y-96705000D01*
X170451750Y-96705000D01*
X170293000Y-96863750D01*
X170043000Y-96863750D01*
X169934419Y-96755169D01*
X169973301Y-96559700D01*
X169973300Y-96559695D01*
X169973300Y-96139690D01*
X170241692Y-95871297D01*
X170241695Y-95871295D01*
X170403190Y-95629599D01*
X170459900Y-95344500D01*
X170459900Y-87055000D01*
X170403190Y-86769901D01*
X170241695Y-86528205D01*
X170241692Y-86528203D01*
X169643784Y-85930294D01*
X169732809Y-85870809D01*
X169820828Y-85739080D01*
X169960274Y-85711342D01*
X170223056Y-85535756D01*
X170425157Y-85333656D01*
X170600743Y-85070873D01*
X170662400Y-84760900D01*
X170662400Y-75110400D01*
X170654253Y-75069440D01*
X170600743Y-74800427D01*
X170425157Y-74537644D01*
X169811440Y-73923927D01*
X169811440Y-72390000D01*
X169762157Y-72142235D01*
X169621809Y-71932191D01*
X169411765Y-71791843D01*
X169164000Y-71742560D01*
X168167367Y-71742560D01*
X168422599Y-71691790D01*
X168664295Y-71530295D01*
X170706792Y-69487797D01*
X170706795Y-69487795D01*
X170868290Y-69246099D01*
X170925000Y-68961000D01*
X170925000Y-66421005D01*
X170925001Y-66421000D01*
X170868290Y-66135901D01*
X170866247Y-66132843D01*
X170706795Y-65894205D01*
X170706792Y-65894203D01*
X170071795Y-65259205D01*
X169830099Y-65097710D01*
X169611510Y-65054229D01*
X169454878Y-64819812D01*
X170110805Y-64163885D01*
X170272300Y-63922189D01*
X170329011Y-63637090D01*
X170329010Y-63637085D01*
X170329010Y-62945031D01*
X170329011Y-62945026D01*
X170285800Y-62727795D01*
X170285800Y-54605805D01*
X170285801Y-54605800D01*
X170229090Y-54320701D01*
X170150998Y-54203827D01*
X170067595Y-54079005D01*
X170067592Y-54079003D01*
X166728162Y-50739574D01*
X166728160Y-50739571D01*
X166683904Y-50710000D01*
X171290000Y-50710000D01*
X171290000Y-107290000D01*
G36*
X157898200Y-101030792D02*
X157786658Y-101197726D01*
X157725000Y-101507700D01*
X157725000Y-101510783D01*
X157641843Y-101635235D01*
X157592560Y-101883000D01*
X157592560Y-101898300D01*
X157367440Y-101898300D01*
X157367440Y-101883000D01*
X157318157Y-101635235D01*
X157235000Y-101510783D01*
X157235000Y-101177700D01*
X157173342Y-100867726D01*
X157014997Y-100630747D01*
X157056809Y-100602809D01*
X157097654Y-100541680D01*
X157239302Y-100683327D01*
X157472691Y-100780000D01*
X157565250Y-100780000D01*
X157724000Y-100621250D01*
X157724000Y-99822000D01*
X157702000Y-99822000D01*
X157702000Y-99568000D01*
X157724000Y-99568000D01*
X157724000Y-99548000D01*
X157898200Y-99548000D01*
X157898200Y-101030792D01*
X157898200Y-101030792D01*
G37*
X157898200Y-101030792D02*
X157786658Y-101197726D01*
X157725000Y-101507700D01*
X157725000Y-101510783D01*
X157641843Y-101635235D01*
X157592560Y-101883000D01*
X157592560Y-101898300D01*
X157367440Y-101898300D01*
X157367440Y-101883000D01*
X157318157Y-101635235D01*
X157235000Y-101510783D01*
X157235000Y-101177700D01*
X157173342Y-100867726D01*
X157014997Y-100630747D01*
X157056809Y-100602809D01*
X157097654Y-100541680D01*
X157239302Y-100683327D01*
X157472691Y-100780000D01*
X157565250Y-100780000D01*
X157724000Y-100621250D01*
X157724000Y-99822000D01*
X157702000Y-99822000D01*
X157702000Y-99568000D01*
X157724000Y-99568000D01*
X157724000Y-99548000D01*
X157898200Y-99548000D01*
X157898200Y-101030792D01*
G36*
X155828700Y-91048213D02*
X155828700Y-91055000D01*
X155886385Y-91345000D01*
X154899750Y-91345000D01*
X154741000Y-91503750D01*
X154741000Y-93853000D01*
X154761000Y-93853000D01*
X154761000Y-94107000D01*
X154741000Y-94107000D01*
X154741000Y-96456250D01*
X154899750Y-96615000D01*
X155958700Y-96615000D01*
X155958700Y-97256995D01*
X155958699Y-97257000D01*
X156015410Y-97542099D01*
X156176905Y-97783795D01*
X156616103Y-98222992D01*
X156616105Y-98222995D01*
X156749798Y-98312325D01*
X156857801Y-98384490D01*
X157142900Y-98441201D01*
X157142905Y-98441200D01*
X157277450Y-98441200D01*
X157371078Y-98534992D01*
X157551717Y-98610000D01*
X157472691Y-98610000D01*
X157239302Y-98706673D01*
X157097654Y-98848320D01*
X157056809Y-98787191D01*
X156846765Y-98646843D01*
X156599000Y-98597560D01*
X156099000Y-98597560D01*
X155912056Y-98634745D01*
X155898357Y-98614243D01*
X155884491Y-98604978D01*
X155258756Y-97979244D01*
X155207940Y-97945290D01*
X154995974Y-97803658D01*
X154686000Y-97742000D01*
X154134813Y-97742000D01*
X153526256Y-97133444D01*
X153498600Y-97114965D01*
X153498600Y-96615000D01*
X154328250Y-96615000D01*
X154487000Y-96456250D01*
X154487000Y-94107000D01*
X154467000Y-94107000D01*
X154467000Y-93853000D01*
X154487000Y-93853000D01*
X154487000Y-91503750D01*
X154328250Y-91345000D01*
X152987691Y-91345000D01*
X152841647Y-91405493D01*
X152836576Y-91380000D01*
X152861440Y-91255000D01*
X152861440Y-90855000D01*
X152832883Y-90711432D01*
X153067001Y-90758001D01*
X154361001Y-90758001D01*
X154670975Y-90696343D01*
X154933757Y-90520757D01*
X155117501Y-90337013D01*
X155828700Y-91048213D01*
X155828700Y-91048213D01*
G37*
X155828700Y-91048213D02*
X155828700Y-91055000D01*
X155886385Y-91345000D01*
X154899750Y-91345000D01*
X154741000Y-91503750D01*
X154741000Y-93853000D01*
X154761000Y-93853000D01*
X154761000Y-94107000D01*
X154741000Y-94107000D01*
X154741000Y-96456250D01*
X154899750Y-96615000D01*
X155958700Y-96615000D01*
X155958700Y-97256995D01*
X155958699Y-97257000D01*
X156015410Y-97542099D01*
X156176905Y-97783795D01*
X156616103Y-98222992D01*
X156616105Y-98222995D01*
X156749798Y-98312325D01*
X156857801Y-98384490D01*
X157142900Y-98441201D01*
X157142905Y-98441200D01*
X157277450Y-98441200D01*
X157371078Y-98534992D01*
X157551717Y-98610000D01*
X157472691Y-98610000D01*
X157239302Y-98706673D01*
X157097654Y-98848320D01*
X157056809Y-98787191D01*
X156846765Y-98646843D01*
X156599000Y-98597560D01*
X156099000Y-98597560D01*
X155912056Y-98634745D01*
X155898357Y-98614243D01*
X155884491Y-98604978D01*
X155258756Y-97979244D01*
X155207940Y-97945290D01*
X154995974Y-97803658D01*
X154686000Y-97742000D01*
X154134813Y-97742000D01*
X153526256Y-97133444D01*
X153498600Y-97114965D01*
X153498600Y-96615000D01*
X154328250Y-96615000D01*
X154487000Y-96456250D01*
X154487000Y-94107000D01*
X154467000Y-94107000D01*
X154467000Y-93853000D01*
X154487000Y-93853000D01*
X154487000Y-91503750D01*
X154328250Y-91345000D01*
X152987691Y-91345000D01*
X152841647Y-91405493D01*
X152836576Y-91380000D01*
X152861440Y-91255000D01*
X152861440Y-90855000D01*
X152832883Y-90711432D01*
X153067001Y-90758001D01*
X154361001Y-90758001D01*
X154670975Y-90696343D01*
X154933757Y-90520757D01*
X155117501Y-90337013D01*
X155828700Y-91048213D01*
G36*
X163965000Y-91059000D02*
X163945000Y-91059000D01*
X163945000Y-91783250D01*
X164103750Y-91942000D01*
X164344309Y-91942000D01*
X164577698Y-91845327D01*
X164756327Y-91666699D01*
X164853000Y-91433310D01*
X164853000Y-91270890D01*
X166437903Y-92855792D01*
X166437905Y-92855795D01*
X166674247Y-93013712D01*
X166676843Y-93026765D01*
X166817191Y-93236809D01*
X167027235Y-93377157D01*
X167275000Y-93426440D01*
X167775000Y-93426440D01*
X168022765Y-93377157D01*
X168232809Y-93236809D01*
X168273654Y-93175680D01*
X168415302Y-93317327D01*
X168648691Y-93414000D01*
X168741250Y-93414000D01*
X168897998Y-93257252D01*
X168897998Y-93414000D01*
X168969900Y-93414000D01*
X168969900Y-93657000D01*
X168897998Y-93657000D01*
X168897998Y-93813748D01*
X168741250Y-93657000D01*
X168648691Y-93657000D01*
X168415302Y-93753673D01*
X168273654Y-93895320D01*
X168232809Y-93834191D01*
X168022765Y-93693843D01*
X167775000Y-93644560D01*
X167275000Y-93644560D01*
X167027235Y-93693843D01*
X166817191Y-93834191D01*
X166676843Y-94044235D01*
X166674247Y-94057288D01*
X166437905Y-94215205D01*
X165640110Y-95013000D01*
X164734482Y-95013000D01*
X164675809Y-94925191D01*
X164465765Y-94784843D01*
X164218000Y-94735560D01*
X163773400Y-94735560D01*
X163773400Y-93345000D01*
X163945000Y-93345000D01*
X163945000Y-94069250D01*
X164103750Y-94228000D01*
X164344309Y-94228000D01*
X164577698Y-94131327D01*
X164756327Y-93952699D01*
X164853000Y-93719310D01*
X164853000Y-93503750D01*
X164694250Y-93345000D01*
X163945000Y-93345000D01*
X163773400Y-93345000D01*
X163773400Y-92647905D01*
X163773401Y-92647900D01*
X163717476Y-92366750D01*
X163945000Y-92366750D01*
X163945000Y-93091000D01*
X164694250Y-93091000D01*
X164853000Y-92932250D01*
X164853000Y-92716690D01*
X164756327Y-92483301D01*
X164577698Y-92304673D01*
X164344309Y-92208000D01*
X164103750Y-92208000D01*
X163945000Y-92366750D01*
X163717476Y-92366750D01*
X163716690Y-92362801D01*
X163677850Y-92304673D01*
X163555195Y-92121105D01*
X163555192Y-92121103D01*
X163512239Y-92078150D01*
X163569792Y-92020597D01*
X163569795Y-92020595D01*
X163731290Y-91778899D01*
X163788000Y-91493800D01*
X163788000Y-90939600D01*
X163965000Y-90939600D01*
X163965000Y-91059000D01*
X163965000Y-91059000D01*
G37*
X163965000Y-91059000D02*
X163945000Y-91059000D01*
X163945000Y-91783250D01*
X164103750Y-91942000D01*
X164344309Y-91942000D01*
X164577698Y-91845327D01*
X164756327Y-91666699D01*
X164853000Y-91433310D01*
X164853000Y-91270890D01*
X166437903Y-92855792D01*
X166437905Y-92855795D01*
X166674247Y-93013712D01*
X166676843Y-93026765D01*
X166817191Y-93236809D01*
X167027235Y-93377157D01*
X167275000Y-93426440D01*
X167775000Y-93426440D01*
X168022765Y-93377157D01*
X168232809Y-93236809D01*
X168273654Y-93175680D01*
X168415302Y-93317327D01*
X168648691Y-93414000D01*
X168741250Y-93414000D01*
X168897998Y-93257252D01*
X168897998Y-93414000D01*
X168969900Y-93414000D01*
X168969900Y-93657000D01*
X168897998Y-93657000D01*
X168897998Y-93813748D01*
X168741250Y-93657000D01*
X168648691Y-93657000D01*
X168415302Y-93753673D01*
X168273654Y-93895320D01*
X168232809Y-93834191D01*
X168022765Y-93693843D01*
X167775000Y-93644560D01*
X167275000Y-93644560D01*
X167027235Y-93693843D01*
X166817191Y-93834191D01*
X166676843Y-94044235D01*
X166674247Y-94057288D01*
X166437905Y-94215205D01*
X165640110Y-95013000D01*
X164734482Y-95013000D01*
X164675809Y-94925191D01*
X164465765Y-94784843D01*
X164218000Y-94735560D01*
X163773400Y-94735560D01*
X163773400Y-93345000D01*
X163945000Y-93345000D01*
X163945000Y-94069250D01*
X164103750Y-94228000D01*
X164344309Y-94228000D01*
X164577698Y-94131327D01*
X164756327Y-93952699D01*
X164853000Y-93719310D01*
X164853000Y-93503750D01*
X164694250Y-93345000D01*
X163945000Y-93345000D01*
X163773400Y-93345000D01*
X163773400Y-92647905D01*
X163773401Y-92647900D01*
X163717476Y-92366750D01*
X163945000Y-92366750D01*
X163945000Y-93091000D01*
X164694250Y-93091000D01*
X164853000Y-92932250D01*
X164853000Y-92716690D01*
X164756327Y-92483301D01*
X164577698Y-92304673D01*
X164344309Y-92208000D01*
X164103750Y-92208000D01*
X163945000Y-92366750D01*
X163717476Y-92366750D01*
X163716690Y-92362801D01*
X163677850Y-92304673D01*
X163555195Y-92121105D01*
X163555192Y-92121103D01*
X163512239Y-92078150D01*
X163569792Y-92020597D01*
X163569795Y-92020595D01*
X163731290Y-91778899D01*
X163788000Y-91493800D01*
X163788000Y-90939600D01*
X163965000Y-90939600D01*
X163965000Y-91059000D01*
G36*
X168415302Y-88618327D02*
X168648691Y-88715000D01*
X168741250Y-88715000D01*
X168897998Y-88558252D01*
X168897998Y-88715000D01*
X168969900Y-88715000D01*
X168969900Y-89056850D01*
X168962000Y-89064750D01*
X168962000Y-89789000D01*
X168969900Y-89789000D01*
X168969900Y-90043000D01*
X168962000Y-90043000D01*
X168962000Y-90767250D01*
X168969900Y-90775150D01*
X168969900Y-91244000D01*
X168897998Y-91244000D01*
X168897998Y-91400748D01*
X168741250Y-91244000D01*
X168648691Y-91244000D01*
X168415302Y-91340673D01*
X168273654Y-91482320D01*
X168232809Y-91421191D01*
X168022765Y-91280843D01*
X167775000Y-91231560D01*
X167275000Y-91231560D01*
X167027235Y-91280843D01*
X166993004Y-91303715D01*
X166200910Y-90511620D01*
X166339601Y-90604290D01*
X166386914Y-90613701D01*
X166477191Y-90748809D01*
X166687235Y-90889157D01*
X166935000Y-90938440D01*
X167735000Y-90938440D01*
X167982765Y-90889157D01*
X168074102Y-90828127D01*
X168075302Y-90829327D01*
X168308691Y-90926000D01*
X168549250Y-90926000D01*
X168708000Y-90767250D01*
X168708000Y-90043000D01*
X168688000Y-90043000D01*
X168688000Y-89789000D01*
X168708000Y-89789000D01*
X168708000Y-89064750D01*
X168549250Y-88906000D01*
X168308691Y-88906000D01*
X168075302Y-89002673D01*
X168074102Y-89003873D01*
X167982765Y-88942843D01*
X167735000Y-88893560D01*
X166935000Y-88893560D01*
X166709969Y-88938321D01*
X166993005Y-88655285D01*
X167027235Y-88678157D01*
X167275000Y-88727440D01*
X167775000Y-88727440D01*
X168022765Y-88678157D01*
X168232809Y-88537809D01*
X168273654Y-88476680D01*
X168415302Y-88618327D01*
X168415302Y-88618327D01*
G37*
X168415302Y-88618327D02*
X168648691Y-88715000D01*
X168741250Y-88715000D01*
X168897998Y-88558252D01*
X168897998Y-88715000D01*
X168969900Y-88715000D01*
X168969900Y-89056850D01*
X168962000Y-89064750D01*
X168962000Y-89789000D01*
X168969900Y-89789000D01*
X168969900Y-90043000D01*
X168962000Y-90043000D01*
X168962000Y-90767250D01*
X168969900Y-90775150D01*
X168969900Y-91244000D01*
X168897998Y-91244000D01*
X168897998Y-91400748D01*
X168741250Y-91244000D01*
X168648691Y-91244000D01*
X168415302Y-91340673D01*
X168273654Y-91482320D01*
X168232809Y-91421191D01*
X168022765Y-91280843D01*
X167775000Y-91231560D01*
X167275000Y-91231560D01*
X167027235Y-91280843D01*
X166993004Y-91303715D01*
X166200910Y-90511620D01*
X166339601Y-90604290D01*
X166386914Y-90613701D01*
X166477191Y-90748809D01*
X166687235Y-90889157D01*
X166935000Y-90938440D01*
X167735000Y-90938440D01*
X167982765Y-90889157D01*
X168074102Y-90828127D01*
X168075302Y-90829327D01*
X168308691Y-90926000D01*
X168549250Y-90926000D01*
X168708000Y-90767250D01*
X168708000Y-90043000D01*
X168688000Y-90043000D01*
X168688000Y-89789000D01*
X168708000Y-89789000D01*
X168708000Y-89064750D01*
X168549250Y-88906000D01*
X168308691Y-88906000D01*
X168075302Y-89002673D01*
X168074102Y-89003873D01*
X167982765Y-88942843D01*
X167735000Y-88893560D01*
X166935000Y-88893560D01*
X166709969Y-88938321D01*
X166993005Y-88655285D01*
X167027235Y-88678157D01*
X167275000Y-88727440D01*
X167775000Y-88727440D01*
X168022765Y-88678157D01*
X168232809Y-88537809D01*
X168273654Y-88476680D01*
X168415302Y-88618327D01*
G36*
X160831410Y-82772250D02*
X160990160Y-82931000D01*
X162714820Y-82931000D01*
X162714820Y-82911000D01*
X162968820Y-82911000D01*
X162968820Y-82931000D01*
X164693480Y-82931000D01*
X164852230Y-82772250D01*
X164852230Y-82542300D01*
X165394710Y-82542300D01*
X166063555Y-83211145D01*
X166366891Y-83413827D01*
X166724700Y-83485000D01*
X166857885Y-83485000D01*
X167027235Y-83598157D01*
X167275000Y-83647440D01*
X167775000Y-83647440D01*
X168022765Y-83598157D01*
X168102916Y-83544601D01*
X168132082Y-83588251D01*
X168131929Y-83763459D01*
X168277200Y-84115041D01*
X168275000Y-84118334D01*
X168232809Y-84055191D01*
X168022765Y-83914843D01*
X167775000Y-83865560D01*
X167275000Y-83865560D01*
X167027235Y-83914843D01*
X166817191Y-84055191D01*
X166676843Y-84265235D01*
X166627560Y-84513000D01*
X166627560Y-85413000D01*
X166676843Y-85660765D01*
X166817191Y-85870809D01*
X167027235Y-86011157D01*
X167275000Y-86060440D01*
X167666750Y-86060440D01*
X168331643Y-86725332D01*
X168273654Y-86783320D01*
X168232809Y-86722191D01*
X168022765Y-86581843D01*
X167775000Y-86532560D01*
X167275000Y-86532560D01*
X167027235Y-86581843D01*
X166817191Y-86722191D01*
X166676843Y-86932235D01*
X166674247Y-86945288D01*
X166437905Y-87103205D01*
X165640110Y-87901000D01*
X164734482Y-87901000D01*
X164675809Y-87813191D01*
X164465765Y-87672843D01*
X164218000Y-87623560D01*
X163583424Y-87623560D01*
X163571895Y-87606305D01*
X163571892Y-87606303D01*
X163395695Y-87430105D01*
X163379326Y-87419167D01*
X163441691Y-87445000D01*
X163534250Y-87445000D01*
X163693000Y-87286250D01*
X163693000Y-86487000D01*
X163943000Y-86487000D01*
X163943000Y-87286250D01*
X164101750Y-87445000D01*
X164194309Y-87445000D01*
X164427698Y-87348327D01*
X164606327Y-87169699D01*
X164703000Y-86936310D01*
X164703000Y-86645750D01*
X164544250Y-86487000D01*
X163943000Y-86487000D01*
X163693000Y-86487000D01*
X163671000Y-86487000D01*
X163671000Y-86233000D01*
X163693000Y-86233000D01*
X163693000Y-85433750D01*
X163943000Y-85433750D01*
X163943000Y-86233000D01*
X164544250Y-86233000D01*
X164703000Y-86074250D01*
X164703000Y-85783690D01*
X164606327Y-85550301D01*
X164427698Y-85371673D01*
X164194309Y-85275000D01*
X164101750Y-85275000D01*
X163943000Y-85433750D01*
X163693000Y-85433750D01*
X163534250Y-85275000D01*
X163441691Y-85275000D01*
X163208302Y-85371673D01*
X163066654Y-85513320D01*
X163025809Y-85452191D01*
X162815765Y-85311843D01*
X162568000Y-85262560D01*
X162068000Y-85262560D01*
X161820235Y-85311843D01*
X161610191Y-85452191D01*
X161501405Y-85615000D01*
X160744950Y-85615000D01*
X160651322Y-85521208D01*
X160287587Y-85370172D01*
X159893741Y-85369829D01*
X159529743Y-85520230D01*
X159251008Y-85798478D01*
X159099972Y-86162213D01*
X159099855Y-86296355D01*
X159019210Y-86377000D01*
X158538595Y-86377000D01*
X158429809Y-86214191D01*
X158219765Y-86073843D01*
X157972000Y-86024560D01*
X157472000Y-86024560D01*
X157382909Y-86042281D01*
X158255345Y-85169845D01*
X158458027Y-84866509D01*
X158509872Y-84605870D01*
X158969590Y-84605870D01*
X159217355Y-84556587D01*
X159427399Y-84416239D01*
X159567747Y-84206195D01*
X159617030Y-83958430D01*
X159617030Y-83343750D01*
X160831410Y-83343750D01*
X160831410Y-84084740D01*
X160928083Y-84318129D01*
X161106712Y-84496757D01*
X161340101Y-84593430D01*
X162556070Y-84593430D01*
X162714820Y-84434680D01*
X162714820Y-83185000D01*
X162968820Y-83185000D01*
X162968820Y-84434680D01*
X163127570Y-84593430D01*
X164343539Y-84593430D01*
X164576928Y-84496757D01*
X164755557Y-84318129D01*
X164852230Y-84084740D01*
X164852230Y-83343750D01*
X164693480Y-83185000D01*
X162968820Y-83185000D01*
X162714820Y-83185000D01*
X160990160Y-83185000D01*
X160831410Y-83343750D01*
X159617030Y-83343750D01*
X159617030Y-82542300D01*
X160831410Y-82542300D01*
X160831410Y-82772250D01*
X160831410Y-82772250D01*
G37*
X160831410Y-82772250D02*
X160990160Y-82931000D01*
X162714820Y-82931000D01*
X162714820Y-82911000D01*
X162968820Y-82911000D01*
X162968820Y-82931000D01*
X164693480Y-82931000D01*
X164852230Y-82772250D01*
X164852230Y-82542300D01*
X165394710Y-82542300D01*
X166063555Y-83211145D01*
X166366891Y-83413827D01*
X166724700Y-83485000D01*
X166857885Y-83485000D01*
X167027235Y-83598157D01*
X167275000Y-83647440D01*
X167775000Y-83647440D01*
X168022765Y-83598157D01*
X168102916Y-83544601D01*
X168132082Y-83588251D01*
X168131929Y-83763459D01*
X168277200Y-84115041D01*
X168275000Y-84118334D01*
X168232809Y-84055191D01*
X168022765Y-83914843D01*
X167775000Y-83865560D01*
X167275000Y-83865560D01*
X167027235Y-83914843D01*
X166817191Y-84055191D01*
X166676843Y-84265235D01*
X166627560Y-84513000D01*
X166627560Y-85413000D01*
X166676843Y-85660765D01*
X166817191Y-85870809D01*
X167027235Y-86011157D01*
X167275000Y-86060440D01*
X167666750Y-86060440D01*
X168331643Y-86725332D01*
X168273654Y-86783320D01*
X168232809Y-86722191D01*
X168022765Y-86581843D01*
X167775000Y-86532560D01*
X167275000Y-86532560D01*
X167027235Y-86581843D01*
X166817191Y-86722191D01*
X166676843Y-86932235D01*
X166674247Y-86945288D01*
X166437905Y-87103205D01*
X165640110Y-87901000D01*
X164734482Y-87901000D01*
X164675809Y-87813191D01*
X164465765Y-87672843D01*
X164218000Y-87623560D01*
X163583424Y-87623560D01*
X163571895Y-87606305D01*
X163571892Y-87606303D01*
X163395695Y-87430105D01*
X163379326Y-87419167D01*
X163441691Y-87445000D01*
X163534250Y-87445000D01*
X163693000Y-87286250D01*
X163693000Y-86487000D01*
X163943000Y-86487000D01*
X163943000Y-87286250D01*
X164101750Y-87445000D01*
X164194309Y-87445000D01*
X164427698Y-87348327D01*
X164606327Y-87169699D01*
X164703000Y-86936310D01*
X164703000Y-86645750D01*
X164544250Y-86487000D01*
X163943000Y-86487000D01*
X163693000Y-86487000D01*
X163671000Y-86487000D01*
X163671000Y-86233000D01*
X163693000Y-86233000D01*
X163693000Y-85433750D01*
X163943000Y-85433750D01*
X163943000Y-86233000D01*
X164544250Y-86233000D01*
X164703000Y-86074250D01*
X164703000Y-85783690D01*
X164606327Y-85550301D01*
X164427698Y-85371673D01*
X164194309Y-85275000D01*
X164101750Y-85275000D01*
X163943000Y-85433750D01*
X163693000Y-85433750D01*
X163534250Y-85275000D01*
X163441691Y-85275000D01*
X163208302Y-85371673D01*
X163066654Y-85513320D01*
X163025809Y-85452191D01*
X162815765Y-85311843D01*
X162568000Y-85262560D01*
X162068000Y-85262560D01*
X161820235Y-85311843D01*
X161610191Y-85452191D01*
X161501405Y-85615000D01*
X160744950Y-85615000D01*
X160651322Y-85521208D01*
X160287587Y-85370172D01*
X159893741Y-85369829D01*
X159529743Y-85520230D01*
X159251008Y-85798478D01*
X159099972Y-86162213D01*
X159099855Y-86296355D01*
X159019210Y-86377000D01*
X158538595Y-86377000D01*
X158429809Y-86214191D01*
X158219765Y-86073843D01*
X157972000Y-86024560D01*
X157472000Y-86024560D01*
X157382909Y-86042281D01*
X158255345Y-85169845D01*
X158458027Y-84866509D01*
X158509872Y-84605870D01*
X158969590Y-84605870D01*
X159217355Y-84556587D01*
X159427399Y-84416239D01*
X159567747Y-84206195D01*
X159617030Y-83958430D01*
X159617030Y-83343750D01*
X160831410Y-83343750D01*
X160831410Y-84084740D01*
X160928083Y-84318129D01*
X161106712Y-84496757D01*
X161340101Y-84593430D01*
X162556070Y-84593430D01*
X162714820Y-84434680D01*
X162714820Y-83185000D01*
X162968820Y-83185000D01*
X162968820Y-84434680D01*
X163127570Y-84593430D01*
X164343539Y-84593430D01*
X164576928Y-84496757D01*
X164755557Y-84318129D01*
X164852230Y-84084740D01*
X164852230Y-83343750D01*
X164693480Y-83185000D01*
X162968820Y-83185000D01*
X162714820Y-83185000D01*
X160990160Y-83185000D01*
X160831410Y-83343750D01*
X159617030Y-83343750D01*
X159617030Y-82542300D01*
X160831410Y-82542300D01*
X160831410Y-82772250D01*
G36*
X150572446Y-68056841D02*
X151511000Y-68995395D01*
X152449554Y-68056841D01*
X152426216Y-67991000D01*
X153444910Y-67991000D01*
X153770855Y-68316945D01*
X154074191Y-68519627D01*
X154432000Y-68590800D01*
X155108510Y-68590800D01*
X158485560Y-71967850D01*
X158485560Y-71993000D01*
X158534843Y-72240765D01*
X158675191Y-72450809D01*
X158874746Y-72584148D01*
X158772893Y-72686002D01*
X158676220Y-72919391D01*
X158676220Y-73259950D01*
X158834970Y-73418700D01*
X159583000Y-73418700D01*
X159583000Y-73398700D01*
X159837000Y-73398700D01*
X159837000Y-73418700D01*
X160585030Y-73418700D01*
X160743780Y-73259950D01*
X160743780Y-72919391D01*
X160647107Y-72686002D01*
X160468479Y-72507373D01*
X160430006Y-72491437D01*
X160490809Y-72450809D01*
X160631157Y-72240765D01*
X160680440Y-71993000D01*
X160680440Y-71493000D01*
X160631157Y-71245235D01*
X160490809Y-71035191D01*
X160427666Y-70993000D01*
X160490809Y-70950809D01*
X160631157Y-70740765D01*
X160646952Y-70661358D01*
X160813342Y-70827747D01*
X161046731Y-70924420D01*
X161187010Y-70924420D01*
X161334887Y-70776543D01*
X161225123Y-70940815D01*
X161175840Y-71188580D01*
X161175840Y-72189340D01*
X161225123Y-72437105D01*
X161365471Y-72647149D01*
X161496039Y-72734392D01*
X161342191Y-72837191D01*
X161201843Y-73047235D01*
X161152560Y-73295000D01*
X161152560Y-73795000D01*
X161201843Y-74042765D01*
X161342191Y-74252809D01*
X161405334Y-74295000D01*
X161342191Y-74337191D01*
X161201843Y-74547235D01*
X161152560Y-74795000D01*
X161152560Y-75295000D01*
X161201843Y-75542765D01*
X161342191Y-75752809D01*
X161472758Y-75840052D01*
X161472758Y-75924408D01*
X161314010Y-75765660D01*
X161173731Y-75765660D01*
X160940342Y-75862333D01*
X160761713Y-76040961D01*
X160665040Y-76274350D01*
X160665040Y-76615290D01*
X160823788Y-76774038D01*
X160702566Y-76774038D01*
X160617809Y-76647191D01*
X160455000Y-76538405D01*
X160455000Y-76076671D01*
X160566589Y-76002109D01*
X160706937Y-75792065D01*
X160756220Y-75544300D01*
X160756220Y-74544300D01*
X160706937Y-74296535D01*
X160697839Y-74282919D01*
X160743780Y-74172009D01*
X160743780Y-73831450D01*
X160585030Y-73672700D01*
X159837000Y-73672700D01*
X159837000Y-73692700D01*
X159583000Y-73692700D01*
X159583000Y-73672700D01*
X158834970Y-73672700D01*
X158676220Y-73831450D01*
X158676220Y-74172009D01*
X158722161Y-74282919D01*
X158713063Y-74296535D01*
X158663780Y-74544300D01*
X158663780Y-75544300D01*
X158713063Y-75792065D01*
X158853411Y-76002109D01*
X158965000Y-76076671D01*
X158965000Y-76538405D01*
X158802191Y-76647191D01*
X158661843Y-76857235D01*
X158612560Y-77105000D01*
X158612560Y-77605000D01*
X158631655Y-77701000D01*
X158455700Y-77666000D01*
X158113500Y-77666000D01*
X158113500Y-73342800D01*
X158042327Y-72984991D01*
X157839645Y-72681655D01*
X157139545Y-71981555D01*
X156836209Y-71778873D01*
X156478400Y-71707700D01*
X149639600Y-71707700D01*
X149281791Y-71778873D01*
X148978455Y-71981555D01*
X147727010Y-73233000D01*
X147626541Y-73233000D01*
X147564000Y-73220560D01*
X146014000Y-73220560D01*
X145951459Y-73233000D01*
X145850990Y-73233000D01*
X145774000Y-73156010D01*
X145774000Y-72726285D01*
X145837157Y-72631765D01*
X145886440Y-72384000D01*
X145886440Y-71634000D01*
X145876013Y-71581577D01*
X147164431Y-70293159D01*
X150572446Y-70293159D01*
X150665288Y-70555088D01*
X151257801Y-70773675D01*
X151888861Y-70748878D01*
X152356712Y-70555088D01*
X152449554Y-70293159D01*
X151511000Y-69354605D01*
X150572446Y-70293159D01*
X147164431Y-70293159D01*
X148535789Y-68921801D01*
X149912325Y-68921801D01*
X149937122Y-69552861D01*
X150130912Y-70020712D01*
X150392841Y-70113554D01*
X151331395Y-69175000D01*
X151690605Y-69175000D01*
X152629159Y-70113554D01*
X152891088Y-70020712D01*
X153109675Y-69428199D01*
X153084878Y-68797139D01*
X152891088Y-68329288D01*
X152629159Y-68236446D01*
X151690605Y-69175000D01*
X151331395Y-69175000D01*
X150392841Y-68236446D01*
X150130912Y-68329288D01*
X149912325Y-68921801D01*
X148535789Y-68921801D01*
X148866790Y-68590800D01*
X149006200Y-68590800D01*
X149364009Y-68519627D01*
X149667345Y-68316945D01*
X149993290Y-67991000D01*
X150595784Y-67991000D01*
X150572446Y-68056841D01*
X150572446Y-68056841D01*
G37*
X150572446Y-68056841D02*
X151511000Y-68995395D01*
X152449554Y-68056841D01*
X152426216Y-67991000D01*
X153444910Y-67991000D01*
X153770855Y-68316945D01*
X154074191Y-68519627D01*
X154432000Y-68590800D01*
X155108510Y-68590800D01*
X158485560Y-71967850D01*
X158485560Y-71993000D01*
X158534843Y-72240765D01*
X158675191Y-72450809D01*
X158874746Y-72584148D01*
X158772893Y-72686002D01*
X158676220Y-72919391D01*
X158676220Y-73259950D01*
X158834970Y-73418700D01*
X159583000Y-73418700D01*
X159583000Y-73398700D01*
X159837000Y-73398700D01*
X159837000Y-73418700D01*
X160585030Y-73418700D01*
X160743780Y-73259950D01*
X160743780Y-72919391D01*
X160647107Y-72686002D01*
X160468479Y-72507373D01*
X160430006Y-72491437D01*
X160490809Y-72450809D01*
X160631157Y-72240765D01*
X160680440Y-71993000D01*
X160680440Y-71493000D01*
X160631157Y-71245235D01*
X160490809Y-71035191D01*
X160427666Y-70993000D01*
X160490809Y-70950809D01*
X160631157Y-70740765D01*
X160646952Y-70661358D01*
X160813342Y-70827747D01*
X161046731Y-70924420D01*
X161187010Y-70924420D01*
X161334887Y-70776543D01*
X161225123Y-70940815D01*
X161175840Y-71188580D01*
X161175840Y-72189340D01*
X161225123Y-72437105D01*
X161365471Y-72647149D01*
X161496039Y-72734392D01*
X161342191Y-72837191D01*
X161201843Y-73047235D01*
X161152560Y-73295000D01*
X161152560Y-73795000D01*
X161201843Y-74042765D01*
X161342191Y-74252809D01*
X161405334Y-74295000D01*
X161342191Y-74337191D01*
X161201843Y-74547235D01*
X161152560Y-74795000D01*
X161152560Y-75295000D01*
X161201843Y-75542765D01*
X161342191Y-75752809D01*
X161472758Y-75840052D01*
X161472758Y-75924408D01*
X161314010Y-75765660D01*
X161173731Y-75765660D01*
X160940342Y-75862333D01*
X160761713Y-76040961D01*
X160665040Y-76274350D01*
X160665040Y-76615290D01*
X160823788Y-76774038D01*
X160702566Y-76774038D01*
X160617809Y-76647191D01*
X160455000Y-76538405D01*
X160455000Y-76076671D01*
X160566589Y-76002109D01*
X160706937Y-75792065D01*
X160756220Y-75544300D01*
X160756220Y-74544300D01*
X160706937Y-74296535D01*
X160697839Y-74282919D01*
X160743780Y-74172009D01*
X160743780Y-73831450D01*
X160585030Y-73672700D01*
X159837000Y-73672700D01*
X159837000Y-73692700D01*
X159583000Y-73692700D01*
X159583000Y-73672700D01*
X158834970Y-73672700D01*
X158676220Y-73831450D01*
X158676220Y-74172009D01*
X158722161Y-74282919D01*
X158713063Y-74296535D01*
X158663780Y-74544300D01*
X158663780Y-75544300D01*
X158713063Y-75792065D01*
X158853411Y-76002109D01*
X158965000Y-76076671D01*
X158965000Y-76538405D01*
X158802191Y-76647191D01*
X158661843Y-76857235D01*
X158612560Y-77105000D01*
X158612560Y-77605000D01*
X158631655Y-77701000D01*
X158455700Y-77666000D01*
X158113500Y-77666000D01*
X158113500Y-73342800D01*
X158042327Y-72984991D01*
X157839645Y-72681655D01*
X157139545Y-71981555D01*
X156836209Y-71778873D01*
X156478400Y-71707700D01*
X149639600Y-71707700D01*
X149281791Y-71778873D01*
X148978455Y-71981555D01*
X147727010Y-73233000D01*
X147626541Y-73233000D01*
X147564000Y-73220560D01*
X146014000Y-73220560D01*
X145951459Y-73233000D01*
X145850990Y-73233000D01*
X145774000Y-73156010D01*
X145774000Y-72726285D01*
X145837157Y-72631765D01*
X145886440Y-72384000D01*
X145886440Y-71634000D01*
X145876013Y-71581577D01*
X147164431Y-70293159D01*
X150572446Y-70293159D01*
X150665288Y-70555088D01*
X151257801Y-70773675D01*
X151888861Y-70748878D01*
X152356712Y-70555088D01*
X152449554Y-70293159D01*
X151511000Y-69354605D01*
X150572446Y-70293159D01*
X147164431Y-70293159D01*
X148535789Y-68921801D01*
X149912325Y-68921801D01*
X149937122Y-69552861D01*
X150130912Y-70020712D01*
X150392841Y-70113554D01*
X151331395Y-69175000D01*
X151690605Y-69175000D01*
X152629159Y-70113554D01*
X152891088Y-70020712D01*
X153109675Y-69428199D01*
X153084878Y-68797139D01*
X152891088Y-68329288D01*
X152629159Y-68236446D01*
X151690605Y-69175000D01*
X151331395Y-69175000D01*
X150392841Y-68236446D01*
X150130912Y-68329288D01*
X149912325Y-68921801D01*
X148535789Y-68921801D01*
X148866790Y-68590800D01*
X149006200Y-68590800D01*
X149364009Y-68519627D01*
X149667345Y-68316945D01*
X149993290Y-67991000D01*
X150595784Y-67991000D01*
X150572446Y-68056841D01*
G36*
X161726760Y-76774040D02*
X161746760Y-76774040D01*
X161746760Y-77028040D01*
X161726760Y-77028040D01*
X161726760Y-77048040D01*
X161472760Y-77048040D01*
X161472760Y-77028040D01*
X161452760Y-77028040D01*
X161452760Y-76774040D01*
X161472760Y-76774040D01*
X161472760Y-76754040D01*
X161726760Y-76754040D01*
X161726760Y-76774040D01*
X161726760Y-76774040D01*
G37*
X161726760Y-76774040D02*
X161746760Y-76774040D01*
X161746760Y-77028040D01*
X161726760Y-77028040D01*
X161726760Y-77048040D01*
X161472760Y-77048040D01*
X161472760Y-77028040D01*
X161452760Y-77028040D01*
X161452760Y-76774040D01*
X161472760Y-76774040D01*
X161472760Y-76754040D01*
X161726760Y-76754040D01*
X161726760Y-76774040D01*
G36*
X166578729Y-65212511D02*
X166464655Y-65786000D01*
X166578729Y-66359489D01*
X166903585Y-66845670D01*
X167213069Y-67052461D01*
X166797268Y-67423964D01*
X166543291Y-67951209D01*
X166540642Y-67966974D01*
X166661783Y-68199000D01*
X168021000Y-68199000D01*
X168021000Y-68179000D01*
X168275000Y-68179000D01*
X168275000Y-68199000D01*
X168295000Y-68199000D01*
X168295000Y-68453000D01*
X168275000Y-68453000D01*
X168275000Y-69666924D01*
X168365135Y-69722276D01*
X167828910Y-70258500D01*
X167386005Y-70258500D01*
X167386000Y-70258499D01*
X167100901Y-70315210D01*
X166859205Y-70476705D01*
X166859203Y-70476708D01*
X164535910Y-72800000D01*
X163102149Y-72800000D01*
X162947765Y-72696843D01*
X162838642Y-72675137D01*
X162880529Y-72647149D01*
X163020877Y-72437105D01*
X163035024Y-72365981D01*
X163259795Y-72215795D01*
X163981792Y-71493797D01*
X163981795Y-71493795D01*
X164143290Y-71252099D01*
X164200000Y-70967000D01*
X164200000Y-68685026D01*
X166540642Y-68685026D01*
X166543291Y-68700791D01*
X166797268Y-69228036D01*
X167233680Y-69617954D01*
X167786087Y-69811184D01*
X168021000Y-69666924D01*
X168021000Y-68453000D01*
X166661783Y-68453000D01*
X166540642Y-68685026D01*
X164200000Y-68685026D01*
X164200000Y-68097105D01*
X164200001Y-68097100D01*
X164143290Y-67812001D01*
X164098047Y-67744290D01*
X163981795Y-67570305D01*
X163981792Y-67570303D01*
X163345540Y-66934050D01*
X165114589Y-65165000D01*
X166610475Y-65165000D01*
X166578729Y-65212511D01*
X166578729Y-65212511D01*
G37*
X166578729Y-65212511D02*
X166464655Y-65786000D01*
X166578729Y-66359489D01*
X166903585Y-66845670D01*
X167213069Y-67052461D01*
X166797268Y-67423964D01*
X166543291Y-67951209D01*
X166540642Y-67966974D01*
X166661783Y-68199000D01*
X168021000Y-68199000D01*
X168021000Y-68179000D01*
X168275000Y-68179000D01*
X168275000Y-68199000D01*
X168295000Y-68199000D01*
X168295000Y-68453000D01*
X168275000Y-68453000D01*
X168275000Y-69666924D01*
X168365135Y-69722276D01*
X167828910Y-70258500D01*
X167386005Y-70258500D01*
X167386000Y-70258499D01*
X167100901Y-70315210D01*
X166859205Y-70476705D01*
X166859203Y-70476708D01*
X164535910Y-72800000D01*
X163102149Y-72800000D01*
X162947765Y-72696843D01*
X162838642Y-72675137D01*
X162880529Y-72647149D01*
X163020877Y-72437105D01*
X163035024Y-72365981D01*
X163259795Y-72215795D01*
X163981792Y-71493797D01*
X163981795Y-71493795D01*
X164143290Y-71252099D01*
X164200000Y-70967000D01*
X164200000Y-68685026D01*
X166540642Y-68685026D01*
X166543291Y-68700791D01*
X166797268Y-69228036D01*
X167233680Y-69617954D01*
X167786087Y-69811184D01*
X168021000Y-69666924D01*
X168021000Y-68453000D01*
X166661783Y-68453000D01*
X166540642Y-68685026D01*
X164200000Y-68685026D01*
X164200000Y-68097105D01*
X164200001Y-68097100D01*
X164143290Y-67812001D01*
X164098047Y-67744290D01*
X163981795Y-67570305D01*
X163981792Y-67570303D01*
X163345540Y-66934050D01*
X165114589Y-65165000D01*
X166610475Y-65165000D01*
X166578729Y-65212511D01*
G36*
X161599760Y-69662040D02*
X161619760Y-69662040D01*
X161619760Y-69916040D01*
X161599760Y-69916040D01*
X161599760Y-69936040D01*
X161345760Y-69936040D01*
X161345760Y-69916040D01*
X161325760Y-69916040D01*
X161325760Y-69662040D01*
X161345760Y-69662040D01*
X161345760Y-69642040D01*
X161599760Y-69642040D01*
X161599760Y-69662040D01*
X161599760Y-69662040D01*
G37*
X161599760Y-69662040D02*
X161619760Y-69662040D01*
X161619760Y-69916040D01*
X161599760Y-69916040D01*
X161599760Y-69936040D01*
X161345760Y-69936040D01*
X161345760Y-69916040D01*
X161325760Y-69916040D01*
X161325760Y-69662040D01*
X161345760Y-69662040D01*
X161345760Y-69642040D01*
X161599760Y-69642040D01*
X161599760Y-69662040D01*
G36*
X160971123Y-63955815D02*
X160921840Y-64203580D01*
X160921840Y-65204340D01*
X160971123Y-65452105D01*
X161111471Y-65662149D01*
X161212298Y-65729520D01*
X161074843Y-65935235D01*
X161025560Y-66183000D01*
X161025560Y-66627600D01*
X160851800Y-66627600D01*
X160579161Y-66681831D01*
X160458030Y-66560700D01*
X159710000Y-66560700D01*
X159710000Y-66580700D01*
X159456000Y-66580700D01*
X159456000Y-66560700D01*
X158707970Y-66560700D01*
X158549220Y-66719450D01*
X158549220Y-67060009D01*
X158595161Y-67170919D01*
X158586063Y-67184535D01*
X158536780Y-67432300D01*
X158536780Y-68432300D01*
X158586063Y-68680065D01*
X158726411Y-68890109D01*
X158838000Y-68964671D01*
X158838000Y-69426405D01*
X158688553Y-69526263D01*
X156818090Y-67655800D01*
X157272742Y-67201147D01*
X157272745Y-67201145D01*
X157475427Y-66897809D01*
X157546600Y-66540000D01*
X157546600Y-65781610D01*
X157635364Y-65693000D01*
X158596602Y-65693000D01*
X158549220Y-65807391D01*
X158549220Y-66147950D01*
X158707970Y-66306700D01*
X159456000Y-66306700D01*
X159456000Y-66286700D01*
X159710000Y-66286700D01*
X159710000Y-66306700D01*
X160458030Y-66306700D01*
X160616780Y-66147950D01*
X160616780Y-65807391D01*
X160520107Y-65574002D01*
X160443515Y-65497410D01*
X160490809Y-65465809D01*
X160631157Y-65255765D01*
X160680440Y-65008000D01*
X160680440Y-64508000D01*
X160631157Y-64260235D01*
X160490809Y-64050191D01*
X160427666Y-64008000D01*
X160490809Y-63965809D01*
X160570068Y-63847190D01*
X160792731Y-63939420D01*
X160933010Y-63939420D01*
X161080887Y-63791543D01*
X160971123Y-63955815D01*
X160971123Y-63955815D01*
G37*
X160971123Y-63955815D02*
X160921840Y-64203580D01*
X160921840Y-65204340D01*
X160971123Y-65452105D01*
X161111471Y-65662149D01*
X161212298Y-65729520D01*
X161074843Y-65935235D01*
X161025560Y-66183000D01*
X161025560Y-66627600D01*
X160851800Y-66627600D01*
X160579161Y-66681831D01*
X160458030Y-66560700D01*
X159710000Y-66560700D01*
X159710000Y-66580700D01*
X159456000Y-66580700D01*
X159456000Y-66560700D01*
X158707970Y-66560700D01*
X158549220Y-66719450D01*
X158549220Y-67060009D01*
X158595161Y-67170919D01*
X158586063Y-67184535D01*
X158536780Y-67432300D01*
X158536780Y-68432300D01*
X158586063Y-68680065D01*
X158726411Y-68890109D01*
X158838000Y-68964671D01*
X158838000Y-69426405D01*
X158688553Y-69526263D01*
X156818090Y-67655800D01*
X157272742Y-67201147D01*
X157272745Y-67201145D01*
X157475427Y-66897809D01*
X157546600Y-66540000D01*
X157546600Y-65781610D01*
X157635364Y-65693000D01*
X158596602Y-65693000D01*
X158549220Y-65807391D01*
X158549220Y-66147950D01*
X158707970Y-66306700D01*
X159456000Y-66306700D01*
X159456000Y-66286700D01*
X159710000Y-66286700D01*
X159710000Y-66306700D01*
X160458030Y-66306700D01*
X160616780Y-66147950D01*
X160616780Y-65807391D01*
X160520107Y-65574002D01*
X160443515Y-65497410D01*
X160490809Y-65465809D01*
X160631157Y-65255765D01*
X160680440Y-65008000D01*
X160680440Y-64508000D01*
X160631157Y-64260235D01*
X160490809Y-64050191D01*
X160427666Y-64008000D01*
X160490809Y-63965809D01*
X160570068Y-63847190D01*
X160792731Y-63939420D01*
X160933010Y-63939420D01*
X161080887Y-63791543D01*
X160971123Y-63955815D01*
G36*
X126215662Y-63256245D02*
X126766649Y-63256726D01*
X126777664Y-63252175D01*
X126977878Y-63292000D01*
X138522322Y-63292000D01*
X138350473Y-63549191D01*
X138344146Y-63581000D01*
X137977226Y-63581000D01*
X137789000Y-63543560D01*
X136089000Y-63543560D01*
X135841235Y-63592843D01*
X135631191Y-63733191D01*
X135560386Y-63839157D01*
X135442809Y-63663191D01*
X135232765Y-63522843D01*
X134985000Y-63473560D01*
X132985000Y-63473560D01*
X132737235Y-63522843D01*
X132527191Y-63663191D01*
X132386843Y-63873235D01*
X132381917Y-63898000D01*
X132349482Y-63898000D01*
X132290809Y-63810191D01*
X132080765Y-63669843D01*
X131833000Y-63620560D01*
X131033000Y-63620560D01*
X130785235Y-63669843D01*
X130693898Y-63730873D01*
X130692698Y-63729673D01*
X130459309Y-63633000D01*
X130218750Y-63633000D01*
X130060000Y-63791750D01*
X130060000Y-64516000D01*
X130080000Y-64516000D01*
X130080000Y-64770000D01*
X130060000Y-64770000D01*
X130060000Y-65494250D01*
X130218750Y-65653000D01*
X130459309Y-65653000D01*
X130692698Y-65556327D01*
X130693898Y-65555127D01*
X130785235Y-65616157D01*
X131033000Y-65665440D01*
X131833000Y-65665440D01*
X132080765Y-65616157D01*
X132290809Y-65475809D01*
X132349482Y-65388000D01*
X132370778Y-65388000D01*
X132386843Y-65468765D01*
X132527191Y-65678809D01*
X132737235Y-65819157D01*
X132985000Y-65868440D01*
X134681398Y-65868440D01*
X134721710Y-66071099D01*
X134883205Y-66312795D01*
X135031146Y-66411646D01*
X134855205Y-66529205D01*
X134693710Y-66770901D01*
X134653398Y-66973560D01*
X132985000Y-66973560D01*
X132737235Y-67022843D01*
X132527191Y-67163191D01*
X132386843Y-67373235D01*
X132376348Y-67426000D01*
X132330772Y-67426000D01*
X132290809Y-67366191D01*
X132080765Y-67225843D01*
X131833000Y-67176560D01*
X131033000Y-67176560D01*
X130785235Y-67225843D01*
X130693898Y-67286873D01*
X130692698Y-67285673D01*
X130459309Y-67189000D01*
X130218750Y-67189000D01*
X130060000Y-67347750D01*
X130060000Y-68072000D01*
X130080000Y-68072000D01*
X130080000Y-68326000D01*
X130060000Y-68326000D01*
X130060000Y-68346000D01*
X129806000Y-68346000D01*
X129806000Y-68326000D01*
X129786000Y-68326000D01*
X129786000Y-68072000D01*
X129806000Y-68072000D01*
X129806000Y-67347750D01*
X129647250Y-67189000D01*
X129406691Y-67189000D01*
X129173302Y-67285673D01*
X129142000Y-67316975D01*
X129142000Y-66548005D01*
X129142001Y-66548000D01*
X129085290Y-66262901D01*
X129031362Y-66182192D01*
X128923795Y-66021205D01*
X128923792Y-66021203D01*
X127831339Y-64928750D01*
X128898000Y-64928750D01*
X128898000Y-65144310D01*
X128994673Y-65377699D01*
X129173302Y-65556327D01*
X129406691Y-65653000D01*
X129647250Y-65653000D01*
X129806000Y-65494250D01*
X129806000Y-64770000D01*
X129056750Y-64770000D01*
X128898000Y-64928750D01*
X127831339Y-64928750D01*
X127044279Y-64141690D01*
X128898000Y-64141690D01*
X128898000Y-64357250D01*
X129056750Y-64516000D01*
X129806000Y-64516000D01*
X129806000Y-63791750D01*
X129647250Y-63633000D01*
X129406691Y-63633000D01*
X129173302Y-63729673D01*
X128994673Y-63908301D01*
X128898000Y-64141690D01*
X127044279Y-64141690D01*
X126118482Y-63215893D01*
X126215662Y-63256245D01*
X126215662Y-63256245D01*
G37*
X126215662Y-63256245D02*
X126766649Y-63256726D01*
X126777664Y-63252175D01*
X126977878Y-63292000D01*
X138522322Y-63292000D01*
X138350473Y-63549191D01*
X138344146Y-63581000D01*
X137977226Y-63581000D01*
X137789000Y-63543560D01*
X136089000Y-63543560D01*
X135841235Y-63592843D01*
X135631191Y-63733191D01*
X135560386Y-63839157D01*
X135442809Y-63663191D01*
X135232765Y-63522843D01*
X134985000Y-63473560D01*
X132985000Y-63473560D01*
X132737235Y-63522843D01*
X132527191Y-63663191D01*
X132386843Y-63873235D01*
X132381917Y-63898000D01*
X132349482Y-63898000D01*
X132290809Y-63810191D01*
X132080765Y-63669843D01*
X131833000Y-63620560D01*
X131033000Y-63620560D01*
X130785235Y-63669843D01*
X130693898Y-63730873D01*
X130692698Y-63729673D01*
X130459309Y-63633000D01*
X130218750Y-63633000D01*
X130060000Y-63791750D01*
X130060000Y-64516000D01*
X130080000Y-64516000D01*
X130080000Y-64770000D01*
X130060000Y-64770000D01*
X130060000Y-65494250D01*
X130218750Y-65653000D01*
X130459309Y-65653000D01*
X130692698Y-65556327D01*
X130693898Y-65555127D01*
X130785235Y-65616157D01*
X131033000Y-65665440D01*
X131833000Y-65665440D01*
X132080765Y-65616157D01*
X132290809Y-65475809D01*
X132349482Y-65388000D01*
X132370778Y-65388000D01*
X132386843Y-65468765D01*
X132527191Y-65678809D01*
X132737235Y-65819157D01*
X132985000Y-65868440D01*
X134681398Y-65868440D01*
X134721710Y-66071099D01*
X134883205Y-66312795D01*
X135031146Y-66411646D01*
X134855205Y-66529205D01*
X134693710Y-66770901D01*
X134653398Y-66973560D01*
X132985000Y-66973560D01*
X132737235Y-67022843D01*
X132527191Y-67163191D01*
X132386843Y-67373235D01*
X132376348Y-67426000D01*
X132330772Y-67426000D01*
X132290809Y-67366191D01*
X132080765Y-67225843D01*
X131833000Y-67176560D01*
X131033000Y-67176560D01*
X130785235Y-67225843D01*
X130693898Y-67286873D01*
X130692698Y-67285673D01*
X130459309Y-67189000D01*
X130218750Y-67189000D01*
X130060000Y-67347750D01*
X130060000Y-68072000D01*
X130080000Y-68072000D01*
X130080000Y-68326000D01*
X130060000Y-68326000D01*
X130060000Y-68346000D01*
X129806000Y-68346000D01*
X129806000Y-68326000D01*
X129786000Y-68326000D01*
X129786000Y-68072000D01*
X129806000Y-68072000D01*
X129806000Y-67347750D01*
X129647250Y-67189000D01*
X129406691Y-67189000D01*
X129173302Y-67285673D01*
X129142000Y-67316975D01*
X129142000Y-66548005D01*
X129142001Y-66548000D01*
X129085290Y-66262901D01*
X129031362Y-66182192D01*
X128923795Y-66021205D01*
X128923792Y-66021203D01*
X127831339Y-64928750D01*
X128898000Y-64928750D01*
X128898000Y-65144310D01*
X128994673Y-65377699D01*
X129173302Y-65556327D01*
X129406691Y-65653000D01*
X129647250Y-65653000D01*
X129806000Y-65494250D01*
X129806000Y-64770000D01*
X129056750Y-64770000D01*
X128898000Y-64928750D01*
X127831339Y-64928750D01*
X127044279Y-64141690D01*
X128898000Y-64141690D01*
X128898000Y-64357250D01*
X129056750Y-64516000D01*
X129806000Y-64516000D01*
X129806000Y-63791750D01*
X129647250Y-63633000D01*
X129406691Y-63633000D01*
X129173302Y-63729673D01*
X128994673Y-63908301D01*
X128898000Y-64141690D01*
X127044279Y-64141690D01*
X126118482Y-63215893D01*
X126215662Y-63256245D01*
G36*
X131594839Y-50739571D02*
X131594837Y-50739574D01*
X131045205Y-51289205D01*
X130883710Y-51530901D01*
X130826999Y-51816000D01*
X130827000Y-51816005D01*
X130827000Y-51953787D01*
X130661026Y-51885042D01*
X130429000Y-52006183D01*
X130429000Y-53213000D01*
X130449000Y-53213000D01*
X130449000Y-53467000D01*
X130429000Y-53467000D01*
X130429000Y-53487000D01*
X130175000Y-53487000D01*
X130175000Y-53467000D01*
X130155000Y-53467000D01*
X130155000Y-53213000D01*
X130175000Y-53213000D01*
X130175000Y-52006183D01*
X129942974Y-51885042D01*
X129527053Y-52057312D01*
X129095179Y-52451510D01*
X129037664Y-52574228D01*
X128821670Y-52250971D01*
X128335489Y-51926115D01*
X127762000Y-51812041D01*
X127188511Y-51926115D01*
X126702330Y-52250971D01*
X126492000Y-52565752D01*
X126281670Y-52250971D01*
X125795489Y-51926115D01*
X125222000Y-51812041D01*
X124648511Y-51926115D01*
X124162330Y-52250971D01*
X123952000Y-52565752D01*
X123741670Y-52250971D01*
X123255489Y-51926115D01*
X122682000Y-51812041D01*
X122108511Y-51926115D01*
X121622330Y-52250971D01*
X121406336Y-52574228D01*
X121348821Y-52451510D01*
X120916947Y-52057312D01*
X120501026Y-51885042D01*
X120269000Y-52006183D01*
X120269000Y-53213000D01*
X120289000Y-53213000D01*
X120289000Y-53467000D01*
X120269000Y-53467000D01*
X120269000Y-53487000D01*
X120015000Y-53487000D01*
X120015000Y-53467000D01*
X119995000Y-53467000D01*
X119995000Y-53213000D01*
X120015000Y-53213000D01*
X120015000Y-52006183D01*
X119782974Y-51885042D01*
X119367053Y-52057312D01*
X118935179Y-52451510D01*
X118877664Y-52574228D01*
X118661670Y-52250971D01*
X118175489Y-51926115D01*
X117602000Y-51812041D01*
X117028511Y-51926115D01*
X116542330Y-52250971D01*
X116439411Y-52405000D01*
X116224589Y-52405000D01*
X116121670Y-52250971D01*
X115635489Y-51926115D01*
X115062000Y-51812041D01*
X114488511Y-51926115D01*
X114002330Y-52250971D01*
X113899411Y-52405000D01*
X112495003Y-52405000D01*
X112516000Y-52354309D01*
X112516000Y-52113750D01*
X112357250Y-51955000D01*
X111633000Y-51955000D01*
X111633000Y-51975000D01*
X111379000Y-51975000D01*
X111379000Y-51955000D01*
X110654750Y-51955000D01*
X110496000Y-52113750D01*
X110496000Y-52354309D01*
X110592673Y-52587698D01*
X110593873Y-52588898D01*
X110532843Y-52680235D01*
X110483560Y-52928000D01*
X110483560Y-53728000D01*
X110532843Y-53975765D01*
X110673191Y-54185809D01*
X110883235Y-54326157D01*
X111033267Y-54356000D01*
X110883235Y-54385843D01*
X110673191Y-54526191D01*
X110532843Y-54736235D01*
X110483560Y-54984000D01*
X110483560Y-55784000D01*
X110532843Y-56031765D01*
X110593873Y-56123102D01*
X110592673Y-56124302D01*
X110496000Y-56357691D01*
X110496000Y-56598250D01*
X110654750Y-56757000D01*
X111379000Y-56757000D01*
X111379000Y-56737000D01*
X111633000Y-56737000D01*
X111633000Y-56757000D01*
X112357250Y-56757000D01*
X112450158Y-56664092D01*
X112569491Y-56743827D01*
X112927300Y-56815000D01*
X113565162Y-56815000D01*
X113600243Y-56991365D01*
X113740591Y-57201409D01*
X113950635Y-57341757D01*
X114198400Y-57391040D01*
X115925600Y-57391040D01*
X116173365Y-57341757D01*
X116383409Y-57201409D01*
X116523757Y-56991365D01*
X116531441Y-56952733D01*
X116542330Y-56969029D01*
X117028511Y-57293885D01*
X117602000Y-57407959D01*
X118175489Y-57293885D01*
X118661670Y-56969029D01*
X118872000Y-56654248D01*
X119082330Y-56969029D01*
X119568511Y-57293885D01*
X120142000Y-57407959D01*
X120715489Y-57293885D01*
X121201670Y-56969029D01*
X121412000Y-56654248D01*
X121622330Y-56969029D01*
X122108511Y-57293885D01*
X122682000Y-57407959D01*
X123255489Y-57293885D01*
X123741670Y-56969029D01*
X123957664Y-56645772D01*
X124015179Y-56768490D01*
X124447053Y-57162688D01*
X124862974Y-57334958D01*
X125095000Y-57213817D01*
X125095000Y-56007000D01*
X125075000Y-56007000D01*
X125075000Y-55753000D01*
X125095000Y-55753000D01*
X125095000Y-55733000D01*
X125349000Y-55733000D01*
X125349000Y-55753000D01*
X125369000Y-55753000D01*
X125369000Y-56007000D01*
X125349000Y-56007000D01*
X125349000Y-57213817D01*
X125581026Y-57334958D01*
X125996947Y-57162688D01*
X126428821Y-56768490D01*
X126486336Y-56645772D01*
X126702330Y-56969029D01*
X127188511Y-57293885D01*
X127762000Y-57407959D01*
X128335489Y-57293885D01*
X128821670Y-56969029D01*
X129032000Y-56654248D01*
X129242330Y-56969029D01*
X129728511Y-57293885D01*
X130302000Y-57407959D01*
X130875489Y-57293885D01*
X131361670Y-56969029D01*
X131572000Y-56654248D01*
X131782330Y-56969029D01*
X132097000Y-57179285D01*
X132097000Y-59490810D01*
X132005843Y-59627235D01*
X131956560Y-59875000D01*
X131956560Y-60775000D01*
X132005843Y-61022765D01*
X132146191Y-61232809D01*
X132356235Y-61373157D01*
X132601788Y-61422000D01*
X127805213Y-61422000D01*
X127667195Y-61087971D01*
X127277928Y-60698025D01*
X126769066Y-60486727D01*
X126218079Y-60486246D01*
X125708849Y-60696655D01*
X125318903Y-61085922D01*
X125107605Y-61594784D01*
X125107124Y-62145771D01*
X125317533Y-62655001D01*
X125388394Y-62725985D01*
X125303000Y-62708999D01*
X125302995Y-62709000D01*
X120991440Y-62709000D01*
X120991440Y-61454000D01*
X120942157Y-61206235D01*
X120801809Y-60996191D01*
X120591765Y-60855843D01*
X120344000Y-60806560D01*
X117160143Y-60806560D01*
X117160143Y-57900000D01*
X112053180Y-57900000D01*
X112240699Y-57822327D01*
X112419327Y-57643698D01*
X112516000Y-57410309D01*
X112516000Y-57169750D01*
X112357250Y-57011000D01*
X111633000Y-57011000D01*
X111633000Y-57031000D01*
X111379000Y-57031000D01*
X111379000Y-57011000D01*
X110654750Y-57011000D01*
X110496000Y-57169750D01*
X110496000Y-57410309D01*
X110592673Y-57643698D01*
X110771301Y-57822327D01*
X110958820Y-57900000D01*
X107710000Y-57900000D01*
X107710000Y-51301691D01*
X110496000Y-51301691D01*
X110496000Y-51542250D01*
X110654750Y-51701000D01*
X111379000Y-51701000D01*
X111379000Y-50951750D01*
X111633000Y-50951750D01*
X111633000Y-51701000D01*
X112357250Y-51701000D01*
X112516000Y-51542250D01*
X112516000Y-51301691D01*
X112419327Y-51068302D01*
X112240699Y-50889673D01*
X112007310Y-50793000D01*
X111791750Y-50793000D01*
X111633000Y-50951750D01*
X111379000Y-50951750D01*
X111220250Y-50793000D01*
X111004690Y-50793000D01*
X110771301Y-50889673D01*
X110592673Y-51068302D01*
X110496000Y-51301691D01*
X107710000Y-51301691D01*
X107710000Y-50710000D01*
X131639095Y-50710000D01*
X131594839Y-50739571D01*
X131594839Y-50739571D01*
G37*
X131594839Y-50739571D02*
X131594837Y-50739574D01*
X131045205Y-51289205D01*
X130883710Y-51530901D01*
X130826999Y-51816000D01*
X130827000Y-51816005D01*
X130827000Y-51953787D01*
X130661026Y-51885042D01*
X130429000Y-52006183D01*
X130429000Y-53213000D01*
X130449000Y-53213000D01*
X130449000Y-53467000D01*
X130429000Y-53467000D01*
X130429000Y-53487000D01*
X130175000Y-53487000D01*
X130175000Y-53467000D01*
X130155000Y-53467000D01*
X130155000Y-53213000D01*
X130175000Y-53213000D01*
X130175000Y-52006183D01*
X129942974Y-51885042D01*
X129527053Y-52057312D01*
X129095179Y-52451510D01*
X129037664Y-52574228D01*
X128821670Y-52250971D01*
X128335489Y-51926115D01*
X127762000Y-51812041D01*
X127188511Y-51926115D01*
X126702330Y-52250971D01*
X126492000Y-52565752D01*
X126281670Y-52250971D01*
X125795489Y-51926115D01*
X125222000Y-51812041D01*
X124648511Y-51926115D01*
X124162330Y-52250971D01*
X123952000Y-52565752D01*
X123741670Y-52250971D01*
X123255489Y-51926115D01*
X122682000Y-51812041D01*
X122108511Y-51926115D01*
X121622330Y-52250971D01*
X121406336Y-52574228D01*
X121348821Y-52451510D01*
X120916947Y-52057312D01*
X120501026Y-51885042D01*
X120269000Y-52006183D01*
X120269000Y-53213000D01*
X120289000Y-53213000D01*
X120289000Y-53467000D01*
X120269000Y-53467000D01*
X120269000Y-53487000D01*
X120015000Y-53487000D01*
X120015000Y-53467000D01*
X119995000Y-53467000D01*
X119995000Y-53213000D01*
X120015000Y-53213000D01*
X120015000Y-52006183D01*
X119782974Y-51885042D01*
X119367053Y-52057312D01*
X118935179Y-52451510D01*
X118877664Y-52574228D01*
X118661670Y-52250971D01*
X118175489Y-51926115D01*
X117602000Y-51812041D01*
X117028511Y-51926115D01*
X116542330Y-52250971D01*
X116439411Y-52405000D01*
X116224589Y-52405000D01*
X116121670Y-52250971D01*
X115635489Y-51926115D01*
X115062000Y-51812041D01*
X114488511Y-51926115D01*
X114002330Y-52250971D01*
X113899411Y-52405000D01*
X112495003Y-52405000D01*
X112516000Y-52354309D01*
X112516000Y-52113750D01*
X112357250Y-51955000D01*
X111633000Y-51955000D01*
X111633000Y-51975000D01*
X111379000Y-51975000D01*
X111379000Y-51955000D01*
X110654750Y-51955000D01*
X110496000Y-52113750D01*
X110496000Y-52354309D01*
X110592673Y-52587698D01*
X110593873Y-52588898D01*
X110532843Y-52680235D01*
X110483560Y-52928000D01*
X110483560Y-53728000D01*
X110532843Y-53975765D01*
X110673191Y-54185809D01*
X110883235Y-54326157D01*
X111033267Y-54356000D01*
X110883235Y-54385843D01*
X110673191Y-54526191D01*
X110532843Y-54736235D01*
X110483560Y-54984000D01*
X110483560Y-55784000D01*
X110532843Y-56031765D01*
X110593873Y-56123102D01*
X110592673Y-56124302D01*
X110496000Y-56357691D01*
X110496000Y-56598250D01*
X110654750Y-56757000D01*
X111379000Y-56757000D01*
X111379000Y-56737000D01*
X111633000Y-56737000D01*
X111633000Y-56757000D01*
X112357250Y-56757000D01*
X112450158Y-56664092D01*
X112569491Y-56743827D01*
X112927300Y-56815000D01*
X113565162Y-56815000D01*
X113600243Y-56991365D01*
X113740591Y-57201409D01*
X113950635Y-57341757D01*
X114198400Y-57391040D01*
X115925600Y-57391040D01*
X116173365Y-57341757D01*
X116383409Y-57201409D01*
X116523757Y-56991365D01*
X116531441Y-56952733D01*
X116542330Y-56969029D01*
X117028511Y-57293885D01*
X117602000Y-57407959D01*
X118175489Y-57293885D01*
X118661670Y-56969029D01*
X118872000Y-56654248D01*
X119082330Y-56969029D01*
X119568511Y-57293885D01*
X120142000Y-57407959D01*
X120715489Y-57293885D01*
X121201670Y-56969029D01*
X121412000Y-56654248D01*
X121622330Y-56969029D01*
X122108511Y-57293885D01*
X122682000Y-57407959D01*
X123255489Y-57293885D01*
X123741670Y-56969029D01*
X123957664Y-56645772D01*
X124015179Y-56768490D01*
X124447053Y-57162688D01*
X124862974Y-57334958D01*
X125095000Y-57213817D01*
X125095000Y-56007000D01*
X125075000Y-56007000D01*
X125075000Y-55753000D01*
X125095000Y-55753000D01*
X125095000Y-55733000D01*
X125349000Y-55733000D01*
X125349000Y-55753000D01*
X125369000Y-55753000D01*
X125369000Y-56007000D01*
X125349000Y-56007000D01*
X125349000Y-57213817D01*
X125581026Y-57334958D01*
X125996947Y-57162688D01*
X126428821Y-56768490D01*
X126486336Y-56645772D01*
X126702330Y-56969029D01*
X127188511Y-57293885D01*
X127762000Y-57407959D01*
X128335489Y-57293885D01*
X128821670Y-56969029D01*
X129032000Y-56654248D01*
X129242330Y-56969029D01*
X129728511Y-57293885D01*
X130302000Y-57407959D01*
X130875489Y-57293885D01*
X131361670Y-56969029D01*
X131572000Y-56654248D01*
X131782330Y-56969029D01*
X132097000Y-57179285D01*
X132097000Y-59490810D01*
X132005843Y-59627235D01*
X131956560Y-59875000D01*
X131956560Y-60775000D01*
X132005843Y-61022765D01*
X132146191Y-61232809D01*
X132356235Y-61373157D01*
X132601788Y-61422000D01*
X127805213Y-61422000D01*
X127667195Y-61087971D01*
X127277928Y-60698025D01*
X126769066Y-60486727D01*
X126218079Y-60486246D01*
X125708849Y-60696655D01*
X125318903Y-61085922D01*
X125107605Y-61594784D01*
X125107124Y-62145771D01*
X125317533Y-62655001D01*
X125388394Y-62725985D01*
X125303000Y-62708999D01*
X125302995Y-62709000D01*
X120991440Y-62709000D01*
X120991440Y-61454000D01*
X120942157Y-61206235D01*
X120801809Y-60996191D01*
X120591765Y-60855843D01*
X120344000Y-60806560D01*
X117160143Y-60806560D01*
X117160143Y-57900000D01*
X112053180Y-57900000D01*
X112240699Y-57822327D01*
X112419327Y-57643698D01*
X112516000Y-57410309D01*
X112516000Y-57169750D01*
X112357250Y-57011000D01*
X111633000Y-57011000D01*
X111633000Y-57031000D01*
X111379000Y-57031000D01*
X111379000Y-57011000D01*
X110654750Y-57011000D01*
X110496000Y-57169750D01*
X110496000Y-57410309D01*
X110592673Y-57643698D01*
X110771301Y-57822327D01*
X110958820Y-57900000D01*
X107710000Y-57900000D01*
X107710000Y-51301691D01*
X110496000Y-51301691D01*
X110496000Y-51542250D01*
X110654750Y-51701000D01*
X111379000Y-51701000D01*
X111379000Y-50951750D01*
X111633000Y-50951750D01*
X111633000Y-51701000D01*
X112357250Y-51701000D01*
X112516000Y-51542250D01*
X112516000Y-51301691D01*
X112419327Y-51068302D01*
X112240699Y-50889673D01*
X112007310Y-50793000D01*
X111791750Y-50793000D01*
X111633000Y-50951750D01*
X111379000Y-50951750D01*
X111220250Y-50793000D01*
X111004690Y-50793000D01*
X110771301Y-50889673D01*
X110592673Y-51068302D01*
X110496000Y-51301691D01*
X107710000Y-51301691D01*
X107710000Y-50710000D01*
X131639095Y-50710000D01*
X131594839Y-50739571D01*
G36*
X159710000Y-59321700D02*
X159730000Y-59321700D01*
X159730000Y-59575700D01*
X159710000Y-59575700D01*
X159710000Y-59595700D01*
X159552500Y-59595700D01*
X159552500Y-59305300D01*
X159710000Y-59305300D01*
X159710000Y-59321700D01*
X159710000Y-59321700D01*
G37*
X159710000Y-59321700D02*
X159730000Y-59321700D01*
X159730000Y-59575700D01*
X159710000Y-59575700D01*
X159710000Y-59595700D01*
X159552500Y-59595700D01*
X159552500Y-59305300D01*
X159710000Y-59305300D01*
X159710000Y-59321700D01*
M02*
