M48
;DRILL file {KiCad 4.0.2+dfsg1-stable} date mer 10 ott 2018 09:07:10 CEST
;FORMAT={-:-/ absolute / inch / decimal}
FMAT,2
INCH,TZ
T1C0.016
T2C0.020
T3C0.079
%
G90
G05
M72
T1
X4.2571Y-4.1395
X4.2582Y-4.3569
X4.2618Y-4.2982
X4.2646Y-4.2381
X4.275Y-3.9751
X4.2759Y-4.0812
X4.276Y-4.4192
X4.276Y-4.4834
X4.2891Y-4.0333
X4.3032Y-4.2625
X4.3057Y-4.3282
X4.3156Y-4.5101
X4.3185Y-4.3756
X4.3235Y-4.4617
X4.3248Y-3.9836
X4.3379Y-4.0549
X4.3482Y-4.1
X4.3487Y-4.4189
X4.3539Y-4.1442
X4.3661Y-4.0193
X4.3719Y-4.4943
X4.3813Y-4.3861
X4.3897Y-4.1999
X4.4006Y-4.2956
X4.4009Y-3.9732
X4.4085Y-4.341
X4.4149Y-4.4182
X4.4215Y-4.007
X4.4253Y-4.519
X4.4497Y-4.0643
X4.4516Y-4.1122
X4.4539Y-4.1671
X4.4807Y-3.9967
X4.4873Y-4.0352
X4.5032Y-4.0766
X4.5232Y-4.522
X4.5286Y-3.9742
X4.5352Y-4.0474
X4.5357Y-4.1822
X4.5499Y-4.3223
X4.5538Y-4.2372
X4.5687Y-4.2758
X4.5707Y-4.4211
X4.5954Y-4.3213
X4.6023Y-4.521
X4.6037Y-3.976
X4.645Y-4.3183
X4.6457Y-4.4229
X4.6507Y-4.0089
X4.6563Y-4.0662
X4.6685Y-4.2837
X4.6737Y-3.9557
X4.6863Y-4.519
X4.7219Y-4.429
X4.7268Y-3.955
X4.7683Y-4.2373
X4.7747Y-3.955
X4.7813Y-4.519
X4.924Y-4.1031
X4.9241Y-4.2828
X4.9518Y-4.1901
X4.9554Y-4.3466
X4.957Y-4.3092
X4.9832Y-4.1155
X5.0705Y-4.3361
X5.0715Y-4.3023
X5.0787Y-4.1603
X5.1959Y-4.3545
X5.5726Y-4.3868
X5.577Y-4.2003
X5.6134Y-4.4102
X5.6322Y-4.3059
X5.6897Y-4.3293
X5.6929Y-4.4852
X5.7365Y-4.3856
X5.7753Y-4.4149
X5.7835Y-4.3422
X5.7884Y-4.1887
X5.8234Y-4.2901
X5.8492Y-4.2148
X5.8832Y-4.3158
X5.8844Y-4.4588
X5.9014Y-4.3436
X5.9251Y-4.3229
X5.9254Y-4.1733
X5.9547Y-4.3982
X5.9929Y-4.442
X6.0033Y-4.0937
X6.0647Y-4.4067
X6.0726Y-3.9924
X6.0776Y-4.4864
X6.1236Y-4.4208
X6.1987Y-4.2532
X6.2316Y-4.2296
X6.26Y-4.428
X6.2635Y-4.3669
X6.4134Y-4.3962
T2
X5.Y-4.0406
X5.0263Y-4.1842
X5.0263Y-4.2334
X5.0263Y-4.2826
X5.0263Y-4.3318
X5.0492Y-4.0406
T3
X5.1968Y-4.2436
X5.4685Y-4.2436
X6.8897Y-4.243
X7.1614Y-4.243
T0
M30
